<svg xmlns="http://www.w3.org/2000/svg" viewBox="0 0 120.33 21.11"><g id="Layer_2" data-name="Layer 2"><g id="Layer_1-2" data-name="Layer 1"><path d="M40.63,1.48a10.23,10.23,0,0,0-1.58,1.17V18.48a10.23,10.23,0,0,0,1.58,1.17Z"/><path d="M42.1.73v6l.09-.11a5.53,5.53,0,0,1,1.49-1V.27A9.54,9.54,0,0,0,42.1.73Z"/><path d="M45.15,5.14a7.3,7.3,0,0,1,1-.08c.22,0,.42,0,.63.06V.06c-.21,0-.41-.06-.63-.06s-.63.06-1,.08Z"/><path d="M43.68,15.52a5.41,5.41,0,0,1-1.49-1l-.09-.12v6a10.61,10.61,0,0,0,1.58.46Z"/><path d="M53.61,3.07A10.07,10.07,0,0,0,48.2.19V5.44A5.16,5.16,0,0,1,50,6.62a5.22,5.22,0,0,1,1.56,3.93,5.37,5.37,0,0,1-1.56,4,5.41,5.41,0,0,1-1.8,1.15v5.25a10.1,10.1,0,0,0,5.41-2.85,10.21,10.21,0,0,0,3.1-7.52A10,10,0,0,0,53.61,3.07Z"/><path d="M37.58,4.23a10.12,10.12,0,0,0-2.1,6.32,10.23,10.23,0,0,0,2.1,6.35Z"/><path d="M46.73,16c-.21,0-.41.05-.63.05a7.3,7.3,0,0,1-1-.08V21c.32,0,.62.08,1,.08s.42,0,.63-.06Z"/><path d="M83.86,15.09a5.45,5.45,0,0,1-.72-.57,5.09,5.09,0,0,1-.86-1.18V20a9.4,9.4,0,0,0,1.58.61Z"/><path d="M86.91,16a5.74,5.74,0,0,1-1.58-.26V21a13.26,13.26,0,0,0,1.58.14Z"/><path d="M82.28,7.77a4.93,4.93,0,0,1,.86-1.15A5.79,5.79,0,0,1,83.86,6V.49a9.43,9.43,0,0,0-1.58.62Z"/><path d="M86.91,0a13.26,13.26,0,0,0-1.58.14V5.33a5.68,5.68,0,0,1,1.58-.26Z"/><path d="M94.56,3.07A10.06,10.06,0,0,0,88.38.12v5.1a5.27,5.27,0,0,1,4.13,5.33,5.2,5.2,0,0,1-4.13,5.34V21a10.21,10.21,0,0,0,6.18-2.92,10.25,10.25,0,0,0,3.1-7.52A10.08,10.08,0,0,0,94.56,3.07Z"/><path d="M77.76,5.41a10.3,10.3,0,0,0-1.33,5.14,10.35,10.35,0,0,0,1.33,5.16Z"/><path d="M80.81,2a10.31,10.31,0,0,0-1.32,1.09c-.1.1-.17.21-.27.32V17.75c.1.1.17.22.27.32a11.13,11.13,0,0,0,1.32,1.08Z"/><polygon points="22.29 0.43 17.12 0.43 17.12 20.68 21.14 20.68 22.29 19.03 22.29 0.43"/><polygon points="29.44 0.43 23.76 8.53 23.76 16.94 28.28 10.5 28.28 20.68 33.43 20.68 33.43 0.43 29.44 0.43"/><path d="M13.3,9.63A7,7,0,0,0,8.36,7.89H6.65v4.66h1.5A2,2,0,0,1,9.51,13a1.62,1.62,0,0,1,.5,1.28c0,1.12-.62,1.67-1.86,1.67h-3V5.44h8.24v-5H0V20.68H8.36a6.84,6.84,0,0,0,4.94-1.77,6.09,6.09,0,0,0,1.85-4.65A6,6,0,0,0,13.3,9.63Z"/><polygon points="69.61 0.43 69.61 7.92 65.38 7.92 65.38 12.9 69.61 12.9 69.61 20.68 74.75 20.68 74.75 0.43 69.61 0.43"/><rect x="58.73" y="0.43" width="5.17" height="20.24"/><rect x="99.68" y="0.43" width="5.18" height="20.24"/><polygon points="115.18 0.43 110 9.08 106.33 2.9 106.33 12.24 109.74 17.9 110.26 17.9 115.18 9.78 115.18 20.68 120.33 20.68 120.33 0.43 115.18 0.43"/></g></g></svg>