<svg width="125" height="125" viewBox="0 0 125 125" fill="none" xmlns="http://www.w3.org/2000/svg">
<path fill-rule="evenodd" clip-rule="evenodd" d="M48.2914 64.5064C48.5796 64.5201 48.9228 64.527 49.2385 64.527C50.5563 64.527 51.3181 63.9161 51.3181 62.7699C51.3181 61.5345 50.4053 61.1296 48.2914 61.1296V64.5064V64.5064ZM49.3483 57.1557C49.9729 57.1557 51.2426 57.1008 51.9633 57.0596C51.9427 57.1969 51.9289 57.4028 51.9289 57.4577C51.9289 57.5332 51.9495 57.7116 51.9633 57.8352C51.3181 57.746 50.2474 57.6773 49.918 57.6773C49.6846 57.6773 48.7787 57.6979 48.2914 57.746V60.5393H48.861C50.0209 60.5393 52.4643 60.759 52.4643 62.7768C52.4643 64.4103 51.0916 65.1584 49.2866 65.1515C49.0875 65.1515 48.3257 65.1172 47.8453 65.1172C47.6325 65.1172 47.3785 65.1309 47.2001 65.1515C47.2687 63.9298 47.2893 62.2346 47.2893 60.8345C47.2893 59.5785 47.2825 57.6705 47.2001 57.0596C47.9139 57.0871 49.0944 57.1557 49.3483 57.1557ZM56.9529 62.3581L56.2185 62.4679C55.4155 62.5915 54.5302 62.8729 54.5302 63.7171C54.5302 64.3622 54.8871 64.7054 55.6077 64.7054C56.0538 64.7054 56.4999 64.5475 56.9529 64.074V62.3581ZM53.9605 60.2511C54.3929 59.7157 55.1959 59.4824 55.8616 59.4824C57.0284 59.4824 57.8383 60.0589 57.8383 61.4522V64.2112C57.8383 64.7809 57.9618 64.9113 58.1952 64.9113C58.2775 64.9113 58.3942 64.8907 58.4629 64.8633L58.5315 65.1309C58.1746 65.3094 57.8452 65.3437 57.701 65.3437C57.3373 65.3437 57.1039 65.179 57.0147 64.8564L56.9461 64.6093C56.3421 65.0897 55.6901 65.3437 55.1479 65.3437C54.1321 65.3437 53.4801 64.8083 53.4801 63.8749C53.4801 62.8729 54.2282 62.4062 55.2508 62.214L56.3833 62.0012C56.7608 61.9326 56.9666 61.8228 56.9666 61.5414C56.9666 60.3266 56.4519 60.0177 55.6077 60.0177C54.9557 60.0177 54.4615 60.2099 54.1046 60.9306H53.9674V60.2511H53.9605ZM60.1101 59.5167C60.2336 59.5167 60.4601 59.4961 60.6317 59.4824C60.5425 60.3334 60.5287 61.7404 60.5287 61.8022C60.9954 61.8228 61.6681 61.8502 62.0249 61.8502C62.3887 61.8502 63.0888 61.8297 63.4182 61.8022C63.4182 61.7336 63.4045 60.3266 63.3221 59.4824C63.5074 59.4961 63.7545 59.5167 63.8849 59.5167C64.0085 59.5167 64.2418 59.4961 64.4065 59.4824C64.3173 60.3197 64.3036 61.7336 64.3036 62.317C64.3036 62.7905 64.3173 64.3005 64.4065 65.1515C64.2418 65.1309 64.0634 65.1172 63.8986 65.1172C63.7133 65.1172 63.4868 65.1241 63.3221 65.1515C63.4113 64.3005 63.4182 62.7905 63.4182 62.4268C62.9309 62.3924 62.2652 62.3444 62.0112 62.3444C61.7092 62.3444 60.968 62.365 60.5287 62.3993C60.5287 62.7837 60.5425 64.2936 60.6317 65.1447C60.467 65.1241 60.2885 65.1103 60.1238 65.1103C59.9385 65.1103 59.712 65.1172 59.5473 65.1447C59.6365 64.2936 59.6434 62.7837 59.6434 62.3101C59.6434 61.7404 59.6296 60.3197 59.5473 59.4755C59.7326 59.4961 59.9728 59.5167 60.1101 59.5167ZM66.6028 59.5167C66.7263 59.5167 66.9665 59.4961 67.1381 59.4824C67.0489 60.3197 67.0421 61.7404 67.0421 61.9463H67.2274C67.6048 61.9463 69.5335 59.7912 69.7188 59.4824C69.8766 59.4961 70.1374 59.5167 70.2747 59.5167C70.3914 59.5167 70.6659 59.4961 70.8375 59.4824L68.099 61.8777C68.4422 62.2826 70.2541 64.2867 71.0777 65.1447C70.7689 65.1241 70.5561 65.1103 70.3914 65.1103C70.1855 65.1103 69.8766 65.1172 69.6364 65.1447C69.2109 64.4926 67.9206 63.0033 67.2136 62.2415H67.0283C67.0283 62.6533 67.0352 64.2936 67.1244 65.1447C66.9528 65.1241 66.7744 65.1103 66.6028 65.1103C66.4106 65.1103 66.1841 65.1172 66.0126 65.1447C66.1086 64.2936 66.1155 62.7837 66.1155 62.3101C66.1155 61.7404 66.1018 60.3197 66.0126 59.4755C66.2116 59.4961 66.4655 59.5167 66.6028 59.5167ZM77.5224 60.8894C79.1078 60.8894 80.0413 60.2648 80.0413 59.0843C80.0413 57.9793 79.1559 57.6842 78.0577 57.6842C77.8656 57.6842 77.2067 57.6979 77.0488 57.7185V60.8482C77.1861 60.8688 77.4126 60.8894 77.5224 60.8894ZM77.0831 57.0939C77.4812 57.0939 77.9891 57.0596 78.2842 57.0596C80.3844 57.0596 81.2012 57.6842 81.2012 59.0843C81.2012 60.9031 79.65 61.4796 77.8038 61.4796C77.7008 61.4796 77.2685 61.459 77.0557 61.4316V63.3533C77.0557 63.9093 77.0831 64.5887 77.1518 65.1447C76.9596 65.1241 76.7674 65.1103 76.5752 65.1103C76.3693 65.1103 76.1291 65.1241 75.9507 65.1447C76.0193 63.923 76.0399 62.2277 76.0399 60.8207C76.0399 59.5647 76.0262 57.6567 75.9507 57.0459C76.3144 57.0665 76.8223 57.0939 77.0831 57.0939ZM82.265 62.5023C82.265 63.7583 82.7934 64.9182 83.9808 64.9182C85.1201 64.9182 85.8065 63.8269 85.8065 62.3307C85.8065 61.1296 85.3329 59.9148 84.07 59.9148C82.8552 59.9148 82.265 61.1776 82.265 62.5023ZM86.8634 62.3787C86.8634 60.7109 85.7996 59.4824 84.0975 59.4824C82.3885 59.4824 81.2012 60.6835 81.2012 62.5366C81.2012 64.0946 82.2787 65.3574 84.0014 65.3574C85.7516 65.3506 86.8634 64.0877 86.8634 62.3787ZM92.4502 60.807H92.3129C91.9148 60.1756 91.3589 59.9148 90.7275 59.9148C89.396 59.9148 88.7577 61.1708 88.7577 62.3993C88.7577 63.8132 89.5538 64.9182 90.9677 64.9182C91.4344 64.9182 91.8599 64.8495 92.5188 64.1495L92.6218 64.273L92.4845 64.8221C91.9354 65.179 91.3246 65.3574 90.6177 65.3574C88.8401 65.3574 87.6801 64.1426 87.6801 62.4268C87.6801 60.6354 88.9361 59.4893 90.7687 59.4893C91.3658 59.4893 92.0109 59.5991 92.7385 59.9765L92.4502 60.807ZM98.3183 60.807H98.1811C97.783 60.1756 97.2271 59.9148 96.6025 59.9148C95.2642 59.9148 94.6259 61.1708 94.6259 62.3993C94.6259 63.8132 95.4289 64.9182 96.8359 64.9182C97.3026 64.9182 97.7212 64.8495 98.387 64.1495L98.4899 64.273L98.3527 64.8221C97.8036 65.179 97.1928 65.3574 96.4858 65.3574C94.7082 65.3574 93.5483 64.1426 93.5483 62.4268C93.5483 60.6354 94.8043 59.4893 96.6368 59.4893C97.2271 59.4893 97.8791 59.5991 98.6066 59.9765L98.3183 60.807ZM99.7665 65.1172C99.6979 65.1172 99.4989 65.1378 99.4096 65.1515C99.4989 64.3005 99.5126 62.7905 99.5126 62.317C99.5126 61.7473 99.4989 60.3266 99.4096 59.4824C99.6018 59.4961 99.842 59.5167 99.9724 59.5167C100.096 59.5167 100.322 59.4961 100.494 59.4824C100.405 60.3197 100.398 61.7336 100.398 62.317C100.398 62.7905 100.405 63.4494 100.419 63.7651C101.029 63.017 103.198 60.2236 103.72 59.4893C103.836 59.5098 103.919 59.5236 104.049 59.5236C104.118 59.5236 104.344 59.503 104.475 59.4893C104.386 60.3266 104.372 61.7404 104.372 62.3238C104.372 62.7974 104.386 64.3073 104.475 65.1584C104.31 65.1378 104.132 65.1241 103.967 65.1241C103.775 65.1241 103.555 65.1378 103.39 65.1584C103.48 64.3073 103.493 62.7974 103.493 62.3238C103.493 61.7404 103.48 61.0266 103.473 60.7864C102.718 61.562 100.727 64.2044 100.096 65.1515C99.9862 65.1309 99.8901 65.1172 99.7665 65.1172ZM106.225 65.1515C106.156 65.1515 105.95 65.1721 105.861 65.1858C105.95 64.3279 105.964 62.7974 105.964 62.317C105.964 61.7404 105.95 60.2991 105.861 59.4481C106.053 59.4618 106.3 59.4824 106.438 59.4824C106.561 59.4824 106.801 59.4618 106.973 59.4481C106.884 60.2991 106.87 61.7267 106.87 62.317C106.87 62.7905 106.877 63.4631 106.891 63.7788C107.515 63.0239 109.732 60.1962 110.267 59.4481C110.391 59.4687 110.473 59.4824 110.611 59.4824C110.679 59.4824 110.919 59.4618 111.043 59.4481C110.954 60.2991 110.94 61.7267 110.94 62.317C110.94 62.7905 110.954 64.3211 111.043 65.1858C110.871 65.1652 110.693 65.1515 110.521 65.1515C110.329 65.1515 110.103 65.1652 109.938 65.1858C110.027 64.3279 110.041 62.7974 110.041 62.317C110.041 61.7267 110.034 61.0061 110.02 60.7658C109.252 61.5483 107.206 64.225 106.561 65.1858C106.451 65.1652 106.348 65.1515 106.225 65.1515ZM27.2415 75.3848C19.98 75.3848 14.0981 69.5029 14.0981 62.2415C14.0981 54.98 19.98 49.0981 27.2415 49.0981C34.5029 49.0981 40.3848 54.98 40.3848 62.2415C40.3848 69.5029 34.496 75.3848 27.2415 75.3848ZM27.2415 48C19.3761 48 13 54.3761 13 62.2415C13 70.1069 19.3761 76.4829 27.2415 76.4829C35.1069 76.4829 41.4898 70.1069 41.4898 62.2415C41.4898 54.3761 35.1069 48 27.2415 48ZM38.4768 66.4624C38.4562 66.0163 38.4905 65.378 38.4836 64.8907C38.4768 64.4583 38.3532 63.9161 38.2228 63.7171C38.3052 63.7926 38.4425 63.8269 38.5523 63.8269C38.4905 63.7033 38.3327 63.2161 38.3876 62.4542C38.4699 61.3973 38.264 61.0061 38.2297 60.9168C38.3258 60.9511 38.4013 60.9649 38.5042 60.9717C38.4699 60.7933 38.4356 60.6286 38.4013 60.4707C38.2915 59.9216 38.1267 58.7 37.8248 58.3293C37.8248 58.3293 37.8865 58.3362 37.9346 58.3293C37.9208 58.096 37.7149 57.2243 37.3649 56.689C37.2482 56.5106 37.0012 56.2154 36.7747 56.1125C36.7884 56.085 36.8021 56.0644 36.809 56.0438C36.8639 55.9066 36.8159 55.8105 36.6717 55.7693C36.5962 55.7487 36.5139 55.7487 36.4384 55.7213C36.2119 55.6458 35.9854 55.5771 35.7658 55.4879C35.3814 55.3232 35.0039 55.131 34.5784 55.083C34.0156 55.0143 33.4665 55.0487 32.993 55.3987C32.3409 55.886 32.0184 56.6959 32.4027 57.6224C32.4164 57.6567 32.4233 57.6842 32.4439 57.7185C32.5743 57.9381 32.5194 58.1303 32.3478 58.295C32.0458 58.6039 31.6821 58.8098 31.2497 58.8578C30.982 58.8921 30.7555 58.7686 30.5702 58.5833C30.1584 58.1578 29.8633 57.6567 29.774 57.0665C29.7191 56.7096 29.6917 56.4694 29.7123 56.1056C29.726 55.8654 29.7946 55.584 29.8427 55.5222C29.8427 55.5222 29.9388 55.6801 30.0486 55.7419C29.9113 55.2889 30.0554 55.0349 30.0554 55.0349C30.0554 55.0349 30.1104 55.1791 30.2133 55.2889C30.1653 54.9183 30.4055 54.5888 30.8722 54.4653C30.9957 54.431 31.2222 54.4104 31.3526 54.3692C32.2037 54.1221 32.3409 54.3349 32.3409 54.3349C32.3066 54.2319 32.1694 54.0466 32.0527 53.9986C32.3547 54.1015 32.7939 54.3761 33.4391 54.28C33.9744 54.1907 34.098 53.6074 33.6999 53.3671C33.6999 53.3671 33.8989 53.6966 33.6038 53.9299C33.4528 54.0466 33.0959 54.0054 32.9655 53.978C32.7184 53.9231 32.3409 53.6897 32.3409 53.6897C32.6704 53.5387 32.993 53.6623 33.2949 53.8133C33.343 53.5593 33.1783 53.2161 32.9381 53.0789C32.6772 52.9279 32.4645 52.8867 32.0115 52.8387C32.0115 52.8387 31.7232 52.5367 31.2085 52.4337C31.0369 52.3994 30.7212 52.4063 30.4467 52.4612C30.0143 52.5435 29.8221 52.6328 29.4172 52.7357C29.1083 52.8112 28.3396 52.9897 27.7494 52.5916C27.7494 52.5916 27.969 53.0857 28.5386 53.2299C28.3808 53.2779 28.0857 53.2367 27.866 53.1201C27.969 53.2642 28.1543 53.4701 28.4563 53.5662C28.3671 53.6554 28.0788 53.676 27.9141 53.5868C28.0925 53.7995 28.2229 53.875 28.4151 53.9162C27.8454 54.5476 27.4817 55.3644 27.2826 56.8537C27.0561 55.3575 26.7267 54.5476 26.1571 53.9162C26.3492 53.8819 26.4796 53.7995 26.6581 53.5868C26.5002 53.676 26.2051 53.6554 26.1227 53.5662C26.4179 53.4701 26.61 53.2642 26.713 53.1201C26.4934 53.2367 26.1914 53.2779 26.0335 53.2299C26.6032 53.0857 26.8228 52.5847 26.8228 52.5916C26.2257 52.9828 25.4707 52.8112 25.155 52.7357C24.7501 52.6328 24.5579 52.5435 24.1255 52.4612C23.851 52.4063 23.5353 52.3994 23.3637 52.4337C22.8489 52.5367 22.5607 52.8387 22.5607 52.8387C22.1008 52.8867 21.8881 52.9347 21.6341 53.0789C21.3939 53.2161 21.2223 53.5593 21.2772 53.8133C21.5723 53.6554 21.9018 53.5387 22.2312 53.6897C22.2312 53.6897 21.8537 53.9162 21.6067 53.978C21.4831 54.0054 21.1262 54.0535 20.9684 53.9299C20.6732 53.7034 20.8723 53.3671 20.8723 53.3671C20.4742 53.6005 20.5978 54.1907 21.1262 54.28C21.7782 54.3829 22.2106 54.1015 22.5195 53.9986C22.3959 54.0466 22.2587 54.2319 22.2243 54.3349C22.2243 54.3349 22.3616 54.1221 23.2127 54.3692C23.3431 54.4035 23.5627 54.431 23.6931 54.4653C24.153 54.5888 24.4 54.9114 24.352 55.2889C24.4549 55.1859 24.5099 55.0349 24.5099 55.0349C24.5099 55.0349 24.654 55.2889 24.5167 55.7419C24.6265 55.687 24.7226 55.5222 24.7226 55.5222C24.7707 55.5771 24.8393 55.8585 24.8599 56.1056C24.8805 56.4694 24.853 56.7096 24.7913 57.0665C24.702 57.6567 24.4069 58.1509 23.9951 58.5833C23.8167 58.7686 23.5902 58.8921 23.3156 58.8578C22.8832 58.8098 22.5195 58.6039 22.2175 58.295C22.0459 58.1234 21.9979 57.9381 22.1214 57.7185C22.142 57.6911 22.1489 57.6567 22.1626 57.6224C22.5469 56.6959 22.2244 55.886 21.5723 55.3987C21.0919 55.0487 20.5428 55.0143 19.98 55.083C19.5545 55.131 19.177 55.3232 18.7858 55.4879C18.5731 55.5771 18.3466 55.6458 18.1201 55.7213C18.0446 55.7487 17.9622 55.7487 17.8867 55.7693C17.7426 55.8105 17.7014 55.9066 17.7563 56.0438C17.7632 56.0644 17.7769 56.0919 17.7906 56.1125C17.5641 56.2154 17.3171 56.5174 17.2004 56.689C16.8435 57.2312 16.6444 58.096 16.6307 58.3293C16.6788 58.3362 16.7405 58.3293 16.7405 58.3293C16.4454 58.7 16.2738 59.9216 16.164 60.4707C16.1297 60.6354 16.1022 60.7933 16.0679 60.9717C16.1709 60.9649 16.2464 60.9511 16.3425 60.9168C16.3082 61.0061 16.1022 61.3973 16.1846 62.4542C16.2464 63.2161 16.0817 63.7033 16.0199 63.8269C16.1228 63.8269 16.2601 63.7926 16.3493 63.7171C16.2258 63.9161 16.0954 64.4583 16.0885 64.8907C16.0816 65.3849 16.116 66.0232 16.0954 66.4624C16.0611 67.135 15.8208 67.2792 15.6699 67.3821C15.8552 67.4301 16.1022 67.3958 16.2738 67.2723C16.3974 67.1762 16.4729 67.1762 16.6444 67.1693C16.9258 67.1625 17.1523 67.0321 17.3582 66.8536C17.4337 66.785 17.5436 66.7438 17.6465 66.7301C17.9485 66.7026 18.0858 66.586 18.2917 66.3732C18.326 66.3389 18.3877 66.3183 18.4358 66.3046C19.582 66.0369 19.582 64.8427 19.6026 64.4789C19.7741 64.4583 19.9732 64.2661 20.0693 64.122C20.083 64.0946 20.1173 64.0602 20.1585 64.074C20.6252 64.2181 20.9341 63.4357 21.037 63.1611C21.1194 62.9278 21.1811 62.6533 21.2086 62.4062C21.2223 62.6189 21.6135 62.9827 21.9567 62.3993C21.9567 63.2435 22.6156 63.0994 22.7734 62.5366C22.945 63.5592 23.6725 63.0719 23.6657 62.3101C23.6725 63.4769 24.3863 63.3053 24.352 62.9552C24.3932 63.1268 24.5853 63.3259 24.5853 63.3259C22.9038 63.6279 23.3911 64.4995 22.6499 64.9319C22.9038 65.0211 23.1372 64.877 23.0891 64.9456C22.9107 65.2202 22.8283 65.4535 22.7871 65.7349C22.7871 65.7349 21.9224 66.5791 21.5792 66.8948C21.4488 67.0183 21.3047 67.1213 21.1605 67.2311C21.1194 67.2654 21.0576 67.2997 21.0027 67.3272C20.9889 67.286 20.9889 67.2448 20.9821 67.2242C20.9134 66.9429 20.838 66.6683 20.6664 66.435C20.4262 66.1124 20.0761 66.0369 19.7329 66.2497C19.6025 66.332 19.4722 66.3663 19.3212 66.3663C19.0535 66.3663 18.827 66.6134 18.8339 66.8742C19.0329 66.7369 19.2663 66.8056 19.3623 66.9154C18.9368 66.9978 18.7103 67.389 18.8339 67.6292C18.8613 67.5811 18.9025 67.5262 18.9574 67.4988C19.1359 67.4027 19.2937 67.4576 19.3349 67.5606C19.4241 67.7802 19.6094 67.8488 19.8222 67.8694C20.1928 67.9106 20.5566 67.938 20.9409 67.9861C21.4694 68.0547 21.4488 68.4047 21.5518 68.6518C21.6204 68.8165 21.7782 68.9264 21.9635 68.9264C22.0528 68.9264 22.1351 68.8989 22.2038 68.8577C22.2518 69.0019 22.2106 69.1597 22.0528 69.1872C22.1832 69.2352 22.4303 69.1528 22.5057 68.9813C22.6567 68.6724 22.5881 68.4253 22.3273 68.1988C22.3067 68.1783 22.2793 68.1645 22.2587 68.1439C22.2518 68.1302 22.2312 68.1233 22.2243 68.1165C22.1557 68.0547 22.0802 67.9998 22.0185 67.938C21.9018 67.8282 21.8812 67.6978 21.9704 67.5606C22.0459 67.437 22.1351 67.3203 22.2449 67.2311C22.5607 66.9634 22.8832 66.7095 23.2127 66.4556C23.3088 66.3801 23.4186 66.3114 23.5284 66.2497C23.6176 66.2016 23.7412 66.1742 23.8578 66.2153C24.1118 66.3046 24.2559 66.1947 24.3177 66.1467C24.352 66.1192 24.702 65.7761 25.7521 65.632C25.6011 65.728 25.5394 65.8722 25.4776 66.0163C25.4295 66.1467 25.3746 66.2702 25.3197 66.3938C24.7295 67.7802 24.153 69.1391 23.5627 70.5255C23.3705 70.9854 23.5421 71.3834 24.0157 71.6031C24.3589 71.7609 24.7569 71.6786 24.9903 71.3423C24.9216 71.5688 24.8942 71.7678 24.9834 71.96C25.0727 72.1521 25.2236 72.2894 25.4227 72.3718C25.6148 72.4541 25.8345 72.4816 26.0404 72.4404C26.2531 72.3992 26.3904 72.262 26.5002 72.0561C26.514 72.509 26.8022 72.7767 27.1866 72.8316V72.8385C27.214 72.8385 27.2483 72.8453 27.2758 72.8453C27.2895 72.8453 27.2964 72.8453 27.3032 72.8453C27.317 72.8453 27.3238 72.8453 27.3376 72.8453C27.3719 72.8453 27.3993 72.8453 27.4268 72.8385V72.8316C27.818 72.7767 28.0994 72.509 28.12 72.0561C28.2229 72.262 28.367 72.3992 28.573 72.4404C28.7789 72.4816 29.0054 72.4541 29.1907 72.3718C29.3828 72.2894 29.5338 72.1521 29.6299 71.96C29.726 71.7678 29.6917 71.5756 29.623 71.3423C29.8564 71.6786 30.2476 71.7609 30.5976 71.6031C31.0712 71.3834 31.2428 70.9785 31.0506 70.5255C30.4604 69.1391 29.8839 67.7802 29.2936 66.3938C29.2387 66.2702 29.1907 66.1398 29.1358 66.0163C29.074 65.8722 29.0122 65.728 28.8612 65.632C29.9113 65.7761 30.2545 66.1192 30.2957 66.1467C30.3574 66.1947 30.5016 66.3046 30.7555 66.2153C30.8722 66.1742 30.9957 66.2016 31.0849 66.2497C31.1948 66.3114 31.3046 66.3801 31.4006 66.4556C31.7301 66.7095 32.0527 66.9634 32.3684 67.2311C32.4782 67.3203 32.5674 67.4439 32.6429 67.5606C32.7253 67.6978 32.7116 67.8214 32.5949 67.938C32.5263 67.9998 32.4576 68.0616 32.389 68.1165C32.3752 68.1233 32.3615 68.1371 32.3478 68.1439C32.3272 68.1645 32.3066 68.1783 32.286 68.1988C32.0252 68.4253 31.9566 68.6656 32.1076 68.9813C32.19 69.1528 32.437 69.2352 32.5606 69.1872C32.4027 69.1529 32.3615 68.995 32.4096 68.8577C32.4782 68.8989 32.5606 68.9264 32.6498 68.9264C32.842 68.9264 32.9998 68.8097 33.0685 68.6518C33.1714 68.4047 33.1508 68.0547 33.6793 67.9861C34.0636 67.938 34.4274 67.9174 34.798 67.8694C35.0039 67.842 35.1892 67.7802 35.2785 67.5606C35.3196 67.4645 35.4775 67.4027 35.6559 67.4988C35.7108 67.5262 35.7589 67.5811 35.7795 67.6292C35.903 67.389 35.6765 66.9978 35.2579 66.9154C35.3471 66.8124 35.5804 66.7438 35.7795 66.8742C35.7863 66.6134 35.5598 66.3663 35.2922 66.3663C35.1412 66.3663 35.0108 66.3389 34.8804 66.2497C34.5372 66.0369 34.1872 66.1192 33.947 66.435C33.7685 66.6683 33.693 66.9429 33.6312 67.2242C33.6244 67.2448 33.6244 67.286 33.6106 67.3272C33.5489 67.2997 33.494 67.2654 33.4528 67.2311C33.3087 67.1213 33.1645 67.0183 33.0341 66.8948C32.691 66.586 31.8262 65.7349 31.8262 65.7349C31.785 65.4604 31.7095 65.2202 31.5242 64.9456C31.4762 64.877 31.7095 65.0211 31.9634 64.9319C31.2291 64.4995 31.7095 63.6279 30.028 63.3259C30.028 63.3259 30.2133 63.12 30.2614 62.9552C30.227 63.3053 30.9408 63.4769 30.9477 62.3101C30.9408 63.0788 31.6683 63.5661 31.8399 62.5366C32.0046 63.0925 32.6567 63.2435 32.6567 62.3993C33.0067 62.9758 33.3842 62.6121 33.4048 62.4062C33.4322 62.6533 33.494 62.9278 33.5832 63.1611C33.6862 63.4357 33.995 64.2112 34.4548 64.074C34.496 64.0602 34.5303 64.0946 34.5441 64.122C34.6333 64.2661 34.8392 64.4583 35.0108 64.4789C35.0314 64.8427 35.0382 66.0369 36.1776 66.3046C36.2256 66.3183 36.2874 66.332 36.3217 66.3732C36.5276 66.586 36.6649 66.7026 36.9737 66.7301C37.0767 66.737 37.1865 66.785 37.262 66.8536C37.4679 67.0389 37.6944 67.1693 37.9758 67.1693C38.1405 67.1762 38.216 67.1762 38.3464 67.2723C38.518 67.4027 38.7582 67.437 38.9503 67.3821C38.7513 67.2792 38.518 67.135 38.4768 66.4624Z" fill="#009291"/>
</svg>
