<svg width="125" height="125" viewBox="0 0 125 125" fill="none" xmlns="http://www.w3.org/2000/svg">
<g clip-path="url(#clip0_83_742)">
<path fill-rule="evenodd" clip-rule="evenodd" d="M100.532 71.7175C100.073 71.7175 99.8724 71.3436 99.8724 70.7983C99.8724 68.7284 102.57 64.417 104.895 64.417C105.499 64.417 105.785 64.8771 105.785 65.452C105.785 67.578 102.197 71.7175 100.532 71.7175ZM109.919 67.8085C109.861 67.8085 109.832 67.8662 109.488 68.2689C107.823 70.2228 106.273 71.7175 105.412 71.7175C105.039 71.7175 104.924 71.5447 104.924 71.3148C104.924 70.309 108.254 65.1936 109.058 64.216L107.68 64.2734C107.078 64.3022 107.135 64.6754 106.101 66.3138L106.044 66.2567C106.101 66.0842 106.13 65.7963 106.13 65.4805C106.13 64.7043 105.757 64.072 104.895 64.072C102.915 64.072 100.589 65.5382 99.0395 67.4353C98.8797 67.6324 98.7747 67.7475 98.7043 67.8268C98.6045 67.9007 98.4057 68.2553 97.0608 69.6767C96.5146 70.2513 95.0794 71.7175 94.1899 71.7175C93.9603 71.7175 93.7592 71.5162 93.7592 71.2863C93.7592 71.0853 94.391 69.8781 94.391 69.2747C94.391 68.6421 93.6446 67.6649 92.8688 67.5209V67.4632C93.7882 67.2914 94.7922 66.6877 95.2805 65.9114C95.7397 65.1644 95.9703 64.8194 96.6006 64.7043C96.6296 65.3372 96.7442 65.7396 97.3475 65.7396C97.7497 65.7396 98.1514 65.452 98.1514 64.963C98.1514 64.4455 97.6917 64.072 97.0608 64.072C96.4 64.072 95.9703 64.3022 95.1364 65.3943C94.3335 66.4859 93.0413 67.2914 92.6111 67.2914C92.3239 67.2914 92.2094 67.2337 92.0653 67.2337C91.2329 67.2337 91.0608 67.5209 91.0608 67.6934C91.0608 67.8947 91.2044 68.0384 91.4915 68.0384C92.0083 68.0384 92.2954 67.6357 92.6111 67.6357C92.8402 67.6357 93.1274 67.8662 93.1274 68.0961C93.1274 68.5847 92.5536 69.0448 92.5536 69.9066C92.5536 70.7406 93.0128 72.0625 94.0753 72.0625C95.0218 72.0625 96.4571 70.7691 97.4621 69.6767C97.9841 69.1092 98.5931 68.4175 98.827 68.1087C98.8403 68.1014 98.854 68.0961 98.8678 68.0961C98.7813 68.5559 98.7243 68.9875 98.7243 69.4466C98.7243 70.7406 99.0689 72.0625 100.532 72.0625C101.624 72.0625 103.231 70.4245 104.092 69.5616C104.092 69.7056 104.063 69.8781 104.063 70.0791C104.063 71.6598 104.551 72.0625 105.327 72.0625C106.101 72.0625 107.193 71.1715 108.513 69.7915C109.173 69.0734 110.092 68.0384 110.092 67.9807C110.092 67.9233 110.034 67.8085 109.919 67.8085ZM43.614 67.8662L43.5564 67.8085C43.6998 66.9752 43.7863 66.0842 43.7863 65.1644C43.7863 64.0143 43.6425 62.8075 43.1545 61.6578C47.5176 57.0014 52.455 53.0353 53.7752 52.8625L53.8328 52.9199C49.4412 57.1453 46.0252 62.3189 43.614 67.8662ZM42.523 69.9355C40.686 69.7056 38.5044 69.1596 36.8966 67.9233C39.0494 66.0842 40.8579 63.9287 42.8669 61.9453C43.2118 62.7786 43.4417 64.216 43.4417 65.3664C43.4417 66.9464 43.0398 68.4696 42.523 69.9355ZM36.5524 67.6934C35.0596 66.5151 34.6405 62.3948 37.044 60.3252C38.6644 58.93 41.6905 59.6459 42.7238 61.5719C40.686 63.6697 38.7628 65.8252 36.5524 67.6934ZM85.4824 64.417C85.8561 64.417 86.0572 64.5898 86.0572 64.963C86.0572 67.0329 83.0137 68.6703 81.1192 68.9009C81.5214 67.2914 83.9616 64.417 85.4824 64.417ZM90.8649 64.1871C90.3482 64.9056 86.5445 68.8922 86.0049 69.4466C84.2535 71.1715 82.8711 71.746 82.0966 71.7175C81.2057 71.6886 80.8901 71.3148 80.8901 70.1939C80.8901 69.8781 80.9476 69.5616 81.0056 69.2458C82.6985 68.9009 86.9177 67.6072 86.9177 65.452C86.9177 64.6472 86.3443 64.072 85.4824 64.072C83.9331 64.072 82.0966 65.1936 80.5173 66.8027C80.3457 66.9739 79.2975 68.188 77.7053 69.8781C76.6428 70.9704 75.6093 71.7175 75.093 71.7175C74.7769 71.7175 74.6053 71.4011 74.6338 71.0853C74.7769 69.6194 77.5618 67.4065 77.5618 65.5382C77.5618 64.5032 77.1021 64.072 76.5568 64.072C74.9494 64.072 72.079 67.8947 71.074 69.0448L71.0165 68.9875C71.5337 68.0384 72.4236 66.6299 72.4236 65.3664C72.4236 64.4455 72.079 64.072 71.4472 64.072C69.9254 64.072 67.1134 68.0096 66.1079 69.1019L66.0509 69.0448C66.6247 68.0096 67.6867 66.4292 67.6867 65.1644C67.6867 64.4455 67.2565 64.072 66.5391 64.072C65.8498 64.072 64.9023 64.5607 63.5821 66.055C62.8082 66.9354 62.2663 67.5365 62.0271 67.833C61.9132 67.9475 61.676 68.3054 60.6264 69.4177C59.4497 70.6829 58.2437 71.7175 57.5835 71.7175C57.2962 71.7175 57.1246 71.4299 57.1246 71.1423C57.1246 70.6829 57.7564 69.6479 59.0475 67.8947C59.5358 67.2337 60.1096 66.4 60.1096 65.4231C60.1096 64.8194 59.7942 64.072 59.0759 64.072C57.6123 64.072 54.3116 68.0961 53.1915 69.1596L53.1338 69.1019C53.7659 68.2689 54.9427 66.6299 54.9427 65.4805C54.9427 64.6184 54.6266 64.072 53.8809 64.072C52.7611 64.072 51.5913 64.9962 50.2137 66.606C49.8765 66.9958 48.76 68.192 47.0943 69.206C46.2561 69.7166 45.2211 70.0506 44.4171 70.0506C46.3406 66.2567 47.9484 62.5488 50.3019 58.726C53.0864 54.1851 54.9811 52.3457 54.9811 52.2017C54.9811 52.0866 54.9526 52.0004 54.8376 52.0004C53.5459 52.0004 49.0105 54.7022 43.011 61.2557C41.9204 59.0422 38.5674 57.5348 36.2986 59.1247C33.1169 61.3549 34.2847 66.3715 36.294 67.9521C33.1649 70.6255 30.0361 71.89 26.1898 71.89C22.946 71.89 21.2402 68.8952 21.273 67.0963C21.2936 65.9399 21.703 64.4246 22.8898 63.4331C23.6521 62.7962 25.0455 62.3215 26.0421 62.4031C27.3016 62.5066 28.0427 62.9372 28.5735 63.4331C29.2881 64.1012 29.777 65.0526 29.8801 65.8862C30.0597 67.3421 28.7474 69.6602 25.7906 69.6602C25.3029 69.6602 25.073 69.5736 24.9295 69.5736C24.7861 69.5736 24.7576 69.6313 24.7576 69.7468C24.7576 69.9474 24.9007 70.0051 26.0778 70.0051C28.7759 70.0051 30.6802 67.7342 30.223 65.5754C30.0292 64.6608 29.681 63.8458 28.8839 63.1389C28.2296 62.5594 27.4371 62.0939 26.0092 61.9613C24.7646 61.8458 23.5683 62.1099 22.6012 62.6685C21.065 63.5545 20.0227 65.1003 19.9336 66.7042C19.7703 69.6475 22.3143 72.235 26.2759 72.235C30.5241 72.235 34.0263 70.4526 36.6097 68.1824C38.246 69.4177 40.3415 69.9929 42.4084 70.2805L41.6044 72.0625H43.6713L44.3027 70.3956C47.3189 70.2394 49.6423 67.6851 50.8412 66.3811C52.3138 64.7796 52.9618 64.417 53.7659 64.417C53.9955 64.417 54.1966 64.5607 54.1966 64.8482C54.1966 65.7396 50.1488 70.9994 49.6035 72.0625L51.5267 71.89C52.388 70.5392 57.5835 64.417 58.9613 64.417C59.22 64.417 59.3635 64.5607 59.3635 64.762C59.3635 65.5382 56.2632 67.9233 56.2632 70.2228C56.2632 71.2574 56.6647 72.0625 57.5258 72.0625C58.1861 72.0625 59.1909 71.2863 60.4541 70.0217C60.751 69.7249 61.7154 68.6686 62.1 68.1731C62.26 68.0381 62.6399 67.5033 63.7832 66.2853C64.7307 65.2795 65.7062 64.417 66.5106 64.417C66.7973 64.417 66.9404 64.5032 66.9404 64.8194C66.9404 65.2795 65.3335 67.6357 62.5486 72.0625L64.4146 71.89C65.247 70.6544 70.0985 64.2734 71.3036 64.417C71.5622 64.4455 71.6763 64.5898 71.6763 64.8482C71.6763 65.8537 68.146 70.9994 67.5722 72.0625L69.3801 71.89C70.1555 70.7121 74.8054 64.417 76.4417 64.417C76.7289 64.417 76.8149 64.5607 76.8149 64.6754C76.8149 65.7396 73.7724 67.8085 73.7724 70.2228C73.7724 71.3148 74.146 72.0625 75.0065 72.0625C75.8104 72.0625 76.7289 71.3148 78.1641 69.8204C78.7593 69.2021 79.4448 68.4746 79.6982 68.1313C79.7054 68.1386 79.7125 68.1532 79.7125 68.1824C79.7125 68.2689 79.6269 68.5847 79.6269 69.0153C79.6269 70.51 80.3163 72.091 81.8946 72.0625C83.2438 72.0336 84.3633 71.4876 85.7986 70.1654C86.5393 69.4977 90.0848 65.5094 90.6586 65.0489L90.7166 65.107L86.2098 72.0625L88.1618 71.9474L92.7822 64.072L90.8649 64.1871Z" fill="#01A29D"/>
<path fill-rule="evenodd" clip-rule="evenodd" d="M16.639 54.1079C16.873 54.1079 16.9444 54.2202 16.9444 54.5676V55.4346C16.9444 55.7816 16.8628 55.8329 16.639 55.8942L16.4359 55.9452V54.1079H16.639ZM16.7001 60.1096C17.8088 60.1096 18.3681 59.64 18.3681 58.4865V57.9046C18.3681 57.2412 18.1447 56.578 17.3511 56.4145V56.3735C18.1447 56.1593 18.3582 55.6491 18.3582 54.9653V54.2305C18.3582 53.199 17.5751 52.8423 16.6898 52.8423H15.215C15.0928 52.8423 15.0115 52.9239 15.0115 53.0461V59.9051C15.0115 60.0273 15.0928 60.1096 15.215 60.1096H16.7001ZM16.4359 58.8436V56.9148L16.639 56.9451C16.9036 56.9863 16.9444 57.057 16.9444 57.3431V58.4556C16.9444 58.7413 16.873 58.8436 16.639 58.8436H16.4359ZM32.0495 58.6394C32.0495 58.8436 32.0192 58.9455 31.7958 58.9455C31.5714 58.9455 31.5413 58.8436 31.5413 58.6394V54.3528C31.5413 54.1486 31.5714 54.0057 31.7958 54.0057C32.0192 54.0057 32.0495 54.1486 32.0495 54.3528V58.6394ZM33.4739 53.9957C33.4739 53.138 32.6805 52.6994 31.7958 52.6994C30.9105 52.6994 30.1172 53.138 30.1172 53.9957V58.9562C30.1172 59.8132 30.9105 60.2522 31.7958 60.2522C32.6805 60.2522 33.4739 59.8132 33.4739 58.9562V53.9957ZM28.2861 58.6394C28.2861 58.8436 28.2556 58.9455 28.0318 58.9455C27.8081 58.9455 27.7773 58.8436 27.7773 58.6394V54.3528C27.7773 54.1486 27.8081 54.0057 28.0318 54.0057C28.2556 54.0057 28.2861 54.1486 28.2861 54.3528V55.8839C28.2861 56.0061 28.3572 56.0674 28.4793 56.0468L29.5575 55.8223C29.6594 55.802 29.7102 55.7104 29.7102 55.6178V53.9957C29.7102 53.138 28.9168 52.6994 28.0318 52.6994C27.1465 52.6994 26.3535 53.138 26.3535 53.9957V58.9562C26.3535 59.8132 27.1465 60.2522 28.0318 60.2522C28.9168 60.2522 29.7102 59.8132 29.7102 58.9562V57.057C29.7102 56.9654 29.6594 56.8741 29.5575 56.8531L28.4793 56.6286C28.3572 56.6083 28.2861 56.6696 28.2861 56.7922V58.6394ZM22.5796 58.9562C22.5796 59.8132 23.3733 60.2522 24.2579 60.2522C25.1429 60.2522 25.9363 59.8132 25.9363 58.9562V57.9962C25.9363 55.8533 24.0037 55.9755 24.0037 54.9446V54.3528C24.0037 54.1486 24.0342 54.0057 24.2579 54.0057C24.4817 54.0057 24.5125 54.1486 24.5125 54.3528V55.302C24.5125 55.4246 24.5836 55.4855 24.7057 55.4652L25.7836 55.2407C25.8855 55.2201 25.9363 55.1285 25.9363 55.0366V53.9957C25.9363 53.138 25.1429 52.6994 24.2579 52.6994C23.3733 52.6994 22.5796 53.138 22.5796 53.9957V54.9343C22.5796 56.2206 23.3832 56.4858 23.9731 56.9351C24.4206 57.2718 24.5125 57.435 24.5125 58.0985V58.6394C24.5125 58.8436 24.4817 58.9455 24.2579 58.9455C24.0342 58.9455 24.0037 58.8436 24.0037 58.6394V57.3534C24.0037 57.2315 23.9323 57.1699 23.8105 57.1902L22.7323 57.4147C22.6307 57.435 22.5796 57.5273 22.5796 57.6189V58.9562ZM20.7485 58.6394C20.7485 58.8436 20.7184 58.9455 20.4943 58.9455C20.2705 58.9455 20.24 58.8436 20.24 58.6394V54.3528C20.24 54.1486 20.2705 54.0057 20.4943 54.0057C20.7184 54.0057 20.7485 54.1486 20.7485 54.3528V58.6394ZM22.1729 53.9957C22.1729 53.138 21.3793 52.6994 20.4943 52.6994C19.6093 52.6994 18.8159 53.138 18.8159 53.9957V58.9562C18.8159 59.8132 19.6093 60.2522 20.4943 60.2522C21.3793 60.2522 22.1729 59.8132 22.1729 58.9562V53.9957Z" fill="#01A29D"/>
</g>
<defs>
<clipPath id="clip0_83_742">
<rect width="95.5557" height="20.4423" fill="white" transform="translate(15 52)"/>
</clipPath>
</defs>
</svg>
