<svg width="125" height="125" viewBox="0 0 125 125" fill="none" xmlns="http://www.w3.org/2000/svg">
<g clip-path="url(#clip0_37_753)">
<path d="M16.9554 49H21.074V50.7476H16.9554C16.9452 50.7476 16.935 50.7578 16.935 50.7578C16.9248 50.768 16.9146 50.7782 16.9146 50.7884V58.2931V59.4002V60.0406H7.91788C7.90766 60.0406 7.89745 60.0406 7.88723 60.0508C7.87701 60.061 7.87701 60.0713 7.87701 60.0815V64.9835C7.87701 64.9937 7.87701 65.0039 7.88723 65.0142C7.89745 65.0142 7.90766 65.0244 7.91788 65.0244H16.918V66.2371V66.7719V74.2663C16.918 74.2766 16.9282 74.2868 16.9384 74.297C16.9384 74.3072 16.9486 74.3072 16.9589 74.3072H21.8881C21.8881 74.3072 21.8983 74.3072 21.9086 74.3072V74.297C21.9188 74.2868 21.929 74.2766 21.929 74.2663V66.5471V64.9563L54.9657 65.4127L23.6629 66.4824V74.5116C23.605 74.9102 23.4211 75.2576 23.1554 75.5302C23.1247 75.5506 23.1077 75.5779 23.0872 75.5881C22.767 75.881 22.348 76.0548 21.8881 76.0548H16.9554C16.4683 76.0548 16.0221 75.8606 15.6882 75.5302C15.368 75.21 15.1636 74.7637 15.1636 74.2663V66.7719H7.91788C7.39328 66.7719 6.91636 66.5675 6.56549 66.2473C6.21461 65.9135 6 65.4672 6 64.9835V60.0781C6 59.5841 6.21461 59.1379 6.56549 58.8143C6.91636 58.4838 7.39328 58.2896 7.91788 58.2896H15.1636V50.785C15.1636 50.2911 15.368 49.8448 15.6882 49.5212C16.0221 49.2044 16.4717 49 16.9554 49Z" fill="#AFCC4D"/>
<path d="M29.5802 71.3335C29.3383 71.6333 28.9875 71.8479 28.5685 71.8479C27.8667 71.8479 27.3012 71.3131 27.3012 70.4308C27.3012 69.5859 27.8667 69.0136 28.5003 69.0136C28.8716 69.0136 29.2225 69.1192 29.5121 69.4326L29.805 68.8706C29.4746 68.5027 28.9772 68.3562 28.422 68.3562C27.3796 68.3562 26.6301 69.2794 26.6301 70.4342C26.6301 71.698 27.4 72.5224 28.5208 72.5224C29.0658 72.5224 29.5836 72.2907 29.8732 71.8513L29.5802 71.3335ZM33.2797 71.4289C33.0549 71.6707 32.6563 71.8479 32.1998 71.8479C31.5083 71.8479 31.0212 71.4118 30.9735 70.6522H33.6817C33.7021 70.5261 33.7191 70.3694 33.7191 70.1753C33.7191 69.0681 32.9901 68.3494 32.084 68.3494C30.9258 68.3494 30.2615 69.2725 30.2615 70.4274C30.2615 71.6912 31.0109 72.5156 32.1521 72.5156C32.6188 72.5156 33.1366 72.3418 33.4773 71.991L33.2797 71.4289ZM32.0533 69.0102C32.6563 69.0102 33.0378 69.419 33.0651 70.0799H30.9326C31.0007 69.4667 31.4095 69.0102 32.0533 69.0102ZM34.0598 69.1465H35.3441V72.427H35.9777V69.1465H37.262V68.4379H34.0564V69.1465H34.0598ZM37.9467 72.4304H39.1458C40.2563 72.4304 40.6174 71.7116 40.6174 71.0133C40.6174 70.2945 40.3074 69.6336 39.2241 69.6336H38.5803V68.4379H37.9467V72.4304ZM39.1049 70.2945C39.7079 70.2945 39.9429 70.5568 39.9429 71.0337C39.9429 71.5106 39.7079 71.7627 39.0947 71.7627H38.5769V70.2979H39.1049V70.2945ZM43.2166 72.4304H43.84V69.5178L45.1072 71.371H45.1379L46.354 69.5178V72.4304H46.9876V68.4379H46.4324L45.1481 70.4103L43.7957 68.4379H43.22V72.4304H43.2166ZM50.8984 71.4289C50.6633 71.6707 50.2647 71.8479 49.8185 71.8479C49.1269 71.8479 48.6398 71.4118 48.5921 70.6522H51.3003C51.3208 70.5261 51.3378 70.3694 51.3378 70.1753C51.3378 69.0681 50.6088 68.3494 49.7027 68.3494C48.5444 68.3494 47.8802 69.2725 47.8802 70.4274C47.8802 71.6912 48.6296 72.5156 49.7708 72.5156C50.2375 72.5156 50.7553 72.3418 51.0959 71.991L50.8984 71.4289ZM49.672 69.0102C50.275 69.0102 50.6565 69.419 50.6837 70.0799H48.5512C48.6194 69.4667 49.0282 69.0102 49.672 69.0102ZM51.5626 73.4013H52.1486V72.4304H55.0032V73.4013H55.596V71.7593H55.0032V68.4379H52.5982L52.5505 69.4872C52.4824 70.5841 52.2405 71.4187 52.0055 71.7593H51.566V73.4013H51.5626ZM53.1501 69.7699L53.1875 69.0988H54.3764V71.7593H52.6732C52.8265 71.5175 53.0717 70.7885 53.1501 69.7699ZM56.9007 72.4304L58.9378 69.4599V72.4304H59.5612V68.4379H58.9378L56.9007 71.4084V68.4379H56.2671V72.427H56.9007V72.4304ZM60.699 72.4304H63.8364V73.4013H64.4223V71.7593H63.8364V68.4379H63.2028V71.7593H61.3224V68.4379H60.699V72.4304V72.4304ZM65.7236 72.4304L67.7607 69.4599V72.4304H68.3944V68.4379H67.7607L65.7236 71.4084V68.4379H65.1002V72.427H65.7236V72.4304ZM72.1109 72.4304H72.7343V68.4379H72.1109V70.0799H70.1521V68.4379H69.5185V72.427H70.1521V70.7374H72.1109V72.4304ZM76.5837 71.3335C76.3486 71.6333 75.9978 71.8479 75.5719 71.8479C74.8804 71.8479 74.3047 71.3131 74.3047 70.4308C74.3047 69.5859 74.8804 69.0136 75.514 69.0136C75.8854 69.0136 76.226 69.1192 76.5156 69.4326L76.8085 68.8706C76.4781 68.5027 75.991 68.3562 75.4255 68.3562C74.3933 68.3562 73.6438 69.2794 73.6438 70.4342C73.6438 71.698 74.4035 72.5224 75.5243 72.5224C76.0693 72.5224 76.5871 72.2907 76.8767 71.8513L76.5837 71.3335ZM80.7806 68.4379H79.963L78.4743 70.3899L80.0618 72.4304H80.927L79.2408 70.3422L80.7806 68.4379ZM77.6942 72.4304H78.3176V68.4379H77.6942V72.4304ZM82.2215 72.4304L84.2586 69.4599V72.4304H84.882V68.4379H84.2586L82.2215 71.4084V68.4379H81.5981V72.427H82.2215V72.4304ZM89.1572 68.4379H88.4282L87.454 69.9436L86.5001 68.4379H85.7303L86.9873 70.4001L85.6519 72.4304H86.3809L87.4335 70.8089L88.4657 72.4304H89.2356L87.89 70.3626L89.1572 68.4379ZM91.7564 72.4304H94.8837V73.4013H95.4764V71.7593H94.8837V68.4379H94.2603V71.7593H92.3798V68.4379H91.7564V72.4304ZM98.934 71.4289C98.7092 71.6707 98.3106 71.8479 97.8542 71.8479C97.1626 71.8479 96.6857 71.4118 96.6278 70.6522H99.336C99.3667 70.5261 99.3735 70.3694 99.3735 70.1753C99.3735 69.0681 98.6445 68.3494 97.7383 68.3494C96.5801 68.3494 95.9261 69.2725 95.9261 70.4274C95.9261 71.6912 96.6653 72.5156 97.8065 72.5156C98.2834 72.5156 98.791 72.3418 99.1316 71.991L98.934 71.4289ZM97.7077 69.0102C98.3209 69.0102 98.6922 69.419 98.7296 70.0799H96.5869C96.6551 69.4667 97.0638 69.0102 97.7077 69.0102ZM102.811 72.4304H103.444V68.4379H102.811V70.0799H100.852V68.4379H100.229V72.427H100.852V70.7374H102.811V72.4304ZM104.126 69.1465H105.42V72.427H106.054V69.1465H107.338V68.4379H104.126V69.1465ZM108.023 74.1984H108.656V72.2362C108.898 72.4304 109.269 72.519 109.651 72.519C110.751 72.519 111.484 71.5856 111.484 70.3729C111.484 69.1874 110.86 68.3528 109.859 68.3528C109.372 68.3528 108.895 68.5844 108.66 68.9046V68.4379H108.026V74.1984H108.023ZM109.668 69.0102C110.397 69.0102 110.809 69.5825 110.809 70.4001C110.809 71.2347 110.343 71.8479 109.593 71.8479C109.252 71.8479 108.97 71.7798 108.66 71.5379V69.5655C108.868 69.2555 109.249 69.0102 109.668 69.0102ZM112.141 70.4308C112.141 71.6265 112.891 72.519 114.022 72.519C115.153 72.519 115.902 71.6265 115.902 70.4308C115.902 69.2351 115.153 68.3528 114.022 68.3528C112.891 68.3528 112.141 69.2351 112.141 70.4308ZM112.812 70.4308C112.812 69.5859 113.33 69.0136 114.022 69.0136C114.734 69.0136 115.238 69.5962 115.238 70.4308C115.238 71.2858 114.73 71.8479 114.022 71.8479C113.32 71.8479 112.812 71.2654 112.812 70.4308ZM116.808 72.4304C117.128 72.4304 117.656 72.4611 118.092 72.4611C119.193 72.4611 119.717 72.0523 119.717 71.3062C119.717 70.8123 119.455 70.4819 118.89 70.366V70.3456C119.319 70.2775 119.602 69.8993 119.602 69.4326C119.602 68.7139 119.067 68.4039 118.082 68.4039C117.575 68.4039 117.108 68.4413 116.805 68.4413V72.4304H116.808ZM118.181 70.6318C118.746 70.6318 119.056 70.8259 119.056 71.2449C119.056 71.6639 118.736 71.8854 118.15 71.8854C117.868 71.8854 117.616 71.8649 117.428 71.8547V70.6318H118.181ZM118.13 68.9728C118.58 68.9728 118.937 69.1363 118.937 69.5757C118.937 69.9641 118.634 70.1957 118.215 70.1957H117.425V69C117.585 68.9932 117.851 68.9728 118.13 68.9728Z" fill="#AFCC4D"/>
<path d="M50.9084 63.379V55.4656C50.9084 54.6207 50.8198 52.9106 48.4455 52.9106C47.8595 52.9106 46.8682 52.9788 46.2142 54.1234L43.3493 59.1037C43.213 59.3354 43.1551 59.4716 43.0461 59.4716C42.8724 59.4716 42.8724 59.1991 42.8724 58.947L43.0188 53.0231H39.6123V61.0046C39.6123 62.248 39.8848 63.4914 41.9288 63.4914C43.3493 63.4914 43.8875 62.9293 44.1703 62.4422L47.1101 57.4141C47.3247 57.0632 47.3929 56.9099 47.4985 56.9099C47.6449 56.9099 47.6449 57.1041 47.6449 57.2983L47.4985 63.3755H50.9084V63.379ZM62.8586 53.0299H59.5065V56.6919H55.7389V53.0299H52.3868V63.379H55.7389V59.2638H59.5065V63.3824H62.8586V53.0299ZM63.3082 63.379H66.834L67.6516 61.2431H71.3817L72.1993 63.379H75.7251L71.8893 54.1643C71.4124 53.0094 70.496 52.9106 69.5218 52.9106C67.9139 52.9106 67.4778 53.3978 67.144 54.1643L63.3082 63.379ZM69.3548 56.1162C69.3923 56.0106 69.4707 55.8914 69.5218 55.8914C69.5592 55.8914 69.6376 56.0072 69.6785 56.1162L70.6902 58.9709H68.3431L69.3548 56.1162ZM84.95 63.379V60.807H82.1362C79.9151 60.807 79.3224 60.4187 79.3224 58.2044C79.3224 55.9799 79.9151 55.6018 82.1362 55.6018H84.8035V53.0299H80.4125C77.0025 53.0299 75.8852 54.6514 75.8852 58.2044C75.8852 61.7472 77.0059 63.379 80.4125 63.379H84.95ZM92.5466 63.379V55.6018H96.2461V53.0299H85.4848V55.6018H89.1946V63.379H92.5466V63.379ZM108.285 63.379V55.4656C108.285 54.6207 108.196 52.9106 105.832 52.9106C105.239 52.9106 104.245 52.9788 103.591 54.1234L100.726 59.1037C100.589 59.3354 100.532 59.4716 100.433 59.4716C100.249 59.4716 100.249 59.1991 100.249 58.947L100.405 53.0231H96.9853V61.0046C96.9853 62.248 97.2579 63.4914 99.3018 63.4914C100.722 63.4914 101.261 62.9293 101.543 62.4422L104.493 57.4141C104.698 57.0632 104.776 56.9099 104.875 56.9099C105.021 56.9099 105.021 57.1041 105.021 57.2983L104.875 63.3755H108.285V63.379ZM120 54.6514C120 53.6226 119.407 53.0299 118.375 53.0299H112.502C110.124 53.0299 109.532 54.3891 109.532 56.6033C109.532 58.0886 109.773 60.2824 111.848 60.2824H112.199V60.3403L109.327 63.379H113.361L115.357 60.7491C115.697 60.2824 116.079 59.9349 116.079 59.3422V59.1174C116.079 58.2351 115.466 57.9523 114.58 57.9523H114.073C113.187 57.9523 112.884 57.6117 112.884 56.7294C112.884 55.8369 113.187 55.6018 114.073 55.6018H115.98C116.43 55.6018 116.651 55.8062 116.651 56.2525V63.379H120.003V54.6514H120Z" fill="#3B1C14"/>
<path d="M37.5549 60.6437L34.6525 54.001C34.4277 53.4866 34.0189 52.8359 32.2679 52.8359C30.517 52.8359 30.1048 53.4866 29.8834 54.001L26.9708 60.6437H25.9692V63.2566H38.5735V60.6437H37.5549ZM30.1831 60.6437L32.0738 56.0892C32.1215 55.9836 32.1623 55.8269 32.2679 55.8269C32.3735 55.8269 32.4144 55.9836 32.4621 56.0892L34.3527 60.6437H30.1831Z" fill="#3B1C14"/>
</g>
<defs>
<clipPath id="clip0_37_753">
<rect width="114" height="27.0514" fill="white" transform="translate(6 49)"/>
</clipPath>
</defs>
</svg>
