<svg width="125" height="125" viewBox="0 0 125 125" fill="none" xmlns="http://www.w3.org/2000/svg">
<path fill-rule="evenodd" clip-rule="evenodd" d="M25.4439 58.3373H30.0084V56.7802H25.4439H23.5192V58.3373V60.1484V63.1958V65.1606H30.0084V63.6035H25.4439V63.1958V61.6654H29.3334V60.1551H25.4439V60.1484V58.3373Z" fill="#009291"/>
<path fill-rule="evenodd" clip-rule="evenodd" d="M19.2285 60.8099H21.0129V64.2316C20.084 64.9333 18.8075 65.3075 17.6046 65.3075C14.9514 65.3075 13 63.4898 13 60.9435C13 58.404 14.9514 56.5796 17.638 56.5796C19.1216 56.5796 20.3513 57.0875 21.1666 58.0364L19.9102 59.1926C19.2954 58.5443 18.587 58.2436 17.7316 58.2436C16.0942 58.2436 14.9715 59.3396 14.9715 60.9435C14.9715 62.5207 16.0942 63.6435 17.7048 63.6435C18.2328 63.6435 18.7273 63.5432 19.2219 63.2826V60.8099H19.2285Z" fill="#009291"/>
<path fill-rule="evenodd" clip-rule="evenodd" d="M41.8438 59.4733L40.0261 62.5274L40.0327 65.0135H41.8639L41.8438 59.4733ZM42.0376 56.5796L40.0127 59.9745L37.0855 64.8798L35.9695 63.0086L34.1784 60.0614V65.0135H32.3473V56.5796H33.9646L37.1189 61.819L40.2265 56.5796H41.8305H42.0376V56.5796Z" fill="#009291"/>
<path fill-rule="evenodd" clip-rule="evenodd" d="M69.8657 63.5233H69.8523H69.839H69.8256H69.8122H69.8056H69.7922H69.7855H69.7721H69.7588H69.7454H69.7253H69.7053H69.6919H69.6786H69.6719H69.6518H69.6318H69.6117H69.6051H69.5917H69.5516H69.5382H69.5315C69.4246 63.5099 69.311 63.4965 69.2108 63.4698C68.0011 63.2092 67.1992 62.2201 67.1925 60.8835C67.1925 59.5469 68.0011 58.5511 69.2108 58.2972C69.3177 58.2771 69.4246 58.2571 69.5315 58.2437H69.5382H69.5516L69.5917 58.237H69.6051H69.6117H69.6318H69.6518H69.6719H69.6786H69.6919H69.7053H69.7253H69.7454H69.7588H69.7721H69.7855H69.7922H69.8056H69.8122H69.8256H69.839H69.8523H69.8657H69.9058H69.9459C69.9994 58.237 70.0461 58.2437 70.0996 58.2437C70.8281 58.2972 71.4496 58.6313 71.9575 59.2194L73.1871 58.0833L73.1805 58.0766L73.1871 58.0699C72.6458 57.4083 71.8973 56.9606 71.0152 56.74C70.6276 56.6465 70.2132 56.5997 69.7788 56.5997H69.7721H69.7655H69.7588H69.7454H69.732C69.565 56.5997 69.4046 56.6064 69.2442 56.6264C66.9452 56.8536 65.2878 58.5645 65.2878 60.8902C65.2878 63.2159 66.9452 64.9267 69.2442 65.1539C69.4046 65.1673 69.565 65.1807 69.732 65.1807H69.7454H69.7588H69.7655H69.7721H69.7788C70.2132 65.1807 70.6276 65.1339 71.0152 65.0403C71.8973 64.8264 72.6458 64.372 73.1871 63.7104L73.1805 63.7037L73.1871 63.697L71.9575 62.5609C71.4696 63.129 70.8748 63.4564 70.1731 63.53L70.133 63.5366H70.0929L70.0528 63.5433H70.0127H69.9726H69.9325H69.8924L69.8657 63.5233Z" fill="#009291"/>
<path fill-rule="evenodd" clip-rule="evenodd" d="M110.532 56.7267V65.1606H108.934L104.724 60.0414V65.1606H102.799V56.7267H104.417L108.607 61.8458V56.7267H110.532Z" fill="#009291"/>
<path fill-rule="evenodd" clip-rule="evenodd" d="M81.113 62.4473C81.7279 62.1866 82.1957 61.779 82.4897 61.251C82.7236 60.8367 82.8506 60.3421 82.8506 59.7807C82.8506 59.2194 82.7303 58.7315 82.4964 58.3105C81.9484 57.3014 80.7789 56.7199 79.1883 56.7199H75.5394V58.3105H79.0814C80.271 58.3105 80.8725 58.8518 80.8725 59.7807C80.8725 60.6963 80.271 61.251 79.0814 61.251H75.5394V65.1539H77.4909V62.8015H79.2886L80.9192 65.1539H83.0177L81.113 62.4473Z" fill="#009291"/>
<path fill-rule="evenodd" clip-rule="evenodd" d="M55.9115 64.1848L56.5731 62.7146C57.2815 63.2358 58.3441 63.5967 59.3532 63.5967C60.5094 63.5967 60.9839 63.2091 60.9839 62.6945C60.9839 61.1173 56.0786 62.2 56.0786 59.0657C56.0786 57.6288 57.2347 56.4392 59.6339 56.4392C60.6965 56.4392 61.7792 56.6932 62.5611 57.1877L61.9596 58.6713C61.1777 58.2236 60.3691 58.0097 59.6206 58.0097C58.4644 58.0097 58.0166 58.4441 58.0166 58.9721C58.0166 60.5292 62.922 59.4532 62.922 62.5542C62.922 63.9643 61.7524 65.1672 59.3399 65.1672C58.01 65.1605 56.66 64.7595 55.9115 64.1848Z" fill="#009291"/>
<path fill-rule="evenodd" clip-rule="evenodd" d="M96.0027 58.3373V60.1484V60.1551H99.8922V61.6654H96.0027V63.6035H100.561V65.1606H94.078V63.6035V60.1484V58.3373V56.7802H96.0027H100.561V58.3373H96.0027Z" fill="#009291"/>
<path fill-rule="evenodd" clip-rule="evenodd" d="M87.2814 58.3373H91.8392V56.7802H87.2814H85.35V58.3373V60.1484V63.1958V65.1606H91.8392V63.6035H87.2814V63.1958V61.6654H91.1709V60.1551H87.2814V60.1484V58.3373Z" fill="#009291"/>
<path fill-rule="evenodd" clip-rule="evenodd" d="M45.7734 64.9735C45.3791 64.4188 45.1786 63.7371 45.1786 63.0087C45.1786 61.926 45.9204 60.429 46.7825 58.9654C47.0766 58.4642 45.3524 61.6186 46.7692 64.4589C47.2503 65.4279 46.2947 65.7019 45.7734 64.9735ZM50.7455 57.0808C50.0037 55.9848 49.2953 54.9356 48.8609 54C48.46 54.7952 47.8852 55.7041 47.2771 56.6598C45.9204 58.7984 44.39 61.2176 44.39 63.002C44.39 65.5348 46.4484 67.5932 48.9812 67.5932C51.5141 67.5932 53.5724 65.5348 53.5724 63.002C53.5658 61.2711 52.0621 59.0456 50.7455 57.0808Z" fill="#009291"/>
<path fill-rule="evenodd" clip-rule="evenodd" d="M112.035 54.421C112.55 54.421 112.931 54.8086 112.931 55.3299C112.931 55.8511 112.55 56.2388 112.035 56.2388C111.521 56.2388 111.14 55.8511 111.14 55.3299C111.146 54.8086 111.521 54.421 112.035 54.421ZM112.035 56.0917C112.476 56.0917 112.77 55.7776 112.77 55.3299C112.77 54.8754 112.476 54.568 112.035 54.568C111.601 54.568 111.3 54.8754 111.3 55.3299C111.307 55.7843 111.601 56.0917 112.035 56.0917ZM111.708 54.8821C111.688 54.8821 111.648 54.9222 111.648 54.9423C111.648 54.9623 111.688 55.0024 111.708 55.0024H111.768V55.7776H111.922V55.4234H112.055C112.082 55.4769 112.169 55.6373 112.329 55.791C112.356 55.791 112.43 55.7175 112.43 55.6907C112.323 55.5838 112.249 55.4702 112.202 55.3967C112.316 55.3566 112.383 55.263 112.383 55.1494C112.383 54.989 112.263 54.8821 112.082 54.8821H111.708V54.8821ZM111.928 55.0024V55.2964H112.075C112.176 55.2964 112.222 55.2363 112.222 55.1494C112.222 55.0625 112.169 55.0024 112.075 55.0024H111.928V55.0024Z" fill="#009291"/>
<path fill-rule="evenodd" clip-rule="evenodd" d="M55.9115 70.4067H56.2657V68.8429L57.0342 69.852L57.7761 68.8429V70.4067H58.1303V68.2214H57.8295L57.0409 69.284L56.2323 68.2214H55.9115V70.4067Z" fill="#009291"/>
<path fill-rule="evenodd" clip-rule="evenodd" d="M60.8369 69.7785C60.7099 69.9656 60.4693 70.1126 60.202 70.1126C59.7542 70.1126 59.4267 69.872 59.4067 69.431H61.1309C61.151 69.3307 61.151 69.2372 61.151 69.1636C61.151 68.5622 60.7166 68.1746 60.1418 68.1746C59.4134 68.1746 59.0258 68.6691 59.0258 69.3107C59.0258 70.0057 59.5003 70.4468 60.1886 70.4468C60.5495 70.4468 60.8569 70.2997 61.0641 69.9923L60.8369 69.7785ZM60.1151 68.4953C60.5094 68.4953 60.7566 68.7159 60.7767 69.1102H59.4C59.4535 68.7493 59.7074 68.4953 60.1151 68.4953Z" fill="#009291"/>
<path fill-rule="evenodd" clip-rule="evenodd" d="M61.7256 70.9347H62.0597V70.4067H63.8575V70.9347H64.1916V70.0659H63.8775V68.2147H62.2736V68.4152C62.2736 69.2305 62.1934 69.7117 61.9662 70.0659H61.7256V70.9347V70.9347ZM62.6077 68.5555H63.53V70.0659H62.3471C62.5008 69.7518 62.6077 69.2639 62.6077 68.7025V68.5555Z" fill="#009291"/>
<path fill-rule="evenodd" clip-rule="evenodd" d="M65.3279 70.4067L66.6645 68.7694V70.4067H67.0187V68.2214H66.6845L65.3613 69.8587V68.2214H65.0071V70.4067H65.3279Z" fill="#009291"/>
<path fill-rule="evenodd" clip-rule="evenodd" d="M68.0343 70.4067H69.9323V70.9347H70.2664V70.0659H69.959V68.2214H69.6048V70.0659H68.3818V68.2214H68.0343V70.4067Z" fill="#009291"/>
<path fill-rule="evenodd" clip-rule="evenodd" d="M71.4025 70.4067L72.7325 68.7694V70.4067H73.0867V68.2214H72.7592L71.4293 69.8587V68.2214H71.0751V70.4067H71.4025Z" fill="#009291"/>
<path fill-rule="evenodd" clip-rule="evenodd" d="M75.7198 70.4067H76.0673V68.2214H75.7198V69.1303H74.4567V68.2214H74.1025V70.4067H74.4567V69.4577H75.7198V70.4067Z" fill="#009291"/>
<path fill-rule="evenodd" clip-rule="evenodd" d="M78.7808 69.7718C78.6471 69.9723 78.4333 70.1059 78.166 70.1059C77.6714 70.1059 77.3373 69.7851 77.3373 69.304C77.3373 68.8295 77.6714 68.4953 78.1192 68.4953C78.3865 68.4953 78.5736 68.5889 78.7273 68.7961L79.0013 68.609C78.8543 68.3416 78.5068 68.1612 78.1125 68.1612C77.4241 68.1612 76.963 68.6557 76.963 69.2973C76.963 69.9923 77.4375 70.4334 78.1325 70.4334C78.4801 70.4334 78.8677 70.2663 79.0347 69.9456L78.7808 69.7718Z" fill="#009291"/>
<path fill-rule="evenodd" clip-rule="evenodd" d="M79.8231 70.4067H80.1773V69.6115L80.3578 69.4444L81.3402 70.4067H81.8146L80.6251 69.2238L81.7545 68.2214H81.28L80.1773 69.1971V68.2214H79.8231V70.4067Z" fill="#009291"/>
<path fill-rule="evenodd" clip-rule="evenodd" d="M82.864 70.4067L84.1939 68.7694V70.4067H84.5481V68.2214H84.2206L82.8907 69.8587V68.2214H82.5365V70.4067H82.864Z" fill="#009291"/>
<path fill-rule="evenodd" clip-rule="evenodd" d="M87.2547 69.7785C87.1277 69.9656 86.8871 70.1126 86.6198 70.1126C86.172 70.1126 85.8446 69.872 85.8178 69.431H87.542C87.5554 69.3307 87.5621 69.2372 87.5621 69.1636C87.5621 68.5622 87.1277 68.1746 86.5529 68.1746C85.8245 68.1746 85.4369 68.6691 85.4369 69.3107C85.4369 70.0057 85.9114 70.4468 86.5997 70.4468C86.9539 70.4468 87.268 70.2997 87.4752 69.9923L87.2547 69.7785ZM86.5329 68.4953C86.9272 68.4953 87.1745 68.7159 87.1945 69.1102H85.8178C85.8713 68.7493 86.1252 68.4953 86.5329 68.4953Z" fill="#009291"/>
<path fill-rule="evenodd" clip-rule="evenodd" d="M91.1509 68.7426C91.3514 68.5889 91.5519 68.502 91.7992 68.502C92.2603 68.502 92.3806 68.756 92.3806 69.157C92.2737 69.1236 92.0331 69.0968 91.866 69.0968C91.2378 69.0968 90.8168 69.2973 90.8168 69.7718C90.8168 70.1728 91.1376 70.4401 91.6121 70.4401C91.993 70.4401 92.2536 70.273 92.3739 70.0859V70.4067H92.7281V69.0567C92.7281 68.4954 92.4207 68.1679 91.8326 68.1679C91.5118 68.1679 91.1576 68.2882 90.9571 68.482L91.1509 68.7426ZM91.7056 70.1127C91.4049 70.1127 91.1977 69.979 91.1977 69.7518C91.1977 69.4844 91.4784 69.3976 91.9195 69.3976C92.0932 69.3976 92.2737 69.4243 92.3873 69.4577V69.6782C92.3071 69.8654 92.0665 70.1127 91.7056 70.1127Z" fill="#009291"/>
<path fill-rule="evenodd" clip-rule="evenodd" d="M95.3412 70.4067H95.6954V68.2214H95.3412V69.1303H94.0848V68.2214H93.7306V70.4067H94.0848V69.4577H95.3412V70.4067Z" fill="#009291"/>
<path fill-rule="evenodd" clip-rule="evenodd" d="M96.8784 68.7426C97.0789 68.5889 97.2794 68.502 97.5333 68.502C97.9944 68.502 98.1147 68.756 98.1147 69.157C98.0078 69.1236 97.7672 69.0968 97.6001 69.0968C96.9719 69.0968 96.5509 69.2973 96.5509 69.7718C96.5509 70.1728 96.8717 70.4401 97.3462 70.4401C97.7271 70.4401 97.9877 70.273 98.108 70.0859V70.4067H98.4622V69.0567C98.4622 68.4954 98.1481 68.1679 97.5667 68.1679C97.2459 68.1679 96.8917 68.2882 96.6912 68.482L96.8784 68.7426ZM97.4331 70.1127C97.1323 70.1127 96.9318 69.979 96.9318 69.7518C96.9318 69.4844 97.2058 69.3976 97.6469 69.3976C97.8273 69.3976 98.0078 69.4243 98.1147 69.4577V69.6782C98.0412 69.8654 97.8006 70.1127 97.4331 70.1127Z" fill="#009291"/>
<path fill-rule="evenodd" clip-rule="evenodd" d="M101.008 70.4067H101.363V68.2214H99.732V68.6692C99.732 69.9456 99.4981 70.0659 99.2174 70.0659V70.4001C99.732 70.4602 100.086 70.106 100.086 68.6491V68.5488H101.008V70.4067Z" fill="#009291"/>
<path fill-rule="evenodd" clip-rule="evenodd" d="M102.699 70.4067L104.029 68.7694V70.4067H104.383V68.2214H104.056L102.726 69.8587V68.2214H102.372V70.4067H102.699Z" fill="#009291"/>
<path fill-rule="evenodd" clip-rule="evenodd" d="M106.188 70.4468C106.736 70.4468 107.163 70.1928 107.163 69.7317C107.163 69.5112 107.09 69.3574 106.823 69.2305C106.996 69.1235 107.083 68.9565 107.083 68.756C107.083 68.3951 106.769 68.1612 106.208 68.1612C105.707 68.1612 105.392 68.4018 105.265 68.6223L105.526 68.7961C105.653 68.6424 105.833 68.4886 106.174 68.4886C106.475 68.4886 106.709 68.5956 106.709 68.8094C106.709 69.0099 106.529 69.1235 106.328 69.1235H105.84V69.4443H106.355C106.635 69.4443 106.789 69.5446 106.789 69.7317C106.789 69.9723 106.529 70.1126 106.194 70.1126C105.86 70.1126 105.6 69.9589 105.479 69.7451L105.199 69.9389C105.392 70.2463 105.686 70.4468 106.188 70.4468Z" fill="#009291"/>
<path fill-rule="evenodd" clip-rule="evenodd" d="M108.066 70.4067H108.854C109.549 70.4067 109.79 70.0459 109.79 69.6516C109.79 69.2506 109.576 68.903 108.888 68.903H108.42V68.2214H108.066V70.4067ZM108.847 69.2372C109.255 69.2372 109.409 69.3909 109.409 69.6516C109.409 69.9189 109.262 70.0659 108.841 70.0659H108.413V69.2305H108.847V69.2372ZM110.097 70.4067H110.451V68.2214H110.097V70.4067Z" fill="#009291"/>
</svg>
