<svg width="125" height="125" viewBox="0 0 125 125" fill="none" xmlns="http://www.w3.org/2000/svg">
<g clip-path="url(#clip0_33_692)">
<path d="M39.2887 72.0549C37.8758 73.1594 35.3733 73.6917 32.0747 73.6917C28.7762 73.6917 25.9752 73.025 23.8159 71.234C21.9453 69.6419 21 66.9802 21 63.9901C21.0299 58.2736 25.2587 53.5422 32.5623 53.5422C34.6519 53.5522 36.7216 53.9054 38.6967 54.582L38.6121 57.2985C37.4479 56.8458 34.9156 56.4726 32.7215 56.4726C27.423 56.4726 24.9005 59.3085 24.8707 64.1145C24.8408 68.5921 29.3036 70.4081 30.5125 70.5126C32.4081 70.6817 34.5623 70.6966 35.5723 70.0996L35.622 64.8508H32.1394V62.0747H39.3136L39.2887 72.0549Z" fill="#6C6E71"/>
<path d="M44.9206 67.637C44.8012 70.9554 45.7266 71.7863 48.9008 71.7813C50.9655 71.7813 53.5327 70.8161 54.6123 70.433L54.672 72.5475C53.677 72.9355 50.6918 73.8609 48.2043 73.7266C43.7764 73.4878 41.4629 71.7067 41.239 69.7763V63.7414C41.239 61.5623 44.5873 59.627 48.2043 59.627C53.5526 59.627 55.264 63.0548 55.2591 64.3136C55.2591 64.8111 55.2939 66.8012 55.2591 67.5474L44.9206 67.637ZM51.6869 65.2439C51.6869 63.821 51.9655 61.4976 48.2888 61.4976C44.8062 61.4976 44.9206 63.6767 44.9206 65.2439H51.6869Z" fill="#6C6E71"/>
<path d="M57.2393 64.2541V61.468H59.896C61.2045 60.5227 62.5776 59.9754 65.5627 60.259C68.5478 60.5426 71.324 62.3137 71.324 65.3536V73.6372L67.712 73.692V64.866C67.712 62.1695 63.7965 61.1794 61.7866 62.8262C61.3289 63.1297 61.0303 63.6172 60.9706 64.1645C60.9706 64.662 60.9408 65.6023 60.9408 65.8411V73.6372H57.2393V64.2541Z" fill="#6C6E71"/>
<path d="M73.2393 65.0648C73.3089 63.9753 73.7069 62.9355 74.3835 62.0797C75.0154 61.3235 75.8512 60.7713 76.7965 60.4927C77.7169 60.1941 80.702 60.2339 80.702 60.2339V61.8011L79.4234 61.8857C76.6522 61.9554 76.707 63.5773 76.697 67.5972V73.6172H73.2393V65.0648Z" fill="#6C6E71"/>
<path d="M96.2595 68.7614C96.2595 70.5475 94.6227 73.652 89.4187 73.652C84.3788 73.652 82.5828 71.2788 82.5828 68.7614V60.02H85.9659L85.941 69.3783C85.941 70.448 86.7669 71.7913 89.4236 71.7913C91.3838 71.7913 92.9759 70.8759 92.9859 69.5724L93.0605 60.02H96.2645L96.2595 68.7614Z" fill="#6C6E71"/>
<path d="M103.558 69.0151L103.528 68.9853C103.513 68.9604 103.493 68.9355 103.473 68.9156C103.09 68.4181 101.588 66.3285 103.274 64.6469C103.842 64.1096 104.16 63.3584 104.16 62.5772C104.165 60.9852 102.881 59.6916 101.294 59.6817C99.7072 59.6717 98.4087 60.9603 98.3987 62.5474C98.3938 63.3385 98.7171 64.0947 99.2893 64.6419C101.12 66.3982 99.3987 68.5524 99.1002 68.8957C98.0704 70.1047 98.2196 71.9206 99.4336 72.9505C100.643 73.9804 102.458 73.8311 103.488 72.6172C104.364 71.5873 104.404 70.0848 103.583 69.0102H103.558V69.0151Z" fill="#6C6E71"/>
<path d="M101.285 57.7712C102.878 57.7712 104.17 56.4793 104.17 54.8856C104.17 53.2919 102.878 52 101.285 52C99.6908 52 98.3989 53.2919 98.3989 54.8856C98.3989 56.4793 99.6908 57.7712 101.285 57.7712Z" fill="#8DC63F"/>
</g>
<defs>
<clipPath id="clip0_33_692">
<rect width="83.17" height="21.7415" fill="white" transform="translate(21 52)"/>
</clipPath>
</defs>
</svg>
