<svg width="125" height="125" viewBox="0 0 125 125" fill="none" xmlns="http://www.w3.org/2000/svg">
<path fill-rule="evenodd" clip-rule="evenodd" d="M35.6963 62.9712C35.7295 59.7413 36.9324 57.1228 40.2753 56.2721C41.8238 55.88 43.791 55.9997 44.9474 56.7772C46.4892 57.814 46.3496 59.1232 46.6221 59.3891C46.9345 59.6948 47.4063 59.4887 47.6124 59.3159C47.825 58.6713 47.393 56.3785 47.3598 55.4348C45.911 55.4946 41.5247 53.6736 37.2249 55.9598C32.719 58.3523 33.1775 62.0075 32.7455 63.2569C22.7967 64.6659 22.471 77.1335 31.2901 79.3666C32.7123 79.7254 34.2807 79.8384 35.8093 79.6789C36.8327 79.5726 39.1987 79.1539 40.0028 78.8615C40.3949 78.27 39.9696 78.3099 39.737 77.9443C39.5376 77.632 39.5576 77.0538 39.5509 76.6683C39.5443 75.6515 39.4778 74.7078 39.7769 73.8903C40.0626 73.8172 40.8535 73.7907 40.9931 73.4185C41.4516 72.1824 39.4379 72.6808 36.9723 72.6609C36.1283 72.6542 34.2342 72.2289 34.4602 73.3321C34.613 74.0897 36.3476 73.5647 36.8793 74.1495C37.2116 74.6081 37.278 77.3595 36.8992 77.9045C36.4274 78.5956 34.3538 78.5558 33.4168 78.4295C31.0907 78.1105 29.5422 76.6949 28.7381 75.0268C27.0234 71.4447 27.4687 65.1643 32.9383 64.4532C33.45 70.2085 40.1092 72.4482 45.5056 71.0193C46.7816 70.6804 46.9212 70.8133 47.4263 69.6171C47.7187 68.9325 48.0975 67.8027 48.0576 66.9986C46.9544 66.4137 47.0342 67.1182 46.5889 67.8293C45.3926 69.7699 43.4653 70.501 41.0529 70.0756C38.2816 69.5838 36.2878 67.4771 35.8691 64.5994C36.7198 64.7789 37.4109 65.264 37.7831 65.7425C38.2417 66.334 38.4876 67.3575 38.7999 67.6898C39.2917 67.7894 39.2718 67.816 39.6639 67.5701C39.8168 67.0584 39.418 64.5662 39.4114 63.7288L36.0153 63.2104C35.5501 63.0709 35.9156 63.2636 35.6963 62.9712Z" fill="#1B1B1B"/>
<path fill-rule="evenodd" clip-rule="evenodd" d="M21.5009 71.1125C21.5142 67.9623 21.4943 64.8122 21.5009 61.662C21.5142 56.1061 24.3254 52.0654 29.7019 51.2014C32.2407 50.7894 36.1485 51.0419 38.8666 51.0286L38.8865 50.4238C35.4307 50.4106 31.9616 50.4106 28.5057 50.4238C25.1362 50.4371 22.7703 51.7796 21.0956 53.4211C19.5338 54.943 18.0584 57.5017 18.0252 60.7117C17.9853 64.1609 17.9986 67.6632 18.0252 71.1191L21.5009 71.1125Z" fill="#1F6F47"/>
<path fill-rule="evenodd" clip-rule="evenodd" d="M33.8756 84.6501C37.3182 84.6501 40.8006 84.7032 44.2365 84.6501C50.0783 84.557 54.3981 80.0046 54.4712 74.1695L54.438 63.9548H51.0286C50.8625 65.1843 50.9888 67.3575 50.9888 68.6867C50.9888 73.4584 51.4805 76.8279 48.8554 80.4632C47.5395 82.2908 45.1072 83.4737 42.8542 83.8592C40.4019 84.2779 36.3545 84.0453 33.7228 84.0453L33.8756 84.6501Z" fill="#1F6F46"/>
<path fill-rule="evenodd" clip-rule="evenodd" d="M35.1649 45.9246L29.9346 44.2365L34.4604 48.4633L38.0492 48.5231C38.4612 48.47 40.9734 45.9512 41.6579 45.3663C42.0567 45.0274 42.4355 44.6419 42.7877 44.2698L37.4311 45.9578L36.401 41C36.0887 41.4652 35.2513 45.4793 35.1649 45.9246Z" fill="#1B1B1B"/>
<path fill-rule="evenodd" clip-rule="evenodd" d="M67.3441 54.2385C67.2976 54.5642 67.271 55.1291 67.271 55.9332L67.2112 55.9864H66.8789L66.8257 55.9332C66.819 55.9133 66.8124 55.8402 66.8124 55.7206C66.7991 55.468 66.7925 55.3218 66.7858 55.2886C66.7592 55.0759 66.7061 54.943 66.6396 54.8898C66.5333 54.8101 66.201 54.7769 65.6294 54.7769H64.0743V59.3093C64.0743 60.1401 64.1009 60.6784 64.1408 60.9309C64.1607 61.0306 64.2205 61.0971 64.3202 61.1237C64.3734 61.1369 64.5727 61.1569 64.9316 61.1768L64.9848 61.23L64.9915 61.5889L64.9449 61.6354C64.8984 61.6354 64.7655 61.6287 64.5462 61.6221C63.9879 61.6088 63.5825 61.6022 63.3233 61.6022C62.9777 61.6022 62.4394 61.6154 61.7084 61.6354L61.6619 61.5889V61.23L61.715 61.1768C62.0739 61.1569 62.2733 61.1369 62.3265 61.1237C62.4261 61.0971 62.4859 61.0306 62.5059 60.9309C62.5524 60.6784 62.5723 60.1401 62.5723 59.3093V56.538C62.5723 55.7073 62.5524 55.1623 62.5059 54.9164C62.4859 54.8167 62.4261 54.7503 62.3265 54.7237C62.2733 54.7104 62.0672 54.6905 61.715 54.6705L61.6619 54.6173V54.2585L61.715 54.212L62.991 54.2452C65.244 54.305 66.6795 54.2252 67.3042 54.1854L67.3441 54.2385ZM73.97 58.5716C73.97 59.7945 73.5114 60.685 72.6009 61.2433C72.0892 61.5556 71.4977 61.7085 70.8199 61.7085C70.554 61.7085 70.2616 61.6753 69.9492 61.6088V63.051C69.9492 63.4497 69.9625 63.7023 69.9825 63.8086C70.0024 63.8883 70.0489 63.9415 70.122 63.9681C70.1885 63.9947 70.4211 64.0146 70.8132 64.0279L70.8664 64.0811V64.4067L70.8066 64.4532L70.5673 64.4399C70.1686 64.42 69.7366 64.4134 69.2714 64.4134C68.9125 64.4134 68.4539 64.4267 67.889 64.4532L67.8359 64.4001V64.0811L67.889 64.0279C68.2014 64.0146 68.3941 63.9947 68.4672 63.9681C68.527 63.9481 68.5736 63.895 68.6002 63.8086C68.6201 63.7355 68.6334 63.4829 68.6334 63.0443V58.2859C68.6334 57.8472 68.6201 57.5947 68.6002 57.515C68.5802 57.4352 68.5337 57.3887 68.4739 57.3687C68.4008 57.3422 68.2014 57.3222 67.8757 57.3089L67.8159 57.2558V56.9633L67.8624 56.9102C68.5137 56.8437 69.1784 56.6909 69.8496 56.4715L69.9626 56.538L69.9559 57.4286C70.5009 56.8304 71.1455 56.5314 71.8832 56.5314C72.2487 56.5314 72.5943 56.6111 72.9067 56.7706C73.2456 56.9368 73.5048 57.1694 73.6842 57.4684C73.877 57.7941 73.97 58.1596 73.97 58.5716ZM72.6076 59.2562C72.6076 58.4321 72.375 57.8672 71.9098 57.5748C71.6705 57.4219 71.4114 57.3488 71.1322 57.3488C70.6072 57.3488 70.255 57.5482 70.0755 57.9536C69.9958 58.1397 69.9559 58.4321 69.9559 58.8308V60.6252C70.3414 61.0173 70.7468 61.2101 71.1788 61.2101C71.4645 61.2101 71.7237 61.1237 71.9563 60.9442C72.1756 60.7781 72.3351 60.5521 72.4415 60.2796C72.5544 59.9939 72.6076 59.6549 72.6076 59.2562ZM79.9646 61.5756L79.9114 61.6354C79.6057 61.6154 79.2933 61.6088 78.9677 61.6088C78.6354 61.6088 78.3297 61.6154 78.0439 61.6354L77.9908 61.5756L78.0439 60.9243L77.9642 60.9044C77.7316 61.117 77.5721 61.2499 77.4989 61.3164C77.3394 61.4427 77.1999 61.5423 77.0803 61.6022C76.8543 61.7151 76.5752 61.775 76.2363 61.775C75.3524 61.775 74.9071 61.3363 74.9071 60.4524C74.9071 59.9939 75.0466 59.6416 75.3191 59.3891C75.5318 59.1964 75.9904 59.0302 76.7015 58.9039L77.9775 58.6647C77.9708 58.3523 77.9442 58.1131 77.8911 57.9602C77.818 57.7276 77.6784 57.5415 77.4724 57.4086C77.3062 57.3023 77.1135 57.2491 76.9008 57.2491C76.748 57.2491 76.5486 57.2757 76.296 57.3222L75.8973 58.0865L75.8309 58.1264L75.6049 58.0865L75.5517 58.0134L75.6049 57.3156C76.4157 56.7706 77.0604 56.5048 77.5322 56.5048C78.1968 56.5048 78.6819 56.7108 78.9877 57.1295C79.1671 57.3754 79.2601 57.721 79.2601 58.1662C79.2601 58.3124 79.2535 58.678 79.2336 59.2562C79.2269 59.4888 79.2202 59.6881 79.2202 59.8543C79.2202 60.6319 79.2468 61.0505 79.3 61.117C79.3532 61.1835 79.5526 61.2234 79.9048 61.2366L79.9513 61.2898V61.5756H79.9646ZM77.9908 59.8011V58.9571C77.6718 59.0435 77.4259 59.1233 77.2597 59.1831C76.9141 59.3027 76.6882 59.4024 76.5752 59.4821C76.3426 59.6549 76.223 59.9008 76.223 60.2132C76.223 60.4325 76.2961 60.6053 76.4356 60.7515C76.5752 60.8977 76.7546 60.9708 76.9673 60.9708C77.2996 60.9708 77.5721 60.8312 77.7914 60.5588C77.9243 60.3926 77.9908 60.1401 77.9908 59.8011ZM87.1554 61.5889L87.1022 61.642C86.7699 61.6154 86.2915 61.6022 85.6734 61.6022C85.0886 61.6022 84.61 61.6154 84.2445 61.642L84.1913 61.5889V61.2699L84.2312 61.2167C84.5635 61.2034 84.7629 61.1835 84.836 61.1569C84.9091 61.1303 84.9557 61.0771 84.9689 60.9974C84.9889 60.8977 85.0022 60.6452 85.0022 60.2398V59.0568H82.5964V60.2398C82.5964 60.6452 82.6097 60.8977 82.6362 60.9974C82.6562 61.0771 82.6961 61.1236 82.7692 61.1569C82.8423 61.1835 83.0416 61.2034 83.3673 61.2167L83.4204 61.2699V61.5889L83.3673 61.642C83.035 61.6154 82.5631 61.6022 81.9384 61.6022C81.3071 61.6022 80.8285 61.6154 80.5029 61.642L80.4497 61.5889V61.2699L80.5095 61.2167C80.8153 61.2034 81.008 61.1835 81.0877 61.1569C81.1542 61.1369 81.2007 61.0838 81.2207 60.9974C81.2406 60.9243 81.2539 60.6717 81.2539 60.2398V58.4985C81.2539 57.6944 81.2273 57.2558 81.1741 57.1959C81.1409 57.1561 81.101 57.1295 81.0412 57.1162C80.9548 57.0963 80.7687 57.083 80.4896 57.0697L80.4365 57.0165V56.6975L80.4896 56.6443C80.8285 56.6709 81.3004 56.6776 81.9185 56.6776C82.5498 56.6776 83.0283 56.6643 83.354 56.6443L83.4071 56.6975V57.0232L83.3473 57.0763C83.035 57.083 82.8356 57.1029 82.7492 57.1361C82.6761 57.1627 82.6296 57.2225 82.6163 57.3156C82.5963 57.4086 82.5897 57.6944 82.5897 58.1596V58.6647H84.9955V58.3058C84.9955 57.8871 84.9889 57.6146 84.9822 57.4751C84.9623 57.2691 84.9025 57.1494 84.7895 57.1162C84.7363 57.0963 84.5502 57.083 84.2379 57.0697L84.1781 57.0099V56.6909L84.2379 56.6377C84.5702 56.6643 85.0487 56.6709 85.6668 56.6709C86.2516 56.6709 86.7301 56.6576 87.0956 56.6377L87.1488 56.6909V57.0165L87.0956 57.0697C86.7832 57.0763 86.5839 57.0963 86.4975 57.1295C86.4244 57.1561 86.3778 57.2159 86.3579 57.3089C86.338 57.402 86.3313 57.6877 86.3313 58.1529V60.2331C86.3313 60.6385 86.3446 60.891 86.3646 60.9907C86.3845 61.0705 86.4244 61.117 86.4975 61.1502C86.5706 61.1768 86.77 61.1968 87.089 61.2101L87.1421 61.2632V61.5889H87.1554ZM93.3893 61.1104L93.4557 61.1768C93.263 61.775 93.0769 62.4728 92.9041 63.2636L92.8443 63.3102H92.5652L92.4987 63.2636C92.4987 62.5592 92.4788 62.1405 92.4455 61.9943C92.4123 61.8481 92.3193 61.7484 92.1797 61.6886C92.0401 61.6287 91.4553 61.6022 90.4318 61.6022C90.0862 61.6022 89.7473 61.6088 89.415 61.6221C89.0894 61.6354 88.8767 61.6686 88.7969 61.7218C88.7105 61.7683 88.6507 61.8547 88.6175 61.9677C88.5776 62.0807 88.5643 62.3731 88.5643 62.825V63.257L88.4979 63.3035H88.2121L88.1523 63.257C87.9862 62.4861 87.8266 61.8613 87.6738 61.3961L87.6007 61.1635L87.6738 61.0971L87.9795 61.1436L90.6977 57.3422C90.7376 57.2823 90.7575 57.2425 90.7575 57.2292C90.7575 57.2092 90.7376 57.1827 90.7043 57.1627C90.6711 57.1428 90.5581 57.1228 90.3853 57.1029C90.2059 57.083 89.9998 57.0697 89.7606 57.0564L89.6941 56.9966V56.6842L89.7539 56.631C89.9998 56.6377 90.4717 56.6443 91.1695 56.6443C91.6214 56.6443 92.08 56.6377 92.5452 56.631L92.6648 56.6909L92.6316 57.9137C92.625 58.2327 92.6183 58.6647 92.6183 59.2163C92.6183 60.2597 92.6316 60.8778 92.6582 61.0904L92.7114 61.1569L93.3893 61.1104ZM91.2692 61.1768V57.2624H91.1961L90.0397 59.1432L88.8036 61.1768H91.2692ZM70.0157 72.7273L69.9559 72.7938C69.4375 72.7672 69.1318 72.7539 69.0454 72.7539C68.8726 72.7539 68.7198 72.7606 68.5802 72.7672C68.3742 72.7805 68.2413 72.7805 68.1881 72.7805C68.0751 72.7805 67.9754 72.7473 67.8957 72.6875C67.703 72.5346 67.4504 72.2887 67.1447 71.9498L64.7056 69.2183V70.4611C64.7056 71.2918 64.7256 71.8301 64.7721 72.0827C64.7921 72.1824 64.8519 72.2488 64.9516 72.2754C65.0047 72.2887 65.2108 72.3087 65.563 72.3286L65.6162 72.3818V72.734L65.5696 72.7872C65.2174 72.7672 64.6791 72.7539 63.9547 72.7539C63.2037 72.7539 62.6654 72.7672 62.3397 72.7872L62.2866 72.7406V72.3818L62.3397 72.3286C62.6986 72.3087 62.898 72.2887 62.9512 72.2754C63.0509 72.2488 63.1106 72.1824 63.1306 72.0827C63.1771 71.8301 63.1971 71.2918 63.1971 70.4611V67.6898C63.1971 66.859 63.1771 66.3141 63.1306 66.0682C63.1106 65.9685 63.0509 65.902 62.9512 65.8754C62.898 65.8622 62.6919 65.8422 62.3397 65.8223L62.2866 65.7691V65.4103L62.3397 65.3637C62.672 65.3837 63.2104 65.3969 63.9547 65.3969C64.7123 65.3969 65.2506 65.3837 65.5696 65.3637L65.6162 65.4103V65.7691L65.563 65.8223C65.2041 65.8422 65.0047 65.8622 64.9516 65.8754C64.8519 65.902 64.7921 65.9685 64.7721 66.0682C64.7256 66.3207 64.7056 66.859 64.7056 67.6898V68.9924C64.8784 68.8129 65.2506 68.4341 65.8288 67.8426C66.1345 67.5303 66.3472 67.3043 66.4735 67.1647C66.8191 66.7859 67.045 66.5201 67.158 66.3673C67.3507 66.1214 67.4371 65.9486 67.4371 65.8489C67.4371 65.809 67.4238 65.7758 67.3906 65.7625L67.3308 65.716V65.4169L67.3906 65.3637C67.7761 65.3837 68.1349 65.3969 68.4672 65.3969C68.6998 65.3969 69.0388 65.3837 69.4973 65.3637L69.5572 65.4169V65.7691L69.504 65.8156C69.1252 65.8289 68.846 65.8754 68.6733 65.9552C68.527 66.0217 68.2945 66.1878 67.9821 66.4603C67.6365 66.7594 67.1846 67.1714 66.633 67.7031C66.4269 67.9024 66.1545 68.1683 65.8022 68.5006L68.7995 71.6108C69.2116 72.0428 69.6037 72.2887 69.9692 72.3552L70.0157 72.4084V72.7273V72.7273ZM75.6581 72.7207L75.6049 72.7805C75.2992 72.7606 74.9868 72.7539 74.6612 72.7539C74.3289 72.7539 74.0232 72.7606 73.7374 72.7805L73.6842 72.7207L73.7374 72.0694L73.6577 72.0495C73.4251 72.2621 73.2655 72.3951 73.1924 72.4615C73.0329 72.5878 72.8934 72.6875 72.7737 72.7473C72.5478 72.8603 72.2687 72.9201 71.9297 72.9201C71.0458 72.9201 70.6006 72.4815 70.6006 71.5976C70.6006 71.139 70.7335 70.7868 71.0126 70.5342C71.2186 70.3415 71.6838 70.182 72.3949 70.0491L73.671 69.8098C73.6643 69.4975 73.6377 69.2582 73.5846 69.1054C73.5115 68.8727 73.3719 68.6867 73.1659 68.5537C72.9997 68.4474 72.807 68.3942 72.5943 68.3942C72.4415 68.3942 72.2421 68.4208 71.9895 68.4673L71.5908 69.2316L71.5243 69.2715L71.2984 69.2316L71.2452 69.1585L71.2984 68.4607C72.1092 67.9157 72.7538 67.6499 73.2257 67.6499C73.8902 67.6499 74.3754 67.8559 74.6811 68.2746C74.8605 68.5205 74.9536 68.8661 74.9536 69.3114C74.9536 69.4576 74.9469 69.8231 74.927 70.4013C74.9204 70.6339 74.9137 70.8333 74.9137 70.9994C74.9137 71.777 74.9403 72.1957 74.9935 72.2621C75.0466 72.3286 75.246 72.3685 75.5982 72.3818L75.6448 72.4349V72.7207H75.6581ZM73.6842 70.9463V70.1022C73.3652 70.1886 73.1193 70.2684 72.9532 70.3282C72.6076 70.4412 72.3816 70.5475 72.2687 70.6272C72.036 70.8 71.9164 71.0459 71.9164 71.3583C71.9164 71.5776 71.9896 71.7504 72.1291 71.8966C72.2687 72.0428 72.4481 72.1159 72.6608 72.1159C72.9931 72.1159 73.2655 71.9764 73.4849 71.7039C73.6178 71.5377 73.6842 71.2852 73.6842 70.9463ZM82.8688 72.734L82.8156 72.7872C82.49 72.7606 82.0049 72.7473 81.3735 72.7473C80.7887 72.7473 80.3102 72.7606 79.938 72.7872L79.8848 72.734V72.415L79.938 72.3618C80.257 72.3485 80.4564 72.3286 80.5295 72.302C80.6026 72.2754 80.6491 72.2223 80.6624 72.1425C80.6823 72.0428 80.6956 71.7903 80.6956 71.3849V68.2613H78.2765V70.3083C78.2765 71.4979 78.3031 72.1292 78.3629 72.2156C78.3962 72.2621 78.4361 72.2887 78.4892 72.302C78.5823 72.3286 78.7683 72.3419 79.0541 72.3618L79.1073 72.415V72.734L79.0541 72.7872C78.7218 72.7606 78.2433 72.7473 77.6053 72.7473C77.0205 72.7473 76.5419 72.7606 76.1764 72.7872L76.1233 72.734V72.415L76.1764 72.3618C76.4821 72.3485 76.6815 72.3286 76.7546 72.302C76.8211 72.2821 76.8743 72.2289 76.9008 72.1425C76.9208 72.0694 76.9341 71.8169 76.9341 71.3849V69.6636C76.9341 68.8528 76.9075 68.4075 76.861 68.3411C76.8277 68.3012 76.7879 68.2746 76.728 68.2613C76.6416 68.2414 76.4556 68.2281 76.1764 68.2148L76.1233 68.1616V67.836L76.1764 67.7828C76.4688 67.8027 77.0803 67.8161 78.0173 67.8161H81.6526C82.0979 67.8161 82.4834 67.8027 82.8024 67.7828L82.8555 67.836V68.1616L82.8024 68.2148C82.4967 68.2215 82.2973 68.2414 82.2042 68.2746C82.1378 68.3012 82.0912 68.361 82.0713 68.4541C82.0514 68.5471 82.0447 68.8329 82.0447 69.2981V71.3849C82.0447 71.7903 82.058 72.0428 82.078 72.1425C82.0979 72.2223 82.1378 72.2688 82.2109 72.302C82.284 72.3286 82.4834 72.3485 82.7957 72.3618L82.8555 72.415V72.734H82.8688ZM89.94 67.7895L89.9998 67.8426V68.1616L89.9334 68.2148C89.5945 68.2281 89.3818 68.248 89.3153 68.2946C89.2422 68.3344 89.209 68.4541 89.2024 68.6534L89.1891 69.1186C89.1824 69.2781 89.1824 69.6437 89.1824 70.2152C89.1824 70.7735 89.1891 71.2254 89.1957 71.5843C89.2024 71.9431 89.2223 72.1425 89.2489 72.1957C89.2755 72.2488 89.3153 72.2821 89.3752 72.3087C89.435 72.3353 89.6277 72.3485 89.9467 72.3685L90.0065 72.4216V72.7406L89.9533 72.7938C89.6211 72.7672 89.1425 72.7539 88.5178 72.7539C87.933 72.7539 87.4611 72.7672 87.089 72.7938L87.0358 72.7406V72.4216L87.089 72.3685C87.4146 72.3552 87.614 72.3353 87.6738 72.3087C87.7336 72.2821 87.7735 72.2422 87.8001 72.1957C87.82 72.1425 87.8399 71.9631 87.8466 71.6507C87.8599 71.3384 87.8599 70.8665 87.8599 70.2285V68.6667C86.8896 70.2817 86.0987 71.6507 85.494 72.7739L84.5236 72.7539C84.1249 72.7539 83.7461 72.7672 83.3806 72.7938L83.334 72.7406V72.415L83.3806 72.3685C83.6929 72.3552 83.8856 72.3352 83.9455 72.3153C84.0053 72.2954 84.0518 72.2621 84.0784 72.2156C84.105 72.1691 84.1249 72.0162 84.1316 71.7504C84.1448 71.4846 84.1448 71.2719 84.1448 71.1257C84.1448 69.9826 84.1449 69.2516 84.1382 68.9326C84.1316 68.6136 84.1116 68.4275 84.085 68.3743C84.0518 68.3211 84.0053 68.2879 83.9322 68.268C83.8657 68.248 83.6796 68.2347 83.3872 68.2214L83.334 68.1616V67.8426L83.3872 67.7895C83.7262 67.8094 84.198 67.8227 84.8161 67.8227C85.4474 67.8227 85.9259 67.8094 86.2516 67.7895L86.3047 67.8426V68.1616L86.2449 68.2214C85.9326 68.2347 85.7465 68.2547 85.6867 68.2746C85.6269 68.2946 85.5803 68.3278 85.5604 68.361C85.5338 68.3942 85.5205 68.5538 85.5006 68.8196C85.4873 69.0921 85.4806 69.4177 85.4806 69.7965C85.4806 70.1753 85.474 70.8732 85.474 71.89C85.7465 71.4513 86.1519 70.7535 86.6902 69.8098C87.2352 68.8595 87.6007 68.1882 87.7934 67.7961C88.0393 67.8161 88.3384 67.8293 88.684 67.8293C89.0295 67.8227 89.4549 67.8094 89.94 67.7895ZM95.9147 69.1386L95.8549 69.1984H95.6555L95.6156 69.1386C95.5026 68.7731 95.4029 68.5404 95.3165 68.4341C95.2567 68.3544 95.1703 68.3078 95.0507 68.2879C94.9577 68.268 94.5589 68.2613 93.8478 68.2613V70.0557C93.8478 71.2852 93.8678 71.9697 93.901 72.1292C93.9209 72.2356 93.9874 72.302 94.0804 72.3286C94.1402 72.3485 94.3197 72.3618 94.6254 72.3751L94.6786 72.4283V72.7473L94.6254 72.8005C94.2997 72.7739 93.8212 72.7606 93.1899 72.7606C92.5652 72.7606 92.08 72.7739 91.7544 72.8005L91.7012 72.7473V72.4283L91.7544 72.3751C92.0534 72.3618 92.2328 72.3485 92.286 72.3286C92.3791 72.302 92.4322 72.2356 92.4588 72.1292C92.492 71.9764 92.512 71.2852 92.512 70.0557V68.2613C91.8541 68.2613 91.4619 68.268 91.3357 68.2813C91.2227 68.2945 91.1296 68.3411 91.0499 68.4208C90.9701 68.5006 90.8705 68.7398 90.7442 69.1386L90.7043 69.1984H90.5049L90.4451 69.1386C90.4518 68.8262 90.4584 68.6136 90.4584 68.4873C90.4584 68.2082 90.4518 67.9955 90.4451 67.8626L90.4983 67.7895C91.0831 67.8094 91.9737 67.8227 93.1832 67.8227C94.4526 67.8227 95.3498 67.8094 95.8615 67.7895L95.9147 67.8626C95.908 67.9955 95.9014 68.2082 95.9014 68.4873C95.9014 68.6069 95.908 68.8262 95.9147 69.1386ZM101.63 72.7207L101.577 72.7805C101.271 72.7606 100.959 72.7539 100.633 72.7539C100.301 72.7539 99.9953 72.7606 99.7095 72.7805L99.6563 72.7207L99.7095 72.0694L99.6297 72.0495C99.3971 72.2621 99.2376 72.3951 99.1645 72.4615C99.005 72.5878 98.8654 72.6875 98.7458 72.7473C98.5199 72.8603 98.2407 72.9201 97.9018 72.9201C97.0179 72.9201 96.5726 72.4815 96.5726 71.5976C96.5726 71.139 96.7055 70.7868 96.9847 70.5342C97.1907 70.3415 97.6559 70.182 98.367 70.0491L99.643 69.8098C99.6364 69.4975 99.6098 69.2582 99.5566 69.1054C99.4835 68.8727 99.3439 68.6867 99.1379 68.5537C98.9718 68.4474 98.779 68.3942 98.5664 68.3942C98.4135 68.3942 98.2142 68.4208 97.9616 68.4673L97.5628 69.2316L97.4964 69.2715L97.2704 69.2316L97.2173 69.1585L97.2704 68.4607C98.0812 67.9157 98.7259 67.6499 99.1977 67.6499C99.8623 67.6499 100.347 67.8559 100.653 68.2746C100.833 68.5205 100.926 68.8661 100.926 69.3114C100.926 69.4576 100.919 69.8231 100.899 70.4013C100.892 70.6339 100.886 70.8333 100.886 70.9994C100.886 71.777 100.912 72.1957 100.966 72.2621C101.019 72.3286 101.218 72.3685 101.57 72.3818L101.617 72.4349V72.7207H101.63ZM99.6563 70.9463V70.1022C99.3373 70.1886 99.0914 70.2684 98.9253 70.3282C98.5797 70.4412 98.3537 70.5475 98.2474 70.6272C98.0148 70.8 97.8951 71.0459 97.8951 71.3583C97.8951 71.5776 97.9682 71.7504 98.1078 71.8966C98.2474 72.0428 98.4268 72.1159 98.6395 72.1159C98.9718 72.1159 99.2443 71.9764 99.4636 71.7039C99.5899 71.5377 99.6563 71.2852 99.6563 70.9463ZM107.817 72.734L107.764 72.7872C107.432 72.7606 106.953 72.7473 106.329 72.7473C105.744 72.7473 105.265 72.7606 104.9 72.7872L104.847 72.734V72.415L104.9 72.3618C105.206 72.3419 105.405 72.322 105.491 72.302C105.545 72.2821 105.591 72.2422 105.611 72.1824C105.638 72.1159 105.651 71.7903 105.664 71.1988L105.677 68.4142H105.598C104.222 70.6605 103.531 71.8966 103.531 72.1159C103.531 72.2821 103.737 72.3818 104.142 72.4017L104.202 72.4482V72.7406L104.142 72.7872C103.597 72.7672 103.232 72.7539 103.039 72.7539C102.826 72.7539 102.507 72.7672 102.075 72.7872L102.016 72.7406V72.4416L102.069 72.395C102.288 72.3884 102.461 72.3153 102.594 72.1691C102.647 72.1159 103.026 71.5577 103.737 70.5076L104.767 68.9924C105.02 68.6202 105.152 68.4142 105.152 68.381C105.152 68.3211 104.82 68.2613 104.156 68.2148L104.089 68.1683V67.8559L104.149 67.8027L105.797 67.836C106.09 67.8426 106.468 67.8293 106.94 67.8027L107.066 67.8626C107.027 68.9326 107.007 69.8165 107.007 70.5209C107.007 70.8001 107.013 71.0925 107.02 71.3982C107.033 71.8102 107.047 72.0628 107.066 72.1558C107.08 72.2356 107.126 72.2821 107.199 72.3153C107.272 72.3419 107.465 72.3618 107.778 72.3751L107.831 72.4283V72.734H107.817Z" fill="#2B2A29"/>
<path fill-rule="evenodd" clip-rule="evenodd" d="M64.3537 77.1136H63.1907V79.2735H62.772V76.7747H64.347V77.1136H64.3537ZM65.0183 78.3232V79.2669H64.5996V76.768H65.5566C65.8291 76.768 66.0484 76.8411 66.2012 76.9807C66.3541 77.1203 66.4339 77.313 66.4339 77.5456C66.4339 77.7782 66.3541 77.9643 66.2012 78.1105C66.0417 78.2501 65.8291 78.3232 65.5566 78.3232H65.0183V78.3232ZM65.0183 77.9909H65.5566C65.7094 77.9909 65.8291 77.951 65.9022 77.8646C65.9819 77.7849 66.0218 77.6785 66.0218 77.5522C66.0218 77.426 65.9819 77.3196 65.9022 77.2332C65.8224 77.1468 65.7094 77.107 65.5566 77.107H65.0183V77.9909ZM67.4773 77.9045L67.5637 78.157H67.5769L68.1352 76.7747H68.5938L67.6899 78.8283C67.6235 78.9811 67.5437 79.1007 67.444 79.1805C67.3444 79.2669 67.2114 79.3068 67.032 79.3068C66.9589 79.3068 66.8924 79.3001 66.8326 79.2868C66.7728 79.2735 66.7196 79.2602 66.6664 79.2403L66.713 78.9279C66.7595 78.9412 66.806 78.9545 66.8525 78.9612C66.8991 78.9678 66.9456 78.9745 66.9855 78.9745C67.0785 78.9745 67.1516 78.9545 67.2048 78.908C67.2579 78.8615 67.2978 78.8017 67.331 78.7286L67.3842 78.6089L66.5335 76.7747H66.9921L67.4773 77.9045ZM70.7736 79.2735H70.3549V77.1136H69.2384V79.2735H68.8197V76.7747H70.7736V79.2735V79.2735ZM73.1196 79.2735H72.7009V77.1136H71.5844V79.2735H71.1657V76.7747H73.1196V79.2735V79.2735ZM74.8209 78.6887H73.937L73.7443 79.2735H73.3123L74.1829 76.7747H74.5817L75.439 79.2735H75.007L74.8209 78.6887ZM74.05 78.3431H74.708L74.3889 77.3595H74.3757L74.05 78.3431ZM77.2467 78.1902H77.0406V79.2735H76.622V76.7747H77.0406V77.8314H77.2068L78.0176 76.7747H78.5027L78.5094 76.7813L77.5723 77.951L78.5825 79.2669H78.0575L77.2467 78.1902ZM80.6494 78.2501C80.6494 78.5558 80.5563 78.8083 80.3636 79.0077C80.1708 79.2071 79.925 79.3068 79.6192 79.3068C79.3202 79.3068 79.0809 79.2071 78.8882 79.0077C78.7021 78.8083 78.6091 78.5558 78.6091 78.2501V77.7981C78.6091 77.4924 78.7021 77.2399 78.8882 77.0405C79.0743 76.8411 79.3202 76.7414 79.6192 76.7414C79.925 76.7414 80.1708 76.8411 80.3636 77.0405C80.5563 77.2399 80.6494 77.4924 80.6494 77.7981V78.2501ZM80.2307 77.7981C80.2307 77.5921 80.1775 77.4193 80.0645 77.2864C79.9516 77.1535 79.8054 77.087 79.6126 77.087C79.4265 77.087 79.287 77.1535 79.1806 77.2864C79.0743 77.4193 79.0211 77.5921 79.0211 77.7981V78.2501C79.0211 78.4627 79.0743 78.6355 79.1806 78.7684C79.287 78.9013 79.4332 78.9678 79.6126 78.9678C79.8054 78.9678 79.9516 78.9013 80.0645 78.7684C80.1775 78.6355 80.2307 78.4627 80.2307 78.2501V77.7981ZM82.2311 78.0906H82.2444L82.9688 76.7747H83.5004V79.2735H83.0818V77.4792H83.0685L82.3839 78.6687H82.0982L81.4004 77.4459L81.3871 77.4526V79.2802H80.9684V76.7813H81.5133L82.2311 78.0906ZM85.8464 79.2735H85.4278V77.1136H84.3112V79.2735H83.8926V76.7747H85.8464V79.2735V79.2735ZM87.7538 78.6887H86.8699L86.6772 79.2735H86.2452L87.1158 76.7747H87.5145L88.3719 79.2735H87.9399L87.7538 78.6887ZM86.9829 78.3431H87.6408L87.3218 77.3595H87.3085L86.9829 78.3431ZM90.7179 79.2735H90.2992V78.2102H89.1827V79.2735H88.764V76.7747H89.1827V77.8713H90.2992V76.7747H90.7179V79.2735ZM92.8379 76.7747H93.2566V79.2735H92.8379V77.4858L92.8246 77.4792L91.7147 79.2735H91.3027V76.7747H91.7147V78.5624L91.728 78.5691L92.8379 76.7747ZM95.3367 76.7747H95.7554V79.2735H95.3367V77.4858L95.3234 77.4792L94.2136 79.2735H93.8016V76.7747H94.2136V78.5624L94.2269 78.5691L95.3367 76.7747ZM95.3234 76.0436L95.3301 76.0569C95.3367 76.1965 95.2902 76.3095 95.1906 76.4025C95.0909 76.4889 94.9579 76.5354 94.7918 76.5354C94.6256 76.5354 94.4861 76.4889 94.3864 76.4025C94.2867 76.3161 94.2402 76.2031 94.2468 76.0569L94.2535 76.0436H94.5592C94.5592 76.1101 94.5791 76.1633 94.6123 76.2098C94.6522 76.2497 94.7054 76.2762 94.7851 76.2762C94.8649 76.2762 94.9181 76.2563 94.9579 76.2098C94.9978 76.1699 95.0178 76.1101 95.0178 76.0436H95.3234Z" fill="#2B2A29"/>
</svg>
