<svg width="125" height="125" viewBox="0 0 125 125" fill="none" xmlns="http://www.w3.org/2000/svg">
<path d="M85.4563 40H40V85.4563H85.4563V40Z" fill="black"/>
<path fill-rule="evenodd" clip-rule="evenodd" d="M57.0725 61.3291L55.9056 59.6385C56.8537 59.2871 57.4703 58.3588 57.4305 57.3511C57.4571 56.7079 57.2184 56.0847 56.7742 55.6206C56.1111 55.0438 55.236 54.7587 54.3608 54.825H50.8601H50.8932V62.2176H52.942V59.97H53.8304L55.3288 62.2176H56.7012L56.6946 62.2375H58.8428L59.3666 60.8982H62.244L62.7678 62.2375H64.969L61.8131 54.7719H59.8373L57.0725 61.3291ZM43.9249 76.9299H60.9711V79.7742H43.9249V76.9299ZM43.7327 51.9674L45.0521 50.7209C45.3106 51.1253 45.7416 51.3773 46.219 51.4038C46.4709 51.3906 46.7096 51.2712 46.8687 51.0723C47.0278 50.8734 47.0942 50.6215 47.0544 50.3695V45.682H49.0964V50.3761C49.1561 51.1452 48.8909 51.9011 48.3671 52.458C47.8168 52.9685 47.0875 53.2404 46.3383 53.2072C45.3173 53.2603 44.336 52.7961 43.7327 51.9674ZM49.5738 45.682H55.5343V47.4191H51.6027V48.5529H55.1697V50.1772H51.6027V51.3508H55.5874V53.1343H49.5738V45.7218V45.682ZM58.2262 47.4854H56.0183V45.7019H62.5026V47.4854H60.2815V53.1011H58.2328V47.4854H58.2262ZM43.9249 54.825H47.7174C48.4533 54.7653 49.1826 55.004 49.7396 55.4814C50.0512 55.7996 50.2236 56.2372 50.2103 56.6814C50.2236 57.4174 49.7661 58.087 49.0699 58.3323C49.9318 58.4848 50.5551 59.2407 50.5418 60.1158C50.5418 61.3888 49.5075 62.1579 47.7373 62.1579H43.9183V54.825H43.9249ZM48.2014 57.1124C48.2014 56.7013 47.8699 56.4825 47.313 56.4825H45.967V57.782H47.2599C47.8831 57.782 48.2412 57.5699 48.2412 57.1389L48.2014 57.1124ZM47.4853 59.2208H45.914V60.5866H47.4986C48.1285 60.5866 48.4798 60.3479 48.4798 59.9103C48.4931 59.4595 48.1815 59.2208 47.4853 59.2208ZM55.0503 58.2196C54.6658 58.5246 53.4458 58.392 52.9154 58.392V56.6085C53.4458 56.6085 54.6724 56.4692 55.0503 56.7742C55.2691 56.9466 55.3951 57.2185 55.3818 57.4969C55.3885 57.7754 55.2691 58.0406 55.0503 58.2196ZM61.6208 59.3003H59.9566L60.792 57.2052L61.6208 59.3003ZM65.2077 54.825H67.2564V62.2375H65.2077V54.825ZM67.7736 54.825H69.6897L72.7396 58.7434V54.825H74.7684V62.2375H72.9849L69.8157 58.1732V62.2375H67.7868V54.825H67.7736ZM74.8944 61.1302L76.0347 59.7644C76.711 60.328 77.5597 60.6462 78.4415 60.6529C79.0051 60.6529 79.3299 60.4672 79.3299 60.1424C79.3299 59.8241 79.0913 59.6716 78.0768 59.4197C76.4989 59.0617 75.2789 58.6174 75.2789 57.1057C75.2789 55.7333 76.3662 54.7388 78.1498 54.7388C79.2504 54.6924 80.3311 55.0438 81.1997 55.72L80.172 57.172C79.5753 56.7212 78.846 56.4626 78.0967 56.4427C77.5995 56.4427 77.3542 56.6483 77.3542 56.9135C77.3542 57.2516 77.6127 57.4041 78.647 57.6362C80.3377 58.0075 81.3986 58.5246 81.3986 59.9434C81.3986 61.4551 80.2051 62.3568 78.4017 62.3568C77.1221 62.4032 75.869 61.959 74.8944 61.1302Z" fill="white"/>
</svg>
