<svg width="250" height="250" viewBox="0 0 125 125" fill="none" xmlns="http://www.w3.org/2000/svg">
<path fill-rule="evenodd" clip-rule="evenodd" d="M40 40H85.4563V85.4563H40V40ZM55.9056 59.6385L57.0725 61.3292L59.8373 54.7719H61.8131L64.969 62.2375H62.7678L62.244 60.8982H59.3666L58.8428 62.2375H56.6946L56.7012 62.2176H55.3288L53.8304 59.97H52.942V62.2176H50.8932V54.825H54.3608C55.236 54.7587 56.1111 55.0438 56.7742 55.6206C57.2184 56.0847 57.4571 56.7079 57.4305 57.3511C57.4703 58.3588 56.8537 59.2871 55.9056 59.6385ZM60.9711 76.9299H43.9249V79.7742H60.9711V76.9299ZM45.0521 50.7209L43.7327 51.9674C44.336 52.7962 45.3173 53.2603 46.3383 53.2072C47.0875 53.2404 47.8168 52.9686 48.3671 52.458C48.8909 51.9011 49.1561 51.1452 49.0964 50.3762V45.682H47.0544V50.3695C47.0942 50.6215 47.0278 50.8734 46.8687 51.0723C46.7096 51.2712 46.4709 51.3906 46.219 51.4038C45.7416 51.3773 45.3106 51.1254 45.0521 50.7209ZM55.5343 45.682H49.5738V45.7218V53.1343H55.5874V51.3508H51.6027V50.1773H55.1697V48.5529H51.6027V47.4191H55.5343V45.682ZM56.0183 47.4854H58.2262H58.2328V53.1012H60.2815V47.4854H62.5026V45.7019H56.0183V47.4854ZM47.7174 54.825H43.9249H43.9183V62.1579H47.7373C49.5075 62.1579 50.5418 61.3888 50.5418 60.1158C50.5551 59.2407 49.9318 58.4848 49.0699 58.3323C49.7661 58.087 50.2236 57.4174 50.2103 56.6814C50.2236 56.2372 50.0512 55.7996 49.7396 55.4814C49.1826 55.004 48.4533 54.7653 47.7174 54.825ZM47.313 56.4825C47.8699 56.4825 48.2014 56.7013 48.2014 57.1124L48.2412 57.1389C48.2412 57.5699 47.8831 57.782 47.2599 57.782H45.967V56.4825H47.313ZM45.914 59.2208H47.4853C48.1815 59.2208 48.4931 59.4595 48.4798 59.9103C48.4798 60.3479 48.1285 60.5866 47.4986 60.5866H45.914V59.2208ZM53.3173 58.4039C53.9126 58.4281 54.7449 58.4618 55.0503 58.2196C55.2691 58.0406 55.3885 57.7754 55.3818 57.4969C55.3951 57.2185 55.2691 56.9466 55.0503 56.7742C54.7522 56.5336 53.9259 56.5695 53.3299 56.5954C53.1704 56.6023 53.0274 56.6085 52.9154 56.6085V58.392C53.0246 58.392 53.163 58.3976 53.3173 58.4039ZM59.9566 59.3003H61.6208L60.792 57.2052L59.9566 59.3003ZM67.2564 54.825H65.2077V62.2375H67.2564V54.825ZM69.6897 54.825H67.7868V62.2375H69.8157V58.1732L72.9849 62.2375H74.7684V54.825H72.7396V58.7434L69.6897 54.825ZM76.0347 59.7644L74.8944 61.1303C75.869 61.959 77.1221 62.4032 78.4017 62.3568C80.2051 62.3568 81.3986 61.4551 81.3986 59.9435C81.3986 58.5246 80.3377 58.0075 78.647 57.6362C77.6127 57.4041 77.3542 57.2516 77.3542 56.9135C77.3542 56.6483 77.5995 56.4427 78.0967 56.4427C78.846 56.4626 79.5753 56.7212 80.172 57.1721L81.1997 55.7201C80.3311 55.0438 79.2504 54.6924 78.1498 54.7388C76.3662 54.7388 75.2789 55.7333 75.2789 57.1058C75.2789 58.6174 76.4989 59.0617 78.0768 59.4197C79.0913 59.6716 79.3299 59.8241 79.3299 60.1424C79.3299 60.4672 79.0051 60.6529 78.4415 60.6529C77.5597 60.6463 76.711 60.328 76.0347 59.7644Z" fill="#009291"/>
</svg>
