<svg width="125" height="125" viewBox="0 0 125 125" fill="none" xmlns="http://www.w3.org/2000/svg">
<path fill-rule="evenodd" clip-rule="evenodd" d="M43.8124 55.1831H47.3967V65.7095H51.0542V69.0273H43.8124V55.1831Z" fill="#009291"/>
<path fill-rule="evenodd" clip-rule="evenodd" d="M55.8773 55.1831V63.351C55.8773 63.4976 55.884 63.6775 55.904 63.8973C55.924 64.1172 55.9573 64.3437 56.0172 64.5769C56.1238 64.95 56.3037 65.2897 56.5569 65.6029C56.81 65.9227 57.2098 66.0826 57.7428 66.0959C58.2891 66.0826 58.6888 65.916 58.9486 65.6029C59.2018 65.2831 59.375 64.9433 59.4683 64.5769C59.5282 64.337 59.5616 64.1105 59.5815 63.8973C59.6015 63.6775 59.6082 63.4976 59.6082 63.351V55.1831H63.1991V63.431C63.1991 65.5029 62.6995 67.0153 61.7068 67.9746C60.7141 68.934 59.4216 69.407 57.8294 69.407L57.6561 69.427C56.0772 69.4137 54.7847 68.9273 53.7854 67.9746C52.786 67.0219 52.2864 65.5029 52.2864 63.431V55.1831H55.8773Z" fill="#009291"/>
<path fill-rule="evenodd" clip-rule="evenodd" d="M65.2511 55.1831H68.8354V60.7194L72.3397 55.1831H76.5236L71.8867 61.8853L76.6436 69.0272H72.1999L68.8354 63.371V69.0272H65.2511V55.1831Z" fill="#009291"/>
<path fill-rule="evenodd" clip-rule="evenodd" d="M77.3834 67.2418C76.2708 65.7761 75.7112 64.0706 75.7112 62.1186C75.7112 60.1798 76.2575 58.4743 77.3568 57.0086C78.456 55.5363 80.0883 54.8034 82.2602 54.8034H82.4334C84.6053 54.8034 86.2375 55.5363 87.3368 57.0086C88.4361 58.481 88.9824 60.1865 88.9824 62.1186C88.9824 64.0706 88.4361 65.7695 87.3368 67.2218C86.2375 68.6742 84.6053 69.4071 82.4334 69.4204L82.2602 69.4404C80.1216 69.4404 78.496 68.7075 77.3834 67.2418ZM82.6932 66.0893C82.8198 66.0693 82.9464 66.036 83.073 65.9827C83.6326 65.8094 84.1389 65.423 84.5986 64.8234C85.0583 64.2238 85.2848 63.3244 85.2848 62.1252C85.2848 60.926 85.0517 60.0266 84.5853 59.427C84.1189 58.8274 83.6126 58.441 83.0663 58.2678C82.9397 58.2278 82.8132 58.1945 82.6932 58.1678C82.5733 58.1412 82.4534 58.1279 82.3335 58.1279C82.2069 58.1279 82.0736 58.1412 81.9337 58.1678C81.7938 58.1945 81.6606 58.2345 81.534 58.2878C81.001 58.4743 80.508 58.8674 80.0616 59.467C79.6153 60.0666 79.3888 60.9527 79.3888 62.1252C79.3888 63.2978 79.6153 64.1838 80.0616 64.7901C80.508 65.3897 81.001 65.7828 81.534 65.9693C81.6606 66.0226 81.7938 66.0626 81.9271 66.0893C82.0603 66.1159 82.1935 66.1292 82.3201 66.1292C82.4467 66.1159 82.5667 66.1092 82.6932 66.0893Z" fill="#009291"/>
<path d="M94.2053 55.1831H90.6144V69.0339H94.2053V55.1831Z" fill="#009291"/>
<path fill-rule="evenodd" clip-rule="evenodd" d="M96.397 55.1831H99.9813V65.7095H103.639V69.0273H96.397V55.1831Z" fill="#009291"/>
<path fill-rule="evenodd" clip-rule="evenodd" d="M22 52.978H40.621V71.4457H22V52.978ZM36.5039 59.7934L38.6359 56.3424C38.6958 56.2225 38.7225 55.956 38.7158 55.8161C38.6891 55.1965 38.1961 54.7968 37.6098 54.8234C37.1968 54.8367 36.8504 55.0699 36.6772 55.4163L34.3454 59.2605C34.1788 59.5936 34.0655 60 34.0655 60.2531C34.0655 60.4796 34.1122 60.7128 34.1788 60.9393L36.7171 66.9287H26.897C26.5172 66.942 26.2307 66.5689 26.2374 66.2425V55.9027C26.1974 54.457 24.1255 54.4836 24.0922 55.9093L24.1055 66.942C24.1055 68.0946 25.0382 69.0606 26.2441 69.0606H39.6485L36.4106 60.7794C36.3041 60.4863 36.2707 60.1798 36.5039 59.7934ZM31.2271 55.9094V63.3045C31.2271 64.3571 29.7947 64.2972 29.7881 63.3045V55.9094C29.7881 54.4637 27.6628 54.4637 27.6628 55.9094V63.3911C27.6628 65.07 28.942 66.2292 30.5076 66.2292C32.0732 66.2292 33.3523 65.1033 33.3523 63.3911V55.9094C33.3324 54.457 31.2271 54.4637 31.2271 55.9094Z" fill="#009291"/>
</svg>
