<svg width="125" height="125" viewBox="0 0 125 125" fill="none" xmlns="http://www.w3.org/2000/svg">
<path fill-rule="evenodd" clip-rule="evenodd" d="M43.8124 55.2051H47.3967V65.7315H51.0542V69.0493H43.8124V55.2051Z" fill="black"/>
<path fill-rule="evenodd" clip-rule="evenodd" d="M55.8773 55.2051V63.3731C55.8773 63.5196 55.884 63.6995 55.904 63.9194C55.924 64.1392 55.9573 64.3657 56.0172 64.5989C56.1238 64.972 56.3037 65.3118 56.5569 65.6249C56.81 65.9447 57.2098 66.1046 57.7428 66.1179C58.2891 66.1046 58.6888 65.938 58.9486 65.6249C59.2018 65.3051 59.375 64.9653 59.4683 64.5989C59.5282 64.3591 59.5616 64.1325 59.5815 63.9194C59.6015 63.6995 59.6082 63.5196 59.6082 63.3731V55.2051H63.1991V63.453C63.1991 65.525 62.6995 67.0373 61.7068 67.9966C60.7141 68.956 59.4216 69.429 57.8294 69.429L57.6561 69.449C56.0772 69.4357 54.7847 68.9493 53.7854 67.9966C52.786 67.0439 52.2864 65.525 52.2864 63.453V55.2051H55.8773Z" fill="black"/>
<path fill-rule="evenodd" clip-rule="evenodd" d="M65.2511 55.2051H68.8354V60.7415L72.3397 55.2051H76.5236L71.8867 61.9074L76.6436 69.0493H72.1999L68.8354 63.393V69.0493H65.2511V55.2051Z" fill="black"/>
<path fill-rule="evenodd" clip-rule="evenodd" d="M77.3834 67.2638C76.2708 65.7982 75.7112 64.0926 75.7112 62.1406C75.7112 60.2019 76.2575 58.4963 77.3568 57.0306C78.456 55.5583 80.0883 54.8254 82.2602 54.8254H82.4334C84.6053 54.8254 86.2375 55.5583 87.3368 57.0306C88.4361 58.503 88.9824 60.2085 88.9824 62.1406C88.9824 64.0926 88.4361 65.7915 87.3368 67.2439C86.2375 68.6962 84.6053 69.4291 82.4334 69.4424L82.2602 69.4624C80.1216 69.4624 78.496 68.7295 77.3834 67.2638ZM82.6932 66.1113C82.8198 66.0913 82.9464 66.058 83.073 66.0047C83.6326 65.8315 84.1389 65.4451 84.5986 64.8455C85.0583 64.2458 85.2848 63.3464 85.2848 62.1472C85.2848 60.948 85.0517 60.0486 84.5853 59.449C84.1189 58.8494 83.6126 58.463 83.0663 58.2898C82.9397 58.2498 82.8132 58.2165 82.6932 58.1899C82.5733 58.1632 82.4534 58.1499 82.3335 58.1499C82.2069 58.1499 82.0736 58.1632 81.9337 58.1899C81.7938 58.2165 81.6606 58.2565 81.534 58.3098C81.001 58.4963 80.508 58.8894 80.0616 59.489C79.6153 60.0886 79.3888 60.9747 79.3888 62.1472C79.3888 63.3198 79.6153 64.2059 80.0616 64.8121C80.508 65.4117 81.001 65.8048 81.534 65.9914C81.6606 66.0447 81.7938 66.0846 81.9271 66.1113C82.0603 66.1379 82.1935 66.1513 82.3201 66.1513C82.4467 66.1379 82.5667 66.1313 82.6932 66.1113Z" fill="black"/>
<path d="M94.2053 55.2051H90.6144V69.056H94.2053V55.2051Z" fill="black"/>
<path fill-rule="evenodd" clip-rule="evenodd" d="M96.397 55.2051H99.9813V65.7315H103.639V69.0493H96.397V55.2051Z" fill="black"/>
<path d="M40.621 53H22V71.4677H40.621V53Z" fill="#EC1A3A"/>
<path fill-rule="evenodd" clip-rule="evenodd" d="M38.6359 56.3644L36.5039 59.8155C36.2707 60.2019 36.3041 60.5083 36.4106 60.8015L39.6485 69.0826H26.2441C25.0382 69.0826 24.1055 68.1166 24.1055 66.9641L24.0922 55.9314C24.1255 54.5057 26.1974 54.479 26.2374 55.9247V66.2645C26.2307 66.591 26.5172 66.9641 26.897 66.9507H36.7171L34.1788 60.9614C34.1122 60.7349 34.0655 60.5017 34.0655 60.2752C34.0655 60.022 34.1788 59.6156 34.3454 59.2825L36.6772 55.4384C36.8504 55.0919 37.1968 54.8588 37.6098 54.8454C38.1961 54.8188 38.6891 55.2185 38.7158 55.8381C38.7225 55.978 38.6958 56.2445 38.6359 56.3644Z" fill="white"/>
<path fill-rule="evenodd" clip-rule="evenodd" d="M31.227 63.3265V55.9314C31.227 54.4857 33.3323 54.4791 33.3523 55.9314V63.4132C33.3523 65.1253 32.0731 66.2513 30.5075 66.2513C28.9419 66.2513 27.6627 65.092 27.6627 63.4132V55.9314C27.6627 54.4857 29.788 54.4857 29.788 55.9314V63.3265C29.7946 64.3192 31.227 64.3792 31.227 63.3265Z" fill="white"/>
</svg>
