<svg width="250" height="250" viewBox="0 0 125 125" fill="none" xmlns="http://www.w3.org/2000/svg">
<path fill-rule="evenodd" clip-rule="evenodd" d="M38.1083 71.2407C38.8537 71.3636 41.3523 70.9786 41.9093 70.6755C42.2698 70.4789 42.6794 69.889 43.2364 69.7662C44.0065 69.5859 44.3424 70.0856 45.4319 69.889C46.8737 67.5298 46.333 68.4309 48.3482 68.6029C50.044 68.7504 49.0446 66.4894 50.7976 66.4484C52.5999 66.4075 53.0259 67.6854 53.7386 65.2114C54.2956 63.3027 55.6882 64.7199 57.2283 64.6462C58.3342 63.4092 57.9656 61.7134 59.7023 62.2132C61.7503 62.7948 61.5537 63.8188 62.7661 61.3776C63.6672 59.5672 65.0107 61.607 66.1494 61.5988C67.5584 61.5906 67.2225 58.9609 69.3033 60.3618C71.6052 61.9101 71.1629 60.0751 72.5473 59.8211C73.3583 59.6736 73.727 60.3618 74.1693 60.6239C75.7913 61.5578 75.7258 59.0838 77.8311 60.4191C78.4947 60.8369 83.8686 61.607 84.5322 61.6233C83.9178 59.305 81.7879 56.1265 80.5673 54.6356C75.1278 48.0001 66.346 44.5021 57.0481 46.3945C46.4887 48.5408 37.4529 58.4121 38.1083 71.2407Z" fill="#009291"/>
<path fill-rule="evenodd" clip-rule="evenodd" d="M58.6781 67.9557C57.5477 68.1277 56.9005 67.03 55.8765 67.4806C55.0737 67.8328 55.131 69.0862 54.6149 69.8153C53.6401 69.9464 53.2305 69.1108 52.2474 69.3975C51.4119 69.6433 51.4528 70.6836 51.0186 71.3472C49.9701 71.5274 49.9127 70.6918 48.8805 70.954C48.0695 71.1588 48.2825 72.0189 47.6599 72.5514C46.4885 72.9446 46.0052 71.298 44.8091 72.8791C44.0719 73.8621 43.3346 73.7966 41.9665 74.0342C30.8418 75.9347 22.6662 70.8966 22.1501 70.8802L21.7815 71.0031C26.9097 74.0342 34.4217 76.7211 40.9753 76.8276C42.114 76.844 44.8419 76.4672 45.5956 76.8768C47.963 78.1793 47.4306 75.607 48.8642 76.0903C49.4294 76.2869 49.8472 76.9587 50.6992 76.5655C51.3709 76.2624 51.3136 75.4596 51.887 75.0909C52.8455 74.7305 53.2059 75.8937 54.3692 75.5661C55.1146 75.3531 55.1966 74.2226 55.6225 73.6327C56.9414 73.5426 57.4248 74.6895 58.457 74.239C59.2024 73.9113 59.2188 72.5023 59.8004 71.8715C61.1603 71.7322 61.7338 73.1003 62.8397 72.6661C63.8309 72.2729 63.5114 70.8721 64.3388 70.0365C65.543 69.8399 65.9854 71.1915 67.1732 70.7901C68.0088 70.5116 67.9105 69.2582 68.6232 68.5292C69.852 68.4227 69.9913 69.463 71.0972 69.2173C71.9737 69.0207 71.8263 67.9475 72.6373 67.3905C73.7596 67.2102 73.8743 68.1277 74.8409 68.0786C75.611 68.0458 75.8895 67.0628 76.3564 66.5877C77.7982 66.3501 78.0112 68.1277 79.3956 66.5385C80.3541 65.4408 85.3594 65.9323 86.8422 66.1699C87.563 66.2846 89.8322 67.0464 90.0534 66.9645C89.5619 65.834 81.927 64.4004 80.8702 64.2529C79.9691 64.1301 79.068 64.2038 78.4945 63.7205C77.831 63.1634 77.3886 62.5654 76.422 63.4337C75.5782 64.1874 75.357 64.0481 74.5706 63.3518C73.7759 62.6555 73.0878 62.7292 72.5062 63.532C71.1381 65.4244 69.9421 61.6889 68.5904 63.6304C68.2136 64.1628 68.0006 65.0639 67.0831 64.769C66.3622 64.5397 65.8625 63.7778 64.9122 63.958C64.0603 64.1219 64.0685 64.8919 63.6671 65.6292C63.1837 66.5221 62.4219 65.9077 61.7092 65.58C59.2762 64.4332 59.653 66.8252 58.6781 67.9557Z" fill="#009291"/>
<path fill-rule="evenodd" clip-rule="evenodd" d="M56.4826 78.7281C55.262 78.9247 55.0162 77.958 54.0004 78.171C53.3123 78.3185 53.0092 79.4736 52.6078 79.9487C51.3708 80.1207 51.0349 79.1049 50.0273 79.5883C49.4293 79.875 49.3146 81.0956 48.2906 80.7024C47.0946 80.2436 47.5206 79.793 46.2836 80.858C45.6856 81.3659 44.1619 81.2348 43.1952 81.2348C40.328 81.2266 37.6411 80.7843 35.036 80.1207C33.8482 79.8176 32.6522 79.4162 31.5708 79.0148C30.6042 78.6626 28.6627 77.6549 28.3186 77.9089C29.0313 78.6789 34.4872 80.7761 35.9371 81.3086C41.3029 83.291 46.9062 83.5286 47.3404 83.717C48.2005 84.0775 48.1268 84.7164 49.2245 83.93C51.0022 82.6602 50.9366 85.8879 53.1649 83.717C54.8606 82.0704 55.8191 85.126 56.9577 83.3648C57.351 82.7585 57.523 82.0704 58.5388 82.1769C59.4973 82.2834 59.5628 82.8814 60.7916 82.7258C61.5043 81.9393 61.578 80.7843 62.3481 80.6204C63.2901 80.4156 64.2568 81.5379 65.1989 81.0956C66.0836 80.686 65.6658 79.0476 66.526 78.6871C67.4762 78.2857 68.3118 79.6784 69.3194 79.1295C70.1222 78.6871 69.8437 77.1061 70.7776 76.8685C71.6787 76.6391 72.629 77.9253 73.4891 76.9422C74.251 76.0739 73.8742 74.9762 75.6027 75.525C77.3967 76.0903 76.9625 75.0335 77.9128 74.329C79.4693 74.2717 78.9368 75.3858 80.4032 73.8948C81.4436 72.8299 89.103 72.1581 91.9784 72.5513C92.6092 72.6333 93.6742 73.0347 94.0674 72.7971C92.9615 71.4454 84.2206 71.0194 82.0661 71.0522C80.7964 71.0686 80.0919 71.3717 79.0433 70.8392C77.6343 70.1265 77.6671 71.3799 76.7741 71.5028C75.8566 71.6257 75.234 70.2904 74.2018 71.0031C73.6038 71.4209 73.5793 72.6988 72.2522 72.2482C71.4657 71.9779 70.6793 71.085 69.9666 72.1745C69.516 72.8626 69.4177 73.9276 68.1152 73.4852C67.2469 73.1903 66.4031 72.4367 65.7641 73.4934C65.3054 74.2553 65.4282 75.4677 64.1585 75.2465C63.3721 75.1072 62.5283 74.1897 61.6108 74.8697C60.9472 75.3694 60.9554 76.8521 60.4066 77.1225C59.6611 77.4911 58.8583 76.3196 57.8179 76.6146C57.0642 76.803 56.9332 77.999 56.4826 78.7281Z" fill="#009291"/>
<path fill-rule="evenodd" clip-rule="evenodd" d="M71.6788 79.8751C71.1053 80.3748 71.0808 80.8827 70.7531 81.5217C69.5407 81.7101 69.2621 80.9892 68.0825 81.2267C67.1486 81.9313 67.5582 82.6603 66.5588 83.3403C65.3792 83.4386 64.8139 82.4965 63.8636 82.9307C63.1591 83.2502 63.1837 84.4298 62.6103 84.8804C61.8075 85.4948 61.1931 84.3725 60.3575 84.438C59.4891 84.5117 59.5628 85.5767 58.8174 86.1829C57.9245 86.1829 57.7033 85.5521 56.7448 85.5849C55.8601 86.1255 55.8519 87.297 54.8443 86.8628C54.3528 86.6498 54.2463 86.3303 53.5909 86.4614C52.4113 86.699 54.0005 88.0834 46.128 87.3543C44.2766 87.1823 42.0648 86.7399 40.3772 86.2484L35.1426 84.4708C35.4211 85.0442 37.0677 85.6013 37.7149 85.8716C38.6242 86.2566 39.5744 86.6253 40.5984 87.0103C44.8091 88.6077 49.2246 89.4187 53.853 89.5498C55.3194 89.5907 55.5652 90.926 56.5728 90.0249C58.1293 88.6323 57.5804 90.0986 59.2434 90.0905C60.038 89.6563 59.8741 88.9354 60.7589 88.9354C61.5453 88.9354 61.701 89.6071 62.8396 89.5498C63.6998 89.0091 63.5933 88.3128 64.2487 88.0015C65.0679 87.6083 65.6904 88.493 66.5424 88.3538C67.4353 88.2063 67.2387 87.084 67.8531 86.6334C68.5822 86.0928 69.3277 86.8628 70.409 86.6908C71.007 86.0272 70.835 85.2736 71.433 84.9377C72.2194 84.4871 72.4652 85.3227 73.2762 85.0114C73.9316 84.7575 73.6612 83.9711 74.3084 83.5287C74.9638 83.2583 75.1522 83.6598 75.8075 83.5369C76.4547 83.414 76.3728 82.9634 76.7332 82.5129C77.364 81.7346 83.9094 79.7112 85.0808 79.3999C93.6906 77.0652 97.6228 78.4988 97.9668 78.4579C98.442 78.3923 98.0897 78.5889 98.3928 78.2531C94.1248 76.8932 88.5461 76.9178 83.9094 77.524C81.5337 77.8353 79.584 78.507 77.4541 78.9412C76.0697 79.2279 75.3324 77.8107 74.4722 79.4327C73.5875 81.0793 73.0878 79.5883 71.6788 79.8751Z" fill="#009291"/>
<path fill-rule="evenodd" clip-rule="evenodd" d="M41.5735 90.6228C41.9913 91.1881 44.0557 91.7943 44.883 92.1055C48.5203 93.49 52.9603 94.4403 56.8761 94.6369C62.7415 94.9318 68.3203 93.5146 72.8422 91.3847C75.095 90.3279 77.0365 89.1237 79.1583 88.0178C85.1384 84.913 93.3795 81.9721 100.359 83.0944C101.285 83.2418 101.858 83.5859 102.219 83.2992C101.17 82.4964 96.1402 82.1441 94.4936 82.1359C91.6756 82.1195 89.1443 82.4063 86.4819 82.8814C83.3526 83.4466 79.3221 84.8065 76.4631 86.1418C75.4391 86.6169 75.6193 86.3548 74.6117 86.5268C73.9236 86.6415 73.9891 87.1166 73.6041 87.5426C72.9406 87.6327 71.9903 87.3542 71.5643 87.6082C71.2694 87.7802 70.9581 88.6322 70.6878 88.9271C69.59 89.0827 69.1477 88.3045 68.3121 88.7714C67.6567 89.1401 67.8451 90.0084 67.1079 90.3852C66.3706 90.6146 66.2068 89.9347 65.1828 90.1067C64.6175 90.5982 64.6175 90.9832 64.2489 91.4584C63.4133 91.5567 63.1675 91.2536 62.5695 91.3273C61.9633 91.401 61.9305 91.7697 61.6274 92.1547C60.9229 92.2284 60.6608 92.0892 60.0546 92.1055C59.2272 92.1301 59.4729 92.3185 58.9732 92.5725C58.4408 92.851 57.1055 92.9002 56.4501 92.9411C54.566 93.0722 52.6327 93.0476 50.7895 92.8183C49.0773 92.6053 47.4226 92.3104 45.8333 91.8516C45.0797 91.6386 44.3342 91.401 43.6133 91.1635C43.089 90.9996 41.9831 90.377 41.5735 90.6228Z" fill="#009291"/>
<path fill-rule="evenodd" clip-rule="evenodd" d="M77.0855 30.6412L77.0527 33.3609C78.5355 32.8612 79.3465 32.2222 81.3617 32.5171C82.8035 32.7301 83.8193 33.7623 84.0077 35.1959H78.601L78.5437 37.5552L83.9504 37.5634C83.9012 39.0052 82.7544 39.8899 81.5747 40.193C79.7233 40.6763 78.5519 40.1275 77.0609 39.7015V42.2164C81.2962 43.7975 87.3746 42.667 87.2108 36.2772C87.0633 30.5674 82.4676 28.9372 77.0855 30.6412Z" fill="#009291"/>
<path fill-rule="evenodd" clip-rule="evenodd" d="M75.5126 32.8038H70.7613V42.6341H67.5828V30.1987H75.529L75.5126 32.8038Z" fill="#009291"/>
<path fill-rule="evenodd" clip-rule="evenodd" d="M62.1023 40.2175H57.4165L56.5482 42.6341L53.2632 42.6423L58.3832 30.1987H61.1684L66.2311 42.6341H62.9707L62.1023 40.2175ZM61.1357 37.8582L59.784 33.9834L58.2029 37.8582H61.1357Z" fill="#009291"/>
<path fill-rule="evenodd" clip-rule="evenodd" d="M48.7332 42.6341L48.7168 34.9992L45.7759 39.4065H44.3423L41.4096 35.1467V42.6341H38.1492V30.1987H41.0983L45.1123 35.9167L49.0199 30.1987H52.0182L52.051 42.6341H48.7332Z" fill="#009291"/>
</svg>
