<svg width="125" height="125" viewBox="0 0 125 125" fill="none" xmlns="http://www.w3.org/2000/svg">
<path fill-rule="evenodd" clip-rule="evenodd" d="M38.5501 71.805C39.3058 71.9296 41.8386 71.5393 42.4032 71.2321C42.7686 71.0328 43.1838 70.4349 43.7485 70.3103C44.5291 70.1276 44.8695 70.6342 45.974 70.4349C47.4355 68.0433 46.8874 68.9567 48.9302 69.1311C50.6492 69.2806 49.6361 66.9887 51.4132 66.9471C53.2401 66.9056 53.6719 68.2011 54.3943 65.6932C54.959 63.7584 56.3707 65.195 57.9319 65.1202C59.0529 63.8663 58.6792 62.1474 60.4397 62.6539C62.5157 63.2435 62.3164 64.2815 63.5454 61.8069C64.4589 59.9717 65.8208 62.0394 66.975 62.0311C68.4033 62.0228 68.0629 59.3572 70.1721 60.7772C72.5056 62.3467 72.0571 60.4866 73.4605 60.2291C74.2826 60.0797 74.6563 60.7772 75.1047 61.0429C76.7489 61.9896 76.6825 59.4818 78.8167 60.8353C79.4893 61.2588 84.9368 62.0394 85.6094 62.056C84.9866 59.706 82.8275 56.484 81.5902 54.9727C76.0763 48.2463 67.1743 44.7005 57.7492 46.6187C47.0452 48.7944 37.8858 58.8008 38.5501 71.805Z" fill="#EE1A38"/>
<path fill-rule="evenodd" clip-rule="evenodd" d="M59.4016 68.4752C58.2556 68.6496 57.5996 67.5368 56.5616 67.9936C55.7478 68.3506 55.8059 69.6212 55.2828 70.3602C54.2946 70.4931 53.8794 69.6461 52.8829 69.9367C52.0359 70.1858 52.0774 71.2405 51.6373 71.9131C50.5744 72.0958 50.5162 71.2488 49.4699 71.5145C48.6478 71.7221 48.8637 72.594 48.2326 73.1338C47.0451 73.5324 46.5552 71.8633 45.3428 73.4659C44.5954 74.4624 43.8481 74.396 42.4613 74.6368C31.1843 76.5634 22.8968 71.4564 22.3737 71.4397L22 71.5643C27.1984 74.6368 34.8132 77.3606 41.4565 77.4685C42.6107 77.4851 45.376 77.1031 46.14 77.5183C48.5399 78.8387 48.0001 76.2312 49.4533 76.7211C50.0263 76.9204 50.4498 77.6014 51.3134 77.2028C51.9944 76.8955 51.9362 76.0817 52.5175 75.7081C53.4891 75.3427 53.8545 76.5218 55.0337 76.1897C55.7893 75.9738 55.8724 74.8278 56.3042 74.2299C57.6411 74.1386 58.1311 75.3012 59.1774 74.8444C59.9331 74.5123 59.9497 73.084 60.5393 72.4445C61.9178 72.3034 62.499 73.6902 63.6201 73.25C64.6249 72.8514 64.301 71.4314 65.1397 70.5844C66.3604 70.3851 66.8089 71.7553 68.013 71.3484C68.86 71.0661 68.7603 69.7955 69.4828 69.0565C70.7284 68.9485 70.8696 70.0031 71.9906 69.754C72.8791 69.5547 72.7297 68.4669 73.5518 67.9022C74.6894 67.7195 74.8057 68.6496 75.7856 68.5997C76.5662 68.5665 76.8485 67.57 77.3218 67.0884C78.7834 66.8476 78.9993 68.6496 80.4026 67.0386C81.3742 65.9258 86.448 66.4241 87.9511 66.6649C88.6818 66.7812 90.9821 67.5534 91.2063 67.4704C90.708 66.3244 82.9686 64.8712 81.8974 64.7217C80.9839 64.5972 80.0705 64.6719 79.4892 64.182C78.8166 63.6173 78.3681 63.0111 77.3883 63.8913C76.5329 64.6553 76.3087 64.5141 75.5115 63.8083C74.706 63.1024 74.0085 63.1772 73.4189 63.991C72.0321 65.9092 70.8197 62.1226 69.4496 64.0906C69.0676 64.6304 68.8517 65.5438 67.9216 65.2449C67.1908 65.0124 66.6843 64.2401 65.721 64.4228C64.8574 64.5889 64.8657 65.3695 64.4588 66.1168C63.9689 67.022 63.1966 66.3992 62.4741 66.067C60.0078 64.9044 60.3898 67.3292 59.4016 68.4752Z" fill="#0350A1"/>
<path fill-rule="evenodd" clip-rule="evenodd" d="M57.1762 79.3949C55.9389 79.5942 55.6897 78.6144 54.66 78.8303C53.9625 78.9797 53.6552 80.1506 53.2483 80.6323C51.9944 80.8066 51.6539 79.7769 50.6325 80.2669C50.0263 80.5575 49.9101 81.7948 48.8721 81.3962C47.6597 80.9312 48.0915 80.4745 46.8376 81.554C46.2314 82.0689 44.6868 81.936 43.7069 81.936C40.8005 81.9277 38.0768 81.4793 35.4361 80.8066C34.232 80.4994 33.0196 80.0925 31.9234 79.6856C30.9435 79.3285 28.9755 78.3071 28.6267 78.5645C29.3492 79.3451 34.8797 81.471 36.3495 82.0107C41.7887 84.0203 47.4687 84.2611 47.9088 84.4521C48.7807 84.8175 48.706 85.4652 49.8187 84.668C51.6207 83.3809 51.5543 86.6527 53.813 84.4521C55.532 82.783 56.5035 85.8804 57.6578 84.0951C58.0564 83.4806 58.2308 82.783 59.2605 82.891C60.2321 82.9989 60.2985 83.6051 61.5441 83.4473C62.2666 82.6502 62.3413 81.4793 63.1219 81.3132C64.0769 81.1056 65.0567 82.2432 66.0117 81.7948C66.9086 81.3796 66.485 79.7188 67.357 79.3534C68.3202 78.9465 69.1673 80.3582 70.1887 79.8019C71.0025 79.3534 70.7201 77.7507 71.6668 77.5099C72.5802 77.2774 73.5435 78.5811 74.4155 77.5847C75.1877 76.7044 74.8057 75.5917 76.5579 76.1481C78.3765 76.721 77.9364 75.6498 78.8997 74.9357C80.4774 74.8775 79.9377 76.0069 81.4241 74.4955C82.4787 73.416 90.243 72.7351 93.1578 73.1337C93.7972 73.2167 94.8767 73.6236 95.2753 73.3828C94.1543 72.0126 85.2938 71.5808 83.1098 71.614C81.8227 71.6306 81.1085 71.9379 80.0456 71.3981C78.6173 70.6757 78.6505 71.9462 77.7454 72.0707C76.8153 72.1953 76.1842 70.8417 75.1379 71.5642C74.5317 71.9877 74.5068 73.2831 73.1615 72.8264C72.3643 72.5524 71.5671 71.6472 70.8447 72.7517C70.388 73.4492 70.2883 74.5288 68.968 74.0803C68.0877 73.7814 67.2324 73.0174 66.5847 74.0886C66.1197 74.8609 66.2442 76.0899 64.9571 75.8657C64.1599 75.7245 63.3046 74.7945 62.3745 75.4837C61.7019 75.9903 61.7102 77.4933 61.1538 77.7673C60.3982 78.141 59.5844 76.9535 58.5297 77.2525C57.7658 77.4435 57.6329 78.6559 57.1762 79.3949Z" fill="#0350A1"/>
<path fill-rule="evenodd" clip-rule="evenodd" d="M72.5802 80.5577C71.9989 81.0642 71.974 81.5791 71.6418 82.2268C70.4128 82.4178 70.1305 81.6871 68.9347 81.9279C67.988 82.642 68.4032 83.3811 67.3901 84.0703C66.1943 84.17 65.6213 83.215 64.6581 83.6551C63.9439 83.979 63.9688 85.1748 63.3875 85.6315C62.5737 86.2543 61.9509 85.1166 61.1039 85.1831C60.2237 85.2578 60.2984 86.3373 59.5428 86.9518C58.6376 86.9518 58.4134 86.3124 57.4418 86.3456C56.545 86.8937 56.5367 88.0812 55.5153 87.6411C55.017 87.4252 54.9091 87.1013 54.2448 87.2342C53.049 87.475 54.66 88.8784 46.6797 88.1393C44.803 87.9649 42.5609 87.5165 40.8503 87.0183L35.5439 85.2163C35.8263 85.7976 37.4954 86.3623 38.1514 86.6363C39.0732 87.0266 40.0365 87.4003 41.0745 87.7906C45.3428 89.4099 49.8187 90.232 54.5105 90.3648C55.9969 90.4063 56.246 91.7599 57.2674 90.8465C58.8452 89.4348 58.2888 90.9212 59.9746 90.9129C60.7801 90.4728 60.614 89.742 61.5108 89.742C62.308 89.742 62.4658 90.4229 63.6201 90.3648C64.492 89.8168 64.384 89.1109 65.0484 88.7953C65.8788 88.3968 66.5099 89.2936 67.3735 89.1524C68.2787 89.003 68.0794 87.8653 68.7022 87.4086C69.4412 86.8605 70.1969 87.6411 71.293 87.4667C71.8992 86.7941 71.7249 86.0301 72.3311 85.6896C73.1282 85.2329 73.3774 86.0799 74.1995 85.7644C74.8638 85.5069 74.5898 84.7097 75.2458 84.2613C75.9101 83.9873 76.1011 84.3942 76.7654 84.2696C77.4215 84.1451 77.3384 83.6883 77.7038 83.2316C78.3432 82.4427 84.9782 80.3916 86.1657 80.0761C94.8933 77.7094 98.8792 79.1626 99.228 79.1211C99.7096 79.0547 99.3526 79.254 99.6598 78.9135C95.3334 77.535 89.6783 77.5599 84.9782 78.1744C82.57 78.49 80.5936 79.1709 78.4346 79.611C77.0312 79.9017 76.2838 78.4651 75.4119 80.1093C74.515 81.7784 74.0085 80.2671 72.5802 80.5577Z" fill="#0350A1"/>
<path fill-rule="evenodd" clip-rule="evenodd" d="M42.0627 91.4523C42.4863 92.0253 44.5789 92.6398 45.4176 92.9554C49.1046 94.3588 53.6054 95.322 57.5748 95.5213C63.5205 95.8203 69.1756 94.3837 73.7594 92.2246C76.0431 91.1534 78.0111 89.9327 80.1619 88.8116C86.2239 85.6644 94.5778 82.6832 101.653 83.8209C102.591 83.9704 103.173 84.3191 103.538 84.0285C102.475 83.2147 97.3763 82.8576 95.7072 82.8493C92.8505 82.8327 90.2846 83.1233 87.5858 83.605C84.4136 84.178 80.328 85.5564 77.4299 86.91C76.3918 87.3916 76.5745 87.1259 75.5531 87.3003C74.8556 87.4166 74.922 87.8982 74.5317 88.33C73.8591 88.4213 72.8958 88.139 72.464 88.3964C72.1651 88.5708 71.8495 89.4345 71.5755 89.7334C70.4627 89.8912 70.0143 89.1023 69.1673 89.5756C68.503 89.9493 68.694 90.8295 67.9466 91.2115C67.1992 91.444 67.0331 90.7548 65.9951 90.9292C65.4221 91.4274 65.4221 91.8177 65.0485 92.2994C64.2014 92.399 63.9523 92.0918 63.3461 92.1665C62.7316 92.2412 62.6984 92.6149 62.3912 93.0052C61.677 93.0799 61.4113 92.9388 60.7968 92.9554C59.9581 92.9803 60.2072 93.1713 59.7006 93.4287C59.1609 93.7111 57.8073 93.7609 57.143 93.8024C55.233 93.9353 53.2733 93.9104 51.4048 93.6778C49.6693 93.4619 47.9919 93.163 46.3809 92.698C45.6169 92.4821 44.8612 92.2412 44.1305 92.0004C43.599 91.8343 42.4779 91.2032 42.0627 91.4523Z" fill="#054EA0"/>
<path fill-rule="evenodd" clip-rule="evenodd" d="M78.0608 30.6499L78.0276 33.4069C79.5306 32.9004 80.3527 32.2526 82.3955 32.5516C83.8571 32.7675 84.8868 33.8138 85.0778 35.267H79.5971L79.5389 37.6586L85.0196 37.6669C84.9698 39.1284 83.8072 40.0253 82.6114 40.3325C80.7347 40.8225 79.5472 40.2661 78.0359 39.8343V42.3836C82.3291 43.9863 88.4907 42.8403 88.3247 36.3632C88.1752 30.5752 83.5166 28.9227 78.0608 30.6499Z" fill="#0350A1"/>
<path fill-rule="evenodd" clip-rule="evenodd" d="M76.4663 32.8421H71.65V42.807H68.428V30.2014H76.4829L76.4663 32.8421Z" fill="#0350A1"/>
<path fill-rule="evenodd" clip-rule="evenodd" d="M62.8727 40.3573H58.1228L57.2425 42.807L53.9126 42.8153L59.1027 30.2014H61.926L67.058 42.807H63.7529L62.8727 40.3573ZM61.8928 37.9657L60.5227 34.0379L58.92 37.9657H61.8928Z" fill="#0350A1"/>
<path fill-rule="evenodd" clip-rule="evenodd" d="M49.3204 42.807L49.3038 35.0676L46.3227 39.5352H44.8694L41.8966 35.2171V42.807H38.5916V30.2014H41.581L45.65 35.9977L49.6111 30.2014H52.6504L52.6836 42.807H49.3204Z" fill="#0350A1"/>
</svg>
