<svg width="125" height="125" viewBox="0 0 125 125" fill="none" xmlns="http://www.w3.org/2000/svg">
<path fill-rule="evenodd" clip-rule="evenodd" d="M25.5143 70.0384C26.4806 70.057 26.4435 70.2242 28.9955 70.3171C31.2564 70.2924 34.304 69.0845 35.4499 67.1643C35.7473 66.6687 35.8526 66.3962 35.8526 65.6467C35.5243 65.7644 34.4589 67.2262 32.2042 68.0376C29.3114 69.0783 27.4655 68.5827 24.8701 67.2943C24.5295 67.1271 24.2817 66.966 23.9038 66.7988C23.4702 66.6068 23.2844 66.5015 22.8013 66.3466C20.9182 65.721 19.0042 66.3466 19.4564 68.496C19.7599 69.9269 20.6395 71.3764 21.7544 72.2374C23.0676 73.2532 24.0153 73.9222 25.886 74.2381C27.9735 74.5912 29.6645 74.1885 31.0582 73.4886C31.4608 73.2904 31.6343 73.1851 31.9873 72.9497C32.8236 72.3922 33.0094 72.1692 33.6288 71.4817C33.8456 71.2401 34.1677 70.8746 34.1987 70.4968C33.7775 70.7817 33.827 70.8684 32.8669 71.4507C31.0582 72.5409 29.4229 72.6895 27.1558 72.6895V72.5966C29.1008 72.5966 30.7547 72.3117 32.4333 71.4693C33.7094 70.8313 35.2579 69.7349 35.2951 67.9323C34.8925 68.0376 34.7438 68.3845 34.4465 68.6385C33.1333 69.7411 30.0981 70.7136 28.3203 70.503C27.8062 70.4472 25.9975 70.3791 25.5143 70.0384Z" fill="#009291"/>
<path fill-rule="evenodd" clip-rule="evenodd" d="M26.6417 62.1406C26.8337 62.1406 26.9947 61.9858 26.9947 61.7875C26.9947 61.5955 26.8399 61.4345 26.6417 61.4345C26.4496 61.4345 26.2886 61.5893 26.2886 61.7875C26.2948 61.9796 26.4496 62.1406 26.6417 62.1406ZM22.3119 58.8762C23.1481 58.8762 23.5631 58.5479 24.2073 58.3002C26.2019 57.5197 28.63 58.3621 28.63 60.5239C28.63 61.8061 27.7133 62.5494 27.7133 62.8096C27.7133 63.1131 27.9734 63.1565 27.9858 63.7264C27.5646 63.6272 26.9204 63.3609 26.524 63.3609C25.7187 63.3609 24.8763 63.6087 24.8763 64.6431C24.8763 66.3341 27.1434 66.2722 28.1716 68.211C26.5302 68.211 24.6285 66.6934 23.2162 66.1173C21.2588 65.3183 19.2953 65.2935 19.2953 68.0252C18.8617 67.5296 19.0103 65.9129 19.0227 65.374C19.0661 63.7759 19.7846 62.0229 20.7385 60.8708C21.2526 60.2514 22.1632 59.4213 22.2251 59.3346C21.9092 59.2603 21.5809 59.1178 21.4942 58.7833C21.903 58.7957 21.8535 58.8762 22.3119 58.8762Z" fill="#009291"/>
<path fill-rule="evenodd" clip-rule="evenodd" d="M16 57.0491C16 57.5136 16.4584 58.0525 16.9167 58.0525C17.4928 58.0525 19.1343 57.0057 19.667 56.6836L23.557 54.4413C24.0216 54.1687 24.449 53.9086 24.8826 53.6608C25.1613 53.4998 27.4718 52.1618 27.5647 52.1494C27.8063 52.1061 29.838 53.3821 30.1849 53.5679C30.9715 53.9953 37.8286 58.0525 38.1445 58.0525C39.0365 58.0525 40.0771 56.9438 38.1755 55.9155C37.6552 55.6306 37.1658 55.3209 36.6765 55.0359C35.673 54.4599 34.7315 53.9334 33.7156 53.3325C33.1457 52.998 28.1779 50 27.6266 50C27.1807 50 26.4188 50.5451 26.0719 50.7309L17.1893 55.8474C16.7619 56.1075 16 56.4173 16 57.0491Z" fill="#009291"/>
<path fill-rule="evenodd" clip-rule="evenodd" d="M42.1646 65.1882C42.1646 66.3403 42.1522 66.8359 43.6264 66.8359C44.1653 66.8359 43.7813 65.7333 43.9237 64.6679C44.0042 64.0671 44.0786 63.0574 44.0786 62.3574C44.314 62.5309 44.2582 62.5495 44.3697 62.8901C44.7971 64.2281 45.398 66.8421 46.5501 66.8421C47.0394 66.8421 46.9156 66.8978 47.3244 65.8758L48.1668 63.5158C48.2473 63.268 48.3031 63.0884 48.3712 62.8963L48.6623 62.3636C48.6623 62.8592 48.7986 66.0802 48.9597 66.3651C49.2756 66.9412 50.0251 66.8421 50.6755 66.8421C50.6755 65.8944 50.3348 61.7194 50.1614 61.0381C49.8888 59.9912 49.257 59.9788 48.5694 59.9788C47.7951 59.9788 46.4882 64.0856 46.4634 64.3706C46.197 64.1785 46.3023 64.1724 46.197 63.8131C46.1227 63.5529 46.0607 63.4043 45.9678 63.1255C45.6581 62.1964 45.0325 59.9788 43.7131 59.9788H42.7964C42.722 60.6478 42.1646 63.0078 42.1646 65.1882Z" fill="#009291"/>
<path fill-rule="evenodd" clip-rule="evenodd" d="M85.9582 64.5007C85.0538 64.5007 84.5335 64.2901 84.5335 62.9893C84.5335 61.1186 87.2776 60.5302 87.2776 62.8964C87.2776 63.7264 86.7449 64.5007 85.9582 64.5007ZM82.7 63.1751C82.7 64.7918 83.846 66.0121 85.4441 66.0121C87.067 66.0121 87.3643 65.3122 87.3643 65.1883C87.3643 66.6501 87.2528 67.2014 85.9272 67.4182C83.7345 67.7775 83.2451 65.9935 83.2451 67.2943C83.2451 69.8587 89.0987 69.6853 89.0987 66.105C89.0987 63.0017 89.7243 59.7931 86.1688 59.7931C84.199 59.7931 82.7 61.2239 82.7 63.1751Z" fill="#009291"/>
<path fill-rule="evenodd" clip-rule="evenodd" d="M105.024 62.3512C105.024 61.4654 104.974 61.2548 106.399 61.2548C106.858 61.2548 107.155 61.2858 107.223 61.3477V62.9954C106.684 62.9954 105.024 63.1565 105.024 62.3512ZM103.197 61.8061C103.197 62.7414 103.599 63.5467 104.386 63.7263L104.745 63.8192L104.386 63.906C103.859 64.0484 103.674 64.7484 103.444 65.2501C103.16 65.8634 102.683 66.3341 102.652 66.7429C103.451 66.8111 104.349 67.3438 105.061 65.8634C105.699 64.5502 105.408 64.4263 107.223 64.2776C107.223 64.8351 107.093 65.6589 107.285 66.1421C107.52 66.7367 108.964 67.1765 108.964 66.5695V60.5301C108.964 59.7992 103.197 58.9196 103.197 61.8061Z" fill="#009291"/>
<path fill-rule="evenodd" clip-rule="evenodd" d="M54.5223 65.4608C54.1134 65.4608 53.3763 65.436 53.1905 65.0458C52.4844 63.714 55.3461 63.6521 55.3461 63.9928C55.3461 64.7299 55.247 65.4608 54.5223 65.4608ZM51.5924 62.0787C52.2985 61.8929 51.7225 61.3478 54.3364 61.3478C55.0736 61.3478 55.2532 61.8867 55.2532 62.5371C53.8533 62.5371 51.3198 62.723 51.3198 64.6432C51.3198 65.1263 51.3136 65.3184 51.611 65.8201C52.602 67.5173 56.9938 67.3996 56.9938 64.7361C56.9938 63.2123 57.2354 61.4655 56.1947 60.4992C55.2594 59.6382 53.3454 59.5887 52.2861 60.301C51.6729 60.7036 51.5924 61.1248 51.5924 62.0787Z" fill="#009291"/>
<path fill-rule="evenodd" clip-rule="evenodd" d="M72.9998 63.4539C72.9998 66.6501 75.1182 67.282 77.8932 66.7864C78.2711 66.7183 79.1321 66.6625 79.1321 66.2909C79.1321 65.2812 79.2869 61.0753 78.9153 60.4683C78.5622 59.8922 77.8499 59.9789 77.2986 59.9789V65.2874C76.4871 65.4732 75.2049 65.5599 74.9014 64.5751C74.3563 62.7911 75.4899 59.9789 73.7307 59.9789H72.9998V63.4539V63.4539Z" fill="#009291"/>
<path fill-rule="evenodd" clip-rule="evenodd" d="M90.2013 64.0919C90.2013 66.7988 92.7905 67.1085 94.9213 66.7988C95.3983 66.7306 95.8257 66.5696 96.2407 66.5634V61.162C96.2407 59.9355 95.3053 59.9727 94.5001 59.9727V65.2812C93.6701 65.4732 92.425 65.5351 92.0657 64.606C91.4897 63.107 92.8524 59.9727 90.7464 59.9727H90.1951V64.0919H90.2013Z" fill="#009291"/>
<path fill-rule="evenodd" clip-rule="evenodd" d="M65.5914 63.6334C65.672 63.5467 65.895 63.3609 66.8737 63.3609C68.1063 63.3609 68.4036 65.5536 66.7807 65.5536C66.3348 65.5536 65.8826 65.374 65.7277 65.0519C65.5543 64.705 65.5914 64.1228 65.5914 63.6334ZM63.8509 64.4572C63.8509 65.2749 64.0738 65.8634 64.5074 66.2722C65.6658 67.3562 69.7044 67.3748 69.7044 64.5502C69.7044 63.0388 68.5275 61.9857 66.9604 61.9857C66.3162 61.9857 66.1056 62.2149 65.5853 62.2583C65.5853 60.5239 65.8764 59.9726 63.8447 59.9726V64.4572H63.8509Z" fill="#009291"/>
<path fill-rule="evenodd" clip-rule="evenodd" d="M96.7916 60.7035V61.4345H98.9905V65.8262C98.9905 66.8111 100.068 66.8297 100.731 66.8297V61.4345C102.385 61.4345 102.837 61.4778 102.837 59.9726H97.7145C97.3243 59.9726 96.7916 60.3814 96.7916 60.7035Z" fill="#009291"/>
<path fill-rule="evenodd" clip-rule="evenodd" d="M57.2662 61.0691V61.4345H59.4652V65.5537C59.4652 66.8049 60.4005 66.8359 61.2058 66.8359V61.4407C62.6181 61.4407 63.3986 61.5212 63.3986 59.9789H58.3688C57.6565 59.9727 57.2662 60.3629 57.2662 61.0691Z" fill="#009291"/>
<path fill-rule="evenodd" clip-rule="evenodd" d="M30.7922 64.098C30.9161 64.098 31.0214 63.9989 31.0214 63.8688C31.0214 63.7449 30.9223 63.6396 30.7922 63.6396C30.6683 63.6396 30.563 63.7387 30.563 63.8688C30.563 63.9927 30.6621 64.098 30.7922 64.098ZM31.1886 66.7429C31.1886 65.6342 31.9319 65.7395 32.6938 66.0616C32.7062 66.074 32.7496 66.0926 32.892 66.2226C33.2079 66.5138 33.5239 66.6748 33.5672 67.2013C31.8948 68.0871 30.8913 68.2977 28.9029 68.2977C28.8286 67.9756 28.7171 67.988 28.7171 67.6597C28.7171 66.1483 29.7206 65.7828 29.7206 65.0086C29.7206 63.9617 29.4418 64.5873 29.2622 63.9122C29.9622 63.7511 29.7392 63.6768 30.148 63.2432C30.7364 62.63 31.839 62.6361 32.316 63.5095C32.5575 63.9555 32.539 64.3644 32.5514 65.0148C32.5575 65.374 32.6071 65.4793 32.669 65.8014C32.6876 65.9067 32.6938 65.9625 32.6938 66.0058C32.4646 65.8448 32.0248 65.6032 31.6965 65.6899C31.1019 65.851 31.0895 66.1297 31.0895 66.7491H31.1886V66.7429Z" fill="#009291"/>
<path fill-rule="evenodd" clip-rule="evenodd" d="M20.0263 53.8466C20.3237 53.7785 21.2528 53.1962 21.6245 52.9732C21.8474 52.8431 22.0395 52.7812 22.0395 52.4715C22.0395 50.2601 20.1812 50.7309 20.0325 51.8396C19.9706 52.329 20.0263 53.3015 20.0263 53.8466Z" fill="#009291"/>
</svg>
