<svg width="333" height="333" viewBox="0 0 125 125" fill="none" xmlns="http://www.w3.org/2000/svg">
<path fill-rule="evenodd" clip-rule="evenodd" d="M104.309 70.2061C105.141 70.2061 105.933 70.0455 106.656 69.7529V68.026V66.0524C106.197 66.5171 105.548 66.8097 104.831 66.8097C103.449 66.8097 102.324 65.7369 102.324 64.4174C102.324 63.0978 103.443 62.025 104.831 62.025C105.548 62.025 106.202 62.3176 106.656 62.7823V60.9063V59.1737C105.933 58.8811 105.141 58.7204 104.309 58.7204C100.987 58.7204 98.2966 61.2964 98.2966 64.469C98.2966 67.6302 100.993 70.2061 104.309 70.2061ZM32.4117 51.1991L35.4409 54.2225C35.2057 54.4061 34.9762 54.6012 34.7639 54.8249C33.8861 55.7257 33.3354 56.8214 33.1059 57.9631C34.2476 57.705 35.3262 57.1312 36.2039 56.2305C37.0817 55.3298 37.6325 54.234 37.8619 53.0923C37.9078 53.0751 37.9537 53.0751 38.0054 53.0809C38.1488 53.1095 38.2406 53.253 38.2119 53.3964C37.9824 54.4979 37.489 55.3642 37.1219 55.8978L44.1957 62.9716L32.2109 74.9564C31.075 73.4246 29.9218 70.9462 30.3177 67.4351C31.0176 61.1759 32.8305 61.9103 32.4117 51.1991ZM35.7392 63.792C34.5976 64.0502 33.519 64.6239 32.6412 65.5246C31.7634 66.4254 31.2126 67.5211 30.9832 68.6628C32.1248 68.4047 33.2034 67.831 34.0812 66.9302C34.959 66.0352 35.5098 64.9395 35.7392 63.792ZM47.6494 58.5885H51.4818L54.8036 64.3428L58.1254 58.5885H61.9578V69.8504H58.1254V65.4787L55.6011 69.8504H54.0062L51.4818 65.4787V69.8504H47.6494V58.5885ZM66.5876 69.8504H66.8515H70.9765V66.7983H66.8515V65.7484H70.3627V62.6962H66.8515V61.6463H70.9765V58.5942H66.8515H66.5876H63.0192V69.8561H66.5876V69.8504ZM72.2961 66.7925H72.3821C72.6346 66.7696 73.3345 66.5286 73.3345 64.5665V58.5885H76.2203H77.1726H79.7658H80.001H83.5982V66.7925H84.1088V69.8447V71.6346H80.2764V69.8447H76.1342V71.6346H72.3018V69.8447V66.7925H72.2961ZM77.1726 66.7925H79.7658V61.6406H77.1726V66.7925ZM92.7947 69.8504H96.6271V58.5885H92.7947L89.4041 63.5166V58.5885H85.5717V69.8504H89.4041L92.7947 65.0312V69.8504Z" fill="#009291"/>
<path fill-rule="evenodd" clip-rule="evenodd" d="M18 63.1953L31.1953 50L31.8494 50.654C31.8953 53.0923 31.7977 57.2861 30.7937 60.5849C29.4513 65.0083 28.0744 66.3278 28.6136 73.809L18 63.1953ZM28.8431 62.3348C29.2849 61.2849 29.4398 60.0973 29.2218 58.8868C29.0038 57.682 28.4473 56.6206 27.6613 55.7887C27.2195 56.8386 27.0646 58.0262 27.2826 59.2367C27.5006 60.4415 28.0572 61.5029 28.8431 62.3348ZM28.6481 62.7019C27.9596 61.7897 27.0073 61.0669 25.8541 60.6481C24.7009 60.235 23.5019 60.1891 22.3946 60.4473C23.0831 61.3595 24.0355 62.0823 25.1886 62.5012C26.3418 62.9142 27.5408 62.9601 28.6481 62.7019Z" fill="#009291"/>
</svg>
