<svg width="125" height="125" viewBox="0 0 125 125" fill="none" xmlns="http://www.w3.org/2000/svg">
<path fill-rule="evenodd" clip-rule="evenodd" d="M60.1062 44H61.8891C62.3266 44.082 62.7696 44.1258 63.2071 44.1859C65.4493 44.5031 67.6752 45.225 69.5182 46.5649C71.1698 47.7517 72.4386 49.4798 73.0183 51.4377C73.7128 53.7182 73.4886 56.2011 72.7175 58.4324C72.362 59.466 71.8698 60.445 71.3229 61.3911C71.0878 61.763 70.869 62.1513 70.5573 62.463C71.1807 61.3747 71.755 60.2481 72.1214 59.0395C72.5316 57.7105 72.712 56.3105 72.6245 54.9214C72.5698 53.1713 72.3128 51.3666 71.4323 49.8244C70.3823 48.047 68.5776 46.7454 66.5759 46.2532C65.0173 45.8485 63.3876 45.9633 61.8016 46.1001C61.2383 46.1438 60.6695 46.2422 60.1062 46.1329C59.6742 46.0508 59.2531 45.8102 59.0234 45.4274C58.8265 45.1047 58.914 44.6453 59.2093 44.4156C59.4718 44.2078 59.7945 44.1039 60.1062 44ZM63.6173 49.7752C62.8516 50.3056 62.3047 51.1533 62.1407 52.0721C62.0641 52.6409 62.0696 53.2424 62.3157 53.7729C62.6657 54.637 63.5133 55.2714 64.4321 55.4136C65.3345 55.5448 66.3681 55.255 66.9095 54.4784C67.2486 54.03 67.3142 53.4338 67.2103 52.8924C67.1174 52.4604 66.9095 52.0393 66.5431 51.7768C65.947 51.3557 65.0556 51.3885 64.5087 51.8916C64.2462 52.1213 64.104 52.4713 64.0985 52.8159C64.0821 53.3081 64.2024 53.844 64.5688 54.194C64.9024 54.4237 65.3782 54.4018 65.7009 54.1667C66.029 53.9096 66.1111 53.4284 65.9634 53.051C65.8267 52.7284 65.4329 52.6409 65.1157 52.6901C64.8478 52.7174 64.7056 53.0456 64.4212 53.0182C64.3993 52.5916 64.6126 52.1377 64.9954 51.9299C65.4493 51.7658 65.9798 51.8588 66.379 52.1322C66.6087 52.2854 66.822 52.4932 66.8931 52.7666C66.9642 53.2424 66.8931 53.7674 66.5705 54.1393C66.0236 54.7354 65.1157 54.998 64.3446 54.7464C63.9618 54.6261 63.6282 54.3636 63.3985 54.03C63.054 53.4995 62.879 52.8268 63.0485 52.2033C63.2126 51.6236 63.6227 51.115 64.1532 50.8252C64.8478 50.4588 65.6626 50.3603 66.4283 50.4861C67.1392 50.6119 67.7736 51.0057 68.2768 51.5143C69.0096 52.2471 69.5018 53.1987 69.7424 54.1995C69.7698 54.2925 69.7752 54.4128 69.6604 54.4456C69.8409 54.5167 70.0104 54.6151 70.1635 54.7354C70.1198 54.1995 69.9721 53.6854 69.819 53.1713C69.4526 52.094 68.9166 51.033 68.0744 50.2455C67.44 49.633 66.5923 49.2119 65.7009 49.1955C64.9681 49.179 64.2134 49.3486 63.6173 49.7752ZM74.3472 50.4095C74.2488 50.9072 74.4347 51.4104 74.6426 51.8533C75.0254 52.6354 75.3809 53.4393 75.5941 54.287C75.8895 55.3644 75.9168 56.5238 75.5941 57.5957C75.2879 58.7715 74.7301 59.8707 74.1121 60.9098C72.548 63.4255 70.437 65.5857 67.976 67.2319C67.8338 67.3358 67.6861 67.4397 67.5056 67.4452C67.1775 67.8663 66.822 68.2655 66.4392 68.6374C66.6252 68.5882 66.7947 68.4897 66.9642 68.3913C69.2557 67.0405 71.394 65.4053 73.1605 63.4091C74.5168 61.8669 75.6434 60.084 76.234 58.1098C76.7536 56.48 77.0215 54.7519 76.8411 53.0456C76.7262 52.1432 76.4856 51.1971 75.8457 50.5189C75.5777 50.2455 75.2332 49.9775 74.8285 49.9939C74.5933 49.983 74.3801 50.1744 74.3472 50.4095ZM78.8153 59.3567C79.1052 59.3184 79.4278 59.3512 79.6575 59.5535C79.92 59.7395 79.9474 60.1278 79.7943 60.3958C79.4771 60.9481 78.6786 61.1559 78.1317 60.8223C77.8364 60.6473 77.7489 60.2208 77.9294 59.9364C78.1262 59.6356 78.4434 59.395 78.8153 59.3567ZM77.0926 61.3364C77.3387 61.2817 77.6231 61.2927 77.8419 61.4403C78.0497 61.588 78.1262 61.8888 78.0005 62.113C77.7325 62.638 76.8903 62.8075 76.491 62.3372C76.2395 61.9052 76.6551 61.4075 77.0926 61.3364ZM75.5613 63.1302C75.8238 63.0099 76.2723 63.1247 76.2449 63.4802C76.1574 63.9123 75.5121 64.0709 75.2387 63.7154C75.1348 63.4583 75.3207 63.2177 75.5613 63.1302ZM40.8393 72.8813C41.0252 72.8813 41.2166 72.8867 41.3916 72.9578C42.1628 73.2641 42.9558 73.5321 43.7651 73.7125C46.3957 74.3141 49.1356 74.2704 51.788 73.8547C51.9193 73.8383 52.0396 73.7836 52.149 73.7071C52.1107 73.975 52.1326 74.2539 52.2091 74.5165C51.5474 74.4016 50.8693 74.5383 50.213 74.6258C49.1848 74.7626 48.1403 74.8118 47.1012 74.7461C46.6527 74.7188 46.2043 74.6422 45.7558 74.6586C46.1496 74.9212 46.5926 75.1016 47.0027 75.3368C47.7356 75.7579 48.4465 76.2173 49.0809 76.7751C49.852 77.4259 50.5138 78.2244 50.9185 79.1541C51.1536 79.6682 51.3232 80.2752 51.0935 80.8166C50.9841 81.1174 50.7161 81.3252 50.4263 81.4346H50.377C50.0981 81.369 49.8247 81.2158 49.7263 80.926C49.4692 80.3682 49.2942 79.783 49.0809 79.2033C48.8567 78.5798 48.6544 77.9345 48.2879 77.3767C47.6317 76.4688 46.8059 75.6595 45.8105 75.129C45.1761 74.7735 44.4816 74.5438 43.787 74.3414C43.0378 74.0571 42.2448 73.9039 41.4846 73.6414C41.151 73.532 40.7955 73.275 40.8393 72.8813ZM58.7718 75.1508C58.9468 75.0579 59.1164 74.9594 59.2804 74.8555C59.4445 74.9977 59.625 75.129 59.8 75.2602C60.5164 75.7798 60.9813 76.6493 60.9703 77.5408C60.9648 78.1423 60.8555 78.7658 60.5492 79.2908C60.1008 80.0729 59.2859 80.6252 58.3999 80.7783C57.7819 80.8658 57.1093 80.8166 56.5678 80.4721C56.0592 80.1658 55.7147 79.6408 55.5288 79.0884C55.3647 78.4595 55.4413 77.765 55.7585 77.1907C55.9991 76.715 56.4366 76.3431 56.9561 76.2118C57.5632 76.0587 58.2468 76.2501 58.6734 76.704C59.1437 77.2728 59.0507 78.1861 58.5366 78.7002C58.1921 79.0447 57.6507 79.0775 57.2077 78.9408C56.9288 78.8533 56.6389 78.7056 56.4967 78.4377C56.2671 77.94 56.6335 77.2564 57.2022 77.24C57.5468 77.1907 57.9077 77.4423 57.9077 77.8033C57.9679 78.1642 57.6616 78.4103 57.5085 78.7002C57.8804 78.7548 58.3179 78.6291 58.5257 78.2955C58.8046 77.7595 58.6351 77.0704 58.214 76.6603C57.9898 76.447 57.6507 76.4634 57.3663 76.4907C56.8741 76.529 56.4913 76.9009 56.2671 77.3111C55.9499 77.8689 55.8624 78.6072 56.2178 79.165C56.6608 79.8432 57.5851 80.2041 58.3616 79.9197C58.8484 79.7611 59.2476 79.3838 59.5046 78.9463C59.9203 78.2353 60.0351 77.3548 59.8437 76.5564C59.6906 75.9657 59.2749 75.479 58.7718 75.1508Z" fill="#F5C4B3"/>
<path fill-rule="evenodd" clip-rule="evenodd" d="M52.7941 53.8386C53.341 53.3846 54.0629 53.155 54.7739 53.2261C55.7419 53.3081 56.6278 53.7839 57.4099 54.3308C58.3232 54.9761 59.1217 55.7691 59.8764 56.5894C61.3037 58.1863 62.6163 59.909 63.5897 61.8232C63.7265 62.0802 63.8194 62.3591 63.989 62.5997C64.1585 61.5661 64.3773 60.5216 64.864 59.5864C65.1867 58.9465 65.6734 58.3723 66.3133 58.0387C66.718 57.8035 67.2539 57.902 67.6149 58.1754C68.036 58.5035 68.1891 59.0559 68.2657 59.559C68.3969 60.8497 68.1016 62.1404 67.6695 63.349C67.2867 64.317 66.8601 65.2631 66.4445 66.2147C66.0398 67.1116 65.6406 68.0304 64.9898 68.7796C64.8093 69.0038 64.5523 69.146 64.3718 69.3702C64.1913 69.7257 64.0491 70.1031 63.8413 70.4476C62.7694 72.3125 61.0795 73.7235 59.2803 74.8555C59.1162 74.9595 58.9466 75.0579 58.7716 75.1509C57.8802 75.6212 56.9177 75.9821 55.9114 76.1243C55.0419 76.2392 54.1121 76.2064 53.3137 75.8017C52.7941 75.5446 52.3566 75.0907 52.2035 74.5219C52.1269 74.2594 52.1105 73.9805 52.1433 73.7125C52.2035 73.0836 52.4988 72.4984 52.8543 71.9844C53.4012 71.1914 54.1395 70.5515 54.8723 69.9335C54.6426 69.7203 54.402 69.5288 54.1832 69.3101C53.4504 68.5882 52.8543 67.7296 52.3949 66.8108C51.6839 65.4162 51.2355 63.8959 50.9949 62.3482C50.705 60.4067 50.6996 58.3942 51.23 56.491C51.5199 55.5011 51.9793 54.5112 52.7941 53.8386ZM54.4621 54.4894C53.8496 54.7464 53.3465 55.2386 53.0402 55.8238C52.6684 56.5074 52.4496 57.2566 52.291 58.0168C52.0011 59.5426 51.9301 61.1122 52.0504 62.6599C52.1598 64.0818 52.4058 65.5092 52.9582 66.8272C53.1605 67.3194 53.4504 67.7679 53.7676 68.189C54.1012 68.6374 54.4403 69.0913 54.8778 69.4468C55.009 69.5562 55.195 69.671 55.37 69.5835C55.6106 69.4796 55.8513 69.3593 56.1138 69.321C56.9068 69.1843 57.7216 69.2226 58.5091 69.3429C58.9904 69.4304 59.4881 69.5179 59.9201 69.764C60.035 69.8187 60.1607 69.9773 60.0185 70.0757C59.2201 70.5843 58.2685 70.8687 57.3224 70.8195C56.6005 70.8086 55.9169 70.5351 55.288 70.207C55.1294 70.2671 55.0145 70.4039 54.8887 70.5078C54.1504 71.1914 53.5488 72.0445 53.2262 73.0016C53.0402 73.5539 52.9691 74.2157 53.3027 74.7298C53.6692 75.2602 54.3528 75.4298 54.9653 75.4571C56.1739 75.4954 57.3771 75.2056 58.4873 74.7462C59.5974 74.2704 60.642 73.6305 61.5389 72.8211C61.2436 72.9688 60.9592 73.1383 60.6475 73.2586C60.0295 73.5102 59.3677 73.6086 58.7169 73.7399C58.1755 73.8274 57.6232 73.9204 57.0708 73.8547C56.8685 73.8219 56.6333 73.7454 56.5458 73.543C56.4528 73.2586 56.595 72.9742 56.7372 72.7336C57.0763 72.1813 57.5083 71.6617 58.0662 71.3117C59.0013 70.7265 60.0842 70.4476 61.1561 70.2289C60.7076 69.7968 60.2045 69.414 59.7506 68.9874C58.181 67.5436 56.7044 65.9577 55.5942 64.1256C54.9161 62.9607 54.3528 61.6591 54.4075 60.2864C54.4075 59.5153 54.659 58.7496 55.0856 58.1098C55.4028 57.6395 55.9169 57.2676 56.4966 57.2457C57.4372 57.1855 58.2849 57.6832 59.0287 58.2028C60.1334 58.9957 61.074 59.9965 61.9327 61.0466C62.6655 61.9599 63.3382 62.9279 63.8413 63.9943C63.8632 63.6443 63.628 63.3599 63.5022 63.0482C62.392 60.8442 61.1069 58.7168 59.499 56.8355C58.7006 55.9386 57.8146 55.0691 56.7044 54.5714C56.0098 54.2597 55.1731 54.1722 54.4621 54.4894ZM55.72 69.8953C55.9333 70.0867 56.2122 70.1687 56.4747 70.2726C57.2513 70.5679 58.1646 70.4312 58.8591 69.9937C58.5365 69.8953 58.2193 69.7804 57.8966 69.7093C57.1747 69.5343 56.4036 69.5999 55.72 69.8953ZM68.1125 54.5277C67.0953 54.9323 66.2476 55.6706 65.5039 56.4527C64.596 57.4262 63.8358 58.5309 63.1686 59.6794C63.0866 59.7997 63.0483 60.0239 63.2233 60.0786C63.3765 60.1333 63.4858 59.9965 63.5515 59.8762C63.9507 59.1653 64.421 58.4926 64.9077 57.8418C65.5421 57.0379 66.2203 56.2449 67.0844 55.6761C67.5438 55.3863 68.1016 55.1292 68.6594 55.2824C69.2118 55.441 69.5563 55.955 69.786 56.4527C70.3493 57.6941 70.3329 59.1106 70.1251 60.4341C69.7805 62.4576 68.9821 64.3935 67.8883 66.1272C67.2539 67.1061 66.5156 68.0304 65.5968 68.7577C65.4054 68.9163 65.1757 69.0202 65.0062 69.2007C64.8695 69.3429 65.0663 69.5999 65.2414 69.5124C65.6734 69.2773 66.0562 68.9546 66.439 68.6429C66.8219 68.271 67.1773 67.8718 67.5055 67.4507C68.4024 66.2639 69.0532 64.9131 69.5618 63.524C69.9993 62.2935 70.3712 61.0411 70.6501 59.7669C70.8634 58.684 71.022 57.5684 70.8962 56.4636C70.8196 55.8402 70.6228 55.1894 70.1634 54.7355C70.0102 54.6151 69.8407 54.5167 69.6602 54.4456C69.1625 54.2378 68.5993 54.3526 68.1125 54.5277ZM35.0038 62.4521C35.6546 62.3208 36.3929 62.3154 36.9726 62.6927C37.6562 63.1138 38.0336 63.8795 38.2195 64.6342C38.4602 65.6623 38.5203 66.7889 38.1047 67.7788C37.8039 68.528 37.1531 69.1515 36.3546 69.3374C35.4632 69.5726 34.4186 69.2116 33.9374 68.4077C33.3303 67.4397 33.6585 66.0561 34.5663 65.3944C35.0585 65.0225 35.6929 64.8529 36.3054 64.8967C36.6007 64.9076 36.8632 65.0662 37.1367 65.1592C37.2023 64.6123 37.175 64.0435 36.9562 63.5349C36.7375 63.0373 36.2179 62.6544 35.6601 62.6872C35.2827 62.6872 34.9874 62.9607 34.6374 63.0482C34.528 63.0865 34.4186 63.0537 34.3257 62.988C34.4077 62.6708 34.714 62.5068 35.0038 62.4521ZM36.2015 65.2358C36.021 65.2904 35.8843 65.4217 35.764 65.5639C35.4523 65.9631 35.2772 66.4499 35.1515 66.9366C35.0366 67.4561 34.9382 67.9975 35.053 68.5226C35.1405 68.9109 35.6218 69.1241 35.9773 68.971C36.2562 68.8288 36.4312 68.5499 36.5624 68.2819C36.8359 67.7241 36.9671 67.1006 37.0218 66.4881C37.0437 66.1381 37.0382 65.7498 36.8304 65.449C36.6992 65.2467 36.4312 65.1865 36.2015 65.2358ZM79.8707 62.7802C80.341 62.4138 80.9644 62.3482 81.5387 62.381C82.1621 62.4138 82.7528 62.7474 83.1246 63.2451C83.6059 63.8795 83.8083 64.6725 83.9122 65.449C84.0106 66.335 83.945 67.2811 83.5075 68.0741C83.2122 68.6155 82.7254 69.0585 82.1402 69.2663C81.4676 69.5124 80.6801 69.4359 80.0894 69.0312C79.6355 68.7358 79.3128 68.2546 79.2144 67.7241C79.1159 67.1116 79.2308 66.4608 79.5863 65.9467C80.1003 65.1865 81.0683 64.7873 81.9707 64.9131C82.2223 64.9459 82.441 65.0826 82.6762 65.1592C82.7528 64.574 82.7199 63.9506 82.441 63.4201C82.1949 62.9607 81.6863 62.638 81.1559 62.6872C80.7566 62.7091 80.4558 63.0044 80.1058 63.1521C80.0183 63.1958 79.9253 63.1685 79.8378 63.1521C79.8214 63.0263 79.7339 62.8568 79.8707 62.7802ZM81.7574 65.2358C81.5168 65.3069 81.3418 65.5037 81.2051 65.7061C80.8168 66.3022 80.6418 67.0077 80.5652 67.7022C80.5488 67.9866 80.5269 68.2874 80.6144 68.5663C80.7293 68.9655 81.2707 69.1515 81.6098 68.9218C81.8613 68.7577 82.0145 68.4898 82.1402 68.2272C82.4028 67.6858 82.5231 67.0842 82.5778 66.4881C82.5996 66.1545 82.5942 65.7881 82.4137 65.4928C82.277 65.2686 81.9981 65.1756 81.7574 65.2358ZM11.061 63.2232C10.9516 63.1083 11.0664 62.9224 11.2141 62.9388C11.7829 62.9115 12.3462 62.9333 12.9149 62.9279C13.4071 64.1748 13.8337 65.449 14.3368 66.6905C14.4298 66.5647 14.5228 66.4389 14.6048 66.3077C15.2447 65.2904 15.8955 64.2787 16.5353 63.2615C16.6119 63.1466 16.6885 63.0373 16.7705 62.9224C17.383 62.9224 18.001 62.9169 18.6135 62.9224C18.7338 62.9115 18.8377 62.9771 18.9417 63.0373C18.876 63.1193 18.8377 63.2505 18.7174 63.256C18.537 63.3216 18.2198 63.2451 18.1815 63.4966C18.0612 63.9724 18.0338 64.4592 17.9518 64.9404C17.7822 66.1381 17.6072 67.3303 17.4432 68.528C17.4377 68.6429 17.394 68.7796 17.4924 68.8671C17.6619 68.9109 17.8315 68.9273 18.0065 68.9546C18.0119 69.0202 18.0229 69.0859 18.0283 69.146C17.9135 69.2116 17.7932 69.2718 17.6619 69.2663C17.0002 69.2773 16.3385 69.2609 15.6767 69.2718C15.5072 69.2773 15.3322 69.2609 15.1736 69.2062C15.2009 69.1187 15.1955 69.0093 15.272 68.9491C15.458 68.8999 15.6494 68.8944 15.8408 68.8616C15.9064 68.6647 15.9611 68.4679 15.9775 68.2601C16.147 66.8983 16.3603 65.5365 16.5025 64.1748C15.8244 65.2576 15.1244 66.3295 14.4407 67.4069C14.2548 67.6749 14.1071 67.9647 13.9103 68.2272C13.8009 68.2601 13.6915 68.2546 13.5821 68.2601C13.4727 68.0632 13.3907 67.8499 13.3142 67.6366C12.9095 66.5811 12.4774 65.5311 12.0672 64.4756C12.0235 64.3717 11.9743 64.2678 11.925 64.1693C11.8102 64.656 11.7501 65.1537 11.6625 65.6459C11.5422 66.4936 11.3891 67.3467 11.4821 68.2054C11.5094 68.4241 11.4985 68.6702 11.6352 68.8507C11.8102 68.9109 12.0126 68.8835 12.1766 68.9765C12.2313 69.1077 12.0891 69.2335 11.9633 69.2445C11.586 69.2827 11.2086 69.2499 10.8313 69.2609C10.5524 69.2554 10.257 69.3046 10 69.1624V69.0968C10.1203 68.9218 10.3391 68.8944 10.536 68.8507C10.618 68.6702 10.6891 68.4897 10.7438 68.2983C11.1157 67.0405 11.2141 65.7225 11.4274 64.4318C11.4602 64.0873 11.5915 63.7318 11.4875 63.3927C11.3508 63.3107 11.1922 63.2888 11.061 63.2232ZM19.8221 65.274C19.1002 65.717 18.6081 66.5319 18.5698 67.3796C18.5424 67.9046 18.7174 68.4405 19.0893 68.8234C19.5487 69.3046 20.2651 69.5015 20.9105 69.3484C21.4628 69.228 21.9331 68.8616 22.2886 68.4351C22.3707 68.3421 22.4308 68.1616 22.305 68.0796C22.1902 67.9975 22.0699 68.1288 21.9878 68.1999C21.7035 68.4788 21.3917 68.7796 20.9761 68.8452C20.6698 68.9218 20.3198 68.796 20.1557 68.5226C19.9534 68.2382 19.9534 67.8772 19.9917 67.5491C20.544 67.4069 21.1073 67.2975 21.6378 67.0788C21.955 66.9366 22.2886 66.7561 22.48 66.4499C22.7207 66.0561 22.5785 65.5147 22.2449 65.2248C21.9878 64.9951 21.6433 64.9076 21.3042 64.8803C20.7792 64.8693 20.2542 64.9897 19.8221 65.274ZM20.823 65.3178C20.998 65.1756 21.3151 65.1756 21.43 65.3889C21.605 65.7225 21.523 66.1436 21.3206 66.4499C21.0308 66.871 20.544 67.1225 20.0464 67.2046C20.0409 66.8819 20.1557 66.5756 20.2542 66.2748C20.3854 65.9303 20.5167 65.5529 20.823 65.3178ZM30.5795 64.9076C31.2357 64.8201 31.9412 64.9951 32.4444 65.4381C33.0295 65.9467 33.2538 66.7944 33.0678 67.5382C32.9202 68.1944 32.4717 68.7741 31.8756 69.0859C31.2631 69.4195 30.5193 69.4906 29.8466 69.2991C29.3435 69.1515 28.8951 68.8124 28.6325 68.353C28.2935 67.7788 28.2771 67.046 28.5232 66.4334C28.8513 65.5912 29.6826 64.9951 30.5795 64.9076ZM30.9021 65.2412C30.667 65.3178 30.4865 65.5147 30.3607 65.717C30.0763 66.16 29.9341 66.6741 29.8302 67.1827C29.7427 67.5983 29.7209 68.0304 29.7591 68.4569C29.7974 68.8069 30.131 69.1132 30.492 69.064C30.8365 69.0148 31.0607 68.7194 31.2248 68.4405C31.5201 67.8936 31.6568 67.2757 31.7279 66.6631C31.7443 66.3241 31.7772 65.9686 31.6623 65.6404C31.5639 65.3397 31.2084 65.1537 30.9021 65.2412ZM38.9359 65.4108C39.1875 65.1482 39.5102 64.9186 39.8821 64.8857C40.1555 64.8584 40.429 64.9951 40.5711 65.2248C40.8063 65.5912 40.8118 66.0616 40.7024 66.4717C40.5165 67.0952 40.2922 67.7077 40.1774 68.3476C40.1446 68.5171 40.2047 68.7632 40.4071 68.7851C40.6258 68.8069 40.768 68.6101 40.8993 68.4624C41.3368 67.8772 41.6649 67.221 41.922 66.5428C42.0915 66.0561 42.1298 65.5365 42.2173 65.0279C42.6056 64.9842 42.9993 65.0006 43.3931 65.017C43.2454 66.1764 43.0103 67.3194 42.8517 68.4788C42.8189 68.621 42.9775 68.6648 43.0814 68.6374C43.24 68.5171 43.3493 68.3421 43.5243 68.2436C43.6556 68.2546 43.7048 68.4132 43.6392 68.5171C43.5025 68.7905 43.2947 69.0257 43.0486 69.2116C42.7149 69.4523 42.2173 69.4906 41.8946 69.2171C41.7087 69.0749 41.6431 68.8288 41.6595 68.6046C41.6813 68.3038 41.747 68.0085 41.7907 67.7132C41.4845 68.2108 41.2329 68.7741 40.7516 69.1405C40.4563 69.3866 40.0297 69.4906 39.6688 69.3374C39.2969 69.1734 39.0781 68.7577 39.0836 68.3585C39.0344 67.5819 39.357 66.86 39.5977 66.1436C39.6305 65.9795 39.6852 65.7553 39.5539 65.624C39.3461 65.5967 39.182 65.7608 39.0016 65.8319C38.9578 65.8155 38.8703 65.7881 38.8266 65.7717C38.8211 65.635 38.8375 65.5037 38.9359 65.4108ZM75.7362 65.0334C76.3159 64.8584 76.9503 64.8256 77.5409 64.9951C77.9237 65.11 78.3011 65.3397 78.487 65.7061C78.6347 65.985 78.6128 66.3623 78.3831 66.5975C78.148 66.86 77.787 66.953 77.4479 66.9749C77.7487 67.0788 78.0604 67.21 78.2683 67.4616C78.6401 67.8718 78.5745 68.5772 78.1698 68.9382C77.869 69.2171 77.4643 69.3484 77.0651 69.3866C76.4417 69.4359 75.7799 69.414 75.2221 69.1023C74.9322 68.9491 74.6697 68.6812 74.626 68.3476C74.5822 68.1124 74.7189 67.8608 74.9377 67.7624C75.2276 67.6639 75.5885 67.7186 75.7799 67.9757C75.9932 68.2436 75.8127 68.6265 76.0041 68.8999C76.1299 69.0749 76.3815 69.0476 76.5565 68.9819C77.0432 68.7577 77.262 68.1507 77.1362 67.6475C77.0925 67.4452 76.9393 67.2757 76.7534 67.1881C76.4362 67.0186 76.0698 67.0897 75.7252 67.0897C75.7362 66.9202 75.7526 66.7506 75.7799 66.5811C76.1354 66.6795 76.5237 66.778 76.8846 66.6413C77.3714 66.4444 77.4643 65.6787 77.0378 65.3725C76.819 65.1975 76.5182 65.2139 76.2612 65.2576C75.9221 65.3287 75.7198 65.7225 75.3533 65.7115C75.2057 65.7225 75.1401 65.5365 75.2002 65.4217C75.2877 65.1865 75.5284 65.099 75.7362 65.0334ZM86.488 64.9295C87.4123 64.7326 88.5006 65.099 88.96 65.9631C89.5178 66.9585 89.1459 68.3093 88.2107 68.9327C87.3084 69.5562 85.9685 69.5835 85.1263 68.8398C84.5137 68.3147 84.3059 67.4233 84.5356 66.6686C84.7763 65.7772 85.5802 65.0936 86.488 64.9295ZM86.9966 65.2412C86.5865 65.3834 86.3841 65.81 86.2146 66.1819C85.9247 66.9147 85.7661 67.7186 85.8591 68.5062C85.9193 68.8999 86.3786 69.1898 86.756 69.0202C87.1279 68.8452 87.3302 68.4515 87.4834 68.0905C87.7568 67.3577 87.9154 66.5647 87.8006 65.7881C87.7568 65.4053 87.3631 65.1373 86.9966 65.2412ZM90.5678 64.9787C90.9014 64.8092 91.3827 64.8475 91.596 65.1865C91.7382 65.4272 91.6561 65.717 91.6507 65.9795C91.9514 65.6022 92.2741 65.2303 92.7171 65.0225C93.0726 64.8639 93.5156 64.8201 93.8601 65.0389C94.2867 65.3069 94.5054 65.799 94.5929 66.2748C94.675 66.8545 94.6312 67.4671 94.3468 67.9866C93.9039 68.9163 92.8538 69.5343 91.8202 69.3866C91.5686 69.3593 91.328 69.2609 91.0928 69.1788C90.9889 69.7859 90.9014 70.3984 90.7921 71.0054C90.4092 71.0109 90.0209 71.0109 89.6381 71.0109C89.8569 69.5835 90.1139 68.1561 90.3491 66.7342C90.3983 66.4006 90.4913 66.067 90.4748 65.728C90.2014 65.6295 90.0592 65.892 89.8951 66.0452C89.7584 66.16 89.6272 65.9084 89.7311 65.81C89.9498 65.4818 90.2233 65.1701 90.5678 64.9787ZM92.7444 65.4326C92.5311 65.4928 92.3726 65.6569 92.2304 65.81C91.8694 66.2256 91.6178 66.7342 91.4483 67.2538C91.3553 67.6311 91.3061 68.0194 91.235 68.4022C91.1421 68.8288 91.678 69.2062 92.0608 69.0093C92.3944 68.8507 92.6077 68.528 92.7937 68.2163C93.0562 67.7077 93.253 67.1608 93.3296 66.592C93.357 66.253 93.3843 65.892 93.2366 65.5748C93.1491 65.4053 92.9194 65.3834 92.7444 65.4326ZM97.4039 64.9076C98.0602 64.8146 98.7602 65.0006 99.2634 65.4381C99.9798 66.0616 100.127 67.1663 99.7228 68.003C99.329 68.8671 98.3829 69.414 97.4422 69.4031C96.6766 69.4249 95.8781 69.064 95.468 68.3968C95.0086 67.6475 95.0961 66.6358 95.6101 65.9358C96.0313 65.3561 96.7039 64.9787 97.4039 64.9076ZM97.7266 65.2412C97.3438 65.3615 97.1469 65.7498 96.9828 66.0889C96.693 66.778 96.5344 67.5327 96.5672 68.2874C96.5727 68.4569 96.5945 68.6319 96.693 68.7741C96.868 69.0421 97.2453 69.1624 97.5297 69.0038C97.8579 68.8179 98.0438 68.4679 98.1915 68.1343C98.4266 67.5546 98.5579 66.9256 98.5634 66.3022C98.5579 66.0342 98.5579 65.7498 98.4212 65.5147C98.279 65.285 97.9836 65.1756 97.7266 65.2412ZM101.435 65.4873C101.96 65.0498 102.654 64.8693 103.327 64.8803C103.682 64.9021 104.065 64.9678 104.339 65.2193C104.694 65.4983 104.787 66.0834 104.486 66.4334C104.191 66.7452 103.759 66.8217 103.376 66.9694C103.704 67.046 104.054 67.1225 104.295 67.3686C104.645 67.6858 104.678 68.271 104.404 68.6483C104.098 69.0804 103.578 69.2937 103.07 69.3702C102.567 69.4304 102.047 69.3921 101.582 69.1843C101.123 68.9929 100.724 68.6319 100.576 68.1452C100.286 67.1991 100.669 66.1108 101.435 65.4873ZM102.55 65.4545C102.195 65.8537 102.025 66.3842 101.921 66.8983C102.32 66.9038 102.72 66.7944 103.064 66.5975C103.458 66.3733 103.666 65.8483 103.496 65.4272C103.283 65.099 102.774 65.192 102.55 65.4545ZM101.839 67.2866C101.774 67.6311 101.719 67.9811 101.763 68.3311C101.795 68.5772 101.899 68.8398 102.118 68.9765C102.331 69.1241 102.632 69.0913 102.835 68.9382C103.174 68.6866 103.31 68.2382 103.294 67.8335C103.288 67.6311 103.234 67.396 103.037 67.2975C102.654 67.1171 102.228 67.1772 101.839 67.2866ZM105.41 65.3123C105.777 65.0334 106.258 64.7818 106.728 64.9459C107.117 65.2029 107.292 65.7881 107.078 66.2092C107.018 66.3459 106.958 66.4881 106.909 66.6358C107.199 66.4498 107.505 66.253 107.86 66.253C108.435 66.1983 109.031 66.5483 109.233 67.0952C109.414 67.6038 109.31 68.1999 108.982 68.6265C108.429 69.332 107.418 69.5617 106.581 69.2991C106.045 69.1405 105.58 68.6976 105.465 68.1397C105.339 67.5928 105.536 67.046 105.739 66.5428C105.848 66.2475 106.034 65.9522 105.99 65.624C105.744 65.5365 105.542 65.7006 105.339 65.81C105.263 65.8592 105.121 65.8264 105.131 65.717C105.115 65.5311 105.29 65.4217 105.41 65.3123ZM107.379 66.7834C106.767 67.1061 106.395 67.8444 106.466 68.5335C106.482 68.8398 106.783 69.1023 107.089 69.064C107.368 69.0257 107.576 68.8124 107.735 68.6046C107.959 68.2819 108.112 67.9046 108.139 67.5108C108.15 67.2428 108.09 66.9038 107.817 66.778C107.691 66.6905 107.521 66.7233 107.379 66.7834ZM24.6402 65.2522C24.6074 65.11 24.7551 64.9897 24.8863 65.0006C25.8161 64.9897 26.7403 65.0061 27.67 64.9951C27.67 65.1537 27.6591 65.3123 27.6317 65.4654C27.4786 66.4061 27.32 67.3413 27.1723 68.2819C27.1559 68.3913 27.1614 68.5062 27.1614 68.6155C27.5333 68.7687 27.6153 68.1725 27.9708 68.2382C27.9817 68.353 27.9872 68.4733 27.9052 68.5663C27.7302 68.8124 27.5552 69.0694 27.3091 69.2445C27.063 69.403 26.7512 69.4304 26.4723 69.3702C26.1332 69.2991 25.8817 68.9437 25.9364 68.5991C26.0731 67.5218 26.2973 66.4553 26.4286 65.3779C26.0567 65.3233 25.7778 65.624 25.6629 65.9412C25.3293 66.7999 25.0778 67.6913 24.6621 68.5171C24.4379 68.9273 24.1098 69.3866 23.5957 69.4031C23.1199 69.4577 22.6386 69.0257 22.7043 68.5335C22.6933 68.1726 23.1418 67.9757 23.4425 68.1069C23.7215 68.189 23.8254 68.4788 23.9348 68.7194C24.1645 68.6976 24.2629 68.4569 24.3668 68.2819C24.6949 67.5983 24.9246 66.871 25.1762 66.1545C25.2309 65.9467 25.3348 65.7115 25.209 65.5092C25.0668 65.3397 24.7715 65.4326 24.6402 65.2522ZM45.5807 65.099C46.0346 64.9732 46.5104 65.0061 46.9752 65.0006C47.5823 65.0006 48.1893 64.9951 48.7909 65.0061C48.6815 65.8647 48.5175 66.7178 48.3862 67.5764C48.3425 67.91 48.244 68.2436 48.2659 68.5827C48.337 68.6866 48.512 68.6429 48.5776 68.5499C48.7253 68.4351 48.8456 68.1671 49.0643 68.2874C48.9932 68.971 48.244 69.5726 47.5549 69.3648C47.3143 69.2991 47.0737 69.1187 47.0463 68.8562C46.9862 68.3421 47.1885 67.8444 47.2104 67.3303C47.0463 67.3522 46.8658 67.3632 46.7237 67.4616C46.483 67.6147 46.3846 67.8936 46.2533 68.1343C46.0565 68.4843 45.9033 68.8726 45.6189 69.1624C45.3072 69.4851 44.733 69.4851 44.4213 69.1734C44.2408 68.9929 44.1095 68.7687 44.0275 68.528C43.9947 68.4351 43.9837 68.3038 44.0986 68.2655C44.3119 68.3038 44.3447 68.6319 44.5853 68.5991C44.7713 68.2929 44.9244 67.9647 45.1978 67.7241C45.4877 67.4397 45.9088 67.4124 46.2697 67.2757C45.9744 67.2319 45.6627 67.2483 45.3892 67.117C44.9189 66.9202 44.5853 66.3733 44.7439 65.8647C44.8478 65.4654 45.2088 65.2084 45.5807 65.099ZM46.6033 65.4162C46.0564 65.5529 45.8486 66.3022 46.144 66.7452C46.4119 67.0842 46.9041 67.0624 47.2869 66.9967C47.3799 66.4499 47.4674 65.903 47.5385 65.3561C47.2268 65.3123 46.9096 65.3342 46.6033 65.4162ZM110.704 65.3068C111.082 65.0389 111.568 65.0061 112.017 65.0006C112.793 65.0061 113.57 64.9951 114.352 65.0061C114.265 65.7608 114.111 66.51 114.002 67.2592C113.947 67.7186 113.8 68.1726 113.838 68.6374C113.926 68.6265 114.04 68.6483 114.106 68.5718C114.27 68.4132 114.423 68.2327 114.642 68.1452V68.4897C114.385 68.8507 114.1 69.2499 113.647 69.3702C113.264 69.4577 112.733 69.321 112.624 68.8944C112.542 68.3694 112.744 67.8554 112.782 67.3358C112.629 67.3467 112.465 67.3413 112.329 67.4288C112.077 67.5655 111.968 67.8554 111.836 68.0905C111.634 68.4515 111.47 68.8507 111.18 69.157C110.846 69.5015 110.218 69.4632 109.922 69.0913C109.72 68.8343 109.529 68.5335 109.529 68.1944C109.846 68.1069 109.846 68.5937 110.141 68.5991C110.343 68.2874 110.496 67.9265 110.792 67.6858C111.071 67.4452 111.454 67.4069 111.782 67.2702C111.536 67.2319 111.284 67.221 111.049 67.1444C110.721 67.035 110.447 66.778 110.327 66.4499C110.174 66.0452 110.343 65.5475 110.704 65.3068ZM111.973 65.4873C111.568 65.7334 111.448 66.3459 111.694 66.7397C111.968 67.0733 112.454 67.0624 112.837 66.9913C112.936 66.4444 113.034 65.8975 113.089 65.3506C112.717 65.3123 112.323 65.3287 111.973 65.4873ZM68.5336 68.1726C67.6859 68.9546 66.9969 69.8843 66.3133 70.8086C65.9414 71.2843 65.6242 71.8148 65.1921 72.2469C65.2468 71.618 65.2085 70.9453 64.8366 70.4093C64.7054 70.2124 64.5577 69.9718 64.2952 69.939C64.3116 70.2562 64.6179 70.4531 64.6781 70.7539C64.8038 71.3008 64.5304 71.8203 64.3937 72.3344C64.1913 72.9141 64.1476 73.6196 64.5413 74.1336C64.7382 73.8602 64.8913 73.5539 65.0663 73.2696C65.5968 72.3891 66.1547 71.525 66.7945 70.7211C67.3523 70.0374 67.9485 69.3648 68.6703 68.8562C69.0696 69.5562 69.9391 69.939 70.7267 69.7695C71.0384 69.6984 71.3446 69.496 71.454 69.1898C71.5743 68.796 71.4157 68.3585 71.1259 68.0796C70.7704 67.735 70.2673 67.5546 69.7805 67.5546C69.2938 67.56 68.8836 67.8608 68.5336 68.1726Z" fill="#DD4019"/>
</svg>
