<svg width="125" height="125" viewBox="0 0 125 125" fill="none" xmlns="http://www.w3.org/2000/svg">
<g clip-path="url(#clip0_32_597)">
<path d="M31.2687 49.5638C28.1514 51.9941 24.4019 54.9174 23.5414 55.2213L31.7781 47.1637C32.1701 46.8183 32.5168 46.4642 32.8633 46.1104C33.1965 45.7701 33.5296 45.4299 33.9027 45.0977C34.0073 45.0031 34.1253 44.8857 34.2544 44.7574C34.7906 44.2244 35.5177 43.5016 36.2651 43.4283C36.7687 43.3801 36.9909 43.43 37.1361 43.4626C37.1916 43.4751 37.2359 43.4851 37.2804 43.486C37.4558 43.4899 37.6342 43.3543 38.5156 42.6848L38.5171 42.6837C38.6314 42.5968 38.7576 42.501 38.8971 42.3953C39.7261 41.7673 40.6136 41.0737 41.5353 40.3533C44.4831 38.0494 47.7813 35.4717 50.6378 33.8915C52.7227 32.7345 54.9503 32.6436 57.0194 33.9741C58.3403 34.8235 59.6676 35.7116 60.9894 36.596C62.96 37.9144 64.9184 39.2248 66.8258 40.3871C67.0004 40.4935 67.1505 40.5888 67.2826 40.6727C68.2182 41.2671 68.2526 41.2889 69.7115 40.5937C70.5222 40.207 71.2156 39.8554 71.8227 39.5476C74.8488 38.0132 75.7311 37.5658 78.3128 39.2797C79.8983 40.3293 81.5948 41.4863 83.0297 42.6019C83.1626 42.7043 83.3275 42.849 83.5117 43.0105C84.1301 43.5527 84.9649 44.2847 85.5269 44.2465C86.0852 44.2115 86.4589 44.1 86.7528 44.0124C87.3602 43.8312 87.6264 43.7518 88.476 44.6597C88.6633 44.8598 88.85 45.0663 89.0375 45.2737C89.4928 45.7773 89.9535 46.2868 90.442 46.7257C90.9399 47.1771 91.3381 47.6709 91.745 48.1754L91.7456 48.1762C91.9344 48.4104 92.1252 48.647 92.3287 48.8827C92.4946 49.0748 92.6536 49.2258 92.8113 49.3756C92.9928 49.548 93.1727 49.7189 93.3593 49.9488C93.6781 50.3365 94.4858 51.2497 95.4302 52.3174L95.4309 52.3182C97.3043 54.4362 99.7151 57.1619 99.9154 57.6014C98.9781 57.0806 98.0488 56.2037 97.2175 55.4192C96.8745 55.0956 96.5482 54.7877 96.2449 54.5271L89.3401 47.8827C88.6099 47.1995 88.1915 46.7134 87.91 46.3864C87.6337 46.0654 87.4893 45.8976 87.3113 45.8472C87.1169 45.7921 86.8823 45.8772 86.3912 46.0553C86.1402 46.1464 85.8221 46.2618 85.408 46.3952C84.0537 46.8259 83.0834 46.2712 82.1051 45.7119L81.9992 45.6514C81.2381 45.2217 79.8587 44.2713 79.5891 43.6019L82.2528 43.9655L77.7658 40.1805C76.6363 39.3191 76.3912 39.5157 75.3945 40.315L75.2528 40.4284C73.1916 42.0647 64.9628 48.4777 63.3139 48.8744C63.4627 48.5029 63.6928 48.1777 63.9267 47.8472C64.1663 47.5086 64.4099 47.1644 64.5744 46.7588C63.7173 46.9254 62.7114 47.3081 61.6712 47.7038C60.2868 48.2303 58.8418 48.78 57.6061 48.8744C57.9285 48.18 58.3168 47.8572 58.6543 47.5767C58.9474 47.3331 59.2022 47.1214 59.3422 46.7257C58.9873 46.3229 58.55 46.0059 58.1036 45.6823C57.6524 45.3553 57.1919 45.0214 56.7974 44.5853C57.7528 44.7007 58.4057 44.8583 58.921 44.9827C60.2145 45.295 60.6409 45.3979 62.8065 44.0977C62.6202 43.4961 62.028 42.9039 61.5211 42.397C61.3596 42.2355 61.2067 42.0826 61.0783 41.9408C60.7764 41.6096 60.4201 41.3351 60.0593 41.0572C59.6909 40.7733 59.3178 40.4859 58.9934 40.1309C60.4535 40.0793 61.3361 40.622 62.2063 41.157C63.1458 41.7347 64.0708 42.3034 65.6922 42.1061L64.7884 41.3623C64.2744 41.0147 63.4385 40.4165 62.4538 39.7118C59.5048 37.6014 55.2214 34.536 54.2527 34.3873C53.2539 34.2303 50.2413 35.379 50.0511 36.346C50.5296 36.6123 51.3457 36.4388 52.1501 36.2677C52.7182 36.1469 53.2805 36.0273 53.7137 36.065C53.1429 36.6765 49.3852 39.3872 48.4814 39.569C48.8688 38.9313 49.0549 38.801 49.1863 38.7089C49.3103 38.622 49.3857 38.5692 49.5358 38.1558C48.2842 38.2475 46.5129 39.7597 45.4785 40.6428C45.3009 40.7944 45.1449 40.9276 45.0171 41.0317L44.9289 41.1034C42.6074 42.9907 34.4891 49.5902 32.6581 50.6099C33.0374 49.8876 33.5736 49.2008 34.1144 48.5081C34.6812 47.7821 35.253 47.0496 35.6547 46.2629C35.2483 46.4613 33.4072 47.8967 31.2687 49.5638Z" fill="#006533"/>
<path d="M57.6774 56.6345L58.6921 56.6427L59.3026 56.6014L59.3105 54.9734L58.6921 54.9486L57.6774 54.9568V56.6345Z" fill="#006533"/>
<path d="M53.9491 55.23C53.9448 55.19 53.9409 55.1533 53.9197 55.1386C53.8825 55.0265 53.813 55.1056 53.7909 55.1306L53.7882 55.1337L53.7853 55.1368C53.7847 55.1373 53.7843 55.1376 53.7842 55.1375C53.7834 55.137 53.7876 55.1285 53.7989 55.1063C53.8166 55.071 53.8518 55.0013 53.9119 54.8742L55.5291 53.775L55.6674 53.8744C55.9634 54.0872 56.2247 54.275 56.5755 54.5188C56.6762 54.5899 56.7617 54.6423 56.8318 54.6852C57.1203 54.8621 57.1462 54.8779 56.8847 55.37C56.4804 55.2213 55.8937 54.8328 55.5608 54.4692C55.2201 54.6184 55.1195 54.6943 54.8865 54.8701C54.8484 54.8988 54.8068 54.9302 54.7601 54.9651C53.9832 55.55 53.964 55.37 53.9491 55.23Z" fill="#006533"/>
<path fill-rule="evenodd" clip-rule="evenodd" d="M50.8835 43.8085C52.1281 44.0564 52.0013 45.4778 51.3671 46.1142C51.5211 46.1354 51.6751 46.1524 51.8287 46.1694C52.5133 46.2452 53.1901 46.3201 53.8246 46.7588C53.7885 46.9045 53.7775 46.99 53.7703 47.0458C53.7647 47.089 53.7614 47.1145 53.7506 47.1362C53.7352 47.1671 53.7046 47.1904 53.6304 47.247C53.5875 47.2798 53.5298 47.3238 53.452 47.3869L52.802 47.7918C52.8638 47.8089 52.9215 47.8241 52.9753 47.8382C53.494 47.9748 53.6502 48.0159 53.6502 48.7422C52.8209 49.1673 52.0965 49.0016 51.4964 48.8643C50.6968 48.6814 50.1178 48.5489 49.8053 49.9322C50.1886 49.8951 50.2824 49.8437 50.3576 49.8024C50.4332 49.7609 50.4901 49.7297 50.8042 49.7339C51.0835 49.7406 51.1553 49.7807 51.1808 49.795C51.1843 49.7969 51.1869 49.7984 51.1891 49.7992L51.1914 49.7999L51.1927 49.8C51.2059 49.8027 51.2191 49.8064 51.2323 49.8101C51.2587 49.8174 51.2852 49.8248 51.3116 49.8248L51.6366 49.8C52.1664 49.6796 52.491 49.5609 52.7185 49.4776C53.2093 49.2981 53.248 49.2839 53.9197 49.7752L54.5619 50.2215C54.258 50.5264 53.752 50.4916 53.358 50.4646C52.9298 50.4352 52.6339 50.4148 52.8733 50.8495L53.7691 50.9652C54.1306 50.9443 54.5192 50.8768 54.914 50.8082C55.6101 50.6873 56.3259 50.563 56.9481 50.6842C57.2607 50.7471 57.4784 50.9181 57.6974 51.09C57.9394 51.28 58.1829 51.4712 58.5574 51.5189C58.875 51.5638 59.5182 51.4944 60.0695 51.4348C60.3299 51.4067 60.5699 51.3808 60.7454 51.3702C62.9911 51.2304 63.1268 51.3861 63.9182 52.2942C64.2498 52.6747 64.6967 53.1875 65.4622 53.8659C65.5861 53.9745 65.6865 54.0599 65.768 54.1293C65.9857 54.3146 66.0684 54.385 66.1043 54.4741C66.1262 54.5288 66.1306 54.5904 66.1375 54.6899C66.1474 54.8298 66.1624 55.0445 66.2392 55.4196C66.3047 55.3669 66.3639 55.3148 66.4204 55.2649C66.6921 55.0255 66.9022 54.8402 67.46 54.9155C67.4917 54.9155 68.2527 55.056 68.2845 55.0643L68.4048 55.0921C68.469 55.1069 68.4846 55.1105 68.4844 55.111C68.4844 55.1112 68.4828 55.1111 68.4806 55.1109C68.4673 55.1098 68.4345 55.1072 68.6254 55.1634C68.7386 55.1966 68.6986 55.2051 68.6711 55.211C68.637 55.2182 68.622 55.2214 68.9425 55.2626L69.3785 54.2378C69.1418 54.2402 68.8559 54.2947 68.5533 54.3523C67.8118 54.4935 66.9703 54.6538 66.5087 54.1139C66.691 53.7089 67.0399 53.4941 67.4759 53.2461C67.428 53.2017 67.3868 53.1646 67.3512 53.1325C67.2552 53.046 67.1994 52.9959 67.1615 52.9347C67.109 52.8502 67.0907 52.7446 67.0469 52.4931L67.0399 52.4528C67.0765 52.4369 67.1175 52.4207 67.1613 52.4033C67.3454 52.3306 67.5806 52.2377 67.7533 52.0644L68.0784 51.4363C68.0942 51.4032 68.118 51.3619 68.1418 51.3289C68.4034 50.957 68.9345 50.238 69.3309 50.0644C69.7273 49.8826 70.8371 49.519 71.1305 49.5934C71.5506 49.7008 72.1531 50.2876 72.3513 50.8495L71.6061 51.4528C72.9133 50.8885 73.1484 51.0463 73.9047 51.5539C74.0565 51.6559 74.2295 51.772 74.4362 51.8991C74.6708 52.0415 74.7831 52.0772 74.8467 52.0974C74.8743 52.1062 74.8928 52.1121 74.9081 52.1226C74.939 52.1436 74.9573 52.1831 75.0121 52.3021L75.0126 52.3031C75.0352 52.352 75.0639 52.4143 75.1022 52.4941C74.9759 52.8678 74.8329 53.0364 74.6774 53.2196C74.5303 53.393 74.3721 53.5795 74.2064 53.9651C73.9025 53.9743 73.648 53.9298 73.4099 53.8881C73.0081 53.8177 72.6527 53.7555 72.1848 53.9734C72.4786 54.3421 73.017 54.4036 73.5877 54.4689C73.7718 54.4899 73.9593 54.5114 74.1429 54.5436L74.1995 54.5536C74.5514 54.6159 74.6378 54.6312 74.676 54.6822C74.6884 54.6988 74.6957 54.7193 74.7054 54.7463C74.7265 54.8054 74.7589 54.8959 74.8802 55.0477C74.9853 55.1786 75.0592 55.2512 75.1226 55.3134C75.2312 55.42 75.3087 55.4961 75.4589 55.7832C75.2565 56.385 74.9194 56.5359 74.4343 56.7532L74.3491 56.7915L74.3251 56.8042L74.3021 56.8169C74.274 56.8325 74.2481 56.8468 74.2222 56.8576L73.9765 57.0063C74.7463 57.3137 75.3769 57.0801 76.0031 56.8482C76.2862 56.7434 76.5684 56.6389 76.8621 56.5849C77.2175 57.0312 77.4338 57.3134 77.5703 57.4915C77.7612 57.7405 77.7961 57.786 77.8372 57.7924C77.8463 57.7938 77.8558 57.7933 77.8674 57.7927C77.9407 57.7888 78.0985 57.7804 78.7964 58.2294L79.0025 58.3616C79.1928 58.4774 79.3047 58.5031 79.3766 58.5196C79.4125 58.5278 79.4384 58.5338 79.4592 58.5475C79.5135 58.5833 79.5326 58.6719 79.6015 58.992L79.602 58.9944L79.6367 59.155C79.8445 59.0946 80.0026 59.022 80.1429 58.9576C80.3292 58.872 80.4843 58.8008 80.6832 58.7914C81.0075 58.7721 81.1287 58.8544 81.2684 58.9492C81.3678 59.0166 81.4764 59.0904 81.6741 59.1385C81.9193 59.1984 82.0516 59.1734 82.189 59.1474C82.3359 59.1196 82.4888 59.0907 82.7919 59.1633C83.0919 59.2377 83.1618 59.3072 83.2198 59.3647C83.2906 59.435 83.3436 59.4877 83.7749 59.5104C85.0513 59.5682 86.8032 59.9566 87.6673 61.0806C85.4918 60.9527 83.336 60.7632 81.1769 60.5734C78.0332 60.297 74.8824 60.02 71.6537 59.9318C56.4724 59.5186 42.623 60.1715 27.6875 62.659C27.288 62.7254 26.8188 62.827 26.3354 62.9318C25.4949 63.1138 24.6115 63.3052 23.9774 63.3367C24.2211 62.95 24.4931 62.7894 24.7429 62.6418C25.0377 62.4678 25.3017 62.3119 25.4519 61.8243C25.6177 61.2811 25.7678 61.1559 26.1215 60.861L26.1257 60.8574L26.6094 60.3864C26.6572 60.354 26.674 60.3388 26.6824 60.3313C26.6862 60.3279 26.6882 60.326 26.6906 60.3248C26.6937 60.3232 26.6973 60.3227 26.7053 60.3214C26.7242 60.3184 26.7677 60.3116 26.8868 60.2789L27.1642 60.2211C27.3269 60.1923 27.3909 60.0607 27.4654 59.9079C27.5832 59.6659 27.7271 59.3704 28.3296 59.3451C28.6554 59.3316 28.8775 59.4126 29.0654 59.4811C29.3392 59.5809 29.5402 59.6542 29.8834 59.3699C29.6288 59.2969 29.4546 59.2199 29.2969 59.1501C29.0618 59.0461 28.863 58.9582 28.4882 58.9236C28.2494 58.8998 28.0602 58.9082 27.892 58.9157C27.5354 58.9315 27.273 58.9432 26.8313 58.6344C26.8551 57.8741 27.2594 57.7914 28.0363 57.7253C27.8223 57.3617 27.7113 57.1551 27.7271 56.5683C27.9045 56.4824 28.0713 56.4252 28.2218 56.3736C28.7371 56.1969 29.0602 56.0861 28.9559 55.1138C28.9382 54.9506 28.9181 54.8771 28.9061 54.8332C28.9001 54.8112 28.8961 54.7967 28.8955 54.782C28.8943 54.7533 28.9059 54.7241 28.9402 54.6379C28.9633 54.5801 28.9966 54.4965 29.0431 54.3701C29.8992 54.18 30.7634 54.1882 31.358 54.3287C31.982 54.4793 32.0994 54.6123 32.3279 54.8712C32.4506 55.0103 32.6054 55.1857 32.888 55.4196C33.0375 55.6931 32.9721 55.9165 32.9101 56.1282C32.811 56.4667 32.7206 56.7757 33.5301 57.2129C33.8155 57.37 34.3942 57.8989 34.1088 58.1964C33.7679 58.4608 32.8166 58.4443 32.2538 58.4278C32.2687 58.434 32.2869 58.4332 32.3048 58.4324C32.3344 58.4311 32.3628 58.4299 32.3727 58.4608L33.0227 58.5848C33.0848 58.5996 33.1354 58.6109 33.178 58.6204C33.3968 58.6692 33.4035 58.6707 33.649 58.8575C33.5286 59.187 33.4495 59.2451 33.3091 59.3481C33.2277 59.4078 33.1257 59.4826 32.9831 59.6343L30.7713 59.6178V60.436C31.6116 60.2624 32.4361 60.2789 33.3398 60.3864C33.4704 60.0989 33.5036 60.073 33.5313 60.0515C33.5489 60.0377 33.5643 60.0257 33.6014 59.9484C33.6923 59.768 33.7689 59.6015 33.8401 59.4465C34.1539 58.7637 34.3654 58.3035 35.2504 57.8658L35.2643 57.8593C35.4173 57.7875 35.5551 57.7229 35.6705 57.6427L36.059 57.2377C35.8159 57.1422 35.6041 57.1235 35.3902 57.1045C35.1228 57.0808 34.8522 57.0568 34.5131 56.8824L34.8064 55.7419C34.8274 55.6669 34.8444 55.6013 34.8594 55.5438C34.9081 55.3566 34.9346 55.2549 34.9996 55.1946C35.0767 55.123 35.2081 55.1093 35.4952 55.0794C35.5393 55.0749 35.587 55.0699 35.6388 55.0643C35.5897 54.8547 35.5456 54.7292 35.5159 54.6447C35.489 54.5679 35.4739 54.5251 35.4778 54.484C35.4827 54.4321 35.5179 54.3831 35.5974 54.2721C35.6316 54.2244 35.6743 54.1649 35.726 54.0891C35.7565 54.0453 35.7854 54.0035 35.8131 53.9635C36.0521 53.618 36.1996 53.4048 36.4554 53.2048L38.8891 53.7089C38.8097 53.5922 38.7245 53.5016 38.6507 53.423C38.437 53.1958 38.3179 53.0692 38.7068 52.7007C38.3734 52.66 38.1288 52.7189 37.8716 52.7809C37.45 52.8825 36.9946 52.9922 36.059 52.6842C36.2175 52.1057 36.3761 51.9487 37.0024 51.7421C36.8469 51.6588 36.7509 51.6203 36.6915 51.5964C36.6406 51.576 36.6166 51.5664 36.6052 51.5487C36.595 51.5329 36.5948 51.5106 36.5946 51.4684C36.5942 51.4105 36.5936 51.3149 36.5664 51.147L36.6437 51.0978C36.8107 50.9916 36.9429 50.9075 37.1292 50.7421L37.4225 50.3454C37.8019 49.3487 37.9344 49.2758 38.7585 48.822L38.8733 48.7587L40.982 48.5521L41.418 49.5686C41.418 49.5769 41.42 49.5954 41.422 49.614C41.424 49.6326 41.426 49.6512 41.426 49.6595L41.4576 49.8248C41.7545 49.8176 41.95 49.7899 42.0956 49.7693C42.4556 49.7183 42.5103 49.7105 43.0352 50.1636C43.2375 50.3343 43.3839 50.4142 43.5118 50.484C43.6995 50.5864 43.8473 50.6671 44.0737 50.9818C44.0103 51.3454 43.5981 52.0892 43.2017 52.2544C43.0217 52.2636 42.8368 52.2594 42.6532 52.2553C42.1741 52.2445 41.7042 52.234 41.3546 52.461C41.5924 52.7867 41.6355 52.7722 41.7403 52.7369C41.8137 52.7122 41.9174 52.6773 42.1394 52.742C42.2315 52.7701 42.2765 52.7796 42.2995 52.7845C42.3149 52.7878 42.3205 52.7889 42.3236 52.7923L42.3249 52.794L42.3264 52.7967L42.3279 52.8002C42.3342 52.8155 42.3497 52.8525 42.4565 52.9569C42.6247 53.1225 42.706 53.2192 42.7343 53.2708C42.8499 53.482 42.0781 52.9388 42.7343 53.2708C43.2918 53.0241 43.4852 52.6523 43.7097 52.2205C43.8011 52.0447 43.8977 51.8589 44.0262 51.6677C44.4289 51.0667 44.8361 51.0045 45.1739 50.9528C45.4679 50.9079 45.7093 50.871 45.8495 50.4942C45.513 50.2391 45.3591 50.2897 45.1583 50.3557C44.9427 50.4265 44.6731 50.5152 44.0658 50.2628C43.0273 49.8248 42.4644 49.205 43.3682 49.0975L44.6207 49.3041C44.5431 49.2388 44.4695 49.1826 44.4008 49.1301C44.0693 48.8767 43.8518 48.7105 43.8518 48.0397C44.5534 47.9134 44.7825 48.0451 45.0672 48.2086C45.2296 48.302 45.4101 48.4057 45.7068 48.4777C45.6074 48.0492 45.422 47.9979 45.2196 47.9418C44.9381 47.8637 44.6236 47.7766 44.4622 46.6513C44.5574 46.6183 44.7952 46.5356 44.8903 46.4778L45.9209 44.9324C45.9367 44.8993 45.9526 44.858 45.9605 44.8167C46.0063 44.6555 46.0025 44.5094 45.9991 44.3792C45.993 44.1489 45.9883 43.9682 46.2617 43.8415C46.4365 43.7621 46.5429 43.8676 46.6912 44.0146C46.8052 44.1276 46.9439 44.2652 47.1576 44.3622C47.1634 44.353 47.1693 44.3367 47.1777 44.3134C47.2146 44.2111 47.3003 43.9737 47.6491 43.6101C47.661 43.5977 47.6768 43.5853 47.6927 43.5729C47.7085 43.5605 47.7244 43.5482 47.7363 43.5358L47.8156 43.4531C47.8314 43.4283 47.8631 43.387 47.8869 43.3622C48.1723 42.9903 49.2108 41.9325 49.845 42.1309C50.0278 42.1838 50.178 42.3824 50.3186 42.5684C50.3976 42.6728 50.4736 42.7732 50.5505 42.8416C50.6785 42.9573 50.7763 42.9965 50.8453 43.0241C51.0029 43.0871 51.0103 43.0901 50.8835 43.8085ZM38.3024 57.2377C38.2707 57.2543 38.2232 57.2791 38.1994 57.2956L37.9933 57.4278C38.0649 58.2782 38.2979 58.2734 39.0421 58.2584C39.1224 58.2568 39.2087 58.255 39.3013 58.2542C39.3185 58.2234 39.3352 58.1936 39.3516 58.1646L39.3875 58.1011C39.7003 57.5482 39.8339 57.312 39.5788 56.4609C39.2601 56.5571 39.181 56.6278 39.055 56.7404C38.943 56.8407 38.7938 56.9741 38.4056 57.1881C38.3897 57.1964 38.3719 57.2047 38.354 57.2129C38.3362 57.2212 38.3183 57.2295 38.3024 57.2377ZM31.3889 56.3415C31.3296 56.3135 31.2645 56.2828 31.1994 56.246C31.1538 56.3157 31.1164 56.321 31.0898 56.3249C31.047 56.331 31.0323 56.3331 31.0567 56.5931C31.0646 56.7143 31.0684 56.7913 31.0707 56.8389C31.0733 56.8917 31.0741 56.9082 31.0767 56.9085C31.0779 56.9086 31.0794 56.9054 31.0816 56.9006C31.0923 56.8778 31.1192 56.8207 31.1994 56.9402C31.8303 56.5497 31.6767 56.4773 31.3889 56.3415ZM48.0876 56.4091L48.0771 56.4361L49.0364 57.4691L49.0601 55.5849C48.3892 55.6337 48.3018 55.8585 48.0876 56.4091ZM40.9423 57.0394C41.3942 56.9815 41.7589 56.5601 41.8065 55.8989L40.7125 55.7254C40.705 55.7531 40.6969 55.7825 40.6885 55.8131C40.5543 56.302 40.3306 57.1172 40.9423 57.0394ZM60.5155 54.8742C59.7465 54.2378 57.3048 52.2214 56.6389 51.8908L52.247 54.8411C52.5153 54.9903 52.6028 54.9745 52.6363 54.9685C52.6439 54.9672 52.6488 54.9663 52.6523 54.968C52.6583 54.971 52.6604 54.9815 52.6663 55.01C52.6753 55.0535 52.6931 55.1391 52.7465 55.3039L52.7703 58.3369L54.7204 58.3864V55.2295L56.1949 55.2213V58.3864L60.0398 58.3616V55.1221L60.5155 54.8742ZM40.5528 54.5221C40.6027 54.7031 40.6963 55.0434 41.6241 54.7998C41.9092 54.7255 41.9251 54.7026 41.9471 54.6709C41.9569 54.6568 41.968 54.6409 42.0047 54.618C41.5845 54.1883 41.0137 54.0478 40.5301 54.4527C40.5386 54.4703 40.5452 54.4943 40.5528 54.5221ZM37.9457 54.651L38.3579 54.9816C38.6741 54.593 38.8919 54.5909 39.1502 54.5884C39.3259 54.5866 39.5203 54.5847 39.777 54.461C39.0556 53.9321 38.1994 53.8742 37.5731 54.5023C37.5917 54.5087 37.6124 54.5155 37.6345 54.5228C37.7261 54.5527 37.8437 54.5912 37.9457 54.651ZM63.2443 52.7631C62.9751 52.5036 62.7162 52.2539 62.4815 52.0396L60.563 53.2957C60.8483 53.8276 61.044 53.996 61.1781 54.1113C61.2205 54.1478 61.2568 54.179 61.2878 54.2147C61.4703 54.4251 61.4699 54.7923 61.4674 57.3221V57.328C61.4671 57.6523 61.4668 58.0119 61.4668 58.4112H64.9074C64.9059 58.1855 64.9011 57.9378 64.8961 57.6779C64.8743 56.5393 64.8479 55.1671 65.0738 54.3866C64.5229 53.9961 63.8572 53.3542 63.2443 52.7631ZM70.5438 53.4527C70.5676 52.6015 70.4408 52.4858 69.8224 52.2296L69.545 52.7916L70.5438 53.4527ZM46.7372 52.4376C46.5044 52.583 46.2171 52.7626 45.2549 52.9486C45.3535 53.5364 45.3613 53.537 45.6359 53.5601C45.7591 53.5704 45.9358 53.5852 46.1983 53.6593C46.6716 53.7966 46.662 53.8137 46.6022 53.9197C46.5467 54.0179 46.4482 54.1925 46.6502 54.6097C46.9442 54.5682 47.1067 54.5103 47.3207 54.434C47.4471 54.3889 47.5916 54.3375 47.7918 54.2792L48.7986 53.8825C48.6897 53.1941 48.5858 53.1393 48.531 53.1104C48.523 53.1061 48.516 53.1025 48.5102 53.0974C48.4719 53.0641 48.4859 52.9712 48.5925 52.2632L48.6162 52.1057C47.2388 52.1242 47.0318 52.2535 46.7372 52.4376ZM49.9409 52.9502L49.9481 53.0478C50.3603 53.0147 51.1768 52.2049 51.383 51.8578C49.8028 51.0869 49.8124 51.2163 49.9409 52.9502ZM39.8325 51.9569C39.8325 51.0727 39.7849 51.0313 39.0714 50.8247C38.9122 51.4956 39.1267 51.6006 39.5175 51.7918C39.6129 51.8385 39.7189 51.8904 39.8325 51.9569ZM48.6955 48.643C47.6887 48.767 47.4429 48.5769 47.1021 47.8662C47.1417 47.5439 48.6162 47.2381 48.6955 48.643ZM49.7181 46.61C49.5596 47.1472 49.5834 47.8331 49.734 48.4695C49.8829 48.3358 50.0318 48.2449 50.1818 48.1533C50.3193 48.0693 50.4578 47.9847 50.5981 47.8662C50.4158 47.2381 50.1779 46.8579 49.7181 46.61ZM48.5364 45.6034C48.1209 45.6434 47.975 45.6575 48.0454 46.1224L48.1338 46.1283C48.4306 46.148 48.5457 46.1557 48.5823 46.106C48.6055 46.0746 48.5971 46.0201 48.5834 45.9312C48.5712 45.8517 48.5548 45.7446 48.5528 45.6018L48.5364 45.6034Z" fill="#006533"/>
<path d="M84.6628 68.6505L84.596 69.5512L84.5914 69.5513L84.3932 72.2868L85.8281 72.4355C86.2879 72.4851 86.6685 72.1876 86.9697 71.8818C87.0965 71.7579 87.1996 71.6091 87.2789 71.4521L87.2802 71.4408C87.3891 71.2202 87.4542 70.9683 87.4771 70.6918C87.5167 70.2207 87.4058 69.791 87.16 69.4191C86.9142 69.0472 86.5733 68.8489 86.0977 68.7993L84.6628 68.6505Z" fill="#006533"/>
<path d="M53.785 72.0471L54.3641 72.0283L54.3637 72.0306L55.8133 71.9813L55.8224 71.981L55.1485 69.8075L55.0451 69.436C54.8605 68.7734 54.7474 68.3673 54.7204 68.2125H54.6491C54.6491 68.2207 54.6395 68.2669 54.6221 68.3503C54.6043 68.4362 54.5782 68.5616 54.546 68.7249C54.4826 69.0472 54.4192 69.3199 54.3558 69.5596L53.785 72.0471Z" fill="#006533"/>
<path d="M28.6229 76.6998C29.1224 77.2783 29.7645 77.518 30.5256 77.4023C30.6037 77.3904 30.6795 77.3753 30.7529 77.357C31.396 77.1993 31.8587 76.7997 32.1348 76.1709C32.4361 75.4684 32.4995 74.609 32.341 73.6007C32.1824 72.5925 31.8574 71.7909 31.358 71.2124C31.2549 71.0967 31.1439 70.9893 31.0329 70.8984L31.0205 70.8959C30.5786 70.5497 30.0503 70.4183 29.4474 70.51C28.6943 70.6257 28.1473 71.0389 27.8461 71.7413C27.5448 72.4438 27.4814 73.3032 27.6399 74.3115C27.7985 75.3197 28.1235 76.1213 28.6229 76.6998Z" fill="#006533"/>
<path d="M77.6945 71.9892L77.1951 69.7579C77.0207 68.8571 76.9176 68.3117 76.8938 68.1299H76.8224C76.8157 68.144 76.7801 68.2723 76.7157 68.5045L76.6798 68.634C76.5926 68.948 76.5133 69.2208 76.4261 69.4521L75.6651 71.8818L77.6945 71.9892Z" fill="#006533"/>
<path fill-rule="evenodd" clip-rule="evenodd" d="M86.2797 64.8141C92.4354 65.5247 99.2553 66.3121 104.807 67.9481L100.772 82.9392C99.4923 82.6993 98.3444 82.4788 97.2792 82.2742L97.2783 82.274C92.291 81.316 89.1173 80.7063 82.7681 80.0799C67.3094 78.5592 48.965 78.8898 33.5777 81.3112C32.0733 81.5458 30.5945 81.8624 29.1286 82.1763C27.6512 82.4926 26.1869 82.8062 24.7226 83.0302L20.8143 68.0059C20.8381 67.9977 20.9015 67.9729 20.9332 67.9563L25.1903 66.9646C29.82 65.9812 35.8766 65.1631 40.546 64.692C54.221 63.3119 71.1542 63.0557 84.7976 64.6424C85.2865 64.6994 85.781 64.7565 86.2797 64.8141ZM92.8837 72.4438H92.0434L92.4318 69.7662L93.4782 69.791L93.7478 68.7001L90.1249 68.1216L89.9584 69.2125L90.7512 69.5017L89.7761 76.2288L88.6662 76.1957L88.579 77.2948L92.2495 77.8072L92.3367 76.7081C91.7976 76.6006 91.5122 76.5015 91.528 76.4188L91.9562 73.5429L92.2415 73.5925L94.0411 76.9725L93.4386 76.8899L93.2484 77.9725L96.8871 78.7411L97.1487 77.5428L96.1261 77.2122L94.16 73.4107C94.16 73.4107 96.134 71.138 96.3876 70.9397C96.6413 70.7414 96.9822 71.1298 96.9822 71.1298L97.878 69.9149L97.5371 69.5017C96.7602 68.5761 95.6742 69.4521 95.6742 69.4521L92.8837 72.4438ZM81.5869 75.204L81.4997 76.2866L84.8214 76.6337L84.9086 75.5511C84.4091 75.4189 84.1554 75.3114 84.1634 75.2288L84.3061 73.5098L86.0343 73.6917C86.9538 73.7908 87.6991 73.4107 88.2936 72.8818C88.8882 72.3446 89.2132 71.6835 89.2766 70.8818C89.3401 70.072 89.1181 69.3282 88.6107 68.7001C88.1033 68.072 87.4216 67.7001 86.5337 67.6092L82.2053 67.1547L82.126 68.2373C82.6254 68.3695 82.8791 68.477 82.8712 68.5431L82.3717 75.047C82.3638 75.1214 82.0943 75.1792 81.5869 75.204ZM71.7647 66.7332L62.9096 66.6671L62.8937 67.7415C63.409 67.8241 63.6785 67.9068 63.6785 67.9729L63.6072 74.4602C63.6072 74.5263 63.3377 74.609 62.8145 74.6834L62.8065 75.7577L66.2312 75.7825L66.2471 74.7081C65.7318 74.6255 65.4622 74.5429 65.4622 74.4602L65.5336 67.9067L69.1327 67.9315L69.0614 74.4933C69.0614 74.5594 68.7919 74.642 68.2686 74.7164L68.2607 75.7908L71.6695 75.8155L71.6775 74.7412C71.1622 74.642 70.8927 74.5759 70.8927 74.5098L70.964 68.039C70.9798 67.9646 71.2335 67.882 71.7567 67.8076L71.7647 66.7332ZM50.8042 75.1379L50.836 76.2535L53.888 76.1461L53.8564 75.0305H53.0636L53.5155 73.2785L56.2108 73.1875L56.7657 74.9148L55.9809 74.9643L56.0126 76.08L59.1995 75.9726L59.1678 74.8569C58.7159 74.8073 58.4702 74.7329 58.4384 74.6338L55.6717 66.6671L53.8801 66.7415L51.5811 74.642C51.5415 74.766 51.4701 74.8652 51.3592 74.9395C51.2482 75.0139 51.0658 75.0883 50.8042 75.1379ZM49.5675 69.7662L50.9548 69.7083L50.828 67.1464L43.1145 67.5266L43.2413 70.0885L44.5732 70.0306L44.5573 68.6836L46.1745 68.6092L46.4916 75.2205L45.5958 75.3528L45.6513 76.4354L49.3059 76.2205L49.2504 75.1379L48.1644 75.1296L47.8473 68.5183L49.5358 68.4687L49.5675 69.7662ZM39.5709 76.1379L39.6739 77.2452L43.0194 76.9064L42.9084 75.799C42.4328 75.766 42.1632 75.7081 42.0839 75.6337L39.4758 72.5512L41.4338 68.9728C41.4814 68.8819 41.743 68.7745 42.2108 68.6423L42.0998 67.5349L38.9684 67.8489L39.0794 68.9563C39.4995 68.9811 39.7215 69.0141 39.7294 69.0803C39.7294 69.1133 39.7215 69.1546 39.6819 69.2125L38.5403 71.5017L36.9072 69.4935C36.8597 69.4604 36.828 69.4191 36.82 69.3778C36.8121 69.3117 37.0182 69.229 37.4304 69.1216L37.3194 68.0142L33.9899 68.353L34.1009 69.4604C34.5844 69.4935 34.854 69.5513 34.9333 69.6257L37.5256 72.7413L35.5754 76.2783C35.5279 76.361 35.2662 76.4767 34.7985 76.6172L34.9095 77.7246L38.0409 77.4105L37.9299 76.3031C37.5097 76.2783 37.2877 76.2453 37.2798 76.1792C37.2798 76.1378 37.2878 76.0965 37.3116 76.0552L38.4689 73.7908L40.11 75.766C40.1654 75.8321 40.1813 75.8651 40.1813 75.8817C40.1893 75.9478 39.9831 76.0304 39.5709 76.1379ZM32.4995 70.0472C31.6592 69.2455 30.5652 68.948 29.2413 69.1464C28.3296 69.2869 27.6082 69.6174 27.0454 70.1629C26.4904 70.7 26.1099 71.3446 25.9355 72.0967C25.7611 72.8404 25.7373 73.6669 25.88 74.5677C26.0227 75.4685 26.2922 76.2535 26.6886 76.9147C27.085 77.5758 27.6479 78.0799 28.3455 78.4353C29.0431 78.7906 29.8358 78.8981 30.7396 78.7576C32.0635 78.5592 33.0227 77.956 33.5777 76.9395C34.1326 75.923 34.307 74.7247 34.093 73.3363C33.8789 71.9479 33.3398 70.8571 32.4995 70.0472ZM72.4464 74.7081L72.391 75.8238L75.4351 75.9643L75.4906 74.8486L74.6979 74.7825L75.2845 73.0718L77.9799 73.2123L78.4 74.9809L77.6152 74.9643L77.5597 76.08L80.7466 76.2453L80.8021 75.1296C80.3581 75.0387 80.1203 74.9478 80.0965 74.8486L77.964 66.6754L76.1724 66.601L73.263 74.2784C73.2154 74.4024 73.1361 74.4933 73.0172 74.5594C72.8983 74.6172 72.708 74.6834 72.4464 74.7081Z" fill="#006533"/>
<path fill-rule="evenodd" clip-rule="evenodd" d="M104.216 65.6086C101.846 65.038 99.4571 64.4627 97.0298 64.1135C96.4794 64.0333 95.9334 63.9531 95.3902 63.8733C92.2956 63.4187 89.2919 62.9775 86.0818 62.626C68.0783 60.6591 40.9978 61.0475 23.0578 65.2374C22.3675 65.3996 21.6785 65.577 20.9898 65.7543L20.9886 65.7546C19.9931 66.0109 18.9978 66.2671 18 66.4771L23.1846 85.5507L32.2062 83.6748C35.3138 83.0797 38.6592 82.6665 41.854 82.369C57.9866 80.865 77.1079 80.7906 93.1453 83.5839L102.206 85.4516L107.359 66.3448C106.316 66.1141 105.27 65.8623 104.221 65.6096L104.219 65.6091L104.218 65.6089L104.216 65.6086ZM101.041 83.5673L92.297 81.8567C76.4102 79.1212 48.8461 79.0138 33.0623 81.931C32.375 82.0599 31.6976 82.1836 31.0227 82.3069C30.2263 82.4523 29.4332 82.5971 28.6309 82.7492C27.9371 82.8828 27.2433 83.0501 26.5537 83.2164C25.7935 83.3997 25.0386 83.5818 24.2945 83.7161L19.8788 67.5927C20.7706 67.4552 21.7147 67.2196 22.657 66.9845C23.3564 66.81 24.0551 66.6356 24.7305 66.5019C26.2014 66.2011 27.6535 65.9459 29.1424 65.6842L29.1434 65.684L29.709 65.5845C47.8948 62.3698 66.8972 62.6508 85.2019 64.1053C92.1226 64.6589 98.9007 66.0886 105.449 67.5101C105.393 68.3943 101.326 83.1211 101.041 83.5673Z" fill="#006533"/>
<path d="M84.0999 53.1222C81.9913 56.0531 82.7219 56.2677 85.8284 57.1802C86.2957 57.3174 86.8167 57.4705 87.3899 57.6509C87.7842 57.7758 88.2323 57.9227 88.7142 58.0808C90.8484 58.7809 93.6463 59.6987 95.3729 59.874C94.8319 59.4843 93.0892 58.8133 91.1687 58.0738C88.446 57.0254 85.3657 55.8393 84.8451 55.1221C84.9439 54.5637 85.2847 54.1875 85.6121 53.8262C85.968 53.4335 86.3079 53.0583 86.3038 52.4858C86.2971 51.5902 85.1602 51.3303 84.2751 51.128C84.1066 51.0895 83.9473 51.0531 83.8066 51.0148C81.7394 50.4477 79.7712 49.8965 77.6929 49.3144L77.5676 49.2793C74.3966 48.3868 73.9447 47.7753 76.4657 45.6431C76.6662 45.4744 76.8925 45.2933 77.1268 45.1059C77.6614 44.6783 78.2379 44.2171 78.6457 43.7919C79.5891 42.8168 78.5348 41.7176 77.5914 41.4284C77.7181 41.6665 77.8643 41.8581 77.9925 42.0261C78.394 42.5523 78.6196 42.848 77.5201 43.6184C76.9049 44.0437 76.429 44.3861 75.8915 44.7728C75.7501 44.8745 75.6045 44.9793 75.451 45.0894C75.3243 45.18 75.2026 45.2649 75.0855 45.3466C74.4549 45.7863 73.9599 46.1315 73.5721 46.7588C71.9118 49.457 76.8942 50.8608 80.6351 51.9147C82.1991 52.3553 83.546 52.7348 84.0999 53.1222Z" fill="#006533"/>
<path d="M59.2074 43.7341C58.7397 42.6184 56.7499 40.1888 55.5607 39.9243C55.8461 41.8416 57.3365 43.4366 59.2074 43.7341Z" fill="#006533"/>
<path d="M47.8788 85.1789C47.7441 85.1789 47.6648 85.2285 47.5855 85.3442L46.0793 87.5589H45.7701V85.3442C45.7701 85.2532 45.6988 85.1789 45.6195 85.1789H44.4224C44.3352 85.1789 44.2718 85.2532 44.2718 85.3442V91.253C44.2718 91.3439 44.3432 91.4183 44.4224 91.4183H45.6195C45.7067 91.4183 45.7701 91.3439 45.7701 91.253V88.9887H46.0872L47.6173 91.253C47.6965 91.3687 47.7679 91.4183 47.9106 91.4183H49.3296C49.4802 91.4183 49.504 91.2696 49.401 91.1373L47.324 88.187L49.3217 85.4268C49.4089 85.3111 49.3851 85.1789 49.2186 85.1789H47.8788Z" fill="#006533"/>
<path d="M50.3207 90.2035C50.3207 90.1126 50.3841 90.0382 50.4713 90.0382H50.836C51.0976 90.0382 51.2879 90.0217 51.4623 89.9473C51.597 89.8894 51.708 89.8068 51.819 89.6911L49.7658 85.4103C49.7261 85.3194 49.7341 85.1789 49.8847 85.1789H51.2244C51.3592 85.1789 51.4385 85.2615 51.4781 85.3607L52.58 88.0383L53.5313 85.3607C53.571 85.2533 53.6503 85.1789 53.785 85.1789H55.0614C55.212 85.1789 55.2199 85.3194 55.1803 85.4103L53.5234 89.5341C53.3094 90.063 53.0557 90.4514 52.7545 90.7407C52.2392 91.2448 51.6208 91.4183 51.0024 91.4183H50.4713C50.392 91.4183 50.3207 91.3439 50.3207 91.253V90.2035Z" fill="#006533"/>
<path fill-rule="evenodd" clip-rule="evenodd" d="M56.1394 85.1789C56.0522 85.1789 55.9888 85.2532 55.9888 85.3442V91.253C55.9888 91.3439 56.0601 91.4183 56.1394 91.4183H57.3364C57.4236 91.4183 57.487 91.3439 57.487 91.253V89.6663H58.6683C59.1202 89.6663 59.572 89.5754 59.9842 89.2283C60.4599 88.8316 60.7691 88.1953 60.7691 87.4267C60.7691 86.683 60.4837 86.0631 60.0397 85.6665C59.6116 85.278 59.0964 85.1789 58.6207 85.1789H56.1394ZM59.247 87.4267C59.247 87.7903 59.1281 88.0135 58.9378 88.1292C58.803 88.2201 58.6207 88.2614 58.4384 88.2614H57.487V86.592H58.4384C58.6207 86.592 58.7951 86.6251 58.9457 86.7325C59.1281 86.8482 59.247 87.0631 59.247 87.4267Z" fill="#006533"/>
<path fill-rule="evenodd" clip-rule="evenodd" d="M64.7488 85.0961C66.4373 85.0961 67.896 86.3606 67.896 88.3109C67.896 90.2695 66.4294 91.5091 64.7488 91.5091C63.0523 91.5091 61.5936 90.2447 61.5936 88.3109C61.5936 86.3606 63.0602 85.0961 64.7488 85.0961ZM64.7488 90.0051C65.6525 90.0051 66.2946 89.3026 66.2946 88.3109C66.2946 87.3275 65.6525 86.6085 64.7488 86.6085C63.845 86.6085 63.1949 87.3192 63.1949 88.3109C63.1949 89.3026 63.845 90.0051 64.7488 90.0051Z" fill="#006533"/>
<path fill-rule="evenodd" clip-rule="evenodd" d="M69.1328 85.1789C69.0456 85.1789 68.9821 85.2532 68.9821 85.3442V91.253C68.9821 91.3439 69.0535 91.4183 69.1328 91.4183H70.3298C70.417 91.4183 70.4805 91.3439 70.4805 91.253V89.6663H71.6617C72.1135 89.6663 72.5654 89.5754 72.9776 89.2283C73.4533 88.8316 73.7625 88.1953 73.7625 87.4267C73.7625 86.683 73.4771 86.0631 73.0332 85.6665C72.6051 85.278 72.0897 85.1789 71.6141 85.1789H69.1328ZM72.2325 87.4267C72.2325 87.7903 72.1135 88.0135 71.9233 88.1292C71.7885 88.2201 71.6062 88.2614 71.4238 88.2614H70.4725V86.592H71.4238C71.6062 86.592 71.7806 86.6251 71.9312 86.7325C72.1135 86.8482 72.2325 87.0631 72.2325 87.4267Z" fill="#006533"/>
<path d="M74.3568 85.3442C74.3568 85.2532 74.4203 85.1789 74.5075 85.1789H79.2878C79.367 85.1789 79.4384 85.2532 79.4384 85.3442V86.4433C79.4384 86.5342 79.375 86.6086 79.2878 86.6086H77.6468V91.253C77.6468 91.3439 77.5834 91.4183 77.4962 91.4183H76.2991C76.2198 91.4183 76.1485 91.3439 76.1485 91.253V86.6086H74.5075C74.4282 86.6086 74.3568 86.5342 74.3568 86.4433V85.3442Z" fill="#006533"/>
</g>
<defs>
<clipPath id="clip0_32_597">
<rect width="125" height="125" fill="white"/>
</clipPath>
</defs>
</svg>
