<svg width="250" height="250" viewBox="0 0 125 125" fill="none" xmlns="http://www.w3.org/2000/svg">
<path fill-rule="evenodd" clip-rule="evenodd" d="M40.8126 56.8865L31.6512 50V55.207L33.5049 56.5775V53.7409L38.9646 57.847V71.3278L37.1559 70.0415V70.4179V70.5414V72.3501L40.8126 74.9564V56.8865Z" fill="#009291"/>
<path fill-rule="evenodd" clip-rule="evenodd" d="M35.3023 70.5415V68.7216L33.5049 67.4409V58.9199L31.6512 57.5493V68.4351L35.3248 71.047L35.3023 71.0358V70.5415Z" fill="#009291"/>
<path fill-rule="evenodd" clip-rule="evenodd" d="M37.1559 72.3501L35.3247 71.047L37.1559 72.3501Z" fill="#009291"/>
<path fill-rule="evenodd" clip-rule="evenodd" d="M37.1558 59.285L33.5047 56.5776L31.6511 55.2071L28 52.4997V73.1366L29.8536 74.4566V56.2125L31.6511 57.5494L33.5047 58.9199L35.3021 60.2568V68.7216V70.4854V70.5415V71.0358L35.3246 71.0471L37.1558 72.3502V70.5415V70.418V70.0416V59.285Z" fill="#009291"/>
<path fill-rule="evenodd" clip-rule="evenodd" d="M43.0759 57.8807H45.5081C47.0359 57.8807 48.2941 58.4199 48.2941 60.1331C48.2941 61.7789 47.0191 62.5035 45.553 62.5035H44.7386V64.7953H43.0703V57.8807H43.0759ZM45.4688 61.1891C46.2776 61.1891 46.6708 60.8128 46.6708 60.1331C46.6708 59.4366 46.2215 59.1951 45.4238 59.1951H44.7442V61.1947L45.4688 61.1891Z" fill="#009291"/>
<path fill-rule="evenodd" clip-rule="evenodd" d="M53.7148 64.7953L52.4397 62.3631H51.6365V64.7953H49.9683V57.8807H52.5128C53.9956 57.8807 55.2258 58.3806 55.2258 60.0545C55.2258 61.0656 54.754 61.7171 54.035 62.0542L55.5797 64.7896H53.7148V64.7953ZM51.6365 61.0487H52.3836C53.1756 61.0487 53.5968 60.7061 53.5968 60.0545C53.5968 59.4029 53.1756 59.1895 52.3836 59.1895H51.6365V61.0487Z" fill="#009291"/>
<path fill-rule="evenodd" clip-rule="evenodd" d="M57.0511 57.8807H61.4493V59.2569H58.7194V60.5376H61.0392V61.9306H58.7194V63.4022H61.556V64.7953H57.0511V57.8807Z" fill="#009291"/>
<path fill-rule="evenodd" clip-rule="evenodd" d="M63.0895 61.3744C63.0895 59.0715 64.6398 57.7458 66.3979 57.7458C66.7911 57.7458 67.1787 57.8301 67.5438 57.9874C67.9033 58.1447 68.2347 58.3693 68.5043 58.6502L67.628 59.7062C67.2854 59.3916 66.9203 59.167 66.426 59.167C65.5329 59.167 64.797 59.9646 64.797 61.3127C64.797 62.6888 65.4318 63.4864 66.4091 63.4864C66.6619 63.4808 66.9091 63.419 67.1394 63.3123C67.3697 63.2056 67.5719 63.0483 67.7348 62.8573L68.611 63.8965C68.3358 64.2223 67.9875 64.4863 67.5943 64.6604C67.2011 64.8402 66.7742 64.9244 66.3473 64.9188C64.5836 64.9244 63.0895 63.7167 63.0895 61.3744Z" fill="#009291"/>
<path d="M71.7792 57.8807H70.111V64.7953H71.7792V57.8807Z" fill="#009291"/>
<path fill-rule="evenodd" clip-rule="evenodd" d="M73.425 63.9302L74.3687 62.7899C74.863 63.2056 75.5033 63.4976 76.0538 63.4976C76.6717 63.4976 76.9581 63.2673 76.9581 62.8966C76.9581 62.4978 76.5818 62.3686 75.9808 62.1159L75.0933 61.7395C74.3687 61.453 73.689 60.8464 73.689 59.841C73.689 58.6782 74.7338 57.7514 76.2054 57.7514C77.048 57.7514 77.8625 58.0772 78.4635 58.6614L77.6322 59.7005C77.1772 59.3579 76.7447 59.1725 76.2054 59.1725C75.6943 59.1725 75.3741 59.3804 75.3741 59.7511C75.3741 60.1218 75.8123 60.2791 76.4301 60.5206L77.2951 60.8633C78.1546 61.2059 78.6657 61.7845 78.6657 62.7562C78.6657 63.9077 77.694 64.9244 76.0201 64.9244C75.0596 64.9244 74.1328 64.5705 73.425 63.9302Z" fill="#009291"/>
<path d="M81.9685 57.8807H80.3003V64.7953H81.9685V57.8807Z" fill="#009291"/>
<path fill-rule="evenodd" clip-rule="evenodd" d="M83.7319 61.3014C83.7319 59.0321 85.0182 57.7514 86.9112 57.7514C88.8041 57.7514 90.0904 59.0433 90.0904 61.3014C90.0904 63.5594 88.8041 64.93 86.9112 64.93C85.0182 64.93 83.7319 63.5707 83.7319 61.3014ZM88.3941 61.3014C88.3941 59.9645 87.8267 59.1725 86.9112 59.1725C85.9956 59.1725 85.4395 59.9645 85.4395 61.3014C85.4395 62.6382 86.0012 63.492 86.9112 63.492C87.8267 63.492 88.3941 62.6495 88.3941 61.3014Z" fill="#009291"/>
<path fill-rule="evenodd" clip-rule="evenodd" d="M43.076 67.0926H45.497C46.9349 67.0926 48.0808 67.469 48.0808 68.8002C48.0808 69.4125 47.7382 70.0809 47.1765 70.3V70.3393C47.873 70.5246 48.4066 71.047 48.4066 71.9682C48.4066 73.3781 47.2045 74.0128 45.6936 74.0128H43.076V67.0926ZM45.4352 69.8394C46.1429 69.8394 46.4631 69.5304 46.4631 69.0586C46.4631 68.5643 46.1373 68.3621 45.4352 68.3621H44.7443V69.8394H45.4352ZM45.5756 72.7377C46.3789 72.7377 46.7889 72.4513 46.7889 71.8559C46.7889 71.2886 46.3901 71.0639 45.5756 71.0639H44.7443V72.7377H45.5756Z" fill="#009291"/>
<path d="M51.2152 67.0926H49.547V74.0072H51.2152V67.0926Z" fill="#009291"/>
<path fill-rule="evenodd" clip-rule="evenodd" d="M52.5016 70.5134C52.5016 68.2441 53.7879 66.9634 55.6808 66.9634C57.5737 66.9634 58.86 68.2553 58.86 70.5134C58.86 72.7714 57.5737 74.142 55.6808 74.142C53.7879 74.142 52.5016 72.7827 52.5016 70.5134ZM57.1637 70.5134C57.1637 69.1765 56.5964 68.3845 55.6808 68.3845C54.7652 68.3845 54.2091 69.1765 54.2091 70.5134C54.2091 71.8502 54.7708 72.704 55.6808 72.704C56.5908 72.704 57.1637 71.8615 57.1637 70.5134Z" fill="#009291"/>
<path fill-rule="evenodd" clip-rule="evenodd" d="M59.7079 73.1421L60.6515 71.9962C61.1458 72.4175 61.7862 72.704 62.3366 72.704C62.9489 72.704 63.241 72.4737 63.241 72.0973C63.241 71.6985 62.8646 71.5693 62.2636 71.3166L61.3762 70.9402C60.6516 70.6538 59.9663 70.0471 59.9663 69.0473C59.9663 67.8846 61.011 66.9578 62.4827 66.9578C63.3252 66.9578 64.1397 67.2836 64.7407 67.8677L63.9094 68.9069C63.4545 68.5642 63.0219 68.3789 62.4827 68.3789C61.9715 68.3789 61.6514 68.5811 61.6514 68.9518C61.6514 69.3225 62.0895 69.4798 62.7018 69.7214L63.5668 70.064C64.4262 70.4066 64.9373 70.9852 64.9373 71.9569C64.9373 73.1084 63.9656 74.1251 62.2917 74.1251C61.3425 74.1363 60.4212 73.7825 59.7079 73.1421Z" fill="#009291"/>
<path fill-rule="evenodd" clip-rule="evenodd" d="M66.1058 67.0926H70.5096V68.4688H67.7741V69.7551H70.0939V71.1481H67.7741V72.6142H70.6051V74.0072H66.1058V67.0926Z" fill="#009291"/>
<path fill-rule="evenodd" clip-rule="evenodd" d="M78.6711 73.1421L79.6148 71.9962C80.1091 72.4175 80.7494 72.704 81.2999 72.704C81.9122 72.704 82.2042 72.4737 82.2042 72.0973C82.2042 71.6985 81.8223 71.5693 81.2269 71.3166L80.3394 70.9402C79.6148 70.6538 78.9352 70.0471 78.9352 69.0473C78.9352 67.8846 79.9799 66.9578 81.4516 66.9578C82.2941 66.9578 83.103 67.2836 83.7096 67.8677L82.8783 68.9069C82.4233 68.5642 81.9908 68.3789 81.4516 68.3789C80.9404 68.3789 80.6203 68.5811 80.6203 68.9518C80.6203 69.3225 81.0584 69.4798 81.6706 69.7214L82.5357 70.064C83.3951 70.4066 83.9062 70.9852 83.9062 71.9569C83.9062 73.1084 82.9345 74.1251 81.2606 74.1251C80.3057 74.1363 79.3789 73.7825 78.6711 73.1421Z" fill="#009291"/>
<path fill-rule="evenodd" clip-rule="evenodd" d="M84.743 70.5134C84.743 68.2441 86.0294 66.9634 87.9223 66.9634C89.8152 66.9634 91.0959 68.2553 91.0959 70.5134C91.0959 72.7714 89.8096 74.142 87.9167 74.142C86.0237 74.142 84.743 72.7827 84.743 70.5134ZM89.3995 70.5134C89.3995 69.1765 88.8322 68.3845 87.9167 68.3845C87.0011 68.3845 86.445 69.1765 86.445 70.5134C86.445 71.8502 87.0067 72.704 87.9167 72.704C88.8266 72.704 89.3995 71.8615 89.3995 70.5134Z" fill="#009291"/>
<path fill-rule="evenodd" clip-rule="evenodd" d="M96.1345 74.0072L94.8594 71.575H94.0562V74.0072H92.3823V67.0926H94.9268C96.4097 67.0926 97.6398 67.5926 97.6398 69.2664C97.6398 70.2775 97.1624 70.9291 96.4434 71.2661L97.9937 74.0016H96.1345V74.0072ZM94.0562 70.2606H94.8033C95.5953 70.2606 96.0165 69.918 96.0165 69.2664C96.0165 68.6149 95.5953 68.4014 94.8033 68.4014H94.0562V70.2606Z" fill="#009291"/>
<path fill-rule="evenodd" clip-rule="evenodd" d="M95.7862 57.8807V62.3238L95.2863 61.1891L93.5618 57.8807H91.8599V64.7953H93.4439V62.5035C93.4439 62.481 93.4439 62.4642 93.4439 62.4417V60.3129L93.955 61.4531L95.6682 64.7896H97.3646V57.8807H95.7862V57.8807Z" fill="#009291"/>
<path fill-rule="evenodd" clip-rule="evenodd" d="M75.9019 67.0926V69.0923V69.3788V71.5357L75.3963 70.4011L73.6719 67.0926H71.9756V74.0072H73.5652V72.4737V71.7098V69.5304L74.0763 70.6707L75.7895 74.0072H77.4859V67.0926H75.9019Z" fill="#009291"/>
</svg>
