<svg width="125" height="125" viewBox="0 0 125 125" fill="none" xmlns="http://www.w3.org/2000/svg">
<path d="M61.9129 92.8258C78.9856 92.8258 92.8258 78.9856 92.8258 61.9129C92.8258 44.8402 78.9856 31 61.9129 31C44.8402 31 31 44.8402 31 61.9129C31 78.9856 44.8402 92.8258 61.9129 92.8258Z" fill="#009291"/>
<path d="M75.9477 75.9512C83.7011 68.1978 83.7011 55.6272 75.9477 47.8738C68.1944 40.1205 55.6238 40.1205 47.8704 47.8739C40.1171 55.6272 40.1171 68.1978 47.8704 75.9512C55.6238 83.7045 68.1944 83.7045 75.9477 75.9512Z" fill="#F8FAFF"/>
<path fill-rule="evenodd" clip-rule="evenodd" d="M37.7831 69.2742C38.1572 69.2742 38.4633 68.9681 38.4633 68.594C38.4633 68.2198 38.1572 67.9137 37.7831 67.9137C37.4089 67.9137 37.1028 68.2198 37.1028 68.594C37.1028 68.973 37.4089 69.2742 37.7831 69.2742Z" fill="#F8FAFF"/>
<path fill-rule="evenodd" clip-rule="evenodd" d="M86.0426 69.2742C86.4167 69.2742 86.7228 68.9681 86.7228 68.594C86.7228 68.2198 86.4167 67.9137 86.0426 67.9137C85.6684 67.9137 85.3623 68.2198 85.3623 68.594C85.3623 68.973 85.6684 69.2742 86.0426 69.2742Z" fill="#F8FAFF"/>
<path fill-rule="evenodd" clip-rule="evenodd" d="M61.9127 42.0591L63.934 53.0452L70.5277 44.0269L67.5831 54.7993L77.4323 49.537L70.1098 57.9674L81.266 57.4961L71.0087 61.9129L81.266 66.3297L70.1098 65.8584L77.4323 74.2936L67.5831 69.0264L70.5277 79.7989L63.934 70.7806L61.9127 81.7667L59.8865 70.7806L53.2977 79.7989L56.2374 69.0264L46.3882 74.2936L53.7155 65.8584L42.5544 66.3297L52.8166 61.9129L42.5544 57.4961L53.7155 57.9674L46.3882 49.537L56.2374 54.7993L53.2977 44.0269L59.8865 53.0452L61.9127 42.0591Z" fill="#009291"/>
<path d="M61.9125 68.6135C65.6131 68.6135 68.613 65.6136 68.613 61.913C68.613 58.2124 65.6131 55.2124 61.9125 55.2124C58.2118 55.2124 55.2119 58.2124 55.2119 61.913C55.2119 65.6136 58.2118 68.6135 61.9125 68.6135Z" fill="#F8FAFF"/>
<path fill-rule="evenodd" clip-rule="evenodd" d="M65.3868 65.2656C65.173 65.2559 64.9641 65.2462 64.76 65.2364C64.556 65.2316 64.347 65.2267 64.1332 65.2267C63.9777 65.2267 63.8174 65.2267 63.6522 65.2316C63.487 65.2364 63.3266 65.2413 63.1711 65.2462C63.1517 65.2462 63.142 65.2364 63.1371 65.2122C63.1323 65.1927 63.142 65.1781 63.1614 65.1733C63.1906 65.1636 63.2197 65.1538 63.2537 65.1441C63.2829 65.1393 63.312 65.1344 63.346 65.1344C63.4238 65.1344 63.4918 65.1004 63.5453 65.0372C63.5987 64.9741 63.6424 64.8963 63.6765 64.804C63.7105 64.7117 63.7348 64.6194 63.7445 64.527C63.7542 64.4347 63.7639 64.3521 63.7639 64.2841V58.9878H59.9593V64.2987C59.9593 64.5756 60.0274 64.7846 60.1634 64.9255C60.2995 65.0664 60.4987 65.1441 60.7611 65.1684C60.7805 65.1684 60.7902 65.1781 60.7902 65.2024C60.7902 65.2267 60.7805 65.2364 60.7611 65.2364C60.6396 65.2364 60.5181 65.2364 60.3918 65.2364C60.2654 65.2364 60.1391 65.2413 60.0128 65.2462C59.9205 65.2462 59.8184 65.2462 59.6969 65.251C59.5755 65.2559 59.4734 65.2559 59.3811 65.2559C59.2791 65.2559 59.1722 65.2559 59.0701 65.2559C58.9681 65.2559 58.8612 65.251 58.7543 65.2462C58.7251 65.2462 58.6863 65.2462 58.6425 65.2413C58.5988 65.2364 58.56 65.2364 58.5308 65.2364C58.5114 65.2364 58.5016 65.2267 58.4968 65.2024C58.4919 65.183 58.5016 65.1684 58.5211 65.1636C58.662 65.1393 58.7689 65.1101 58.8515 65.0761C58.9341 65.0421 58.9973 64.9984 59.0361 64.9498C59.0799 64.8963 59.1041 64.8283 59.1187 64.7457C59.1284 64.6631 59.1382 64.5465 59.1382 64.4104V59.1773C59.1382 58.9878 59.0653 58.8469 58.9146 58.7545C58.764 58.6622 58.6085 58.6088 58.4385 58.6039V58.531C58.628 58.5456 58.8126 58.5553 58.9924 58.5651C59.1722 58.5748 59.3568 58.5796 59.5366 58.5796C62.4714 58.5893 64.036 58.5991 64.2304 58.5991C64.5462 58.5991 64.8669 58.5893 65.1925 58.5699C65.2119 58.5699 65.2216 58.5796 65.2265 58.6039C65.2313 58.6234 65.2216 58.6379 65.2022 58.6428C65.0224 58.6768 64.8718 58.7303 64.76 58.7934C64.6483 58.8566 64.5899 58.9926 64.5899 59.2064V64.2452C64.5899 64.5368 64.6531 64.7505 64.7795 64.8915C64.9058 65.0324 65.1147 65.1247 65.3966 65.1733L65.3868 65.2656Z" fill="#009291"/>
<path fill-rule="evenodd" clip-rule="evenodd" d="M41.3447 52.8898C41.2912 53.0356 41.2426 53.1813 41.1989 53.3271C41.1551 53.4729 41.1114 53.6186 41.0677 53.7693C41.0337 53.881 41.0045 53.9928 40.9754 54.1094C40.9462 54.226 40.9171 54.3378 40.8879 54.4544C40.883 54.469 40.8733 54.4738 40.8588 54.469C40.8442 54.469 40.8344 54.4592 40.8344 54.4447C40.8296 54.4204 40.8296 54.3961 40.8344 54.3766C40.8344 54.3524 40.8393 54.3329 40.8442 54.3086C40.8587 54.2552 40.849 54.2017 40.815 54.1483C40.781 54.0948 40.7373 54.0511 40.679 54.0074C40.6207 53.9636 40.5624 53.9296 40.4943 53.9053C40.4312 53.8762 40.3728 53.8567 40.3291 53.8422L36.5828 52.778L35.82 55.4699L39.5808 56.5389C39.7801 56.5972 39.9404 56.5875 40.0667 56.5195C40.1931 56.4514 40.2902 56.33 40.3583 56.1453C40.3631 56.1307 40.3728 56.1307 40.3874 56.1356C40.4069 56.1405 40.4117 56.1502 40.4069 56.1599C40.3826 56.2425 40.3583 56.33 40.334 56.4223C40.3097 56.5097 40.2854 56.6021 40.2659 56.6895C40.2465 56.7527 40.2271 56.8304 40.2076 56.913C40.1833 57.0005 40.1639 57.0734 40.1493 57.1366C40.1299 57.2094 40.1056 57.2823 40.0862 57.3552C40.0667 57.4281 40.0424 57.501 40.0181 57.5787C40.0133 57.5982 40.0036 57.6273 39.9938 57.6565C39.9841 57.6856 39.9744 57.7148 39.9696 57.7342C39.9647 57.7488 39.955 57.7536 39.9404 57.7488C39.9258 57.7488 39.9161 57.7391 39.9161 57.7245C39.9258 57.6224 39.9307 57.535 39.921 57.4718C39.9161 57.4087 39.8967 57.3552 39.8675 57.3163C39.8383 57.2775 39.7946 57.2434 39.7412 57.2191C39.6829 57.1949 39.6051 57.1657 39.5079 57.1366L35.8054 56.087C35.6742 56.0481 35.5576 56.0724 35.4604 56.1599C35.3632 56.2474 35.2952 56.3494 35.2563 56.466L35.2029 56.4514C35.2515 56.3202 35.2952 56.1939 35.3389 56.0676C35.3826 55.9412 35.4215 55.8149 35.4604 55.6837C36.058 53.6089 36.3788 52.5011 36.4176 52.365C36.4808 52.1415 36.5391 51.9131 36.5925 51.6799C36.5974 51.6653 36.6071 51.6605 36.6217 51.6653C36.6363 51.6653 36.646 51.675 36.646 51.6896C36.6363 51.8257 36.6411 51.9374 36.6654 52.0297C36.6897 52.1221 36.7723 52.1901 36.923 52.2338L40.4895 53.2445C40.6935 53.3028 40.8587 53.3028 40.9851 53.2396C41.1114 53.1765 41.2183 53.0501 41.3058 52.8606L41.3447 52.8898ZM41.607 45.543C41.7674 45.6547 41.9034 45.7957 42.0152 45.9609C42.127 46.1261 42.2047 46.3059 42.2533 46.4905C42.3019 46.6751 42.3116 46.8646 42.2873 47.059C42.263 47.2534 42.1901 47.4331 42.0735 47.5983C42.0006 47.7004 41.9131 47.7927 41.8062 47.885C41.7965 47.8947 41.782 47.8899 41.7674 47.8802C41.7528 47.8704 41.7528 47.8559 41.7625 47.851C41.782 47.8316 41.7965 47.8121 41.8111 47.7927C41.8257 47.7733 41.8403 47.749 41.8597 47.7295C41.9617 47.5886 42.0298 47.4429 42.0638 47.3019C42.0978 47.1562 42.1027 47.0153 42.0735 46.8792C42.0443 46.7432 41.986 46.612 41.9034 46.4856C41.816 46.3593 41.7042 46.2524 41.5681 46.1504C41.4467 46.0629 41.3058 45.9949 41.1551 45.9463C41.0045 45.8977 40.8539 45.8734 40.6984 45.8783C40.5478 45.8831 40.402 45.9171 40.2611 45.9803C40.125 46.0435 40.0084 46.1407 39.9112 46.2767C39.8238 46.3982 39.7606 46.5537 39.7217 46.7286L42.9724 49.0415C43.1425 49.1629 43.2931 49.2115 43.4194 49.1921C43.5458 49.1727 43.6721 49.0803 43.8033 48.9103C43.813 48.9006 43.8227 48.9006 43.8373 48.9103C43.8519 48.92 43.8567 48.9297 43.847 48.9443L43.2542 49.7752C43.1959 49.8578 43.1376 49.9404 43.0745 50.0278C43.0161 50.1104 42.953 50.1931 42.8898 50.2757C42.8801 50.2854 42.8704 50.2902 42.8558 50.2805C42.8412 50.2708 42.8363 50.2611 42.8412 50.2514C42.8898 50.1493 42.9238 50.0667 42.9335 49.9987C42.9432 49.9307 42.9384 49.8675 42.9092 49.8189C42.8849 49.7655 42.8412 49.7169 42.7829 49.6731C42.7246 49.6245 42.6517 49.5711 42.5642 49.5128L39.542 47.3651C39.4885 47.3262 39.4302 47.3068 39.3622 47.3019C39.299 47.2971 39.2358 47.3019 39.1727 47.3165C39.1095 47.3311 39.0463 47.3554 38.988 47.3894C38.9297 47.4234 38.8763 47.4623 38.8325 47.5012C38.8228 47.5109 38.8131 47.5109 38.8034 47.5012C38.7937 47.4914 38.7937 47.4817 38.7985 47.472C38.9054 47.336 39.0123 47.1999 39.1144 47.059C39.2164 46.9181 39.3184 46.782 39.4156 46.646L39.8967 45.9706C40.0133 45.8054 40.1347 45.6693 40.2562 45.5576C40.3777 45.4458 40.5089 45.3681 40.6498 45.3292C40.7859 45.2903 40.9365 45.2855 41.092 45.3195C41.2523 45.3243 41.4224 45.4118 41.607 45.543ZM48.4534 43.0892L48.4145 43.1135C48.5019 43.303 48.5214 43.4925 48.4679 43.6723C48.4145 43.8569 48.3076 44.0124 48.1424 44.1387C48.0792 44.1873 48.0112 44.2311 47.9334 44.2699C47.8557 44.3088 47.7731 44.338 47.6905 44.3574C47.6079 44.3768 47.5253 44.3865 47.4378 44.3865C47.3504 44.3865 47.2677 44.3671 47.1851 44.338L46.0482 42.8803L46.262 42.7102C46.296 42.6811 46.3494 42.6422 46.4174 42.5887C46.4903 42.5304 46.5681 42.477 46.6458 42.4235C46.7235 42.3701 46.8013 42.3263 46.879 42.2875C46.9568 42.2486 47.0151 42.234 47.054 42.2437C47.1026 42.2486 47.1463 42.2632 47.1754 42.2826C47.2095 42.302 47.2386 42.3215 47.2678 42.3458C47.2969 42.3701 47.3261 42.3895 47.3601 42.4089C47.3892 42.4284 47.4233 42.4381 47.4524 42.443C47.467 42.443 47.4718 42.4381 47.4816 42.4284C47.4864 42.4187 47.4864 42.4089 47.4767 42.3992C47.433 42.3263 47.3892 42.2535 47.3455 42.1854C47.3018 42.1125 47.258 42.0397 47.2143 41.9619C47.1803 41.9036 47.1463 41.8453 47.1123 41.787C47.0783 41.7238 47.0394 41.6655 47.0005 41.6024C46.9859 41.5829 46.9714 41.5829 46.9568 41.6024C46.9325 41.6315 46.913 41.6607 46.8936 41.6947C46.8742 41.7287 46.8547 41.7627 46.8402 41.7967C46.8159 41.8453 46.7916 41.889 46.7673 41.9376C46.743 41.9814 46.7187 42.0154 46.6944 42.0348L45.8684 42.6811L44.6973 41.1893L45.261 40.7472C45.4165 40.6257 45.5671 40.548 45.7129 40.5237C45.8587 40.4994 46.0044 40.5674 46.1502 40.7277C46.1599 40.7374 46.1696 40.7374 46.1842 40.7326C46.1988 40.7229 46.2036 40.7132 46.1988 40.6986C46.1891 40.6791 46.1794 40.6597 46.1745 40.6451C46.1696 40.6306 46.1599 40.6111 46.1502 40.5917C46.1016 40.4848 46.0433 40.373 45.9898 40.2613C45.9315 40.1495 45.8684 40.0378 45.8052 39.9309C45.7858 39.9066 45.7712 39.9114 45.7615 39.9406C45.7469 39.9697 45.7129 40.0086 45.6594 40.062C45.606 40.1155 45.5331 40.1787 45.4505 40.2516C45.3679 40.3244 45.2756 40.4022 45.1687 40.4848C45.0618 40.5722 44.9549 40.6597 44.8431 40.7472C44.6973 40.8638 44.5419 40.9853 44.3767 41.1067C44.2163 41.2331 44.0705 41.34 43.9539 41.4274L43.6332 41.6801C43.6284 41.685 43.6235 41.6947 43.6235 41.7044C43.6235 41.7141 43.6332 41.719 43.6429 41.719C43.7013 41.719 43.7547 41.7093 43.7984 41.6947C43.8422 41.6801 43.881 41.6655 43.9248 41.6412C43.9636 41.6218 43.9976 41.6072 44.0317 41.5975C44.0657 41.5878 44.0997 41.5781 44.1337 41.5829C44.1677 41.5829 44.2017 41.5926 44.2406 41.6169C44.2746 41.6364 44.3135 41.6752 44.3572 41.7238L46.6895 44.6927C46.7381 44.7558 46.7818 44.819 46.8207 44.8919C46.8596 44.9599 46.8839 45.0279 46.8985 45.096C46.9131 45.164 46.9082 45.2272 46.8839 45.2952C46.8596 45.3584 46.8159 45.4264 46.7381 45.4895L46.7721 45.5333C46.879 45.4361 46.9859 45.3486 47.0977 45.2563C47.2094 45.1688 47.3212 45.0814 47.433 44.9939C47.5447 44.9065 47.6565 44.819 47.7682 44.7364C47.88 44.6538 47.9869 44.5663 48.1035 44.4789C48.2201 44.3963 48.3319 44.3088 48.4436 44.2213C48.5554 44.1339 48.6671 44.0464 48.7789 43.959L48.8469 43.8812C48.8469 43.8618 48.8518 43.8569 48.8566 43.8569C48.8712 43.8472 48.8712 43.8326 48.8615 43.8181L48.774 43.6771L48.7789 43.682C48.7255 43.5848 48.672 43.4925 48.6186 43.3953C48.5554 43.2836 48.502 43.1912 48.4534 43.0892ZM52.739 41.7724C52.53 41.8647 52.3503 41.9279 52.1851 41.9619C52.0247 41.9959 51.8935 42.0105 51.7866 42.0105C51.7332 42.0056 51.6894 41.9911 51.6603 41.9668C51.6311 41.9425 51.6068 41.9085 51.5874 41.8745C51.5388 41.7773 51.4902 41.6655 51.4416 41.5392C51.3979 41.4177 51.3639 41.3205 51.3396 41.2525C51.325 41.1893 51.3299 41.1553 51.3493 41.1456C51.359 41.1407 51.3736 41.1408 51.3833 41.1505C51.393 41.1602 51.4125 41.1845 51.4368 41.2234C51.5534 41.4517 51.7235 41.5975 51.9421 41.6558C52.1608 41.7141 52.428 41.6704 52.7487 41.5246C52.909 41.4517 53.0499 41.3594 53.1714 41.2476C53.288 41.1359 53.3804 41.0144 53.4484 40.8735C53.5116 40.7326 53.5456 40.582 53.5407 40.4168C53.5407 40.2516 53.497 40.0815 53.4192 39.9017C53.3318 39.7025 53.2152 39.547 53.0791 39.4304C52.943 39.3186 52.7924 39.236 52.6321 39.1923C52.4717 39.1486 52.3017 39.1388 52.1316 39.1583C51.9615 39.1777 51.7963 39.2214 51.636 39.2846C51.4902 39.3478 51.4028 39.3575 51.3882 39.3186C51.3736 39.2895 51.4416 39.2312 51.5826 39.1437C51.8741 38.9834 52.0636 38.789 52.1607 38.5606C52.2579 38.3322 52.2434 38.0747 52.1073 37.7832C52.0636 37.6811 52.0004 37.584 51.9227 37.4868C51.8449 37.3896 51.7526 37.3119 51.6409 37.2536C51.5291 37.1952 51.3979 37.1612 51.2521 37.1612C51.1063 37.1564 50.9412 37.2001 50.7565 37.2827C50.4893 37.4042 50.3192 37.5548 50.2512 37.7346C50.1831 37.9144 50.1929 38.1136 50.2852 38.3322C50.3046 38.3906 50.3046 38.4246 50.2755 38.4391C50.2463 38.4537 50.222 38.4343 50.1977 38.3808C50.1443 38.2788 50.0908 38.1719 50.0325 38.0601C49.9742 37.9484 49.9305 37.8609 49.9013 37.7929C49.8868 37.7589 49.877 37.7346 49.8722 37.7103C49.8673 37.686 49.877 37.6666 49.8965 37.6471C49.9305 37.6228 49.9694 37.5937 50.0179 37.5597C50.0665 37.5257 50.12 37.4868 50.1783 37.4382C50.2706 37.3605 50.3678 37.2876 50.4747 37.2195C50.5816 37.1515 50.7079 37.0835 50.8537 37.0155C51.1064 36.9037 51.3299 36.8405 51.5194 36.8308C51.7137 36.8211 51.8789 36.8454 52.0198 36.8989C52.1608 36.9523 52.2725 37.03 52.36 37.1224C52.4474 37.2195 52.5106 37.3119 52.5544 37.4042C52.6224 37.5499 52.6564 37.6957 52.6564 37.8366C52.6564 37.9824 52.6369 38.1136 52.5932 38.2399C52.5495 38.3663 52.4912 38.4829 52.4231 38.5898C52.3503 38.6967 52.2774 38.7841 52.1996 38.8619C52.1899 38.8765 52.1948 38.8813 52.2094 38.8813C52.326 38.8522 52.4669 38.8327 52.6272 38.823C52.7876 38.8133 52.9479 38.8279 53.1131 38.8667C53.2783 38.9056 53.4338 38.9785 53.5747 39.0805C53.7205 39.1826 53.8323 39.3235 53.9149 39.513C54.0072 39.7219 54.0509 39.9309 54.046 40.1447C54.0412 40.3585 53.9877 40.5625 53.8857 40.7666C53.7885 40.9658 53.6427 41.1553 53.4484 41.3303C53.254 41.4955 53.0208 41.6461 52.739 41.7724ZM58.9536 39.066C59.08 38.8862 59.2257 38.6821 59.3909 38.4489C59.5561 38.2156 59.7311 37.9727 59.9108 37.72C60.0906 37.4673 60.2801 37.205 60.4696 36.9426C60.6591 36.6802 60.8389 36.4227 61.0138 36.1797C61.1888 35.9368 61.3442 35.7132 61.49 35.5043C61.6358 35.2954 61.7573 35.1205 61.8593 34.9795C61.9711 34.8192 62.0585 34.7074 62.1168 34.6443C62.1752 34.5811 62.2237 34.5471 62.2626 34.5422C62.282 34.5422 62.2966 34.5471 62.3063 34.5568C62.316 34.5665 62.3306 34.5957 62.3403 34.6394C62.3549 34.6831 62.3646 34.7463 62.3744 34.8289C62.3841 34.9115 62.3938 35.0233 62.4084 35.169C62.457 35.791 62.5007 36.3886 62.5493 36.962C62.593 37.5354 62.6464 38.133 62.6999 38.7501C62.7242 38.9931 62.7582 39.168 62.7971 39.2652C62.8408 39.3624 62.9137 39.4207 63.0255 39.4304C63.0449 39.4352 63.0789 39.4352 63.1275 39.4352C63.1809 39.4352 63.2295 39.4352 63.283 39.4352C63.3219 39.4352 63.351 39.4401 63.3656 39.4498C63.3802 39.4595 63.385 39.4644 63.3899 39.4741C63.3899 39.5033 63.3607 39.5227 63.2927 39.5276C63.2295 39.5324 63.1518 39.5373 63.0595 39.5421C62.9672 39.547 62.87 39.5519 62.7777 39.5567C62.6805 39.5616 62.593 39.5664 62.5153 39.5713C62.4375 39.5762 62.3841 39.5762 62.3598 39.581C62.282 39.5859 62.1946 39.5956 62.0925 39.6102C61.9905 39.6247 61.8787 39.6345 61.7621 39.6442C61.7232 39.649 61.6941 39.6442 61.6795 39.6393C61.6649 39.6345 61.6601 39.6247 61.6552 39.6102C61.6552 39.5907 61.6601 39.581 61.6698 39.5713C61.6795 39.5616 61.7087 39.5567 61.7524 39.547C61.7816 39.5421 61.8156 39.5324 61.8496 39.5276C61.8836 39.5227 61.9127 39.513 61.9468 39.5033C62.0439 39.4741 62.0974 39.3915 62.112 39.2555C62.1266 39.1194 62.1266 38.925 62.112 38.6675C62.078 38.1185 62.0439 37.584 62.0051 37.0592C61.9662 36.5344 61.9273 35.9854 61.8933 35.4169C61.8544 35.4752 61.7816 35.5772 61.6795 35.723C61.5775 35.8687 61.456 36.0437 61.3151 36.2477C61.1742 36.4518 61.0187 36.6705 60.8486 36.9134C60.6786 37.1564 60.5037 37.3993 60.3287 37.6471C60.1538 37.8949 59.9789 38.1379 59.8137 38.376C59.6436 38.6141 59.4881 38.8327 59.3521 39.0222C59.2112 39.2166 59.0945 39.3769 58.9973 39.513C58.9002 39.6442 58.837 39.7316 58.803 39.7754C58.7398 39.858 58.6864 39.9114 58.6524 39.9357C58.6184 39.9649 58.5892 39.9795 58.5698 39.9795C58.5357 39.9843 58.5115 39.9649 58.4969 39.926C58.4823 39.8871 58.4726 39.7997 58.4629 39.6685C58.4434 39.3915 58.4191 39.1 58.3997 38.7939C58.3803 38.4829 58.356 38.167 58.3317 37.8463C58.3074 37.5208 58.2831 37.1952 58.2588 36.8648C58.2345 36.5344 58.2053 36.2089 58.1762 35.8882C58.1616 35.7084 58.147 35.5626 58.1276 35.4606C58.1082 35.3585 58.0839 35.2808 58.0547 35.2225C58.0255 35.169 57.9916 35.135 57.9575 35.1205C57.9187 35.1059 57.8749 35.0962 57.8215 35.0913C57.7778 35.0864 57.734 35.0864 57.7 35.0864C57.666 35.0913 57.632 35.0913 57.6077 35.0864C57.5591 35.0864 57.5348 35.0719 57.53 35.0476C57.53 35.0233 57.5397 35.0087 57.5688 35.0038C57.5931 34.999 57.6271 34.9941 57.6611 34.9893C57.7146 34.9844 57.7777 34.9795 57.8458 34.9795C57.9187 34.9747 57.9915 34.9747 58.0644 34.9698C58.1373 34.965 58.2054 34.965 58.2637 34.9601C58.322 34.9552 58.3657 34.9553 58.3948 34.9553C58.5017 34.9455 58.6135 34.9358 58.735 34.9212C58.8564 34.9067 58.9633 34.8921 59.0557 34.8872C59.1334 34.8824 59.1674 34.8921 59.1723 34.9164C59.1723 34.931 59.1674 34.9407 59.1577 34.9504C59.148 34.9601 59.1237 34.9698 59.0897 34.9747C59.0508 34.9844 59.0168 34.9844 58.9973 34.9893C58.9731 34.9893 58.9488 34.999 58.9196 35.0087C58.871 35.0233 58.8322 35.0379 58.8079 35.0622C58.7787 35.0865 58.7593 35.1204 58.7447 35.169C58.7301 35.2176 58.7204 35.2857 58.7204 35.3683C58.7155 35.4509 58.7204 35.5675 58.7252 35.7084L58.9536 39.066ZM69.9495 41.1748C69.9107 41.165 69.8718 41.1553 69.8378 41.1456V41.1407C69.6385 41.0727 69.3276 40.9658 68.8951 40.8152C68.1323 40.548 67.7241 40.4022 67.6658 40.3682C67.5929 40.3342 67.52 40.3001 67.452 40.2661L67.3986 40.2418L67.2625 40.1884L67.1799 40.1592C67.0147 40.1155 66.8787 40.1106 66.762 40.1447C66.6308 40.1884 66.5288 40.3099 66.4656 40.5042C66.4608 40.5188 66.451 40.5237 66.4365 40.5188C66.4219 40.5139 66.4122 40.5091 66.4122 40.4945C66.4268 40.3633 66.4413 40.237 66.4559 40.1058L66.4753 39.9697V39.9503C66.4899 39.8774 66.5045 39.7997 66.5142 39.7268L66.5337 39.615C66.5337 39.6053 66.5385 39.5956 66.5531 39.5907C66.5677 39.5859 66.5774 39.5859 66.5823 39.5956C66.6503 39.6588 66.7377 39.7122 66.8349 39.7608C66.8981 39.7899 66.9661 39.8191 67.0293 39.8483C67.0584 39.824 67.0876 39.7948 67.1265 39.7559C67.2091 39.6782 67.3111 39.5713 67.4277 39.445C67.5443 39.3138 67.6804 39.168 67.831 38.9979C67.9816 38.8279 68.142 38.6529 68.3072 38.4683C68.4724 38.2837 68.6425 38.0942 68.8174 37.8998C68.9923 37.7054 69.1575 37.5208 69.3179 37.341C69.4491 37.1952 69.5705 37.0543 69.692 36.9231C69.8135 36.7871 69.9252 36.6608 70.0273 36.5441C70.1293 36.4275 70.2216 36.3255 70.3042 36.238C70.3868 36.1506 70.4451 36.0874 70.4889 36.0388C70.4937 36.0339 70.5034 36.0291 70.5132 36.034C70.5229 36.0388 70.5278 36.0437 70.5326 36.0534C70.6298 36.515 70.6929 36.9717 70.7172 37.4285C70.7415 37.8852 70.761 38.342 70.7658 38.7987L70.7853 39.3284C70.7901 39.5033 70.7999 39.6782 70.8047 39.8483C70.8096 39.8823 70.8096 39.9211 70.8096 39.96C70.8096 40.0037 70.8096 40.0426 70.8096 40.0815C70.8193 40.2516 70.829 40.4313 70.8436 40.616C70.8582 40.8006 70.8825 40.9707 70.9165 41.1165C70.9213 41.1359 70.9213 41.1553 70.9262 41.1699H70.931C71.0428 41.2088 71.1497 41.2379 71.2615 41.2622C71.3732 41.2865 71.4752 41.2962 71.5676 41.2865C71.5773 41.2817 71.587 41.2865 71.5967 41.3011C71.6016 41.3157 71.6016 41.3254 71.5967 41.3351L71.5433 41.4372C71.4801 41.5538 71.4169 41.6655 71.3538 41.7773C71.2906 41.889 71.2274 42.0008 71.1594 42.1125C71.1497 42.1223 71.14 42.1271 71.1254 42.1174C71.1108 42.1125 71.106 42.098 71.1108 42.0883C71.1788 41.8939 71.1691 41.7384 71.0914 41.6218C71.0622 41.5829 71.0282 41.5489 70.9845 41.5149L70.8679 41.4663C70.7221 41.408 70.5763 41.3497 70.4306 41.2962L70.382 41.2768C70.3334 41.2671 70.2848 41.2525 70.2313 41.2379L70.139 41.2185V41.2476C70.1244 41.2428 70.0564 41.2185 69.9495 41.1748ZM70.207 40.9027C70.2216 40.8492 70.2265 40.7763 70.2313 40.684C70.2411 40.5577 70.2459 40.407 70.2459 40.2321C70.2459 40.0572 70.2411 39.8677 70.2313 39.6588C70.2216 39.4498 70.2119 39.2409 70.1973 39.0222L70.1633 38.3711C70.1536 38.1525 70.1439 37.9484 70.1293 37.7589C70.1147 37.5645 70.105 37.4042 70.0953 37.273C70.0856 37.1418 70.0807 37.0349 70.0807 36.9426C70.0175 37.0155 69.9495 37.0932 69.8766 37.1758C69.8038 37.2584 69.7212 37.3459 69.6337 37.4382C69.4442 37.6471 69.2401 37.8755 69.0166 38.1185C68.7931 38.3663 68.5793 38.6092 68.3752 38.8473C68.1711 39.0902 67.9913 39.3138 67.8407 39.5276C67.7095 39.7122 67.6123 39.8725 67.5589 40.0037C67.5832 40.0086 67.6124 40.0135 67.6367 40.0232L70.207 40.9027ZM76.825 44.1533C76.7472 44.2262 76.6647 44.3039 76.5918 44.3865C76.5189 44.4692 76.4412 44.5469 76.3634 44.6198L76.3682 44.6149L76.2565 44.7364C76.2468 44.751 76.2322 44.7558 76.2176 44.7413C76.2225 44.7364 76.2128 44.7364 76.1933 44.7413L76.101 44.6975C75.9844 44.6149 75.8678 44.5323 75.7512 44.4497C75.6346 44.3671 75.5179 44.2845 75.4062 44.1971C75.2896 44.1145 75.1778 44.0318 75.066 43.9492C74.9543 43.8666 74.8425 43.784 74.7259 43.7014C74.6093 43.6188 74.4927 43.5362 74.3761 43.4536C74.2595 43.371 74.1428 43.2933 74.0214 43.2155L74.0505 43.1718C74.1331 43.2252 74.2109 43.2544 74.2789 43.2544C74.3469 43.2593 74.4149 43.2447 74.4733 43.2107C74.5316 43.1815 74.5899 43.1378 74.6433 43.0795C74.6968 43.0212 74.7502 42.9629 74.7939 42.8948L76.9805 39.8191C77.0194 39.7656 77.0437 39.7171 77.0534 39.6782C77.0631 39.6393 77.0631 39.6004 77.0534 39.5664C77.0437 39.5324 77.0291 39.5033 77.0096 39.4741C76.9902 39.445 76.9659 39.4158 76.9368 39.3867C76.9076 39.3526 76.8784 39.3186 76.8541 39.2798C76.8298 39.2409 76.8056 39.1972 76.7861 39.1388C76.7861 39.1243 76.7861 39.1194 76.7958 39.1146C76.8056 39.1097 76.8104 39.1097 76.8201 39.1146L77.1506 39.3526C77.2672 39.4401 77.4081 39.547 77.5733 39.6685C77.7385 39.7899 77.8988 39.9017 78.0543 40.0135C78.1709 40.0961 78.2875 40.1787 78.3993 40.2516C78.5111 40.3293 78.6131 40.3973 78.7054 40.4556C78.7977 40.5139 78.8755 40.5625 78.9484 40.6014C79.0164 40.6403 79.065 40.6597 79.0942 40.6646C79.1282 40.6646 79.133 40.6791 79.1136 40.7034C79.031 40.7958 78.9435 40.8881 78.8512 40.9755C78.7589 41.063 78.6666 41.1456 78.5791 41.2234C78.5645 41.2379 78.5499 41.2525 78.5354 41.2622C78.5208 41.2719 78.5062 41.2865 78.4916 41.3011C78.4819 41.3108 78.4674 41.306 78.4576 41.2962C78.4479 41.2865 78.4431 41.2768 78.4528 41.2622C78.5645 41.0727 78.5888 40.9124 78.5208 40.7812C78.4576 40.65 78.341 40.5285 78.1758 40.4119L77.5927 39.9989L76.4946 41.544L77.3498 42.1514C77.3741 42.1709 77.4129 42.1854 77.4615 42.1952C77.5101 42.2049 77.5636 42.2146 77.617 42.2243C77.6559 42.2292 77.6947 42.2389 77.7336 42.2486C77.7725 42.2583 77.8065 42.268 77.8405 42.2826C77.8648 42.2875 77.8697 42.302 77.8503 42.3215C77.8017 42.3749 77.7531 42.4284 77.7045 42.477C77.6559 42.5304 77.6122 42.579 77.5636 42.6276C77.5004 42.6908 77.4421 42.7539 77.3838 42.8171C77.3255 42.8754 77.272 42.9386 77.2137 43.0017C77.204 43.0115 77.1943 43.0163 77.1846 43.0115C77.1748 43.0066 77.1651 43.0017 77.1651 42.9872C77.1603 42.958 77.1603 42.924 77.17 42.89C77.1797 42.856 77.1894 42.822 77.204 42.7879C77.2186 42.7539 77.2283 42.7199 77.238 42.6811C77.2477 42.6422 77.2477 42.6033 77.238 42.5498C77.2332 42.511 77.204 42.4575 77.1457 42.3944C77.0874 42.3312 77.0242 42.2729 76.9513 42.2097C76.8784 42.1466 76.8007 42.0931 76.7278 42.0348C76.655 41.9813 76.6015 41.9425 76.5626 41.9182L76.3391 41.7578L75.2604 43.2641C75.2507 43.3516 75.2604 43.4342 75.2847 43.5168C75.309 43.5994 75.343 43.6771 75.3867 43.75C75.4305 43.8229 75.4791 43.8909 75.5374 43.959C75.5957 44.0221 75.6589 44.0756 75.722 44.1242C75.8921 44.2456 76.0719 44.304 76.2614 44.304C76.4509 44.304 76.6258 44.2311 76.7861 44.095L76.825 44.1533ZM81.4556 51.0045L81.5042 50.9802C81.4119 50.7907 81.3827 50.6255 81.4119 50.4895C81.441 50.3534 81.5431 50.2222 81.718 50.1007L84.7403 47.9531C84.8666 47.8607 84.9735 47.8364 85.061 47.8753C85.1485 47.9142 85.2408 47.9822 85.338 48.0745C85.3477 48.0843 85.3623 48.0794 85.372 48.0697C85.3817 48.06 85.3866 48.0502 85.3768 48.0357C85.2262 47.8462 85.0853 47.6567 84.9492 47.472C84.8666 47.3554 84.784 47.2339 84.7063 47.1124C84.6285 46.991 84.5508 46.8646 84.473 46.7432C84.4633 46.7334 84.4536 46.7286 84.4391 46.7383C84.4245 46.7432 84.4196 46.7577 84.4245 46.7675L84.4682 46.8987C84.4828 46.9521 84.5022 47.0055 84.5168 47.0493C84.5362 47.0979 84.5411 47.1416 84.5411 47.1902C84.5411 47.2388 84.5265 47.2825 84.5022 47.3214C84.4779 47.3651 84.4342 47.4089 84.371 47.4526L83.1077 48.3515L81.4848 46.0726L82.7724 45.1543C82.8744 45.0814 82.9765 45.062 83.0882 45.096C83.1951 45.13 83.2875 45.1931 83.3603 45.2855C83.3701 45.2952 83.3798 45.2952 83.3944 45.2855C83.4089 45.2757 83.4138 45.266 83.4041 45.2514C83.3895 45.232 83.3749 45.2126 83.3603 45.1931C83.3409 45.1737 83.3263 45.1543 83.3166 45.1348C83.2535 45.0522 83.1903 44.9745 83.132 44.8919C83.0688 44.8093 83.0105 44.7267 82.9522 44.6441C82.8745 44.5372 82.8016 44.4254 82.7287 44.3137C82.6558 44.2019 82.5829 44.0853 82.51 43.9687L82.4663 43.9978C82.5343 44.0999 82.5732 44.2165 82.5781 44.3477C82.5829 44.4789 82.5343 44.5809 82.4177 44.6587L79.2836 46.8889C79.201 46.9472 79.1282 46.991 79.0747 47.0201C79.0164 47.0493 78.9678 47.0639 78.9192 47.059C78.8706 47.0541 78.8172 47.0347 78.7637 47.0007C78.7103 46.9667 78.6471 46.9132 78.5694 46.8403C78.5597 46.8306 78.5451 46.8355 78.5354 46.8452C78.5256 46.8549 78.5208 46.8646 78.5305 46.8792C78.5451 46.8986 78.5597 46.923 78.5742 46.9472C78.5937 46.9764 78.6082 47.0007 78.618 47.0153C78.6617 47.0833 78.7054 47.1465 78.7492 47.2096C78.7929 47.2728 78.8366 47.3311 78.8804 47.3943C78.9192 47.4477 78.963 47.5109 79.0164 47.5789C79.0699 47.6469 79.1136 47.7101 79.1525 47.7636C79.2108 47.8364 79.2642 47.9142 79.3225 47.9871C79.376 48.0648 79.4294 48.1377 79.4829 48.2106C79.4926 48.2203 79.5023 48.2203 79.5169 48.2106C79.5315 48.2009 79.5363 48.1911 79.5266 48.1766C79.4294 48.0065 79.3905 47.851 79.4148 47.7101C79.4391 47.5692 79.5363 47.438 79.7015 47.3214L81.2564 46.2135L82.8842 48.4973L81.339 49.5954C81.3001 49.6245 81.2467 49.6537 81.1884 49.6877C81.1252 49.7217 81.062 49.746 80.994 49.7655C80.926 49.7849 80.858 49.7898 80.7996 49.7849C80.7365 49.78 80.6928 49.7509 80.6587 49.7071C80.6442 49.6877 80.6296 49.6731 80.615 49.6586C80.6005 49.644 80.581 49.6294 80.5616 49.6148C80.5518 49.6051 80.5373 49.61 80.5275 49.6197C80.5178 49.6294 80.513 49.6391 80.5227 49.6537C80.5956 49.746 80.6636 49.8383 80.7365 49.9355C80.8094 50.0327 80.8774 50.1299 80.9454 50.2222C81.0378 50.3485 81.1252 50.4749 81.2078 50.6012C81.2904 50.747 81.373 50.8733 81.4556 51.0045Z" fill="#F8FAFF"/>
<path fill-rule="evenodd" clip-rule="evenodd" d="M88.5495 56.291C88.4232 56.325 88.292 56.3639 88.1462 56.3979C88.0004 56.4368 87.8644 56.4514 87.7429 56.4514C87.7283 56.4514 87.7186 56.4416 87.7186 56.4319C87.7138 56.4173 87.7186 56.4076 87.7283 56.4028C87.8304 56.3493 87.9081 56.291 87.9616 56.2279C88.015 56.1647 88.0539 56.0918 88.0684 56.0141C88.0879 55.9363 88.0928 55.8488 88.083 55.7614C88.0733 55.6691 88.0539 55.5816 88.0296 55.4844L87.8109 54.707L84.0598 55.7711C83.8897 55.8197 83.7585 55.9169 83.6711 56.0578C83.5836 56.1987 83.5496 56.359 83.569 56.5291C83.569 56.5437 83.5593 56.5534 83.5447 56.5534C83.5302 56.5534 83.5204 56.5485 83.5156 56.5388C83.4864 56.3833 83.4524 56.2327 83.4184 56.0772C83.3844 55.9217 83.3455 55.7662 83.3018 55.6156C83.2678 55.5039 83.2337 55.397 83.1997 55.2852C83.1609 55.1783 83.122 55.0714 83.0831 54.9596C83.0783 54.9451 83.0831 54.9354 83.0977 54.9305C83.1123 54.9256 83.122 54.9256 83.1317 54.9402C83.1803 55.0374 83.2289 55.1103 83.2726 55.1589C83.3164 55.2075 83.3601 55.2415 83.4135 55.2561C83.4621 55.2706 83.5253 55.2755 83.5933 55.2609C83.6613 55.2463 83.7488 55.2269 83.8508 55.1977L87.6457 54.119L87.3445 53.0598C87.3056 52.9237 87.223 52.8168 87.0967 52.7391C86.9703 52.6613 86.8391 52.6128 86.7079 52.5982C86.6934 52.5933 86.6836 52.5836 86.6836 52.5739C86.6836 52.5642 86.6885 52.5545 86.7031 52.5496C86.7419 52.5302 86.7808 52.5156 86.8148 52.5059C86.9023 52.4816 86.9849 52.467 87.0724 52.467C87.1598 52.467 87.2521 52.467 87.3445 52.467C87.3931 52.467 87.4368 52.467 87.4805 52.4718C87.5242 52.4718 87.568 52.4718 87.6068 52.4718C87.636 52.4718 87.6408 52.4864 87.6311 52.5059C87.602 52.6128 87.5923 52.7099 87.602 52.7974C87.6117 52.8897 87.6311 52.9869 87.6651 53.0987L88.4572 55.8877C88.4669 55.9217 88.4815 55.9557 88.5058 55.9946C88.5301 56.0335 88.5495 56.0675 88.5689 56.0967C88.5787 56.1161 88.5883 56.1404 88.6029 56.1647C88.6175 56.189 88.6272 56.2181 88.6418 56.2473C88.6467 56.2619 88.637 56.2667 88.6224 56.2716L88.5495 56.291Z" fill="#F8FAFF"/>
<path fill-rule="evenodd" clip-rule="evenodd" d="M49.2212 83.7735C49.0365 84.031 48.8762 84.2594 48.7353 84.4586C48.5944 84.6578 48.4923 84.8182 48.4243 84.9445C48.3757 85.0271 48.3466 85.1049 48.332 85.1729C48.3223 85.2409 48.3514 85.3089 48.4195 85.377C48.4535 85.411 48.4923 85.4498 48.5409 85.4887C48.5847 85.5276 48.6235 85.5568 48.6478 85.5713C48.677 85.5908 48.6818 85.6102 48.6673 85.6345C48.6478 85.6636 48.6089 85.6588 48.5506 85.615C48.4777 85.5616 48.4 85.5082 48.3271 85.4499C48.2542 85.3964 48.1862 85.343 48.1279 85.2992C48.0696 85.2555 48.021 85.2166 47.9773 85.1875C47.9384 85.1583 47.9141 85.1389 47.9044 85.134L43.6771 82.1263C43.6722 82.1214 43.6479 82.1069 43.6042 82.0777C43.5653 82.0534 43.5167 82.0194 43.4633 81.9854C43.4098 81.9514 43.3564 81.9125 43.2981 81.8785C43.2398 81.8396 43.1912 81.8105 43.1523 81.7813C43.094 81.7424 43.0746 81.7084 43.0989 81.6793C43.1134 81.6598 43.1377 81.655 43.1669 81.6793C43.1912 81.6987 43.2203 81.7133 43.2495 81.7327C43.2786 81.7473 43.3126 81.7619 43.3418 81.7716C43.405 81.8008 43.4633 81.7959 43.5167 81.757C43.575 81.7181 43.6333 81.6647 43.6965 81.5918C43.7937 81.4898 43.9103 81.3391 44.0561 81.1399C44.197 80.9407 44.3622 80.7172 44.5468 80.4597L45.2125 79.5267C45.3583 79.3178 45.4797 79.1526 45.5721 79.0214C45.6644 78.8902 45.7421 78.7833 45.7956 78.7056C45.8539 78.623 45.8976 78.5598 45.9268 78.5112C45.9559 78.4626 45.9851 78.4189 46.0142 78.3703C46.0726 78.2731 46.1066 78.1905 46.1114 78.1274C46.1163 78.0642 46.0823 77.9913 46.0045 77.9087C45.9899 77.8844 45.9608 77.8601 45.9268 77.8309C45.8928 77.8018 45.8588 77.7775 45.8345 77.7629C45.8053 77.7435 45.8004 77.7241 45.815 77.6998C45.8344 77.6706 45.8733 77.6755 45.9317 77.7192C45.9948 77.7629 46.058 77.8066 46.1211 77.8601C46.1892 77.9087 46.2475 77.9573 46.3058 78.001C46.3641 78.0447 46.4078 78.0788 46.4515 78.1128C46.4953 78.1468 46.5147 78.1613 46.5244 78.1662C46.5293 78.1711 46.5536 78.1857 46.5973 78.2148C46.6362 78.2391 46.6848 78.2731 46.7382 78.3071C46.7917 78.3411 46.8451 78.38 46.9035 78.414C46.9618 78.4529 47.0103 78.4821 47.0492 78.5112C47.1075 78.5501 47.127 78.589 47.1027 78.6133C47.0881 78.6327 47.0638 78.6375 47.0346 78.6133C47.0152 78.5987 46.9958 78.589 46.9763 78.5744C46.9569 78.5598 46.9277 78.5501 46.8889 78.5306C46.8063 78.4918 46.7382 78.4918 46.6799 78.5209C46.6216 78.5501 46.5585 78.6084 46.4807 78.6958C46.4467 78.7347 46.4127 78.7785 46.3787 78.8222C46.3447 78.8659 46.2961 78.9291 46.2426 79.0117C46.1843 79.0943 46.1114 79.1963 46.0191 79.3226C45.9268 79.449 45.8102 79.6142 45.6644 79.8183L45.0765 80.6443C44.9939 80.7609 44.9015 80.8873 44.7995 81.033C44.6975 81.1739 44.6003 81.3148 44.5128 81.446C44.4205 81.5772 44.3427 81.6939 44.2747 81.8008C44.2067 81.9028 44.163 81.9708 44.1484 82C44.1338 82.0388 44.1241 82.0631 44.129 82.0729C44.129 82.0874 44.1435 82.102 44.1581 82.1214C44.197 82.1554 44.2699 82.2089 44.3719 82.2867C44.4739 82.3644 44.5954 82.4518 44.7363 82.549C44.8772 82.6462 45.023 82.7531 45.1785 82.8649C45.334 82.9766 45.4846 83.0835 45.6304 83.1856C45.6693 83.2147 45.7179 83.205 45.7713 83.1564C45.8053 83.1224 45.8879 83.0203 46.0142 82.8503C46.1406 82.6802 46.3252 82.4227 46.573 82.0777L47.3213 81.0282C47.4671 80.8192 47.5886 80.654 47.6809 80.5228C47.7732 80.3916 47.851 80.2847 47.9044 80.207C47.9627 80.1244 48.0064 80.0612 48.0356 80.0126C48.0647 79.9641 48.0987 79.9203 48.1279 79.8766C48.1862 79.7794 48.2202 79.6968 48.2251 79.6336C48.2299 79.5705 48.1959 79.4976 48.1182 79.415C48.1036 79.3907 48.0793 79.3713 48.0502 79.347C48.021 79.3227 47.9919 79.3032 47.9676 79.2838C47.9481 79.2692 47.9384 79.2595 47.9287 79.2449C47.919 79.2303 47.919 79.2158 47.9287 79.206C47.9481 79.1769 47.987 79.1818 48.0453 79.2255C48.1085 79.2692 48.1668 79.3129 48.2348 79.3615C48.298 79.4101 48.3611 79.4539 48.4146 79.4976C48.4729 79.5413 48.5166 79.5753 48.5555 79.6045C48.5944 79.6336 48.6187 79.6531 48.6235 79.6579C48.6284 79.6628 48.6527 79.6774 48.6964 79.7065C48.7353 79.7308 48.7839 79.7648 48.8373 79.7988C48.8908 79.8377 48.9491 79.8717 49.0074 79.9106C49.0657 79.9495 49.1143 79.9835 49.1532 80.0126C49.2115 80.0515 49.2309 80.0855 49.2066 80.1147C49.192 80.1341 49.1677 80.139 49.1386 80.1147C49.1191 80.1001 49.0997 80.0904 49.0803 80.0758C49.0608 80.0612 49.0317 80.0515 48.9928 80.0321C48.9102 79.9932 48.8422 79.9932 48.7839 80.0223C48.7256 80.0515 48.6624 80.105 48.5944 80.1876C48.5652 80.2313 48.5312 80.275 48.4923 80.3236C48.4583 80.3722 48.4097 80.4354 48.3514 80.518C48.2931 80.6006 48.2154 80.7075 48.123 80.8387C48.0307 80.9698 47.9092 81.1399 47.7635 81.344L47.0152 82.3935C46.8646 82.6025 46.7431 82.7774 46.6508 82.9134C46.5585 83.0495 46.4807 83.1564 46.4273 83.2439C46.3689 83.3265 46.3301 83.3896 46.3009 83.4285C46.2766 83.4674 46.2572 83.4965 46.2523 83.516C46.2378 83.55 46.2329 83.5743 46.2329 83.5937C46.2329 83.6132 46.2523 83.6326 46.2815 83.652L47.7392 84.6821C47.7732 84.7064 47.7975 84.7113 47.8218 84.7016C47.8461 84.6918 47.8655 84.6773 47.8898 84.6481C47.919 84.6141 47.953 84.5752 47.987 84.5266C48.0259 84.478 48.0793 84.41 48.1474 84.3177C48.2154 84.2254 48.3028 84.1088 48.4097 83.963C48.5166 83.8172 48.6527 83.6277 48.8179 83.3945L49.4301 82.5296C49.5759 82.3207 49.6974 82.1554 49.7897 82.0242C49.882 81.8931 49.9597 81.7862 50.0132 81.7084C50.0715 81.6258 50.1152 81.5626 50.1444 81.5141C50.1735 81.4655 50.2027 81.4217 50.2319 81.3732C50.295 81.276 50.329 81.1982 50.329 81.1302C50.3339 81.067 50.295 80.9942 50.2173 80.9115C50.2027 80.8873 50.1735 80.863 50.1395 80.8338C50.1055 80.8047 50.0715 80.7804 50.0472 80.7658C50.0181 80.7463 50.0132 80.7269 50.0278 80.7026C50.0472 80.6735 50.0861 80.6783 50.1444 80.722C50.2076 80.7658 50.2659 80.8095 50.3339 80.8581C50.3971 80.9067 50.4602 80.9504 50.5137 80.9941C50.572 81.0379 50.6157 81.0719 50.6546 81.1011C50.6935 81.1302 50.7178 81.1496 50.7226 81.1545C50.7275 81.1594 50.7517 81.1739 50.7955 81.2031C50.8344 81.2274 50.883 81.2614 50.9364 81.2954C50.9899 81.3294 51.0482 81.3683 51.1065 81.4072C51.1648 81.446 51.2134 81.48 51.2522 81.5092C51.3105 81.5481 51.33 81.5869 51.3057 81.6112C51.2911 81.6307 51.2668 81.6355 51.2377 81.6112C51.2182 81.5967 51.1988 81.5869 51.1794 81.5724C51.1599 81.5578 51.1308 81.5481 51.0919 81.5286C51.0093 81.4898 50.9413 81.4898 50.883 81.5189C50.8247 81.5481 50.7615 81.6064 50.6837 81.6938C50.6497 81.7327 50.6157 81.7764 50.5817 81.8202C50.5477 81.8639 50.4991 81.9271 50.4456 82.0097C50.3873 82.0923 50.3144 82.1943 50.2221 82.3255C50.1298 82.4567 50.0083 82.6268 49.8626 82.8309L49.2212 83.7735ZM56.6894 88.477C56.4902 88.5402 56.2959 88.545 56.1064 88.4867C55.912 88.4333 55.7322 88.3215 55.5622 88.1563C55.3921 87.9911 55.2317 87.7919 55.086 87.5684C54.9354 87.3449 54.7993 87.1019 54.6681 86.8395C54.5369 86.5771 54.4154 86.3245 54.2988 86.0767C54.2114 85.8969 54.1336 85.7317 54.0607 85.581C53.9879 85.4304 53.915 85.2895 53.8421 85.168C53.8178 85.2506 53.7935 85.3381 53.7643 85.4255C53.7401 85.513 53.7109 85.5956 53.6866 85.6831C53.6283 85.8774 53.57 86.0669 53.5117 86.2564C53.4534 86.4459 53.3999 86.6354 53.3465 86.8249C53.3173 86.9367 53.293 87.0242 53.2833 87.0873C53.2736 87.1554 53.2736 87.2039 53.2881 87.2477C53.3027 87.2865 53.3222 87.3206 53.3513 87.3497C53.3805 87.374 53.4194 87.4032 53.4631 87.4372C53.502 87.4615 53.5408 87.4906 53.5846 87.5246C53.6283 87.5586 53.6672 87.5927 53.706 87.6315C53.7158 87.6413 53.7157 87.6558 53.7109 87.6656C53.7012 87.6753 53.6914 87.6801 53.6817 87.6753C53.5554 87.6315 53.4242 87.583 53.2979 87.5392C53.1715 87.4955 53.0452 87.4518 52.9189 87.4177C52.7926 87.3837 52.6662 87.3497 52.5399 87.3254C52.4135 87.3011 52.2872 87.272 52.156 87.2525C52.1414 87.2477 52.1366 87.238 52.1414 87.2234C52.1414 87.2088 52.1511 87.1991 52.1657 87.1991C52.2775 87.2137 52.365 87.2137 52.433 87.1942C52.501 87.1796 52.5544 87.1505 52.5982 87.1068C52.6419 87.063 52.6711 87.0096 52.6954 86.9367C52.7197 86.8638 52.7439 86.7812 52.7731 86.684L53.7692 83.1807C53.7886 83.1175 53.7886 83.0544 53.7692 82.996C53.7498 82.9377 53.7255 82.8843 53.6866 82.8309C53.6526 82.7823 53.604 82.7385 53.5554 82.6997C53.502 82.6608 53.4485 82.6268 53.3999 82.6025C53.3902 82.5927 53.3853 82.583 53.3951 82.5685C53.3999 82.5539 53.4096 82.549 53.4242 82.5539C53.5263 82.5976 53.638 82.6365 53.7546 82.6656C53.8324 82.6899 53.915 82.7094 53.9976 82.7288C54.0802 82.7482 54.1628 82.7677 54.2502 82.7871C54.3426 82.8017 54.4349 82.826 54.5369 82.8503C54.6389 82.8746 54.7313 82.9037 54.8187 82.9329C54.8333 82.9377 54.843 82.9426 54.8576 82.9475C54.8722 82.9523 54.8868 82.9572 54.8965 82.962C54.911 82.9669 54.9111 82.9766 54.9062 82.9912C54.9013 83.0058 54.8916 83.0155 54.8819 83.0106C54.7653 82.9863 54.6535 83.0058 54.5466 83.0641C54.4397 83.1272 54.3717 83.2147 54.3328 83.341C54.26 83.6229 54.1871 83.8901 54.1142 84.1525C54.0413 84.4149 53.9684 84.6821 53.8955 84.964C53.9878 84.9008 54.0996 84.8327 54.2357 84.7599C54.3717 84.687 54.498 84.619 54.6244 84.5558C54.7799 84.478 54.9402 84.3906 55.1054 84.3031C55.2706 84.2108 55.4212 84.1233 55.5622 84.031C55.7031 83.9387 55.8197 83.8512 55.9217 83.7589C56.0189 83.6666 56.0821 83.5791 56.1064 83.4917C56.121 83.4382 56.1209 83.3751 56.1112 83.307C56.1064 83.2827 56.1161 83.273 56.1404 83.2827C56.2667 83.3265 56.3882 83.3653 56.5097 83.3993C56.6311 83.4334 56.7526 83.4674 56.8789 83.5014C56.9275 83.516 56.981 83.5305 57.0247 83.5451C57.0733 83.5597 57.1219 83.5743 57.1656 83.5889L57.3551 83.6472C57.3697 83.652 57.3697 83.6617 57.3648 83.6763C57.36 83.6909 57.3503 83.6957 57.3406 83.6957C57.1899 83.6714 57.0296 83.686 56.8498 83.7298C56.67 83.7783 56.4902 83.8464 56.3007 83.9338C56.1112 84.0213 55.9169 84.1233 55.7225 84.2399C55.5281 84.3566 55.3435 84.4635 55.1637 84.5752C55.0228 84.6627 54.8868 84.7453 54.7507 84.8279C54.6147 84.9105 54.4932 84.9737 54.3814 85.032C54.4397 85.1243 54.5029 85.2409 54.5661 85.3721C54.6292 85.5033 54.6973 85.6491 54.775 85.7997C54.8576 85.9698 54.9499 86.1447 55.0471 86.3293C55.1443 86.514 55.2415 86.6986 55.3435 86.8832C55.4456 87.0679 55.5524 87.2428 55.6593 87.4129C55.7662 87.5829 55.878 87.7384 55.9946 87.8745C56.1064 88.0105 56.223 88.1271 56.3396 88.2243C56.4562 88.3215 56.5728 88.3847 56.6846 88.4138L56.6894 88.477ZM65.042 86.582C65.0518 86.927 64.9886 87.2477 64.8574 87.5441C64.7262 87.8405 64.5464 88.098 64.3181 88.3166C64.0897 88.5353 63.8273 88.7054 63.5212 88.8317C63.2151 88.958 62.8944 89.026 62.5591 89.0358C62.3745 89.0406 62.185 89.0163 61.9858 88.958C61.7865 88.8997 61.5922 88.822 61.3978 88.7151C61.2083 88.6082 61.0237 88.4867 60.8536 88.3409C60.6787 88.1952 60.528 88.0397 60.392 87.8696C60.2559 87.6996 60.1539 87.5246 60.0713 87.34C59.9936 87.1553 59.9498 86.961 59.945 86.7715C59.9353 86.3439 59.9644 85.9698 60.0373 85.6588C60.1102 85.343 60.2317 85.0757 60.4066 84.857C60.5815 84.6335 60.8099 84.4537 61.0966 84.308C61.3832 84.1622 61.7331 84.0407 62.1558 83.9436C62.1752 83.9387 62.1898 83.9338 62.2093 83.9338C62.2287 83.9338 62.253 83.9338 62.2676 83.9338C62.6514 83.9241 63.0061 83.9873 63.3365 84.1185C63.667 84.2497 63.9585 84.4343 64.2112 84.6773C64.459 84.9154 64.6582 85.202 64.804 85.5276C64.9546 85.8434 65.0323 86.1981 65.042 86.582ZM64.4687 86.582C64.459 86.2904 64.4104 85.9989 64.3132 85.7122C64.216 85.4256 64.08 85.168 63.9051 84.9396C63.7301 84.7113 63.5163 84.5266 63.2588 84.3906C63.0061 84.2545 62.7146 84.1865 62.3891 84.1962C62.0829 84.2059 61.8108 84.2691 61.5776 84.3857C61.3444 84.5024 61.1452 84.6578 60.9897 84.857C60.8342 85.0514 60.7127 85.2798 60.6349 85.5373C60.5572 85.7948 60.5232 86.0718 60.5329 86.3585C60.5426 86.65 60.5912 86.9464 60.6884 87.238C60.7856 87.5295 60.9265 87.7919 61.1063 88.0154C61.2861 88.2438 61.5047 88.4284 61.7622 88.5693C62.0198 88.7102 62.3113 88.7782 62.632 88.7685C62.9381 88.7588 63.2054 88.6957 63.4337 88.5742C63.667 88.4527 63.8613 88.2924 64.0168 88.0932C64.1723 87.8939 64.2889 87.6655 64.3618 87.408C64.4444 87.1408 64.4784 86.8687 64.4687 86.582ZM68.3899 88.2146C68.4093 88.2 68.4239 88.1855 68.4385 88.1806C68.4531 88.1709 68.4725 88.1612 68.492 88.1515C68.5405 88.1223 68.5891 88.0883 68.6377 88.0494C68.6863 88.0105 68.7252 87.962 68.7543 87.9036C68.764 87.8793 68.7786 87.8065 68.7932 87.6947C68.8078 87.583 68.8223 87.442 68.8418 87.2671C68.8564 87.0971 68.8758 86.8978 68.8904 86.6792C68.9098 86.4557 68.9244 86.2224 68.9438 85.9795C68.9633 85.7365 68.9827 85.4839 69.0021 85.2312C69.0216 84.9785 69.041 84.7307 69.0604 84.4926C69.075 84.3031 69.0896 84.1185 69.1042 83.9387C69.1188 83.7589 69.1285 83.5937 69.1382 83.4382C69.1479 83.2827 69.1576 83.1515 69.1722 83.0349C69.1819 82.9183 69.1916 82.8309 69.2013 82.7677C69.2013 82.758 69.2062 82.7531 69.2159 82.7483C69.2257 82.7434 69.2354 82.7482 69.2451 82.7531C69.5998 83.0544 69.9205 83.3751 70.212 83.7201C70.5036 84.065 70.7903 84.41 71.0721 84.7647C71.1838 84.9008 71.2907 85.032 71.4025 85.168C71.5142 85.3041 71.6211 85.4353 71.7329 85.5665C71.7572 85.5908 71.7766 85.6199 71.8058 85.6539C71.8301 85.6879 71.8544 85.7171 71.8787 85.7463C71.9856 85.8774 72.1022 86.0086 72.2237 86.1447C72.3451 86.2807 72.4666 86.3973 72.5832 86.4945C72.6561 86.5528 72.7193 86.5869 72.7824 86.5917C72.8456 86.5966 72.9088 86.6014 72.9768 86.5966C73.0108 86.5917 73.0545 86.5917 73.0934 86.5868C73.1371 86.582 73.1906 86.5917 73.2538 86.6063C73.2683 86.6111 73.278 86.616 73.2732 86.6257C73.2732 86.6354 73.2635 86.6403 73.2538 86.6452C73.1712 86.6694 73.0837 86.6938 73.0011 86.718C72.9185 86.7423 72.831 86.7715 72.7484 86.7909C72.6027 86.8298 72.452 86.8735 72.3111 86.9173C72.1653 86.961 72.0147 87.0096 71.8641 87.063L71.6649 87.1311C71.6551 87.1359 71.6503 87.1262 71.6406 87.1165C71.6357 87.1019 71.6357 87.0922 71.6406 87.0873C71.66 87.0776 71.6843 87.0582 71.7183 87.0339C71.7523 87.0096 71.7863 86.9853 71.8155 86.961C71.8446 86.9367 71.8738 86.9124 71.8932 86.8832C71.9127 86.8541 71.9224 86.8298 71.9127 86.8055C71.8932 86.7521 71.8495 86.6743 71.7815 86.5674C71.7134 86.4654 71.626 86.3439 71.5191 86.2079C71.4171 86.0718 71.2956 85.926 71.1644 85.7705C71.0332 85.6151 70.8971 85.4547 70.7562 85.2895C70.6153 85.1243 70.4793 84.9639 70.3384 84.7987C70.1975 84.6335 70.0711 84.4829 69.9496 84.342C69.8233 84.2011 69.7164 84.0796 69.6338 83.9824C69.5512 83.8853 69.4783 83.8026 69.4249 83.7346C69.42 83.8269 69.4103 83.929 69.4054 84.0407C69.3957 84.1525 69.386 84.2691 69.3714 84.3906C69.3471 84.6675 69.3228 84.9688 69.2937 85.2944C69.2645 85.6199 69.2451 85.9406 69.2305 86.2516C69.2159 86.5626 69.2111 86.8444 69.2208 87.1019C69.2305 87.3594 69.2548 87.5586 69.3034 87.6995C69.3131 87.7238 69.3326 87.7433 69.3714 87.753C69.4054 87.7627 69.4492 87.7724 69.488 87.7724C69.5318 87.7724 69.5706 87.7724 69.6144 87.7724C69.6581 87.7676 69.6921 87.7676 69.7116 87.7627C69.7261 87.7627 69.7359 87.7725 69.7359 87.787C69.7407 87.8065 69.7358 87.8113 69.7213 87.8113C69.6095 87.8356 69.4977 87.8599 69.386 87.8891C69.2742 87.9182 69.1673 87.9474 69.0556 87.9862C68.9487 88.0251 68.8369 88.064 68.73 88.1126C68.6183 88.1612 68.5114 88.2049 68.4045 88.2583L68.3899 88.2146ZM79.9738 82.0826C79.93 82.1214 79.8863 82.1603 79.8377 82.1943C79.7891 82.2283 79.7405 82.2575 79.6968 82.2867C79.6579 82.3109 79.619 82.3352 79.5802 82.3595C79.5413 82.3838 79.5024 82.413 79.4684 82.4421C79.3809 82.5102 79.2984 82.5782 79.2158 82.6511C79.1331 82.724 79.0505 82.7968 78.9728 82.8746C78.9582 82.8891 78.9388 82.9086 78.9145 82.928C78.8902 82.9475 78.8707 82.9669 78.8562 82.9815C78.8464 82.9912 78.8367 82.9961 78.827 82.9863C78.8124 82.9766 78.8125 82.9669 78.8173 82.9475L78.9971 82.5976C78.7396 82.4421 78.482 82.2867 78.2245 82.136C77.967 81.9854 77.7095 81.8299 77.4519 81.6744L76.3489 82.5393C76.3732 82.617 76.4072 82.7337 76.4558 82.8892C76.5044 83.0446 76.5579 83.205 76.6162 83.3702C76.6745 83.5354 76.7328 83.686 76.7911 83.8318C76.8494 83.9727 76.9028 84.0699 76.9417 84.1233C76.9709 84.1573 77 84.1768 77.0389 84.1865C77.0778 84.1962 77.1118 84.1914 77.1507 84.1865C77.1896 84.1768 77.2284 84.1622 77.2624 84.1428C77.3013 84.1234 77.3305 84.1039 77.3645 84.0845L77.3985 84.1282C77.3693 84.1476 77.3353 84.1671 77.3061 84.1914C77.277 84.2157 77.243 84.2351 77.2138 84.2545C77.1507 84.2934 77.0875 84.3323 77.0243 84.376C76.9612 84.4197 76.9029 84.4635 76.8446 84.5072C76.7814 84.5558 76.7231 84.6044 76.6599 84.6578C76.6016 84.7113 76.5433 84.7647 76.4898 84.8133C76.4558 84.8473 76.4218 84.8765 76.383 84.9105C76.3489 84.9396 76.3149 84.9737 76.276 85.0077C76.2663 85.0174 76.2566 85.0125 76.2421 85.0028C76.2323 84.9931 76.2275 84.9834 76.2372 84.9688C76.3538 84.8425 76.4364 84.7113 76.4753 84.5752C76.5141 84.4392 76.5141 84.2885 76.4655 84.1331C76.3392 83.7006 76.208 83.2779 76.0671 82.8551C75.9262 82.4373 75.7853 82.0097 75.6395 81.587C75.5326 81.276 75.4306 80.9553 75.3237 80.6394C75.2217 80.3188 75.1196 80.0029 75.0176 79.6919C75.0127 79.6774 75.0176 79.6676 75.0273 79.6579C75.037 79.6482 75.0467 79.6482 75.0613 79.6579C75.1147 79.6919 75.1731 79.726 75.2362 79.7648C75.2994 79.7988 75.3577 79.8377 75.416 79.8766C75.7124 80.0612 76.0234 80.2507 76.3392 80.4451C76.6599 80.6394 76.9855 80.8289 77.311 81.0184C77.6414 81.2079 77.967 81.3877 78.2974 81.5627C78.6278 81.7376 78.9534 81.8979 79.2789 82.0437C79.4198 82.1069 79.5559 82.1263 79.6773 82.102C79.7988 82.0826 79.9251 82.0291 80.0515 81.9465C80.0612 81.9368 80.0709 81.9417 80.0855 81.9562C80.0952 81.9708 80.0952 81.9805 80.0855 81.9902L79.9738 82.0826ZM75.5569 80.3965C75.5764 80.4597 75.6006 80.518 75.6201 80.5763C75.6395 80.6346 75.6638 80.6929 75.6833 80.7463C75.7756 81.0087 75.8728 81.2614 75.9651 81.5043C76.0574 81.7473 76.1497 82 76.2372 82.2624L77.1798 81.5238L75.5569 80.3965Z" fill="#F8FAFF"/>
<path fill-rule="evenodd" clip-rule="evenodd" d="M61.8545 92.2233C78.6267 92.2233 92.2232 78.6267 92.2232 61.8546C92.2232 45.0824 78.6267 31.4859 61.8545 31.4859C45.0824 31.4859 31.4858 45.0824 31.4858 61.8546C31.4858 78.6267 45.0824 92.2233 61.8545 92.2233ZM61.8544 91.2515C78.0899 91.2515 91.2513 78.09 91.2513 61.8546C91.2513 45.6191 78.0899 32.4577 61.8544 32.4577C45.6189 32.4577 32.4575 45.6191 32.4575 61.8546C32.4575 78.09 45.6189 91.2515 61.8544 91.2515Z" fill="white"/>
<path fill-rule="evenodd" clip-rule="evenodd" d="M61.8546 82.9912C73.5281 82.9912 82.9912 73.528 82.9912 61.8546C82.9912 50.1812 73.5281 40.718 61.8546 40.718C50.1812 40.718 40.718 50.1812 40.718 61.8546C40.718 73.528 50.1812 82.9912 61.8546 82.9912ZM61.8544 82.3148C73.1543 82.3148 82.3147 73.1545 82.3147 61.8546C82.3147 50.5547 73.1543 41.3943 61.8544 41.3943C50.5546 41.3943 41.3942 50.5547 41.3942 61.8546C41.3942 73.1545 50.5546 82.3148 61.8544 82.3148Z" fill="white"/>
</svg>
