<svg width="125" height="125" viewBox="0 0 125 125" fill="none" xmlns="http://www.w3.org/2000/svg">
<rect x="8.1521" y="42" width="108.696" height="40" rx="4.9336" fill="url(#paint0_linear_32_669)"/>
<path d="M50.9742 68.3078L52.4191 64.6408H51.4425L50.9742 65.6952L50.3105 67.2178C50.1551 67.5685 49.9598 67.9592 49.7245 68.3498C49.4914 68.7404 49.2562 69.0912 49.0231 69.3642C48.9054 69.5196 48.7878 69.6372 48.6723 69.7149C48.5946 69.7548 48.5547 69.7926 48.477 69.7926C48.3993 69.7926 48.3594 69.7527 48.3216 69.675C48.2439 69.6372 48.2439 69.5574 48.2439 69.4419C48.2439 69.2088 48.3615 68.8959 48.5946 68.5451L48.6723 68.4275C48.8676 68.0768 49.063 67.726 49.2583 67.3354C49.4935 66.8671 49.609 66.3987 49.6489 65.8905C49.6489 65.5775 49.609 65.2667 49.4935 64.9937C49.4158 64.7207 49.2205 64.5652 48.9475 64.5253C48.8697 64.5253 48.7521 64.5652 48.6744 64.603C48.519 64.6808 48.4014 64.7585 48.246 64.916C48.0507 65.1491 47.8953 65.4221 47.7776 65.6952C47.6222 66.0081 47.5445 66.2412 47.5046 66.4764C47.5046 66.5142 47.5445 66.5541 47.6222 66.5541C47.6621 66.5541 47.6999 66.5541 47.7398 66.5142C47.7776 66.2811 47.8953 66.0459 48.0129 65.7729C48.1305 65.4998 48.2859 65.2646 48.4413 65.0693C48.519 64.9916 48.5967 64.9139 48.6765 64.874C48.7542 64.7963 48.8319 64.7564 48.9496 64.7564C48.9895 64.7564 49.0672 64.7963 49.0672 64.874C49.1071 64.9517 49.1449 65.0315 49.1071 65.1071C49.1071 65.3801 48.9895 65.7309 48.7563 66.1614L48.6786 66.3567C48.4833 66.7074 48.288 67.0981 48.0549 67.5265C47.8595 67.9949 47.7041 68.4632 47.7041 68.8539C47.7041 69.1668 47.7818 69.4398 47.8995 69.6729C48.0549 69.8683 48.2502 69.9859 48.5232 69.9859C48.561 69.9859 48.6009 69.9859 48.6786 69.946C48.7962 69.9082 48.9517 69.7506 49.147 69.5553C49.3423 69.2823 49.5754 68.9694 49.8106 68.5787C50.0459 68.228 50.2013 67.8752 50.3966 67.5643V67.6042L48.9538 71.1557C48.876 71.351 48.7584 71.5463 48.6807 71.7017C48.4077 72.1701 48.1347 72.5985 47.7839 72.9115C47.3156 73.3798 46.6918 73.6129 45.9505 73.6528C45.522 73.6129 45.1692 73.5352 44.9739 73.3798C44.7785 73.2244 44.6609 73.0291 44.6231 72.8715C44.6231 72.7161 44.6231 72.6384 44.7008 72.5985C44.7407 72.6384 44.8185 72.6384 44.8962 72.6762C45.0138 72.7539 45.0915 72.7539 45.2091 72.7539C45.3267 72.7539 45.4044 72.7161 45.4821 72.5985C45.5997 72.5208 45.6375 72.3654 45.6375 72.2079C45.5997 71.9727 45.5598 71.8571 45.4044 71.7395C45.249 71.6618 45.1314 71.5841 44.976 71.5841C44.8584 71.624 44.7407 71.624 44.6252 71.7017C44.5076 71.7395 44.3921 71.8193 44.3123 71.9349C44.1569 72.168 44.0792 72.3255 44.0792 72.4809C44.0792 72.7938 44.1968 73.1047 44.5076 73.3777C44.5475 73.4176 44.5853 73.4554 44.6252 73.4953C44.9382 73.7284 45.3666 73.846 45.9526 73.846C46.7716 73.846 47.4353 73.6906 47.9436 73.4554C48.2166 73.3 48.4497 73.1425 48.6849 72.9871C48.8802 72.8316 49.0357 72.6363 49.1932 72.441C49.5061 72.0126 49.7392 71.582 49.8967 71.1536L50.9742 68.3078ZM102.091 63.7042H102.169C102.209 63.7042 102.246 63.7042 102.246 63.6643C102.286 63.5865 102.364 63.5466 102.519 63.5088C102.637 63.4689 102.792 63.4689 102.948 63.4689C103.143 63.4689 103.339 63.5088 103.534 63.5865C103.689 63.6643 103.924 63.7042 104.198 63.742C104.783 63.7021 105.212 63.5865 105.485 63.3135C105.796 63.0405 105.953 62.6898 105.953 62.2991C105.913 61.9862 105.836 61.7531 105.68 61.5578C105.485 61.3246 105.29 61.207 105.017 61.207C104.821 61.207 104.666 61.2847 104.548 61.4401C104.431 61.5578 104.353 61.7132 104.353 61.8686C104.353 62.0639 104.431 62.1815 104.508 62.297C104.626 62.3747 104.741 62.4146 104.859 62.4146C105.054 62.3747 105.132 62.297 105.17 62.1416C105.248 61.9862 105.325 61.9085 105.443 61.8686C105.521 61.9085 105.561 61.9463 105.598 62.024C105.636 62.1017 105.638 62.2193 105.676 62.3369C105.636 62.5721 105.521 62.7276 105.285 62.883C105.012 63.0384 104.739 63.1161 104.349 63.156C104.193 63.1161 104.036 63.1161 103.88 63.0783C103.725 63.0384 103.57 63.0384 103.412 63.0006C103.061 63.0006 102.748 63.0783 102.515 63.156C102.282 63.2736 102.125 63.429 102.047 63.5844V63.6622C102.051 63.7042 102.091 63.7042 102.091 63.7042ZM56.1638 64.5232C55.9306 64.5631 55.6954 64.6787 55.4623 64.9517C55.267 65.147 55.1116 65.3801 54.954 65.6531C54.9162 65.7309 54.8364 65.8086 54.7986 65.8863C54.6033 66.237 54.4479 66.5499 54.2904 66.8608C54.3681 66.5478 54.4458 66.2748 54.4857 66.0018C54.4857 65.7687 54.5235 65.5334 54.5235 65.3003C54.5235 65.0672 54.4458 64.8719 54.3282 64.7543C54.2106 64.5967 54.0551 64.5211 53.7821 64.5211C53.5469 64.561 53.3537 64.6766 53.1563 64.9118C52.9231 65.1449 52.7656 65.4179 52.648 65.7309C52.4926 66.0438 52.4149 66.2769 52.375 66.4722C52.375 66.51 52.375 66.51 52.4149 66.5499H52.5703L52.6102 66.51C52.6501 66.3546 52.7278 66.1194 52.8454 65.8464C53.0008 65.5733 53.1584 65.3381 53.3138 65.105C53.4692 64.8719 53.6645 64.7543 53.8199 64.7543C53.8598 64.7543 53.8976 64.7921 53.9375 64.8719C53.9774 64.9118 53.9774 65.0273 53.9774 65.105C53.9774 65.1449 53.9375 65.3003 53.8997 65.5334C53.822 65.7666 53.7443 66.0018 53.6267 66.237C53.549 66.51 53.4713 66.7053 53.4314 66.8608L50.9742 72.8694L50.8964 73.1425C50.7788 73.3378 50.6234 73.4554 50.4281 73.5331C50.195 73.6507 49.9598 73.6885 49.6867 73.6885C49.6468 73.6885 49.609 73.6885 49.609 73.7284C49.5691 73.7284 49.5691 73.7683 49.5691 73.8061V73.9237C49.6069 73.9237 49.6468 73.9637 49.6867 73.9637C49.9997 73.9237 50.3105 73.9237 50.5457 73.8859C50.7011 73.8859 50.8586 73.8859 50.9742 73.846H51.2094C51.4425 73.846 51.6777 73.8859 51.9108 73.8859C52.144 73.9258 52.3792 73.9258 52.6123 73.9637C52.7299 73.9237 52.8076 73.8859 52.8076 73.8082C52.8475 73.7305 52.8076 73.6906 52.7299 73.6906C52.6123 73.6906 52.5346 73.6528 52.417 73.6528H52.144C52.0663 73.6129 51.9885 73.6129 51.9885 73.5352C51.9486 73.4974 51.9486 73.4176 51.9486 73.3399V73.2223C51.9486 73.1824 51.9486 73.1446 51.9885 73.1047L53.3936 69.4377C53.3936 69.5931 53.4713 69.7107 53.6288 69.8284C53.7464 69.946 53.9417 69.9838 54.1749 69.9838C54.4479 69.9838 54.6831 69.9439 54.9561 69.8284C55.1115 69.7107 55.2691 69.5952 55.4245 69.4776C55.7752 69.1269 56.0881 68.7362 56.3213 68.2301C56.5943 67.7618 56.7497 67.3333 56.9072 66.865C57.0248 66.4365 57.0626 66.1236 57.0626 65.9283C57.0626 65.4998 56.9849 65.1869 56.7896 64.9139C56.6321 64.6787 56.399 64.5631 56.1638 64.5232ZM56.1238 65.9283C56.0062 66.3189 55.8109 66.9427 55.5379 67.684C55.4203 67.9571 55.3027 68.2301 55.1872 68.543C55.1095 68.6984 55.0317 68.8539 54.9519 69.0114C54.8742 69.129 54.7566 69.2445 54.6789 69.3621C54.5235 69.5952 54.3282 69.7128 54.1329 69.7128C54.0152 69.7527 53.8976 69.7128 53.7821 69.6351C53.6645 69.5574 53.5868 69.402 53.5868 69.1668V69.0114C53.6267 68.9715 53.6267 68.9337 53.6645 68.856L54.5613 66.8671C54.7167 66.6339 54.8343 66.4386 54.9519 66.2433C55.1073 65.8926 55.3027 65.6195 55.4602 65.3843C55.7332 65.0336 55.9285 64.8383 56.0839 64.7984C56.1238 64.8383 56.2016 64.8383 56.2394 64.916C56.2793 64.9559 56.2793 65.0336 56.3171 65.1113C56.3192 65.2247 56.2415 65.4977 56.1238 65.9283ZM28.46 64.6408L28.1869 65.2646C28.1869 65.0693 28.147 64.9139 28.0315 64.7564C27.9538 64.6388 27.7963 64.561 27.5233 64.5232C27.1725 64.5631 26.7819 64.6787 26.4312 64.9916C26.3136 65.0315 26.196 65.147 26.0804 65.2247C25.5722 65.6531 25.1437 66.2013 24.793 66.8629C24.4423 67.4866 24.247 68.1125 24.247 68.6963C24.247 69.0471 24.3247 69.36 24.4423 69.5931C24.5977 69.8662 24.793 69.9838 25.1059 69.9838C25.379 69.9838 25.6919 69.7884 26.0027 69.4755C26.1581 69.3579 26.2758 69.2025 26.4312 69.0471C26.5866 68.8518 26.7042 68.6564 26.8596 68.4611C27.0948 68.0705 27.2881 67.7975 27.4057 67.6021C27.2881 67.9151 27.2503 68.1881 27.2103 68.3834V68.774C27.2103 69.0849 27.2503 69.3978 27.3658 69.633C27.4834 69.8662 27.6787 69.9838 27.9517 69.9838C28.2247 69.9838 28.4978 69.8662 28.6931 69.633C28.9262 69.3999 29.0837 69.1248 29.2013 68.8518C29.319 68.5787 29.3967 68.3456 29.4366 68.228C29.4366 68.1503 29.3967 68.1104 29.3589 68.1104C29.2811 68.0705 29.2412 68.1104 29.2034 68.1881C29.1635 68.3435 29.0858 68.5388 28.9703 68.774C28.8527 69.0072 28.7351 69.2424 28.5419 69.4776C28.3865 69.6729 28.1911 69.7905 27.9559 69.7905C27.8383 69.7905 27.7606 69.7506 27.7207 69.6351C27.6808 69.5574 27.643 69.4398 27.643 69.3222L29.4387 64.6387L28.46 64.6408C28.46 64.6408 28.46 64.6387 28.46 64.6408ZM27.6787 66.3567C27.5233 66.8251 27.2881 67.2934 26.9751 67.8395C26.8974 67.9571 26.742 68.1524 26.5467 68.4632C26.5068 68.5031 26.469 68.5808 26.4291 68.6186C26.2338 68.8917 26.0006 69.1269 25.8053 69.36C25.5323 69.633 25.2971 69.7506 25.1038 69.7884C25.0639 69.7884 24.9862 69.7485 24.9484 69.633C24.9085 69.5553 24.8707 69.5154 24.8707 69.4377C24.9106 69.3201 24.9484 69.1248 25.066 68.814C25.1837 68.5409 25.2992 68.228 25.4567 67.9172C25.6121 67.6063 25.7297 67.3312 25.8473 67.0981C26.0825 66.7075 26.238 66.3966 26.4333 66.1236C26.5509 65.8905 26.6685 65.6952 26.784 65.5376C27.0192 65.1869 27.1746 64.9916 27.2923 64.874C27.4099 64.7963 27.4876 64.7564 27.5653 64.7564C27.6829 64.7564 27.7606 64.7963 27.8383 64.874C27.916 64.9916 27.9559 65.1869 27.9559 65.42C27.9517 65.6153 27.8341 65.9283 27.6787 66.3567ZM46.1353 68.2301C46.5259 67.684 46.8367 67.1758 47.0321 66.6696C47.2274 66.1236 47.3051 65.6952 47.3051 65.3423C47.3051 64.6787 47.1098 64.1326 46.7989 63.7021C46.4482 63.2736 46.0177 63.0783 45.5493 63.0384C45.1986 63.0384 44.9256 63.0783 44.6126 63.156C44.1842 63.2736 43.7936 63.429 43.4428 63.6643C42.8569 64.0927 42.3507 64.561 42.0378 65.147C41.6871 65.733 41.4917 66.3168 41.4917 66.865C41.4917 67.2556 41.5694 67.6441 41.7249 67.997C41.8803 68.3477 42.2331 68.5829 42.7792 68.7005C42.817 68.6606 42.8569 68.6606 42.8968 68.5829C42.9745 68.543 42.9745 68.5052 42.9367 68.4653C42.7035 68.4254 42.5082 68.3477 42.3906 68.1923C42.2352 68.0369 42.1575 67.8017 42.1575 67.4887C42.1974 66.865 42.3528 66.2391 42.6657 65.6153C42.9787 64.9916 43.3672 64.4455 43.8755 64.015C44.1086 63.7819 44.3816 63.6244 44.6168 63.5067C44.8521 63.3891 45.0852 63.3513 45.3204 63.3114C45.5934 63.3513 45.8287 63.5067 46.0219 63.8197C46.1773 64.1704 46.2949 64.561 46.2949 65.0294C46.2949 65.3423 46.2172 65.7708 46.0996 66.3168C45.982 66.8251 45.7866 67.3711 45.4758 67.8773C45.2805 68.3057 44.9676 68.6963 44.6168 69.0093C44.5391 69.087 44.4215 69.1647 44.3438 69.2424C43.8755 69.5931 43.2517 69.7884 42.5481 69.8284C42.315 69.8284 42.0399 69.7905 41.7291 69.6729C41.4161 69.5952 41.1431 69.4398 40.91 69.2046C40.6769 68.9316 40.5592 68.6186 40.5193 68.1503C40.5193 67.9949 40.5571 67.7996 40.5571 67.6042C40.597 67.3711 40.6348 67.2136 40.7126 67.0582C41.2985 65.6132 41.8047 64.4434 42.1953 63.5466C42.5859 62.6877 42.9367 62.024 43.2097 61.5956C43.4449 61.5956 43.7558 61.5557 44.1842 61.4779C44.3396 61.4779 44.4572 61.438 44.6126 61.4002C44.8479 61.2826 45.081 61.1671 45.2763 61.0495C45.627 60.7765 45.7824 60.4257 45.8223 59.9175C45.7824 59.7621 45.7446 59.6844 45.6669 59.6046C45.5892 59.5647 45.5115 59.5269 45.3939 59.5269C45.1209 59.5269 44.8857 59.5668 44.6126 59.6823C44.495 59.7222 44.3396 59.76 44.1842 59.8377C43.7936 60.0708 43.4806 60.3459 43.2097 60.7345C42.7813 60.6946 42.3906 60.6568 42.0399 60.5392C41.6492 60.4614 41.2208 60.3837 40.7126 60.3837C40.4395 60.3837 40.2043 60.4236 40.0111 60.5013C39.778 60.5791 39.5826 60.6568 39.3873 60.8143C39.0366 61.0873 38.8014 61.3225 38.6082 61.5956C38.4527 61.8686 38.375 62.024 38.375 62.1017C38.375 62.1416 38.375 62.1794 38.4149 62.1794V62.2571H38.5325C38.5724 62.2172 38.6103 62.0618 38.688 61.9064C38.7657 61.751 38.8833 61.5935 39.1164 61.438C39.3117 61.3204 39.6247 61.2427 40.0132 61.2049H40.1308C40.5592 61.2049 41.0276 61.2448 41.4959 61.3225C41.9244 61.3624 42.315 61.4401 42.6657 61.5178C42.3927 61.9085 42.0798 62.3768 41.6513 63.0405C41.2607 63.6643 40.7924 64.5631 40.2862 65.6952C40.2862 65.2667 40.2085 64.8362 40.0909 64.4476C40.051 64.3699 40.051 64.2922 40.0132 64.2145C39.8956 63.9415 39.7003 63.6685 39.5049 63.4332C39.2319 63.2001 38.8812 63.0426 38.4506 63.0426C37.5539 63.0426 36.7327 63.2757 35.9535 63.6664C35.4852 63.8995 35.0945 64.2124 34.706 64.5631C34.4729 64.8362 34.2376 65.1092 34.0423 65.4221C33.9646 65.5397 33.8869 65.6552 33.8092 65.8128C33.4585 66.4764 33.3009 67.2577 33.2631 68.1146C33.2631 68.6606 33.4185 69.129 33.6916 69.4797C33.7294 69.5574 33.7693 69.5973 33.8092 69.6372C34.0423 69.8704 34.3552 69.988 34.706 70.0657H34.9391C35.6805 70.0657 36.384 69.8704 37.0078 69.5196C37.6316 69.1689 38.1398 68.7005 38.5304 68.1545C38.9211 67.6462 39.1164 67.0624 39.1164 66.5142C39.1563 66.1236 39.0786 65.7729 38.8833 65.4221C38.7279 65.0315 38.375 64.7984 37.8689 64.7186C37.829 64.7186 37.7912 64.7585 37.7114 64.7963C37.6715 64.874 37.6715 64.9139 37.6715 64.9139C37.9445 64.9517 38.1398 65.0693 38.2574 65.2247C38.375 65.3801 38.4527 65.6153 38.4527 65.8884C38.4527 66.5121 38.2574 67.0981 37.8668 67.7218C37.516 68.3078 37.0855 68.814 36.5794 69.2046C36.0711 69.5952 35.6028 69.7905 35.2142 69.8284C35.0189 69.7905 34.8635 69.7506 34.706 69.6729C34.6283 69.5952 34.5485 69.5175 34.5107 69.3999C34.3552 69.1668 34.2775 68.8917 34.2775 68.5409C34.2775 68.228 34.3951 67.7597 34.5506 67.1758C34.5905 67.0204 34.6682 66.8629 34.706 66.7075C34.8614 66.279 35.0966 65.8884 35.3297 65.4599C35.6805 64.874 36.111 64.3678 36.6172 63.9772C37.1632 63.5487 37.7492 63.3534 38.4506 63.3135C38.7636 63.3534 39.0366 63.4689 39.2697 63.6643C39.5028 63.8974 39.6982 64.1704 39.8158 64.4833C39.9334 64.7165 39.9712 64.9517 40.0111 65.1848V65.8485C40.0111 65.8884 39.9712 65.9661 39.9712 66.0438C39.9313 66.2391 39.8935 66.4344 39.8158 66.6297C39.5427 67.2535 39.2298 67.8773 38.919 68.5808C38.6061 69.2445 38.2952 69.8683 37.9823 70.4542C37.6694 71.0402 37.3963 71.5085 37.1632 71.8193C36.7726 72.3654 36.2664 72.8337 35.6805 73.1845C35.3675 73.3798 35.0567 73.4974 34.706 73.6129C34.4329 73.6906 34.12 73.7305 33.8092 73.7683H33.5362C32.7948 73.7683 32.171 73.6507 31.6628 73.3777C31.1167 73.1047 30.8437 72.5964 30.8437 71.895C30.8437 71.7773 30.8836 71.6219 30.9214 71.4665C30.9991 71.3111 31.0768 71.2334 31.1944 71.1935C31.312 71.2334 31.3498 71.2712 31.3898 71.3888C31.4297 71.4665 31.5452 71.5442 31.7804 71.5442C31.9358 71.5442 32.0933 71.5043 32.2487 71.3888C32.3663 71.2712 32.4441 71.078 32.4819 70.8827C32.442 70.6495 32.3642 70.492 32.2088 70.3744C32.0534 70.2568 31.8581 70.1791 31.7006 70.1791C31.3099 70.219 31.0369 70.3744 30.8038 70.6873C30.6085 70.9604 30.4909 71.3111 30.4909 71.7017C30.4909 72.2877 30.6463 72.7161 30.9592 73.0669C31.2721 73.3798 31.7006 73.6528 32.1689 73.7704C32.6772 73.9259 33.1833 74.0057 33.7693 74.0057H33.8071C34.12 74.0057 34.4308 73.9658 34.7039 73.928C35.2898 73.8103 35.8359 73.615 36.3021 73.342C37.0435 72.9115 37.7072 72.3276 38.2532 71.624C38.7993 70.8827 39.3075 70.1014 39.6982 69.2046L40.0111 68.5409L40.1287 68.228L40.1686 68.2679C40.2463 68.6963 40.4416 69.1269 40.8323 69.4776C41.183 69.8284 41.7291 70.0237 42.3927 70.0636C43.2517 70.0636 43.9931 69.8683 44.6168 69.5175C45.2364 69.1668 45.7446 68.7383 46.1353 68.2301ZM44.4194 60.1149C44.4971 60.075 44.5748 60.0372 44.6147 59.9973C44.8878 59.8797 45.1209 59.802 45.3561 59.7642C45.396 59.7642 45.4338 59.8041 45.4737 59.8419C45.5115 59.8818 45.5115 59.9196 45.5514 59.9994C45.5136 60.1548 45.4338 60.3123 45.2385 60.4278C45.0831 60.5455 44.8479 60.6232 44.6147 60.661C44.5748 60.6988 44.5748 60.6988 44.537 60.6988C44.264 60.7765 43.991 60.7765 43.7179 60.7765C43.8734 60.5434 44.1065 60.3081 44.4194 60.1149ZM22.2161 68.7762L23.8941 64.6408H22.9574L21.9829 66.865H20.7732C20.8509 66.7096 20.8509 66.5541 20.8908 66.3966C20.9307 66.2013 20.9307 66.006 20.9307 65.8107C20.9307 65.4977 20.853 65.1869 20.6955 64.9517C20.5779 64.6787 20.3448 64.561 20.0718 64.5232C19.8386 64.5631 19.6433 64.6787 19.4081 64.874C19.2128 65.0693 19.0175 65.3423 18.862 65.5775C18.7444 65.8506 18.6268 66.0858 18.589 66.2412C18.589 66.3189 18.6289 66.3588 18.6667 66.3966C18.7444 66.3966 18.7843 66.3966 18.8221 66.3189C18.862 66.1635 18.9397 65.9682 19.0952 65.733C19.2506 65.4998 19.4081 65.2646 19.5635 65.0693C19.7588 64.874 19.9142 64.7564 20.0718 64.7564C20.1894 64.7564 20.2272 64.7963 20.307 64.874C20.3469 64.9916 20.3847 65.1071 20.3847 65.2247C20.3847 65.2646 20.3847 65.3423 20.3448 65.4599C20.3448 65.5775 20.3049 65.6552 20.2671 65.7729L18.5869 69.8284H19.5635L20.6955 67.1359H21.9052C21.7876 67.3312 21.7099 67.5643 21.6721 67.8773C21.5944 68.1503 21.5545 68.4632 21.5545 68.7362C21.5545 69.0492 21.6322 69.3621 21.7876 69.5952C21.943 69.8683 22.1384 69.9859 22.4114 69.9859C22.7243 69.9859 22.9574 69.8683 23.1927 69.6351C23.388 69.402 23.5434 69.1269 23.661 68.8539C23.7786 68.5808 23.8563 68.3477 23.8941 68.2301C23.8941 68.1524 23.8941 68.1125 23.8164 68.1125C23.7786 68.0726 23.7387 68.1125 23.6988 68.1902C23.6589 68.3456 23.5812 68.5409 23.4636 68.7762C23.346 69.0093 23.1906 69.2445 23.0351 69.4776C22.8398 69.6729 22.6445 69.7905 22.4114 69.7905C22.3337 69.7905 22.256 69.7506 22.2161 69.6351C22.1384 69.5574 22.1384 69.4398 22.1384 69.3222V69.0891C22.1384 68.9715 22.1762 68.8938 22.2161 68.7762ZM90.1891 65.4599V65.3045C90.1492 65.1092 90.0715 64.9538 89.9161 64.7963C89.7208 64.6408 89.5255 64.5232 89.2525 64.5232C88.8618 64.5631 88.4334 64.7186 87.965 65.0315C87.5366 65.3444 87.106 65.7729 86.7553 66.279C86.56 66.5919 86.3647 66.9427 86.2471 67.2934C86.0917 67.6441 86.0517 67.9949 86.0517 68.3477C86.0517 68.7762 86.1295 69.129 86.3248 69.3621C86.5201 69.5952 86.7154 69.7527 86.9485 69.8683C87.1817 69.946 87.3392 69.9859 87.4946 69.9859C87.7676 69.9859 88.0028 69.946 88.1961 69.8284C88.4292 69.7107 88.5867 69.5553 88.7421 69.36C88.8975 69.1647 89.055 68.9694 89.1726 68.6963C89.3281 68.4611 89.4835 68.1881 89.5633 67.955C89.6032 67.9151 89.5633 67.8773 89.5234 67.8773C89.4457 67.8374 89.4058 67.8374 89.4058 67.8773C89.2882 68.1104 89.1726 68.3057 89.055 68.5409C88.8996 68.774 88.782 68.9694 88.6644 69.1269C88.509 69.3222 88.3536 69.4398 88.1583 69.5553C88.0028 69.6729 87.8075 69.7107 87.5723 69.7107C87.2993 69.7107 87.1439 69.633 87.0262 69.5154C86.9485 69.3978 86.8708 69.2424 86.8708 69.087C86.9107 68.814 86.9485 68.5409 87.0262 68.1902C87.1439 67.8773 87.2594 67.6042 87.377 67.3312C87.4946 67.0183 87.5723 66.8629 87.6101 66.7453C87.923 66.0816 88.2339 65.5733 88.5468 65.2625C88.8198 64.9496 89.0928 64.7942 89.326 64.7942C89.4814 64.7942 89.599 64.8341 89.7166 64.9118C89.8342 64.9895 89.872 65.0672 89.872 65.1848C89.872 65.3402 89.8321 65.4578 89.7166 65.5355C89.6389 65.6531 89.5213 65.691 89.3659 65.691C89.2483 65.691 89.1327 65.7687 89.0529 65.8464C88.9752 65.964 88.9353 66.0795 88.8975 66.237C88.9374 66.3546 88.9752 66.4701 89.0529 66.5499C89.1306 66.6276 89.2483 66.6675 89.3659 66.6675C89.6389 66.6276 89.872 66.5121 89.9896 66.2769C90.0673 66.0816 90.145 65.8863 90.1849 65.691L90.1891 65.4599ZM94.1312 66.6297C94.482 66.552 94.7949 66.3945 95.1057 66.1992C95.3787 65.9661 95.5342 65.6132 95.5342 65.1848C95.5342 64.9895 95.4943 64.8341 95.3788 64.7165C95.2611 64.5988 95.1456 64.5211 95.028 64.5211C94.5996 64.561 94.2089 64.6766 93.896 64.8719C93.7784 64.9496 93.6629 65.0294 93.5453 65.1071C93.3899 65.2247 93.2323 65.3801 93.0769 65.4977C92.8816 65.7309 92.7262 65.8884 92.6863 65.9661L93.5453 63.7021L94.0535 62.4146C94.4442 61.5178 94.8726 60.8143 95.3808 60.3858C95.8492 59.9574 96.3553 59.7621 96.8237 59.7621H97.0568C97.0967 59.7621 97.1345 59.7621 97.1345 59.802C97.2521 59.802 97.2899 59.8398 97.3298 59.9196C97.2899 59.9973 97.2899 60.0372 97.2122 60.075C97.1744 60.1149 97.1345 60.1926 97.1345 60.2703C97.1345 60.4257 97.1744 60.5434 97.2899 60.6211C97.4054 60.6988 97.5231 60.7387 97.6407 60.7387C97.836 60.7387 97.9914 60.6988 98.109 60.5833C98.2266 60.5055 98.2644 60.3879 98.2644 60.2325C98.2644 59.9973 98.1468 59.8041 97.9137 59.6865C97.6806 59.6088 97.4054 59.5311 97.1324 59.5311H97.0547C96.118 59.571 95.2989 59.844 94.5975 60.3501C94.1669 60.6631 93.8162 61.0537 93.5432 61.4821C93.3878 61.7552 93.2302 62.0681 93.1147 62.4188L90.187 69.8326H91.1237L92.2936 66.8671H92.6443C92.8774 66.8671 93.0349 66.9847 93.0727 67.18C93.1126 67.3354 93.1504 67.5706 93.1126 67.8437C93.0727 68.1167 93.0349 68.3897 93.0349 68.7026C93.0349 69.0933 93.1525 69.4041 93.3479 69.6393C93.4256 69.717 93.4655 69.7947 93.5432 69.8347C93.7385 69.9523 93.9338 69.9901 94.1669 69.9901C94.44 69.9901 94.6752 69.8347 94.8705 69.5994C95.0658 69.3264 95.1813 69.0534 95.301 68.7804C95.4187 68.5073 95.4565 68.312 95.4565 68.2343C95.4565 68.1944 95.4565 68.1566 95.3788 68.1167C95.3388 68.0768 95.301 68.0768 95.2611 68.1167C95.2233 68.2721 95.1435 68.4674 95.028 68.7026C94.9104 68.9757 94.7949 69.2109 94.6773 69.4041C94.5219 69.5994 94.4043 69.717 94.2488 69.717C94.0934 69.717 94.0157 69.6393 93.9758 69.5217C93.9359 69.4041 93.9359 69.3264 93.9359 69.2487C93.9359 68.9358 93.9758 68.6627 93.9758 68.4296C94.0157 68.1965 94.0157 68.0012 94.0157 67.8059C94.0157 67.5328 93.9758 67.2598 93.8603 67.1044C93.8204 67.0267 93.7049 66.949 93.5474 66.8713C93.4697 66.8335 93.392 66.8335 93.2743 66.7936C93.3521 66.7936 93.4298 66.7936 93.5474 66.7537C93.7007 66.7474 93.896 66.7075 94.1312 66.6297ZM92.8438 66.6297H92.3755C92.7262 66.1992 93.079 65.8485 93.4298 65.5376L93.5474 65.42C93.8204 65.2247 94.0934 65.1071 94.2887 65.0693C94.4064 65.0693 94.4841 65.1092 94.5618 65.1869C94.6794 65.2646 94.7172 65.3822 94.7172 65.5376C94.7172 65.733 94.5996 65.9661 94.3665 66.2412C94.211 66.3966 93.938 66.5142 93.5474 66.5541C93.35 66.5919 93.1147 66.6297 92.8438 66.6297ZM63.7728 64.6408L62.6408 67.138C62.2522 67.9193 61.8994 68.543 61.5487 69.0114C61.2357 69.5196 61.0026 69.7527 60.8451 69.7926C60.8073 69.7926 60.7674 69.7527 60.7275 69.7527C60.6876 69.7128 60.6876 69.675 60.6876 69.5973C60.6876 69.4797 60.7653 69.2466 60.843 68.8938C60.9606 68.5808 61.0782 68.27 61.1937 67.9571L62.4812 64.6408H61.5046L60.5301 66.9427C60.0617 67.7239 59.6333 68.3876 59.2805 68.9337C58.9675 69.4797 58.6945 69.7527 58.4992 69.7926C58.4593 69.7926 58.4215 69.7527 58.3816 69.7527C58.3816 69.7128 58.3417 69.675 58.3417 69.5973C58.3816 69.2844 58.4971 68.9337 58.6924 68.543C58.9276 68.1524 59.1607 67.7239 59.3561 67.2955C59.5892 66.8671 59.7068 66.4365 59.7068 66.0081C59.7467 65.6952 59.669 65.3843 59.5514 65.0336C59.4338 64.7207 59.2006 64.5652 58.8877 64.5253C58.5769 64.5652 58.3417 64.6808 58.1085 64.916C57.9132 65.1491 57.7578 65.4221 57.6402 65.6952C57.5226 65.9682 57.4449 66.1635 57.4071 66.3189C57.4071 66.3966 57.4071 66.4365 57.4848 66.4365C57.5226 66.4365 57.5625 66.3966 57.6024 66.3189C57.6423 66.2013 57.72 66.006 57.8355 65.7729C57.9531 65.4998 58.1085 65.3045 58.264 65.0693C58.4593 64.874 58.6546 64.7564 58.8877 64.7564C58.9654 64.7564 59.0053 64.7963 59.0431 64.9118C59.083 64.9895 59.1208 65.1071 59.1208 65.2625C59.1208 65.3801 59.083 65.4956 59.083 65.6132C59.0431 65.7309 59.0053 65.8464 58.9654 65.9262C58.8877 66.0816 58.7323 66.2769 58.5748 66.5499C58.3795 66.823 58.1841 67.1359 58.0287 67.5244C57.8733 67.9151 57.7956 68.3834 57.7557 68.8518C57.7557 69.2046 57.8334 69.4755 57.951 69.6708C58.0686 69.8662 58.264 69.9838 58.4971 69.9838C58.6924 69.9838 58.8877 69.8662 59.1208 69.633C59.3162 69.3999 59.5115 69.087 59.7446 68.7362C59.9399 68.3855 60.173 68.0348 60.3684 67.6441C60.3306 67.8773 60.2907 68.1503 60.2507 68.4632C60.173 68.7762 60.173 69.0093 60.1331 69.1269C60.1331 69.1269 60.1709 69.2046 60.1709 69.36C60.2108 69.5154 60.2486 69.633 60.3264 69.7884C60.444 69.9061 60.5616 69.9838 60.7548 69.9838C61.1055 69.9838 61.4185 69.7485 61.7314 69.2802C62.0044 68.8119 62.3173 68.2658 62.6681 67.642C62.5505 67.955 62.5127 68.1881 62.4728 68.3456V68.774C62.4728 69.087 62.5127 69.3978 62.6282 69.633C62.7458 69.8662 62.9411 69.9838 63.2141 69.9838C63.4872 69.9838 63.7602 69.8662 63.9555 69.633C64.1907 69.3978 64.3461 69.1248 64.4638 68.8518C64.5814 68.5787 64.6591 68.3456 64.6969 68.228C64.6969 68.1503 64.657 68.1104 64.6192 68.1104C64.5415 68.0705 64.5016 68.1104 64.4638 68.1881C64.4239 68.3435 64.3461 68.5388 64.2285 68.774C64.1109 69.0072 63.9954 69.2424 63.8001 69.4755C63.6447 69.6708 63.4494 69.7884 63.2141 69.7884C63.0965 69.7884 63.0188 69.7485 62.9789 69.633C62.939 69.5553 62.9012 69.4377 62.9012 69.3201L64.7347 64.6387L63.7728 64.6408ZM104.821 64.6408L103.689 67.2157C103.534 67.5664 103.339 67.9571 103.103 68.3477C102.87 68.7383 102.635 69.0891 102.402 69.3621C102.207 69.6351 102.011 69.7905 101.856 69.7905C101.778 69.7905 101.738 69.7506 101.7 69.6729C101.66 69.6351 101.623 69.5553 101.623 69.4398C101.623 69.2067 101.74 68.8938 101.973 68.543C102.207 68.1524 102.442 67.7618 102.637 67.3333C102.87 66.865 102.988 66.3966 103.028 65.8884C103.028 65.5754 102.99 65.2646 102.91 64.9916C102.792 64.7186 102.597 64.5631 102.324 64.5232C102.091 64.5631 101.856 64.6787 101.623 64.9139C101.427 65.147 101.272 65.42 101.154 65.6931C101.037 66.006 100.921 66.2391 100.881 66.4743C100.881 66.5142 100.921 66.552 100.999 66.552C101.037 66.552 101.077 66.552 101.117 66.5121C101.154 66.279 101.272 66.0438 101.39 65.7708C101.507 65.4977 101.663 65.2625 101.818 65.0672C102.013 64.8719 102.169 64.7543 102.324 64.7543C102.402 64.7543 102.442 64.7942 102.442 64.8719C102.482 64.9496 102.519 65.0273 102.519 65.105C102.48 65.378 102.364 65.7288 102.129 66.1593C101.896 66.5877 101.66 67.0561 101.465 67.5244C101.232 67.9928 101.075 68.4611 101.075 68.8518C101.075 69.1647 101.152 69.4377 101.27 69.6708C101.425 69.8662 101.621 69.9838 101.894 69.9838C102.049 69.9838 102.284 69.8284 102.517 69.5553C102.75 69.2823 102.946 68.9694 103.181 68.5787C103.414 68.228 103.609 67.8752 103.767 67.5643V67.6042C103.727 67.7597 103.689 67.9172 103.649 68.1125C103.612 68.3456 103.572 68.5409 103.572 68.7762C103.572 69.087 103.612 69.3999 103.727 69.6351C103.845 69.8683 104.04 69.9859 104.313 69.9859C104.626 69.9859 104.859 69.8683 105.094 69.6351C105.29 69.402 105.445 69.1269 105.563 68.8539C105.68 68.5808 105.758 68.3477 105.796 68.2301C105.796 68.1524 105.796 68.1125 105.718 68.1125C105.678 68.0726 105.6 68.1125 105.6 68.1902C105.523 68.3456 105.445 68.5409 105.367 68.7762C105.25 69.0093 105.094 69.2445 104.939 69.4797C104.744 69.675 104.548 69.7926 104.315 69.7926C104.237 69.7926 104.16 69.7527 104.082 69.6372C104.042 69.5595 104.004 69.4419 104.004 69.3243L105.8 64.643L104.821 64.6408ZM99.1255 64.5232C98.5795 64.5631 98.0712 64.6787 97.6827 64.9916C97.4495 65.147 97.2542 65.3045 97.0589 65.4998C96.9035 65.6552 96.7859 65.8506 96.6683 66.0459C96.3952 66.4365 96.1999 66.865 96.0445 67.2556C95.9269 67.684 95.8492 67.997 95.8492 68.27C95.8492 68.7383 96.0046 69.129 96.2797 69.4797C96.4751 69.7128 96.7481 69.8704 97.061 69.9481C97.2164 69.988 97.3739 69.988 97.5693 69.988C98.0775 69.988 98.5459 69.8326 98.9344 69.5196C99.325 69.1689 99.5981 68.7783 99.8711 68.3099C100.104 67.8815 100.262 67.4131 100.379 66.9826C100.497 66.5541 100.535 66.2013 100.535 65.9682C100.535 65.5775 100.417 65.2268 100.222 64.9538C99.9845 64.6787 99.6317 64.5631 99.1255 64.5232ZM99.514 66.2391C99.3964 66.7074 99.241 67.1758 99.0058 67.7218C98.8105 68.27 98.5375 68.7362 98.2644 69.1668C97.9914 69.5574 97.7184 69.7527 97.4054 69.7905C97.2878 69.7905 97.1723 69.7506 97.0547 69.6729C97.0169 69.633 96.9371 69.5952 96.8993 69.5175C96.8216 69.3621 96.7439 69.1668 96.7439 68.9316C96.7439 68.7762 96.8216 68.5031 96.9392 68.0348L97.0568 67.684C97.1744 67.3711 97.3298 67.0204 97.4853 66.6297C97.7184 66.1215 97.9536 65.6931 98.2266 65.3423C98.4997 64.9517 98.7727 64.7564 99.0856 64.7564C99.3586 64.7564 99.554 64.8341 99.5939 64.9895C99.6716 65.1449 99.7115 65.3024 99.7115 65.4179C99.7115 65.5376 99.6317 65.8107 99.514 66.2391ZM72.2786 68.1125C72.2009 68.0726 72.161 68.1125 72.1232 68.1902C72.0833 68.3456 72.0056 68.5409 71.8901 68.7762C71.8124 69.0093 71.657 69.2445 71.4616 69.4776C71.3062 69.6729 71.1109 69.7905 70.8757 69.7905C70.798 69.7905 70.7581 69.7128 70.7203 69.6351C70.6804 69.5175 70.6426 69.402 70.6426 69.2445C70.6426 69.1668 70.6426 69.0492 70.6804 68.9337C70.7203 68.8161 70.7581 68.7005 70.798 68.5829C70.8757 68.4653 70.9933 68.27 71.1886 67.997C71.3839 67.7239 71.5393 67.411 71.7347 66.9826C71.8901 66.5919 71.9699 66.1635 71.9699 65.6952C71.9699 65.3444 71.93 65.0714 71.8145 64.8761C71.6969 64.643 71.5015 64.5253 71.2684 64.5253C71.0731 64.5631 70.84 64.6808 70.6447 64.916C70.4493 65.1491 70.2141 65.462 70.0188 65.8128C69.7857 66.1635 69.5904 66.5142 69.3551 66.865C69.395 66.6696 69.4727 66.3966 69.5105 66.0837C69.5504 65.7708 69.5883 65.5376 69.5883 65.42V65.1869C69.5504 65.0315 69.5105 64.9139 69.3929 64.7585C69.3152 64.6409 69.1598 64.5631 68.9645 64.5253C68.6516 64.5652 68.3785 64.7984 68.0677 65.2667C67.7548 65.7351 67.4439 66.2811 67.131 66.8671C67.2087 66.5541 67.2864 66.2811 67.3263 66.0081C67.3641 65.775 67.3641 65.5397 67.3641 65.3066C67.3641 65.0735 67.3263 64.8782 67.2087 64.7606C67.0911 64.6051 66.8958 64.5274 66.6627 64.5274C66.4295 64.5673 66.1943 64.6829 65.999 64.9181C65.8037 65.1512 65.6483 65.4242 65.4929 65.7372C65.3374 66.0501 65.2597 66.2832 65.2597 66.4785C65.2198 66.5163 65.2597 66.5163 65.2597 66.5562H65.4151C65.4551 66.5562 65.4551 66.5562 65.4551 66.5163C65.4929 66.3609 65.5727 66.1257 65.7281 65.8527C65.8457 65.5796 66.0011 65.3444 66.1565 65.1113C66.3518 64.8782 66.5073 64.7606 66.6648 64.7606C66.7047 64.7606 66.7824 64.7984 66.7824 64.8782C66.8223 64.9181 66.8601 65.0336 66.8601 65.1113C66.8601 65.1512 66.8202 65.3066 66.7425 65.5397C66.6648 65.7729 66.5871 66.0081 66.5073 66.2412C66.4295 66.5142 66.3518 66.7096 66.2741 66.865L65.0644 69.8305H66.041L67.173 67.3711C67.5637 66.6297 67.9144 66.006 68.2273 65.4977C68.5003 65.0294 68.7356 64.7564 68.891 64.7564C68.9687 64.7564 69.0086 64.7564 69.0464 64.7963C69.0464 64.8362 69.0863 64.874 69.0863 64.9517C69.0863 65.0693 69.0086 65.3024 68.891 65.6153C68.8133 65.9661 68.6957 66.279 68.5781 66.5919L67.3305 69.8305H68.3071L69.2438 67.6063C69.7122 66.7873 70.1406 66.1236 70.4535 65.5775C70.8043 65.0693 71.0794 64.7585 71.2348 64.7585C71.3125 64.7585 71.3524 64.7585 71.3902 64.7984V64.9538C71.3902 65.2667 71.2726 65.6174 71.0395 66.0081C70.8442 66.3987 70.6111 66.7894 70.3758 67.2178C70.1805 67.6483 70.0629 68.0768 70.0251 68.5052C70.0251 68.856 70.1028 69.1689 70.2204 69.4797C70.338 69.7926 70.5333 69.988 70.8841 69.988C71.1571 69.988 71.4301 69.8704 71.6254 69.6372C71.8586 69.4041 72.0161 69.129 72.1337 68.856C72.2513 68.5829 72.329 68.3498 72.3668 68.2322C72.3584 68.1503 72.3185 68.1125 72.2786 68.1125ZM76.9621 64.6408L76.689 65.2646C76.689 65.0693 76.6113 64.9139 76.5336 64.7564C76.4559 64.6388 76.3005 64.561 76.0275 64.5232C75.6767 64.5631 75.2861 64.6787 74.8955 64.9916C74.8178 65.0315 74.7001 65.147 74.5846 65.2247C74.0764 65.6531 73.6479 66.2013 73.2972 66.8629C72.9465 67.4866 72.7512 68.1125 72.7512 68.6963C72.7512 69.0471 72.8289 69.36 72.9465 69.5931C73.1019 69.8662 73.2972 69.9838 73.5702 69.9838C73.8832 69.9838 74.194 69.7884 74.5069 69.4755C74.6623 69.3579 74.78 69.2025 74.8976 69.0471C75.053 68.8518 75.2084 68.6564 75.3659 68.4611C75.599 68.0705 75.7944 67.7975 75.912 67.6021C75.7944 67.9151 75.7565 68.1881 75.7166 68.3834C75.7166 68.5787 75.6767 68.7341 75.7166 68.774C75.6767 69.0849 75.7566 69.3978 75.8721 69.633C75.9897 69.8662 76.1829 69.9838 76.458 69.9838C76.731 69.9838 77.0041 69.8662 77.1994 69.633C77.3947 69.3999 77.59 69.1248 77.7076 68.8518C77.8252 68.5787 77.903 68.3456 77.9408 68.228C77.9408 68.1503 77.9009 68.1104 77.8631 68.1104C77.7853 68.0705 77.7454 68.1104 77.7076 68.1881C77.6677 68.3435 77.59 68.5388 77.4745 68.774C77.3569 69.0072 77.2414 69.2424 77.044 69.4776C76.8886 69.6729 76.6932 69.7905 76.458 69.7905C76.3404 69.7905 76.2627 69.7506 76.2228 69.6351C76.1829 69.5574 76.1451 69.4398 76.1451 69.3222L77.9408 64.6408H76.9621ZM76.1808 66.3567C76.0254 66.8251 75.7902 67.2934 75.4772 67.8395C75.3995 67.9571 75.2441 68.1524 75.0089 68.4632C74.969 68.5031 74.9312 68.5808 74.8913 68.6186C74.7358 68.8917 74.5006 69.1269 74.3053 69.36C74.0323 69.633 73.7992 69.7506 73.6038 69.7884C73.5261 69.7884 73.4862 69.7485 73.4484 69.633C73.4085 69.5553 73.3707 69.5154 73.3707 69.4377C73.3707 69.3201 73.4484 69.1248 73.566 68.814C73.6437 68.5409 73.7992 68.228 73.9567 67.9172C74.0743 67.6063 74.2297 67.3312 74.3473 67.0981C74.5804 66.7075 74.738 66.3966 74.8934 66.1236C75.0488 65.8905 75.1664 65.6952 75.284 65.5376C75.5171 65.1869 75.6746 64.9916 75.7923 64.874C75.87 64.7963 75.9876 64.7564 76.0653 64.7564C76.1829 64.7564 76.2606 64.7963 76.3383 64.874C76.3782 64.9916 76.416 65.1869 76.4559 65.42C76.4538 65.6153 76.3362 65.9283 76.1808 66.3567ZM85.5855 68.1125C85.5078 68.0726 85.4679 68.1125 85.4301 68.1902C85.3923 68.3456 85.3125 68.5409 85.197 68.7762C85.0794 69.0093 84.9638 69.2445 84.7685 69.4776C84.6131 69.6729 84.4178 69.7905 84.1826 69.7905C84.1049 69.7905 84.0271 69.7128 84.0271 69.6351C83.9872 69.5175 83.9494 69.402 83.9494 69.2445C83.9494 69.1668 83.9494 69.0492 83.9893 68.9337L84.107 68.5829C84.1847 68.4653 84.3023 68.27 84.4976 67.997C84.6929 67.7239 84.8483 67.411 85.0037 66.9826C85.1991 66.5919 85.2768 66.1635 85.2768 65.6952C85.2768 65.3444 85.2369 65.0714 85.1214 64.8761C84.9659 64.643 84.8084 64.5253 84.5753 64.5253C84.38 64.5631 84.1469 64.6808 83.9515 64.916C83.7562 65.1491 83.5231 65.462 83.3278 65.8128C83.0947 66.1635 82.8993 66.5142 82.6641 66.865C82.704 66.6696 82.7817 66.3966 82.8195 66.0837C82.8573 65.7708 82.8972 65.5376 82.8972 65.42C82.8972 65.3801 82.8972 65.3024 82.8573 65.1869C82.8573 65.0315 82.8195 64.9139 82.7019 64.7585C82.6242 64.6409 82.4688 64.5631 82.2714 64.5253C81.9606 64.5652 81.6476 64.7984 81.3347 65.2667C81.0218 65.7351 80.7109 66.2811 80.398 66.8671C80.4757 66.5541 80.5534 66.2811 80.5933 66.0081C80.6332 65.775 80.6332 65.5397 80.6332 65.3066C80.6332 65.0735 80.5933 64.8782 80.4778 64.7606C80.3602 64.6051 80.167 64.5274 79.9318 64.5274C79.6986 64.5673 79.4634 64.6829 79.2681 64.9181C79.0728 65.1512 78.8774 65.4242 78.7619 65.7372C78.6065 66.0501 78.5288 66.2832 78.4889 66.4785C78.4889 66.5163 78.4889 66.5163 78.5288 66.5562H78.6842C78.6842 66.5562 78.7241 66.5562 78.7241 66.5163C78.764 66.3609 78.8418 66.1257 78.9972 65.8527C79.1148 65.5796 79.2702 65.3444 79.4256 65.1113C79.6209 64.8782 79.7763 64.7606 79.9339 64.7606C79.9738 64.7606 80.0515 64.7984 80.0515 64.8782C80.0914 64.9181 80.1292 65.0336 80.1292 65.1113C80.1292 65.1512 80.0914 65.3066 80.0116 65.5397L79.7784 66.2412C79.6608 66.5142 79.623 66.7096 79.5453 66.865L78.3356 69.8305H79.3101L80.4421 67.3711C80.8327 66.6297 81.1835 66.006 81.4964 65.4977C81.8093 65.0294 82.0425 64.7564 82.2 64.7564C82.2777 64.7564 82.3176 64.7564 82.3554 64.7963C82.3554 64.8362 82.3953 64.874 82.3953 64.9517C82.3554 65.0693 82.3176 65.3024 82.2 65.6153C82.1223 65.9661 82.0047 66.279 81.8891 66.5919L80.6017 69.8305H81.5783L82.5549 67.6063C83.0232 66.7873 83.4139 66.1236 83.7646 65.5775C84.1154 65.0693 84.3884 64.7585 84.5438 64.7585C84.6215 64.7585 84.6614 64.7585 84.6992 64.7984V64.9538C84.6992 65.2667 84.5816 65.6174 84.3485 66.0081C84.1532 66.3987 83.92 66.7894 83.6848 67.2178C83.4895 67.6483 83.374 68.0768 83.3341 68.5052C83.3341 68.856 83.4118 69.1689 83.5294 69.4797C83.647 69.7926 83.8423 69.988 84.1931 69.988C84.4661 69.988 84.7391 69.8704 84.9344 69.6372C85.1676 69.4041 85.3251 69.129 85.4406 68.856C85.5582 68.5829 85.6359 68.3498 85.6737 68.2322C85.6632 68.1503 85.6233 68.1125 85.5855 68.1125Z" fill="#FFEEB4"/>
<path d="M45.5346 51.8105C45.1839 52.0458 44.8709 52.1613 44.558 52.1613C44.4026 52.1613 44.2451 52.1214 44.0498 52.0437C43.8544 51.9659 43.7368 51.926 43.5814 51.8483C43.5436 51.8084 43.5037 51.8483 43.4638 51.8882C43.4239 51.9281 43.4239 51.9659 43.4638 51.9659C43.6969 52.1613 43.9721 52.2789 44.2052 52.3167C44.4383 52.3944 44.6336 52.3944 44.7512 52.3944C45.5325 52.3944 46.234 52.1613 46.78 51.6929C47.3261 51.2645 47.639 50.6386 47.6768 49.8972C47.6369 49.3512 47.4815 48.8828 47.2085 48.5699C46.8955 48.2192 46.5847 47.9462 46.2718 47.7886C45.9211 47.5933 45.648 47.4757 45.4905 47.4379C45.8412 47.0473 46.2319 46.8141 46.5448 46.7364C46.8577 46.6188 47.0909 46.581 47.2085 46.6188C47.4038 46.6188 47.5592 46.6188 47.6768 46.6566C47.7944 46.6965 47.8322 46.7343 47.8721 46.812C47.912 46.812 47.912 46.8519 47.912 46.8898C47.912 46.9276 47.912 46.9675 47.8721 47.0074C47.8721 47.0473 47.8721 47.0473 47.8322 47.0851C47.7923 47.1628 47.7923 47.2027 47.7923 47.2804C47.7923 47.398 47.7923 47.4757 47.87 47.5912C47.9477 47.7088 48.1053 47.7865 48.2985 47.7865C48.5337 47.7865 48.6891 47.7088 48.7668 47.5534C48.8445 47.4358 48.8844 47.2804 48.8844 47.0851C48.8844 46.9675 48.8466 46.8519 48.7668 46.7721C48.7269 46.6545 48.6114 46.5768 48.4539 46.539C48.2586 46.4214 48.0633 46.3836 47.8679 46.3836C47.8364 46.3479 47.7587 46.3479 47.7209 46.3479C47.0972 46.3878 46.5889 46.4655 46.1206 46.6986C45.6522 46.894 45.3015 47.0893 45.0285 47.2846C44.7554 47.2069 44.4047 47.1292 43.9742 47.0515C43.5457 46.9738 43.0375 46.9339 42.4914 46.9339C41.7101 46.9738 41.0465 47.0515 40.5004 47.2069C40.2274 47.2468 39.9943 47.3245 39.7591 47.44C39.0576 47.7529 38.4716 48.1415 38.0033 48.6098C37.5748 49.0782 37.2619 49.5465 37.0666 50.0527C36.8713 50.521 36.7537 50.9494 36.7537 51.3401C36.7936 52.1214 36.9868 52.6674 37.3774 52.9782C37.7282 53.2912 38.1587 53.4466 38.6648 53.4466C39.0156 53.4466 39.444 53.329 39.9124 53.1337L40.4983 52.7829C40.7314 52.5876 40.9268 52.3923 41.162 52.1193C41.5127 51.6908 41.6702 51.1049 41.708 50.4412C41.708 50.2081 41.6702 50.0128 41.5904 49.8552C41.4728 49.6599 41.3174 49.4646 41.0822 49.2693C41.0045 49.2693 40.9646 49.2693 40.9646 49.3092C40.9247 49.3491 40.8869 49.3869 40.9247 49.4268C41.0024 49.5045 41.0801 49.6221 41.12 49.7397C41.1578 49.8573 41.1977 50.0128 41.1977 50.2081C41.1599 50.521 41.0423 50.9095 40.7693 51.3779C40.6915 51.5333 40.5739 51.6908 40.4962 51.8462C40.2631 52.1193 40.0279 52.3923 39.7549 52.6275C39.3642 52.9782 38.8959 53.1736 38.4674 53.2135C38.0768 53.1736 37.8038 53.0581 37.6084 52.8627C37.4131 52.6296 37.3354 52.3545 37.3354 52.0437C37.3354 51.38 37.5685 50.6785 37.9991 49.9371C38.4275 49.1958 39.0513 48.572 39.8326 48.0239C40.0279 47.8684 40.261 47.7508 40.4962 47.6731C41.12 47.3602 41.8236 47.2048 42.6426 47.2048C42.8001 47.2048 43.0333 47.2048 43.3063 47.2447C43.5793 47.2846 43.8145 47.3224 44.0876 47.3623C44.3606 47.4022 44.5958 47.44 44.7512 47.5177C44.2829 47.9462 43.9322 48.3767 43.6192 48.8051C43.3462 49.2735 43.0732 49.8195 42.8001 50.4832C42.5271 51.1469 42.1764 52.0437 41.7857 53.1358C41.5526 53.7595 41.2775 54.2678 40.9268 54.6584C40.7714 54.8537 40.6138 55.0091 40.4983 55.1268C40.2652 55.3221 40.0699 55.5174 39.8746 55.635C39.5238 55.7127 39.1332 55.7904 38.7426 55.8303C38.3519 55.908 38.0411 55.9857 37.7681 56.1033C37.495 56.221 37.3396 56.3764 37.3396 56.6095C37.3396 56.6872 37.3774 56.7649 37.4173 56.8048C37.495 56.8447 37.5727 56.8825 37.6504 56.8825C38.0012 56.8825 38.354 56.7649 38.7825 56.5318C39.1731 56.3365 39.5238 56.1411 39.7969 55.9857C39.9922 56.0256 40.2253 56.1033 40.4983 56.221C40.6159 56.2987 40.7314 56.3764 40.889 56.4541C41.2796 56.7271 41.7479 56.9623 42.2541 57.1955C42.7623 57.4307 43.2685 57.5861 43.8544 57.5861C44.2451 57.5861 44.5559 57.4685 44.831 57.2354C45.1041 57.0001 45.2994 56.6893 45.4947 56.2987C45.6501 55.9479 45.8076 55.5573 45.9232 55.1667C45.9631 55.1268 45.9231 55.049 45.8454 55.0112C45.8076 54.9713 45.7278 54.9713 45.69 55.0511C45.6123 55.2066 45.4947 55.4418 45.417 55.6749C45.2994 55.8702 45.144 56.1033 44.9886 56.2609C44.7932 56.4562 44.5202 56.5339 44.2073 56.5339C43.8565 56.5339 43.4659 56.4562 43.1152 56.3386C42.7644 56.221 42.3738 56.0655 41.9055 55.9479C41.5148 55.8303 41.0087 55.7526 40.5004 55.7526H40.2673C40.345 55.7127 40.4227 55.635 40.5004 55.5972C41.0087 55.2066 41.5148 54.7382 41.9832 54.1544C42.4914 53.5306 42.9199 52.7493 43.3105 51.8903C43.5436 51.3044 43.8187 50.6428 44.0918 49.9792C44.3648 49.2777 44.7554 48.4964 45.3414 47.7151C45.6921 47.8327 46.0051 48.0659 46.2781 48.4187C46.5511 48.7316 46.7065 49.1202 46.7065 49.5507C46.7065 50.0569 46.5889 50.5252 46.3558 50.9158C46.1206 51.3044 45.8475 51.6152 45.5346 51.8105ZM49.945 56.3365C50.2958 55.9857 50.6087 55.5951 50.8418 55.1667C51.1149 54.6983 51.2703 54.23 51.3879 53.8015C51.5055 53.3731 51.5433 53.0202 51.5433 52.7871C51.5433 52.3965 51.4257 52.0458 51.1926 51.7727C50.9972 51.4997 50.6066 51.3821 50.1383 51.3443C49.63 51.3842 49.1617 51.4997 48.7731 51.7349L48.6954 51.8126C48.3825 52.0079 48.1095 52.281 47.8763 52.554C47.7986 52.6317 47.7209 52.7493 47.681 52.8669C47.408 53.2576 47.2127 53.686 47.0573 54.0766C46.9396 54.5051 46.8619 54.818 46.8619 55.091C46.8619 55.5594 47.0174 55.9878 47.2904 56.3008C47.4458 56.4961 47.6411 56.6137 47.8763 56.7292C48.0717 56.7691 48.3048 56.8069 48.54 56.8468C48.6177 56.8069 48.6954 56.8069 48.7731 56.8069C49.2415 56.7649 49.5943 56.6095 49.945 56.3365ZM48.4224 56.6095C48.1893 56.6095 48.0318 56.5318 47.9162 56.3365C47.9162 56.3365 47.9162 56.2966 47.8763 56.2966C47.7986 56.1411 47.7587 55.9836 47.7587 55.7883C47.7587 55.6329 47.7986 55.4376 47.8763 55.1646C47.9162 55.0469 47.954 54.9692 47.954 54.8516C48.1095 54.4232 48.267 53.9548 48.5001 53.4466C48.5778 53.2513 48.6954 53.0181 48.7731 52.8228C48.9285 52.5876 49.0861 52.3545 49.2415 52.1592C49.5145 51.7685 49.7875 51.5732 50.0606 51.5732C50.3735 51.5732 50.5289 51.6509 50.6066 51.8063C50.6843 51.9617 50.7242 52.1193 50.7242 52.2348C50.7242 52.3503 50.6465 52.6254 50.5289 53.0538C50.4113 53.5222 50.2181 54.0304 50.0227 54.5366C49.7896 55.0826 49.5544 55.5909 49.2814 55.9794C49.126 56.2147 48.9684 56.3701 48.7752 56.4877C48.6576 56.5696 48.54 56.6095 48.4224 56.6095ZM62.7437 51.6929C62.7815 51.653 62.8214 51.653 62.8613 51.5753C62.9012 51.4976 62.8613 51.4577 62.8214 51.4577H61.6516C61.5739 51.4577 61.534 51.4976 61.4962 51.5354C61.4184 51.5753 61.3785 51.6131 61.3785 51.6908L61.221 52.0836C61.1832 51.9281 61.1433 51.7328 61.0656 51.5753C60.9879 51.4577 60.7926 51.38 60.5196 51.3422C60.0911 51.3821 59.6228 51.6152 59.1145 52.0437L58.6861 52.4721C58.3732 52.8228 58.0623 53.2135 57.8271 53.6818C57.4764 54.3056 57.2811 54.9293 57.2411 55.5153C57.2411 55.866 57.3189 56.179 57.4743 56.4121C57.5919 56.6851 57.825 56.8027 58.098 56.8405C58.2933 56.8006 58.4887 56.7229 58.684 56.6053C58.8016 56.5276 58.9192 56.41 59.0347 56.2924C59.3476 55.9794 59.6207 55.6287 59.8538 55.278C60.1268 54.8873 60.2822 54.6143 60.3999 54.419L58.8772 57.8906C58.8373 58.046 58.7596 58.2035 58.6819 58.3191C58.4089 58.8651 58.0959 59.2957 57.7074 59.6464C57.239 60.1147 56.6531 60.3479 55.9117 60.3878C55.4833 60.3878 55.1325 60.2701 54.9372 60.1147C54.7419 59.9593 54.6243 59.8018 54.5865 59.6065C54.5466 59.4511 54.5865 59.3734 54.6642 59.3734C54.702 59.3734 54.7818 59.3734 54.8595 59.4511C54.9372 59.491 55.0548 59.491 55.1325 59.491C55.2502 59.491 55.3678 59.4511 55.4455 59.3356C55.5232 59.2579 55.5631 59.1024 55.5631 58.9449C55.5631 58.7496 55.4854 58.5942 55.3678 58.4766C55.2124 58.3989 55.0548 58.3212 54.9393 58.3212C54.6264 58.3611 54.4311 58.4766 54.2757 58.6719C54.158 58.8273 54.1202 58.9071 54.0803 59.0226C54.0404 59.1003 54.0404 59.178 54.0404 59.2179C54.0404 59.3356 54.0404 59.4511 54.0803 59.5309C54.1181 59.7262 54.2757 59.9215 54.471 60.1168C54.744 60.4298 55.2502 60.5852 55.9138 60.5852C56.7329 60.5852 57.3966 60.4676 57.9048 60.1945C58.2177 60.0391 58.4509 59.8816 58.684 59.6485C58.8394 59.5309 58.9969 59.3356 59.1523 59.1801C59.4653 58.7517 59.6984 58.3212 59.8538 57.8927L62.2333 51.9617C62.311 51.884 62.3509 51.8063 62.4286 51.7265C62.5064 51.6866 62.624 51.6866 62.7017 51.6866L62.7437 51.6929ZM60.7149 53.1757C60.5595 53.644 60.2864 54.1124 59.9735 54.6584C59.8958 54.776 59.7782 54.9713 59.5451 55.2822C59.3098 55.5951 59.0767 55.9059 58.8037 56.179L58.6861 56.2966C58.4908 56.4919 58.2954 56.6095 58.14 56.6095C58.0623 56.6095 58.0224 56.5696 57.9846 56.4919C57.9447 56.3743 57.9069 56.3365 57.9069 56.2567C57.9069 56.139 57.9846 55.9437 58.0623 55.6329C58.1799 55.3599 58.2975 55.0469 58.453 54.7361C58.5307 54.5807 58.6084 54.4232 58.6861 54.2678C58.7638 54.1502 58.8037 54.0346 58.8814 53.917C59.272 53.2156 59.5829 52.6695 59.8181 52.3566C60.0134 52.0058 60.1688 51.8105 60.2864 51.6929C60.4041 51.6152 60.5217 51.5753 60.5994 51.5753C60.6771 51.5753 60.7548 51.6152 60.8346 51.6929C60.9123 51.8105 60.9522 52.0058 60.9522 52.239C60.948 52.4343 60.8703 52.7472 60.7149 53.1757ZM65.8646 51.3422C65.5538 51.3821 65.3185 51.4199 65.0455 51.4976C64.8103 51.5753 64.6171 51.653 64.4217 51.8105C63.9933 52.0836 63.6405 52.4343 63.4073 52.8648C63.1343 53.2555 62.939 53.6839 62.7815 54.0745C62.7815 54.1523 62.7416 54.23 62.7416 54.3098C62.624 54.6227 62.5862 54.8957 62.5862 55.091C62.5862 55.3641 62.6261 55.6371 62.7416 55.8324C62.7815 56.0277 62.897 56.1832 63.0146 56.3008C63.2876 56.6515 63.7182 56.809 64.2642 56.8468C64.5772 56.809 64.8103 56.7691 65.0455 56.6914C65.2807 56.6137 65.4739 56.4961 65.6693 56.3407C66.02 55.9899 66.3329 55.5993 66.566 55.1709C66.7992 54.7025 66.9945 54.2342 67.1121 53.8057C67.2297 53.3773 67.2675 53.0244 67.2675 52.7913C67.2675 52.4007 67.1499 52.05 66.9168 51.7769C66.7236 51.4976 66.3329 51.3821 65.8646 51.3422ZM66.2552 53.0602C66.1376 53.5285 65.9423 54.0367 65.747 54.5429C65.5517 55.0889 65.3185 55.5195 65.0434 55.908L65.0035 55.9857C64.7305 56.3764 64.4574 56.6095 64.1445 56.6095C63.9114 56.6095 63.7539 56.5318 63.6363 56.3365C63.5187 56.1811 63.4808 55.9857 63.4808 55.7904C63.4808 55.5951 63.5586 55.3221 63.6762 54.8537C63.8316 54.4253 63.9891 53.9569 64.2222 53.4487C64.4175 52.9404 64.6906 52.512 64.9636 52.1613C65.0014 52.0836 65.0413 52.0437 65.0413 52.0058C65.3143 51.7328 65.5496 51.5774 65.7827 51.5774C66.0956 51.5774 66.251 51.6551 66.3287 51.8105C66.4064 51.9659 66.4463 52.1235 66.4463 52.239C66.4463 52.3545 66.3728 52.6296 66.2552 53.0602ZM75.1895 54.9314C75.1118 54.8915 75.0719 54.9314 75.0341 55.049C74.9963 55.1667 74.9165 55.362 74.8009 55.5951C74.6833 55.8681 74.5678 56.0634 74.3725 56.2966C74.2171 56.4919 74.0218 56.6095 73.7865 56.6095C73.6689 56.6095 73.5912 56.5696 73.5534 56.4541C73.5135 56.3764 73.4757 56.2588 73.4757 56.1411V55.9059C73.5156 55.7883 73.5156 55.7106 73.5534 55.593L75.3092 51.4577H74.3347L73.2027 53.9947C72.8121 54.7361 72.4235 55.3599 72.1106 55.8282C71.7977 56.3365 71.5645 56.6095 71.407 56.6095C71.3692 56.6095 71.3293 56.6095 71.2894 56.5696C71.2495 56.5297 71.2495 56.4919 71.2495 56.4142C71.2495 56.3365 71.2894 56.1411 71.3671 55.8681C71.4448 55.5552 71.5624 55.2444 71.7178 54.8138L72.8877 51.8084C72.9276 51.7307 72.9654 51.6908 73.0053 51.653C73.0431 51.6131 73.1229 51.5753 73.1607 51.5753L73.2006 51.3422C72.7722 51.3821 72.3815 51.4598 72.0308 51.5753C71.68 51.7307 71.4448 51.926 71.3293 52.1613C70.5879 53.6041 70.002 54.6983 69.4958 55.4376C69.3404 55.7106 69.1829 55.9458 69.0275 56.1012C68.7167 56.452 68.4415 56.6095 68.2483 56.6095C68.0929 56.6095 67.9753 56.5318 67.8976 56.4142C67.8199 56.2966 67.78 56.1811 67.78 55.9857C67.78 55.908 67.78 55.8681 67.8199 55.8303C67.8598 55.7526 67.8976 55.7526 67.9375 55.7526C67.9774 55.7526 68.0152 55.7526 68.0929 55.8303C68.1328 55.8702 68.2105 55.8702 68.3659 55.8702C68.4835 55.8702 68.5612 55.8303 68.6789 55.7148C68.7566 55.5972 68.7965 55.4796 68.7965 55.3242C68.7965 55.1688 68.7188 55.0112 68.6011 54.8957C68.4835 54.7781 68.3281 54.7403 68.1328 54.7403C67.8997 54.7403 67.7044 54.818 67.5468 55.0133C67.3914 55.2087 67.3116 55.4418 67.3116 55.7148C67.3116 56.0277 67.3893 56.3008 67.5846 56.4961C67.7401 56.7313 67.9753 56.809 68.2483 56.8468C68.4814 56.8069 68.7167 56.6515 68.9897 56.3785L69.0296 56.3386C69.2648 56.0655 69.5357 55.6749 69.8487 55.2465C70.1217 54.7781 70.3947 54.3098 70.6299 53.8414C70.903 53.3731 71.1361 52.9446 71.3314 52.5918C71.3713 52.4364 71.4868 52.3188 71.5645 52.2012C71.6821 52.1235 71.7599 52.0058 71.8754 51.968L71.0563 54.0745C70.9387 54.3098 70.861 54.6206 70.8211 54.9713C70.7434 55.3221 70.7034 55.635 70.7034 55.9479C70.7034 55.9479 70.7434 56.0256 70.7434 56.1811C70.7833 56.3365 70.8211 56.4541 70.8988 56.6095C71.0164 56.7271 71.134 56.8048 71.3272 56.8447C71.6779 56.8048 71.9909 56.5717 72.3038 56.1033C72.5768 55.635 72.8898 55.0889 73.2405 54.503C73.1229 54.776 73.0851 55.0112 73.0452 55.1667C73.0452 55.3221 73.0053 55.4796 73.0452 55.5951C73.0452 55.908 73.0851 56.2189 73.2006 56.4541C73.3182 56.6893 73.5114 56.8048 73.7865 56.8447C74.0596 56.8048 74.3326 56.6893 74.5279 56.4541C74.761 56.221 74.9186 55.9458 75.0341 55.6728C75.1517 55.3998 75.2294 55.2045 75.2672 55.049C75.2693 54.9713 75.2294 54.9314 75.1895 54.9314ZM54.5088 57.8969L56.8883 51.9659C56.9282 51.8882 57.0059 51.8105 57.0836 51.7307C57.1613 51.6908 57.279 51.6908 57.3567 51.6908C57.4344 51.6908 57.4743 51.6509 57.5121 51.5732C57.5121 51.4955 57.5121 51.4556 57.4722 51.4556H56.2625C56.2246 51.4556 56.1847 51.4955 56.107 51.5333C56.0692 51.5732 56.0293 51.611 56.0293 51.6887L55.834 52.0794C55.834 51.9239 55.7962 51.7286 55.7164 51.5711C55.5988 51.4535 55.4434 51.3758 55.1703 51.338C54.8196 51.3779 54.4689 51.5333 54.0782 51.8063C53.9606 51.884 53.843 51.9617 53.7653 52.0395C53.2571 52.5078 52.8286 53.016 52.438 53.6776C52.0872 54.3014 51.9318 54.9272 51.8919 55.5111C51.8919 55.8618 51.9696 56.1748 52.0872 56.4079C52.2427 56.6809 52.4779 56.7985 52.7509 56.8363C53.0638 56.7964 53.3747 56.641 53.6876 56.2903C53.8052 56.1727 53.9606 56.0172 54.0782 55.8618C54.2337 55.6665 54.3891 55.4712 54.5067 55.2759C54.7398 54.8852 54.9351 54.6122 55.0527 54.4169L54.0803 56.6872L53.5343 57.8969C53.2214 58.5984 52.8328 59.2242 52.3645 59.6527C51.8961 60.121 51.3102 60.3542 50.5688 60.3941C50.1005 60.3941 49.7875 60.2764 49.5922 60.121C49.3591 59.9656 49.2814 59.8081 49.2415 59.6128C49.2016 59.4574 49.2415 59.3797 49.3192 59.3797C49.3591 59.3797 49.4368 59.3797 49.5145 59.4574C49.5922 59.4973 49.6699 59.4973 49.7875 59.4973C49.9051 59.4973 50.0227 59.4574 50.1005 59.3419C50.1782 59.2642 50.2181 59.1087 50.2181 58.9512C50.2181 58.7559 50.1404 58.6005 49.9828 58.4829C49.8652 58.4052 49.7098 58.3275 49.5922 58.3275C49.2793 58.3674 49.084 58.4829 48.9285 58.6782C48.8508 58.7559 48.8109 58.8336 48.7731 58.8735C48.7332 59.0289 48.6954 59.1465 48.6954 59.2242C48.6555 59.4196 48.6954 59.575 48.7731 59.7325C48.8508 59.8501 48.9684 60.0055 49.1239 60.1231C49.3969 60.4361 49.9051 60.5915 50.5688 60.5915C51.3879 60.5915 52.0515 60.4739 52.5598 60.2008C53.068 59.9278 53.4965 59.5771 53.7695 59.1864C53.8871 59.031 54.0026 58.9134 54.0824 58.758C54.2379 58.4829 54.3933 58.2098 54.5088 57.8969ZM54.6264 54.6584C54.5487 54.776 54.4311 54.9713 54.198 55.2822C54.158 55.3599 54.1202 55.3998 54.0803 55.4376C53.885 55.7106 53.6897 55.9458 53.4566 56.179C53.1836 56.452 52.9882 56.6074 52.7929 56.6074C52.7152 56.6074 52.6375 56.5675 52.5976 56.4898C52.5598 56.3722 52.5598 56.3344 52.5598 56.2546C52.5598 56.1369 52.5976 55.9416 52.7152 55.6308C52.8328 55.3578 52.9483 55.0448 53.1058 54.734C53.2613 54.4211 53.3789 54.1502 53.5343 53.9149C53.7296 53.5642 53.9249 53.2135 54.0803 52.9782C54.2358 52.7052 54.3534 52.5099 54.4311 52.3545C54.6663 52.0037 54.8217 51.8084 54.9393 51.6908C55.0569 51.6131 55.1724 51.5732 55.2502 51.5732C55.3279 51.5732 55.4056 51.6131 55.4854 51.6908C55.5631 51.8084 55.603 52.0037 55.603 52.2369C55.603 52.4322 55.5253 52.7451 55.3699 53.1736C55.1724 53.644 54.9393 54.1124 54.6264 54.6584Z" fill="#FFEEB4"/>
<path d="M58.6399 74.9862C58.7176 74.8854 58.8163 74.8035 58.9339 74.7447C59.0515 74.6837 59.1901 74.6543 59.3476 74.6543C59.4989 74.6543 59.6417 74.6879 59.7719 74.7573C59.9042 74.8266 60.0134 74.9148 60.0995 75.0177L60.1562 75.087L60.1877 75.003C60.2024 74.9652 60.2192 74.9253 60.2381 74.8875C60.257 74.8497 60.2822 74.8098 60.3095 74.7699L60.341 74.7237L60.2948 74.6942C60.1583 74.6081 60.0029 74.5451 59.8307 74.5073C59.2111 74.3708 58.705 74.4821 58.3752 74.8182C58.1379 75.0618 58.0161 75.3873 58.0161 75.7843C58.0161 76.1518 58.1358 76.4584 58.3731 76.6957C58.6105 76.931 58.9297 77.0507 59.3224 77.0507C59.4842 77.0507 59.6501 77.0297 59.816 76.9877C59.984 76.9457 60.131 76.8869 60.257 76.8113L60.3095 76.7776L60.2675 76.7314C60.2528 76.7146 60.2381 76.6915 60.2234 76.6642C60.2087 76.6348 60.194 76.5991 60.1835 76.5634L60.1604 76.4899L60.1016 76.5382C59.9819 76.6327 59.8559 76.7062 59.7257 76.7545C59.48 76.847 59.23 76.8575 58.9906 76.7587C58.8772 76.7125 58.7764 76.6453 58.6882 76.555C58.6 76.4647 58.5286 76.3534 58.474 76.2211C58.4194 76.0888 58.392 75.9334 58.392 75.7633C58.392 75.6183 58.4131 75.4755 58.453 75.3411C58.5034 75.2067 58.5622 75.0891 58.6399 74.9862ZM62.1346 76.5088C62.1136 76.492 62.0926 76.4731 62.0758 76.4521L62.0275 76.3975L61.9918 76.4605C61.9309 76.5676 61.8532 76.6558 61.7608 76.7251C61.6747 76.7903 61.5634 76.8239 61.4352 76.8239C61.3344 76.8239 61.2462 76.8029 61.1769 76.7608C61.1055 76.7188 61.0446 76.6621 60.9984 76.5949C60.9522 76.5256 60.9165 76.4437 60.8934 76.3513C60.8703 76.2568 60.8598 76.1602 60.8598 76.0615C60.8598 76.0384 60.8598 76.0153 60.8619 75.9964L60.864 75.9817H62.2669V75.9292C62.2669 75.6498 62.1808 75.4335 62.0086 75.2844C61.8406 75.1374 61.6411 75.0639 61.4163 75.0639C61.1454 75.0639 60.9186 75.1563 60.7443 75.339C60.57 75.5217 60.4797 75.7569 60.4797 76.0384C60.4797 76.1686 60.4986 76.2967 60.5364 76.4143C60.5763 76.5361 60.633 76.6432 60.7107 76.7335C60.7884 76.826 60.8892 76.8974 61.0068 76.952C61.1265 77.0045 61.2651 77.0318 61.4247 77.0318C61.5907 77.0318 61.7461 76.9961 61.8847 76.9289C62.0254 76.8596 62.1409 76.7545 62.2291 76.618L62.269 76.5571L62.1976 76.5403C62.1745 76.534 62.1535 76.5235 62.1346 76.5088ZM60.8934 75.7654C60.9207 75.6309 60.9753 75.5154 61.0509 75.4188C61.1349 75.3117 61.2546 75.2613 61.4163 75.2613C61.5529 75.2613 61.6579 75.3096 61.7398 75.4062C61.8133 75.4944 61.8595 75.6162 61.8763 75.7654H60.8934ZM64.7893 76.6012L64.6024 75.1059H64.4595L63.6867 76.5088C63.5607 76.2967 63.4388 76.0783 63.3212 75.8599C63.191 75.6183 63.0545 75.3747 62.9138 75.1332L62.8991 75.1059H62.7626L62.6429 75.967C62.6198 76.1413 62.5946 76.3198 62.5673 76.5025C62.54 76.681 62.5126 76.8218 62.4853 76.9205L62.4664 76.9877H62.8298L62.8214 76.9289C62.8088 76.8365 62.8088 76.7062 62.8172 76.5445C62.8277 76.3744 62.8424 76.1791 62.8613 75.9649L62.8802 75.757C62.9684 75.9019 63.0608 76.0657 63.1595 76.2442C63.2897 76.4815 63.4199 76.7251 63.5438 76.9667L63.5585 76.9961H63.6678L64.3608 75.7338L64.4112 76.2631C64.4238 76.3891 64.4322 76.513 64.4364 76.6285C64.4406 76.7482 64.4406 76.8491 64.4385 76.9331L64.4364 76.9877H64.8607L64.8439 76.9226C64.8229 76.826 64.804 76.7188 64.7893 76.6012ZM66.7131 76.5088C66.6921 76.492 66.671 76.4731 66.6542 76.4521L66.6059 76.3975L66.5702 76.4605C66.5093 76.5676 66.4316 76.6558 66.3392 76.7251C66.2531 76.7903 66.1418 76.8239 66.0137 76.8239C65.9129 76.8239 65.8247 76.8029 65.7554 76.7608C65.684 76.7188 65.623 76.6621 65.5768 76.5949C65.5306 76.5256 65.4949 76.4437 65.4718 76.3513C65.4487 76.2568 65.4382 76.1602 65.4382 76.0615C65.4382 76.0384 65.4382 76.0153 65.4403 75.9964C65.4403 75.9922 65.4403 75.9859 65.4403 75.9817H66.8433V75.9292C66.8433 75.6498 66.7572 75.4335 66.5849 75.2844C66.4148 75.1374 66.2153 75.0639 65.9927 75.0639C65.7218 75.0639 65.4949 75.1563 65.3206 75.339C65.1442 75.5217 65.056 75.7569 65.056 76.0384C65.056 76.1707 65.0749 76.2967 65.1127 76.4143C65.1505 76.5361 65.2093 76.6432 65.287 76.7335C65.3647 76.826 65.4655 76.8995 65.5831 76.952C65.7008 77.0045 65.8415 77.0318 65.999 77.0318C66.1649 77.0318 66.3203 76.9961 66.4589 76.9289C66.5996 76.8596 66.7152 76.7545 66.8034 76.618L66.8433 76.5571L66.7719 76.5403C66.7509 76.534 66.732 76.5235 66.7131 76.5088ZM65.4718 75.7654C65.4991 75.633 65.5516 75.5154 65.6294 75.4188C65.7134 75.3117 65.8331 75.2613 65.9948 75.2613C66.1313 75.2613 66.2363 75.3096 66.3182 75.4062C66.3917 75.4944 66.4379 75.6162 66.4568 75.7654H65.4718ZM68.8427 76.8134C68.8364 76.7587 68.8322 76.6936 68.8322 76.6222C68.8301 76.5487 68.8301 76.4689 68.8301 76.3828V75.5238C68.8301 75.4545 68.8322 75.3915 68.8385 75.3348C68.8427 75.2802 68.8511 75.2277 68.8595 75.1815L68.8721 75.1185H68.6389L67.5636 76.4542V75.7233C67.5636 75.6372 67.5636 75.5574 67.5657 75.4839C67.5678 75.4083 67.5699 75.3453 67.5762 75.2928C67.5846 75.2256 67.5951 75.2046 67.5972 75.2004L67.6476 75.1206H67.1352L67.1835 75.2004C67.1856 75.2046 67.1961 75.2256 67.2045 75.2949C67.2108 75.3516 67.215 75.4167 67.215 75.486C67.2171 75.5595 67.2171 75.6393 67.2171 75.7254V76.5844C67.2171 76.6537 67.215 76.7167 67.2087 76.7734C67.2045 76.8302 67.1961 76.8806 67.1877 76.9268L67.1751 76.9898H67.4082L68.4835 75.654V76.5844C68.4814 76.6684 68.4772 76.7419 68.4709 76.805C68.4625 76.8848 68.452 76.9058 68.4499 76.9079L68.3995 76.9877H68.9141L68.8637 76.9079C68.8595 76.9016 68.849 76.8806 68.8427 76.8134ZM67.7359 74.9736C67.8157 74.9967 67.8976 75.0093 67.9795 75.0093C68.1013 75.0093 68.221 74.9799 68.3365 74.9232C68.4499 74.8665 68.5507 74.7972 68.6347 74.7153L68.6683 74.6837L68.5822 74.564L68.5402 74.5913C68.4772 74.6333 68.4079 74.6648 68.3365 74.6858C68.1979 74.7278 68.0551 74.73 67.9312 74.6837C67.8724 74.6627 67.8241 74.6249 67.7821 74.5724L67.7296 74.5052L67.6939 74.5829C67.6812 74.6102 67.6602 74.6375 67.6287 74.6669C67.6014 74.6942 67.5699 74.7131 67.5363 74.7194L67.4565 74.7384L67.5069 74.8035C67.5741 74.8896 67.6518 74.9463 67.7359 74.9736ZM70.9534 75.486C70.9555 75.4062 70.9576 75.3432 70.9639 75.2928C70.9723 75.2235 70.9828 75.2046 70.9849 75.2004L71.0374 75.1206H70.5207L70.5711 75.2004C70.5774 75.2109 70.5984 75.2571 70.6005 75.4482C70.6026 75.5952 70.6047 75.7402 70.6047 75.883C70.6047 75.8935 70.6047 75.8998 70.6026 75.904C70.5984 75.904 70.5942 75.9061 70.5879 75.9061H69.7184C69.7142 75.9061 69.7079 75.9061 69.7037 75.904C69.7037 75.8998 69.7016 75.8935 69.7016 75.883C69.7016 75.7402 69.7037 75.5952 69.7058 75.4482C69.7079 75.2571 69.7289 75.2109 69.7352 75.2025L69.7878 75.1206H69.2711L69.3215 75.2004C69.3236 75.2046 69.3341 75.2256 69.3425 75.2928C69.3488 75.3495 69.353 75.4146 69.353 75.486C69.3551 75.5616 69.3551 75.6414 69.3551 75.7254V76.3807C69.3551 76.4647 69.3551 76.5445 69.353 76.6201C69.3509 76.6936 69.3488 76.7587 69.3425 76.8134C69.3341 76.8806 69.3236 76.9016 69.3215 76.9079L69.2711 76.9877H69.7857L69.7352 76.9079C69.7331 76.9037 69.7226 76.8827 69.7142 76.8155C69.7079 76.7587 69.7037 76.6957 69.7037 76.6243C69.7016 76.5508 69.7016 76.471 69.7016 76.387V76.1497C69.7016 76.1392 69.7016 76.1329 69.7037 76.1287C69.7079 76.1287 69.7121 76.1266 69.7184 76.1266H70.5879C70.5921 76.1266 70.5984 76.1266 70.6026 76.1287C70.6026 76.1329 70.6047 76.1413 70.6047 76.1497V76.387C70.6047 76.471 70.6047 76.5508 70.6026 76.6243C70.6005 76.6978 70.5984 76.7629 70.5921 76.8155C70.5858 76.8827 70.5753 76.9037 70.5711 76.9079L70.5207 76.9877H71.0374L70.9849 76.9079C70.9828 76.9037 70.9723 76.8827 70.9639 76.8155C70.9576 76.7651 70.9555 76.702 70.9534 76.6222C70.9513 76.5466 70.9513 76.4668 70.9513 76.3828V75.7275C70.9513 75.6414 70.9513 75.5616 70.9534 75.486ZM72.9003 76.7293C72.8708 76.66 72.8561 76.5865 72.8561 76.5109V75.7696C72.8561 75.4839 72.7805 75.2928 72.6314 75.1983C72.4907 75.108 72.329 75.0639 72.1547 75.0639C71.9867 75.0639 71.8333 75.0954 71.6989 75.1584C71.5624 75.2214 71.4448 75.318 71.3461 75.4482L71.3062 75.5007L71.3671 75.528C71.3986 75.5406 71.4259 75.5595 71.449 75.5784C71.4763 75.6015 71.4973 75.6267 71.5183 75.6561L71.5708 75.7338L71.6086 75.6477C71.6611 75.5322 71.7325 75.4377 71.8228 75.3684C71.909 75.3012 72.0224 75.2655 72.1589 75.2655C72.2492 75.2655 72.3332 75.2907 72.4067 75.3432C72.476 75.3915 72.5096 75.486 72.5096 75.6246V75.7549C72.4592 75.8011 72.3773 75.8305 72.266 75.8452C72.1295 75.8641 71.9888 75.8872 71.8502 75.9187C71.7052 75.9502 71.5771 76.0027 71.4658 76.0783C71.344 76.1581 71.2831 76.2925 71.2831 76.4773C71.2831 76.6369 71.3377 76.7713 71.4469 76.8722C71.554 76.973 71.7031 77.0234 71.8901 77.0234C72.035 77.0234 72.1715 76.9856 72.2975 76.9142C72.3857 76.8638 72.4634 76.8008 72.5327 76.7251C72.5516 76.8092 72.5894 76.8764 72.6461 76.9226C72.7259 76.9898 72.8372 77.0234 72.9738 77.0234C72.9885 77.0234 73.0032 77.0234 73.02 77.0213C73.0368 77.0192 73.0515 77.0192 73.0683 77.015L73.1124 77.0087V76.847L73.0683 76.8407C72.9822 76.826 72.9255 76.7903 72.9003 76.7293ZM71.9636 76.7797C71.8628 76.7797 71.7913 76.7503 71.743 76.6873C71.6926 76.6222 71.6653 76.5382 71.6653 76.4374C71.6653 76.3261 71.6926 76.2484 71.7451 76.2085C71.8039 76.1623 71.8754 76.1287 71.9657 76.1098C72.0602 76.0888 72.1631 76.072 72.2723 76.0573C72.3584 76.0468 72.4382 76.0216 72.5117 75.988V76.4353C72.4676 76.5214 72.3941 76.5991 72.2933 76.6684C72.1841 76.744 72.077 76.7797 71.9636 76.7797ZM74.9522 76.8218C74.9459 76.7714 74.9416 76.7104 74.9416 76.6432C74.9395 76.5739 74.9396 76.5004 74.9396 76.4206V75.6204C74.9396 75.5385 74.9416 75.4545 74.9479 75.3663C74.9542 75.2655 74.9669 75.2151 74.9774 75.192L75.0089 75.1185H74.1835C73.9504 75.1185 73.7676 75.1773 73.6437 75.2907C73.5198 75.4062 73.4568 75.5532 73.4568 75.7254C73.4568 75.883 73.5135 76.0174 73.6269 76.1266C73.7046 76.2001 73.8159 76.2526 73.9567 76.2799C73.9084 76.3093 73.8621 76.3492 73.8159 76.3975L73.5954 76.6411C73.5492 76.6873 73.5093 76.723 73.4778 76.744C73.44 76.7713 73.3938 76.7776 73.335 76.7671C73.3203 76.765 73.3056 76.7587 73.2888 76.7503L73.2489 76.7293L73.1649 76.8512L73.1964 76.8827C73.2426 76.9289 73.2909 76.9625 73.3434 76.9856C73.398 77.0108 73.4547 77.0213 73.5135 77.0213C73.5912 77.0213 73.6542 77.0066 73.7046 76.9751C73.7508 76.9478 73.8054 76.8974 73.8768 76.8218L74.2213 76.4437C74.2801 76.3807 74.341 76.3366 74.4103 76.3156C74.467 76.2967 74.5279 76.282 74.5909 76.2673C74.5909 76.3933 74.5888 76.5193 74.5867 76.6474C74.5825 76.8428 74.5636 76.889 74.5573 76.8974L74.5048 76.9772H75.0278L74.969 76.8932C74.969 76.9016 74.9585 76.8848 74.9522 76.8218ZM73.8243 75.7044C73.8243 75.591 73.86 75.4986 73.9315 75.423C74.0008 75.3495 74.1205 75.3117 74.2864 75.3117H74.4838C74.5615 75.3117 74.5762 75.3285 74.5762 75.3285C74.5846 75.3432 74.593 75.3768 74.593 75.4419V76.0867C74.5594 76.093 74.5216 76.0972 74.4838 76.1014C74.4292 76.1056 74.3809 76.1077 74.3389 76.1077C74.1814 76.1077 74.0533 76.0762 73.9588 76.0111C73.8663 75.9481 73.8243 75.8494 73.8243 75.7044ZM78.2789 76.7608C78.2705 76.7671 78.2642 76.7692 78.2558 76.7713C78.1865 76.7903 78.1193 76.7587 78.0689 76.6978C78.0142 76.6285 77.9575 76.5529 77.8987 76.4689L77.7664 76.2757C77.716 76.2043 77.6572 76.1371 77.5879 76.0762C77.5375 76.03 77.4766 75.9964 77.4031 75.9733L77.7118 75.6918C77.8168 75.591 77.9155 75.5007 78.0037 75.4188C78.092 75.3369 78.1718 75.2697 78.2411 75.2151L78.3608 75.1206H77.8189L77.8063 75.1563C77.7832 75.2214 77.7412 75.2928 77.6782 75.3726C77.6131 75.4545 77.5438 75.5343 77.4682 75.6099L77.2498 75.8242C77.1784 75.8893 77.1385 75.9124 77.1196 75.9187C77.0881 75.9292 77.0545 75.9355 77.0209 75.9355H77.0103V75.9166C77.0103 75.7675 77.0104 75.6162 77.0125 75.465C77.0146 75.2718 77.0356 75.2172 77.044 75.2025L77.0944 75.1227H76.584L76.6323 75.2025C76.6365 75.2067 76.6449 75.2277 76.6533 75.297C76.6596 75.3516 76.6638 75.4167 76.6638 75.4881C76.6659 75.5616 76.6659 75.6414 76.6659 75.7275V76.3849C76.6659 76.471 76.6659 76.5508 76.6638 76.6243C76.6617 76.6999 76.6596 76.7629 76.6533 76.8155C76.6449 76.8827 76.6344 76.9037 76.6323 76.91L76.584 76.9898H77.0944L77.044 76.91C77.0419 76.9058 77.0314 76.8848 77.023 76.8176C77.0166 76.7629 77.0125 76.6978 77.0125 76.6264C77.0104 76.5529 77.0103 76.4731 77.0103 76.387V76.1266H77.0566C77.1196 76.1266 77.1784 76.1455 77.233 76.1812C77.2918 76.2211 77.3527 76.2862 77.4136 76.3765L77.6404 76.7041C77.716 76.8155 77.779 76.8974 77.8336 76.9457C77.8945 77.0024 77.9806 77.0318 78.0899 77.0318C78.1424 77.0318 78.197 77.0213 78.2495 76.9982C78.3062 76.973 78.3545 76.9352 78.3923 76.8827L78.4175 76.8491L78.3146 76.7356L78.2789 76.7608Z" fill="#FFEEB4"/>
<path d="M80.1605 76.8134C80.1542 76.7609 80.15 76.6979 80.15 76.6223C80.1479 76.5488 80.1479 76.4669 80.1479 76.3829V75.6352C80.1479 75.5407 80.1521 75.4483 80.1584 75.3664C80.1668 75.2887 80.1752 75.2299 80.1899 75.1921L80.2151 75.1228H78.9235L78.9445 75.1921C78.9613 75.2446 78.9739 75.3034 78.9823 75.3664C78.9907 75.4273 78.9949 75.4924 78.9949 75.5575V75.6625C78.9949 75.7927 78.9844 75.9187 78.9613 76.0364C78.9382 76.154 78.9046 76.2569 78.8605 76.3451C78.8164 76.4312 78.7597 76.5005 78.6946 76.553C78.6316 76.6013 78.5581 76.6286 78.4698 76.6307L78.3984 76.6328L78.4215 76.7C78.4299 76.7252 78.4383 76.7525 78.4446 76.7798C78.4488 76.8071 78.453 76.8344 78.453 76.8596C78.453 76.8722 78.4509 76.8848 78.4488 76.8974L78.4425 76.9331L78.4929 76.952L78.4404 76.9436L78.4299 77.0088L78.495 77.0046C78.619 76.9962 78.7282 76.9541 78.8227 76.8806C78.913 76.8092 78.9907 76.7105 79.0516 76.5887C79.1104 76.469 79.1545 76.3283 79.1839 76.1687C79.2112 76.0112 79.2259 75.8368 79.2259 75.652V75.4252C79.2259 75.3538 79.2406 75.337 79.2427 75.3349C79.2532 75.3244 79.27 75.3202 79.2952 75.3202H79.7027C79.7657 75.3202 79.7867 75.3307 79.7888 75.3328C79.7888 75.3328 79.8014 75.3517 79.8014 75.4273V76.3829C79.8014 76.469 79.7993 76.5488 79.7993 76.6223C79.7972 76.6958 79.7951 76.7609 79.7888 76.8134C79.7825 76.8806 79.772 76.9016 79.7678 76.9058L79.7174 76.9857H80.234L80.1836 76.9058C80.1773 76.9016 80.1689 76.8806 80.1605 76.8134ZM82.3027 76.7903C82.2985 76.721 82.2943 76.6412 82.2922 76.553V75.5239C82.2922 75.4546 82.2943 75.3916 82.2985 75.3349C82.3027 75.2824 82.3111 75.2299 82.3195 75.1816L82.3321 75.1186H82.099L81.0237 76.448V75.7234C81.0237 75.6373 81.0237 75.5575 81.0258 75.484C81.0279 75.4126 81.03 75.3475 81.0363 75.2929C81.0426 75.2257 81.0531 75.2047 81.0573 75.2005L81.1077 75.1207H80.5931L80.6436 75.2005C80.6457 75.2047 80.6562 75.2257 80.6646 75.295C80.6709 75.3475 80.6751 75.4105 80.6751 75.4861C80.6772 75.5596 80.6772 75.6394 80.6772 75.7255V76.5845C80.6772 76.6538 80.6751 76.7168 80.6688 76.7735C80.6646 76.826 80.6583 76.8785 80.6478 76.9268L80.6352 76.9899H80.8683L81.9436 75.6604V76.5551C81.9415 76.6454 81.9373 76.7252 81.931 76.7945C81.9226 76.8827 81.9121 76.9079 81.9079 76.9142L81.8638 76.992H82.3762L82.3216 76.91C82.3216 76.9016 82.309 76.8785 82.3027 76.7903ZM84.4134 75.4861C84.4155 75.4084 84.4176 75.3454 84.4239 75.2929C84.4302 75.2257 84.4407 75.2047 84.4449 75.2005L84.4953 75.1207H83.9808L84.0312 75.2005C84.0375 75.211 84.0585 75.2572 84.0606 75.4483C84.0627 75.5953 84.0648 75.7402 84.0648 75.883C84.0648 75.8935 84.0648 75.8998 84.0627 75.904C84.0585 75.904 84.0543 75.9061 84.048 75.9061H83.1785C83.1722 75.9061 83.168 75.9061 83.1638 75.904C83.1638 75.8998 83.1617 75.8935 83.1617 75.883C83.1617 75.7402 83.1638 75.5953 83.1659 75.4483C83.1701 75.2572 83.189 75.211 83.1953 75.2026L83.2478 75.1228H82.7312L82.7816 75.2026C82.7837 75.2068 82.7942 75.2278 82.8026 75.295C82.8089 75.3517 82.8131 75.4147 82.8131 75.4882C82.8152 75.5638 82.8152 75.6436 82.8152 75.7276V76.3808C82.8152 76.4648 82.8152 76.5446 82.8131 76.6202C82.811 76.6958 82.8089 76.7609 82.8026 76.8134C82.7942 76.8806 82.7837 76.9016 82.7816 76.9058L82.7312 76.9857H83.2457L83.1953 76.9058C83.1932 76.9016 83.1827 76.8806 83.1743 76.8134C83.168 76.7588 83.1638 76.6958 83.1638 76.6223C83.1617 76.5488 83.1617 76.469 83.1617 76.385V76.1477C83.1617 76.1372 83.1617 76.1309 83.1638 76.1267C83.168 76.1267 83.1722 76.1246 83.1785 76.1246H84.048C84.0522 76.1246 84.0585 76.1246 84.0627 76.1267C84.0627 76.1309 84.0648 76.1393 84.0648 76.1477V76.385C84.0648 76.469 84.0648 76.5488 84.0627 76.6223C84.0606 76.6979 84.0585 76.7609 84.0522 76.8134C84.0438 76.8806 84.0354 76.9016 84.0312 76.9079L83.9808 76.9878H84.4953L84.4449 76.9079C84.4428 76.9037 84.4323 76.8827 84.4239 76.8155C84.4176 76.7609 84.4134 76.6958 84.4134 76.6223C84.4113 76.5467 84.4113 76.4669 84.4113 76.3829V75.7276C84.4113 75.6436 84.4134 75.5638 84.4134 75.4861ZM86.564 76.7903C86.5598 76.721 86.5556 76.6412 86.5535 76.553V75.5239C86.5535 75.4546 86.5556 75.3916 86.5619 75.3349C86.5661 75.2824 86.5724 75.2299 86.5829 75.1816L86.5955 75.1186H86.3624L85.2871 76.448V75.7234C85.2871 75.6373 85.2871 75.5575 85.2892 75.484C85.2913 75.4126 85.2934 75.3475 85.2997 75.2929C85.306 75.2257 85.3165 75.2047 85.3207 75.2005L85.3711 75.1207H84.8566L84.9049 75.2005C84.907 75.2047 84.9175 75.2257 84.9259 75.295C84.9322 75.3517 84.9364 75.4168 84.9364 75.4861C84.9385 75.5596 84.9385 75.6394 84.9385 75.7255V76.5845C84.9385 76.6538 84.9364 76.7168 84.9322 76.7735C84.928 76.8302 84.9196 76.8806 84.9112 76.9268L84.8986 76.9899H85.1317L86.207 75.6604V76.5551C86.2049 76.6454 86.2007 76.7252 86.1944 76.7945C86.186 76.8827 86.1755 76.9079 86.1734 76.9121L86.1272 76.992H86.6417L86.585 76.91C86.5829 76.9016 86.5703 76.8785 86.564 76.7903ZM88.6852 76.7609C88.6789 76.7672 88.6705 76.7693 88.6642 76.7714C88.5949 76.7882 88.5277 76.7588 88.4773 76.6979C88.4248 76.6328 88.3681 76.5572 88.3072 76.469L88.1749 76.2758C88.1245 76.2044 88.0636 76.1372 87.9964 76.0763C87.946 76.0301 87.883 75.9965 87.8115 75.9734L88.1224 75.6919C88.2274 75.5911 88.3261 75.5008 88.4143 75.4189C88.5025 75.3391 88.5823 75.2698 88.6516 75.2152L88.7713 75.1207H88.2316L88.219 75.1564C88.1959 75.2215 88.1539 75.2929 88.0909 75.3727C88.0258 75.4546 87.9544 75.5344 87.8788 75.61L87.6603 75.8242C87.5868 75.8893 87.549 75.9124 87.5301 75.9187C87.4986 75.9293 87.4671 75.9356 87.4314 75.9356H87.4209V75.9166C87.4209 75.7675 87.4209 75.6163 87.423 75.4651C87.4251 75.2719 87.4461 75.2173 87.4545 75.2026L87.5049 75.1228H86.9946L87.045 75.2026C87.0471 75.2068 87.0576 75.2278 87.066 75.295C87.0723 75.3496 87.0765 75.4147 87.0765 75.4861C87.0786 75.5596 87.0786 75.6394 87.0786 75.7255V76.3829C87.0786 76.4669 87.0786 76.5488 87.0765 76.6223C87.0744 76.6979 87.0723 76.7609 87.066 76.8134C87.0597 76.8806 87.0492 76.9016 87.045 76.9058L86.9946 76.9857H87.507L87.4566 76.9058C87.4545 76.9016 87.444 76.8806 87.4356 76.8134C87.4293 76.7588 87.4251 76.6937 87.4251 76.6223C87.423 76.5488 87.423 76.469 87.423 76.3829V76.1225H87.4692C87.5322 76.1225 87.591 76.1414 87.6456 76.1771C87.7044 76.217 87.7653 76.2821 87.8262 76.3703L88.0531 76.6979C88.1287 76.8113 88.1917 76.889 88.2463 76.9415C88.3072 76.9983 88.3933 77.0277 88.5025 77.0277C88.555 77.0277 88.6096 77.0172 88.6642 76.9941C88.7209 76.9709 88.7692 76.931 88.807 76.8785L88.8322 76.8449L88.7293 76.7315L88.6852 76.7609ZM90.6174 76.8407C90.5271 76.826 90.4704 76.7903 90.4452 76.7294C90.4158 76.6601 90.4011 76.5866 90.4011 76.511V75.7696C90.4011 75.484 90.3255 75.2929 90.1764 75.1984C90.0336 75.1081 89.8739 75.064 89.6975 75.064C89.5295 75.064 89.3762 75.0955 89.2418 75.1585C89.1053 75.2215 88.9877 75.3181 88.8889 75.4483L88.849 75.5008L88.91 75.5281C88.9394 75.5407 88.9688 75.5596 88.9919 75.5806C89.0171 75.6037 89.0402 75.6289 89.0612 75.6583L89.1137 75.736L89.1515 75.6499C89.204 75.5344 89.2754 75.4399 89.3657 75.3706C89.4539 75.3034 89.5652 75.2677 89.7017 75.2677C89.792 75.2677 89.876 75.295 89.9496 75.3454C90.0189 75.3937 90.0525 75.4882 90.0525 75.6268V75.757C90.0021 75.8032 89.9202 75.8326 89.8088 75.8473C89.6723 75.8662 89.5316 75.8893 89.393 75.9208C89.2481 75.9524 89.12 76.0049 89.0087 76.0805C88.8869 76.1603 88.8259 76.2947 88.8259 76.4795C88.8259 76.6391 88.8806 76.7735 88.9898 76.8743C89.0969 76.9752 89.246 77.0256 89.4329 77.0256C89.5778 77.0256 89.7143 76.9899 89.8403 76.9163C89.9285 76.8659 90.0063 76.8029 90.0756 76.7273C90.0945 76.8113 90.1323 76.8785 90.189 76.9247C90.2688 76.992 90.3801 77.0256 90.5166 77.0256C90.5313 77.0256 90.546 77.0256 90.5628 77.0235C90.5796 77.0214 90.5964 77.0193 90.6111 77.0172L90.6552 77.0088V76.847L90.6174 76.8407ZM89.5085 76.7798C89.4077 76.7798 89.3363 76.7504 89.2859 76.6874C89.2355 76.6223 89.2082 76.5383 89.2082 76.4375C89.2082 76.3262 89.2355 76.2485 89.288 76.2086C89.3468 76.1624 89.4182 76.1288 89.5085 76.1099C89.603 76.0889 89.7059 76.0721 89.8151 76.0574C89.9012 76.0448 89.9811 76.0217 90.0546 75.9881V76.4354C90.0105 76.5215 89.937 76.5992 89.8361 76.6685C89.729 76.742 89.6198 76.7798 89.5085 76.7798Z" fill="#FFEEB4"/>
<defs>
<linearGradient id="paint0_linear_32_669" x1="62.4999" y1="42" x2="62.4999" y2="82" gradientUnits="userSpaceOnUse">
<stop stop-color="#01616A"/>
<stop offset="0.48305" stop-color="#00405B"/>
</linearGradient>
</defs>
</svg>
