<svg width="125" height="125" viewBox="0 0 125 125" fill="none" xmlns="http://www.w3.org/2000/svg">
<path fill-rule="evenodd" clip-rule="evenodd" d="M106.193 62.541C106.335 62.6329 106.268 63.3179 106.268 63.51L106.276 66.4757C106.268 66.6595 106.31 66.6261 106.193 66.6762L103.561 66.6845C103.561 66.0246 103.561 65.3646 103.561 64.7047C103.561 63.9695 103.745 63.4014 102.927 63.4014H95.0321C94.205 63.4014 94.3888 63.9612 94.3888 64.7047C94.3888 65.0555 94.4306 66.459 94.3638 66.6845H91.5569L91.5401 62.5326L106.193 62.541ZM21.7348 66.6762H18.978V62.5326L33.7561 62.5243V66.6678L30.9074 66.6845C30.9074 66.0246 30.9074 65.3646 30.9074 64.7047C30.9074 63.9612 31.0911 63.4014 30.2641 63.4014H22.4031C21.5426 63.4014 21.7264 63.9027 21.7264 64.6712C21.7348 65.3312 21.7348 66.0079 21.7348 66.6762ZM81.6324 56.2672C81.7828 56.2087 81.8913 56.2171 82.0751 56.1335L83.3366 55.5571C83.512 55.5404 84.6899 56.3006 84.8988 56.4343C87.146 57.8879 89.059 59.567 90.4625 61.9228C90.7298 62.3739 90.6713 62.3405 90.6713 62.9336C90.6713 63.5852 90.7382 64.7882 90.663 65.373L89.8025 64.2786C89.6438 64.0865 89.5185 63.9361 89.343 63.744C89.2595 63.6437 89.201 63.5685 89.1175 63.4766C88.5411 62.8584 87.4551 61.8977 86.7366 61.3547C85.6339 60.511 84.314 59.709 83.0275 59.0574C82.568 58.8235 82.1252 58.5896 81.6491 58.3974L81.6324 56.2672ZM34.6834 65.3228C34.6416 64.5292 34.675 63.2009 34.675 62.3488C34.675 61.9061 36.0283 60.2019 36.3291 59.826C37.3984 58.506 39.4284 56.9439 40.8987 56.0751C41.1242 55.9414 41.3163 55.8244 41.5586 55.6908C42.0766 55.39 41.9262 55.4402 42.9872 55.9414C43.1876 56.0333 43.3213 56.1168 43.5301 56.167C43.7139 56.2171 43.6471 56.1419 43.7139 56.2588V58.3557C42.4358 58.7984 39.679 60.4776 38.6515 61.2545C37.2731 62.2987 36.6215 62.9253 35.5605 64.17C35.4101 64.3454 35.2765 64.5209 35.1261 64.7297L34.6834 65.3228ZM77.6726 54.0701C77.7979 54.0033 78.1571 53.9114 78.3159 53.8696C78.6918 53.761 78.6584 53.7861 78.8923 53.9949C79.1262 54.2038 79.6274 54.5797 79.7778 54.7718L77.6726 54.0701ZM45.5768 54.8053C45.652 54.6716 45.6604 54.7134 45.8024 54.5881C45.9027 54.5045 45.9528 54.4711 46.028 54.3959C46.7715 53.736 46.6378 53.8111 47.0471 53.9197L47.54 54.0367C47.6069 54.0618 47.5651 54.0451 47.6236 54.0785L45.5768 54.8053ZM79.5773 53.5772L81.5906 55.2647C81.7744 55.4318 81.7828 55.3483 82.2589 55.1227C82.401 55.0559 82.6181 54.9723 82.7184 54.8804L81.4903 52.9173L79.6525 53.5188C79.5857 53.5605 79.6274 53.5188 79.5773 53.5772ZM43.8225 52.9256L42.5695 54.8721C42.6781 54.9807 42.937 55.0976 43.0707 55.1645C43.2043 55.2313 43.455 55.3733 43.597 55.4151C43.739 55.2647 43.9312 55.106 44.0982 54.964C44.5911 54.563 45.2093 53.9448 45.7105 53.5856C45.6019 53.4436 43.9479 52.9507 43.8225 52.9256ZM68.1074 52.2323C68.0406 52.4244 67.4056 52.8755 67.1383 53.0092C66.7457 53.2097 66.2779 53.3433 65.8184 53.4686C63.7717 54.0033 61.5997 54.02 59.5613 53.4519C59.1436 53.335 58.6006 53.1762 58.2581 52.9925C57.9824 52.8504 57.3976 52.4578 57.3141 52.2406C57.807 52.2072 58.375 52.2406 58.8763 52.2323C59.4276 52.2323 59.3107 52.3492 60.0124 52.6583C61.466 53.2848 64.6656 53.3099 65.9688 52.3826C66.2361 52.1905 66.1693 52.2323 66.5703 52.2323C67.0882 52.2406 67.5978 52.2323 68.1074 52.2323ZM59.8203 51.5055C60.1711 51.472 62.3348 50.8037 62.6523 50.8037C62.836 50.8037 65.3339 51.4386 65.4926 51.5138L59.8203 51.5055ZM68.4415 54.6048C68.4415 54.9473 68.4165 54.989 68.475 55.1311C69.1099 55.2397 69.7949 55.2898 70.4548 55.39C71.6996 55.5738 73.0028 55.7994 74.2391 56.0667C74.5984 56.1419 75.7679 56.4677 76.0269 56.4677L76.0353 54.5296C76.0269 54.2205 75.8682 54.3207 75.8849 54.0283C75.9016 53.6441 76.3694 53.6357 76.737 53.5522C77.0795 53.477 77.4554 53.3851 77.8063 53.3099L76.8456 52.9674C74.9158 52.3826 71.0647 51.5472 69.2435 51.4136C69.2936 51.6057 69.3354 51.5305 69.3354 51.8313V53.3767C69.3354 53.9448 69.2936 53.8028 69.0179 54.1035C68.759 54.3625 68.5334 54.421 68.4415 54.6048ZM47.4899 53.1428C47.8324 53.3934 49.2943 53.477 49.4447 53.8696C49.5366 54.1202 49.3695 54.2038 49.3277 54.3374L49.3194 56.4176L51.2408 55.9748C52.6025 55.6824 53.8472 55.4569 55.234 55.2647C55.5932 55.2146 55.9441 55.1728 56.2949 55.1394C56.9382 55.0726 56.9298 55.2313 56.8964 54.563C56.8797 54.5129 56.0193 54.0116 55.9858 53.3684C55.9608 52.9173 55.9357 51.6308 56.0443 51.2716C54.3067 51.3969 51.2826 52.0735 49.5032 52.533C49.0771 52.6499 47.7823 52.9758 47.4899 53.1428ZM63.1284 49.3084V50.0686C63.5127 50.1271 63.9972 50.2607 64.3815 50.361C64.8076 50.4696 65.2337 50.5615 65.6597 50.6701L67.556 51.1212C67.7314 51.163 68.0823 51.2799 68.1909 51.2214C68.1241 51.1212 68.1408 51.1546 67.9152 51.0711C67.8066 51.0293 67.7064 50.9959 67.6061 50.9541C66.9211 50.6951 63.4459 49.3669 63.1284 49.3084ZM62.2095 49.3084L57.1052 51.2214C57.2306 51.2966 58.2414 51.0042 58.3583 50.9792C58.9598 50.8371 61.9088 50.1688 62.2095 50.0602V49.3084ZM95.7421 57.8628C95.951 58.222 95.4915 58.4726 95.1824 58.3807C94.8817 58.2972 93.7873 57.0692 93.1858 56.6014C92.6428 56.1753 92.3588 55.9247 91.7573 55.4903C86.461 51.6892 79.736 49.8096 73.2534 48.7737C71.8082 48.5398 70.246 48.356 68.7673 48.2307C67.013 48.0804 67.957 48.0553 66.6956 48.5315C66.3698 48.6484 66.0774 48.7403 65.7181 48.8239C65.4675 48.8823 64.8243 48.9241 64.6572 49.0243C65.8936 49.4838 67.1467 49.96 68.3914 50.4111C69.0347 50.645 69.8784 50.6784 70.5968 50.787C72.5767 51.0794 75.1414 51.5639 76.9709 52.1153C77.6309 52.3158 78.2991 52.5079 78.934 52.7251C79.3517 52.8672 79.5105 52.7335 79.9198 52.5915C82.0918 51.8563 81.8663 51.7895 82.4928 52.7502C82.8353 53.2848 83.1528 53.7944 83.4953 54.3291C83.7626 54.7551 83.6958 54.7134 84.1469 54.9473C85.141 55.4819 86.4108 56.2756 87.2796 56.9689C88.3238 57.8043 88.4158 57.9797 89.3013 58.7984C89.5018 58.9822 89.7022 59.2495 89.8944 59.4751C90.2369 59.8844 90.688 60.5193 90.9637 60.9872C91.0472 61.1208 91.3313 61.739 91.4566 61.7891H105.809C105.7 61.597 103.586 59.3581 103.119 58.8318C102.901 58.5812 102.868 58.6481 102.467 58.6481C101.924 58.6481 101.389 58.6481 100.846 58.6481C99.8189 58.6481 100.028 58.6146 99.1673 57.8544C96.6193 55.5989 93.0355 53.335 89.6605 51.8396C84.9238 49.7428 79.6107 48.3393 74.3144 47.5875C73.3537 47.4538 72.3762 47.3369 71.3905 47.2366C70.5467 47.1531 69.1767 46.9776 68.358 47.0194L68.3329 47.3953C73.5291 47.7211 80.2456 49.0578 84.974 50.9457C88.0566 52.1738 91.348 53.903 93.779 55.9999C94.2217 56.4009 95.575 57.5955 95.7421 57.8628ZM19.4458 61.739L33.9231 61.7474C34.2573 60.7867 35.8863 58.8903 36.705 58.1301C36.9305 57.9213 37.1561 57.7375 37.3984 57.5203C38.5178 56.5178 39.8962 55.6908 41.2161 54.9473C41.3748 54.8554 41.5168 54.822 41.6171 54.6967C41.6923 54.6048 41.8009 54.4126 41.8677 54.2957C42.2019 53.7527 42.536 53.2514 42.8702 52.7168C43.4884 51.7227 43.338 51.9148 45.4098 52.5915C45.9862 52.7836 46.0113 52.8588 46.3956 52.7335C47.0388 52.5163 47.7071 52.3241 48.3754 52.132C49.7455 51.7394 51.1155 51.4303 52.5691 51.163C53.3042 51.0293 54.031 50.904 54.7745 50.7954C55.5097 50.6868 56.3451 50.6617 56.9883 50.4195L59.7618 49.3502C59.9289 49.2833 60.5638 49.0745 60.6891 48.9575C59.9205 48.8573 59.319 48.7403 58.634 48.5064C58.4252 48.4312 57.8905 48.1555 57.7569 48.1555C57.1136 48.1221 52.7612 48.6902 52.0762 48.7904C44.7331 49.9182 37.0475 52.2323 31.4754 57.1444C31.1162 57.4618 30.3644 58.2554 30.1305 58.3056C29.7629 58.3891 29.3368 58.1218 29.5708 57.7876C29.7295 57.5621 30.5649 56.8186 30.8322 56.5429L31.4921 55.9665C34.2991 53.6858 36.9222 52.2824 40.3724 50.9457C45.3179 49.0243 51.2742 47.8966 57.0301 47.412L56.98 47.0278C55.0669 47.0779 52.9366 47.3452 51.057 47.6125C46.053 48.3143 40.0716 49.8096 35.6607 51.8062C32.0936 53.4185 29.2867 55.1561 26.58 57.4033C26.2709 57.6539 25.9953 57.9296 25.6945 58.1719C25.1682 58.5896 25.4606 58.623 24.5333 58.623C23.982 58.623 23.4306 58.623 22.8793 58.623C22.3195 58.623 22.3947 58.4977 21.8099 59.1744L20.2394 60.8786C20.0723 61.0456 19.9888 61.1375 19.8468 61.2963C19.7048 61.455 19.5544 61.5552 19.4458 61.739ZM57.9574 46.7521C58.1662 46.7855 58.7092 47.0361 59.0016 47.1197C61.6331 47.9216 63.7634 47.8715 66.3781 47.0946C66.6956 47.0027 67.1383 46.7521 67.3806 46.702C67.3806 47.1948 67.3305 47.245 66.7791 47.5791C65.1835 48.5398 61.8085 48.4479 60.0208 48.072C59.3692 47.93 57.9574 47.5457 57.9574 46.986V46.7521ZM68.4916 46.3427C68.4749 45.7914 68.5 46.3678 68.9261 45.5742L69.7447 45.5909V45.9334C69.4691 46.0169 69.1182 45.925 68.8258 45.9752L68.8175 46.3511L68.4916 46.3427ZM79.5522 45.8248C79.5522 45.3904 79.8613 45.5157 80.7552 45.5157V45.9L79.9031 45.9083L79.8948 46.8106H79.5689L79.5522 45.8248ZM77.6643 45.8248C77.6643 45.5825 77.7227 45.5157 77.965 45.5157L78.9174 45.5241V45.9L78.0068 45.9083L77.99 46.8106L77.6643 46.8022V45.8248ZM75.8348 46.8189C75.8348 45.2734 75.5591 45.5073 77.0879 45.5241V45.9083L76.1773 45.925V46.8189H75.8348ZM73.9969 46.8106C73.9969 46.6017 73.9551 45.6661 74.0554 45.5658C74.164 45.4572 75.0328 45.5157 75.25 45.5157V45.9L74.3394 45.925V46.8189L73.9969 46.8106ZM72.159 45.8248C72.159 45.5825 72.2175 45.5157 72.4598 45.5157L73.4121 45.5241V45.9L72.5016 45.9083L72.4848 46.6184L72.159 46.5766V45.8248ZM55.5431 46.3845C55.5431 45.4489 55.4011 45.5157 56.3283 45.5157C56.4202 45.5324 56.5623 45.7914 56.6124 45.9L55.8856 45.9167C55.8605 46.3762 56.0109 46.3427 55.5431 46.3845ZM49.9961 46.8106C49.9794 46.5934 49.946 45.6911 50.0462 45.5825C50.1632 45.4572 51.0153 45.5073 51.2408 45.5241L51.2325 45.9L50.3219 45.9083L50.3052 46.8189L49.9961 46.8106ZM48.1499 46.8189C48.1499 45.2985 47.8993 45.5241 49.403 45.5241L49.3946 45.9083L48.484 45.925V46.8189H48.1499ZM46.3204 45.8248C46.3204 45.4572 46.4791 45.5157 46.8216 45.5157C47.0471 45.5157 47.3562 45.4906 47.5734 45.5324V45.9L46.6628 45.9083L46.6545 46.8106H46.3287L46.3204 45.8248ZM44.4825 45.8248C44.4825 45.5909 44.541 45.5157 44.7832 45.5157L45.7356 45.5241V45.9083L44.825 45.9167L44.8083 46.8189H44.4908L44.4825 45.8248ZM70.5384 45.5241C70.7806 45.4906 71.357 45.5157 71.6244 45.5241L71.616 45.9083L70.7055 45.925V46.4346L70.388 46.3929C70.3462 46.2007 70.3796 46.0253 70.3629 45.8248C70.3546 45.6577 70.3045 45.5491 70.5384 45.5241ZM53.8055 45.5324C53.9224 45.499 54.7662 45.5157 54.9666 45.5157L54.9583 45.9H54.0561V46.4764L53.7136 46.5182C53.7136 46.326 53.7219 46.1255 53.7136 45.9334C53.7052 45.7413 53.6133 45.5992 53.8055 45.5324ZM53.1288 45.5324V45.9083L52.2182 45.9167L52.1848 46.6936L51.8757 46.7103C51.8674 46.4931 51.8423 45.6744 51.859 45.5909C52.0762 45.4656 52.8114 45.499 53.1288 45.5324ZM79.5522 44.981C79.5522 44.7304 79.4854 43.8783 79.6191 43.7447C79.736 43.6361 80.5714 43.6695 80.8053 43.6945L80.7886 44.0705L79.8864 44.0788V44.981H79.5522ZM77.6643 44.9727C77.6643 43.6945 77.3719 43.5525 78.9174 43.6862L78.9006 44.0621L77.9984 44.0705V44.9643L77.6643 44.9727ZM72.159 44.981C72.159 44.7388 72.0922 43.87 72.2259 43.7447C72.3512 43.6277 73.1698 43.6778 73.4038 43.6862L73.3954 44.0705L72.4932 44.0872V44.981H72.159ZM51.8256 44.981C51.8256 44.7304 51.7587 43.8616 51.8924 43.7363C52.0094 43.6277 52.8615 43.6611 53.0787 43.6945L53.0703 44.0705H52.1681V44.981H51.8256ZM46.3204 44.981C46.3204 44.7304 46.2535 43.8616 46.3956 43.7363C46.4958 43.6444 47.3813 43.6611 47.5818 43.6945L47.5734 44.0705L46.6712 44.0788V44.9727L46.3204 44.981ZM75.8348 44.9643C75.8348 43.4189 75.5841 43.6778 77.0795 43.6778L77.0879 44.0621L76.1773 44.0705V44.9727L75.8348 44.9643ZM73.9969 44.981C73.9969 44.7304 73.93 43.8533 74.0721 43.7363C74.1639 43.6528 75.0662 43.6611 75.25 43.7029C75.2918 44.1958 75.3586 44.0621 74.3394 44.0788V44.9727L73.9969 44.981ZM70.2794 44.981C70.2794 43.5776 70.0204 43.6194 71.5241 43.6945L71.5325 44.0788L70.6219 44.0872V44.9894L70.2794 44.981ZM68.4916 44.1039C68.1575 43.5442 69.1182 43.6862 69.6862 43.6862L69.6946 44.0705L68.7924 44.0788L68.7256 44.3378L68.4916 44.1039ZM53.7052 44.981C53.7052 44.7304 53.6384 43.8616 53.7804 43.7363C53.8723 43.6528 54.7662 43.6611 54.9583 43.6945C55.0085 44.1707 55.0502 44.0705 54.0477 44.0705V44.9727L53.7052 44.981ZM49.9877 44.9727C49.9877 43.4439 49.7538 43.6862 51.2826 43.6862L51.2909 44.0705L50.3302 44.0788V44.9894L49.9877 44.9727ZM48.1499 44.9894C48.1499 43.469 47.8909 43.6862 49.3946 43.6862L49.403 44.0705L48.4924 44.0872V44.9894H48.1499ZM44.4825 44.9727C44.4825 43.5275 44.2319 43.6444 45.7272 43.6862L45.7356 44.0705L44.825 44.0788V44.981L44.4825 44.9727ZM55.5431 43.9786C55.5431 43.6194 55.7268 43.6778 56.061 43.6862C56.2782 43.6862 56.6458 43.6611 56.838 43.7029C56.8881 44.2459 56.2949 44.0371 55.8856 44.0872V44.9978H55.5431V43.9786ZM68.4499 43.1432C68.4248 42.9009 68.4415 42.5751 68.4415 42.3245C68.4415 41.7982 68.2912 41.8149 69.703 41.8483L69.6862 42.2326H68.7841L68.7757 43.1432H68.4499ZM50.0044 43.1432C49.971 42.9594 49.9627 42.0071 50.0379 41.9152C50.1548 41.7731 51.0403 41.84 51.2909 41.84L51.2742 42.2326L50.3302 42.2493L50.3052 43.1515L50.0044 43.1432ZM79.5021 43.1014C79.5021 41.5643 79.2515 41.8066 80.7552 41.8066L80.7302 42.1908H79.8446V43.0931L79.5021 43.1014ZM77.6225 43.1014C77.6225 41.8567 77.3551 41.6813 78.9257 41.8149L78.9174 42.1908L78.0151 42.1992V43.0931L77.6225 43.1014ZM70.2794 43.0931C70.2794 42.8257 70.2794 42.5584 70.2794 42.2911C70.2794 41.9987 70.2376 41.8066 70.5801 41.8066L71.5408 41.8149L71.5241 42.1908L70.6219 42.2075V43.1014L70.2794 43.0931ZM55.5431 42.1324C55.5431 41.723 55.7436 41.8483 56.7377 41.8483V42.2326L55.8772 42.241V43.1515H55.5431V42.1324ZM48.1499 43.1014C48.1499 41.581 47.8909 41.7982 49.3862 41.7982L49.3779 42.1908H48.484V43.0847L48.1499 43.1014ZM46.3204 43.0931C46.3204 42.8341 46.2535 41.9736 46.3956 41.8483C46.4958 41.7648 47.373 41.7815 47.5734 41.8066L47.5651 42.1825L46.6545 42.1908V43.0847L46.3204 43.0931ZM44.4825 43.0931C44.4825 42.8257 44.4825 42.5584 44.4825 42.2911C44.4825 41.7982 44.424 41.7481 45.7439 41.8149L45.7272 42.1908L44.825 42.2075V43.1014L44.4825 43.0931ZM75.8348 43.1098C75.8348 41.5392 75.5758 41.8066 77.0795 41.8066L77.0962 42.1908L76.1856 42.1992V43.1014L75.8348 43.1098ZM73.9468 43.1014C73.9468 41.581 73.6878 41.7982 75.1831 41.7982L75.1999 42.1825L74.2893 42.1908V43.0931L73.9468 43.1014ZM72.1173 43.0931C72.1173 41.5727 71.8667 41.7982 73.3787 41.7982V42.1825H72.4932C72.4264 42.3997 72.4681 42.8341 72.4681 43.0847L72.1173 43.0931ZM53.7052 43.1014C53.7052 42.8341 53.7052 42.5584 53.7052 42.2911C53.6969 41.7063 53.6635 41.8066 54.9583 41.8066V42.1908H54.0728C54.0059 42.408 54.0477 42.8424 54.0477 43.0931L53.7052 43.1014ZM51.8256 43.0931C51.8256 41.581 51.5666 41.7982 53.0787 41.7982V42.1825H52.1931C52.1347 42.3997 52.1681 42.8424 52.1681 43.0931H51.8256ZM66.9462 42.2326C66.9378 42.2243 66.9295 42.241 66.9128 42.241C66.8125 42.1324 66.6538 42.0321 66.612 41.8985C66.7373 41.7314 67.5978 41.7815 67.8985 41.8066L67.8902 42.1825C67.6062 42.1992 67.2135 42.1574 67.0047 42.2159C66.988 42.2159 67.0047 42.3245 66.9462 42.2326ZM57.3977 43.1515C57.3726 43.0095 57.3642 41.9152 57.3726 41.8985C57.4645 41.7481 58.3918 41.8066 58.634 41.8066C58.5588 41.9653 58.5839 41.8985 58.4753 41.9987C58.4586 42.0154 58.3333 42.1407 58.3166 42.1491C58.1746 42.2243 57.9574 42.1741 57.7903 42.1908C57.7067 42.642 57.9072 42.7506 57.6232 43.1432L57.3977 43.1515ZM58.634 40.0272V40.4031L57.7235 40.4115L57.7151 41.322L57.3809 41.2719L57.406 40.0439L58.634 40.0272ZM44.4324 40.3196C44.4324 39.9938 44.6245 40.0105 44.9336 40.0105C45.1675 40.0105 45.4599 39.9854 45.6855 40.0272V40.3947L44.7749 40.4031L44.7665 41.3137L44.4407 41.2719L44.4324 40.3196ZM79.5689 41.2636C79.5355 41.0881 79.5188 40.1608 79.5857 40.0522C79.6692 39.9269 80.5631 39.9269 80.7552 39.9938L80.7469 40.353L79.8864 40.3613L79.8697 41.2636H79.5689ZM77.681 41.2636C77.6475 41.0547 77.6643 40.7038 77.6643 40.4783C77.6643 40.1358 77.6058 39.9687 77.965 39.9687C78.2658 39.9687 78.625 39.9436 78.9174 39.9854L78.909 40.353L78.0068 40.3613L77.99 41.2719L77.681 41.2636ZM75.8431 41.2552C75.8097 40.9294 75.7846 40.2026 75.9016 39.9687H77.0879L77.0795 40.353H76.1773L76.1689 41.2636L75.8431 41.2552ZM73.9551 41.2552C73.9384 41.0631 73.905 40.1775 73.9969 40.0522C74.1055 39.9019 74.9743 39.9687 75.1999 39.9687L75.1915 40.353H74.2893L74.2809 41.2636L73.9551 41.2552ZM72.1173 40.2861C72.1173 40.1191 72.159 40.0689 72.2342 39.9687H73.3704L73.3536 40.353H72.4598L72.4431 41.2636H72.1256L72.1173 40.2861ZM70.2878 41.2636C70.2543 41.0464 70.271 40.7038 70.271 40.4783C70.271 40.1441 70.2125 39.9687 70.5718 39.9687L71.5241 39.9771L71.5158 40.353L70.6136 40.3697L70.5968 41.2719L70.2878 41.2636ZM68.4415 41.2636C68.4415 39.7849 68.1825 39.9353 69.6946 39.9687L69.6862 40.353L68.7841 40.3697V41.2719L68.4415 41.2636ZM66.6705 41.2636C66.6287 41.038 66.6538 40.7122 66.6538 40.4699C66.6538 40.1274 66.5452 39.9603 66.9211 39.9603C67.2302 39.9603 67.6145 39.9353 67.9152 39.9771L67.9069 40.3446L67.0047 40.353L66.9879 41.2636H66.6705ZM55.5431 40.2861C55.5431 40.0606 55.5515 39.9687 55.7937 39.9687L56.7544 39.9854L56.746 40.353L55.8856 40.378V41.2719H55.5514V40.2861H55.5431ZM53.7052 40.2861C53.7052 39.9102 53.889 39.9687 54.2065 39.9687C54.4404 39.9687 54.7411 39.9353 54.9583 39.9938L54.95 40.353H54.0394L54.0226 41.2636H53.7052V40.2861ZM51.8256 40.2861C51.8256 40.0355 51.8841 39.9687 52.1347 39.9687C52.4271 39.9687 52.7947 39.9353 53.0787 39.9938L53.0703 40.353H52.1597L52.143 41.2719H51.8256V40.2861ZM50.0044 41.2636C49.9794 41.0714 49.9627 40.1358 50.0462 40.0355C50.1632 39.9019 51.0487 39.9687 51.2993 39.9687L51.2826 40.353L50.3302 40.3613L50.3052 41.2636H50.0044ZM48.1582 41.2552C48.1415 41.0464 48.1165 40.1441 48.2 40.0439C48.3253 39.8935 49.1523 39.9603 49.403 39.9603L49.3946 40.3446H48.4924L48.484 41.2552H48.1582ZM46.3371 41.2636C46.287 41.0464 46.3204 40.7122 46.3204 40.4783C46.3204 40.1525 46.2535 39.9687 46.6294 39.9687C46.9218 39.9687 47.2978 39.9353 47.5734 39.9938L47.5651 40.353L46.6545 40.3613L46.6378 41.2719L46.3371 41.2636ZM64.7742 40.2861C64.7742 39.8434 65.0332 39.9687 66.0273 39.9687V40.3029H65.1167L65.1083 41.0631L64.7742 40.9294V40.2861ZM59.4861 39.9687C59.7869 39.9687 60.1879 39.9353 60.4719 39.9938L60.4635 40.353L59.6031 40.3613L59.5864 41.2803L59.2773 41.2719C59.2439 41.0547 59.2606 40.7122 59.2606 40.4866C59.2689 40.1107 59.1019 39.9687 59.4861 39.9687ZM79.5522 38.4316C79.5522 38.1893 79.6107 38.1225 79.8614 38.1225L80.8053 38.1392V38.5068L79.8948 38.5151L79.8864 39.4257H79.5522V38.4316ZM77.6643 38.4316C77.6643 38.1893 77.7227 38.1225 77.965 38.1225L78.9174 38.1308V38.5068L78.0068 38.5151L77.9984 39.4257L77.6643 39.4173V38.4316ZM75.8348 38.4316C75.8348 38.0055 76.0018 38.1225 77.0795 38.1225V38.5068L76.1689 38.5235L76.1605 39.434L75.8264 39.4173L75.8348 38.4316ZM73.9551 39.434C73.9134 37.8886 73.7797 38.1308 75.2082 38.1308V38.5151L74.2976 38.5318L74.2893 39.434H73.9551ZM68.4916 39.434C68.4499 37.947 68.2828 38.1058 69.7447 38.1308L69.7364 38.5151L68.8258 38.5318L68.8175 39.434H68.4916ZM57.3809 38.4316C57.3809 38.1977 57.4394 38.1225 57.6817 38.1225L58.634 38.1308V38.5068L57.7235 38.5151L57.7151 39.4257L57.3809 39.4173V38.4316ZM55.5431 38.4316C55.5431 38.1977 55.5431 38.1225 55.7937 38.1225L56.746 38.1308V38.5068L55.8856 38.5235L55.8772 39.4257H55.5431V38.4316ZM53.7052 38.4316C53.7052 37.9972 54.0143 38.1225 54.95 38.1225V38.5068H54.0477L54.0394 39.4173H53.7052V38.4316ZM51.8256 38.4316C51.8256 37.9972 52.1514 38.1225 53.0703 38.1225V38.5068H52.1681L52.1597 39.4173H51.8256V38.4316ZM49.9877 38.4316C49.9877 37.9972 50.3971 38.1225 51.2826 38.1225V38.5068L50.3302 38.5151L50.3219 39.4173L49.9877 39.409V38.4316ZM48.1582 39.434C48.1081 37.9053 47.9577 38.1308 49.4113 38.1308L49.403 38.5151L48.4924 38.5318L48.484 39.434H48.1582ZM44.4825 38.4316C44.4825 38.1977 44.5493 38.1225 44.7832 38.1225H45.7356V38.5068L44.825 38.5151L44.8167 39.4173L44.4825 39.409V38.4316ZM72.159 38.3982C72.159 38.1392 72.2008 38.0807 72.4598 38.0807L73.4121 38.0891L73.4038 38.465L72.4932 38.4733L72.4765 39.3756H72.159V38.3982ZM70.2794 38.3982C70.2794 38.1475 70.3212 38.0807 70.5801 38.0807L71.5325 38.0891L71.5241 38.465L70.6219 38.4733L70.6052 39.3756H70.2878L70.2794 38.3982ZM66.6204 39.3839C66.587 39.1834 66.5535 38.2561 66.6621 38.1392C66.7791 38.0222 67.6981 38.064 67.9069 38.0891L67.8985 38.4566L66.9879 38.465L66.9712 39.3756L66.6204 39.3839ZM64.7825 39.3839C64.7574 39.1834 64.7324 38.2478 64.8243 38.1475C64.9329 38.0306 65.8101 38.064 66.0273 38.0891L66.0189 38.465L65.1083 38.4733L65.0916 39.3839H64.7825ZM46.3204 38.3982C46.3204 38.1392 46.3705 38.0807 46.6294 38.0807C46.9218 38.0807 47.2978 38.0473 47.5734 38.1058L47.5651 38.465L46.6545 38.4733L46.6462 39.3839H46.3287L46.3204 38.3982ZM59.2522 38.1977C59.319 38.0891 60.2714 38.1058 60.4719 38.1475V38.5151L59.6114 38.5235L59.6031 39.4424L59.2689 39.434C59.2606 39.2336 59.2355 38.2311 59.2522 38.1977ZM64.4818 41.84C64.7407 41.9235 64.9663 42.0238 65.1835 42.1407C67.0047 43.068 67.13 44.5634 67.4474 44.8056C67.7314 45.0312 67.8568 44.7555 68.1492 44.981C68.1742 45.2734 68.074 45.3319 67.8985 45.4572C67.4725 45.7663 67.0297 46.0002 66.5201 46.1924C65.81 46.468 65.1 46.6518 64.2813 46.7604C61.8169 47.0946 59.3608 46.727 57.3809 45.357C57.2222 45.2484 57.122 45.1314 57.2389 44.8724C57.3475 44.6385 57.4143 44.7054 57.6817 44.697C58.3333 44.6803 58.0075 43.4773 59.5697 42.3997C59.8203 42.2243 60.1795 42.0488 60.522 41.9235C60.9147 41.7899 61.2321 41.7564 61.6331 41.6395L61.6247 40.1608C61.324 39.9436 61.3323 39.6095 61.7166 39.5761C62.0591 39.5426 62.4769 39.6763 62.4769 39.2753C62.2847 39.0665 62.0174 39.0915 62.0174 38.5819C62.0174 38.2227 62.2346 38.0139 62.4518 37.8886L62.4351 36.8694L61.6749 36.861L61.6832 36.3932L62.4434 36.3849L62.4601 35.5244L62.928 35.5328L62.9447 36.3849L63.7049 36.4016L63.6881 36.8694H62.928C62.928 37.9053 62.8444 37.8217 63.1034 37.9638C63.2037 38.0139 63.2036 38.0055 63.2704 38.1058C63.3373 38.206 63.4125 38.4232 63.4125 38.5819C63.4292 39.0665 63.1869 39.1166 62.953 39.3087C62.9781 39.7766 63.5127 39.4424 63.9053 39.6512C63.9972 40.0021 63.7299 40.0105 63.6965 40.1525V41.581C63.7299 41.698 63.8552 41.6645 64.0724 41.7147C64.2228 41.7564 64.3481 41.7982 64.4818 41.84ZM79.5522 36.5519C79.5522 36.2011 79.7277 36.2512 80.0451 36.2512C80.279 36.2512 80.5714 36.2345 80.797 36.2596L80.7886 36.6355L79.8864 36.6438V37.5377H79.5522V36.5519ZM77.6643 36.5519C77.6643 36.3097 77.7311 36.2512 77.965 36.2512L78.909 36.2596L78.8923 36.6438L77.9984 36.6605V37.5544L77.6643 37.5461V36.5519ZM66.6036 36.5519V37.5544L66.9378 37.5461V36.6522L67.8818 36.6438L67.8902 36.2596L66.9044 36.2512C66.6622 36.2428 66.6036 36.2846 66.6036 36.5519ZM64.724 36.5519V37.5461H65.1083V36.6438L65.9604 36.6355L65.9771 36.2596C65.7599 36.2261 65.4508 36.2512 65.2253 36.2428C64.8911 36.2428 64.724 36.1844 64.724 36.5519ZM51.8256 36.5519C51.8256 36.1927 51.9927 36.2512 52.3268 36.2512C52.5524 36.2512 52.8615 36.2261 53.0787 36.2679L53.062 36.6438H52.1597V37.5461H51.8256V36.5519ZM46.3204 36.5519C46.3204 36.1927 46.4874 36.2512 46.8216 36.2512C47.0471 36.2512 47.3562 36.2261 47.5734 36.2679L47.5567 36.6438L46.6545 36.6522V37.5461H46.3204V36.5519ZM75.8348 37.5294C75.8181 35.9755 75.6009 36.2428 77.0879 36.2428V36.6271L76.1773 36.6438L76.1689 37.5544L75.8348 37.5294ZM73.9969 36.5519C73.9969 36.1927 74.164 36.2512 74.5065 36.2512C74.7237 36.2512 75.0495 36.2261 75.25 36.2679V36.6104C74.966 36.7023 74.6318 36.5937 74.331 36.6522L74.3227 37.5544L73.9885 37.5461L73.9969 36.5519ZM72.1674 37.5377C72.159 37.2871 72.1006 36.4266 72.2259 36.3013C72.3428 36.1844 73.1949 36.2345 73.4121 36.2512V36.6271L72.5016 36.6355L72.4932 37.5461L72.1674 37.5377ZM70.2794 36.5519C70.2794 36.318 70.3462 36.2512 70.5801 36.2512L71.5325 36.2596V36.6355L70.6219 36.6438L70.6136 37.5461L70.2794 37.5377V36.5519ZM68.4916 36.5519C68.4916 36.2846 68.5501 36.2512 68.8091 36.2512C69.1265 36.2512 69.4356 36.2345 69.7531 36.2679V36.6355L68.8342 36.6605L68.8258 37.5628H68.4916V36.5519ZM57.3809 36.5519V37.5461L57.7151 37.5544L57.7235 36.6438L58.634 36.6355V36.2596L57.6817 36.2512C57.4478 36.2428 57.3809 36.318 57.3809 36.5519ZM55.5514 37.5544C55.5097 36.0758 55.3259 36.2094 56.7962 36.2512V36.6355L55.9357 36.6605L55.9274 37.5544H55.5514ZM53.7052 36.5519C53.7052 36.1927 53.8723 36.2512 54.2065 36.2512C54.432 36.2512 54.7411 36.2261 54.9583 36.2679V36.6104C54.7411 36.6773 54.3067 36.6355 54.0477 36.6355L54.0394 37.5461L53.7052 37.5544V36.5519ZM49.9877 36.5519C49.9877 36.1175 50.4054 36.2512 51.2826 36.2512L51.2909 36.6355L50.3302 36.6438L50.3219 37.5461L49.9877 37.5377V36.5519ZM48.1582 37.5461C48.1165 36.0173 47.9577 36.2428 49.403 36.2428V36.6271L48.4924 36.6438L48.484 37.5461H48.1582ZM44.4825 37.5377C44.4574 36.1092 44.2569 36.1927 45.7356 36.2512V36.6355L44.825 36.6438L44.8167 37.5544L44.4825 37.5377ZM59.2522 36.318C59.2271 36.3515 59.2606 37.3623 59.2606 37.5461L59.5947 37.5544V36.6438L60.4468 36.6355L60.4635 36.2596C60.263 36.2261 59.3274 36.2011 59.2522 36.318ZM79.5021 35.7082C79.5021 34.1711 79.2598 34.405 80.7552 34.405C80.7552 34.5804 80.7719 34.664 80.7302 34.7893H79.8363V35.6915L79.5021 35.7082ZM77.6225 35.7082C77.6225 34.4802 77.3134 34.3047 78.9257 34.4133L78.9174 34.7893L78.0151 34.7976V35.6998L77.6225 35.7082ZM70.2794 35.6998C70.2794 35.4325 70.2794 35.1568 70.2794 34.8895C70.2794 34.5971 70.2376 34.405 70.5801 34.405L71.5408 34.4133L71.5241 34.7893L70.6219 34.806V35.6998H70.2794ZM64.724 35.7082H65.1083V34.806L65.9688 34.7976L65.9771 34.4217C65.7515 34.3966 64.9162 34.3632 64.7992 34.4635C64.6572 34.5888 64.724 35.4492 64.724 35.7082ZM57.3809 35.6998L57.7235 35.7166V34.806L58.6257 34.7976L58.634 34.4217C57.1053 34.3214 57.3809 34.3382 57.3809 35.6998ZM50.0044 35.7082C49.9543 35.5077 49.9877 35.1485 49.9877 34.9313C49.9877 34.5888 49.9209 34.4133 50.2885 34.4133C50.6059 34.4133 50.9401 34.3966 51.2492 34.43L51.2325 34.7976L50.3302 34.8143C50.3302 35.0482 50.372 35.5161 50.3052 35.7166L50.0044 35.7082ZM44.4825 35.6998C44.4825 35.4325 44.4825 35.1652 44.4825 34.8895C44.4825 34.405 44.3822 34.3382 45.7439 34.4133L45.7272 34.7893L44.825 34.806V35.6998H44.4825ZM75.8348 35.7166C75.8348 35.4576 75.8348 35.1903 75.8348 34.9313C75.8348 34.3214 75.6844 34.405 77.0879 34.4133V34.7976L76.1689 34.806V35.7166H75.8348ZM73.9468 35.7166C73.9468 34.1878 73.6878 34.4133 75.1999 34.4133V34.7976L74.2809 34.806V35.7082H74.1139L73.9468 35.7166ZM72.1423 35.7082C72.0922 35.5745 72.0838 34.6055 72.1507 34.4969C72.2593 34.3382 73.1197 34.405 73.3704 34.405V34.7893H72.4765C72.3929 35.0733 72.5016 35.4075 72.4347 35.6998L72.1423 35.7082ZM68.4415 35.7082C68.4415 34.2379 68.1742 34.3716 69.6946 34.4133V34.7976L68.7757 34.806V35.7166L68.4415 35.7082ZM62.9363 34.7726C62.9363 34.5303 62.9864 34.4551 63.2203 34.4551L64.1894 34.4635V34.7893L63.2788 34.7976L63.2704 35.1318H62.9447L62.9363 34.7726ZM61.0483 34.7391V35.7166H61.3908V34.806L62.3098 34.7976V34.4133L61.3741 34.405C61.0901 34.4133 61.0483 34.4551 61.0483 34.7391ZM55.5431 34.6974C55.5431 34.4468 55.6183 34.405 55.8689 34.405L56.7962 34.4133V34.7893L55.8772 34.7976V35.7082H55.5431V34.6974ZM53.7052 35.7082C53.7052 34.1961 53.4546 34.4133 54.9583 34.4133V34.7976H54.0645C54.006 35.0065 54.0394 35.4576 54.0394 35.6998L53.7052 35.7082ZM51.8256 35.7082C51.8256 34.1961 51.5666 34.4133 53.0787 34.4133V34.7976H52.1848C52.1263 35.0065 52.1597 35.4576 52.1597 35.7082H51.8256ZM48.1582 35.7082C48.1582 34.1794 47.8993 34.405 49.4113 34.405V34.7893L48.4924 34.7976V35.6998H48.3253L48.1582 35.7082ZM46.3204 35.7082C46.3204 34.1961 46.0697 34.4133 47.5734 34.4133V34.7976H46.6796C46.6211 35.0065 46.6545 35.4576 46.6545 35.6998L46.3204 35.7082ZM60.4719 34.4133C60.2714 34.4133 59.319 34.3549 59.2438 34.4969C59.2355 34.5052 59.2606 35.5411 59.2606 35.7082L59.6031 35.7249L59.6114 34.806H60.4803V34.4133H60.4719ZM66.6538 35.0065C66.6538 35.2404 66.6538 35.4743 66.6538 35.7082H66.9963V34.806L67.8985 34.7976L67.9069 34.4217C66.328 34.3131 66.6538 34.4635 66.6538 35.0065ZM75.6593 30.5956H76.0603L76.077 30.7877C77.3635 30.7627 77.4638 32.6256 76.0854 32.6256C76.0603 32.8846 76.1522 32.8679 75.7011 32.8679C75.6927 32.8595 75.6844 32.8428 75.6844 32.8344C75.6844 32.8261 75.676 32.8094 75.6677 32.801L75.6259 32.634C75.0579 32.5671 74.6318 32.3416 74.6318 31.6983C74.6318 31.1553 75.0829 30.7877 75.6426 30.7877L75.6593 30.5956ZM68.0573 30.6958L68.4916 30.7042L68.5 31.9991C68.7089 31.7819 69.2769 30.771 69.4607 30.6875L69.845 30.7042L69.8283 32.7175H69.4106L69.4022 31.4059C69.0931 31.7651 68.7924 32.3165 68.4833 32.7175L68.0573 32.7091V30.6958ZM61.3658 32.375C61.4075 32.3583 61.4075 32.3666 61.4493 32.3416C61.5328 32.2914 61.5245 32.2914 61.5663 32.1996C61.7166 31.8487 61.6582 31.1052 61.6916 30.6958L63.1786 30.7126L63.1702 32.776L62.7441 32.7593L62.7275 31.0885C62.5855 31.0885 62.293 31.0551 62.1761 31.1302C62.0424 31.7986 62.3599 32.9932 61.2488 32.7426V32.4335L61.3658 32.375ZM50.113 32.4251C49.6285 33.1519 48.1749 32.8261 48.1582 31.7735C48.1415 30.6875 49.5533 30.2364 50.0629 30.9298C50.0044 31.0384 49.9126 31.172 49.7873 31.2556C49.5951 31.1302 49.3445 30.9381 49.027 31.0968C48.8265 31.1971 48.6762 31.4393 48.6929 31.7819C48.7096 32.0826 48.885 32.2914 49.1356 32.3583C49.4948 32.4585 49.6619 32.2664 49.8875 32.1578C49.9627 32.2664 50.0378 32.3082 50.113 32.4251ZM54.9249 30.6958L55.3509 30.7126V31.5563C55.4763 31.4895 55.8104 31.1052 55.9023 30.9966C56.1529 30.6875 56.1195 30.6541 56.6709 30.6958C56.5456 30.9632 56.0359 31.289 55.9023 31.573C56.0694 31.857 56.6458 32.5504 56.7294 32.7593H56.2197L55.6016 31.9239C55.2423 32.0575 55.3844 32.3416 55.3426 32.7676L54.9165 32.7509L54.9249 30.6958ZM18.059 67.0855C18.2762 67.3696 18.293 67.403 18.7524 67.403H21.835C22.8626 67.403 22.6954 67.1524 22.6954 66.2C22.6954 65.515 22.6871 64.8216 22.6954 64.1366L23.3721 64.1199C23.3888 64.7381 23.3721 65.3563 23.3721 65.9661C23.3721 66.5425 23.1967 67.3529 23.8316 67.403C24.5083 67.4531 24.3328 66.5509 24.3328 66.0079C24.3328 65.3813 24.3245 64.7464 24.3328 64.1282H25.0095C25.0179 64.7464 25.0095 65.3646 25.0095 65.9745C25.0095 66.5843 24.8341 67.3696 25.4857 67.4113C26.1456 67.4531 25.9786 66.5342 25.9786 66.0162C25.9786 65.3897 25.9619 64.7548 25.9786 64.1282H26.6469C26.6636 64.7381 26.6469 65.3646 26.6469 65.9745C26.6469 66.5258 26.4798 67.3696 27.098 67.4113C27.783 67.4531 27.6159 66.5759 27.6159 66.0162C27.6159 65.3897 27.6076 64.7631 27.6159 64.1449L28.2926 64.1282C28.3093 64.7464 28.2926 65.3646 28.2926 65.9745C28.2926 66.4924 28.1171 67.3946 28.752 67.4113C29.4204 67.4364 29.2533 66.5759 29.2533 66.0162C29.2533 65.3897 29.245 64.7548 29.2533 64.1282H29.93C29.9884 67.5701 29.4705 67.4113 31.3334 67.4113C31.7845 67.4113 34.157 67.4782 34.4077 67.3612C34.5831 67.286 34.6165 67.1106 34.7251 66.9101C36.3625 63.7272 39.3365 61.338 42.4942 59.7424C42.8117 59.5837 43.2378 59.3414 43.5719 59.2328C43.6805 59.3999 43.9061 59.8594 44.3572 59.567C44.6579 59.3665 44.5661 58.9237 44.5661 58.5144C44.5661 57.6707 44.5661 56.8186 44.5661 55.9748C44.6496 55.8579 45.0005 55.766 45.1425 55.7493C45.1759 56.3925 45.084 58.2137 45.1508 58.6648C45.2343 59.2161 46.1115 59.2579 46.1115 58.4392C46.1115 57.4451 46.0614 56.4176 46.1199 55.4318L46.7297 55.2062C46.8216 55.9414 46.6545 57.6456 46.7548 58.1552C46.855 58.6898 47.6653 58.7149 47.6653 57.8962C47.6653 57.0942 47.5901 55.5655 47.6737 54.9055L48.2835 54.7134C48.3002 55.5404 48.2919 56.3758 48.2919 57.2028C48.2919 58.2972 48.9602 58.0299 49.1356 57.8294C49.2776 57.6707 49.2526 57.537 49.261 57.2947C49.6035 57.0942 52.2767 56.5679 52.8865 56.4593C54.148 56.2338 55.5348 56.0249 56.838 55.9247C56.838 56.2421 56.8546 56.4677 57.2055 56.451C57.5814 56.4426 57.6149 56.2338 57.6065 55.8913C57.5982 55.2814 57.6149 54.6716 57.6065 54.0701C57.381 54.02 57.2055 53.8863 57.0635 53.761C56.8546 53.5689 56.8129 53.5271 56.8463 53.1345C57.1637 53.2932 57.5062 53.5605 57.9406 53.761C58.3249 53.9365 58.8679 54.1035 59.294 54.2121C60.3549 54.4878 61.3658 54.6215 62.5186 54.6048C64.0474 54.5797 66.328 54.304 67.7064 53.5271C67.8735 53.4352 68.1491 53.218 68.2828 53.1846C68.2911 53.6858 68.1241 53.7276 67.7231 53.9699C65.9103 55.0392 62.7441 55.223 60.664 54.964C60.3967 54.9306 59.6783 54.7635 59.4861 54.7718C59.4861 55.6657 59.4861 56.5596 59.4861 57.4618C59.4861 57.9129 59.4277 58.3891 60.0208 58.2053C60.3717 58.0967 60.2547 57.5119 60.2631 57.0942L60.5471 57.1527C60.5888 56.6014 60.4385 55.4151 60.7058 55.1895C60.948 54.989 61.2488 55.1478 61.3157 55.3984C61.466 55.9832 61.1486 58.1468 61.3992 58.506C61.583 58.7567 62.0007 58.7232 62.0842 58.4142C62.1427 58.1802 62.0759 57.6539 62.1093 57.3616L62.5771 57.3532C62.5771 57.0358 62.5771 56.7267 62.5771 56.4176C62.5771 56.1085 62.5687 55.8411 62.8361 55.7409C63.5211 55.4903 63.3457 56.7016 63.3457 57.0358C63.3457 57.3449 63.3457 57.6539 63.3457 57.963C63.3457 58.2972 63.3206 58.5478 63.638 58.6063C64.3481 58.74 64.0808 57.7208 64.1309 57.2363L64.5069 57.1276C64.5152 56.9188 64.4818 56.5763 64.557 56.4343C64.7408 56.1001 65.2838 56.1753 65.2838 56.7684C65.2838 57.0608 65.1918 57.9714 65.409 58.1468C65.5594 58.2638 65.8184 58.2471 65.9437 58.1301C66.1442 57.9463 66.044 57.0692 66.0523 56.735C66.2027 56.6682 66.5619 56.4844 66.729 56.4677C66.7373 56.7267 66.7039 57.1527 66.7373 57.3866C66.7708 57.6289 67.0381 57.8544 67.3138 57.6874C67.6312 57.4952 67.4892 56.4593 67.5059 55.9915C67.6479 55.933 67.7231 55.8244 67.8818 55.8244C67.8985 56.0751 67.8651 56.4009 68.216 56.451C68.5502 56.4928 68.6587 56.2338 68.6587 55.9247L69.1265 55.9665C68.9762 56.5596 68.4749 57.1861 68.1408 57.4952C66.7875 58.7734 64.0808 59.1911 62.1928 59.0825C60.4218 58.9822 57.7903 58.3724 56.9048 56.8353C56.7377 56.5512 56.5539 56.2923 56.1362 56.5262C55.7436 56.7517 55.9942 57.0692 56.178 57.3281C57.4311 59.0992 60.6557 60.0599 63.7049 59.851C66.211 59.684 69.2268 58.6481 70.0538 56.1168C71.3904 56.2171 73.3704 56.6348 74.7237 56.9606C75.0996 57.0525 75.8849 57.1945 76.194 57.3365C76.219 58.2387 76.8456 58.1635 77.0544 57.8127C77.1463 57.6623 77.1129 57.4284 77.1129 57.2446C77.1129 56.4259 77.1129 55.6072 77.1129 54.7886L77.7311 54.9556C77.7979 55.39 77.7394 56.4092 77.7394 56.9021C77.7394 57.4618 77.564 58.4309 78.082 58.5729C78.3827 58.6564 78.6082 58.4559 78.6751 58.2554C78.7586 58.0215 78.7002 55.6239 78.7002 55.2647C78.8422 55.2981 78.9006 55.3232 79.0343 55.3817C79.0844 55.3984 79.1513 55.4151 79.2014 55.4402C79.3601 55.5153 79.2682 55.4402 79.3267 55.5488C79.3685 55.7325 79.3267 57.938 79.3267 58.4392C79.3267 58.7734 79.3768 59.024 79.6776 59.0992C80.4712 59.2997 80.2957 58.1385 80.2957 57.7458C80.2957 57.136 80.254 56.3842 80.3041 55.7994L80.9306 55.9748C80.939 56.8269 80.9306 57.6707 80.9306 58.5144C80.9306 58.9321 80.8471 59.4083 81.1311 59.6088C81.4569 59.8427 81.8329 59.6255 81.8997 59.2746C82.3592 59.3916 83.5538 60.0849 83.9882 60.3272C86.6364 61.8393 88.8752 63.7857 90.4625 66.4005C91.2311 67.6619 90.7215 67.4698 92.5426 67.4698C93.0689 67.4698 93.5952 67.4698 94.1215 67.4698C94.5559 67.4698 95.2492 67.5868 95.4832 67.261C95.6419 67.0438 95.5667 64.6128 95.5667 64.1784H96.2935C96.2935 64.8216 96.2935 65.4565 96.2935 66.0914C96.2935 66.6511 96.1515 67.4698 96.7781 67.4698C97.4213 67.4698 97.2625 66.5926 97.2625 66.0496C97.2625 65.4565 97.2291 64.7631 97.2709 64.1867L97.9308 64.17C97.9977 64.6545 97.9476 65.5233 97.9476 66.0496C97.9476 66.5843 97.7888 67.4364 98.407 67.4698C99.067 67.5032 98.9083 66.6344 98.9083 66.0914C98.9083 65.5233 98.8665 64.7297 98.9167 64.1867L99.5766 64.1784C99.6267 64.7297 99.585 65.4899 99.585 66.058C99.585 66.601 99.4346 67.4615 100.061 67.4782C100.746 67.4949 100.554 66.5258 100.554 66.0998C100.554 65.5735 100.504 64.6712 100.571 64.1867H101.231C101.264 64.7715 101.239 65.4398 101.239 66.0246C101.239 66.5425 101.097 67.4113 101.79 67.3278C102.367 67.261 102.2 66.4005 102.2 65.8742C102.2 65.3312 102.158 64.571 102.208 64.053L102.818 64.0447C102.91 64.6712 102.659 66.9268 102.968 67.2108C103.286 67.4949 105.541 67.2693 106.185 67.3445C107.438 67.3027 107.262 67.1607 107.262 65.6069C107.262 64.7965 107.304 62.8083 107.262 62.0982C107.246 61.8476 107.078 61.8058 106.803 61.5135L105.959 60.5862C105.834 60.4609 105.767 60.3523 105.633 60.2186L103.595 58.0215C103.361 57.8294 102.776 57.8962 102.333 57.8962C101.857 57.8962 101.381 57.8962 100.905 57.8962C100.345 57.8962 100.537 57.8879 100.186 57.5788C98.5073 56.1001 96.2016 54.3792 94.2384 53.2848L92.9018 52.5413C92.7431 52.4578 92.6094 52.3743 92.4256 52.2824C90.9136 51.5305 90.1199 51.1546 88.5411 50.503L84.3725 49.0494C83.9965 48.9241 83.6206 48.8489 83.2614 48.732L82.1503 48.4229V29H43.1124V48.4062C42.9788 48.473 42.8368 48.4897 42.6697 48.5398L41.7424 48.8071C40.9154 49.0411 39.278 49.5339 38.5345 49.8347C38.2505 49.9516 37.933 50.0435 37.6323 50.1605L33.4553 51.9983C32.528 52.4662 31.9349 52.817 31.0828 53.2848C30.3978 53.6608 28.727 54.7468 28.1589 55.1728C27.357 55.7743 26.5216 56.3507 25.7697 57.0191C24.5584 58.0967 24.9594 57.8795 23.581 57.8795C23.18 57.8795 22.7873 57.8795 22.3864 57.8795C21.7013 57.8795 21.81 57.8628 21.2586 58.5228C21.15 58.6481 21.0748 58.7065 20.9662 58.8486C20.7992 59.0574 20.5485 59.2746 20.3731 59.4918L19.521 60.4525C19.4625 60.511 19.4207 60.5444 19.3706 60.6112L18.9613 61.0874C18.9028 61.1542 18.8694 61.1793 18.8109 61.2461C18.7441 61.3213 18.744 61.338 18.6772 61.4216C18.4517 61.6638 18.2345 61.9896 18.034 62.0063V67.0855H18.059Z" fill="#4D709B"/>
<path fill-rule="evenodd" clip-rule="evenodd" d="M61.0645 87.9955C61.29 88.1458 61.148 88.1458 61.5657 88.1458C62.1087 88.1458 61.7495 87.7114 62.2674 87.2269C62.6433 86.8677 62.8522 86.9679 63.2031 87.4692C63.5706 88.0038 63.1612 88.1375 63.8379 88.1375C64.0802 88.1375 64.0885 88.0707 64.2222 87.9871C64.1971 87.678 63.8797 87.1684 63.6208 86.9679C63.5539 86.9178 63.5372 86.8928 63.4703 86.851C63.345 86.7674 63.3785 86.8343 63.2949 86.7173C63.5539 86.6588 63.8296 86.567 64.1387 86.567C64.1387 87.678 65.5171 88.0623 66.4109 88.2962L66.5529 88.3463C66.5613 88.3463 66.5697 88.3547 66.578 88.363C66.5864 88.363 66.5947 88.3714 66.6031 88.3798L64.9406 88.4884C64.1387 88.5802 60.2875 88.5468 59.4271 88.4299L58.5917 88.3798C58.7086 88.2962 59.1848 88.221 59.4354 88.1458C60.1539 87.9203 61.1312 87.5778 61.1312 86.5753C61.4487 86.5753 61.716 86.6672 61.975 86.7257L61.6743 86.9596C61.4487 87.1434 61.0979 87.653 61.0645 87.9955ZM41.4327 84.1861C41.4327 84.562 42.0342 84.7458 42.3266 84.8711C42.7108 85.0382 43.0367 85.1886 43.4293 85.3473C43.7885 85.4976 44.1645 85.6564 44.5487 85.8067C44.7242 85.8736 44.9246 85.9655 45.1001 86.0239L48.6171 87.2436C50.1041 87.6697 51.4909 88.0707 53.0196 88.3881C55.0663 88.8142 57.1381 89.1149 59.2182 89.2736C60.9976 89.4156 61.8831 89.3822 63.7294 89.3822C64.6817 89.3822 65.7677 89.3237 66.7284 89.2235C68.5662 89.0314 70.3958 88.7557 72.2086 88.3881C73.0607 88.2127 73.9713 88.0122 74.7899 87.7783C75.0071 87.7198 75.1742 87.6697 75.3914 87.6112C77.8642 86.9178 81.2141 85.7483 83.4947 84.6288C83.6785 84.5369 83.8706 84.4367 83.8706 84.1944C83.8706 84.0524 83.7788 83.9188 83.6702 83.8519C83.4112 83.6932 83.1355 83.9104 82.8849 84.019L81.7153 84.5453C81.1222 84.8377 79.0755 85.6313 78.449 85.8234C77.3045 86.1743 76.16 86.6004 74.9904 86.9011L73.1693 87.3522C72.8518 87.419 72.5594 87.5026 72.2336 87.5694C71.9078 87.6446 71.6238 87.678 71.298 87.7532C71.0223 87.8117 70.613 87.9119 70.3289 87.937C70.0616 87.5444 69.0424 86.8677 68.6749 86.709C68.065 86.4333 67.1043 86.2829 66.2104 86.2829C66.2272 86.4918 66.5864 86.8677 66.7367 87.0264C67.4051 87.6947 68.3658 87.937 69.293 88.0122C69.5019 88.0289 69.4685 87.9704 69.5604 88.0957C69.3766 88.0957 69.2262 88.1291 69.0424 88.1542C68.5078 88.2294 67.9481 88.363 67.4051 88.363C67.0124 87.6195 66.5947 87.0598 65.8429 86.6923C65.7092 86.6254 65.5923 86.592 65.4503 86.5502L65.0827 86.4166C65.0743 86.4166 65.066 86.4082 65.0576 86.3999C65.609 86.3915 66.2355 86.049 66.6365 85.7483C66.8621 85.5812 67.0291 85.4225 67.2213 85.222C67.2881 85.1468 67.2797 85.1551 67.3466 85.0716C67.4134 84.9881 67.4301 84.9797 67.4969 84.9129C67.6974 84.7124 67.522 84.7625 67.3299 84.7876C66.6365 84.8711 66.0601 84.9797 65.4503 85.1468C64.9156 85.2972 64.381 85.6397 64.2473 86.2161C63.7878 86.2161 62.9441 86.45 62.6684 86.4416C62.3677 86.4333 61.9332 86.2161 61.0895 86.2161C60.8055 85.623 60.63 85.364 59.9283 85.1468C59.3435 84.9714 58.6836 84.8711 58.0153 84.7876C57.8482 84.7709 57.6561 84.7124 57.8231 84.8962C58.0821 85.1802 58.3661 85.4893 58.6836 85.7399C59.0929 86.0574 59.7194 86.3999 60.2875 86.4082L59.544 86.7006C59.2266 86.8593 58.8172 87.0849 58.5917 87.3606C58.5081 87.4608 58.4329 87.5527 58.3577 87.6613C58.1907 87.8785 58.0737 88.0874 57.9484 88.3296C57.798 88.3296 57.5391 88.2795 57.4054 88.2628L55.9769 88.0707C55.7848 88.0456 55.8349 88.0957 55.7179 87.9871C56.4698 87.9871 57.23 87.8535 57.8816 87.5778C58.2742 87.4107 59.143 86.6756 59.1765 86.2579C58.7755 86.2579 58.4998 86.2996 58.1406 86.2996C58.1406 85.0465 57.4054 84.6623 56.3779 84.2446C56.0855 84.1276 55.7597 83.9856 55.4422 83.9104C55.4673 84.2195 55.6594 84.562 55.8014 84.821C56.1105 85.3974 56.5617 85.7399 57.1631 85.9989C57.3135 86.0657 57.4639 86.0991 57.631 86.1493C57.773 86.191 58.0236 86.2244 58.0988 86.333C57.4889 86.333 56.7956 86.5837 56.3277 86.8677C55.9184 87.1183 55.3253 87.5109 55.058 87.9119C54.8074 87.795 53.6294 87.653 53.2535 87.5611C52.6938 87.419 52.0673 87.3272 51.4992 87.1601L49.8033 86.7006C48.8844 86.4333 47.3807 85.9989 46.537 85.6564L44.9664 85.0716C44.6991 84.9714 44.4652 84.846 44.2062 84.7541C43.9389 84.6539 43.7133 84.5537 43.446 84.4367C43.304 84.3699 43.2121 84.3448 43.0617 84.278L42.3183 83.9438C42.1929 83.8937 42.0342 83.7934 41.8922 83.7934C41.6583 83.76 41.4327 83.9856 41.4327 84.1861Z" fill="#4D6F9B"/>
<path fill-rule="evenodd" clip-rule="evenodd" d="M38.8097 89.0397C38.8097 89.6411 39.1355 90.0004 39.4362 90.6018L41.4996 94.6618C41.5999 94.5867 41.6667 94.3611 41.7168 94.2274L43.1119 90.8107C43.4628 90.9778 45.9272 91.8466 46.3282 91.9802C46.5204 92.0471 46.7125 92.0888 46.8796 92.1557C47.0383 92.2225 47.2472 92.281 47.4309 92.3311C47.8319 92.448 48.1661 92.5483 48.5587 92.6736C49.912 93.0746 51.9003 93.5006 53.3037 93.7763C54.5735 94.0269 55.8768 94.1606 57.1382 94.336C58.7338 94.5532 61.0812 94.6618 62.6685 94.6618C66.3693 94.6618 68.5747 94.3444 71.9497 93.7847L74.3305 93.2751L77.7891 92.3395C78.2986 92.1974 81.5316 91.0864 82.0746 90.8107L83.4614 94.0854C83.5199 94.2107 83.6285 94.453 83.6535 94.5867C83.8039 94.5449 83.7287 94.5783 83.7955 94.4613L84.9233 92.281C84.9902 92.139 85.057 92.0554 85.1322 91.9134L86.1597 89.9335C86.2767 89.6996 86.5022 89.4239 86.4521 89.0731C86.3351 88.2962 85.6919 88.3379 85.1739 88.6052C84.9651 88.7138 84.7896 88.789 84.5724 88.8893C83.2525 89.5075 82.1582 89.9001 80.8383 90.4348C79.5518 90.9527 76.8534 91.7964 75.5085 92.1473C73.846 92.5734 71.3482 93.1331 69.6524 93.3419C69.1678 93.4004 68.6165 93.4923 68.1319 93.5508C67.3049 93.6594 66.5029 93.7178 65.6759 93.7513L64.8488 93.8097C64.3476 93.8849 60.7721 93.8849 60.2542 93.8181L59.3938 93.7513C59.1097 93.7346 58.8006 93.7346 58.5249 93.6928C58.0989 93.626 57.5141 93.626 56.8792 93.5257C56.3195 93.4422 55.8183 93.3837 55.2502 93.3085C53.3956 93.0328 50.998 92.5149 49.1852 92.0136C48.9513 91.9468 48.7425 91.8716 48.5002 91.8132C48.2663 91.7547 48.0324 91.6878 47.7818 91.6043L44.365 90.4431C43.7301 90.1925 42.2765 89.6578 41.7502 89.3989C41.5497 89.2986 41.3326 89.2151 41.107 89.1148C40.823 88.9895 39.7119 88.4465 39.4947 88.4131C39.1522 88.3379 38.8097 88.6554 38.8097 89.0397Z" fill="#4D6F9B"/>
<path fill-rule="evenodd" clip-rule="evenodd" d="M85.0152 84.9964L85.6083 85.9822C85.8505 86.3414 87.0452 88.2461 87.112 88.4466C87.5464 89.7164 86.7444 90.4181 86.1597 91.5709C85.8506 92.1808 85.2073 93.2166 84.8648 93.8599C85.0653 93.8432 85.7252 93.2584 85.9257 93.1164L87.1872 92.1056C88.2565 91.2618 89.8688 90.109 91.0801 89.5994C91.5062 89.4156 91.8737 89.3154 92.4084 89.3154C92.6757 89.3154 92.7676 89.4156 92.9848 89.4323C92.7425 88.3797 91.7651 87.4942 90.9047 86.9261C90.7543 86.8259 89.9774 86.3748 89.9774 86.308C89.9774 85.8401 90.5956 84.6038 90.9047 84.1192C91.0467 83.902 91.3057 83.5929 91.3224 83.4593C90.8963 83.359 90.5455 83.1168 89.6683 83.1168C88.7995 83.1168 88.1729 83.1919 87.396 83.501C86.8864 83.7015 87.0702 83.5929 86.6024 83.8603L85.8756 84.2863C85.65 84.4283 85.1488 84.7959 85.0152 84.9964Z" fill="#4D6F9B"/>
<path fill-rule="evenodd" clip-rule="evenodd" d="M33.9644 83.4509C33.9811 83.6013 34.0646 83.6431 34.1482 83.7684C34.6578 84.4367 34.9668 85.1217 35.2258 85.9237C35.2676 86.049 35.2927 86.2411 35.3428 86.3414C35.2342 86.3665 35.2092 86.4082 35.1173 86.4667C35.0337 86.5252 34.9585 86.5502 34.875 86.6087C34.7079 86.709 34.5742 86.8092 34.4155 86.9178C33.956 87.2269 33.3211 87.7281 32.9786 88.1793C32.7029 88.5552 32.4105 88.9645 32.3019 89.4323C32.5693 89.4073 32.5192 89.3154 32.9953 89.3154C33.4297 89.3154 33.8641 89.4574 34.1816 89.5911C35.2258 90.0171 36.9384 91.17 37.849 91.9302C37.9325 91.997 37.9492 92.0137 38.0494 92.0805L39.5365 93.2501C39.6952 93.3754 40.2298 93.8516 40.422 93.8683L38.9934 91.454C38.935 91.3537 38.9016 91.2702 38.8431 91.1783C38.793 91.0864 38.7345 91.0279 38.676 90.9193C38.2332 90.1257 37.7988 89.6328 38.1497 88.5218C38.2583 88.1709 39.4279 86.3999 39.6534 86.0239C39.762 85.8402 39.8623 85.7065 39.9625 85.5311L40.2549 85.0215C40.1045 84.8043 39.4278 84.3365 39.1522 84.161C39.0436 84.0942 38.9934 84.0608 38.8848 84.0023C37.5816 83.3423 36.4037 82.9246 34.7747 83.2254C34.5993 83.2588 34.499 83.2839 34.3403 83.334C34.2066 83.3674 34.1148 83.4175 33.9644 83.4509Z" fill="#4D6F9B"/>
<path fill-rule="evenodd" clip-rule="evenodd" d="M22.6031 60.11L30.1801 60.1184V60.5862H22.5948L22.6031 60.11ZM21.6508 61.0373C21.7677 61.455 22.3358 61.3631 22.7953 61.3631H29.9964C30.4475 61.3631 30.9988 61.4634 31.1241 61.054C31.1659 60.9204 31.1659 59.8093 31.1325 59.6673C31.0155 59.2412 30.4642 59.3331 29.9964 59.3331H22.7953C22.3525 59.3331 21.8011 59.2412 21.6675 59.6339C21.6174 59.7675 21.609 60.8953 21.6508 61.0373Z" fill="#4D709B"/>
<path fill-rule="evenodd" clip-rule="evenodd" d="M95.1652 60.11H102.734V60.5862H95.1485L95.1652 60.11ZM94.1962 61.0039C94.2714 61.455 94.8645 61.3631 95.2989 61.3631H102.5C102.951 61.3631 103.528 61.4801 103.67 61.0958C103.728 60.9454 103.728 59.8761 103.695 59.6923C103.603 59.2078 103.051 59.3331 102.575 59.3331H95.3741C94.9397 59.3331 94.38 59.2329 94.2296 59.6088C94.1711 59.7508 94.1628 60.8285 94.1962 61.0039Z" fill="#4D709B"/>
<path fill-rule="evenodd" clip-rule="evenodd" d="M63.3535 42.1324C63.1028 42.2577 63.0527 42.4499 63.2114 42.642C63.4286 42.901 65.0827 43.1015 66.152 45.0145C66.5363 45.7079 67.0626 45.215 66.8454 44.7388C66.5864 44.1708 66.1269 43.6361 65.6675 43.2602C65.4419 43.0764 63.8463 41.8818 63.3535 42.1324Z" fill="#4D709B"/>
<path fill-rule="evenodd" clip-rule="evenodd" d="M70.73 85.7984C70.8469 85.9571 71.4652 86.2244 71.7074 86.3247C72.7684 86.734 73.6372 86.5502 74.6898 86.3414C74.8485 86.308 75.0824 86.2411 75.2328 86.2328C75.0991 86.049 74.2387 85.8318 74.0131 85.7566C73.161 85.4809 72.359 85.4224 71.4819 85.5979C71.2814 85.6313 70.8804 85.7315 70.73 85.7984Z" fill="#4D6F9B"/>
<path fill-rule="evenodd" clip-rule="evenodd" d="M50.0958 86.2244C50.2629 86.2411 50.4717 86.2996 50.6054 86.333C51.6329 86.5502 52.6437 86.7256 53.6546 86.3246L54.6404 85.8485C54.5652 85.7399 54.6737 85.8067 54.2895 85.7064C52.7858 85.3055 51.8 85.5394 50.3715 86.0907C50.2629 86.1158 50.1627 86.1325 50.0958 86.2244Z" fill="#4D6F9B"/>
<path fill-rule="evenodd" clip-rule="evenodd" d="M67.2297 86.2995C67.4302 86.2828 68.015 86.0823 68.2071 86.0072C69.101 85.6229 69.4352 85.2302 69.786 84.4283C69.8612 84.2612 69.928 84.1359 69.928 83.9187C69.4017 84.044 68.1737 84.4951 67.7643 84.9128C67.4051 85.2553 67.2297 85.7649 67.2297 86.2995Z" fill="#4D6F9B"/>
<path fill-rule="evenodd" clip-rule="evenodd" d="M52.7523 87.2686C54.0722 87.2686 55.2668 87.4106 56.2191 86.6922C56.453 86.5168 56.7538 86.2745 56.9125 86.0406L55.91 85.9988C54.9577 85.9988 54.1056 86.3246 53.3955 86.7925C53.2284 86.8927 52.8358 87.135 52.7523 87.2686Z" fill="#4D6F9B"/>
<path fill-rule="evenodd" clip-rule="evenodd" d="M68.4577 86.0321C68.4995 86.1741 68.9589 86.5751 69.1093 86.6837C70.1034 87.3938 71.1811 87.2601 72.5762 87.2601C72.4258 87.0346 71.557 86.5584 71.273 86.4081C70.5462 86.0238 69.7943 85.9904 68.9589 85.9904C68.725 85.9904 68.6833 86.0321 68.4577 86.0321Z" fill="#4D6F9B"/>
<path fill-rule="evenodd" clip-rule="evenodd" d="M55.484 85.7983C55.484 85.6229 55.5592 85.3973 55.5592 84.871C55.5592 84.3615 55.0329 84.0022 54.7155 83.7934C54.5066 83.6514 53.6879 83.2003 53.4457 83.1418C53.4624 83.9438 53.6963 84.6873 54.3229 85.1968C54.5484 85.389 55.2084 85.7816 55.484 85.7983Z" fill="#4D6F9B"/>
<path fill-rule="evenodd" clip-rule="evenodd" d="M69.7692 85.0715C69.7692 85.272 69.8277 85.673 69.8862 85.8066C70.2454 85.7732 71.0223 85.2386 71.323 84.9295C71.4985 84.7457 71.6488 84.4366 71.7324 84.186C71.7825 84.0356 71.8076 83.8936 71.8326 83.7098C71.8577 83.5594 71.8827 83.2754 71.8827 83.1501C71.5653 83.2253 70.4125 83.9437 70.0616 84.3363C69.9029 84.5118 69.7692 84.8292 69.7692 85.0715Z" fill="#4D6F9B"/>
<path fill-rule="evenodd" clip-rule="evenodd" d="M76.9703 89.5409C77.1207 89.6412 77.388 89.9252 77.5468 89.967C77.5802 89.8416 77.6052 89.733 77.647 89.6077L77.764 89.2652C77.764 89.2569 77.7723 89.2485 77.7806 89.2402L78.048 90.1257C78.2485 90.109 78.3654 90.0254 78.5492 90.0087C78.5325 89.7832 78.4156 89.4991 78.332 89.2986L78.1065 88.5635C78.0563 88.3714 78.0814 88.3129 77.9311 88.3379C77.8559 88.3463 77.5885 88.4298 77.5468 88.4632C77.4883 88.505 77.3045 89.048 77.2794 89.1566L76.7364 88.6972C76.6278 88.7222 76.277 88.8141 76.1934 88.8475L76.7364 90.5434C76.9118 90.5267 77.0455 90.4598 77.1959 90.4264L76.9703 89.5409Z" fill="#4D6F9B"/>
<path fill-rule="evenodd" clip-rule="evenodd" d="M51.6748 83.1418C51.6748 83.5261 51.6497 83.8351 51.8252 84.186C51.9338 84.4032 52.0257 84.47 52.176 84.6371L53.1367 85.2971C53.3873 84.7791 53.4876 84.2528 53.1367 83.7516C52.9613 83.5093 51.9839 82.7742 51.7082 82.7157C51.7082 82.9162 51.6748 82.9329 51.6748 83.1418Z" fill="#4D6F9B"/>
<path fill-rule="evenodd" clip-rule="evenodd" d="M71.9663 84.3782C71.9663 84.5286 72.0081 84.7541 72.0498 84.8794C72.0916 85.0131 72.1668 85.1802 72.2002 85.3055C72.6179 85.0799 73.0774 84.8126 73.353 84.42C73.754 83.8519 73.6454 83.501 73.587 82.7241C73.3698 82.7742 71.9663 83.6765 71.9663 84.3782Z" fill="#4D6F9B"/>
<path fill-rule="evenodd" clip-rule="evenodd" d="M80.1615 88.4214C79.8942 88.3462 79.418 87.8032 79.1757 87.8617C79.1256 87.8701 78.8666 88.0121 78.8082 88.0371L79.3846 89.6912C79.5183 89.6912 79.7856 89.5826 79.8858 89.5408C79.8691 89.2902 79.6435 88.9978 79.6185 88.6971C80.5123 89.1733 80.362 89.4657 81.0053 89.1566L80.387 87.4607C80.2199 87.4774 80.1197 87.5693 79.9276 87.6111C79.9359 87.8701 80.1448 88.1374 80.1615 88.4214Z" fill="#4D6F9B"/>
<path fill-rule="evenodd" clip-rule="evenodd" d="M48.3998 84.4534C48.5084 84.6037 49.277 84.9629 49.4524 85.0548C50.1542 85.4141 50.7473 85.4141 51.5326 85.3138C51.7581 85.2804 52.0505 85.2219 52.251 85.2219C52.2092 85.0716 52.0589 85.0131 51.85 84.8878C50.9979 84.3782 50.3547 84.3782 49.394 84.3782C49.1851 84.3782 48.5168 84.3949 48.3998 84.4534Z" fill="#4D6F9B"/>
<path fill-rule="evenodd" clip-rule="evenodd" d="M56.1774 92.1556C56.3946 92.1556 56.4448 92.1974 56.6787 92.1974C56.6787 91.8966 56.7539 91.621 56.7539 91.3119C56.8541 91.3787 57.3888 92.2308 57.4055 92.3143C57.631 92.3143 57.6728 92.3561 57.8649 92.3561L58.0153 90.5433C57.7563 90.4848 57.7897 90.5015 57.4723 90.5015C57.4723 90.8273 57.4222 91.103 57.3971 91.3871L56.8123 90.4765C56.7288 90.4096 56.5367 90.3846 56.403 90.3846C56.3111 90.3846 56.3028 90.702 56.2944 90.7772C56.2777 90.961 56.261 91.078 56.2526 91.2367C56.2359 91.5625 56.1774 91.8047 56.1774 92.1556Z" fill="#4D6F9B"/>
<path fill-rule="evenodd" clip-rule="evenodd" d="M51.5577 84.4534C51.4408 84.2027 51.4408 84.0189 51.1651 83.6931C50.7056 83.1501 49.9204 82.8912 49.2353 82.699C49.0766 82.6489 48.8928 82.5821 48.7508 82.5654C48.7675 82.7909 49.0348 83.1585 49.1351 83.3339C49.2771 83.5762 49.4776 83.7767 49.7282 83.9354C49.9872 84.1108 50.2128 84.1777 50.5553 84.2696C50.8226 84.3364 51.2152 84.4534 51.5577 84.4534Z" fill="#4D6F9B"/>
<path fill-rule="evenodd" clip-rule="evenodd" d="M58.8758 54.5714C58.834 54.5046 58.2576 54.3041 58.1573 54.2874C58.1072 54.7969 58.149 55.5404 58.149 56.0751C58.149 56.5513 58.007 57.4618 58.3746 57.654C58.6252 57.7793 58.834 57.5704 58.8675 57.3449L58.8758 54.5714Z" fill="#4D709B"/>
<path fill-rule="evenodd" clip-rule="evenodd" d="M73.0774 85.1885C73.3614 85.3221 74.2887 85.3388 74.6981 85.3388C75.5 85.3388 76.0431 84.9546 76.678 84.6204C76.8033 84.5536 76.8618 84.5619 76.937 84.4533C76.7532 84.3614 75.6337 84.3781 75.3163 84.3781C74.7482 84.3781 73.9713 84.5953 73.5369 84.871C73.4116 84.9462 73.1442 85.0966 73.0774 85.1885Z" fill="#4D6F9B"/>
<path fill-rule="evenodd" clip-rule="evenodd" d="M73.8459 84.4534C74.4057 84.4534 75.5668 84.1192 75.9762 83.6514C76.1767 83.4258 76.6027 82.816 76.6612 82.5654L75.3329 82.9664C75.1825 83.0248 75.0656 83.1 74.9152 83.1668C74.7314 83.2587 74.3806 83.4927 74.2469 83.6597L74.013 84.0022C73.9462 84.1359 73.8627 84.2863 73.8459 84.4534Z" fill="#4D6F9B"/>
<path fill-rule="evenodd" clip-rule="evenodd" d="M64.1889 91.5374H63.8798V91.1949C64.1889 91.1949 64.4228 91.1448 64.4228 91.3871C64.4144 91.504 64.3059 91.5374 64.1889 91.5374ZM63.3785 92.2308C63.3785 92.3645 63.4036 92.3812 63.4203 92.4982C64.0134 92.4982 63.9216 92.59 63.9216 91.9969C64.1137 92.0136 64.239 92.2642 64.4228 92.5399H65.041C64.9491 92.3645 64.7486 92.1306 64.615 91.8883C65.1747 91.7379 65.0159 90.7355 64.3058 90.7355H63.3785V92.2308Z" fill="#4D6F9B"/>
<path fill-rule="evenodd" clip-rule="evenodd" d="M61.031 92.5399L62.4178 92.5817C62.5682 92.5817 62.5347 92.4814 62.5347 92.2308C62.5347 92.0303 62.1254 92.1139 61.574 92.1139V91.8465H62.4178C62.4178 91.3119 62.5598 91.4205 61.574 91.4205V91.2283C62.6767 91.2283 62.5347 91.3286 62.5347 90.8775C62.5347 90.7856 62.5097 90.7605 62.4178 90.7605H61.031V92.5399Z" fill="#4D6F9B"/>
<path fill-rule="evenodd" clip-rule="evenodd" d="M54.0555 91.0362C54.0555 90.3428 54.941 90.4013 54.941 91.0362C54.9493 91.6377 54.0555 91.504 54.0555 91.0362ZM53.596 90.961C53.596 91.9718 54.5817 92.2392 55.1832 91.6627C55.7596 91.1114 55.4589 90.0755 54.4815 90.0755C54.0221 90.0755 53.596 90.5015 53.596 90.961Z" fill="#4D6F9B"/>
<path fill-rule="evenodd" clip-rule="evenodd" d="M41.6583 87.4942C41.3659 87.4942 41.4494 87.4274 41.2322 87.3772C41.2322 87.2102 41.4578 86.7256 41.5413 86.5669C42.36 86.759 42.1094 87.4942 41.6583 87.4942ZM40.6642 87.6529C40.8229 87.7365 41.4662 88.0038 41.6249 88.0038C41.9256 88.0038 42.1429 87.9954 42.3684 87.7532C42.7694 87.3188 42.7109 86.592 42.1596 86.3079L41.3075 85.9988C41.2657 86.1659 41.2072 86.2662 41.1487 86.4165L40.6642 87.6529Z" fill="#4D6F9B"/>
<path fill-rule="evenodd" clip-rule="evenodd" d="M42.9698 88.5718C43.0701 88.6219 43.1871 88.6553 43.304 88.6971L44.3566 89.1064C44.3733 89.0229 44.4736 88.7556 44.507 88.6804C44.3232 88.6386 44.2564 88.5801 44.0893 88.5216C43.9556 88.4715 43.7802 88.388 43.6215 88.3713C43.6716 88.2794 43.6883 88.271 43.6966 88.1374C43.8888 88.1791 44.3483 88.3963 44.507 88.4047C44.5404 88.271 44.5905 88.2042 44.6239 88.0538C44.4986 87.987 44.4067 87.9452 44.2563 87.8867C44.1143 87.8283 43.9723 87.7781 43.8971 87.6695L43.9389 87.5192C44.248 87.5442 44.5487 87.8032 44.8578 87.8283C44.8913 87.6695 44.9581 87.5944 44.9748 87.444C44.7158 87.4189 43.8637 86.9595 43.6298 86.9427C43.563 87.2351 43.279 87.7949 43.1369 88.1457C43.0785 88.2961 43.0033 88.4548 42.9698 88.5718Z" fill="#4D6F9B"/>
<path fill-rule="evenodd" clip-rule="evenodd" d="M74.2721 90.1507C74.2721 89.4907 75.1576 89.5576 75.1576 90.2259C75.1576 90.6101 74.6647 90.6686 74.4391 90.4431C74.389 90.4013 74.2721 90.2342 74.2721 90.1507ZM73.8126 90.0755C73.8126 91.479 75.6254 91.3286 75.6254 90.3094V90.1173C75.6254 89.6662 75.1575 89.2318 74.6981 89.2318C74.272 89.2318 73.8126 89.6494 73.8126 90.0755Z" fill="#4D6F9B"/>
<path fill-rule="evenodd" clip-rule="evenodd" d="M46.1276 89.7664C46.5453 89.7664 46.7876 89.591 46.8628 89.1566C46.9212 88.8475 47.13 88.505 47.13 88.1875C46.9713 88.1541 46.7959 88.0789 46.6288 88.0706C46.5704 88.3045 46.4785 88.5133 46.3949 88.7222C46.3114 88.9394 46.2947 89.2234 46.0107 89.2234C45.8436 89.2234 45.7016 89.1064 45.7016 88.9561C45.7016 88.8057 45.9271 88.4047 46.0524 88.1457C46.1025 88.0288 46.1527 87.9954 46.1694 87.8367C45.9689 87.8199 45.8519 87.7364 45.6681 87.7197L45.4593 88.3212C45.4008 88.4966 45.2671 88.789 45.2588 88.9561C45.2337 89.4239 45.735 89.7664 46.1276 89.7664Z" fill="#4D6F9B"/>
<path fill-rule="evenodd" clip-rule="evenodd" d="M58.834 91.1949C58.834 91.4622 58.9426 91.5876 59.2015 91.7129C59.6359 91.9217 59.6944 91.8215 59.7195 92.047C59.4438 92.2057 59.1431 91.8966 58.9509 91.8549C58.9008 91.8883 58.717 92.1055 58.6836 92.164C58.834 92.2642 58.8423 92.3143 59.0595 92.4062C60.179 92.8741 60.747 91.6962 59.9283 91.4288C59.5775 91.3119 59.4021 91.362 59.3853 91.1281C59.7279 91.0446 59.7696 91.22 60.0369 91.2785C60.1205 91.1615 60.2291 91.0445 60.3043 90.9276C60.0787 90.7772 59.9868 90.6185 59.4605 90.6185C59.1013 90.6185 58.834 90.8357 58.834 91.1949Z" fill="#4D6F9B"/>
<path fill-rule="evenodd" clip-rule="evenodd" d="M47.8569 89.1482C47.8569 89.6495 48.4416 89.6829 48.6254 90.0338C48.475 90.0421 48.3999 90.0839 48.1994 89.9586C48.0908 89.8917 47.9654 89.7915 47.932 89.6495C47.8151 89.708 47.6564 89.8166 47.5895 89.9168C47.6564 90.1758 48.2495 90.4932 48.4332 90.4932C48.759 90.4932 49.2018 90.4849 49.2018 89.9168C49.2018 89.6996 48.993 89.5325 48.8509 89.4573C48.6672 89.3571 48.4834 89.307 48.4249 89.0731C48.734 89.0981 48.8176 89.2568 49.0014 89.3822C49.1851 89.332 49.1935 89.2318 49.3438 89.19C49.3271 88.9895 49.1684 88.906 49.018 88.8224C48.2244 88.3296 47.8569 89.0313 47.8569 89.1482Z" fill="#4D6F9B"/>
<path fill-rule="evenodd" clip-rule="evenodd" d="M68.7334 91.0028C68.7752 91.0529 68.7501 91.0195 68.8002 91.0947C68.8587 91.1949 68.9172 91.3035 68.9256 91.4288H68.6165C68.6499 91.2784 68.6917 91.1531 68.7334 91.0028ZM68.4244 90.4263C68.4076 90.6602 67.9648 92.047 67.9648 92.3143C67.9732 92.3143 68.3742 92.2726 68.3825 92.2642C68.5078 92.2224 68.5079 92.0804 68.5413 91.93C68.7585 91.8799 69.0175 91.8632 69.2347 91.8131C69.3098 92.1305 69.4853 92.1389 69.8863 92.047C69.8529 91.905 69.7443 91.7713 69.6691 91.646C69.5521 91.4539 68.9924 90.5182 68.959 90.3929C68.7167 90.3846 68.6416 90.4263 68.4244 90.4263Z" fill="#4D6F9B"/>
<path fill-rule="evenodd" clip-rule="evenodd" d="M83.595 87.2686V86.8425C83.7119 86.9177 83.8623 87.0347 83.904 87.1934C83.7119 87.2017 83.7787 87.2519 83.595 87.2686ZM83.1271 86.2995V88.2627C83.3276 88.246 83.4362 88.1541 83.6284 88.1123V87.728C84.0628 87.6946 84.163 87.2936 84.4721 87.7698C84.6141 87.703 84.7895 87.6445 84.9316 87.5777C84.8898 87.4106 84.7311 87.3187 84.6142 87.2017L83.5448 86.1909C83.4028 86.2243 83.2942 86.2912 83.1271 86.2995Z" fill="#4D6F9B"/>
<path fill-rule="evenodd" clip-rule="evenodd" d="M51.2068 90.4598C51.2068 91.6043 52.4933 91.6377 52.8274 91.195C52.7857 91.0446 52.6687 90.9277 52.5601 90.8525C52.393 90.8942 52.3513 90.9694 52.1341 90.9694C51.7749 90.9694 51.6914 90.0839 52.1341 90.0839C52.3597 90.0839 52.51 90.1758 52.5601 90.3512C52.7606 90.3345 52.794 90.2426 52.9862 90.2009C52.9528 89.7665 52.3429 89.4323 51.7999 89.6746C51.683 89.7247 51.5994 89.7832 51.5159 89.8584C51.3739 89.9502 51.2068 90.2092 51.2068 90.4598Z" fill="#4D6F9B"/>
<path fill-rule="evenodd" clip-rule="evenodd" d="M73.1944 81.0283C73.1944 80.8445 73.2195 80.7609 73.3866 80.7609C73.7625 80.7609 73.9797 81.4961 73.5787 81.4961C73.303 81.4877 73.1944 81.1369 73.1944 81.0283ZM72.8101 80.9865C72.8101 81.2956 72.8018 81.4961 73.1109 81.7634C73.821 82.3899 75.0239 81.3206 74.222 80.5772C73.4283 79.8587 72.8101 80.6941 72.8101 80.9865Z" fill="#4D6F9B"/>
<path fill-rule="evenodd" clip-rule="evenodd" d="M66.5697 91.6544C66.4778 91.5875 66.4862 91.5291 66.4277 91.4121L66.0685 90.6185C65.4085 90.7689 65.3167 90.3846 65.8095 91.3787L66.2189 92.1974C66.2941 92.3478 66.2857 92.4313 66.4528 92.4313C66.9456 92.4313 66.812 92.3227 67.0459 91.6377C67.1211 91.4121 67.3634 90.7271 67.3801 90.5433C66.6449 90.5433 66.837 90.5934 66.67 91.2617C66.6365 91.4038 66.5864 91.5207 66.5697 91.6544Z" fill="#4D6F9B"/>
<path fill-rule="evenodd" clip-rule="evenodd" d="M66.6533 83.4509H66.4611C66.4611 83.1251 66.4027 83.1836 66.9624 83.1836C66.954 83.2504 66.9875 83.4509 66.6533 83.4509ZM66.4194 82.8327C66.411 82.7324 66.4027 82.7241 66.3776 82.6406L66.7201 82.5988C66.9122 82.6071 66.8788 82.8243 66.4194 82.8327ZM65.8763 82.298L66.1103 83.8352C66.3442 83.8352 67.3801 83.7767 67.3801 83.4091C67.3801 83.1251 67.3884 83.1 67.1128 82.9079C67.2381 82.7241 67.3717 82.4985 67.1462 82.298C66.8204 82.0307 66.5363 82.298 65.8763 82.298Z" fill="#4D6F9B"/>
<path fill-rule="evenodd" clip-rule="evenodd" d="M57.255 82.9162C57.255 82.5236 57.9484 82.3398 57.9484 82.958C57.9484 83.4508 57.255 83.3255 57.255 82.9162ZM56.7538 82.9162C56.7538 83.3005 57.2133 83.6847 57.5975 83.6847C58.6668 83.6847 58.6752 82.0641 57.5558 82.0641C57.113 82.0641 56.7538 82.4651 56.7538 82.9162Z" fill="#4D6F9B"/>
<path fill-rule="evenodd" clip-rule="evenodd" d="M59.8364 83.5678C59.6108 83.5678 59.5023 83.5344 59.3352 83.5261C59.3435 83.3757 59.3686 83.4258 59.3769 83.2588C59.5357 83.2922 59.7445 83.3089 59.8782 83.3757C59.8698 83.4342 59.8531 83.5261 59.8364 83.5678ZM59.4521 82.7993C59.6025 82.7993 59.8782 82.8076 59.8782 82.9497C59.8782 83.1585 59.6275 82.9998 59.4521 82.9914V82.7993ZM58.9091 83.8352C59.3519 83.8435 59.7445 84.0774 60.1204 83.8519C60.4463 83.6514 60.229 83.3674 60.1037 83.1836C60.3878 82.9914 60.3126 82.7158 60.1872 82.5988C60.1538 82.5654 59.9784 82.4568 59.9199 82.4401C59.8531 82.415 59.2099 82.3231 59.1347 82.3315C58.9676 82.3649 59.0177 82.5069 58.976 83.0248C58.9676 83.2671 58.9091 83.5762 58.9091 83.8352Z" fill="#4D6F9B"/>
<path fill-rule="evenodd" clip-rule="evenodd" d="M63.8045 82.6071L63.8463 83.1084H63.3451L63.3033 82.5654H62.8438L62.919 83.76C62.9441 84.1025 62.8271 84.1025 63.2281 84.1025C63.4035 84.1025 63.3451 83.902 63.3451 83.4843H63.8463C63.8463 84.1944 63.7711 84.1025 64.1888 84.1025C64.3225 84.1025 64.3057 84.0273 64.3057 83.8686L64.2723 82.7492C64.2723 82.4568 64.2891 82.4818 63.9215 82.4818C63.8296 82.4902 63.8045 82.5152 63.8045 82.6071Z" fill="#4D6F9B"/>
<path fill-rule="evenodd" clip-rule="evenodd" d="M51.4408 81.1786C51.4408 80.7359 52.1759 80.5521 52.1759 81.2204C52.1759 81.6966 51.4408 81.6548 51.4408 81.1786ZM51.0565 81.1034V81.2956C51.0565 81.9138 51.9671 82.2563 52.4349 81.7467C53.0364 81.0951 52.343 80.3683 51.8668 80.3683C51.4742 80.3683 51.0565 80.7108 51.0565 81.1034Z" fill="#4D6F9B"/>
<path fill-rule="evenodd" clip-rule="evenodd" d="M54.749 83.0666C54.8743 83.0916 55.0246 83.1418 55.175 83.1418C55.2084 83.0081 55.2752 82.7074 55.3253 82.5988C55.4757 82.6322 55.6679 82.699 55.8266 82.7157C55.7848 82.8076 55.6846 83.1418 55.6762 83.2587C55.7347 83.2838 55.8517 83.3339 55.9268 83.3673C56.0522 83.4174 56.0772 83.4258 56.1273 83.2921L56.4364 82.0892C56.4698 81.9722 56.5701 81.8135 56.0605 81.7968C56.0104 81.897 55.9436 82.1811 55.9436 82.3398C55.7347 82.3398 55.5843 82.2646 55.4005 82.2228C55.4507 82.1142 55.5258 81.7884 55.5509 81.6464C55.4089 81.613 55.3086 81.5712 55.1248 81.5712L54.749 83.0666Z" fill="#4D6F9B"/>
<path fill-rule="evenodd" clip-rule="evenodd" d="M70.6964 82.5655C70.4792 82.5655 70.6212 82.3232 70.7131 82.2647C70.8969 82.1478 70.9303 82.2898 70.9721 82.4485C70.8802 82.507 70.8301 82.5655 70.6964 82.5655ZM70.4207 81.8721C70.4875 81.6131 70.805 81.705 70.805 81.8721C70.805 82.0475 70.5293 82.0224 70.4207 81.8721ZM70.2704 82.1812C69.8359 82.8244 70.6463 83.1085 71.1559 82.7576C71.5736 82.4736 71.4566 82.0726 71.0807 81.989C71.2896 81.6799 71.1392 81.3374 70.8468 81.3374C70.5544 81.3374 70.2286 81.3207 70.0699 81.6465C69.9696 81.8554 69.9947 82.1143 70.2704 82.1812Z" fill="#4D6F9B"/>
<path fill-rule="evenodd" clip-rule="evenodd" d="M52.9778 81.9137C52.9778 82.1309 53.1031 82.3648 53.2201 82.4818C53.5041 82.7825 53.9719 82.7825 54.3312 82.6071C54.281 82.4066 54.2309 82.44 54.139 82.298C53.9803 82.3147 54.0471 82.3398 53.7965 82.3398C53.6127 82.3398 53.3788 81.9304 53.6461 81.6965C53.7631 81.5963 53.9886 81.5044 54.1474 81.6798C54.2392 81.7801 54.1975 81.7717 54.2476 81.8803C54.3395 81.8302 54.5233 81.755 54.6319 81.7299C54.5818 81.1118 53.3788 80.786 53.0697 81.5879C53.053 81.6297 52.9778 81.8803 52.9778 81.9137Z" fill="#4D6F9B"/>
<path fill-rule="evenodd" clip-rule="evenodd" d="M70.0784 90.1924C70.0868 90.3428 70.1452 90.5099 70.1536 90.6519C70.3374 90.6352 70.446 90.5767 70.6549 90.5767C70.6716 90.7605 70.7384 91.0028 70.7718 91.1866C70.8052 91.362 70.8721 91.6627 70.8804 91.8465C71.1143 91.8465 71.1979 91.8549 71.3816 91.8047C71.3816 91.5541 71.2145 90.7104 71.1477 90.4598C71.3983 90.4598 71.4652 90.418 71.6907 90.418L71.649 89.9585C71.3816 89.9585 71.106 90.0254 70.8721 90.0588C70.7133 90.0838 70.6381 90.0922 70.471 90.1173C70.3791 90.1423 70.187 90.1841 70.0784 90.1924Z" fill="#4D6F9B"/>
<path fill-rule="evenodd" clip-rule="evenodd" d="M54.5401 53.9198C54.6654 54.4628 55.7847 54.5045 55.484 53.0426C55.4088 52.6667 54.9661 52.533 54.6821 52.8087C54.5066 52.9841 54.4649 53.5856 54.5401 53.9198Z" fill="#4D709B"/>
<path fill-rule="evenodd" clip-rule="evenodd" d="M39.7035 58.9572C39.762 59.2914 40.2214 59.4584 40.5054 59.2329C40.6809 59.0992 40.7227 58.4309 40.6475 58.1218C40.5138 57.5955 39.4445 57.395 39.7035 58.9572Z" fill="#4D709B"/>
<path fill-rule="evenodd" clip-rule="evenodd" d="M69.8445 53.1846V53.761C69.8445 54.4126 70.8136 54.4544 70.8136 53.761V53.1846C70.8052 52.4327 69.8445 52.5246 69.8445 53.1846Z" fill="#4D709B"/>
<path fill-rule="evenodd" clip-rule="evenodd" d="M41.3408 57.2279V57.8044C41.3408 58.481 42.3099 58.5228 42.3099 57.8044V57.2279C42.3099 56.5095 41.3408 56.5763 41.3408 57.2279Z" fill="#4D709B"/>
<path fill-rule="evenodd" clip-rule="evenodd" d="M74.3388 53.5105C73.9212 53.6358 73.9964 54.02 73.9964 54.4544C73.9964 54.9473 74.272 55.1812 74.6479 55.0643C75.0322 54.9473 74.9654 54.5129 74.9654 54.1036C74.9654 53.7109 74.7565 53.3851 74.3388 53.5105Z" fill="#4D709B"/>
<path fill-rule="evenodd" clip-rule="evenodd" d="M53.4457 54.3374C53.4708 54.2622 53.546 53.4937 53.3371 53.243C53.0949 52.9507 52.6354 53.0008 52.5268 53.3433C52.4432 53.619 52.4683 54.3207 52.627 54.4878C52.8943 54.7718 53.3371 54.6632 53.4457 54.3374Z" fill="#4D709B"/>
<path fill-rule="evenodd" clip-rule="evenodd" d="M71.8745 53.5689V54.1453C71.8745 54.8303 72.8435 54.7885 72.8435 54.1453V53.5689C72.8351 52.8588 71.8745 52.9089 71.8745 53.5689Z" fill="#4D709B"/>
<path fill-rule="evenodd" clip-rule="evenodd" d="M61.6074 83.1418C61.6242 83.3089 61.6743 83.3256 61.6827 83.4843H61.4153C61.4487 83.3507 61.5072 83.217 61.6074 83.1418ZM60.6802 84.1109H61.1062C61.1814 83.7767 61.2483 83.8435 61.6827 83.8435C61.8915 83.8435 61.7411 84.1526 61.95 84.1526H62.2925C62.2925 84.0023 62.0753 83.5344 62.0001 83.3674C61.9333 83.217 61.8999 83.1334 61.8414 82.9914C61.7829 82.8661 61.7328 82.7241 61.6743 82.6155H61.29C61.2566 82.7492 61.1898 82.8494 61.1396 82.9664C61.0812 83.1167 61.031 83.1919 60.9725 83.3339C60.8974 83.5261 60.6885 83.8937 60.6802 84.1109Z" fill="#4D6F9B"/>
<path fill-rule="evenodd" clip-rule="evenodd" d="M50.3798 54.7217C50.4466 55.0141 50.881 55.2313 51.1734 54.9556C51.3238 54.8136 51.3405 54.705 51.3405 54.4544C51.3405 54.279 51.3655 54.0033 51.3154 53.8529C51.165 53.3934 50.3714 53.2932 50.3714 54.1119C50.3714 54.2455 50.3631 54.6131 50.3798 54.7217Z" fill="#4D709B"/>
<path fill-rule="evenodd" clip-rule="evenodd" d="M83.3611 56.7517C82.9517 56.8853 83.0269 57.1944 83.0269 57.6539C83.0269 58.0632 83.1272 58.389 83.6201 58.2554C84.0294 58.1468 83.9458 57.7959 83.9542 57.3364C83.9458 56.9271 83.8373 56.5929 83.3611 56.7517Z" fill="#4D709B"/>
<path fill-rule="evenodd" clip-rule="evenodd" d="M39.077 60.1184C39.1939 59.8928 39.1438 59.2162 39.0018 59.0407C38.7846 58.7818 38.3501 58.8904 38.2081 59.1661C38.0828 59.3916 38.1246 60.0599 38.275 60.2354C38.5507 60.5528 38.935 60.3941 39.077 60.1184Z" fill="#4D709B"/>
<path fill-rule="evenodd" clip-rule="evenodd" d="M86.6107 58.9155C86.2014 59.0241 86.2265 59.3081 86.2181 59.7676C86.2181 60.1518 86.3768 60.4944 86.8196 60.3858C87.1955 60.2939 87.1872 59.9096 87.1872 59.5002C87.1872 59.1327 86.9783 58.8152 86.6107 58.9155Z" fill="#4D709B"/>
<path fill-rule="evenodd" clip-rule="evenodd" d="M85.0485 57.7458C84.6141 57.8377 84.6726 58.1218 84.6726 58.5729C84.6726 58.9822 84.7394 59.3331 85.2407 59.2245C85.6417 59.1409 85.5832 58.7901 85.5915 58.3724C85.5915 58.1468 85.6249 57.9964 85.4913 57.8628C85.391 57.7709 85.2239 57.7124 85.0485 57.7458Z" fill="#4D709B"/>
<path fill-rule="evenodd" clip-rule="evenodd" d="M89.142 61.4967C88.7912 61.6304 88.7995 61.8977 88.8246 62.3154C88.8496 62.6579 89.1086 62.8751 89.4845 62.7415C90.0359 62.5493 89.8855 61.2043 89.142 61.4967Z" fill="#4D709B"/>
<path fill-rule="evenodd" clip-rule="evenodd" d="M36.7128 61.0791C36.7963 61.6137 37.8656 61.7223 37.6651 60.5444C37.5649 59.9847 36.529 59.9179 36.7128 61.0791Z" fill="#4D709B"/>
<path fill-rule="evenodd" clip-rule="evenodd" d="M87.6717 60.6948V60.9621C87.6717 61.6137 88.5906 61.622 88.5906 60.9621V60.6948C88.5822 60.0014 87.6717 59.9513 87.6717 60.6948Z" fill="#4D709B"/>
<path fill-rule="evenodd" clip-rule="evenodd" d="M35.5015 62.4241C35.5433 62.7249 35.8607 62.8585 36.1782 62.7165C36.4538 62.5912 36.4539 62.2905 36.4121 61.8895C36.362 61.4384 35.3344 61.2546 35.5015 62.4241Z" fill="#4D709B"/>
<path fill-rule="evenodd" clip-rule="evenodd" d="M81.2392 87.0765C81.2559 87.2436 81.7655 88.5802 81.8574 88.7724C81.991 88.739 82.25 88.6721 82.3586 88.622C82.3002 88.3547 82.1414 88.0539 82.0245 87.795C81.9576 87.6446 81.9159 87.5109 81.8574 87.3856C81.8073 87.252 81.7321 87.0932 81.6987 86.9679C81.5065 86.9763 81.4397 87.0598 81.2392 87.0765Z" fill="#4D6F9B"/>
<path fill-rule="evenodd" clip-rule="evenodd" d="M71.4234 81.1786C71.4568 81.3122 71.5153 81.4125 71.5738 81.5211C71.6907 81.4626 71.6991 81.4208 71.8411 81.4041C71.8578 81.6046 72.1251 82.1894 72.1919 82.44C72.6431 82.2228 72.7016 82.4651 72.334 81.5294C72.2421 81.2872 72.1836 81.0365 72.075 80.8277C71.6239 80.8695 71.6573 81.1201 71.4234 81.1786Z" fill="#4D6F9B"/>
<path fill-rule="evenodd" clip-rule="evenodd" d="M68.7333 81.9137C68.7417 82.0641 68.8085 82.1393 68.8503 82.298C69.0257 82.2563 68.9756 82.2228 69.1176 82.1811C69.1259 82.3147 69.2011 82.5821 69.2346 82.7241C69.2763 82.8828 69.3348 83.0916 69.3515 83.2587C69.4852 83.2504 69.6773 83.1919 69.7776 83.1418C69.7191 83.0165 69.6355 82.5821 69.6021 82.3983C69.5436 82.1142 69.4935 81.897 69.435 81.6464C69.0424 81.73 68.9255 81.8636 68.7333 81.9137Z" fill="#4D6F9B"/>
<path fill-rule="evenodd" clip-rule="evenodd" d="M76.0765 32.233C76.8701 32.2163 76.845 31.2138 76.0765 31.2138V32.233Z" fill="#4D709B"/>
<path fill-rule="evenodd" clip-rule="evenodd" d="M75.642 32.2246V31.2222C74.84 31.2389 74.8651 32.1745 75.642 32.2246Z" fill="#4D709B"/>
<path fill-rule="evenodd" clip-rule="evenodd" d="M32.0931 72.9667V77.1353H31.1491V75.4228H29.2862V77.1353H28.3338V72.9667H29.2862V74.6125H31.1491V72.9667H32.0931Z" fill="#4D709B"/>
<path fill-rule="evenodd" clip-rule="evenodd" d="M37.7821 74.9633C38.0327 75.0385 38.2248 75.1638 38.3585 75.3309C38.4922 75.498 38.559 75.7152 38.559 75.9658C38.559 76.3334 38.4253 76.6258 38.1496 76.8262C37.874 77.0351 37.4814 77.1353 36.9718 77.1353H34.9501V72.9667H36.8548C37.331 72.9667 37.6986 73.0586 37.9659 73.2424C38.2332 73.4262 38.3669 73.6935 38.3669 74.0444C38.3669 74.2532 38.3167 74.4287 38.2165 74.5874C38.1079 74.7461 37.9659 74.8714 37.7821 74.9633ZM35.8858 74.6876H36.7713C36.9801 74.6876 37.1305 74.6459 37.2391 74.5623C37.3477 74.4788 37.3978 74.3535 37.3978 74.1864C37.3978 74.0277 37.3477 73.9024 37.2391 73.8105C37.1305 73.7269 36.9801 73.6768 36.7713 73.6768H35.8858V74.6876ZM36.93 76.4169C37.3728 76.4169 37.5983 76.2415 37.5983 75.8823C37.5983 75.5397 37.3728 75.3643 36.93 75.3643H35.8858V76.4169H36.93Z" fill="#4D709B"/>
<path fill-rule="evenodd" clip-rule="evenodd" d="M44.5822 77.2021C44.1645 77.2021 43.7886 77.1102 43.4544 76.9264C43.1203 76.7426 42.8529 76.4837 42.6608 76.1579C42.4686 75.8321 42.3684 75.4561 42.3684 75.0468C42.3684 74.6374 42.4686 74.2615 42.6608 73.9357C42.8529 73.6099 43.1203 73.3509 43.4544 73.1672C43.7886 72.9834 44.1728 72.8915 44.5905 72.8915C44.9414 72.8915 45.2672 72.9583 45.5512 73.0836C45.8353 73.2089 46.0775 73.3927 46.2697 73.635L45.6599 74.203C45.3842 73.8772 45.0416 73.7185 44.6323 73.7185C44.3817 73.7185 44.1561 73.777 43.9556 73.8856C43.7551 74.0025 43.6048 74.1529 43.4878 74.3618C43.3792 74.5623 43.3207 74.7962 43.3207 75.0551C43.3207 75.3141 43.3792 75.5397 43.4878 75.7485C43.5964 75.949 43.7551 76.1077 43.9556 76.2247C44.1561 76.3416 44.3817 76.3918 44.6323 76.3918C45.0416 76.3918 45.3842 76.2247 45.6599 75.8989L46.2697 76.467C46.0775 76.7092 45.8353 76.893 45.5429 77.0183C45.2589 77.1436 44.933 77.2021 44.5822 77.2021Z" fill="#4D709B"/>
<path fill-rule="evenodd" clip-rule="evenodd" d="M48.6254 75.4562H47.9654V77.1353H47.0298V72.9667H47.9654V74.6459H48.6421L49.7198 72.9667H50.7223L49.3856 74.98L50.764 77.1353H49.6863L48.6254 75.4562Z" fill="#4D709B"/>
<path fill-rule="evenodd" clip-rule="evenodd" d="M55.1081 72.9667V77.1353H54.1725V73.752H52.769L52.7439 74.6208C52.7272 75.2139 52.6771 75.6901 52.6019 76.0577C52.5267 76.4253 52.4014 76.7093 52.2343 76.9014C52.0589 77.1019 51.8166 77.1938 51.5076 77.1938C51.3822 77.1938 51.2235 77.1688 51.0397 77.127L51.0982 76.3083C51.1483 76.325 51.2068 76.3334 51.2653 76.3334C51.4908 76.3334 51.6495 76.1997 51.7414 75.924C51.8333 75.6483 51.8835 75.2223 51.9085 74.6459L51.967 72.9584H55.1081V72.9667Z" fill="#4D709B"/>
<path fill-rule="evenodd" clip-rule="evenodd" d="M56.2776 72.9667H57.2216V75.6818L59.1765 72.9667H60.062V77.1353H59.1264V74.4203L57.1715 77.1353H56.2776V72.9667Z" fill="#4D709B"/>
<path fill-rule="evenodd" clip-rule="evenodd" d="M66.0769 75.0385C66.0769 75.5898 65.8931 76.0242 65.5255 76.3417C65.1579 76.6591 64.6317 76.8346 63.9383 76.868V77.3191H63.0694V76.8596C62.3761 76.8179 61.8414 76.6424 61.4739 76.325C61.1063 76.0075 60.9225 75.5815 60.9225 75.0385C60.9225 74.4871 61.1063 74.0611 61.4739 73.752C61.8414 73.4429 62.3761 73.2591 63.0694 73.2173V72.7913H63.9383V73.2173C64.6317 73.2591 65.1579 73.4345 65.5255 73.752C65.8931 74.0611 66.0769 74.4955 66.0769 75.0385ZM63.9383 76.1078C64.3476 76.066 64.6567 75.9574 64.8656 75.782C65.0661 75.6065 65.1663 75.3559 65.1663 75.0301C65.1663 74.3952 64.757 74.0444 63.9383 73.9692V76.1078ZM61.8414 75.0385C61.8414 75.665 62.2508 76.0242 63.0694 76.1078V73.9692C62.6518 74.0109 62.3427 74.1112 62.1422 74.2866C61.9417 74.462 61.8414 74.7127 61.8414 75.0385Z" fill="#4D709B"/>
<path fill-rule="evenodd" clip-rule="evenodd" d="M68.892 77.2021C68.466 77.2021 68.0817 77.1102 67.7392 76.9264C67.3967 76.7427 67.1293 76.4837 66.9372 76.1579C66.7451 75.8321 66.6448 75.4645 66.6448 75.0552C66.6448 74.6458 66.7451 74.2782 66.9372 73.9524C67.1293 73.6266 67.3967 73.3677 67.7392 73.1839C68.0817 73.0001 68.466 72.9082 68.892 72.9082C69.3181 72.9082 69.7024 73.0001 70.0365 73.1839C70.379 73.3677 70.6463 73.6266 70.8385 73.9524C71.0306 74.2782 71.1309 74.6458 71.1309 75.0552C71.1309 75.4645 71.0306 75.8321 70.8385 76.1579C70.6463 76.4837 70.379 76.7427 70.0365 76.9264C69.694 77.1102 69.3181 77.2021 68.892 77.2021ZM68.892 76.3834C69.1343 76.3834 69.3515 76.325 69.5436 76.2164C69.7358 76.0994 69.8945 75.949 70.0031 75.7402C70.1117 75.5397 70.1702 75.3058 70.1702 75.0468C70.1702 74.7878 70.1117 74.5623 70.0031 74.3534C69.8945 74.1529 69.7358 73.9942 69.5436 73.8773C69.3515 73.7603 69.1343 73.7102 68.892 73.7102C68.6498 73.7102 68.4326 73.7687 68.2404 73.8773C68.0483 73.9942 67.8896 74.1446 67.781 74.3534C67.6724 74.5539 67.6139 74.7878 67.6139 75.0468C67.6139 75.3058 67.6724 75.5313 67.781 75.7402C67.8896 75.9407 68.0483 76.0994 68.2404 76.2164C68.4326 76.325 68.6498 76.3834 68.892 76.3834Z" fill="#4D709B"/>
<path fill-rule="evenodd" clip-rule="evenodd" d="M73.9462 77.2021C73.5285 77.2021 73.1526 77.1102 72.8184 76.9264C72.4843 76.7426 72.217 76.4837 72.0248 76.1579C71.8327 75.8321 71.7324 75.4561 71.7324 75.0468C71.7324 74.6374 71.8327 74.2615 72.0248 73.9357C72.217 73.6099 72.4843 73.3509 72.8184 73.1672C73.1526 72.9834 73.5369 72.8915 73.9546 72.8915C74.3055 72.8915 74.6312 72.9583 74.9153 73.0836C75.1993 73.2089 75.4416 73.3927 75.6337 73.635L75.0239 74.203C74.7482 73.8772 74.4057 73.7185 73.9964 73.7185C73.7457 73.7185 73.5202 73.777 73.3197 73.8856C73.1192 74.0025 72.9688 74.1529 72.8519 74.3618C72.7433 74.5623 72.6848 74.7962 72.6848 75.0551C72.6848 75.3141 72.7433 75.5397 72.8519 75.7485C72.9605 75.949 73.1192 76.1077 73.3197 76.2247C73.5202 76.3416 73.7457 76.3918 73.9964 76.3918C74.4057 76.3918 74.7482 76.2247 75.0239 75.8989L75.6337 76.467C75.4416 76.7092 75.1993 76.893 74.9069 77.0183C74.6229 77.1436 74.3054 77.2021 73.9462 77.2021Z" fill="#4D709B"/>
<path fill-rule="evenodd" clip-rule="evenodd" d="M78.2736 77.2021C77.8475 77.2021 77.4632 77.1102 77.1207 76.9264C76.7782 76.7427 76.5109 76.4837 76.3187 76.1579C76.1266 75.8321 76.0264 75.4645 76.0264 75.0552C76.0264 74.6458 76.1266 74.2782 76.3187 73.9524C76.5109 73.6266 76.7782 73.3677 77.1207 73.1839C77.4632 73.0001 77.8475 72.9082 78.2736 72.9082C78.6996 72.9082 79.0839 73.0001 79.4181 73.1839C79.7522 73.3677 80.0279 73.6266 80.2201 73.9524C80.4122 74.2782 80.5124 74.6458 80.5124 75.0552C80.5124 75.4645 80.4122 75.8321 80.2201 76.1579C80.0279 76.4837 79.7606 76.7427 79.4181 76.9264C79.0755 77.1102 78.6996 77.2021 78.2736 77.2021ZM78.2736 76.3834C78.5158 76.3834 78.733 76.325 78.9252 76.2164C79.1173 76.0994 79.2761 75.949 79.3847 75.7402C79.4933 75.5397 79.5517 75.3058 79.5517 75.0468C79.5517 74.7878 79.4933 74.5623 79.3847 74.3534C79.2761 74.1529 79.1173 73.9942 78.9252 73.8773C78.733 73.7603 78.5158 73.7102 78.2736 73.7102C78.0313 73.7102 77.8141 73.7687 77.6219 73.8773C77.4298 73.9942 77.2711 74.1446 77.1625 74.3534C77.0539 74.5539 76.9954 74.7878 76.9954 75.0468C76.9954 75.3058 77.0539 75.5313 77.1625 75.7402C77.2711 75.9407 77.4298 76.0994 77.6219 76.2164C77.8141 76.325 78.0313 76.3834 78.2736 76.3834Z" fill="#4D709B"/>
<path fill-rule="evenodd" clip-rule="evenodd" d="M84.2299 74.9633C84.4805 75.0385 84.6726 75.1638 84.8063 75.3309C84.94 75.498 85.0068 75.7152 85.0068 75.9658C85.0068 76.3334 84.8731 76.6258 84.5975 76.8262C84.3218 77.0351 83.9291 77.1353 83.4195 77.1353H81.3979V72.9667H83.3026C83.7788 72.9667 84.1463 73.0586 84.4136 73.2424C84.681 73.4262 84.8147 73.6935 84.8147 74.0444C84.8147 74.2532 84.7645 74.4287 84.6643 74.5874C84.5557 74.7461 84.4137 74.8714 84.2299 74.9633ZM82.3335 74.6876H83.219C83.4279 74.6876 83.5783 74.6459 83.6869 74.5623C83.7955 74.4788 83.8456 74.3535 83.8456 74.1864C83.8456 74.0277 83.7955 73.9024 83.6869 73.8105C83.5783 73.7269 83.4279 73.6768 83.219 73.6768H82.3335V74.6876ZM83.3778 76.4169C83.8205 76.4169 84.0461 76.2415 84.0461 75.8823C84.0461 75.5397 83.8205 75.3643 83.3778 75.3643H82.3335V76.4169H83.3778Z" fill="#4D709B"/>
<path fill-rule="evenodd" clip-rule="evenodd" d="M87.8387 77.2021C87.4211 77.2021 87.0451 77.1102 86.7109 76.9264C86.3768 76.7426 86.1095 76.4837 85.9174 76.1579C85.7252 75.8321 85.6249 75.4561 85.6249 75.0468C85.6249 74.6374 85.7252 74.2615 85.9174 73.9357C86.1095 73.6099 86.3768 73.3509 86.7109 73.1672C87.0451 72.9834 87.4294 72.8915 87.8471 72.8915C88.198 72.8915 88.5237 72.9583 88.8078 73.0836C89.0918 73.2089 89.3341 73.3927 89.5262 73.635L88.9164 74.203C88.6407 73.8772 88.2982 73.7185 87.8889 73.7185C87.6383 73.7185 87.4127 73.777 87.2122 73.8856C87.0117 74.0025 86.8613 74.1529 86.7444 74.3618C86.6358 74.5623 86.5773 74.7962 86.5773 75.0551C86.5773 75.3141 86.6358 75.5397 86.7444 75.7485C86.853 75.949 87.0117 76.1077 87.2122 76.2247C87.4127 76.3416 87.6383 76.3918 87.8889 76.3918C88.2982 76.3918 88.6407 76.2247 88.9164 75.8989L89.5262 76.467C89.3341 76.7092 89.0918 76.893 88.7994 77.0183C88.5154 77.1436 88.1896 77.2021 87.8387 77.2021Z" fill="#4D709B"/>
<path fill-rule="evenodd" clip-rule="evenodd" d="M91.882 75.4562H91.2221V77.1353H90.2864V72.9667H91.2221V74.6459H91.9071L92.9764 72.9667H93.9789L92.6422 74.98L94.0206 77.1353H92.943L91.882 75.4562Z" fill="#4D709B"/>
<path fill-rule="evenodd" clip-rule="evenodd" d="M96.552 77.2021C96.1259 77.2021 95.7416 77.1102 95.3991 76.9264C95.0566 76.7427 94.7893 76.4837 94.5971 76.1579C94.405 75.8321 94.3047 75.4645 94.3047 75.0552C94.3047 74.6458 94.405 74.2782 94.5971 73.9524C94.7893 73.6266 95.0566 73.3677 95.3991 73.1839C95.7416 73.0001 96.1259 72.9082 96.552 72.9082C96.978 72.9082 97.3623 73.0001 97.6964 73.1839C98.0389 73.3677 98.3063 73.6266 98.4984 73.9524C98.6906 74.2782 98.7908 74.6458 98.7908 75.0552C98.7908 75.4645 98.6906 75.8321 98.4984 76.1579C98.3063 76.4837 98.0389 76.7427 97.6964 76.9264C97.3539 77.1102 96.978 77.2021 96.552 77.2021ZM96.552 76.3834C96.7942 76.3834 97.0114 76.325 97.2035 76.2164C97.3957 76.0994 97.5544 75.949 97.663 75.7402C97.7716 75.5397 97.8301 75.3058 97.8301 75.0468C97.8301 74.7878 97.7716 74.5623 97.663 74.3534C97.5544 74.1529 97.3957 73.9942 97.2035 73.8773C97.0114 73.7603 96.7942 73.7102 96.552 73.7102C96.3097 73.7102 96.0925 73.7687 95.9003 73.8773C95.7082 73.9942 95.5495 74.1446 95.4409 74.3534C95.3323 74.5539 95.2738 74.7878 95.2738 75.0468C95.2738 75.3058 95.3323 75.5313 95.4409 75.7402C95.5495 75.9407 95.7082 76.0994 95.9003 76.2164C96.0925 76.325 96.3097 76.3834 96.552 76.3834Z" fill="#4D709B"/>
<path fill-rule="evenodd" clip-rule="evenodd" d="M102.558 73.752H100.604L100.612 77.1353H99.668V72.9667H102.558V73.752Z" fill="#4D709B"/>
<path fill-rule="evenodd" clip-rule="evenodd" d="M104.831 77.2021C104.405 77.2021 104.02 77.1102 103.678 76.9264C103.335 76.7427 103.068 76.4837 102.876 76.1579C102.684 75.8321 102.583 75.4645 102.583 75.0552C102.583 74.6458 102.684 74.2782 102.876 73.9524C103.068 73.6266 103.335 73.3677 103.678 73.1839C104.02 73.0001 104.405 72.9082 104.831 72.9082C105.257 72.9082 105.641 73.0001 105.975 73.1839C106.309 73.3677 106.585 73.6266 106.777 73.9524C106.969 74.2782 107.069 74.6458 107.069 75.0552C107.069 75.4645 106.969 75.8321 106.777 76.1579C106.585 76.4837 106.318 76.7427 105.975 76.9264C105.633 77.1102 105.248 77.2021 104.831 77.2021ZM104.831 76.3834C105.073 76.3834 105.29 76.325 105.482 76.2164C105.674 76.0994 105.833 75.949 105.942 75.7402C106.05 75.5397 106.109 75.3058 106.109 75.0468C106.109 74.7878 106.05 74.5623 105.942 74.3534C105.833 74.1529 105.674 73.9942 105.482 73.8773C105.29 73.7603 105.073 73.7102 104.831 73.7102C104.588 73.7102 104.371 73.7687 104.179 73.8773C103.987 73.9942 103.828 74.1446 103.72 74.3534C103.611 74.5539 103.552 74.7878 103.552 75.0468C103.552 75.3058 103.611 75.5313 103.72 75.7402C103.828 75.9407 103.987 76.0994 104.179 76.2164C104.363 76.325 104.588 76.3834 104.831 76.3834Z" fill="#4D709B"/>
<path fill-rule="evenodd" clip-rule="evenodd" d="M33.5216 77.1771C33.3629 77.1771 33.2292 77.1186 33.1206 77.01C33.012 76.9014 32.9536 76.7594 32.9536 76.5924C32.9536 76.4253 33.012 76.2833 33.1206 76.1747C33.2292 76.0661 33.3629 76.0159 33.5216 76.0159C33.6803 76.0159 33.814 76.0661 33.9226 76.1747C34.0312 76.2833 34.0897 76.4169 34.0897 76.5924C34.0897 76.7594 34.0312 76.9014 33.9226 77.01C33.814 77.127 33.6803 77.1771 33.5216 77.1771Z" fill="#4D709B"/>
<path fill-rule="evenodd" clip-rule="evenodd" d="M39.7118 77.1771C39.5531 77.1771 39.4194 77.1186 39.3108 77.01C39.2022 76.9014 39.1437 76.7594 39.1437 76.5924C39.1437 76.4253 39.2022 76.2833 39.3108 76.1747C39.4194 76.0661 39.5531 76.0159 39.7118 76.0159C39.8706 76.0159 40.0042 76.0661 40.1128 76.1747C40.2214 76.2833 40.2799 76.4169 40.2799 76.5924C40.2799 76.7594 40.2214 76.9014 40.1128 77.01C40.0042 77.127 39.8706 77.1771 39.7118 77.1771Z" fill="#4D709B"/>
<path fill-rule="evenodd" clip-rule="evenodd" d="M41.0651 70.5191C40.7477 70.5191 40.472 70.4522 40.213 70.3186C39.9624 70.1849 39.7619 70.0011 39.6115 69.7672C39.4695 69.5333 39.3943 69.266 39.3943 68.9736C39.3943 68.6812 39.4695 68.4139 39.6115 68.18C39.7535 67.946 39.954 67.7623 40.213 67.6286C40.4636 67.4949 40.7477 67.4281 41.0651 67.4281C41.3325 67.4281 41.5747 67.4699 41.7919 67.5618C42.0091 67.6537 42.1845 67.7873 42.3349 67.9544L41.8754 68.3637C41.6666 68.1298 41.4076 68.0129 41.0985 68.0129C40.9064 68.0129 40.7393 68.0546 40.589 68.1382C40.4386 68.2217 40.3216 68.3303 40.2381 68.4807C40.1545 68.6227 40.1128 68.7898 40.1128 68.9736C40.1128 69.1574 40.1545 69.3244 40.2381 69.4665C40.3216 69.6085 40.4386 69.7254 40.589 69.809C40.7393 69.8925 40.9064 69.9343 41.0985 69.9343C41.4076 69.9343 41.6666 69.8173 41.8754 69.5834L42.3349 69.9928C42.1845 70.1682 42.0091 70.3018 41.7919 70.3937C41.5747 70.4689 41.3325 70.5191 41.0651 70.5191Z" fill="#4D709B"/>
<path fill-rule="evenodd" clip-rule="evenodd" d="M44.0726 69.2658H43.5797V70.4688H42.878V67.4781H43.5797V68.6894H44.0893L44.8996 67.4781H45.6515L44.649 68.9233L45.6849 70.4688H44.8746L44.0726 69.2658Z" fill="#4D709B"/>
<path fill-rule="evenodd" clip-rule="evenodd" d="M47.5562 70.5191C47.2387 70.5191 46.9464 70.4522 46.6957 70.3186C46.4368 70.1849 46.2362 70.0011 46.0942 69.7672C45.9522 69.5333 45.877 69.266 45.877 68.9736C45.877 68.6812 45.9522 68.4139 46.0942 68.18C46.2362 67.946 46.4368 67.7623 46.6957 67.6286C46.9547 67.4949 47.2387 67.4281 47.5562 67.4281C47.8736 67.4281 48.166 67.4949 48.4166 67.6286C48.6673 67.7623 48.8677 67.946 49.0181 68.18C49.1685 68.4139 49.2353 68.6812 49.2353 68.9736C49.2353 69.266 49.1601 69.5333 49.0181 69.7672C48.8677 70.0011 48.6673 70.1849 48.4166 70.3186C48.166 70.4522 47.8736 70.5191 47.5562 70.5191ZM47.5562 69.9259C47.7399 69.9259 47.8987 69.8842 48.0491 69.8006C48.1994 69.7171 48.308 69.6085 48.3916 69.4581C48.4751 69.3161 48.5169 69.149 48.5169 68.9652C48.5169 68.7814 48.4751 68.6144 48.3916 68.4723C48.308 68.3303 48.1911 68.2134 48.0491 68.1298C47.8987 68.0463 47.7399 68.0045 47.5562 68.0045C47.3724 68.0045 47.2137 68.0463 47.0633 68.1298C46.9129 68.2134 46.8043 68.322 46.7208 68.4723C46.6372 68.6144 46.5955 68.7814 46.5955 68.9652C46.5955 69.149 46.6372 69.3161 46.7208 69.4581C46.8043 69.6001 46.9213 69.7171 47.0633 69.8006C47.2137 69.8842 47.3724 69.9259 47.5562 69.9259Z" fill="#4D709B"/>
<path fill-rule="evenodd" clip-rule="evenodd" d="M51.2068 67.4781C51.4825 67.4781 51.7164 67.5199 51.9169 67.6118C52.1174 67.7036 52.2761 67.829 52.3764 67.9877C52.485 68.1464 52.5351 68.3385 52.5351 68.5641C52.5351 68.7813 52.4766 68.9734 52.3764 69.1405C52.2678 69.3076 52.1174 69.4329 51.9169 69.5164C51.7164 69.6 51.4825 69.6501 51.2068 69.6501H50.5886V70.4771H49.8785V67.4864H51.2068V67.4781ZM51.165 69.082C51.3822 69.082 51.541 69.0403 51.6496 68.9484C51.7582 68.8565 51.8167 68.7312 51.8167 68.5641C51.8167 68.397 51.7582 68.2634 51.6496 68.1798C51.541 68.0879 51.3739 68.0462 51.165 68.0462H50.5886V69.082H51.165V69.082Z" fill="#4D709B"/>
<path fill-rule="evenodd" clip-rule="evenodd" d="M54.6069 70.5191C54.2894 70.5191 53.9971 70.4522 53.7465 70.3186C53.4875 70.1849 53.287 70.0011 53.1449 69.7672C53.0029 69.5333 52.9277 69.266 52.9277 68.9736C52.9277 68.6812 53.0029 68.4139 53.1449 68.18C53.287 67.946 53.4875 67.7623 53.7465 67.6286C54.0054 67.4949 54.2894 67.4281 54.6069 67.4281C54.9243 67.4281 55.2167 67.4949 55.4674 67.6286C55.718 67.7623 55.9184 67.946 56.0688 68.18C56.2192 68.4139 56.286 68.6812 56.286 68.9736C56.286 69.266 56.2108 69.5333 56.0688 69.7672C55.9184 70.0011 55.718 70.1849 55.4674 70.3186C55.2167 70.4522 54.9327 70.5191 54.6069 70.5191ZM54.6069 69.9259C54.7907 69.9259 54.9494 69.8842 55.0998 69.8006C55.2502 69.7171 55.3587 69.6085 55.4423 69.4581C55.5258 69.3161 55.5676 69.149 55.5676 68.9652C55.5676 68.7814 55.5258 68.6144 55.4423 68.4723C55.3587 68.3303 55.2418 68.2134 55.0998 68.1298C54.9494 68.0463 54.7907 68.0045 54.6069 68.0045C54.4231 68.0045 54.2644 68.0463 54.114 68.1298C53.9637 68.2134 53.855 68.322 53.7715 68.4723C53.6879 68.6144 53.6462 68.7814 53.6462 68.9652C53.6462 69.149 53.6879 69.3161 53.7715 69.4581C53.855 69.6001 53.972 69.7171 54.114 69.8006C54.2644 69.8842 54.4314 69.9259 54.6069 69.9259Z" fill="#4D709B"/>
<path fill-rule="evenodd" clip-rule="evenodd" d="M56.9293 67.4782H57.6393V69.4247L59.1096 67.4782H59.7779V70.4689H59.0762V68.5224L57.6059 70.4689H56.9376V67.4782H56.9293ZM58.3494 67.2861C57.7897 67.2861 57.5057 67.0689 57.4973 66.6345H57.9819C57.9902 66.8433 58.1072 66.9436 58.3494 66.9436C58.4664 66.9436 58.5582 66.9185 58.6167 66.8684C58.6752 66.8182 58.7087 66.7347 58.717 66.6345H59.2015C59.2015 66.8517 59.1263 67.0104 58.9843 67.119C58.8423 67.2276 58.6335 67.2861 58.3494 67.2861Z" fill="#4D709B"/>
<path fill-rule="evenodd" clip-rule="evenodd" d="M64.4562 67.4781V70.4688H63.7461V68.0378H62.3593V70.4688H61.6576V67.4781H64.4562Z" fill="#4D709B"/>
<path fill-rule="evenodd" clip-rule="evenodd" d="M66.7785 70.5191C66.4611 70.5191 66.1687 70.4522 65.9181 70.3186C65.6591 70.1849 65.4586 70.0011 65.3166 69.7672C65.1746 69.5333 65.0994 69.266 65.0994 68.9736C65.0994 68.6812 65.1746 68.4139 65.3166 68.18C65.4586 67.946 65.6591 67.7623 65.9181 67.6286C66.1771 67.4949 66.4611 67.4281 66.7785 67.4281C67.096 67.4281 67.3884 67.4949 67.639 67.6286C67.8896 67.7623 68.0901 67.946 68.2404 68.18C68.3908 68.4139 68.4577 68.6812 68.4577 68.9736C68.4577 69.266 68.3825 69.5333 68.2404 69.7672C68.0901 70.0011 67.8896 70.1849 67.639 70.3186C67.38 70.4522 67.096 70.5191 66.7785 70.5191ZM66.7785 69.9259C66.9623 69.9259 67.121 69.8842 67.2714 69.8006C67.4218 69.7171 67.5304 69.6085 67.6139 69.4581C67.6974 69.3161 67.7392 69.149 67.7392 68.9652C67.7392 68.7814 67.6974 68.6144 67.6139 68.4723C67.5304 68.3303 67.4134 68.2134 67.2714 68.1298C67.121 68.0463 66.9623 68.0045 66.7785 68.0045C66.5947 68.0045 66.436 68.0463 66.2857 68.1298C66.1353 68.2134 66.0267 68.322 65.9431 68.4723C65.8596 68.6144 65.8178 68.7814 65.8178 68.9652C65.8178 69.149 65.8596 69.3161 65.9431 69.4581C66.0267 69.6001 66.1436 69.7171 66.2857 69.8006C66.4277 69.8842 66.5947 69.9259 66.7785 69.9259Z" fill="#4D709B"/>
<path fill-rule="evenodd" clip-rule="evenodd" d="M71.8912 70.4688V68.6811L70.9806 70.1513H70.6632L69.761 68.7145V70.4688H69.0927V67.4781H69.6857L70.8303 69.3327L71.9664 67.4781H72.5512L72.5595 70.4688H71.8912Z" fill="#4D709B"/>
<path fill-rule="evenodd" clip-rule="evenodd" d="M74.8819 70.5191C74.5645 70.5191 74.272 70.4522 74.0214 70.3186C73.7625 70.1849 73.562 70.0011 73.42 69.7672C73.278 69.5333 73.2028 69.266 73.2028 68.9736C73.2028 68.6812 73.278 68.4139 73.42 68.18C73.562 67.946 73.7625 67.7623 74.0214 67.6286C74.2804 67.4949 74.5645 67.4281 74.8819 67.4281C75.1994 67.4281 75.4917 67.4949 75.7423 67.6286C75.9929 67.7623 76.1935 67.946 76.3438 68.18C76.4942 68.4139 76.5611 68.6812 76.5611 68.9736C76.5611 69.266 76.4859 69.5333 76.3438 69.7672C76.1935 70.0011 75.9929 70.1849 75.7423 70.3186C75.4834 70.4522 75.1994 70.5191 74.8819 70.5191ZM74.8819 69.9259C75.0657 69.9259 75.2244 69.8842 75.3748 69.8006C75.5251 69.7171 75.6338 69.6085 75.7173 69.4581C75.8008 69.3161 75.8426 69.149 75.8426 68.9652C75.8426 68.7814 75.8008 68.6144 75.7173 68.4723C75.6338 68.3303 75.5168 68.2134 75.3748 68.1298C75.2244 68.0463 75.0657 68.0045 74.8819 68.0045C74.6981 68.0045 74.5394 68.0463 74.389 68.1298C74.2386 68.2134 74.1301 68.322 74.0465 68.4723C73.963 68.6144 73.9212 68.7814 73.9212 68.9652C73.9212 69.149 73.963 69.3161 74.0465 69.4581C74.1301 69.6001 74.247 69.7171 74.389 69.8006C74.531 69.8842 74.6981 69.9259 74.8819 69.9259Z" fill="#4D709B"/>
<path fill-rule="evenodd" clip-rule="evenodd" d="M81.256 67.4781V70.4688H77.196V67.4781H77.906V69.9007H78.8751V67.4781H79.5852V69.9007H80.5542V67.4781H81.256ZM81.6737 69.9007V71.087H81.0137V70.4688H80.5376V69.9091H81.6737V69.9007Z" fill="#4D709B"/>
<path fill-rule="evenodd" clip-rule="evenodd" d="M82.2499 67.4781H82.9516V69.4246L84.4219 67.4781H85.0902V70.4688H84.3885V68.5223L82.9182 70.4688H82.2499V67.4781Z" fill="#4D709B"/>
<path fill-rule="evenodd" clip-rule="evenodd" d="M18 74.1863H18.6349V76.1328L19.9465 74.1863H20.5396V77.177H19.9131V75.2306L18.6015 77.177H18V74.1863Z" fill="#4D709B"/>
<path fill-rule="evenodd" clip-rule="evenodd" d="M23.8143 77.177L23.806 75.3893L22.9957 76.8596H22.7116L21.9013 75.4227V77.177H21.3082V74.1863H21.8345L22.862 76.0409L23.8812 74.1863H24.4075L24.4158 77.177H23.8143Z" fill="#4D709B"/>
<path fill-rule="evenodd" clip-rule="evenodd" d="M60.0369 62.6663V65.657H59.3603V64.429H58.0153V65.657H57.3303V62.6663H58.0153V63.8442H59.3603V62.6663H60.0369Z" fill="#4D709B"/>
<path fill-rule="evenodd" clip-rule="evenodd" d="M60.864 62.6663H61.5407V64.6128L62.9525 62.6663H63.5874V65.657H62.9191V63.7106L61.5073 65.657H60.864V62.6663Z" fill="#4D709B"/>
<path fill-rule="evenodd" clip-rule="evenodd" d="M64.4061 62.6663H65.0827V64.6128L66.4945 62.6663H67.1378V65.657H66.4611V63.7106L65.0493 65.657H64.4061V62.6663Z" fill="#4D709B"/>
</svg>
