<svg width="125" height="125" viewBox="0 0 125 125" fill="none" xmlns="http://www.w3.org/2000/svg">
<g clip-path="url(#clip0_32_643)">
<path fill-rule="evenodd" clip-rule="evenodd" d="M12.6681 55.145V58.8339H11.2143C9.37896 58.8339 7.89795 60.2968 7.89795 62.0958C7.89795 63.9039 9.37896 65.3576 11.2143 65.3576H12.6681V69.0466C15.9845 68.4196 18.4558 65.5575 18.4558 62.0958C18.4468 58.6704 15.9754 55.7992 12.6681 55.145Z" fill="#003791"/>
<path fill-rule="evenodd" clip-rule="evenodd" d="M11.2143 66.521C8.73379 66.521 6.72579 64.5403 6.72579 62.1052C6.72579 59.6702 8.73379 57.6894 11.2052 57.6894H11.4868V55H11.2143C7.2346 55 4 58.1892 4 62.1052C4 66.0485 7.2346 69.2377 11.2143 69.2377H11.4959V66.5301H11.2143V66.521ZM28.6411 64.5948C28.0596 65.0673 27.3237 65.3217 26.5786 65.3217C24.7705 65.3217 23.3168 63.8952 23.3168 62.1052C23.3168 60.3244 24.7705 58.8979 26.5786 58.8979C27.3691 58.8979 28.1232 59.1795 28.7138 59.6974L29.8587 58.5708C28.9592 57.753 27.7871 57.3078 26.5695 57.3169C23.871 57.3169 21.6995 59.4703 21.6995 62.1143C21.6995 64.7492 23.8619 66.939 26.5695 66.939C27.8143 66.939 28.941 66.4847 29.7769 65.7396L28.6411 64.5948ZM80.4948 57.6894L76.9058 61.9508L73.2896 57.6894L73.2623 57.744V57.6894H71.8086V66.5301H73.2623V60.0518L76.9058 64.3131L80.4948 60.1427V66.521H81.9213V57.6894H80.4948ZM40.671 62.1052C40.671 64.7674 38.4812 66.9026 35.8009 66.9026C33.1024 66.9026 30.9308 64.7402 30.9308 62.1052C30.9308 59.4703 33.1205 57.3078 35.8009 57.3078C38.4722 57.3078 40.671 59.4703 40.671 62.1052ZM39.0355 62.1052C39.0355 60.3244 37.5817 58.8979 35.7736 58.8979C33.9655 58.8979 32.5118 60.3244 32.5118 62.1052C32.5118 63.8861 33.9655 65.3217 35.7736 65.3217C37.5817 65.3217 39.0355 63.8861 39.0355 62.1052ZM70.3276 62.1052C70.3276 64.7674 68.1378 66.9026 65.4575 66.9026C62.759 66.9026 60.5874 64.7402 60.5874 62.1052C60.5874 59.4703 62.7771 57.3078 65.4575 57.3078C68.156 57.3078 70.3276 59.4703 70.3276 62.1052ZM68.7193 62.1052C68.7193 60.3244 67.2656 58.8979 65.4575 58.8979C63.6494 58.8979 62.1956 60.3244 62.1956 62.1052C62.1956 63.8861 63.6494 65.3217 65.4575 65.3217C67.2474 65.3217 68.7193 63.8861 68.7193 62.1052ZM60.5692 57.6894H58.6067L54.9087 61.4056H53.4004V57.6894H51.9739V66.5301H53.4004V62.8321H54.8814L58.5794 66.521H60.5147L56.1353 62.1234L60.5692 57.6894Z" fill="#FF4B5F"/>
<path fill-rule="evenodd" clip-rule="evenodd" d="M121 57.6893H119.065L115.348 61.4054H113.84V57.6893H112.414V66.5299H113.84V62.8319H115.348L119.019 66.5208H120.955L116.602 62.1232L121 57.6893ZM99.9114 66.5208H101.492L97.54 57.6802H95.9136L91.9612 66.5208H93.5421L94.4053 64.6128H99.0482L99.9114 66.5208ZM95.0413 63.2135L96.7222 59.4974L98.4031 63.2135H95.0413Z" fill="#003791"/>
<path fill-rule="evenodd" clip-rule="evenodd" d="M50.1477 63.9586C50.1477 63.2499 49.8569 62.5775 49.339 62.105C49.8206 61.6235 50.1477 60.9693 50.1477 60.2424C50.1477 58.825 48.9938 57.6802 47.5763 57.6802H42.3337V66.539H47.5763C48.9938 66.5208 50.1477 65.3669 50.1477 63.9586ZM43.7784 59.1158H47.5491C48.1851 59.1158 48.6939 59.6155 48.6939 60.2424C48.6939 60.8693 48.1851 61.3782 47.5491 61.3782H43.7784V59.1158ZM47.5491 65.1216H43.7784V62.8319H47.5763C48.2124 62.8319 48.7212 63.3589 48.7212 63.9586C48.6939 64.5946 48.1851 65.1216 47.5491 65.1216Z" fill="#FF4B5F"/>
<path fill-rule="evenodd" clip-rule="evenodd" d="M109.179 57.7076V61.3965H103.954V57.7076H102.501V66.4938H103.954V62.8321H109.179V66.4938H110.633V57.7076H109.179ZM91.4522 63.9588C91.4522 62.5504 90.2801 61.3965 88.8536 61.3965H85.0829V59.1159H90.589V57.6895H83.6292V66.5483H88.8536C90.2801 66.521 91.4522 65.3671 91.4522 63.9588ZM88.8445 65.1218H85.0738V62.8321H88.8445C89.4805 62.8321 89.9984 63.3591 89.9984 63.9588C89.9984 64.5948 89.4896 65.1218 88.8445 65.1218Z" fill="#003791"/>
</g>
<defs>
<clipPath id="clip0_32_643">
<rect width="117" height="14.2377" fill="white" transform="translate(4 55)"/>
</clipPath>
</defs>
</svg>
