<svg width="125" height="125" viewBox="0 0 125 125" fill="none" xmlns="http://www.w3.org/2000/svg">
<g clip-path="url(#clip0_83_1342)">
<path fill-rule="evenodd" clip-rule="evenodd" d="M16 57.3652V62.4316L29.584 60.9249V55.437L16 57.3652ZM95.2151 45.3119C88.4193 46.7639 85.0834 51.7991 85.4713 60.0038L92.7171 59.3558C92.3913 54.7188 93.7954 53.618 95.2229 53.0169L95.2151 45.3119ZM85.1687 72.9001V80.1055H108.551V72.1897L85.1687 72.9001ZM105.393 47.5524C107.379 49.4416 108.38 52.1192 108.14 54.8905C107.69 60.1365 105.161 64.3442 98.1165 71.2685L86.5884 71.6511C86.5884 71.6511 94.6178 64.3129 97.6433 60.722C99.5983 58.3956 100.428 55.8897 99.6293 54.2191C99.1173 53.1575 97.9769 52.6344 96.565 52.7125V45.1402C100.04 44.6406 103.221 45.4837 105.393 47.5524ZM54.2926 73.8447V80.1055H62.9581V73.5793L54.2926 73.8447ZM47.2097 52.9467V80.1055H53.1832V52.1036L47.2097 52.9467ZM72.9347 73.2748V80.1055H82.95V72.9703L72.9347 73.2748ZM72.9347 61.2528V68.2006L79.4978 67.8415V60.6907L72.9347 61.2528ZM72.9347 49.3011V56.1239L82.95 55.0154V47.8881L72.9347 49.3011ZM64.7812 50.4564V80.1055H71.6546V49.4806L64.7812 50.4564ZM37.6366 74.3443V80.0977H45.2082V74.1101L37.6366 74.3443ZM37.6366 64.3051V70.1444L42.6016 69.8712V63.8758L37.6366 64.3051ZM37.6366 54.2972V60.0272L45.2082 59.1919V53.2277L37.6366 54.2972ZM31.4226 55.1793V80.1055H36.6668V54.4377L31.4226 55.1793ZM20.3366 62.736L25.3094 62.2286V80.1055H20.3366V62.736Z" fill="#009291"/>
</g>
<defs>
<clipPath id="clip0_83_1342">
<rect width="125" height="125" fill="white"/>
</clipPath>
</defs>
</svg>
