<svg width="125" height="125" viewBox="0 0 125 125" fill="none" xmlns="http://www.w3.org/2000/svg">
<path fill-rule="evenodd" clip-rule="evenodd" d="M56.8475 93.238C57.3484 93.238 58.2234 93.0777 58.9113 91.9756C58.5239 91.1073 58.2501 89.3641 58.2033 88.7229C57.9963 85.4434 59.2586 82.3777 60.6346 82.3042C61.6431 82.2374 62.4446 83.1992 62.5381 84.7554C62.7919 88.8364 61.4361 90.5329 60.7481 91.9957C60.8617 92.5701 61.8235 93.5319 62.7385 93.5319C63.0791 93.5319 63.4732 93.3716 63.5868 93.2313C63.52 93.0042 63.4465 92.7037 63.4465 92.2428C63.4465 89.8851 64.956 87.888 66.2852 87.888C67.3405 87.888 67.9349 89.2639 67.9349 90.1789C67.9349 91.2543 67.0199 92.1293 65.6907 92.9775C65.9178 93.2046 66.3519 93.3916 66.746 93.3916C68.6696 93.3916 69.6782 91.0806 70.4129 88.9433C70.5531 88.5292 70.7802 87.9548 71.2611 87.9548C72.0626 87.9548 72.41 93.2714 73.7592 93.2714C74.3336 93.2714 74.8145 92.1025 74.8145 91.1875C74.8145 90.5263 74.5874 90.4528 74.5874 89.4709C74.5874 88.3956 75.1618 87.4805 75.9366 87.4805C76.4175 87.4805 76.5778 87.9414 76.5778 88.5091C76.5778 90.6598 75.0215 94.674 72.7306 94.674C71.014 94.674 71.1476 91.7151 70.5331 91.7151C69.8452 91.7151 68.9034 94.7141 65.5838 94.7141C65.0361 94.7141 64.4617 94.4403 64.0009 93.9126C63.1994 94.4603 62.5114 94.6941 61.7299 94.6941C60.4943 94.6941 59.9399 93.4117 59.439 93.4117C58.8445 93.4117 58.1566 94.7208 56.1395 94.7208C54.5098 94.7208 54.2626 92.5701 53.6882 92.5701C53.1873 92.5701 52.4058 94.7208 51.5576 94.7208C50.1349 94.7208 49.841 90.9871 48.5987 90.9871C47.6102 90.9871 44.5444 94.7943 43.6962 94.7007C43.3555 94.654 43.2153 94.4002 43.262 94.0796C43.3088 93.6187 43.7229 92.363 43.8832 91.7619C44.157 90.7333 44.4108 89.6045 44.5444 89.2639C44.6847 88.8965 45.0454 88.6427 45.3459 88.6694C45.5062 88.6895 45.553 88.97 45.5997 89.1971C45.76 90.0253 46.0138 90.8669 46.261 90.8669C46.7419 90.8669 48.2981 87.8679 49.2198 87.8679C50.3419 87.8679 50.4555 92.5901 51.9917 92.5901C52.4926 92.5901 52.86 91.9957 53.2073 91.2409C53.2274 90.0053 53.5747 88.2153 54.5832 88.2153C55.2912 88.2153 55.6385 89.7982 55.1109 91.1741C55.0641 92.8239 56.1395 93.238 56.8475 93.238ZM83.798 89.1771C83.3838 90.9203 82.1282 93.4651 80.2246 93.4651C79.7904 93.4651 79.009 93.3048 79.009 92.8439C79.009 92.363 81.9679 92.3163 81.9679 90.0454C81.9679 89.1971 81.1864 88.0282 80.0443 88.0282C78.5348 88.0282 77.0453 89.678 77.0453 91.969C77.0453 94.0328 78.3277 94.6941 79.5901 94.6941C81.8142 94.6941 83.1634 92.884 83.8781 91.3478C84.2187 92.3563 84.4058 94.6941 85.254 94.6941C85.5947 94.6941 85.8284 94.5338 86.2425 93.6187C87.2511 91.3478 88.2329 88.7629 89.5888 88.7629C90.0897 88.7629 89.7959 89.678 91.0115 89.678C91.5859 89.678 92 89.1971 92 88.6694C92 87.888 91.292 87.2935 90.21 87.2935C87.0507 87.2935 86.3628 92.0357 85.8551 92.0357C85.0069 92.0357 85.2807 88.2286 84.6863 88.2286C84.1186 88.242 83.8648 88.8832 83.798 89.1771ZM61.4294 85.6505C61.3626 84.7087 61.1555 84.2745 60.6279 84.3213C59.9666 84.3681 59.6394 86.4787 59.7796 88.6962C59.8731 90.1389 60.0802 90.366 60.2806 90.3459C60.6746 90.3259 61.5696 87.7344 61.4294 85.6505ZM55.9525 83.6534C55.9057 83.1057 55.4716 82.7383 54.8971 82.7383C54.2559 82.7383 53.6615 83.3996 53.7283 84.2478C53.775 84.7955 54.0956 85.2564 54.7368 85.2564C55.4983 85.2831 56.0259 84.4348 55.9525 83.6534ZM66.4521 90.5329C66.4521 89.9585 66.1516 89.4776 65.7909 89.4776C65.4903 89.4776 64.7823 89.8183 64.7823 90.9003C64.7823 91.7485 65.0829 92.1359 65.2165 92.323C66.1783 92.0224 66.4521 91.2209 66.4521 90.5329ZM79.6034 89.3841C80.3114 89.3841 80.5185 90.2324 80.3381 90.7333C80.1778 91.2342 79.5567 91.8087 78.6216 91.969C78.4346 91.468 78.321 89.3841 79.6034 89.3841ZM40.8108 86.9996C40.7173 86.6991 40.4434 86.0111 40.3499 85.4902C40.1896 84.3681 40.764 83.6333 41.3117 83.453C41.9061 83.2927 42.16 83.5933 42.387 84.3013C42.6876 85.3766 42.7277 86.7993 42.6141 88.8164C42.4739 91.5882 41.1046 94.9145 37.6649 94.841C34.706 94.7742 33.3768 92.8506 33.2432 89.9118C33.1765 88.5359 33.2633 87.1399 33.8377 85.1896C34.1383 84.1343 34.4121 83.7669 35.3472 83.5599C36.0819 83.4196 36.0084 84.2011 35.8481 85.1161C35.4808 87.1332 35.3004 88.1151 35.434 90.4127C35.5743 92.8439 36.6697 93.779 37.8853 93.779C39.6953 93.8258 40.5236 92.2896 40.8442 90.1121C41.1982 88.3756 40.9911 87.5273 40.8108 86.9996Z" fill="#009291"/>
<path fill-rule="evenodd" clip-rule="evenodd" d="M80.5452 43.1641C80.7723 44.8606 83.3438 47.1516 84.0518 47.1048C84.5127 47.0581 84.693 44.8807 84.693 43.1641C84.693 42.1756 84.7398 41.4208 84.2321 41.2405C83.4106 42.9103 81.2532 43.2309 80.5452 43.1641ZM80.7055 42.4294C79.9975 42.4294 79.5166 42.2023 79.5166 41.7214C79.5166 41.5144 79.697 41.1002 80.2981 41.1002C81.9278 41.1002 83.4173 39.9982 83.4173 39.0163C83.4173 38.7158 83.3505 38.6022 83.2369 38.4419C83.9717 38.5354 84.2655 39.0163 84.2655 39.6308C84.2589 40.9399 82.5623 42.4294 80.7055 42.4294ZM80.3115 40.3923C81.0462 40.3923 82.6492 39.7511 82.6492 38.9696C82.6492 38.7158 82.5356 38.4687 82.1482 38.4687C81.5538 38.4687 80.7723 39.0163 79.9708 39.0163C79.717 39.0163 79.3964 39.0163 79.1025 38.9228C79.4031 39.1499 79.3563 39.6776 79.5166 39.9982C79.697 40.3923 80.0643 40.3923 80.3115 40.3923Z" fill="#009291"/>
<path fill-rule="evenodd" clip-rule="evenodd" d="M40.3232 54.4185C40.9176 54.4185 40.8041 50.7049 41.7926 50.7049C42.0197 50.7049 42.0932 50.932 42.0932 51.2326C42.0932 52.0808 41.6791 53.3165 41.6791 53.9844C41.6791 54.325 41.7726 54.4453 41.9329 54.4453C42.367 54.4453 43.1017 50.3442 43.8364 50.3442C44.0635 50.3442 44.1771 50.5713 44.1771 50.8051C44.1771 51.6534 43.075 54.1247 43.075 54.8126C43.075 54.9262 43.1218 55.0197 43.1886 55.0197C43.6494 55.0197 44.5378 53.0961 44.8183 52.1343C44.9786 51.6333 45.1856 51.3528 45.3927 51.3528C45.573 51.3528 45.7333 51.5599 45.7333 51.974C45.7333 52.9358 44.8383 55.2067 44.0635 56.7429C43.4691 57.8917 42.5273 59.5816 42.5273 60.55C42.5273 61.0309 42.6208 61.5386 43.3088 62.133C42.16 62.0662 41.7058 61.9527 41.2716 61.0577C39.3681 64.8648 44.7983 64.4974 42.9414 67.8637C42.6008 67.2693 39.9158 66.6281 39.9158 63.0948C39.9158 60.0491 42.5941 58.2591 42.5941 56.9767C42.5941 56.7229 42.5006 56.5158 42.2735 56.3154C41.6791 55.8145 41.6524 55.4004 41.1982 55.4004C40.8575 55.4004 40.4434 56.1818 40.8776 56.8898C41.0178 57.1169 41.1514 57.2572 41.1514 57.4843C41.1514 57.9852 40.3699 59.3144 39.8223 59.3144C39.2746 59.3144 38.8337 57.9385 38.8337 55.7143C38.8337 53.7439 39.2679 51.7736 39.8423 51.7736C40.0026 51.7736 40.0494 51.8871 40.0494 52.0274C40.0494 52.2545 39.9826 52.7154 39.9826 53.5169C39.9625 54.3451 40.1429 54.4185 40.3232 54.4185Z" fill="#009291"/>
<path fill-rule="evenodd" clip-rule="evenodd" d="M44.865 59.6618C45.6198 59.6618 46.2409 59.1141 46.2409 57.8717V56.0416C46.2409 55.3537 46.2877 54.5522 46.7686 54.0045C46.7218 54.2316 46.7218 54.4854 46.7218 54.7125C46.7218 56.2487 47.5701 57.304 47.5701 58.7935C47.5701 59.3412 47.4098 59.6417 46.9756 59.6417C46.5615 59.6417 46.6083 59.2744 46.5148 59.2744C46.448 59.2744 46.3344 59.5015 46.3344 59.7553C46.3344 60.1226 46.6083 60.7171 47.343 60.7171C47.9842 60.7171 48.5119 60.1226 48.5119 59.4547C48.5119 57.8517 47.2495 56.0617 47.2495 54.3451C47.2495 53.5904 47.4565 53.0828 47.6168 52.6954C47.6168 56.2487 50.6425 58.8335 50.6425 60.323C50.6425 60.6636 50.3887 60.9442 50.0213 60.9442C49.6072 60.9442 49.4002 60.6236 49.4002 60.3698C49.4002 60.2562 49.3801 60.2095 49.3334 60.2095C49.2198 60.2095 48.8992 60.5768 48.8992 61.0377C48.8992 61.6321 49.3801 62.3468 50.2752 62.3468C51.2837 62.3468 51.8581 61.4985 51.8581 60.7171C51.8581 58.8402 48.1913 55.9949 48.1913 52.9492C48.1913 52.4215 48.2848 51.6 48.6521 50.9588C46.2944 52.4683 45.5597 54.4854 45.5597 56.2754C45.5597 57.8116 45.5129 58.5931 44.7114 58.5931C44.2973 58.5931 44.1837 58.2257 44.0435 58.2257C43.9299 58.2257 43.8832 58.5463 43.8832 58.6398C43.9032 59.2744 44.3841 59.6618 44.865 59.6618Z" fill="#009291"/>
<path fill-rule="evenodd" clip-rule="evenodd" d="M75.8431 41.7882C76.6245 41.7882 77.219 41.4209 77.219 41.2138C77.219 41.147 77.1054 41.1003 76.8784 41.1003C76.6513 41.1003 76.1904 41.0802 75.2954 40.94C74.5406 40.8264 73.9662 40.5259 73.7592 40.5259C73.6924 40.5259 73.6456 40.5726 73.6456 40.6194C73.6657 41.0803 74.5406 41.7882 75.8431 41.7882ZM71.9491 39.524C72.1762 39.3637 73.1848 39.6175 74.4939 38.9763C74.6542 38.8828 74.8145 38.8628 74.9547 38.8628C75.5759 38.8628 75.4156 39.5708 75.9833 39.5708C76.4175 39.5708 76.9919 39.2034 77.3325 39.2034C77.8602 39.2034 78.6417 40.8732 78.6417 41.6814C78.6417 42.5964 77.2657 43.1508 75.6427 43.1508C73.2582 43.1508 71.8356 41.0869 71.8356 39.7377C71.8556 39.5908 71.9024 39.5641 71.9491 39.524Z" fill="#009291"/>
<path fill-rule="evenodd" clip-rule="evenodd" d="M45.2524 66.401C44.658 66.5413 43.7162 67.4764 43.7162 68.9458C43.7162 70.689 45.593 73.3941 48.6855 73.3941C51.2971 73.3941 51.9383 71.5841 51.9383 70.3684C51.9383 67.6634 50.2885 65.7598 48.1111 65.7598C46.9422 65.7598 45.8669 66.6081 45.8669 67.8905C45.8669 69.0794 46.7619 70.8493 48.8926 70.8493C49.9011 70.8493 50.4755 70.1414 50.4755 69.3131C50.4755 68.5116 49.7408 67.4096 48.6655 67.4096C48.3449 67.4096 48.1178 67.6166 48.1178 67.9573C48.1178 68.3914 48.7122 68.8055 49.4469 68.8055C49.6273 68.8055 49.7675 68.7588 49.8343 68.7387C49.8811 68.7855 49.8811 68.879 49.8811 68.9458C49.8811 69.3599 49.4937 69.607 48.8725 69.607C47.9575 69.607 47.0825 68.9191 47.0825 67.8437C47.0825 67.2025 47.6302 66.7417 48.4317 66.7417C50.0147 66.7417 50.9765 68.1643 50.9765 69.5603C50.9765 70.8226 50.2885 71.5507 48.8458 71.5507C46.0072 71.5774 44.6312 69.0126 45.2524 66.401Z" fill="#009291"/>
<path fill-rule="evenodd" clip-rule="evenodd" d="M64.2747 73.3006C64.2747 73.688 64.5954 74.0086 64.9827 74.0086C65.3701 74.0086 65.6907 73.688 65.6907 73.3006C65.6907 72.9132 65.3701 72.5926 64.9827 72.5926C64.5954 72.5859 64.2747 72.9065 64.2747 73.3006ZM65.6507 76.874C66.4989 76.874 66.4522 76.8072 66.726 76.8072C66.9999 76.8072 66.9999 76.9675 66.9999 77.081C66.9999 77.4684 66.1316 77.9493 64.5686 77.9493C63.6536 77.9493 63.0992 77.4684 62.9389 76.9207C62.0439 77.4951 60.6947 78.0228 59.3388 78.0228C55.672 78.0228 54.7569 76.4398 53.6081 75.9122C52.7398 75.5248 51.3839 76.2795 49.5071 74.1956C49.7609 74.2424 50.1015 74.2624 50.3553 74.2624C52.0051 74.2624 52.8734 73.4609 52.8734 72.1785C52.8734 72.0182 52.8533 71.8379 52.8266 71.6776C53.3276 71.8846 54.4764 72.7329 54.7502 74.2424C54.797 74.4227 55.5317 74.583 55.9859 74.583C56.6271 74.583 57.4553 74.3092 57.5689 73.2539C59.7196 73.0735 61.1689 71.8111 61.4628 70.2081C62.2176 70.462 63.1126 71.1499 63.3196 71.5173C63.6202 71.4037 63.9875 71.357 64.395 71.357C64.9694 71.357 65.6106 71.4705 66.3854 71.6976C66.4321 71.4705 66.4522 71.1699 66.8195 71.1699C67.3472 71.1699 67.2069 71.7644 67.3939 72.1117C67.4874 72.292 67.9216 72.3856 67.9216 72.7529C67.9216 73.0936 67.621 73.2138 67.4607 73.2138C67.3939 73.2138 67.3004 73.1937 67.2537 73.167C66.8863 73.2806 66.8863 75.8721 65.3768 75.8721C64.2748 75.8721 63.2462 74.957 62.812 73.8082C62.6985 73.4676 62.4246 73.2605 62.1708 73.2605C61.897 73.2605 61.7367 73.3073 61.3893 73.6947C60.4275 74.75 58.8245 75.665 56.8275 75.665C56.2063 75.665 55.7254 75.6183 55.6119 75.6183C55.5451 75.6183 55.5451 75.6383 55.5451 75.665C55.5451 75.7786 56.1662 76.2862 57.4687 76.2862C60.6079 76.2862 61.3893 74.5229 61.8903 74.5229C61.9571 74.5229 62.1641 74.5229 62.3044 74.7967C63.0591 76.4866 64.6621 76.874 65.6507 76.874Z" fill="#009291"/>
<path fill-rule="evenodd" clip-rule="evenodd" d="M76.4842 65.486C76.1169 65.486 74.033 68.2578 72.7038 68.2578C72.3832 68.2578 72.1094 67.6367 72.1094 67.1825C72.1094 66.9287 72.2697 66.7483 72.8441 66.6348C75.9165 65.9468 75.2286 63.6359 77.8601 63.6359C79.3029 63.6359 80.9059 64.6244 80.9059 66.8419C80.9059 69.1996 77.5395 72.1384 77.0586 72.1384C76.6445 72.1384 76.2104 71.544 76.2104 71.1499C76.2104 71.0364 76.2571 70.8761 76.6245 70.7158C78.341 70.0278 79.3296 68.4716 79.3296 67.6701C79.3296 67.4897 79.2361 67.3027 79.009 67.3027C78.7084 67.3027 77.406 70.2616 75.9633 70.2616C74.9547 70.2616 73.9461 69.3466 73.9461 68.9324C73.9461 68.2244 76.8316 66.8953 76.8316 65.8867C76.8048 65.506 76.6445 65.486 76.4842 65.486ZM78.4346 64.3839C78.1808 64.3839 77.9069 64.591 77.9069 65.0719C77.9069 65.5995 78.321 65.9402 78.5481 66.0604C78.6617 66.1272 78.8687 66.2007 79.0758 66.2007C79.6034 66.2007 80.0175 66.0604 80.0175 65.6262C79.9908 65.0518 79.1893 64.3839 78.4346 64.3839Z" fill="#009291"/>
<path fill-rule="evenodd" clip-rule="evenodd" d="M45.0253 43.6718C45.0253 44.0592 45.3459 44.3798 45.7333 44.3798C46.1207 44.3798 46.4413 44.0592 46.4413 43.6718C46.4413 43.2844 46.1207 42.9638 45.7333 42.9638C45.366 42.9571 45.0253 43.2777 45.0253 43.6718ZM44.1103 42.0621C44.1103 42.4495 44.4309 42.7701 44.8183 42.7701C45.2057 42.7701 45.5263 42.4495 45.5263 42.0621C45.5263 41.6747 45.2057 41.3541 44.8183 41.3541C44.4309 41.3541 44.1103 41.6747 44.1103 42.0621ZM43.4624 46.9713C43.0483 47.0848 42.2001 47.5925 42.2001 48.4808C42.2001 49.122 42.701 49.5361 43.3222 49.5361C43.6428 49.5361 43.8698 49.4693 44.0101 49.3558C43.5092 48.8749 43.3222 48.3472 43.3222 47.7995C43.3288 47.4054 43.3956 47.1717 43.4624 46.9713ZM39.0876 47.2184C39.0675 47.3119 39.0675 47.3988 39.0675 47.4923C39.0675 48.3405 39.5017 48.8014 40.0961 48.8014C40.5303 48.8014 41.0579 48.5275 41.5188 47.9531C41.3117 47.9999 41.0846 47.9999 40.8776 47.9999C40.2364 47.9799 39.5017 47.7928 39.0876 47.2184ZM38.4464 48.8014C38.994 49.6229 39.5017 49.8767 40.1161 49.8767C40.597 49.8767 41.1447 49.7632 41.8327 49.6029C40.9177 50.3844 40.1629 50.7918 39.5885 50.7918C38.8605 50.7985 38.4464 50.1573 38.4464 48.8014ZM43.075 41.6547C43.1685 41.3808 43.2353 41.0135 43.2353 40.6261C43.2353 39.7778 42.8479 38.4754 41.6323 38.4754C40.9444 38.4754 40.4434 39.0231 40.4434 39.691C40.4434 41.0803 41.8594 41.6547 43.075 41.6547ZM41.5655 46.1698C40.9711 46.1698 40.3299 45.4351 40.3299 44.7738C40.3299 44.4065 40.6037 43.9723 40.7907 43.9723C40.8575 43.9723 40.9043 44.0191 40.9043 44.1527C41.0178 45.021 41.5922 45.5286 42.1199 45.7824C42.1667 45.8292 42.2134 45.8292 42.2134 45.8759C42.2268 45.9828 41.8861 46.1698 41.5655 46.1698ZM43.2153 43.9657C43.0082 43.7119 43.0082 43.3445 42.8479 43.2577C42.7544 43.2109 42.6876 43.1909 42.5741 43.1909C42.3203 43.1909 42.1132 43.2109 42.1132 43.5582C42.1132 44.1059 42.6142 45.0477 43.2353 45.0477C43.5359 45.0477 43.6695 44.7271 43.6695 44.4733C43.6695 44.333 43.3288 44.126 43.2153 43.9657ZM39.0208 46.1898C39.2479 45.7757 39.0408 44.1527 40.6238 43.1441C41.4052 42.6432 42.0932 42.5697 42.6876 42.5697C42.8279 42.5697 42.9615 42.5697 43.075 42.5898C43.3956 42.6098 43.6494 42.6098 43.7363 42.7033C43.8765 42.8436 43.783 43.1174 44.0101 43.438C44.2372 43.7586 44.511 43.7119 44.511 44.0592C44.511 44.313 44.0101 45.916 42.721 46.5572C42.0999 46.8778 41.619 46.9913 41.2115 46.9913C40.5236 46.9913 40.0427 46.6908 39.6085 46.6908C39.5417 46.6908 39.4482 46.7375 39.308 46.7375C39.1477 46.7375 38.9673 46.5572 38.9673 46.3969C38.974 46.3034 38.994 46.2366 39.0208 46.1898ZM44.9586 45.4818C44.5712 45.9427 44.1571 46.7442 44.1571 47.5457C44.1571 48.5075 44.7515 49.309 45.6665 49.309C46.5348 49.309 46.949 48.5543 46.949 47.7995C46.9289 46.5772 45.8469 45.7557 44.9586 45.4818ZM41.1314 42.0421C41.1314 42.0421 40.6037 42.4295 39.9625 42.4295C39.1811 42.4295 38.5866 41.855 38.5866 41.0535C38.5866 40.5059 38.8605 39.9314 39.5284 39.6309C39.5083 39.7444 39.5083 39.8379 39.5083 39.9314C39.5017 40.9667 40.0761 41.7415 41.1314 42.0421Z" fill="#009291"/>
<path fill-rule="evenodd" clip-rule="evenodd" d="M72.6371 47.9798C72.6371 48.3939 72.9777 48.7346 73.3918 48.7346C73.8059 48.7346 74.1466 48.3939 74.1466 47.9798C74.1466 47.5657 73.8059 47.2251 73.3918 47.2251C72.9844 47.2184 72.6371 47.5657 72.6371 47.9798ZM72.6838 50.224C72.6838 50.6849 73.0512 51.0723 73.5321 51.0723C73.9929 51.0723 74.3803 50.7049 74.3803 50.224C74.3803 49.7632 74.013 49.3758 73.5321 49.3758C73.0712 49.3958 72.6838 49.7632 72.6838 50.224ZM70.119 51.7602C70.119 52.4482 70.6667 52.9959 71.3547 52.9959C72.0426 52.9959 72.5903 52.4482 72.5903 51.7602C72.5903 51.0723 72.0426 50.5246 71.3547 50.5246C70.6667 50.5246 70.119 51.0723 70.119 51.7602ZM70.7802 49.2355C70.7802 49.6229 71.1008 49.9435 71.4882 49.9435C71.8756 49.9435 72.1962 49.6229 72.1962 49.2355C72.1962 48.8481 71.8756 48.5275 71.4882 48.5275C71.1008 48.5275 70.7802 48.8481 70.7802 49.2355ZM68.4425 50.6582C68.4425 51.0456 68.7631 51.3662 69.1505 51.3662C69.5379 51.3662 69.8585 51.0456 69.8585 50.6582C69.8585 50.2708 69.5379 49.9502 69.1505 49.9502C68.7631 49.9502 68.4425 50.2708 68.4425 50.6582ZM70.2793 46.4904C70.2793 47.1115 70.807 47.6392 71.4281 47.6392C72.0493 47.6392 72.5769 47.1115 72.5769 46.4904C72.5769 45.8692 72.0493 45.3416 71.4281 45.3416C70.807 45.3416 70.2793 45.8425 70.2793 46.4904ZM71.6085 44.2862C71.6085 44.6536 71.909 44.9742 72.2964 44.9742C72.6638 44.9742 72.9844 44.6736 72.9844 44.2862C72.9844 43.9189 72.6838 43.5983 72.2964 43.5983C71.9291 43.5983 71.6085 43.8989 71.6085 44.2862ZM68.3757 46.0095C68.3757 46.3768 68.6763 46.6974 69.037 46.6974C69.4043 46.6974 69.7249 46.3969 69.7249 46.0095C69.7249 45.6421 69.4244 45.3215 69.037 45.3215C68.6963 45.3215 68.3757 45.6154 68.3757 46.0095ZM68.2822 48.3205C68.2822 47.6993 68.7631 47.2184 69.3576 47.2184C69.9787 47.2184 70.4596 47.6993 70.4596 48.3205C70.4596 48.9416 69.9787 49.4225 69.3576 49.4225C68.7631 49.4225 68.2822 48.9416 68.2822 48.3205ZM66.038 49.4693C66.038 50.017 66.4989 50.4778 67.0466 50.4778C67.5943 50.4778 68.0551 50.017 68.0551 49.4693C68.0551 48.9216 67.5943 48.4607 67.0466 48.4607C66.4989 48.434 66.038 48.9149 66.038 49.4693ZM66.6592 46.9446C66.6592 47.3319 66.9798 47.6526 67.3672 47.6526C67.7546 47.6526 68.0752 47.3319 68.0752 46.9446C68.0752 46.5572 67.7546 46.2366 67.3672 46.2366C66.9798 46.2366 66.6592 46.5572 66.6592 46.9446ZM72.9109 52.4482C72.9109 52.0808 73.2315 51.787 73.5721 51.787C73.9595 51.787 74.2601 52.0875 74.2601 52.4482C74.2601 52.8623 73.9595 53.1362 73.5721 53.1362C73.2582 53.1562 72.9109 52.8556 72.9109 52.4482Z" fill="#009291"/>
<path fill-rule="evenodd" clip-rule="evenodd" d="M73.3918 73.0001C73.4853 73.0001 73.5989 73.0468 73.5989 73.3674C73.5989 73.7548 73.4185 74.2825 72.7707 74.6966C72.3098 74.9971 71.7154 75.2443 70.8203 75.271C70.9606 74.8368 71.0742 74.4027 71.0742 73.9619C71.0742 73.8216 71.0541 73.7081 71.0274 73.5478H71.2612C72.6838 73.5745 73.2783 73.0001 73.3918 73.0001ZM73.5321 71.2368C73.6723 71.1232 73.7124 70.9162 73.7124 70.7091V70.295C73.7124 69.7673 72.931 69.4668 71.8556 69.4668C70.5465 69.4668 69.8652 70.0612 69.8652 70.315V71.1433C69.8652 71.4839 70.6467 71.8312 71.6285 71.8312C72.3632 71.8312 73.0712 71.6242 73.5321 71.2368ZM74.4471 71.4438C73.9863 71.8112 72.8909 72.6127 71.0808 72.6127C70.119 72.6127 69.6849 72.3121 69.5446 72.3121C69.3643 72.3121 69.1773 72.4924 68.9702 72.7262C68.5361 73.2272 67.9817 74.1489 67.9817 75.1775C67.9817 75.8855 68.5294 76.6001 69.5647 76.6001C72.9109 76.6001 75.4089 74.5162 75.4089 72.8197C75.4357 71.8312 74.8613 71.4438 74.4471 71.4438Z" fill="#009291"/>
<path fill-rule="evenodd" clip-rule="evenodd" d="M75.0883 56.4089C75.0883 56.8431 75.2286 57.3707 75.6828 57.3707C76.0501 57.3707 76.3707 56.7963 76.3707 56.1818C76.3707 55.4738 76.2572 54.9195 76.2572 54.6256C76.2572 54.512 76.3039 54.4453 76.3707 54.4453C76.6446 54.4653 76.8984 55.2 77.1722 55.2C77.4928 55.2 77.9737 54.6056 78.1808 54.6056C78.2275 54.6056 78.2476 54.6723 78.2476 54.6991C78.2476 54.9729 77.8335 55.5674 77.8335 55.8011C77.8335 56.0082 78.8621 56.0282 78.8621 56.2152C78.8621 56.4891 77.7867 56.4891 77.2591 56.7162C76.7581 56.9232 76.4576 57.1971 76.4576 57.5644C76.4576 57.9318 76.8249 57.9986 77.3259 57.9986C78.5147 57.9986 79.363 57.3574 79.6168 57.3574C79.6636 57.3574 79.7103 57.4041 79.7103 57.4509C79.7103 57.6312 79.0892 58.2323 79.0892 58.4795C79.0892 58.78 80.1912 59.1407 80.1912 59.3277C80.1712 59.3745 80.0977 59.3945 79.9842 59.3945C79.7771 59.3945 79.4832 59.3478 79.2495 59.3478C79.1092 59.3478 78.9756 59.3678 78.9289 59.4413C78.8153 59.5815 78.9756 60.5433 78.7218 60.5433C78.4947 60.5433 77.8735 58.4327 76.4976 58.4327C76.2906 58.4327 76.157 58.593 76.157 58.8669C76.157 59.5749 76.845 60.4031 77.5062 60.7905C77.8068 60.9975 78.3077 61.1779 78.3077 61.2914C78.3077 61.4985 77.1589 61.3114 77.1589 61.6588C77.1589 61.9794 77.2991 62.4603 77.2991 62.7608C77.2991 62.8543 77.2791 62.9679 77.1856 62.9679C76.9785 62.9679 76.4509 61.9794 76.1971 61.9794C75.99 61.9794 75.5091 62.5738 75.3288 62.5738C75.282 62.5738 75.2353 62.5271 75.2353 62.4603C75.2353 62.0462 75.8965 61.1111 75.8965 60.2161C75.8965 59.7819 75.8498 58.8669 75.3221 58.8669C74.888 58.8669 74.407 59.5548 74.2 60.2161C74.0864 60.6035 74.1532 62.1196 73.8794 62.1196C73.6055 62.1196 73.6723 61.1111 73.3317 61.1111C73.0579 61.1111 72.5035 61.592 72.3031 61.592C72.2564 61.592 72.2363 61.5719 72.2363 61.5452C72.2363 61.3382 72.764 60.6302 72.764 60.4899C72.764 60.2161 71.5751 60.1893 71.5751 59.9623C71.5751 59.8487 72.0359 59.7552 72.4701 59.6884C73.3851 59.5281 74.7143 58.8669 74.7143 57.9451C74.7143 56.9165 73.7057 56.4557 73.0645 56.0416C72.7239 55.8345 72.3565 55.6542 72.3565 55.5139C72.3565 55.3737 72.7907 55.3737 72.9777 55.3737C73.2516 55.3737 73.5054 55.3536 73.5054 55.1466C73.5054 54.9863 73.4586 54.6657 73.4586 54.4119C73.4586 54.2315 73.4786 54.0913 73.5521 54.0913C73.826 54.0913 74.1933 54.9595 74.3803 54.9595C74.6542 54.9595 75.0683 54.2516 75.3221 54.2516C75.4156 54.2516 75.4356 54.2983 75.4356 54.4586C75.4356 55.013 75.0883 55.7477 75.0883 56.4089ZM66.5657 51.1591C66.0848 52.0541 65.9045 52.6953 65.8777 53.1962C65.8777 55.0998 68.4893 54.9128 68.4893 56.2687C68.4893 56.5893 68.2355 56.7963 68.0084 56.7963C67.5743 56.7963 67.2537 55.8546 66.5857 55.8546C66.2184 55.8546 65.9646 56.1284 65.9646 56.6561C65.9646 57.0702 66.0581 57.3908 66.0581 57.7581C66.0581 58.5396 65.7375 58.9069 65.3701 59.2476C67.7078 59.0405 67.8882 57.2973 68.5561 57.2973C68.7631 57.2973 68.8299 57.4375 68.8299 57.5244C68.8299 57.8249 68.329 58.3259 68.329 58.8335C68.329 59.4747 69.0637 59.842 69.5446 59.842C70.119 59.842 70.3261 59.635 70.3261 59.2676C70.3261 58.8335 69.5446 58.239 69.5446 57.7581C69.5446 57.5043 69.7984 57.4576 70.1391 57.4576C70.8471 57.4576 71.1276 57.5711 71.1276 57.7314C71.1276 57.9385 70.827 58.3259 70.827 58.4394C70.827 58.5329 70.8471 58.6465 71.0341 58.6465C71.6285 58.6465 73.6723 58.2323 73.6723 57.8182C73.6723 57.3574 71.7487 55.8946 71.3547 55.8946C71.2612 55.8946 71.2144 55.9614 71.2144 56.0349C71.2144 56.1752 71.2612 56.3555 71.2612 56.5358C71.2612 56.8564 71.1209 56.9032 70.7602 56.9032C70.3461 56.9032 69.7316 56.7429 69.7316 56.1217C69.7316 54.8861 72.0894 55.18 72.3231 54.0378C71.2946 54.0378 70.7869 53.3499 70.099 53.3499C69.8452 53.3499 69.391 53.5102 69.391 54.1313C69.391 54.3384 69.4578 54.7057 69.4578 54.9796C69.4578 55.2801 69.391 55.4805 69.0904 55.4805C68.7899 55.4805 68.7498 55.1399 68.7498 54.7458C68.7498 54.4052 68.8166 54.0111 68.8166 53.7373C68.8099 51.9205 66.7728 52.6753 66.5657 51.1591Z" fill="#009291"/>
<path fill-rule="evenodd" clip-rule="evenodd" d="M69.9587 62.7809C69.9587 63.0347 70.1391 63.2151 70.3929 63.2151C70.6667 63.2151 70.8538 62.9612 70.8538 62.6874C70.8538 62.32 70.5131 61.7924 70.1925 61.7924C70.0523 61.7924 70.099 61.9994 70.079 62.2533C70.0456 62.4136 69.9587 62.6406 69.9587 62.7809ZM69.017 60.3964C70.8938 60.7638 71.9024 62.1597 71.9024 63.4889C71.9024 64.4039 71.328 65.2322 70.3194 65.2322C69.4044 65.2322 68.7365 64.611 68.7365 63.6024C68.7365 62.8477 69.3309 62.0662 69.3309 61.2848C69.3576 61.0176 69.2708 60.717 69.017 60.3964ZM66.6592 63.4421C66.8396 63.6225 66.8863 63.8095 66.8863 63.9698C66.8863 64.2436 66.7728 64.5175 66.7728 64.8181C66.7728 65.2522 67.0934 65.6196 67.5542 65.6196C68.0552 65.6196 68.4025 65.2322 68.4025 64.7713C68.3758 64.1101 67.6878 63.4421 66.6592 63.4421ZM72.5703 62.3C72.6839 62.5071 72.7506 62.6874 72.7506 62.8744C72.7506 63.3754 72.41 63.8362 72.41 64.3639C72.41 64.9583 72.8709 65.4392 73.5321 65.4392C74.2668 65.4392 74.7678 64.8448 74.7678 64.1568C74.7678 63.195 73.8995 62.3935 72.5703 62.3ZM67.0667 61.3582C67.8949 61.4718 68.0953 61.7456 68.0953 61.9794C68.0953 62.3668 67.7279 62.5071 67.3873 62.5071C67.1335 62.5071 66.8596 62.4603 66.539 62.4603C66.1516 62.4603 65.7575 62.5538 65.4369 62.9212C65.664 62.9679 66.0114 63.1282 66.0114 63.4689C66.0114 64.4975 63.126 63.6492 63.126 66.3075C63.126 67.7302 64.5954 69.2664 66.8129 69.2664C67.9617 69.2664 68.6897 68.899 68.6897 68.4649C68.6897 68.1242 68.0685 68.3513 68.0685 68.0775C68.0685 67.964 68.2756 67.7101 68.2756 67.5298C68.2756 67.4363 68.2088 67.276 68.0685 67.276C67.7479 67.276 67.1268 67.8037 65.9112 67.8037C64.9494 67.8037 64.0076 67.256 64.0076 66.4945C64.0076 66.3342 64.0744 66.2407 64.1879 66.2407C64.3015 66.2407 64.4417 66.3075 64.5553 66.3075C64.6688 66.3075 64.6688 66.2407 64.6688 66.0337C64.6688 65.8266 64.6688 65.2789 65.0095 65.2789C65.3501 65.2789 65.998 66.5413 68.4693 66.5413C69.2975 66.5413 70.8738 66.381 71.4682 65.8533C71.4482 67.8237 69.912 70.4152 66.6993 70.4152C63.353 70.4152 61.5697 67.7369 61.5697 65.2589C61.5697 62.5338 63.7939 60.0358 66.8663 60.0358C67.6477 60.0358 68.309 60.3096 68.309 60.6302C68.329 61.0844 67.1602 60.7838 67.0667 61.3582Z" fill="#009291"/>
<path fill-rule="evenodd" clip-rule="evenodd" d="M55.5183 40.94C56.6872 40.94 57.2349 41.9485 57.2349 43.0907C57.2349 43.5916 57.0946 44.3263 56.8675 44.3263C56.6404 44.3263 56.6605 43.9122 56.6404 43.5449C56.5937 43.064 56.5269 42.9504 56.3666 42.9504C56.066 42.9504 55.8656 43.6584 55.8656 44.3263C55.8656 44.7404 55.9324 45.1946 56.253 45.1946C56.4334 45.1946 56.5937 45.1011 56.7139 44.9876C56.6471 45.8158 56.0259 46.5238 55.1777 46.5238C53.5947 46.5238 53.027 44.6937 52.84 43.6116C51.8982 44.6202 51.0099 45.3549 49.4469 45.3549C47.9775 45.3549 47.3163 44.2796 47.3163 43.271C47.3163 42.9704 47.4298 42.1689 47.7972 42.1689C48.2313 42.1689 47.8439 43.6384 48.739 43.6384C48.946 43.6384 49.3601 43.458 49.5672 42.8569C49.6807 42.4895 49.7742 42.1222 49.7742 41.8016C49.7742 41.3207 49.6607 41.0201 49.3134 41.0201C49.0128 41.0201 48.6254 41.2472 48.5119 41.3875C48.946 40.1051 49.9813 39.4372 51.1234 39.4372C52.5461 39.4372 53.2741 40.6995 53.2741 42.0754C53.2741 42.2825 53.2541 42.4895 53.2274 42.6966C53.755 41.7014 54.6033 40.94 55.5183 40.94ZM54.1424 43.0506C54.1424 42.75 54.0756 42.6832 54.0021 42.6832C53.8218 42.6832 53.6348 42.8903 53.3409 43.3712C53.3877 44.0124 53.4812 44.313 53.6615 44.313C53.8485 44.2862 54.1424 43.6718 54.1424 43.0506ZM51.6911 43.7853C51.8982 43.7853 52.152 43.5782 52.6062 43.0506C52.653 42.8235 52.653 42.5897 52.653 42.3426C52.653 41.9752 52.5127 41.5879 52.2856 41.5879C51.7579 41.5879 51.4841 43.0105 51.4841 43.3979C51.4641 43.5983 51.5776 43.7853 51.6911 43.7853ZM54.6033 45.3616C55.0374 45.3616 55.545 43.645 55.545 42.563C55.545 42.3359 55.4983 42.0821 55.4048 42.0821C55.0374 42.0821 54.3962 43.8454 54.3962 44.8072C54.3962 45.2013 54.4897 45.3616 54.6033 45.3616ZM50.2284 44.3797C50.8496 44.3797 51.5375 41.0802 51.5375 40.5325C51.5375 40.3923 51.4908 40.2787 51.3572 40.2787C50.8095 40.2787 50.028 43.4179 50.028 44.1059C50.0214 44.2395 50.0681 44.3797 50.2284 44.3797Z" fill="#009291"/>
<path fill-rule="evenodd" clip-rule="evenodd" d="M52.1721 45.7557C51.3906 45.7557 51.3706 46.6975 51.3706 48.5543C50.7961 47.3186 49.8611 45.9895 48.7323 45.9895C47.9775 45.9895 47.7037 46.4904 47.7037 47.3654C47.7037 47.5457 47.7237 47.8262 47.7504 47.9865C47.8439 47.686 48.1178 47.5524 48.4851 47.5524C49.2666 47.5524 50.1817 48.1468 50.8028 48.9483C50.1149 48.8348 49.4269 48.6945 48.8525 48.6945C48.4851 48.6945 48.1645 48.7413 47.9107 48.8548C47.3831 49.0819 46.6951 49.8634 46.6951 51.0055C46.6951 51.1859 46.7152 51.3729 46.7419 51.6C47.363 50.204 49.0328 49.5829 50.1082 49.5829C50.3152 49.5829 50.4755 49.6029 50.6091 49.6296C50.0614 50.1306 49.9212 51.0055 49.9011 51.6C49.8811 51.8738 49.7876 51.9005 49.5805 51.9005C49.5805 52.495 50.0414 53.37 50.0414 53.8041C50.0414 53.9644 49.9479 54.1047 49.8611 54.1447C49.8611 54.9262 50.6425 55.4939 50.6425 56.0016C50.6425 56.1151 50.5958 56.2286 50.549 56.2754C50.5958 56.596 51.4641 57.1437 51.5776 57.3975C51.7179 57.7181 51.8782 57.7849 51.965 57.7849C52.2656 57.7849 52.7465 57.4175 52.7465 57.0969C52.7465 56.9834 52.653 56.8698 52.5862 56.8231C52.2455 56.5693 52.0585 56.0416 51.9249 55.6743C51.8114 55.6743 51.6244 55.6275 51.5843 55.4205C51.4908 55.0531 51.4908 54.3652 51.3305 53.951C51.1034 53.9043 50.9898 53.8108 50.9898 53.3299C50.9898 53.1028 51.1301 52.1811 51.1301 51.8605C51.0166 51.8605 50.8763 51.7937 50.8763 51.5866C50.8763 51.0122 51.4507 50.5781 51.611 49.8433C52.6196 50.5981 52.8734 51.3528 52.8734 52.0408C52.8734 52.4082 52.8266 52.7288 52.7598 53.0494C53.5146 52.682 54.6367 52.1076 54.6367 50.9855C54.6367 50.3242 54.3361 49.5895 52.319 49.3157C52.9402 49.0886 53.7417 48.9483 54.3829 48.9483C55.5317 48.9483 56.1929 49.3157 56.3332 50.1172C56.5603 49.7498 56.7473 49.3357 56.7473 48.9684C56.7473 48.1001 56.0126 47.5257 55.0775 47.5257C53.9754 47.5257 53.0136 48.1001 51.985 48.788C52.4459 47.8262 52.7665 47.2518 53.3342 47.2518C53.4277 47.2518 53.5146 47.2719 53.6081 47.2986C53.4144 46.5104 52.5862 45.7557 52.1721 45.7557Z" fill="#009291"/>
<path fill-rule="evenodd" clip-rule="evenodd" d="M82.2818 58.6331C83.1768 58.6331 83.8848 59.802 83.8848 61.1512C83.8848 62.5939 83.1968 64.1768 81.9812 65.2522C81.9612 62.8477 79.0023 63.6024 79.0023 61.8592C79.0023 61.1044 79.53 60.5968 80.1912 60.5968C80.7656 60.5968 81.1998 60.7571 81.5404 61.0777C81.2198 60.7771 81.0595 60.343 81.0595 59.9289C81.0729 59.2543 81.507 58.6331 82.2818 58.6331Z" fill="#009291"/>
<path fill-rule="evenodd" clip-rule="evenodd" d="M69.017 40.3455C68.8767 40.1184 68.329 39.9781 68.1019 39.9781C67.3205 39.9781 66.7728 40.5258 66.6793 41.0334C66.6125 40.8531 66.5657 40.646 66.5657 40.4123C66.5657 39.6308 67.0934 38.669 68.3958 38.669C69.5446 38.669 69.9788 39.2634 70.1391 39.2634C70.3194 39.2634 70.5064 39.0831 70.64 39.0831C70.8471 39.0831 70.8471 39.3837 70.8471 39.6108C70.8471 40.3188 70.5265 41.5611 69.725 42.0153C69.5847 41.7147 69.2908 41.3741 68.83 41.167C68.7164 41.1203 68.6496 41.0067 68.6496 40.8932C68.6296 40.7128 68.8099 40.459 69.017 40.3455ZM66.3386 41.6546C66.018 42.1155 65.8577 42.7099 65.8778 43.3043C65.8778 44.2661 66.2451 45.1812 66.6592 45.2547C66.8863 45.2747 66.8663 44.5934 67.2069 44.5934C67.3205 44.5934 67.7346 44.8673 68.6029 44.8673C69.932 44.8673 71.3547 44.1125 71.3547 42.1622C71.3547 41.8884 71.2144 41.2939 71.0141 41.0134C71.0141 42.6164 69.8452 43.2576 68.8366 43.2576C68.6096 43.2576 68.3557 43.2376 68.1487 43.144C68.3557 42.9837 68.5361 42.6631 68.5361 42.4561C68.5361 42.3158 68.4225 42.249 68.2622 42.249C68.1487 42.249 67.9216 42.2958 67.7145 42.2958C67.2069 42.2958 66.7928 42.1088 66.3386 41.6546Z" fill="#009291"/>
<path fill-rule="evenodd" clip-rule="evenodd" d="M51.0302 30.2867C51.0302 30.1731 50.5025 30.0796 49.7678 30.0796C48.5989 30.0796 48.7592 31.0414 47.8642 31.0414C46.9225 31.0414 47.1763 30.0329 45.9874 30.0329C45.2794 30.0329 44.6115 30.1464 44.6115 30.3067C44.6115 30.5138 45.4597 30.4203 45.4597 31.0147C45.4597 31.6359 43.6497 31.8162 43.6497 32.1836C43.6497 32.2971 43.7899 32.3639 43.9703 32.3639C44.3576 32.3639 44.9788 32.1836 45.4397 32.1836C45.6935 32.1836 45.9206 32.2303 45.9206 32.4574C45.9206 32.9183 44.9588 33.7198 44.9588 34.0604C44.9588 34.174 45.0523 34.2007 45.1391 34.2007C45.5065 34.2007 46.1009 33.2856 46.6753 33.2856C47.6171 33.2856 46.9959 35.3028 47.5236 35.3028C48.0512 35.3028 47.8241 33.3124 48.5989 33.3124C49.2201 33.3124 49.701 34.6883 50.1084 34.6883C50.222 34.6883 50.3155 34.5948 50.3155 34.4812C50.3155 34.1139 49.7878 33.3324 49.7878 32.8315C49.7878 32.5309 49.9949 32.3706 50.2888 32.3706C50.7029 32.3706 51.2506 32.6244 51.5511 32.6244C51.6647 32.6244 51.7582 32.5777 51.7582 32.4641C51.7582 32.03 50.1752 31.5691 50.1752 31.0214C50.1552 30.5405 51.0302 30.5405 51.0302 30.2867ZM55.2247 32.0968C55.2247 32.4174 56.3468 33.1053 56.8744 33.1053C57.175 33.1053 57.2618 32.6912 57.2618 32.2571C57.2618 31.7294 57.0347 31.7094 56.5739 31.7094C55.9794 31.7294 55.2247 31.8897 55.2247 32.0968ZM57.0748 35.6501C57.0748 35.8772 56.8945 36.0642 56.5471 35.9707C55.5853 35.9707 53.5482 35.0089 52.8602 35.0089C52.6532 35.0089 52.6064 35.0556 52.6064 35.236C52.6064 35.9239 53.9356 38.0746 53.9356 39.0164C53.9356 39.2702 53.8421 39.4772 53.595 39.4772C52.7935 39.4772 51.0034 37.3266 50.3889 37.3266C49.8145 37.3266 50.0683 39.1366 49.5407 39.1366C49.1266 39.1366 48.7392 38.108 48.2783 38.108C47.8175 38.108 47.5236 41.6814 46.7889 41.6814C45.9206 41.6814 46.2612 38.3819 45.6868 38.3819C45.2259 38.3819 44.6315 39.504 43.9703 39.504C43.6296 39.504 43.5094 39.2301 43.5094 38.816C43.5094 38.2884 43.6697 37.5804 43.6697 37.1195C43.6697 36.8657 43.6497 36.5918 43.4159 36.5918C42.7546 36.5918 40.3435 38.3551 39.4084 38.3551C39.2013 38.3551 39.0677 38.2884 39.0677 38.0813C39.0677 37.213 42.1134 34.6014 42.1134 33.9803C42.1134 33.4326 38.6069 33.9135 38.6069 33.3858C38.6069 32.7647 41.0849 31.716 41.0849 31.322C41.0849 30.9346 38.6803 30.7743 38.6803 30.3134C38.6803 29.9928 39.2548 29.8793 40.3101 29.8793C41.1784 29.8793 43.4493 30.1064 43.4493 30.634C43.4493 31.2084 41.5257 31.8029 41.5257 32.3773C41.5257 33.0452 44.204 32.6511 44.204 33.2456C44.204 33.8667 42.2537 35.2159 42.2537 35.6501C42.2537 35.7169 42.3472 35.7636 42.414 35.7636C42.8949 35.7636 44.1105 34.8686 44.6582 34.8686C44.8653 34.8686 44.9321 35.0089 44.9321 35.256C44.9321 35.7569 44.6315 36.5852 44.6315 37.1128C44.6315 37.2531 44.6782 37.3867 44.8118 37.3867C45.2259 37.3867 45.8404 35.6902 46.3948 35.6902C46.8957 35.6902 46.4416 38.255 46.9692 38.255C47.4301 38.255 47.5169 35.9373 47.9778 35.9373C48.4119 35.9373 48.6457 37.2464 49.0999 37.2464C49.2802 37.2464 49.3069 36.9926 49.3069 36.5852V35.964C49.3069 35.5766 49.3069 35.3028 49.514 35.3028C50.0617 35.3028 51.5778 37.0928 51.8984 37.0928C51.9652 37.0928 51.9919 37.026 51.9919 36.9792C51.9919 36.4983 50.9834 34.8686 50.9834 34.0204C50.9834 33.7465 51.0969 33.5395 51.3708 33.5395C52.012 33.5395 53.3411 34.2742 53.9356 34.2742C54.1426 34.2742 54.2562 34.2074 54.2562 34.0003C54.2562 33.2656 52.0788 31.8029 52.0788 31.1817C52.0788 30.6073 54.51 29.9928 56.1798 29.9928C56.3868 29.9928 56.821 29.9928 56.821 30.2199C56.821 30.6541 54.7571 31.0481 54.2562 31.5691C54.1894 31.6359 54.1426 31.7294 54.1426 31.7962C54.1694 32.6244 57.0748 34.568 57.0748 35.6501ZM40.7642 34.6148C40.7642 34.4545 40.4904 34.4077 40.2366 34.4345C39.8492 34.4345 39.2948 34.548 39.0677 34.7551C38.8607 34.9154 38.7004 35.3963 38.7004 35.7636C38.7004 35.9707 38.7471 36.1777 38.9275 36.1777C39.4084 36.1777 40.7642 34.9822 40.7642 34.6148ZM53.8955 36.4516C53.8955 37.0727 56.1397 40.1385 56.5538 40.1385C56.9212 40.1385 57.175 39.5173 57.175 38.9696C57.175 38.8294 57.1282 38.6958 57.0614 38.5822C56.7408 38.1214 54.4699 36.338 53.969 36.338C53.9356 36.338 53.8955 36.4048 53.8955 36.4516Z" fill="#009291"/>
<path fill-rule="evenodd" clip-rule="evenodd" d="M82.6091 31.0414C82.6091 31.2952 82.8161 31.4755 83.0699 31.4755C83.3237 31.4755 83.5308 31.2685 83.5308 31.0414C83.5308 30.7876 83.3237 30.5805 83.0699 30.5805C82.8094 30.5872 82.6091 30.7876 82.6091 31.0414ZM79.6969 34.9821C79.6969 33.7197 76.6512 33.3991 76.6512 33.1053C76.6512 32.8782 78.3478 32.4841 79.216 32.4641C77.8669 30.7475 75.9633 30.9279 75.9633 30.634C75.9633 30.4536 77.386 30.1063 78.7151 30.1063C79.8172 30.1063 80.8658 30.3601 80.8658 31.2084C80.8658 31.6692 80.4984 32.1501 80.4984 32.8782C80.4984 33.2656 80.7055 33.6129 81.2064 33.6129C81.7541 33.6129 81.8944 33.0184 81.8944 32.3973C81.8944 31.8696 81.8009 31.4822 81.8009 31.2284C81.8009 30.4737 82.3018 29.966 83.0365 29.966C83.6577 29.966 83.7913 30.2399 84.6863 30.2399C84.2054 30.5405 84.0251 31.0414 84.0251 31.2952C84.0251 32.05 84.506 32.5576 84.506 34.0938C84.506 36.9124 81.8677 37.921 78.6149 37.921C77.7199 37.921 76.7848 37.8542 75.8431 37.7139C75.7028 37.6939 75.6627 37.6671 75.6627 37.5736C75.6627 37.3465 76.9251 37.2063 76.9251 36.0641C76.9251 35.6033 76.7848 35.1958 76.7848 35.0355C76.7848 34.942 76.8516 34.8953 76.9251 34.8953C77.1989 34.8953 77.7266 35.9239 78.7351 35.9239C79.029 35.8972 79.6969 35.8103 79.6969 34.9821ZM82.7226 33.1721C82.7226 34.755 81.5538 35.9706 79.4699 36.3113C79.6969 36.3313 79.9307 36.3313 80.1378 36.3313C82.589 36.3313 83.484 35.2292 83.484 34.2942C83.4774 33.7932 83.1768 33.3324 82.7226 33.1721Z" fill="#009291"/>
<path fill-rule="evenodd" clip-rule="evenodd" d="M81.4803 56.2287C81.7541 55.3336 82.1215 54.7192 82.7159 53.7507C82.1215 53.4501 80.5652 52.8089 80.5652 51.7603C80.5652 50.5246 82.1015 49.5628 82.4221 49.5628C82.5623 49.5628 82.6024 49.6764 82.6024 49.9302C82.6024 50.5714 82.3018 51.6 82.3018 52.1744C82.3018 52.6753 82.6224 53.1629 82.923 53.1629C83.2236 53.1629 84.0718 52.0876 84.0718 51.0323C84.0718 49.1287 82.402 48.5543 81.8944 48.5543C81.4135 48.5543 80.5452 49.3357 78.4813 49.3357C74.6341 49.3357 73.7592 45.5286 73.7592 43.8588C73.7592 43.792 73.7792 43.7653 73.8059 43.7653C73.8994 43.7653 74.2668 44.2262 75.4757 44.2262C76.0969 44.2262 76.6646 44.0659 77.5863 44.0659C79.717 44.0659 80.6788 45.5553 82.0079 47.4322C82.8094 47.9331 84.733 48.7413 84.733 51.0055C84.733 52.9959 82.6024 54.1247 82.0948 56.2554C82.923 56.1619 83.4039 54.6991 84.2521 54.6991C84.6863 54.6991 84.8733 55.0398 84.8733 55.5674C84.8733 56.3489 84.4124 57.5378 83.5642 58.2725C83.5842 58.2057 83.5842 58.1122 83.5842 57.9986C83.5842 57.4977 83.3772 56.783 82.8028 56.783C81.9077 56.783 81.6339 57.7448 81.133 58.5463C80.6053 56.7162 79.9174 55.0865 78.655 54.078C77.3926 53.0694 75.1952 53.6171 75.1952 51.7603C75.1952 51.2593 75.5158 50.5447 75.5158 49.9703C75.5158 49.7632 75.469 49.6029 75.3755 49.4426C77.0921 50.0838 76.4776 51.2326 77.5529 52.4015C78.2208 53.1562 80.0309 53.8709 81.0795 56.9634C81.0996 56.8699 81.1263 56.6428 81.1263 56.4825C81.1263 53.8442 77.6197 51.2326 77.3192 50.184C79.3563 50.4111 79.7036 50.9187 80.6855 53.5971C80.8391 54.1648 81.4803 55.5407 81.4803 56.2287ZM81.0261 47.539C81.0261 47.1717 80.0843 47.1249 79.9975 46.0696C79.9775 45.9093 79.9307 45.6355 79.7237 45.6355C79.4031 45.6355 79.6569 46.624 79.2895 46.624C78.4613 46.624 78.1874 45.021 77.8936 45.021C77.8268 45.021 77.7333 45.0677 77.7333 45.2948C77.7333 45.5019 77.78 45.6154 77.78 45.8425C77.78 46.0696 77.7333 46.2299 77.5062 46.2299C77.0253 46.2299 76.5911 45.1078 76.177 45.1078C76.0835 45.1078 75.9967 45.1546 75.9967 45.2481C75.9967 45.4551 76.364 45.8692 76.364 46.0496C76.364 46.4837 75.1952 46.2566 75.1952 46.5973C75.1952 46.7576 75.3555 46.8043 75.5625 46.8043C75.9299 46.8043 76.5243 46.644 76.8249 46.644C77.0052 46.644 77.2858 46.6908 77.2858 46.9179C77.2858 47.1717 76.6446 47.4923 76.6446 47.7194C76.6446 47.8329 76.7581 47.8797 76.8516 47.8797C77.3325 47.8797 78.1808 47.0314 78.8019 47.0314C78.9155 47.0314 79.1693 47.0782 79.1693 47.2385C79.1693 47.4656 78.5748 47.8797 78.5748 48.227C78.5748 48.3205 78.6216 48.4341 78.7351 48.4341C79.0557 48.4341 79.4899 47.5858 80.0843 47.5858C80.3114 47.5858 80.6587 47.6793 80.8391 47.6793C80.9526 47.6993 81.0261 47.6125 81.0261 47.539Z" fill="#009291"/>
<path fill-rule="evenodd" clip-rule="evenodd" d="M67.7079 36.839C68.0084 36.839 68.0485 37.5269 68.0953 37.941C68.142 38.1481 68.162 38.1681 68.2556 38.1681C68.4626 38.1681 68.8032 37.3399 69.037 37.3399C69.3777 37.3399 70.2994 38.2817 71.8089 38.2817C73.9596 38.2817 76.0034 36.7722 76.0034 34.0871C76.0034 31.4956 74.1733 29.9861 71.6486 29.9861C70.4597 29.9861 69.5647 30.5806 69.1038 30.5806C68.83 30.6006 68.3958 29.8926 68.1888 29.8926C68.0953 29.8926 68.0084 30.073 68.0084 30.3735C68.0084 30.5806 68.0084 31.1951 67.8014 31.1951C67.3672 31.1951 65.7175 29.9594 65.7175 30.4136C65.7175 30.8277 66.8195 32.0834 66.8195 32.404C66.8195 32.7246 65.7175 33.0251 65.7175 33.2522C65.7175 33.6396 66.8863 33.7131 66.8863 34.214C66.8863 34.715 65.6707 35.1091 65.6707 35.4764C65.6707 35.777 66.8863 35.5699 66.8863 35.9373C66.8863 36.3046 65.9913 37.567 65.9913 37.9277C65.9913 38.0212 66.0114 38.0212 66.0848 38.0212C66.4255 38.0078 67.4607 36.839 67.7079 36.839ZM68.2155 33.9068C68.2155 33.6997 67.5275 33.3324 67.5275 33.1253C67.5275 33.0786 67.5743 33.0786 67.621 33.0786C67.8281 33.0786 68.1487 33.1454 68.4225 33.1454C68.6496 33.1454 68.6964 32.1368 68.8567 32.1368C68.9702 32.1368 69.1973 33.0786 69.3843 33.0786C69.6114 33.0786 70.0523 32.8047 70.2326 32.8047C70.2794 32.8047 70.2994 32.8248 70.2994 32.8515C70.2994 32.965 69.8385 33.4459 69.8385 33.6062C69.8385 33.7665 70.8471 33.9736 70.8471 34.1072C70.8471 34.2875 69.8185 34.2675 69.8185 34.4278C69.8185 34.5413 70.1858 35.0489 70.1858 35.2092C70.1858 35.256 70.1658 35.256 70.1391 35.256C69.9988 35.256 69.4511 35.0022 69.2908 35.0022C69.0838 35.0022 68.7899 35.7369 68.6029 35.7369C68.5561 35.7369 68.5094 35.6701 68.5094 35.5766L68.4626 34.8686C68.4626 34.8018 68.4159 34.7283 68.3491 34.7283C68.142 34.7283 67.7279 34.7083 67.5943 34.7083C67.5008 34.7083 67.4808 34.6883 67.4808 34.6615C67.5075 34.548 68.2155 34.0471 68.2155 33.9068ZM71.6953 37.2998C70.433 37.2998 69.6114 36.6787 69.6114 36.3581C69.6114 36.1978 69.725 36.0842 69.8652 36.0842C70.2526 36.0842 71.1276 36.6787 71.4015 36.6787C71.4682 36.6787 71.515 36.6319 71.515 36.5384C71.515 36.2178 71.2144 35.6901 71.2144 35.4163C71.2144 35.3495 71.2612 35.3027 71.3747 35.3027C71.8556 35.3027 72.5636 35.5098 72.9577 35.5098C73.0712 35.5098 73.118 35.443 73.118 35.3695C73.118 34.9821 71.9491 34.2007 71.9491 33.9736C71.9491 33.7665 73.3918 33.4459 73.3918 33.1053C73.3918 32.7379 71.4215 32.9918 71.4215 32.6444C71.4215 32.3906 71.7888 31.9565 71.7888 31.7761C71.7888 31.6826 71.722 31.6626 71.5818 31.6626C71.4215 31.6626 70.5532 32.0032 70.2059 32.0032C70.0255 32.0032 69.8185 31.9565 69.8185 31.7294C69.8185 31.3153 70.5064 30.8811 71.6085 30.8811C73.3718 30.8811 74.4271 32.0967 74.4271 34.1339C74.4739 36.6586 72.6838 37.2998 71.6953 37.2998Z" fill="#009291"/>
<path fill-rule="evenodd" clip-rule="evenodd" d="M59.5993 68.2311C59.5993 68.3914 59.5526 68.5718 59.3923 68.7588C59.1852 68.3914 58.6375 68.2311 58.3837 68.2311C56.5536 68.2311 57.2349 70.8894 55.2645 70.8894C54.4363 70.8894 54.3695 70.7759 54.0756 70.7759C53.9621 70.7759 53.8686 70.8226 53.8686 70.9362C53.8686 71.3971 54.5298 72.5392 56.3666 72.5392C58.2034 72.5392 59.9867 71.4171 59.9867 70.0211C59.9867 69.7941 59.94 69.5402 59.8264 69.2864C59.8932 69.1729 60.0802 69.1061 60.2405 69.1061C60.5144 69.1061 60.6747 69.4267 60.9485 69.4267C61.2224 69.4267 61.4495 69.2196 61.4495 68.9258C61.4495 68.6987 61.3359 68.5384 61.1088 68.4248C61.2491 68.3113 61.3626 68.151 61.3626 67.9439C61.3626 67.6434 61.1556 67.3495 60.7882 67.3495C60.6279 67.3495 60.5144 67.3962 60.4008 67.5298C60.3541 67.2092 60.1938 66.9086 59.8531 66.9086C59.5793 66.9086 59.3923 67.1157 59.3923 67.4096C59.4123 67.7102 59.5993 67.9372 59.5993 68.2311Z" fill="#009291"/>
<path fill-rule="evenodd" clip-rule="evenodd" d="M54.7836 68.919C54.256 68.919 53.4344 68.3446 53.4344 68.024C53.4344 67.7502 53.6882 67.6099 53.8686 67.6099C54.3294 67.6099 55.1309 68.1576 55.1309 68.6185C55.151 68.7587 55.0641 68.919 54.7836 68.919ZM49.8143 64.9115C51.237 65.2789 51.965 66.0336 52.1053 66.9487C52.2455 67.817 52.4259 68.5316 52.7665 68.899C53.2274 69.3999 54.0957 69.8408 54.8504 69.8408C55.4916 69.8408 56.0193 69.6337 56.0193 69.0393C56.0193 68.3981 55.151 66.9554 53.8686 66.9554C53.755 66.9554 53.5947 66.9754 53.4077 66.9754C53.2474 66.9754 53.0203 66.9286 52.8801 66.8151C52.6062 66.5613 52.5127 65.2321 51.965 64.4106C51.3706 63.5156 50.7294 63.2618 49.8544 63.2618C49.2332 63.2618 48.5252 63.6024 48.5252 64.11C48.5052 64.4106 48.6655 64.611 49.8143 64.9115Z" fill="#009291"/>
<path fill-rule="evenodd" clip-rule="evenodd" d="M58.7711 62.7342C58.7711 61.9327 57.1013 61.9059 57.1013 60.697C57.1013 60.3965 57.3084 59.8688 57.6958 59.3211C57.8561 60.2629 58.2234 60.7438 59.045 61.0377C60.6279 61.6321 60.855 62.5271 60.855 63.4689C60.855 65.0719 59.7329 67.089 56.8208 67.089C54.5031 67.089 52.8333 65.0251 52.8333 63.2618C52.8333 62.7809 52.9469 62.2533 53.2675 62.2533C53.5413 62.2533 53.6348 62.4603 53.8419 62.6874C54.6434 63.4889 55.5117 63.696 56.8007 63.696C57.9496 63.6759 58.7711 63.2151 58.7711 62.7342ZM58.8446 64.0166C58.2234 64.2904 57.9963 64.2437 57.9963 64.8648C57.9963 65.0919 57.9496 65.3925 57.9496 65.5528C57.9496 65.7598 57.9963 65.8934 58.2234 65.8934C58.8646 65.8934 59.8932 64.7914 59.8932 63.8763C59.8932 63.6225 59.7529 63.5089 59.5926 63.5089C59.439 63.5357 59.2787 63.8095 58.8446 64.0166ZM53.1606 54.9863C53.1606 56.409 55.7722 57.0034 55.7989 57.6446C55.7989 57.8717 55.6586 58.012 55.3848 58.012C55.0642 58.012 54.5565 57.7381 54.0556 57.304C53.4812 57.8517 53.1138 58.6331 53.1138 59.5014C53.1138 61.2647 54.9707 62.7542 56.7807 62.7542C57.0813 62.7542 57.3752 62.7075 57.6958 62.6407C56.7072 62.5271 56.066 61.7724 56.066 60.8506C56.066 59.6818 57.3752 58.6265 57.3752 57.7114C57.3752 56.5893 55.9992 56.4491 55.9992 55.5607C55.9992 54.806 57.2816 54.2316 57.2816 52.9959C57.2816 52.2879 56.5737 51.413 55.6319 50.8853C55.7922 51.1859 55.8857 51.5933 55.8857 51.8271C55.8857 53.2497 53.1606 53.8442 53.1606 54.9863Z" fill="#009291"/>
<path fill-rule="evenodd" clip-rule="evenodd" d="M42.7811 63.8095C42.8479 64.4307 43.4223 64.8848 44.0635 64.818C44.2906 64.798 44.5244 64.7245 44.658 64.6377C44.7983 65.2121 45.2792 65.5795 45.9204 65.486C46.5883 65.3925 47.0224 64.8915 46.949 64.2236C46.9289 64.0433 46.9022 63.9498 46.8354 63.8095C46.8354 63.8095 46.9289 63.8095 46.9957 63.7894C47.6369 63.6759 48.0711 63.1482 48.0243 62.5271C47.9575 61.8859 47.3831 61.405 46.7619 61.4718C46.5348 61.4918 46.3011 61.5853 46.1675 61.7256C46.0072 61.1979 45.4996 60.717 44.8183 60.8306C44.1971 60.9241 43.7897 61.4718 43.8565 62.1397C43.8565 62.2532 43.9032 62.3668 43.95 62.507C43.95 62.507 43.8365 62.5271 43.7697 62.5271C43.262 62.5939 42.6876 63.1215 42.7811 63.8095ZM46.1207 63.1215C46.1675 63.4889 45.8936 63.8295 45.5263 63.8763C45.1589 63.923 44.8183 63.6492 44.7715 63.2818C44.7248 62.9145 44.9986 62.5738 45.366 62.5271C45.7333 62.4803 46.0807 62.7341 46.1207 63.1215Z" fill="#009291"/>
</svg>
