<svg width="125" height="125" viewBox="0 0 125 125" fill="none" xmlns="http://www.w3.org/2000/svg">
<path fill-rule="evenodd" clip-rule="evenodd" d="M61.5203 70.2705C62.7697 68.5343 62.4127 68.4423 62.1423 67.393C62.1261 67.3335 62.072 66.798 62.0774 66.7493C62.1369 66.2301 62.3478 66.1111 62.932 66.057C63.7379 67.0036 63.0348 66.4248 62.9428 67.6688C63.1808 67.8149 63.7541 68.0691 63.8569 68.399C63.9056 68.5505 63.9056 69.3456 63.8299 69.4592C62.9915 69.2158 63.9164 68.8317 62.8995 68.3071C62.7535 69.4592 63.0293 69.6972 63.0077 70.6383C63.6784 70.7681 67.5187 71.3198 68.0163 71.6011C66.7615 71.6119 59.1241 71.4442 58.6211 71.1359C59.016 70.9304 59.6434 70.8871 60.1356 70.8168C61.331 70.6545 60.8009 70.5734 61.5203 70.2705ZM48.593 76.1932C49.0798 76.3068 49.4206 76.4475 49.6153 76.6043C49.8966 76.8315 50.0372 77.1344 50.0372 77.4968C50.0372 77.8808 49.8858 78.1999 49.5775 78.4541C49.1988 78.7624 48.6525 78.9139 47.9332 78.9139H45.3531V78.7841C45.5857 78.7841 45.748 78.7624 45.8291 78.7192C45.9157 78.6759 45.9697 78.6164 46.0076 78.5461C46.0401 78.4758 46.0563 78.2973 46.0563 78.0214V74.6842C46.0563 74.4029 46.0401 74.2298 46.0076 74.1541C45.9752 74.0838 45.9157 74.0243 45.8291 73.981C45.7426 73.9377 45.5857 73.9161 45.3531 73.9161V73.7863H47.7871C48.3713 73.7863 48.7824 73.8404 49.0258 73.9432C49.2692 74.0459 49.4585 74.2028 49.5991 74.4137C49.7397 74.6193 49.81 74.841 49.81 75.079C49.81 75.3278 49.7181 75.5442 49.5396 75.7389C49.3611 75.9282 49.0474 76.0796 48.593 76.1932ZM47.23 76.0905C47.587 76.0905 47.852 76.0526 48.0197 75.9715C48.1874 75.8904 48.3172 75.7768 48.4091 75.6307C48.5011 75.4847 48.5444 75.2954 48.5444 75.0736C48.5444 74.8518 48.5011 74.6625 48.4091 74.5165C48.3172 74.3705 48.1928 74.2623 48.0251 74.1865C47.8574 74.1108 47.5924 74.073 47.2246 74.0784V76.0905H47.23ZM47.23 76.3825V78.0269V78.2162C47.23 78.3514 47.2625 78.4541 47.3328 78.5245C47.4031 78.5948 47.5005 78.6272 47.6303 78.6272C47.825 78.6272 48.0089 78.584 48.1712 78.492C48.3388 78.4055 48.4632 78.2756 48.5498 78.1026C48.6363 77.9349 48.685 77.7456 48.685 77.5346C48.685 77.2966 48.6363 77.0803 48.539 76.891C48.4416 76.7017 48.2956 76.5664 48.1008 76.4907C47.9061 76.4204 47.6195 76.3825 47.23 76.3825ZM53.818 77.0208H51.8925C51.9141 77.4913 52.0385 77.8592 52.2657 78.1296C52.4388 78.3406 52.6443 78.4433 52.8877 78.4433C53.0391 78.4433 53.1744 78.4001 53.2988 78.3189C53.4232 78.2324 53.553 78.0809 53.6936 77.8646L53.8234 77.9511C53.6341 78.3406 53.4232 78.6164 53.196 78.7787C52.9688 78.9409 52.6984 79.0221 52.3955 79.0221C51.8762 79.0221 51.4814 78.8219 51.2164 78.4163C51 78.0917 50.8972 77.6915 50.8972 77.2101C50.8972 76.6205 51.0541 76.1554 51.3732 75.8038C51.6869 75.4576 52.0601 75.2791 52.482 75.2791C52.8336 75.2791 53.1419 75.4252 53.4015 75.7173C53.6558 76.0093 53.7964 76.442 53.818 77.0208ZM52.8985 76.772C52.8985 76.3663 52.8769 76.0905 52.8336 75.939C52.7903 75.7876 52.72 75.674 52.6281 75.5983C52.574 75.555 52.5037 75.528 52.4171 75.528C52.2873 75.528 52.1845 75.5929 52.098 75.7227C51.952 75.9498 51.8762 76.2527 51.8762 76.6476V76.7774H52.8985V76.772ZM54.5482 75.3765H56.3332V75.5063C56.1979 75.5117 56.106 75.5496 56.0573 75.6199C56.0086 75.6902 55.987 75.8416 55.987 76.0796V76.9451C56.2628 76.9451 56.4521 76.8964 56.5549 76.8044C56.6577 76.7125 56.7551 76.5394 56.8524 76.2798C56.9822 75.9174 57.1174 75.6632 57.2527 75.528C57.3879 75.3873 57.5772 75.317 57.8098 75.317C58.0099 75.317 58.1776 75.3711 58.329 75.4847C58.4751 75.5983 58.5508 75.7443 58.5508 75.9282C58.5508 76.0688 58.5075 76.1878 58.421 76.2906C58.3344 76.388 58.2209 76.4421 58.0856 76.4421C57.8044 76.4421 57.6583 76.296 57.6529 76.0039C57.6529 75.7984 57.6097 75.6956 57.5231 75.6956C57.3987 75.6956 57.2689 75.8687 57.1391 76.2094C57.0363 76.4907 56.9606 76.6638 56.9227 76.7395C56.8849 76.8099 56.8146 76.891 56.7172 76.9775C56.9714 77.0316 57.1553 77.0965 57.2689 77.1885C57.3825 77.275 57.5339 77.4751 57.7178 77.778L58.0478 78.3189C58.2209 78.6056 58.4048 78.7571 58.5995 78.7733V78.9031H57.2473L56.2033 77.1831H55.9924V78.1675C55.9924 78.3893 56.0194 78.5461 56.0735 78.6326C56.1276 78.7192 56.2142 78.7625 56.3386 78.7733V78.9031H54.5536V78.7733C54.6672 78.7733 54.7646 78.7408 54.8349 78.6759C54.9052 78.6164 54.9431 78.4595 54.9431 78.2053V76.1175C54.9431 75.8795 54.916 75.7173 54.8565 75.6307C54.8024 75.5442 54.6997 75.5009 54.5482 75.5009V75.3765V75.3765ZM60.9686 73.7863H63.5919V73.9161C63.3052 73.9215 63.1213 73.9594 63.0402 74.0297C62.959 74.1 62.9104 74.2569 62.8941 74.5057C63.4729 74.5057 63.911 74.5706 64.2085 74.7058C64.506 74.841 64.7656 75.0411 64.982 75.317C65.1929 75.5874 65.3011 75.9174 65.3011 76.3068C65.3011 76.7936 65.1226 77.2209 64.771 77.5941C64.414 77.9674 63.792 78.1512 62.8995 78.1512C62.8995 78.3297 62.9212 78.4595 62.959 78.5461C63.0023 78.6272 63.0618 78.6867 63.1429 78.7192C63.2241 78.7516 63.3755 78.7733 63.5973 78.7895V78.9193H60.974V78.7895C61.2823 78.7841 61.477 78.7354 61.5581 78.6434C61.6393 78.5569 61.6771 78.3892 61.6771 78.1567C61.0876 78.1567 60.6278 78.0701 60.2925 77.9078C59.9571 77.7402 59.7029 77.5184 59.5298 77.2371C59.3567 76.9559 59.2702 76.6476 59.2702 76.3122C59.2702 75.9498 59.3784 75.6199 59.5893 75.317C59.8003 75.0141 60.0707 74.8085 60.3898 74.6896C60.7143 74.5706 61.1416 74.5111 61.6771 74.5111C61.6771 74.2785 61.6284 74.127 61.5419 74.0459C61.45 73.9648 61.2606 73.9269 60.974 73.9215V73.7863H60.9686ZM62.8941 77.8646C63.1429 77.8646 63.3485 77.8267 63.5107 77.751C63.673 77.6753 63.8028 77.513 63.911 77.2696C64.0192 77.0262 64.0679 76.6909 64.0679 76.2636C64.0679 75.9228 64.0192 75.6361 63.9218 75.3981C63.8244 75.1655 63.7001 75.0033 63.5432 74.9222C63.3863 74.841 63.17 74.7977 62.8941 74.7923V77.8646V77.8646ZM61.6717 74.7923C61.3472 74.8031 61.1092 74.8626 60.9686 74.9708C60.8279 75.079 60.7143 75.2467 60.6332 75.4738C60.5521 75.701 60.5088 75.9985 60.5088 76.3555C60.5088 76.7666 60.5575 77.0803 60.6603 77.2966C60.7576 77.513 60.8928 77.659 61.0605 77.7402C61.2282 77.8213 61.4283 77.8592 61.6771 77.8646V74.7923H61.6717ZM68.0434 78.3892C67.6161 78.7733 67.2321 78.9626 66.8913 78.9626C66.6912 78.9626 66.5235 78.8977 66.3937 78.7625C66.2639 78.6326 66.1935 78.465 66.1935 78.2648C66.1935 77.9944 66.3071 77.751 66.5397 77.54C66.7669 77.3237 67.2699 77.037 68.0434 76.68V76.323C68.0434 76.058 68.0272 75.8903 68.0001 75.82C67.9731 75.7497 67.919 75.6902 67.8378 75.6415C67.7567 75.5874 67.6648 75.5658 67.5674 75.5658C67.4051 75.5658 67.2699 75.6037 67.1671 75.674C67.1022 75.7172 67.0698 75.7714 67.0698 75.8309C67.0698 75.8849 67.1022 75.9498 67.1725 76.0256C67.2645 76.1337 67.3132 76.2365 67.3132 76.3393C67.3132 76.4637 67.2699 76.5664 67.178 76.653C67.086 76.7395 66.967 76.7828 66.821 76.7828C66.6641 76.7828 66.5343 76.7341 66.4261 76.6422C66.3179 76.5448 66.2693 76.4366 66.2693 76.3068C66.2693 76.1229 66.3396 75.9498 66.4802 75.7876C66.6208 75.6253 66.821 75.4955 67.0752 75.4089C67.3294 75.3224 67.5944 75.2791 67.8703 75.2791C68.2002 75.2791 68.4653 75.3495 68.66 75.4901C68.8547 75.6307 68.9791 75.7876 69.0386 75.9498C69.0711 76.058 69.0927 76.296 69.0927 76.6746V78.0431C69.0927 78.2053 69.0981 78.3027 69.1143 78.346C69.1252 78.3892 69.1468 78.4163 69.1684 78.4379C69.1955 78.4596 69.2225 78.465 69.255 78.465C69.3199 78.465 69.3902 78.4217 69.4551 78.3297L69.5687 78.4163C69.4443 78.6056 69.3145 78.7408 69.1792 78.8219C69.044 78.9085 68.8926 78.9518 68.7249 78.9518C68.5248 78.9518 68.3679 78.9031 68.2543 78.8111C68.1353 78.7246 68.0704 78.584 68.0434 78.3892ZM68.0434 78.1134V76.9342C67.7405 77.1127 67.5187 77.3021 67.3673 77.5076C67.2699 77.6428 67.2212 77.7834 67.2212 77.9187C67.2212 78.0323 67.2645 78.135 67.3456 78.227C67.4105 78.2973 67.4971 78.3297 67.6053 78.3297C67.7351 78.3297 67.8811 78.254 68.0434 78.1134ZM71.5862 78.5515V79.8767C71.5862 80.0606 71.6024 80.185 71.6295 80.2499C71.6565 80.3148 71.6998 80.3635 71.7647 80.3959C71.8242 80.4284 71.9432 80.4446 72.1163 80.4446V80.5744H70.1096V80.4446C70.2664 80.4392 70.3854 80.3959 70.4611 80.3094C70.5098 80.2499 70.5369 80.0985 70.5369 79.8551V76.1175C70.5369 75.8633 70.5098 75.7064 70.4503 75.6361C70.3908 75.5658 70.2772 75.5279 70.1096 75.5171V75.3873H71.5862V75.8525C71.7106 75.674 71.835 75.5388 71.9594 75.4631C72.1433 75.3495 72.338 75.29 72.5544 75.29C72.8086 75.29 73.0466 75.3711 73.2575 75.5333C73.4685 75.6956 73.6253 75.9228 73.7389 76.2094C73.8471 76.4961 73.9012 76.8044 73.9012 77.1398C73.9012 77.4968 73.8471 77.8213 73.7335 78.1188C73.6199 78.4163 73.4577 78.638 73.2413 78.7949C73.025 78.9518 72.787 79.0275 72.5219 79.0275C72.3326 79.0275 72.1487 78.9842 71.981 78.8977C71.8566 78.822 71.7268 78.7084 71.5862 78.5515ZM71.5862 78.1729C71.8026 78.4758 72.0297 78.6326 72.2731 78.6326C72.4083 78.6326 72.5219 78.5623 72.6085 78.4163C72.7383 78.2053 72.8032 77.8051 72.8032 77.2101C72.8032 76.6043 72.7329 76.1878 72.5922 75.9661C72.4949 75.82 72.3705 75.7443 72.2082 75.7443C71.954 75.7443 71.7485 75.9282 71.5862 76.296V78.1729V78.1729ZM74.6801 75.3765H76.1351L77.0275 77.5671L77.92 75.3765H79.3425V75.5063C79.2073 75.5117 79.1099 75.555 79.0504 75.6307C78.9909 75.7064 78.9639 75.8417 78.9639 76.0364V78.2378C78.9639 78.4379 78.991 78.5785 79.045 78.6543C79.0991 78.73 79.1965 78.7733 79.3425 78.7787V78.9085H77.4981V78.7787C77.655 78.7787 77.7631 78.7354 77.8226 78.6543C77.8875 78.5731 77.9146 78.4325 77.9146 78.2378V75.9661L76.6976 78.9085H76.5083L75.3291 76.0093V78.2919C75.3291 78.4596 75.3562 78.5785 75.4103 78.6543C75.4644 78.73 75.5725 78.7678 75.7348 78.7787V78.9085H74.6855V78.7787C74.8261 78.7733 74.9235 78.7354 74.983 78.6597C75.0425 78.584 75.0695 78.4542 75.0695 78.2703V76.0147C75.0695 75.8362 75.0425 75.7064 74.983 75.6307C74.9235 75.555 74.8261 75.5117 74.6855 75.5063V75.3765H74.6801ZM68.633 45.9576C68.4491 45.4384 68.3084 45.4113 67.9352 45.103C67.7567 45.4113 67.919 45.4492 67.7297 45.6763C67.4863 44.8812 67.5836 44.6919 67.086 44.0753C66.2044 44.0807 66.5127 44.335 65.9447 44.27C65.9177 44.2646 65.8744 44.2484 65.8528 44.243C65.2145 44.151 65.3119 44.8326 65.5499 45.3248C64.7548 45.0705 64.8684 45.3843 64.7115 45.7683C63.5162 45.7196 64.2139 45.5195 63.3485 45.1192C62.8941 44.9083 62.1207 44.7622 61.7583 45.0705C62.5263 45.6818 62.6453 45.0976 63.2349 45.8008L62.7914 46.0009C62.3803 46.1091 62.191 46.0333 61.8394 46.2767L62.2451 46.7906L63.4404 46.3308C63.7217 46.2876 63.408 46.2659 63.7325 46.3362C64.7223 46.5634 63.5648 46.6608 65.4363 46.5147L65.6743 47.2016C64.4411 47.6993 64.8089 47.2179 64.1436 47.2179C64.0192 47.2179 63.0023 47.4991 62.4614 47.5424C61.4121 45.8657 61.385 47.0772 60.3195 46.5418C60.26 46.2389 60.6765 46.1848 61.0335 45.7953L60.8333 45.7358C60.2925 45.6439 59.6921 45.7683 59.1512 45.8332C58.2641 47.0286 58.9889 45.8873 57.8314 46.531C57.6529 46.7203 58.21 46.8663 57.5393 47.6939C56.847 47.4396 56.6144 46.5526 55.9437 47.6993C56.1384 48.3051 55.9708 47.683 56.3602 48.2456C55.2838 48.159 55.8626 48.1482 55.246 47.894C55.0567 48.1536 54.8024 48.3105 54.6835 48.489C54.4563 48.8351 54.5969 48.4781 54.6618 48.6945C54.9052 49.5383 55.0026 48.1807 54.7592 48.8784C54.1804 49.1218 53.4178 49.2678 53.3042 49.8953C53.9749 50.2955 54.3373 50.0359 54.6889 49.6789C55.1703 49.1921 55.2297 49.1542 55.7111 48.7864L55.9275 49.3003C56.4684 49.3165 56.6793 49.1651 57.0904 49.1975C57.68 49.2462 58.3399 49.7871 58.9456 49.4031C59.4324 49.0894 59.281 49.4896 59.254 48.5539C59.5082 48.5809 59.8002 48.6729 60.0004 48.6188L60.4115 48.2402L60.7306 50.923C60.26 51.1988 60.3195 50.9284 59.9517 51.215C60.8009 51.9615 61.2823 50.4524 61.5473 49.8087C62.1098 50.0684 62.3965 50.2469 63.2457 50.1495L63.5053 50.8148C63.5216 50.8418 63.5432 50.8797 63.5594 50.9067L63.673 51.0852C63.7704 51.2799 63.7812 51.188 63.819 51.5071C63.8353 51.6802 63.792 51.8749 63.7487 52.0642L63.2998 51.161C63.0185 51.3016 63.1808 52.1399 62.7968 51.1014C62.7859 51.0636 62.7643 51.0095 62.7535 50.9771L61.9259 50.7336C61.6717 51.3503 62.0341 52.1454 62.2775 52.6159C61.8502 52.3617 62.3532 52.5132 61.7583 52.3401L60.9686 53.0649L60.5737 52.4429L60.4547 53.2704C59.8381 53.146 60.0491 53.1568 59.4216 53.2596C58.5995 53.3948 59.3892 53.1785 58.6373 53.2055C58.1938 54.8228 58.7347 54.4387 59.4703 55.2879C60.6657 56.6726 58.9781 56.7105 60.3628 57.2405C60.3574 57.0837 60.3303 56.7916 60.3465 56.6455L60.4439 56.2886C60.4493 56.2291 60.4709 56.2128 60.4926 56.1858C60.5413 56.5482 60.4223 56.9809 60.5413 57.2514C60.6765 57.5488 60.5521 57.3271 60.7468 57.5002C61.0821 57.1648 60.8496 57.3433 61.0118 57.0728C61.2985 56.5915 61.6988 56.4454 62.0828 56.0776C62.6615 55.5205 62.4668 54.9418 63.8082 55.223C63.4837 55.4772 63.4675 55.4123 62.9969 55.5259L62.7481 56.6455C62.786 56.6618 62.84 56.6726 62.8671 56.678L63.2295 56.7754C63.5378 56.8619 63.3647 56.7483 63.6784 56.9106L63.6406 57.4839C63.1429 57.2784 62.6075 57.2297 62.1693 57.6678C62.5425 58.2033 62.8725 58.2249 63.4621 58.1925C64.0246 58.16 64.1436 58.2358 64.7223 58.5495L64.3653 58.636C63.9867 58.7658 64.0733 58.8956 63.6676 59.2689C62.1585 60.6698 63.2187 59.8747 62.0017 60.5291C61.1849 60.9672 61.2931 61.811 61.3093 62.6278C60.1681 62.4276 60.6873 62.6494 59.7029 62.7955C58.7185 62.9415 58.9024 62.6278 58.7671 63.7582L58.0261 63.9638L57.9342 64.9698C55.3217 66.3653 56.1384 65.6946 56.0032 67.1766C55.9599 67.6688 55.8085 67.6093 55.7003 67.988C56.3169 68.0799 55.9545 68.0204 56.3115 67.8906C56.7226 67.7392 56.4035 67.8419 56.8362 67.7067C57.1229 67.6148 57.5393 67.5228 57.6151 67.1117C57.6259 67.0576 57.6475 67.0414 57.6746 67.009C59.4324 67.0847 58.4589 66.7385 58.8483 65.9813L60.022 64.9428L59.876 65.8515C60.4331 65.8839 60.3628 66.0191 60.644 65.6243C60.8171 65.3809 60.6873 65.5107 60.763 65.3268C60.9361 64.9103 60.6224 65.3214 60.8928 65.0293C61.4013 65.4404 61.9259 68.5829 61.7042 69.47C61.001 70.1137 58.6968 70.8493 57.4366 71.0494C56.7983 71.1467 53.2176 72.2502 53.91 70.6113C53.9208 70.5896 53.9587 70.568 53.9641 70.5139C53.9695 70.4598 54.0073 70.4544 54.0236 70.4057L52.8066 70.0866L53.0283 71.0278C52.4063 70.779 52.6389 70.6978 52.1142 70.5842C51.7518 71.2063 52.1575 70.9683 51.4976 71.2549C50.9459 71.4983 51.0162 71.3577 50.6484 71.7039C50.0372 71.3956 50.5294 71.2008 49.4801 71.4172C48.6309 71.5957 48.7661 71.6876 48.0792 71.3577C47.3815 71.0223 47.587 71.2766 46.9163 71.5146C46.0076 71.8391 46.0671 71.4983 45.4559 71.401C45.4451 71.401 41.0152 72.0987 39.3276 71.6985C40.7394 76.2311 44.9096 80.6015 47.8412 82.7326C58.7401 90.6458 73.6794 88.3416 81.9821 78.1621C82.7609 77.2101 85.249 73.6078 85.5032 72.05C84.8163 71.9905 84.4647 72.0987 83.8265 72.1258C82.8745 72.169 83.2964 71.8715 82.7177 71.5957C82.2579 71.7201 81.5548 72.0068 81.1653 72.0663C80.4892 72.169 80.4081 71.7688 79.6346 71.7201C78.7746 71.666 78.542 72.0284 77.9849 72.1258C77.444 72.2177 77.6496 72.0609 77.0492 72.1907C76.676 72.2718 76.9951 72.3421 76.4812 72.3908C76.1459 72.05 76.1134 71.8986 75.8592 71.5957C74.983 71.5416 74.2636 71.6119 73.4036 71.6552C72.5436 71.6985 72.5706 71.3577 71.6295 71.0927C67.7946 70.0055 66.5127 71.1738 65.0739 67.6959C64.5546 66.4464 64.1706 65.0942 64.3437 63.5906C64.8521 64.4073 64.4735 64.7481 65.5823 64.6886C65.9718 64.2126 65.6364 64.4884 65.869 63.9854C66.6479 65.5107 66.1124 64.2937 65.8744 65.3376C66.0096 65.3755 66.2963 65.4187 66.4153 65.4728C67.0373 65.7649 67.8595 67.0522 69.2171 65.8731C69.1089 65.2727 68.7898 65.1699 68.157 65.0185L68.5572 64.748C69.0765 64.4019 69.7201 64.3586 70.0825 63.9692C69.7147 63.7041 69.9148 63.9151 69.6877 63.8123C69.0981 63.5581 69.3902 63.4607 68.6924 63.2227C68.0704 63.0118 67.8054 63.1687 67.8324 62.1085C68.3625 62.6548 68.157 62.3573 69.1252 62.3086C69.2982 62.7684 69.1522 62.5683 69.612 62.9415L69.6877 62.287C70.2881 62.4385 70.5044 62.2978 70.7424 61.9192C70.3584 61.2701 70.2556 61.7732 69.7742 61.2377C69.4605 60.8915 69.7742 60.9781 69.163 60.4534C69.3902 60.329 69.4335 60.3885 69.5362 60.329C69.8445 60.1505 69.612 60.3074 69.8499 60.0315C70.1583 59.6799 69.4118 59.9071 70.3638 59.6313C70.261 60.2641 70.3097 60.5724 70.5423 61.0484C71.3482 60.7293 70.6829 60.3452 71.9324 60.1775L72.1758 61.1187C72.6896 60.8158 72.5706 60.7942 72.8519 60.3182C73.1331 60.6643 72.933 60.805 73.1061 61.427C73.4468 61.162 73.1331 61.454 73.3549 61.07L73.6416 60.6048C73.8255 61.4973 73.793 61.4 74.6584 61.6434C74.6043 60.9456 74.2095 59.6799 73.8687 59.0579C73.5334 58.4467 73.9877 59.6367 73.9282 58.7009C73.0141 58.2249 72.0135 59.085 72.2136 57.5651L73.198 57.9383L73.7065 57.4298C73.7227 57.3974 73.7443 57.3595 73.7552 57.3271C73.766 57.2892 73.7822 57.2513 73.793 57.2135L73.7606 56.4779L72.7599 56.6293C72.7437 56.6023 72.7275 56.5536 72.7221 56.532C72.5868 56.2507 72.6247 56.1696 72.3218 55.9154C72.6031 55.0932 71.8729 56.6726 72.5165 55.6611C72.8465 55.1365 72.549 55.7909 72.5977 55.5367C72.6355 55.342 72.6734 55.4286 72.3218 55.3691C71.9324 55.2987 71.5159 55.461 71.2833 55.0932C71.1156 54.8282 71.332 54.9796 71.2995 54.7416C71.2671 54.509 71.3536 54.6605 71.0399 54.4495C70.4882 54.0763 70.6883 54.5199 70.4395 53.7356C70.2286 53.7518 69.9635 53.8059 69.8175 53.7734L69.1901 53.3624C68.9088 53.1893 69.1306 53.4056 68.8222 53.1514C69.1901 52.9567 69.1306 52.8864 69.5308 52.6863C70.1312 52.9242 69.7959 53.027 70.5693 53.2812C71.0615 53.4435 71.2725 53.4435 71.7268 53.6815C71.8458 53.5084 71.7106 53.7139 71.8242 53.3732C72.1271 52.4753 72.3759 53.1568 72.7599 52.2157C71.0074 51.5396 71.9161 52.5402 70.115 50.9338L69.1847 51.3827C69.0062 51.069 68.9196 50.5768 68.66 50.3821L67.3186 51.2042L66.5776 50.4957L67.3294 50.0467C67.5349 49.8628 67.5728 49.7222 67.7675 49.5221C68.1245 49.5707 68.6059 49.6465 68.9629 49.7438C69.5579 49.9061 69.3199 50.0197 69.5254 50.3875L70.6667 49.7925C70.6613 49.1056 70.6775 49.2787 70.2827 49.0299C70.4557 48.7215 70.5477 48.6458 70.4936 48.1969L69.6714 47.9968L69.5362 48.5106C69.5362 48.4944 69.5362 48.5593 69.5254 48.5809C69.255 48.4024 68.2381 48.5701 67.7675 47.9968C67.1293 47.2179 67.5025 47.6776 66.8642 47.4342C66.3504 47.2395 65.9339 46.2875 65.988 46.0874C66.3071 45.9414 66.0042 46.0117 66.4315 45.9955C67.6053 45.963 67.7783 46.8176 68.633 45.9576Z" fill="#295A3D"/>
<path fill-rule="evenodd" clip-rule="evenodd" d="M91.2908 65.4297C90.8473 69.5999 89.5492 73.305 87.8724 76.4422C84.5946 82.5704 78.7909 87.3248 72.3111 89.7264C68.5086 91.1327 63.8949 91.7331 59.4812 91.2679C44.6338 89.6993 31.9663 76.4097 33.7512 59.4853C35.3144 44.638 48.5931 31.9812 65.4797 33.7337C70.8777 34.2962 76.9465 36.7194 80.7273 40.0458C81.1438 40.4136 81.3547 40.5218 81.7063 40.8301C85.2978 44.0105 88.0671 48.1754 89.7385 52.708C91.1286 56.4834 91.756 61.0647 91.2908 65.4297ZM92.9027 65.1376C93.33 60.632 92.5944 55.7748 91.1231 51.9021C89.1002 46.5689 85.9198 42.1986 81.5278 38.6557C77.0655 35.0534 71.2996 32.6681 65.1822 32.1164C60.6009 31.7053 55.841 32.4031 51.9088 33.8905C49.0259 34.9831 46.8298 36.1839 44.4986 37.8985C43.8171 38.4015 42.8868 39.0722 42.3675 39.5807C40.9558 40.9707 39.9876 41.8308 38.657 43.4859C37.5699 44.8381 36.5584 46.3634 35.6335 48.0834C33.7945 51.5018 32.5288 55.3097 32.1231 59.7558C31.5281 66.3276 33.1129 72.8939 36.3691 78.2487C38.273 81.3805 40.6475 84.0633 43.4872 86.3566C53.288 94.2536 67.4215 95.2326 78.25 88.6446C79.11 88.1199 79.7158 87.7034 80.5163 87.1085C82.7718 85.4479 84.5892 83.7225 86.3525 81.5211C90.0197 76.9668 92.3131 71.374 92.9027 65.1376Z" fill="#295A3D"/>
<path fill-rule="evenodd" clip-rule="evenodd" d="M60.7847 34.6261C76.7355 33.6309 89.4463 45.9307 90.3929 60.6915C91.4152 76.6639 79.1424 89.391 64.4249 90.3754C48.3389 91.4518 35.5415 79.0817 34.6328 64.2235C33.6592 48.2403 45.959 35.551 60.7847 34.6261ZM34.146 64.1153C34.9357 79.2277 47.9548 91.7547 64.1112 90.8785C79.2398 90.0563 91.7884 77.0858 90.8851 60.8916C90.0413 45.763 77.1195 33.2685 60.9199 34.1339C45.7534 34.9398 33.3022 47.9211 34.146 64.1153Z" fill="#2B5B3F"/>
<path fill-rule="evenodd" clip-rule="evenodd" d="M58.7511 56.4779C58.6862 55.5909 58.9566 56.2453 59.2379 55.5314C58.9242 55.2609 59.081 55.4557 58.7835 55.3583L58.4861 55.2285C57.9668 54.8715 58.3454 54.8282 57.4908 54.9689C56.9932 55.05 56.858 54.693 56.3279 56.5158L55.3381 55.7423C55.0406 56.175 54.8405 56.3319 54.5808 56.6456C54.6458 56.8836 55.1921 57.749 54.6187 58.701C54.6133 58.7118 54.094 59.35 54.0237 59.4312C52.255 61.373 52.731 60.3182 51.7899 60.7023C51.6168 60.7726 50.6973 61.5731 50.5566 61.9193C51.3139 62.233 51.0759 61.8544 51.5356 62.5413L52.9474 62.4006C53.8344 62.5791 53.8831 62.1897 54.7918 62.1789C54.57 62.4331 54.7648 62.2384 54.5214 62.4169C54.4402 62.4764 54.3429 62.5359 54.2401 62.5954C54.0291 62.7252 54.0454 62.6981 53.7966 62.8712C54.3699 63.1687 54.2942 63.12 54.9432 62.6873C55.6085 62.2438 56.3171 61.2377 56.4631 60.4643C56.2089 60.1938 56.263 60.2966 56.0088 60.0748L55.6788 59.7665C55.6626 59.7124 55.6248 59.7124 55.5977 59.68C56.6308 59.3717 57.6585 58.9227 57.48 57.5543C57.0635 57.722 57.2366 57.7328 56.9229 57.9545C56.6795 58.1276 56.8904 58.0195 56.6957 58.0898C56.1765 58.2791 56.6254 57.5327 56.8742 57.1649C57.1717 56.7213 57.2745 56.6618 57.8208 56.4509C57.8532 56.4725 57.8911 56.5104 57.9127 56.5266C57.9344 56.5428 57.9776 56.5807 57.9993 56.6023C58.0209 56.6186 58.0588 56.651 58.0858 56.6726C58.4807 56.9647 58.9512 57.035 59.3569 56.5861C59.2162 55.9803 59.0864 56.0344 58.7511 56.4779Z" fill="#295A3D"/>
<path fill-rule="evenodd" clip-rule="evenodd" d="M53.1746 59.5556C53.061 59.1986 52.7257 59.442 52.9961 58.4197C53.2395 57.4948 53.1422 57.6624 53.5641 57.0891C52.8501 56.4833 53.4126 56.3048 51.7683 56.1804C51.9414 57.6408 51.2815 57.4569 50.957 57.6895C50.1997 58.2358 50.4377 58.8903 50.4107 59.0093L48.9016 59.2851C48.166 59.1878 48.7826 58.5495 47.9767 59.0742C47.6089 59.3122 47.6522 59.2797 47.6089 59.6529L48.4905 59.3771C48.7069 60.0099 49.3506 61.757 50.3079 61.1404C50.2268 60.7725 50.005 60.6319 49.767 60.3074L50.0267 60.2317C51.5411 59.8693 50.9029 58.5982 52.5905 58.1222C52.5093 58.9768 52.3849 58.9822 51.9576 59.4744L52.8825 59.972L53.1746 59.5556Z" fill="#295A3D"/>
<path fill-rule="evenodd" clip-rule="evenodd" d="M57.2417 63.504C57.5501 63.6122 58.026 63.7906 58.118 63.2281C58.2586 62.3681 57.669 63.1416 58.1612 62.1193C59.005 60.3777 59.1727 61.4161 59.5892 60.5994C59.3242 60.383 59.811 60.4588 59.1565 60.4642L58.2478 60.8698C57.3066 61.4702 57.7935 61.4811 57.2417 61.6109C56.7333 60.1397 58.8806 59.7178 59.4864 58.8902C59.5513 58.8037 59.7839 58.398 59.8001 58.3223L59.7298 57.7706C59.0591 58.0626 59.4377 58.279 58.4155 58.6955C57.5609 59.0362 57.8097 59.0633 57.4148 59.8854C56.8198 61.1133 56.279 60.7076 55.9436 62.8495L57.1065 62.7413C57.1877 62.8711 57.1985 62.8225 57.2526 63.0875C57.285 63.2281 57.2526 63.3688 57.2417 63.504Z" fill="#295A3D"/>
<path fill-rule="evenodd" clip-rule="evenodd" d="M54.0398 54.7362C54.8566 54.5794 54.7376 54.2008 55.3758 54.0277C55.9546 53.8708 55.7544 54.1575 56.1763 53.8167C56.3602 53.6653 56.2953 53.5409 56.6036 53.2272C57.4907 52.3239 58.3128 52.643 59.1242 51.6478L58.5725 51.2529C58.1452 51.4747 58.3615 51.2638 58.1235 51.8046L57.5285 51.3395C56.8741 51.7938 57.5177 51.5829 56.5441 51.8858C55.7598 52.1292 56.2899 52.1292 55.6246 52.4483L55.1865 51.8263C54.2453 51.875 54.0669 52.3834 53.6179 52.8486L54.6402 53.0649C54.9647 54.482 54.3157 53.8492 54.0398 54.7362Z" fill="#295A3D"/>
<path fill-rule="evenodd" clip-rule="evenodd" d="M51.9577 54.006C50.6542 54.0385 51.4222 55.0662 50.5838 54.693C49.8753 54.3792 50.8705 54.3198 49.9131 54.1575C49.5562 54.098 49.2857 54.244 49.1018 54.3468C49.1505 54.9039 49.4317 54.8282 50.0429 55.0716C49.5561 55.4394 50.0213 55.0283 49.3614 55.3637L49.1938 55.4773C49.594 56.916 51.2599 55.5962 52.1957 55.6936C52.742 55.7477 52.7636 55.9046 53.4343 55.8991L53.6615 55.1094C52.769 55.1257 53.6831 55.8775 51.644 55.196L51.9577 54.006Z" fill="#295A3D"/>
<path fill-rule="evenodd" clip-rule="evenodd" d="M63.2348 77.8322C64.084 77.0154 63.9596 75.4739 62.8887 74.8735V77.8592C63.0185 77.8647 63.1321 77.8538 63.2348 77.8322Z" fill="#295A3D"/>
<path fill-rule="evenodd" clip-rule="evenodd" d="M60.0654 77.7672C60.3142 78.0647 60.7037 78.2215 61.2554 78.3243V78.1296C60.8659 78.0971 60.5414 78.0214 60.2926 77.897C60.2115 77.8591 60.1357 77.8158 60.0654 77.7672ZM61.25 77.8104C61.1796 77.7942 61.1202 77.7672 61.0607 77.7401C60.893 77.659 60.7632 77.513 60.6604 77.2966C60.563 77.0802 60.5089 76.7665 60.5089 76.3555C60.5089 75.9985 60.5522 75.701 60.6334 75.4738C60.7145 75.2412 60.8281 75.0736 60.9687 74.9708C61.0336 74.9221 61.1256 74.8789 61.2337 74.8518L61.25 77.8104Z" fill="#295A3D"/>
<path fill-rule="evenodd" clip-rule="evenodd" d="M47.4573 79.0167C47.8359 79.1033 48.1659 79.0438 48.4255 78.8923C48.274 78.9086 48.1064 78.9194 47.9333 78.9194H47.4194C47.4303 78.9518 47.4465 78.9843 47.4573 79.0167ZM48.5228 76.8694C48.2416 76.6531 47.8251 76.5124 47.2572 76.4962C47.2572 77.1399 47.2031 77.8917 47.3113 78.5029C47.3167 78.5083 47.3221 78.5191 47.3329 78.5245C47.4032 78.5949 47.5006 78.6273 47.6304 78.6273C47.8251 78.6273 48.009 78.584 48.1713 78.4921C48.3389 78.4056 48.4634 78.2757 48.5499 78.1026C48.6364 77.935 48.6851 77.7457 48.6851 77.5347C48.6851 77.2967 48.6364 77.0804 48.5391 76.8911L48.5228 76.8694Z" fill="#295A3D"/>
<path fill-rule="evenodd" clip-rule="evenodd" d="M57.2419 63.5041C57.0472 63.3202 56.793 63.039 56.3441 63.3365C55.8086 63.6934 56.5063 63.2878 55.7274 64.0072C55.5003 64.2181 55.722 63.9585 55.576 64.1802C54.7971 65.381 54.8836 64.6021 54.6943 65.4838C55.7112 65.7056 55.3921 65.5649 56.1277 65.1917C56.5442 64.9808 56.7822 65.0889 57.1824 64.3425C57.442 63.8665 57.3826 64.0883 57.2419 63.5041Z" fill="#295A3D"/>
<path fill-rule="evenodd" clip-rule="evenodd" d="M50.0481 64.7859C51.2327 64.4938 51.8547 63.7744 52.2171 62.6385H50.4916C50.0914 63.4715 49.9183 63.6013 50.0481 64.7859Z" fill="#295A3D"/>
<path fill-rule="evenodd" clip-rule="evenodd" d="M47.5331 74.0784C47.4357 74.1379 47.3546 74.2353 47.3005 74.3759C47.241 74.5274 47.2518 75.555 47.2626 76.0905C47.6088 76.0905 47.863 76.0473 48.0307 75.9715C48.1984 75.8904 48.3282 75.7768 48.4201 75.6308C48.5121 75.4847 48.5553 75.2954 48.5553 75.0736C48.5553 74.8519 48.5121 74.6626 48.4201 74.5165C48.3282 74.3705 48.2038 74.2623 48.0361 74.1866C47.9171 74.1271 47.7494 74.0947 47.5331 74.0784Z" fill="#295A3D"/>
<path fill-rule="evenodd" clip-rule="evenodd" d="M59.0051 43.6481C58.1776 44.9029 58.9511 43.9888 57.8477 44.8867C59.1891 44.9949 60.1032 45.1518 60.7684 44.2268C61.4554 43.2749 61.1254 44.1565 61.2769 43.5453C60.5737 43.3722 60.8658 43.5561 60.2546 43.6697C59.8435 43.7454 59.4541 43.6319 59.0051 43.6481Z" fill="#295A3D"/>
<path fill-rule="evenodd" clip-rule="evenodd" d="M52.2659 64.721C53.7696 65.3268 54.1049 63.7095 54.1157 63.3039C53.2882 62.9253 52.0712 63.1903 52.2659 64.721Z" fill="#295A3D"/>
<path fill-rule="evenodd" clip-rule="evenodd" d="M62.1208 43.5778C62.5698 43.8158 63.1053 43.9943 63.7814 43.9564C64.306 45.5791 65.4798 43.805 64.2736 43.3127C64.2628 43.3344 64.2574 43.3506 64.2574 43.3885L64.1275 43.7617C63.6678 43.6643 62.1858 43.2695 62.1208 43.5778Z" fill="#2B5B3F"/>
<path fill-rule="evenodd" clip-rule="evenodd" d="M52.1306 75.6741L52.0225 75.8634C51.9305 76.0689 51.8818 76.3286 51.8818 76.6423V76.7721H52.8987C52.8987 76.3664 52.8771 76.0905 52.8338 75.9391L52.8176 75.8958C52.6769 75.739 52.4444 75.6849 52.1361 75.6633L52.1306 75.6741Z" fill="#295A3D"/>
<path fill-rule="evenodd" clip-rule="evenodd" d="M56.5171 45.4546C56.701 46.0009 56.4468 45.7467 56.9931 46.028C57.2689 45.7035 57.5394 45.287 57.707 44.7731C57.4474 44.6325 57.2473 44.3729 56.9336 44.6325C56.5333 44.9624 56.7984 44.9246 57.0634 45.1788L56.5171 45.4546Z" fill="#2B5B3F"/>
<path fill-rule="evenodd" clip-rule="evenodd" d="M56.9121 49.6519C56.1873 49.5113 56.4307 49.5275 56.0683 50.0576C55.7762 50.4795 55.7546 50.2686 55.6572 50.7662L56.2143 50.8311L56.9121 49.6519Z" fill="#2B5B3F"/>
<path fill-rule="evenodd" clip-rule="evenodd" d="M48.6851 58.6901C49.3449 58.5278 49.0258 58.6739 49.5559 57.2946C49.2368 57.3163 49.0366 57.4623 48.8149 57.7381C48.5066 58.1168 48.5498 58.1871 48.6851 58.6901Z" fill="#2B5B3F"/>
<path fill-rule="evenodd" clip-rule="evenodd" d="M52.1736 53.5194C52.7037 53.1137 52.4603 53.2543 52.8173 52.6648C53.0986 52.2104 53.2067 52.3186 53.5313 52.0157C52.6767 51.821 52.0979 52.4809 52.1736 53.5194Z" fill="#2B5B3F"/>
<path fill-rule="evenodd" clip-rule="evenodd" d="M69.0064 48.0563C69.1092 47.6723 68.2275 46.5851 67.7732 47.4235L68.736 48.0779C69.3039 48.2889 68.7684 48.1212 69.0064 48.0563Z" fill="#2B5B3F"/>
<path fill-rule="evenodd" clip-rule="evenodd" d="M58.3886 50.6904L57.4961 50.4524L57.1445 51.2096L58.3886 50.6904Z" fill="#2D5E41"/>
<path fill-rule="evenodd" clip-rule="evenodd" d="M67.8488 50.5821C68.2058 50.3874 68.0597 50.4956 68.3085 50.1656C67.957 49.7762 68.2436 49.9331 67.7298 49.7654C67.6649 50.1224 67.7028 50.3279 67.8488 50.5821Z" fill="#2D5E41"/>
<path fill-rule="evenodd" clip-rule="evenodd" d="M70.8453 62.6548C70.4505 62.2004 70.5208 62.6223 70.5208 62.6223C70.5641 62.8171 70.2612 62.8062 70.9048 63.1632C70.9319 62.9198 71.0022 62.8333 70.8453 62.6548Z" fill="#305E42"/>
<path fill-rule="evenodd" clip-rule="evenodd" d="M61.5205 70.2706C61.3258 70.7466 61.3474 70.8223 61.8883 70.8061C61.8721 70.303 61.8558 70.3842 61.5205 70.2706Z" fill="#305E42"/>
<path fill-rule="evenodd" clip-rule="evenodd" d="M55.8521 46.1307C56.4849 46.0117 56.2469 46.266 56.4038 45.5898C55.9332 45.79 56.0738 45.6602 55.8521 46.1307Z" fill="#305E42"/>
<path fill-rule="evenodd" clip-rule="evenodd" d="M37.9973 55.6665C38.0568 55.4502 38.1866 55.2879 38.3813 55.1797C38.5761 55.0716 38.7816 55.0445 38.998 55.1094C39.2143 55.1689 39.3766 55.2987 39.4847 55.4935C39.5929 55.6882 39.62 55.8937 39.5551 56.1101C39.4956 56.3264 39.3658 56.4887 39.171 56.5969C38.9763 56.705 38.7708 56.7321 38.5544 56.6672C38.3381 56.6077 38.1758 56.4779 38.0676 56.2831C37.9594 56.083 37.9378 55.8775 37.9973 55.6665ZM40.6314 49.2354L43.1898 50.5443L43.0222 50.8743L42.584 50.6471C42.6814 50.8689 42.7301 51.0906 42.7247 51.3016C42.7192 51.5179 42.6652 51.7235 42.5624 51.929C42.3785 52.2914 42.0864 52.5294 41.697 52.6538C41.3021 52.7782 40.9181 52.7403 40.5449 52.5456C40.1771 52.3563 39.9283 52.0696 39.8039 51.6748C39.6741 51.2853 39.7011 50.9067 39.8904 50.5443C39.9986 50.3334 40.1392 50.1657 40.3123 50.0413C40.4854 49.9169 40.6963 49.8358 40.9397 49.7979L40.4692 49.5545L40.6314 49.2354ZM40.2149 50.685C40.123 50.8689 40.0797 51.0582 40.0905 51.2583C40.1014 51.4584 40.1609 51.6477 40.2799 51.8208C40.3934 51.9939 40.5449 52.1291 40.7234 52.2211C40.9019 52.313 41.0966 52.3563 41.3075 52.3455C41.5185 52.3347 41.7078 52.2806 41.8809 52.167C42.054 52.0588 42.1838 51.9128 42.2757 51.7343C42.3677 51.5558 42.411 51.3611 42.4001 51.1555C42.3893 50.95 42.3352 50.7607 42.2216 50.5984C42.1135 50.4307 41.962 50.3009 41.7673 50.2036C41.4752 50.0521 41.1777 50.0251 40.8802 50.117C40.5828 50.2144 40.361 50.3983 40.2149 50.685ZM42.2054 47.0015L43.7848 45.1787L45.9538 47.061L45.7104 47.3369L43.801 45.6817L42.703 46.9474L44.6124 48.6025L44.369 48.8784L42.2054 47.0015ZM45.2939 43.7021L45.5048 43.9455L46.0782 43.4479L47.7495 45.3789L48.0254 45.1354L46.354 43.2045L46.9328 42.7069L46.7218 42.4635L45.2939 43.7021ZM51.6115 41.5981L51.963 41.5872C51.9738 41.809 51.9522 42.0091 51.8981 42.1822C51.844 42.3553 51.7575 42.5122 51.6439 42.6474C51.5303 42.788 51.3789 42.907 51.195 43.0152C50.7893 43.2478 50.3944 43.3018 50.0104 43.1666C49.6264 43.0314 49.3397 42.7988 49.1504 42.4635C48.9719 42.1497 48.907 41.809 48.9557 41.452C49.0206 40.9977 49.264 40.6515 49.6751 40.4135C50.1024 40.1701 50.5351 40.1322 50.9732 40.3107C51.2815 40.4351 51.5411 40.6623 51.7359 41.0031L49.4858 42.2958C49.6588 42.5825 49.886 42.761 50.1727 42.8421C50.4594 42.9232 50.7352 42.8853 50.9948 42.7339C51.1247 42.6582 51.2328 42.5662 51.3302 42.4526C51.4275 42.3391 51.4925 42.2255 51.5357 42.1011C51.579 41.9821 51.606 41.8144 51.6115 41.5981ZM51.2274 40.9273C51.0868 40.7813 50.9462 40.6785 50.8055 40.6244C50.6649 40.5704 50.508 40.5487 50.335 40.565C50.1619 40.5812 50.005 40.6299 49.8536 40.7164C49.6048 40.857 49.4425 41.0572 49.3559 41.3168C49.291 41.5061 49.291 41.7333 49.3614 41.9983L51.2274 40.9273ZM54.9704 39.8293L54.3537 40.0349C54.0779 40.1268 53.8453 40.1268 53.6614 40.0295C53.4775 39.9321 53.3423 39.7536 53.2557 39.4994L53.0232 38.8179L53.3639 38.7043L53.5316 39.1965C53.6398 39.5156 53.748 39.6941 53.867 39.7374C53.9805 39.7807 54.1428 39.7698 54.3483 39.6995L54.8622 39.5264L54.4565 38.3311L54.8027 38.2121L55.7222 40.9328L55.376 41.0517L54.9704 39.8293ZM59.4543 38.6881L57.8046 38.9856L58.048 40.3486L57.6856 40.4135L57.1826 37.5847L57.545 37.5198L57.7451 38.6448L59.3948 38.3473L59.1947 37.2223L59.5571 37.1573L60.0601 39.9862L59.6977 40.0511L59.4543 38.6881ZM65.0147 37.0924L64.9443 39.9646L64.5765 39.9537L64.5873 39.4615C64.4251 39.6454 64.252 39.7807 64.0573 39.8726C63.8626 39.9592 63.6516 40.0024 63.4244 39.997C63.0188 39.9862 62.678 39.8293 62.3968 39.5319C62.1155 39.229 61.9803 38.872 61.9911 38.4501C62.0019 38.039 62.1533 37.6874 62.4508 37.4008C62.7483 37.1141 63.0999 36.9789 63.511 36.9897C63.7436 36.9951 63.9599 37.0492 64.1438 37.152C64.3331 37.2547 64.4954 37.4116 64.636 37.6117L64.6468 37.0816L65.0147 37.0924ZM63.5272 37.3412C63.3217 37.3358 63.1324 37.3791 62.9539 37.4765C62.7754 37.5738 62.6347 37.7091 62.5266 37.8876C62.4184 38.066 62.3643 38.2608 62.3589 38.4609C62.3535 38.661 62.4022 38.8557 62.4995 39.0451C62.5969 39.229 62.7321 39.3804 62.9052 39.4832C63.0783 39.5914 63.2622 39.6454 63.4623 39.6509C63.6624 39.6563 63.8571 39.613 64.041 39.5156C64.2249 39.4183 64.3656 39.2831 64.4684 39.1154C64.5711 38.9423 64.6252 38.753 64.6306 38.5312C64.6414 38.2013 64.5387 37.92 64.3223 37.6928C64.1114 37.4657 63.8463 37.3521 63.5272 37.3412ZM68.4222 39.3534L68.168 39.2939L67.0754 40.3594L66.686 40.2675L67.8273 39.1749C67.6217 39.0991 67.4703 38.9801 67.3729 38.8179C67.2701 38.6556 67.2485 38.4717 67.2918 38.277C67.3513 38.0282 67.4703 37.8551 67.6488 37.7523C67.8327 37.6496 68.0436 37.6279 68.287 37.6874L69.1416 37.8821L68.498 40.6785L68.141 40.5974L68.4222 39.3534ZM68.7089 38.1147L68.4709 38.0606C68.2383 38.0066 68.0815 37.9849 67.9949 37.9957C67.9084 38.0066 67.8327 38.0444 67.7732 38.1039C67.7083 38.1634 67.665 38.2554 67.638 38.3743C67.6109 38.4879 67.6217 38.5907 67.665 38.6772C67.7083 38.7638 67.7678 38.8287 67.8381 38.8612C67.9084 38.8936 68.049 38.9369 68.2654 38.9856L68.5034 39.0396L68.7089 38.1147ZM77.0115 42.2201L76.6654 42.2147C76.6329 41.7928 76.4328 41.4682 76.0596 41.2302C75.7621 41.0409 75.4592 40.976 75.1401 41.0409C74.8264 41.1058 74.5775 41.2735 74.4045 41.544C74.2909 41.7225 74.2314 41.9118 74.2206 42.1281C74.2097 42.3391 74.2584 42.5392 74.3612 42.7285C74.464 42.9124 74.61 43.0693 74.8047 43.1937C75.1617 43.4208 75.5457 43.4695 75.9514 43.3289L76.092 43.648C75.8649 43.7454 75.6215 43.7832 75.3672 43.7508C75.1076 43.7183 74.8588 43.6264 74.6046 43.4641C74.2206 43.2153 73.9826 42.8908 73.8852 42.4905C73.7879 42.0848 73.8528 41.7116 74.0745 41.3655C74.226 41.1329 74.4207 40.9544 74.6695 40.83C74.9183 40.7056 75.1779 40.6515 75.4592 40.6731C75.7405 40.6948 76.0055 40.7867 76.2597 40.949C76.422 41.0517 76.5572 41.1762 76.6762 41.3222C76.7952 41.4682 76.8817 41.6089 76.9358 41.7549C76.9899 41.9009 77.017 42.0524 77.0115 42.2201ZM79.6998 46.2984L79.8133 46.6337C79.6024 46.7094 79.4023 46.7419 79.2238 46.7365C79.0453 46.7311 78.8668 46.6932 78.7045 46.6283C78.5368 46.558 78.38 46.4498 78.2285 46.3038C77.8878 45.9792 77.7255 45.6168 77.7471 45.2112C77.7688 44.8055 77.9094 44.4648 78.1744 44.1835C78.4233 43.9185 78.7316 43.7616 79.0885 43.7129C79.5429 43.648 79.9432 43.7778 80.2893 44.1078C80.6463 44.4485 80.8032 44.8542 80.7599 45.3248C80.7328 45.6601 80.5814 45.9684 80.3164 46.2551L78.4395 44.4647C78.2177 44.7081 78.1041 44.984 78.1095 45.2761C78.115 45.5736 78.2231 45.8278 78.4449 46.0387C78.5531 46.1415 78.6721 46.2226 78.8073 46.2821C78.9425 46.3416 79.0723 46.3741 79.2021 46.3795C79.3211 46.3795 79.4888 46.3579 79.6998 46.2984ZM80.2352 45.7413C80.338 45.5628 80.3921 45.4005 80.4029 45.249C80.4137 45.0976 80.3921 44.9407 80.3272 44.7839C80.2623 44.6216 80.1703 44.4864 80.0459 44.3674C79.8404 44.1727 79.6024 44.0699 79.332 44.0591C79.1318 44.0537 78.9155 44.1186 78.6775 44.2538L80.2352 45.7413ZM82.6801 46.8122L83.7726 48.3483L83.513 48.5322L83.0695 47.9102L80.9871 49.3922L80.7761 49.0947L82.8585 47.6127L82.4204 46.9961L82.6801 46.8122ZM84.0431 50.9933L84.2053 51.307C84.3352 51.5558 84.4163 51.7613 84.4487 51.9236C84.4812 52.0859 84.4596 52.2535 84.3784 52.4212C84.2973 52.5943 84.1675 52.7241 83.9944 52.8106C83.7835 52.9188 83.5671 52.935 83.3399 52.8647C83.1128 52.7944 82.9234 52.6105 82.772 52.3076L82.3339 51.4584L84.8923 50.1495L85.06 50.474L84.0431 50.9933ZM83.7456 51.1555L82.7828 51.6477L82.9775 52.0264C83.2047 52.4753 83.4751 52.6159 83.7889 52.4537C83.8754 52.4104 83.9511 52.3401 84.016 52.2481C84.0755 52.1562 84.1026 52.0534 84.0918 51.9452C84.0809 51.837 84.0106 51.664 83.8916 51.4314L83.7456 51.1555ZM87.0288 55.5584C87.0883 55.7747 87.0666 55.9802 86.9585 56.175C86.8503 56.3697 86.688 56.4995 86.4717 56.559C86.2553 56.6185 86.0498 56.5969 85.8551 56.4887C85.6603 56.3805 85.5305 56.2182 85.471 56.0019C85.4115 55.7855 85.4332 55.58 85.5413 55.3853C85.6495 55.1906 85.8118 55.0607 86.0281 55.0012C86.2445 54.9418 86.45 54.9634 86.6448 55.0716C86.8341 55.1797 86.9639 55.342 87.0288 55.5584Z" fill="#295A3D"/>
</svg>
