<svg width="125" height="125" viewBox="0 0 125 125" fill="none" xmlns="http://www.w3.org/2000/svg">
<g clip-path="url(#clip0_83_1301)">
<path fill-rule="evenodd" clip-rule="evenodd" d="M34.2157 77.3557C35.1896 77.3557 36.1697 77.3557 37.1436 77.3557C38.0869 77.3679 39.0424 77.3005 39.9673 77.5088C40.5615 77.6497 41.174 77.8885 41.566 78.3847C41.9396 78.8502 42.0438 79.4689 42.0131 80.0507C41.9764 80.7061 41.6456 81.3187 41.1495 81.7413C40.8126 82.0414 40.4083 82.2558 39.9918 82.4212C39.9918 82.4273 39.9979 82.4457 39.9979 82.458C40.5186 82.6601 41.0086 82.997 41.2965 83.487C41.6762 84.0995 41.7007 84.8652 41.5415 85.5451C41.3639 86.3168 40.8493 87.0151 40.1327 87.3643C39.0608 87.8972 37.8357 88.0013 36.6597 88.0074C35.1958 88.0074 33.7257 88.0074 32.2618 88.0074C32.9111 84.4548 33.5665 80.9022 34.2157 77.3557ZM36.3779 79.1013C36.2248 79.9405 36.0655 80.7796 35.9185 81.6188C36.4759 81.6127 37.0395 81.6188 37.5969 81.6188C38.1481 81.6004 38.7239 81.5147 39.1894 81.1962C39.4957 80.994 39.6427 80.6081 39.6243 80.2468C39.6304 79.8976 39.4895 79.5301 39.1894 79.3402C38.9076 79.1626 38.5646 79.1136 38.24 79.1013C37.6275 79.1013 37.0027 79.1013 36.3779 79.1013ZM35.5694 83.3951C35.404 84.32 35.2325 85.2449 35.0671 86.1698C35.8022 86.1637 36.5372 86.1821 37.2722 86.1515C37.7194 86.1208 38.191 86.0657 38.583 85.8207C38.8954 85.6186 39.0608 85.251 39.0792 84.8835C39.1159 84.4854 39.0546 84.0199 38.7239 83.7504C38.3503 83.4502 37.8541 83.4196 37.3947 83.3951C36.7822 83.3951 36.1758 83.3951 35.5694 83.3951ZM72.5473 79.7506C73.3926 79.6404 74.2746 79.6955 75.0709 80.014C75.6895 80.259 76.2285 80.7123 76.5471 81.3003C76.9452 82.0292 77.0187 82.8867 76.9574 83.7014C76.8901 84.5528 76.6389 85.3919 76.1857 86.1147C75.7937 86.7456 75.2485 87.2785 74.6054 87.6521C73.901 88.0686 73.0863 88.2769 72.2778 88.3014C71.4203 88.3259 70.5198 88.1728 69.8032 87.6766C69.2519 87.303 68.8538 86.7272 68.6578 86.0963C68.4373 85.3736 68.4312 84.6018 68.523 83.8606C68.6455 82.9663 68.9947 82.0966 69.5643 81.3922C70.2932 80.4795 71.3958 79.8976 72.5473 79.7506ZM72.8229 81.4105C72.2594 81.5147 71.7816 81.9006 71.4754 82.3722C71.0037 83.0889 70.8016 83.9525 70.7894 84.8039C70.7894 85.2572 70.8567 85.7288 71.1262 86.1025C71.3345 86.3904 71.6714 86.5802 72.0267 86.6047C72.633 86.666 73.2456 86.4087 73.656 85.9738C74.1888 85.4103 74.4645 84.6569 74.5931 83.9096C74.6666 83.3951 74.7095 82.8561 74.5564 82.3538C74.4584 82.0231 74.244 81.7229 73.9377 81.5575C73.607 81.3615 73.1966 81.337 72.8229 81.4105ZM90.2124 79.7506C91.0454 79.6465 91.9213 79.6955 92.7115 80.0018C93.373 80.2529 93.9365 80.7551 94.2489 81.3922C94.598 82.1088 94.6654 82.9235 94.6042 83.7075C94.5368 84.5957 94.2612 85.4838 93.765 86.225C93.4159 86.7578 92.9565 87.2111 92.4236 87.5541C91.6763 88.0319 90.7882 88.283 89.9061 88.3014C89.1099 88.3198 88.283 88.185 87.5908 87.7563C87.015 87.4132 86.5863 86.8558 86.3658 86.225C86.1085 85.4961 86.084 84.6998 86.1759 83.9403C86.2861 83.046 86.623 82.1762 87.1804 81.4657C87.9093 80.5163 89.0302 79.9037 90.2124 79.7506ZM90.4942 81.4105C89.9551 81.5147 89.4957 81.8761 89.1834 82.3232C88.7056 83.0092 88.4912 83.8484 88.4545 84.6753C88.4361 85.1408 88.4912 85.6369 88.7485 86.0412C88.92 86.323 89.2201 86.519 89.5447 86.5864C90.1573 86.7089 90.8065 86.4945 91.2537 86.0657C91.8233 85.5205 92.1235 84.7549 92.2643 83.9893C92.344 83.4931 92.393 82.9786 92.2766 82.4825C92.197 82.1394 92.0132 81.8087 91.7192 81.6127C91.3578 81.3677 90.9045 81.3309 90.4942 81.4105ZM42.2888 88.0013C42.7788 85.3368 43.2627 82.6662 43.7527 80.0018C44.5122 80.0018 45.2656 80.0018 46.0251 80.0018C45.8475 80.9879 45.6637 81.9741 45.48 82.9541C46.5029 82.9602 47.5319 82.9541 48.5548 82.9541C48.7386 81.968 48.9162 80.9818 49.1 80.0018C49.8656 80.0018 50.6313 80.0018 51.3969 80.0018C50.9069 82.6662 50.4108 85.3307 49.9208 88.0013C49.1612 88.0013 48.4017 88.0013 47.6422 88.0013C47.8321 86.9722 48.022 85.9371 48.2118 84.9081C47.1889 84.9081 46.1599 84.9081 45.137 84.9081C44.9471 85.9371 44.745 86.9722 44.5551 88.0013C43.8078 88.0074 43.0483 88.0013 42.2888 88.0013ZM52.328 80.0018C53.0753 80.0018 53.8287 80.0018 54.5759 80.0018C54.7413 81.092 54.9067 82.1823 55.0721 83.2726C55.213 84.2526 55.3906 85.2327 55.4763 86.2188C55.8683 85.5695 56.2114 84.9019 56.5727 84.2404C57.0199 83.3645 57.4548 82.4886 57.81 81.5759C58.006 81.0675 58.1776 80.5408 58.2694 80.0018C59.1331 80.0018 60.0029 80.0018 60.8665 80.0018C60.1315 81.6433 59.2923 83.2359 58.4042 84.7978C57.6875 86.0412 57.0076 87.3153 56.1317 88.4607C55.6417 89.0916 55.0721 89.6734 54.3983 90.0961C53.6755 90.5494 52.8547 90.825 52.0217 90.9842C51.8992 90.3105 51.7828 89.6306 51.6603 88.9568C52.4137 88.8282 53.1549 88.5709 53.7858 88.1299C53.2958 85.4226 52.8119 82.7152 52.328 80.0018ZM60.1621 88.0074C60.9094 88.0074 61.6505 88.0135 62.3978 88.0074C62.649 86.715 62.9001 85.4287 63.1512 84.1424C63.2553 84.1608 63.3227 84.2343 63.3717 84.3262C64.1313 85.5573 64.8908 86.7824 65.6503 88.0135C66.5507 88.0135 67.4511 88.0135 68.3515 88.0135C67.4266 86.617 66.5017 85.2266 65.5768 83.83C65.6809 83.7075 65.8157 83.6095 65.9321 83.4992C66.6058 82.8867 67.2612 82.2681 67.8983 81.6188C68.3821 81.1043 68.8783 80.5959 69.2826 80.014C68.3086 80.014 67.3347 80.0079 66.3608 80.014C66.2138 80.4611 65.9443 80.8654 65.6503 81.2329C65.1725 81.8271 64.5845 82.3048 64.0333 82.8316C63.7944 83.0399 63.5739 83.291 63.2676 83.4012C63.482 82.2681 63.7086 81.141 63.9291 80.014C63.1696 80.014 62.4162 80.014 61.6567 80.014C61.1667 82.6723 60.6644 85.3368 60.1621 88.0074ZM78.6786 80.014C79.8363 80.014 80.9878 79.9773 82.1455 79.9834C82.905 79.9773 83.6952 79.9773 84.4118 80.2529C84.8345 80.4121 85.2142 80.7368 85.3612 81.1717C85.5144 81.6494 85.5144 82.1885 85.3061 82.6478C85.0856 83.1195 84.6446 83.4441 84.1852 83.6646C84.0811 83.7136 83.9708 83.7504 83.8789 83.8116C84.2526 83.9464 84.6323 84.1302 84.8835 84.4548C85.1223 84.7427 85.2265 85.1163 85.2326 85.49C85.2387 85.9738 85.1346 86.4822 84.8345 86.8742C84.4914 87.3397 83.9402 87.6031 83.395 87.7624C82.5498 87.9951 81.6677 88.0197 80.8041 88.0074C79.6097 88.0074 78.4091 88.0074 77.2147 88.0074C77.7047 85.3429 78.1947 82.6785 78.6786 80.014ZM80.6816 81.4534C80.5836 82.0414 80.4794 82.6233 80.3753 83.2114C80.7367 83.2114 81.092 83.2114 81.4533 83.2114C81.8576 83.2114 82.2864 83.2236 82.6661 83.0521C82.905 82.948 83.101 82.7458 83.1623 82.4886C83.2297 82.2191 83.2174 81.8944 83.0153 81.6862C82.8131 81.5024 82.5253 81.4718 82.268 81.4534C81.7412 81.4534 81.2145 81.4534 80.6816 81.4534ZM80.1119 84.6569C80.0078 85.2755 79.8914 85.8942 79.7995 86.519C80.3079 86.5067 80.8224 86.519 81.3308 86.5129C81.729 86.4945 82.1577 86.4761 82.5069 86.2556C82.8866 86.0106 82.9601 85.4593 82.7641 85.0734C82.5804 84.761 82.1945 84.6875 81.8637 84.6692C81.2818 84.6385 80.6999 84.6569 80.1119 84.6569ZM31.8269 92.4298C32.1025 92.4298 32.3782 92.4298 32.6477 92.4298C32.7518 93.3424 32.8437 94.249 32.9478 95.1616C32.9968 95.131 33.0274 95.0759 33.0519 95.0269C33.4133 94.3225 33.787 93.6242 34.1361 92.9137C34.2157 92.7545 34.2892 92.5952 34.3505 92.4298C34.6322 92.4298 34.9201 92.4298 35.208 92.4298C35.0488 93.5507 34.8956 94.6716 34.7364 95.7925C34.5465 95.7925 34.3566 95.7925 34.1667 95.7925C34.3076 94.8554 34.4791 93.9182 34.5894 92.9811C34.081 93.9121 33.6032 94.8554 33.1132 95.7925C32.8988 95.7925 32.6906 95.7925 32.4762 95.7925C32.3659 94.8615 32.2679 93.9244 32.1638 92.9933C32.1393 93.0178 32.127 93.0423 32.1209 93.0791C31.9372 93.9917 31.7044 94.8921 31.49 95.7925C31.3246 95.7925 31.1654 95.7925 31 95.7925C31.2818 94.6716 31.5513 93.5507 31.8269 92.4298ZM67.9534 92.5339C68.1065 92.5339 68.2535 92.5339 68.4066 92.5339C68.4005 92.6503 68.3883 92.8096 68.5108 92.8708C68.6455 92.9321 68.8232 92.9198 68.9457 92.8341C69.0437 92.7667 69.0804 92.6442 69.111 92.5339C69.2642 92.5339 69.4173 92.5339 69.5643 92.5339C69.5276 92.8157 69.3132 93.0607 69.0375 93.1342C68.7497 93.2138 68.4312 93.2261 68.1555 93.0975C67.9534 92.9933 67.9166 92.7361 67.9534 92.5339ZM35.8879 93.6059C36.1881 93.3118 36.6168 93.1832 37.0272 93.1954C37.2477 93.2016 37.4805 93.3057 37.5723 93.514C37.7071 93.8263 37.5907 94.2245 37.309 94.4205C36.8925 94.7084 36.3657 94.7574 35.8757 94.7513C35.8573 94.9718 35.8573 95.2229 36.0165 95.3944C36.0962 95.4863 36.2187 95.4985 36.3351 95.4863C36.6229 95.4618 36.8863 95.327 37.1313 95.1861C37.1558 95.3148 37.1803 95.4495 37.1987 95.5782C36.8434 95.7619 36.4514 95.8905 36.0533 95.8783C35.8022 95.8844 35.551 95.7496 35.4408 95.523C35.3183 95.2964 35.3183 95.033 35.3366 94.788C35.3734 94.3409 35.5633 93.9121 35.8879 93.6059ZM36.4147 93.6855C36.1513 93.8263 36.0104 94.1142 35.9308 94.3899C36.2738 94.3837 36.6536 94.3837 36.9537 94.1877C37.1558 94.0652 37.1987 93.7038 36.966 93.5875C36.7822 93.5323 36.5801 93.5936 36.4147 93.6855ZM50.2025 93.4711C50.6068 93.2628 51.0723 93.1587 51.5317 93.2138C51.7583 93.2445 51.9972 93.3547 52.1013 93.5691C52.2177 93.7957 52.1687 94.0591 52.132 94.3041C52.0462 94.8002 51.9482 95.2903 51.8625 95.7864C51.6971 95.7864 51.5256 95.7864 51.3602 95.7864C51.3908 95.621 51.4214 95.4495 51.4459 95.2842C51.2683 95.5047 51.0662 95.719 50.7906 95.8048C50.521 95.8967 50.1658 95.8905 49.9636 95.6578C49.7125 95.3393 49.8228 94.8247 50.1658 94.6104C50.6007 94.3286 51.1397 94.298 51.642 94.2367C51.6665 94.0775 51.691 93.8937 51.6052 93.7467C51.5194 93.6181 51.3479 93.5813 51.2071 93.5875C50.8824 93.5997 50.57 93.7284 50.2822 93.8692C50.2515 93.7406 50.227 93.6058 50.2025 93.4711ZM50.717 94.7451C50.521 94.8064 50.3434 94.9779 50.3618 95.1984C50.3495 95.3454 50.4904 95.4679 50.6374 95.4495C51.1213 95.4556 51.5011 95.0208 51.5868 94.5736C51.2867 94.6104 50.9927 94.6533 50.717 94.7451ZM53.8164 93.2996C54.0798 93.1526 54.4228 93.1281 54.6862 93.2873C54.9251 93.4405 55.0047 93.7406 55.0169 94.0101C55.0292 94.4327 54.9496 94.8615 54.7352 95.229C54.5882 95.4801 54.3615 95.7007 54.0798 95.7987C53.7306 95.9212 53.2958 95.8722 53.0263 95.6026C52.9405 96.0498 52.8609 96.4969 52.7812 96.9441C52.6097 96.9441 52.4321 96.9441 52.2606 96.9441C52.4811 95.719 52.7077 94.494 52.9282 93.2689C53.0936 93.2689 53.259 93.2689 53.4244 93.2689C53.3876 93.4527 53.3448 93.6303 53.308 93.8141C53.4489 93.6242 53.602 93.4221 53.8164 93.2996ZM53.945 93.6365C53.749 93.7039 53.602 93.857 53.4856 94.0224C53.3325 94.2429 53.21 94.4879 53.1855 94.7574C53.1671 94.8982 53.112 95.0391 53.1243 95.1861C53.2774 95.5414 53.8042 95.5904 54.0614 95.3331C54.3125 95.082 54.4044 94.7206 54.4473 94.3837C54.4534 94.1755 54.4779 93.9366 54.3615 93.7529C54.2697 93.612 54.0859 93.5875 53.945 93.6365ZM56.4196 93.2261C56.7504 93.1709 57.124 93.171 57.4119 93.3608C57.6447 93.514 57.7549 93.7896 57.7794 94.0591C57.8223 94.5001 57.7059 94.9534 57.4548 95.3148C57.2281 95.6027 56.8913 95.8109 56.5237 95.8477C56.242 95.866 55.9296 95.866 55.6846 95.7129C55.458 95.5781 55.3355 95.327 55.2987 95.0698C55.2374 94.6042 55.3477 94.1142 55.6233 93.7345C55.8255 93.4833 56.1072 93.2934 56.4196 93.2261ZM56.5789 93.5936C56.2849 93.6487 56.0766 93.906 55.9725 94.1694C55.8684 94.4389 55.8193 94.7329 55.8622 95.0269C55.8929 95.2106 56.0031 95.4128 56.1991 95.4618C56.4686 95.5292 56.7565 95.4005 56.9219 95.1861C57.1301 94.9105 57.2159 94.5553 57.222 94.2184C57.2159 94.0346 57.1791 93.8325 57.0444 93.6977C56.9219 93.5752 56.7381 93.5568 56.5789 93.5936ZM71.6775 93.4711C72.0879 93.2751 72.5534 93.1587 73.0128 93.22C73.2456 93.2506 73.4845 93.3731 73.5825 93.5997C73.6805 93.8325 73.6315 94.0958 73.5947 94.3409C73.5089 94.8247 73.4171 95.3086 73.3252 95.7925C73.1598 95.7925 72.9883 95.7925 72.8229 95.7925C72.8536 95.6271 72.8903 95.4618 72.9087 95.2964C72.731 95.4985 72.5412 95.7129 72.2778 95.7987C72.0021 95.8967 71.6469 95.8967 71.4386 95.6639C71.1814 95.3393 71.2977 94.8125 71.6469 94.6042C72.0818 94.3286 72.6147 94.3041 73.1108 94.2367C73.1353 94.0775 73.1598 93.8937 73.0741 93.7467C72.9822 93.6058 72.7984 93.5875 72.6453 93.5936C72.3268 93.612 72.0328 93.7406 71.751 93.8692C71.7204 93.7406 71.6959 93.6058 71.6775 93.4711ZM72.1675 94.7574C71.947 94.8309 71.7633 95.0636 71.8429 95.3025C71.9103 95.474 72.1247 95.474 72.2778 95.4373C72.682 95.3454 72.9699 94.9718 73.0496 94.5797C72.7555 94.6165 72.4554 94.6655 72.1675 94.7574ZM74.1215 93.4588C74.1521 93.5813 74.1766 93.7039 74.2011 93.8264C74.4339 93.6916 74.6911 93.5752 74.9606 93.5691C75.077 93.5629 75.2056 93.6058 75.273 93.7038C75.4016 93.8815 75.3833 94.1142 75.3833 94.3286C75.077 94.3348 74.7646 94.3286 74.4584 94.3286C74.4339 94.4511 74.4155 94.5798 74.391 94.7023C74.7034 94.7084 75.0158 94.7023 75.3281 94.7023C75.2669 94.9166 75.1811 95.131 75.028 95.2903C74.8565 95.4679 74.587 95.5475 74.3542 95.474C74.195 95.4312 74.0725 95.3148 73.9683 95.1984C73.8765 95.3025 73.7846 95.3944 73.6866 95.4924C73.8765 95.7313 74.1766 95.8721 74.4767 95.866C74.8381 95.8844 75.2179 95.768 75.469 95.4985C75.7753 95.1616 75.9284 94.7084 75.959 94.2612C75.9713 94.004 75.9652 93.7222 75.812 93.5017C75.6895 93.3118 75.4629 93.2138 75.2485 93.1954C74.8504 93.1526 74.4522 93.2567 74.1215 93.4588ZM77.4291 93.318C77.6925 93.1587 78.0539 93.1342 78.3234 93.2935C78.5561 93.4405 78.648 93.7222 78.6602 93.9856C78.6786 94.3593 78.6174 94.7451 78.4642 95.0881C78.3111 95.4128 78.0416 95.7068 77.6863 95.817C77.3372 95.9273 76.9146 95.8783 76.6512 95.6088C76.5716 96.0559 76.4858 96.5031 76.4062 96.9563C76.2347 96.9563 76.057 96.9563 75.8855 96.9563C76.1122 95.7313 76.3327 94.5062 76.5593 93.2812C76.7247 93.2812 76.8901 93.2812 77.0554 93.2812C77.0187 93.465 76.9636 93.6426 76.9452 93.8264C77.0799 93.6242 77.2208 93.4343 77.4291 93.318ZM77.5761 93.6365C77.2698 93.7529 77.0738 94.0469 76.9329 94.3286C76.8104 94.5614 76.8104 94.8309 76.7553 95.082C76.7247 95.1984 76.8166 95.2903 76.8962 95.3638C77.1351 95.5475 77.5087 95.523 77.7108 95.3025C77.9436 95.0575 78.0355 94.7084 78.0784 94.3837C78.0967 94.1694 78.109 93.9366 77.9926 93.7467C77.9007 93.612 77.717 93.5875 77.5761 93.6365ZM85.6675 93.2322C85.9921 93.1893 86.3658 93.2138 86.6291 93.4343C86.8864 93.6548 86.9538 94.0223 86.9354 94.3409C86.9232 94.7451 86.7884 95.1555 86.5066 95.4495C86.231 95.7374 85.8329 95.8905 85.4347 95.8722C85.1468 95.8722 84.8406 95.7925 84.6568 95.5659C84.4608 95.327 84.4241 95.0024 84.4424 94.7023C84.4608 94.3654 84.565 94.0224 84.7732 93.7529C84.9815 93.4711 85.3184 93.2873 85.6675 93.2322ZM85.6552 93.6303C85.3061 93.7528 85.1223 94.1142 85.0427 94.4572C84.9815 94.7451 84.957 95.082 85.1346 95.3331C85.3061 95.5598 85.6491 95.5292 85.8696 95.3883C86.1698 95.1861 86.3106 94.8186 86.3596 94.4695C86.3903 94.2184 86.3841 93.9305 86.2126 93.7283C86.0718 93.5752 85.839 93.5752 85.6552 93.6303ZM88.4361 93.318C88.2278 93.4343 88.0931 93.6303 87.9522 93.8202C87.9889 93.6365 88.0318 93.4527 88.0686 93.2689C87.9032 93.2689 87.7378 93.2689 87.5724 93.2689C87.3458 94.494 87.1253 95.719 86.9048 96.9441C87.0763 96.9441 87.2478 96.9441 87.4254 96.9441C87.5112 96.4969 87.5908 96.0437 87.6704 95.5966C87.9216 95.8661 88.3258 95.9151 88.6688 95.817C89.0241 95.719 89.2997 95.4373 89.459 95.1126C89.6305 94.7635 89.6918 94.3654 89.6734 93.9734C89.6611 93.7038 89.557 93.4037 89.3059 93.2628C89.0364 93.1342 88.6933 93.1587 88.4361 93.318ZM88.4606 93.7038C88.6198 93.5997 88.8832 93.5691 89.0057 93.7467C89.1344 93.9611 89.1099 94.2306 89.0854 94.4695C89.0302 94.788 88.9322 95.131 88.6811 95.3515C88.4116 95.5965 87.9032 95.5169 87.7562 95.1678C87.7991 94.9473 87.8236 94.7206 87.8787 94.5062C87.9951 94.1939 88.1788 93.8876 88.4606 93.7038ZM79.9772 93.2689C80.3079 93.1893 80.6754 93.1893 80.9817 93.3547C81.2451 93.5017 81.3798 93.8019 81.4043 94.0959C81.4411 94.5491 81.337 95.033 81.043 95.3944C80.6693 95.8538 79.9833 96.0069 79.4382 95.7987C79.1686 95.6945 78.991 95.4373 78.942 95.1616C78.8746 94.7635 78.9236 94.347 79.1074 93.9856C79.2789 93.6304 79.6035 93.3669 79.9772 93.2689ZM80.2038 93.6181C79.9037 93.6855 79.6954 93.9488 79.5913 94.2245C79.4872 94.5062 79.432 94.8186 79.5055 95.1126C79.5423 95.278 79.6587 95.4434 79.8302 95.4802C80.0935 95.5414 80.3753 95.4189 80.5346 95.2107C80.7367 94.9534 80.8286 94.6226 80.8408 94.298C80.847 94.0897 80.8163 93.8631 80.6571 93.71C80.5468 93.5997 80.3631 93.5752 80.2038 93.6181ZM37.9521 93.2751C38.1971 93.6671 38.4483 94.0591 38.6994 94.445C38.4789 94.6471 38.2645 94.8615 38.0501 95.0698C37.8419 95.2903 37.6091 95.5047 37.4682 95.7803C37.6704 95.7803 37.8664 95.7803 38.0685 95.7803C38.3441 95.2964 38.7913 94.9534 39.1894 94.5736C39.122 94.9779 39.0424 95.376 38.9689 95.7803C39.1404 95.7803 39.3119 95.7803 39.4834 95.7803C39.5569 95.376 39.6304 94.9718 39.71 94.5736C39.9734 94.9718 40.2246 95.376 40.4757 95.7803C40.6717 95.7864 40.8616 95.7803 41.0576 95.7803C40.7942 95.3515 40.5063 94.935 40.2246 94.5124C40.6656 94.1326 41.125 93.759 41.4435 93.2689C41.223 93.2689 41.0086 93.2689 40.7881 93.2689C40.7085 93.5017 40.5431 93.6916 40.3716 93.8631C40.1633 94.0591 39.9551 94.249 39.7284 94.4205C39.7897 94.0346 39.8693 93.6548 39.9367 93.2689C39.7652 93.2689 39.5937 93.2689 39.4222 93.2689C39.3548 93.6487 39.2874 94.0285 39.2078 94.4083C38.9015 94.0775 38.7239 93.661 38.5095 93.2689C38.3258 93.2751 38.1359 93.2751 37.9521 93.2751ZM41.5292 95.3086C41.9641 94.7145 42.1785 93.9917 42.2949 93.2689C42.8768 93.2689 43.4648 93.2689 44.0467 93.2689C43.9181 93.9733 43.7894 94.6777 43.6608 95.3821C43.7711 95.3821 43.8813 95.3821 43.9977 95.3821C43.9303 95.7435 43.8691 96.0988 43.8017 96.4602C43.6424 96.4602 43.4893 96.4602 43.33 96.4602C43.3668 96.2336 43.4158 96.0069 43.4526 95.7803C42.8339 95.7803 42.2214 95.7803 41.6027 95.7803C41.5599 96.0069 41.5231 96.2336 41.4741 96.4602C41.3149 96.4602 41.1617 96.4602 41.0025 96.4602C41.0698 96.0988 41.1311 95.7435 41.1985 95.3821C41.3087 95.376 41.4619 95.4311 41.5292 95.3086ZM42.693 93.661C42.6011 94.0346 42.497 94.4021 42.3439 94.7513C42.2459 94.9779 42.1418 95.2106 41.958 95.3883C42.35 95.3822 42.742 95.3883 43.134 95.3883C43.2382 94.8125 43.3423 94.2367 43.4464 93.661C43.1953 93.661 42.9442 93.661 42.693 93.661ZM44.598 93.2751C44.7817 93.2751 44.9594 93.2751 45.1431 93.2751C45.2595 93.955 45.4004 94.6349 45.4922 95.3148C45.7066 94.9534 45.8781 94.5736 46.0558 94.1939C46.1966 93.8937 46.3314 93.5875 46.4233 93.2689C46.6254 93.2751 46.8275 93.2689 47.0297 93.2689C46.6499 94.0468 46.3069 94.8431 45.8659 95.5904C45.5106 96.1907 45.0206 96.7848 44.3101 96.9502C44.2672 96.7787 44.2305 96.6133 44.1937 96.4418C44.5673 96.3928 44.8981 96.1723 45.1247 95.8722C44.9594 95.0085 44.7756 94.1387 44.598 93.2751ZM47.0297 95.7803C47.2012 95.7803 47.3788 95.7803 47.5503 95.7803C47.6177 95.4189 47.6851 95.0636 47.7524 94.7023C48.1445 94.7023 48.5365 94.7023 48.9285 94.7023C48.8672 95.0636 48.7937 95.4189 48.7325 95.7803C48.904 95.7803 49.0816 95.7803 49.2531 95.7803C49.4063 94.9473 49.5533 94.1081 49.7064 93.2751C49.5288 93.2751 49.3573 93.2751 49.1857 93.2751C49.1306 93.6058 49.0632 93.9366 49.002 94.2674C48.61 94.2674 48.218 94.2674 47.8259 94.2674C47.8872 93.9366 47.9485 93.6058 48.0097 93.2751C47.8382 93.2751 47.6606 93.2751 47.4891 93.2751C47.3421 94.1081 47.1828 94.9473 47.0297 95.7803ZM58.7962 93.2751C58.7227 93.7773 58.5818 94.2674 58.3736 94.7329C58.2694 94.9656 58.1347 95.1923 57.9693 95.3883C57.8835 95.3883 57.7917 95.3883 57.7059 95.3883C57.6385 95.7497 57.5712 96.1049 57.5099 96.4663C57.6692 96.4663 57.8223 96.4663 57.9815 96.4663C58.0183 96.2397 58.0612 96.0131 58.104 95.7864C58.7227 95.7864 59.3352 95.7864 59.9539 95.7864C59.911 96.0131 59.8681 96.2397 59.8314 96.4663C59.9845 96.4663 60.1437 96.4663 60.303 96.4663C60.3704 96.1111 60.4378 95.7497 60.499 95.3883C60.3888 95.3883 60.2785 95.3883 60.1621 95.3883C60.2907 94.6839 60.4194 93.9795 60.548 93.2751C59.96 93.2751 59.3781 93.2751 58.7962 93.2751ZM59.2005 93.661C59.4516 93.661 59.7027 93.661 59.9539 93.661C59.8497 94.2367 59.7456 94.8125 59.6354 95.3883C59.2433 95.3944 58.8575 95.3883 58.4654 95.3944C58.6553 95.1923 58.7656 94.935 58.8758 94.6778C59.0167 94.347 59.1086 94.004 59.2005 93.661ZM61.2769 93.2751C61.4484 93.2751 61.626 93.2751 61.7975 93.2751C61.7363 93.6058 61.675 93.9366 61.6138 94.2674C62.0058 94.2674 62.3978 94.2674 62.7898 94.2674C62.8511 93.9366 62.9123 93.6058 62.9736 93.2751C63.1451 93.2751 63.3166 93.2751 63.4942 93.2751C63.3472 94.1142 63.1941 94.9473 63.041 95.7803C62.8695 95.7803 62.6918 95.7803 62.5203 95.7803C62.5877 95.4189 62.649 95.0636 62.7163 94.7023C62.3243 94.7023 61.9323 94.7023 61.5342 94.7023C61.4668 95.0636 61.3994 95.4189 61.332 95.7803C61.1605 95.7803 60.9829 95.7803 60.8114 95.7803C60.9645 94.9473 61.1177 94.1081 61.2769 93.2751ZM63.6474 95.7803C63.8005 94.9473 63.9475 94.1081 64.1006 93.2689C64.2721 93.2689 64.4498 93.2689 64.6213 93.2689C64.5661 93.6181 64.4865 93.9672 64.4314 94.3164C64.7683 94.3225 65.1174 94.2796 65.4421 94.3837C65.6074 94.4266 65.7544 94.5675 65.7728 94.7451C65.8218 95.033 65.7483 95.3577 65.5217 95.5537C65.3195 95.7252 65.0562 95.7864 64.7989 95.7803C64.4191 95.7803 64.0333 95.7803 63.6474 95.7803ZM64.364 94.6961C64.3211 94.9289 64.2783 95.1555 64.2415 95.3883C64.4743 95.3822 64.7131 95.4066 64.9459 95.3699C65.1787 95.327 65.3073 95.0575 65.2215 94.8493C65.1725 94.7329 65.0317 94.7084 64.9214 94.7023C64.7376 94.69 64.5539 94.6961 64.364 94.6961ZM65.8769 95.7803C66.0301 94.9411 66.1832 94.1081 66.3425 93.2751C66.514 93.2751 66.6855 93.2751 66.8631 93.2751C66.71 94.1142 66.5568 94.9473 66.4037 95.7864C66.2322 95.7803 66.0546 95.7803 65.8769 95.7803ZM67.0101 95.7803C67.1632 94.9411 67.3225 94.1081 67.4756 93.2689C67.6471 93.2689 67.8248 93.2689 67.9963 93.2689C67.8983 93.8202 67.7941 94.3715 67.6961 94.9166C68.2535 94.3715 68.7987 93.8141 69.3499 93.2689C69.4786 93.2689 69.6072 93.2689 69.7297 93.2689C69.5766 94.102 69.4234 94.9411 69.2703 95.7742C69.0988 95.7742 68.9212 95.7742 68.7497 95.7742C68.8538 95.2229 68.9518 94.6655 69.0498 94.1142C68.4924 94.6655 67.9411 95.2168 67.3899 95.7742C67.2674 95.7803 67.1387 95.7803 67.0101 95.7803ZM82.0414 93.2751C82.7886 93.2751 83.5298 93.2751 84.2771 93.2751C84.1239 94.1142 83.9647 94.9534 83.8116 95.7925C83.64 95.7925 83.4624 95.7925 83.2909 95.7925C83.4195 95.1004 83.5482 94.4143 83.6768 93.7222C83.2787 93.7222 82.8805 93.7222 82.4824 93.7222C82.3599 94.4143 82.2312 95.1004 82.1026 95.7925C81.9311 95.7925 81.7535 95.7925 81.582 95.7925C81.7351 94.9534 81.8882 94.1142 82.0414 93.2751ZM90.1144 93.2751C90.8494 93.2751 91.5844 93.2751 92.3195 93.2751C92.2888 93.4221 92.2643 93.5691 92.2398 93.7222C91.9581 93.7222 91.6763 93.7222 91.3946 93.7222C91.2659 94.4082 91.1434 95.0943 91.0087 95.7742C90.8494 95.817 90.6595 95.7803 90.488 95.7925C90.6167 95.1004 90.7453 94.4143 90.8739 93.7222C90.5922 93.7222 90.3104 93.7222 90.0286 93.7222C90.0593 93.5691 90.0838 93.4221 90.1144 93.2751Z" fill="#009291"/>
<path fill-rule="evenodd" clip-rule="evenodd" d="M65.1052 51.5869C62.7409 52.3893 60.2601 52.9467 57.6876 53.2223C57.8284 53.1856 58.0734 53.1121 58.4287 52.9834C60.2785 52.2913 61.9568 51.1581 63.2921 49.7064L63.2983 49.7003C63.3656 49.6268 63.4269 49.5533 63.4943 49.4798C63.5126 49.4614 63.531 49.4369 63.5494 49.4124C64.2477 48.4569 64.6152 47.2074 64.6152 45.8966C64.6152 44.9962 64.4253 44.1448 64.0884 43.3669C64.0823 43.3485 64.07 43.3301 64.0639 43.3117C64.0455 43.275 64.0333 43.2382 64.0149 43.2015C64.0149 43.2015 64.0149 43.1954 64.0088 43.1954C63.9843 43.1525 63.9659 43.1035 63.9414 43.0606C63.9169 43.0177 63.8985 42.9748 63.874 42.932L63.8618 42.9136C63.8434 42.8768 63.8189 42.8401 63.8005 42.8033C63.7944 42.7911 63.7883 42.785 63.7821 42.7727C63.7515 42.7176 63.7209 42.6686 63.6903 42.6135C63.6535 42.5522 63.6106 42.491 63.5739 42.4297C63.5433 42.3868 63.5126 42.3378 63.482 42.295C63.4698 42.2766 63.4575 42.2582 63.4453 42.2459C63.4024 42.1847 63.3534 42.1173 63.3044 42.0561C63.286 42.0316 63.2676 42.0071 63.2431 41.9764C63.2186 41.9458 63.1941 41.9091 63.1635 41.8784C63.139 41.8539 63.1206 41.8233 63.0961 41.7988C62.992 41.6763 62.8817 41.5599 62.7715 41.4435C62.7531 41.4252 62.7347 41.4068 62.7164 41.3884C62.6796 41.3517 62.6429 41.3149 62.6 41.2843L62.5939 41.2782C62.5693 41.2598 62.5448 41.2353 62.5203 41.2169C61.7302 40.5186 60.7747 39.998 59.7334 39.7469C59.6844 39.7346 59.6293 39.7224 59.5802 39.7101C59.5741 39.7101 59.568 39.7101 59.568 39.704C59.5435 39.6979 59.5251 39.6979 59.5006 39.6917C59.4945 39.6917 59.4884 39.6917 59.4822 39.6856C59.4639 39.6795 59.4394 39.6795 59.421 39.6734C59.4149 39.6734 59.4026 39.6734 59.3965 39.6672C59.3781 39.6611 59.3536 39.6611 59.3352 39.655C59.3291 39.655 59.323 39.655 59.3107 39.6489C59.2862 39.6427 59.2679 39.6427 59.2434 39.6366C59.2372 39.6366 59.2311 39.6366 59.225 39.6366C59.2005 39.6305 59.1821 39.6305 59.1576 39.6244C59.1515 39.6244 59.1454 39.6244 59.1392 39.6244C59.1147 39.6182 59.0902 39.6182 59.0719 39.6182C59.0657 39.6182 59.0596 39.6182 59.0535 39.6182C59.029 39.6182 59.0045 39.6121 58.98 39.6121C58.9739 39.6121 58.9739 39.6121 58.9677 39.6121C58.9432 39.6121 58.9187 39.606 58.8942 39.606C58.8881 39.606 58.8881 39.606 58.882 39.606C58.8575 39.606 58.833 39.5999 58.8023 39.5999C58.7962 39.5999 58.7962 39.5999 58.7901 39.5999C58.7656 39.5999 58.735 39.5937 58.7105 39.5937H58.7043C58.6737 39.5937 58.6492 39.5876 58.6186 39.5876C58.6186 39.5876 58.6186 39.5876 58.6125 39.5876C58.5022 39.5815 58.392 39.5815 58.2817 39.5815C58.2205 39.5815 58.1592 39.5815 58.0979 39.5815C58.0918 39.5815 58.0918 39.5815 58.0857 39.5815C58.0367 39.5815 57.9816 39.5876 57.9326 39.5876C57.9264 39.5876 57.9203 39.5876 57.9142 39.5876C57.8897 39.5876 57.8652 39.5876 57.8407 39.5937C57.8039 39.5937 57.7672 39.5999 57.7304 39.606C57.6324 39.6182 57.5344 39.6244 57.4425 39.6427C57.3997 39.6305 57.3507 39.6244 57.3078 39.6121C57.2955 39.6121 57.2833 39.606 57.2649 39.606C56.7565 39.508 56.1379 39.4957 55.605 39.557C55.5866 39.557 55.5744 39.5692 55.5744 39.5815V39.5876V39.5937C55.5744 39.5937 55.5744 39.5937 55.5744 39.5999C55.5744 39.5999 55.5744 39.606 55.5805 39.606C55.5927 39.6182 55.5989 39.6305 55.6172 39.6427C55.6234 39.6489 55.6295 39.655 55.6356 39.6611C55.6479 39.6734 55.6601 39.6856 55.6724 39.704C55.6846 39.7162 55.703 39.7346 55.7152 39.753L55.7214 39.7591C55.7336 39.7714 55.7397 39.7775 55.752 39.7897C55.7581 39.802 55.7704 39.8081 55.7826 39.8204C55.948 39.9919 56.1869 40.2491 56.4931 40.5676L53.1182 43.8385C52.916 44.0284 52.9466 44.4082 53.1304 44.6103C53.9328 45.5168 54.8026 44.6348 55.7214 44.6531C56.4196 44.696 57.3874 45.3514 58.2878 44.7695C57.4487 49.051 54.3922 50.417 50.0923 51.6236C45.0758 53.0263 41.419 53.8042 41.419 53.8042C41.7926 54.1901 42.3317 54.3432 42.8584 54.2636C45.5351 53.8471 48.0955 53.743 50.8335 53.8594C60.4072 54.2697 69.5092 58.196 76.7492 64.5662C77.7109 65.4115 78.9237 66.6978 78.9237 66.6978C79.1442 66.0608 78.9665 65.4972 78.5684 65.0746L65.1052 51.5869Z" fill="#009291"/>
<path fill-rule="evenodd" clip-rule="evenodd" d="M76.3205 61.5832C78.0049 58.5512 78.8624 54.7536 78.8624 50.2332C78.8624 48.2364 78.7032 46.3804 78.3847 44.6715C78.1335 44.9043 77.8763 45.1309 77.6129 45.3575C77.8579 46.8582 77.9865 48.4753 77.9865 50.2332C77.9865 54.5576 77.1658 58.1286 75.6712 60.9339L76.3205 61.5832Z" fill="#009291"/>
<path fill-rule="evenodd" clip-rule="evenodd" d="M61.8651 68.5721C53.6144 68.5721 47.5382 64.0027 46.0804 54.772C45.7864 54.7903 45.4985 54.8148 45.2045 54.8455C45.8232 58.8575 47.2871 62.1283 49.6024 64.6091C52.5548 67.7758 56.7995 69.4541 61.8712 69.4541C66.9919 69.4541 71.255 67.7574 74.2074 64.5539C74.3789 64.3702 74.5443 64.1742 74.7035 63.9843C74.4769 63.8005 74.2503 63.6229 74.0175 63.4453C71.1754 66.8448 66.9674 68.5721 61.8651 68.5721Z" fill="#009291"/>
<path fill-rule="evenodd" clip-rule="evenodd" d="M45.78 51.8625C45.7555 51.3296 45.7372 50.7905 45.7372 50.2332C45.7372 38.1175 51.6847 31.8698 61.8648 31.8698C66.3975 31.8698 70.1768 33.1377 72.9331 35.7164C73.2639 35.6306 73.6007 35.551 73.9315 35.4775C71.0098 32.5068 66.9549 31 61.8587 31C56.4808 31 52.2605 32.6599 49.3327 35.9247C46.3681 39.2323 44.8613 44.0467 44.8613 50.2332C44.8613 50.8641 44.8796 51.4766 44.9164 52.0768C45.192 52.0095 45.4799 51.936 45.78 51.8625Z" fill="#009291"/>
<path fill-rule="evenodd" clip-rule="evenodd" d="M76.3205 61.5832C78.0049 58.5512 78.8624 54.7536 78.8624 50.2332C78.8624 48.2364 78.7032 46.3804 78.3847 44.6715C78.1335 44.9043 77.8763 45.1309 77.6129 45.3575C77.8579 46.8582 77.9865 48.4753 77.9865 50.2332C77.9865 54.5576 77.1658 58.1286 75.6712 60.9339L76.3205 61.5832Z" fill="#009291"/>
<path fill-rule="evenodd" clip-rule="evenodd" d="M74.0114 63.4269C71.1754 66.8386 66.9735 68.5721 61.8651 68.5721C53.6144 68.5721 47.5382 64.0027 46.0804 54.772C45.7864 54.7903 45.4985 54.8148 45.2045 54.8455C45.8232 58.8575 47.2871 62.1283 49.6024 64.6091C52.5548 67.7758 56.7995 69.4541 61.8712 69.4541C66.9919 69.4541 71.255 67.7574 74.2074 64.5539C74.3789 64.3702 74.5443 64.1742 74.7035 63.9843C74.4647 63.7883 74.238 63.6045 74.0114 63.4269Z" fill="#009291"/>
<path fill-rule="evenodd" clip-rule="evenodd" d="M45.78 51.8625C45.7555 51.3296 45.7372 50.7905 45.7372 50.2332C45.7372 38.1175 51.6847 31.8698 61.8648 31.8698C66.3975 31.8698 70.1768 33.1377 72.9331 35.7164C73.2639 35.6306 73.6007 35.551 73.9315 35.4775C71.0098 32.5068 66.9549 31 61.8587 31C56.4808 31 52.2605 32.6599 49.3327 35.9247C46.3681 39.2323 44.8613 44.0467 44.8613 50.2332C44.8613 50.8641 44.8796 51.4766 44.9164 52.0768C45.192 52.0095 45.4799 51.936 45.78 51.8625Z" fill="#009291"/>
<path fill-rule="evenodd" clip-rule="evenodd" d="M56.5176 40.5554L55.9847 41.0699C56.0092 41.0883 55.9847 41.0699 55.9847 41.0699L56.5176 40.5554Z" fill="#009291"/>
<path fill-rule="evenodd" clip-rule="evenodd" d="M81.1043 40.6105C82.4457 39.024 83.6646 37.3212 84.7427 35.5204C83.9219 35.4653 83.095 35.4408 82.262 35.4408C78.642 35.4408 75.1445 35.9614 71.8369 36.9292C71.8369 36.9415 71.8369 36.9415 71.8369 36.9292C69.84 37.5111 67.9167 38.2645 66.0792 39.1588L66.0485 39.1772C66.416 40.7268 66.4712 42.3684 66.1588 44.0345C65.7729 46.0864 64.848 47.9117 63.5556 49.4185C63.5372 49.443 63.5188 49.4675 63.5004 49.4859C62.1406 51.0478 60.3827 52.2606 58.4349 52.9895C58.0735 53.1181 57.8346 53.1916 57.6937 53.2284C63.0104 52.6526 67.929 50.8886 72.2472 48.2363C70.9855 47.6299 69.8645 47.2073 68.9151 46.9194C68.9274 46.9072 68.9335 46.8949 68.9458 46.8765C68.9703 46.8459 68.9948 46.8092 69.0193 46.7724C70.0973 47.0052 71.3713 47.3482 72.8108 47.875C74.0174 47.1032 75.1751 46.264 76.2776 45.3575C74.1093 44.7205 72.1799 44.3713 70.5383 44.1998C70.5689 44.1386 70.5934 44.0773 70.6241 44.0099C70.6241 44.0099 70.6241 44.0099 70.6241 44.0038C72.431 44.0406 74.5319 44.2366 77.0004 44.745C78.2071 43.7037 79.3464 42.5828 80.4183 41.3945C76.9453 40.8065 73.9194 40.8187 71.5428 41.0454V41.0392C71.5551 40.9718 71.5673 40.9045 71.5796 40.831C74.2257 40.4145 77.3863 40.2123 81.1043 40.6105ZM57.6876 53.2223C57.8285 53.2039 57.8285 53.2039 57.6876 53.2223V53.2223Z" fill="#009291"/>
<path fill-rule="evenodd" clip-rule="evenodd" d="M71.8429 36.9537C71.8429 36.9476 71.8429 36.9353 71.8429 36.923C69.8461 37.5049 67.9227 38.2583 66.0852 39.1526L66.0546 39.171C66.4221 40.7207 66.4772 42.3622 66.1648 44.0283C65.7789 46.0802 64.854 47.9056 63.5616 49.4124C63.5432 49.4369 63.5248 49.4613 63.5065 49.4797C62.1467 51.0416 60.3887 52.2544 58.4409 52.9833C58.0795 53.112 57.8406 53.1855 57.6998 53.2222C57.8345 53.1977 58.7594 53.0569 59.3536 52.8608C63.3717 51.5378 66.3486 50.2086 68.8415 47.0113C68.8783 46.9623 68.915 46.9194 68.9456 46.8704C69.6317 45.97 70.2258 44.9593 70.6975 43.8445C70.7342 43.7527 70.7771 43.6547 70.8138 43.5567C71.1752 42.6379 71.4509 41.6456 71.6285 40.5798C71.6407 40.4879 71.6591 40.4022 71.6714 40.3103C71.8306 39.269 71.8919 38.1481 71.8429 36.9537Z" fill="#009291"/>
<path fill-rule="evenodd" clip-rule="evenodd" d="M62.7284 41.3945C61.9015 40.6043 60.8725 40.0224 59.7516 39.7529C59.2861 39.6427 58.8022 39.5876 58.2999 39.5876C58.1529 39.5876 58.0059 39.5937 57.8589 39.5998C57.7241 39.612 57.5955 39.6243 57.4608 39.6427C56.9217 39.514 56.2235 39.4896 55.6232 39.5569C55.5926 39.5631 55.5864 39.5814 55.6048 39.5998C55.7089 39.71 56.0336 40.0531 56.5175 40.5615L56.0213 41.0392C59.3657 41.1495 62.0424 43.8936 62.0424 47.2624C62.0424 50.0494 60.2049 52.3954 57.6935 53.2223C57.8344 53.1855 58.0794 53.112 58.4347 52.9834C60.3825 52.2545 62.1404 51.0356 63.5002 49.4798C63.5186 49.4614 63.537 49.4369 63.5553 49.4124C64.2536 48.4569 64.6211 47.2073 64.6211 45.8965C64.6211 44.1325 63.8984 42.5399 62.7284 41.3945Z" fill="#009291"/>
</g>
<defs>
<clipPath id="clip0_83_1301">
<rect width="125" height="125" fill="white"/>
</clipPath>
</defs>
</svg>
