<svg width="125" height="125" viewBox="0 0 125 125" fill="none" xmlns="http://www.w3.org/2000/svg">
<g clip-path="url(#clip0_32_615)">
<path fill-rule="evenodd" clip-rule="evenodd" d="M120.17 56.3312C119.043 55.2249 117.242 55.2249 116.121 56.3312L114.703 57.7352L113.277 56.3312C112.157 55.2249 110.349 55.2249 109.228 56.3312C108.115 57.4303 108.115 59.2315 109.228 60.3307L110.654 61.7418L114.703 65.7414L120.17 60.3307C121.284 59.2315 121.284 57.4303 120.17 56.3312Z" fill="#FF5B00"/>
<path fill-rule="evenodd" clip-rule="evenodd" d="M13.7435 62.8694C13.7435 64.9968 11.8147 66.0605 9.09867 66.0605C5.7161 66.0463 4.37584 64.4791 4 62.3659H6.73726C6.94291 63.5785 7.6804 64.0111 9.04194 64.0111C10.4035 64.0111 11.0133 63.5289 11.0133 62.685C11.0133 62.0681 10.7084 61.5859 9.49579 61.5859H7.75841V59.5294H9.21213C10.3467 59.5294 10.68 59.1748 10.68 58.5224C10.68 57.8771 10.2262 57.3027 8.90721 57.3027C7.97824 57.3027 7.15565 57.5651 6.94291 58.6359H4.20565C4.53185 56.8205 5.79411 55.3242 8.94975 55.3242C11.5523 55.3242 13.4031 56.3879 13.4031 58.338C13.4457 59.2245 12.9351 60.04 12.1196 60.3874C13.1478 60.7775 13.8002 61.7844 13.7435 62.8694Z" fill="#1D1D1B"/>
<path fill-rule="evenodd" clip-rule="evenodd" d="M27.5149 63.3021V68.4221H24.8131V65.8266H17.0126V68.4221H14.3179V63.3021H16.1687C16.5233 63.0043 16.7502 62.4015 16.9275 61.3591L17.8706 55.5442H25.6286V63.295H27.5149V63.3021ZM22.9197 63.3021V58.0687H20.1682L19.6009 61.4867C19.5371 62.125 19.3385 62.7419 19.0194 63.3021H22.9197Z" fill="#1D1D1B"/>
<path fill-rule="evenodd" clip-rule="evenodd" d="M39.3432 60.6853C39.3432 63.848 37.3009 66.0464 34.5991 66.0464C33.3085 66.0818 32.0817 65.4861 31.3087 64.4508V70.4926H28.614V55.5512H31.3087V56.9907C32.0604 55.927 33.2943 55.303 34.5991 55.3243C37.2654 55.3243 39.3432 57.5155 39.3432 60.6853ZM36.606 60.6853C36.606 59.0047 35.4855 57.87 33.9751 57.87C32.4433 57.87 31.2236 59.1607 31.3158 60.6853C31.2236 62.217 32.4433 63.5077 33.9751 63.5077C35.4784 63.5077 36.606 62.3872 36.606 60.6853Z" fill="#1D1D1B"/>
<path fill-rule="evenodd" clip-rule="evenodd" d="M51.0653 55.5513V65.8267H48.3494V64.4439C47.5977 65.4792 46.378 66.0749 45.1015 66.0394C42.3855 66.0394 40.3645 63.8411 40.3645 60.6784C40.3645 57.5156 42.421 55.3244 45.0873 55.3244C46.3921 55.296 47.626 55.9201 48.3777 56.9909V55.5513H51.0653ZM48.3706 60.6855C48.4628 59.1537 47.2431 57.8631 45.7114 57.8702C44.2009 57.8702 43.0805 59.0048 43.0805 60.6855C43.0805 62.3661 44.2151 63.5078 45.7114 63.5078C47.2431 63.5078 48.4628 62.2172 48.3706 60.6855Z" fill="#1D1D1B"/>
<path fill-rule="evenodd" clip-rule="evenodd" d="M61.6455 62.8553C61.6455 64.9828 60.0003 65.8195 57.8729 65.8195H52.4055V55.5513H57.4262C59.5039 55.5513 61.1491 56.0831 61.1491 58.1467C61.1491 59.2104 60.5818 59.7706 59.8089 60.2741C60.9577 60.579 61.7306 61.664 61.6455 62.8553ZM57.1851 57.6432H55.0577V59.6217H57.1851C58.114 59.6217 58.4119 59.2884 58.4119 58.6502C58.4119 58.012 58.0928 57.6432 57.1851 57.6432ZM58.9225 62.6142C58.9225 61.8838 58.5892 61.5505 57.6815 61.5505H55.0577V63.7559H57.646C58.5963 63.7347 58.9012 63.3588 58.9012 62.6142H58.9225Z" fill="#1D1D1B"/>
<path fill-rule="evenodd" clip-rule="evenodd" d="M62.4327 60.6854C62.4043 59.2458 62.9645 57.8559 63.9928 56.8419C65.0139 55.8278 66.4109 55.2818 67.8505 55.3243C70.3821 55.3243 72.6371 56.8348 73.0271 59.4515H70.2473C69.9282 58.4091 68.9354 57.7212 67.8505 57.7921C66.2053 57.7921 65.1487 58.9835 65.1912 60.6854C65.2337 62.3873 66.2549 63.5857 67.8505 63.5857C68.9496 63.6567 69.9566 62.9546 70.2686 61.898H73.0413C72.63 64.6069 70.3395 66.0464 67.8505 66.0464C66.4109 66.0961 65.0139 65.543 63.9857 64.5289C62.9645 63.5219 62.4043 62.132 62.4327 60.6854Z" fill="#1D1D1B"/>
<path fill-rule="evenodd" clip-rule="evenodd" d="M84.0473 55.5513V65.8266H81.3455V62.1817L81.5157 59.1324L77.2254 65.8195H74.1052V55.5513H76.807V59.1962L76.6865 62.2029L80.9413 55.5513H84.0473V55.5513Z" fill="#1D1D1B"/>
<path fill-rule="evenodd" clip-rule="evenodd" d="M94.2515 58.0687H91.0604V65.8195H88.3586V58.0687H85.1675V55.5513H94.2657V58.0687H94.2515V58.0687Z" fill="#1D1D1B"/>
<path fill-rule="evenodd" clip-rule="evenodd" d="M105.236 55.5513V65.8266H102.534V62.1817L102.704 59.1324L98.4212 65.8195H95.3081V55.5513H98.0099V59.1962L97.8752 62.21L102.13 55.5584H105.236V55.5513Z" fill="#1D1D1B"/>
<path fill-rule="evenodd" clip-rule="evenodd" d="M110.654 61.7418L109.228 60.3307C108.115 59.2315 108.115 57.4303 109.228 56.3312C110.349 55.2249 112.157 55.2249 113.277 56.3312L114.703 57.7352L110.654 61.7418Z" fill="#FF8150"/>
</g>
<defs>
<clipPath id="clip0_32_615">
<rect width="117" height="15.1684" fill="white" transform="translate(4 55.3242)"/>
</clipPath>
</defs>
</svg>
