<svg width="250" height="250" viewBox="0 0 125 125" fill="none" xmlns="http://www.w3.org/2000/svg">
<path fill-rule="evenodd" clip-rule="evenodd" d="M120.172 56.0006C119.054 54.9038 117.269 54.9038 116.158 56.0006L114.752 57.3926L113.338 56.0006C112.228 54.9038 110.435 54.9038 109.324 56.0006C108.22 57.0903 108.22 58.8761 109.324 59.9658L110.737 61.3649L114.752 65.3302L120.172 59.9658C121.276 58.8761 121.276 57.0903 120.172 56.0006Z" fill="#009291"/>
<path fill-rule="evenodd" clip-rule="evenodd" d="M14.66 62.4828C14.66 64.5919 12.7477 65.6465 10.055 65.6465C6.70141 65.6325 5.37262 64.0787 5 61.9836H7.71381C7.9177 63.1858 8.64888 63.6147 9.99876 63.6147C11.3486 63.6147 11.9533 63.1366 11.9533 62.3C11.9533 61.6883 11.651 61.2102 10.4487 61.2102H8.72622V59.1713H10.1675C11.2924 59.1713 11.6228 58.8198 11.6228 58.173C11.6228 57.5332 11.1729 56.9637 9.86518 56.9637C8.94417 56.9637 8.12862 57.2239 7.9177 58.2855H5.20389C5.5273 56.4857 6.77874 55.0022 9.90736 55.0022C12.4876 55.0022 14.3226 56.0568 14.3226 57.9902C14.3648 58.869 13.8586 59.6775 13.05 60.022C14.0695 60.4087 14.7163 61.4071 14.66 62.4828Z" fill="#009291"/>
<path fill-rule="evenodd" clip-rule="evenodd" d="M28.3134 62.9117V67.9878H25.6348V65.4146H17.9011V67.9878H15.2295V62.9117H17.0645C17.416 62.6164 17.641 62.0188 17.8168 60.9853L18.7518 55.2202H26.4433V62.9047H28.3134V62.9117ZM23.7576 62.9117V57.7231H21.0297L20.4673 61.1119C20.404 61.7446 20.2072 62.3563 19.8908 62.9117H23.7576Z" fill="#009291"/>
<path fill-rule="evenodd" clip-rule="evenodd" d="M40.0404 60.3174C40.0404 63.453 38.0156 65.6325 35.3369 65.6325C34.0573 65.6677 32.841 65.0771 32.0747 64.0506V70.0407H29.4031V55.2272H32.0747V56.6544C32.8199 55.5998 34.0433 54.9811 35.3369 55.0022C37.9804 55.0022 40.0404 57.1747 40.0404 60.3174ZM37.3266 60.3174C37.3266 58.6511 36.2157 57.5262 34.7182 57.5262C33.1996 57.5262 31.9903 58.8058 32.0817 60.3174C31.9903 61.836 33.1996 63.1155 34.7182 63.1155C36.2087 63.1155 37.3266 62.0047 37.3266 60.3174Z" fill="#009291"/>
<path fill-rule="evenodd" clip-rule="evenodd" d="M51.6609 55.2274V65.4147H48.9682V64.0437C48.223 65.0702 47.0137 65.6608 45.7482 65.6256C43.0555 65.6256 41.0518 63.4461 41.0518 60.3105C41.0518 57.1748 43.0906 55.0024 45.7341 55.0024C47.0278 54.9743 48.2511 55.593 48.9963 56.6546V55.2274H51.6609ZM48.9893 60.3175C49.0807 58.7989 47.8714 57.5193 46.3528 57.5264C44.8553 57.5264 43.7445 58.6513 43.7445 60.3175C43.7445 61.9838 44.8694 63.1157 46.3528 63.1157C47.8714 63.1157 49.0807 61.8361 48.9893 60.3175Z" fill="#009291"/>
<path fill-rule="evenodd" clip-rule="evenodd" d="M62.1504 62.4688C62.1504 64.578 60.5193 65.4076 58.4101 65.4076H52.9895V55.2273H57.9672C60.0271 55.2273 61.6582 55.7546 61.6582 57.8005C61.6582 58.8551 61.0958 59.4105 60.3294 59.9097C61.4684 60.212 62.2347 61.2877 62.1504 62.4688ZM57.7281 57.3013H55.6189V59.2629H57.7281C58.6491 59.2629 58.9444 58.9324 58.9444 58.2997C58.9444 57.6669 58.628 57.3013 57.7281 57.3013ZM59.4506 62.2298C59.4506 61.5056 59.1202 61.1752 58.2203 61.1752H55.6189V63.3617H58.1851C59.1272 63.3406 59.4295 62.968 59.4295 62.2298H59.4506Z" fill="#009291"/>
<path fill-rule="evenodd" clip-rule="evenodd" d="M62.9302 60.3174C62.9021 58.8902 63.4575 57.5122 64.4769 56.5068C65.4894 55.5015 66.8744 54.9601 68.3016 55.0023C70.8115 55.0023 73.0473 56.4998 73.4339 59.0941H70.6779C70.3616 58.0606 69.3773 57.3786 68.3016 57.4489C66.6705 57.4489 65.6229 58.6301 65.6651 60.3174C65.7073 62.0048 66.7197 63.1929 68.3016 63.1929C69.3913 63.2633 70.3897 62.5672 70.699 61.5197H73.448C73.0402 64.2054 70.7693 65.6326 68.3016 65.6326C66.8744 65.6818 65.4894 65.1334 64.4699 64.128C63.4575 63.1297 62.9021 61.7517 62.9302 60.3174Z" fill="#009291"/>
<path fill-rule="evenodd" clip-rule="evenodd" d="M84.3593 55.2273V65.4146H81.6807V61.8009L81.8494 58.7777L77.5959 65.4076H74.5024V55.2273H77.1811V58.841L77.0616 61.822L81.2799 55.2273H84.3593V55.2273Z" fill="#009291"/>
<path fill-rule="evenodd" clip-rule="evenodd" d="M94.4759 57.7232H91.3122V65.4076H88.6335V57.7232H85.4697V55.2273H94.49V57.7232H94.4759V57.7232Z" fill="#009291"/>
<path fill-rule="evenodd" clip-rule="evenodd" d="M105.366 55.2273V65.4146H102.687V61.8009L102.856 58.7777L98.6096 65.4076H95.5232V55.2273H98.2019V58.841L98.0683 61.829L102.287 55.2343H105.366V55.2273Z" fill="#009291"/>
<path fill-rule="evenodd" clip-rule="evenodd" d="M110.737 61.3649L109.324 59.9658C108.22 58.8761 108.22 57.0903 109.324 56.0006C110.435 54.9038 112.228 54.9038 113.338 56.0006L114.752 57.3926L110.737 61.3649Z" fill="#009291"/>
</svg>
