<svg width="125" height="125" viewBox="0 0 125 125" fill="none" xmlns="http://www.w3.org/2000/svg">
<path fill-rule="evenodd" clip-rule="evenodd" d="M25.1748 53C26.1412 53.9236 27.0526 54.8962 28.0129 55.8259C25.6091 58.2481 23.2113 60.6763 20.8075 63.0924C19.8839 62.1382 18.9542 61.184 18 60.2543C20.3855 57.8382 22.7893 55.4222 25.1748 53ZM102.837 53.6851C103.198 53.6851 103.553 53.6851 103.914 53.6851C104.012 54.0398 104.201 54.4252 104.593 54.523C104.978 54.5903 105.425 54.6209 105.755 54.3701C105.969 54.205 106.049 53.9358 106.128 53.6851C106.489 53.6851 106.85 53.6851 107.211 53.6851C107.205 54.4435 106.605 55.0858 105.877 55.2448C105.082 55.4222 104.165 55.4099 103.473 54.9267C103.07 54.6515 102.868 54.1683 102.837 53.6851ZM39.9586 53.8013C40.4969 53.8013 41.0351 53.8013 41.5673 53.8013C42.6438 55.1225 43.7142 56.4498 44.7907 57.771C45.066 57.771 45.3351 57.771 45.6104 57.771C45.6104 56.4437 45.6104 55.1225 45.6104 53.7952C46.0202 53.8013 46.4361 53.7952 46.8459 53.7952C46.8459 55.1163 46.8459 56.4437 46.8459 57.7648C47.1212 57.7648 47.3964 57.7648 47.6717 57.7648C48.7543 56.4437 49.8369 55.1163 50.9196 53.7952C51.4701 53.7952 52.0206 53.7952 52.5649 53.7952C51.3172 55.2693 50.0877 56.7556 48.8338 58.2175C50.0571 59.8506 51.3172 61.4593 52.5466 63.0924C51.9777 63.0924 51.415 63.0924 50.8462 63.0924C49.788 61.6672 48.7176 60.2543 47.6655 58.823C47.3903 58.823 47.1212 58.823 46.8459 58.823C46.8459 60.2482 46.8459 61.6672 46.8459 63.0863C46.43 63.0863 46.0202 63.0863 45.6104 63.0863C45.6104 61.6672 45.6104 60.2421 45.6104 58.823C45.3412 58.823 45.066 58.823 44.7969 58.823C43.7326 60.2421 42.6683 61.6672 41.604 63.0863C41.0413 63.0802 40.4785 63.0924 39.9097 63.0802C41.1758 61.4776 42.442 59.8751 43.6959 58.2664C42.4542 56.7862 41.2064 55.2876 39.9586 53.8013ZM31.9275 55.2937C28.0129 59.2389 24.0983 63.1842 20.1836 67.1294C21.1378 68.0713 22.0675 69.0316 23.0095 69.9797C26.9302 66.0284 30.851 62.0893 34.7534 58.1257C33.787 57.2021 32.8695 56.2357 31.9275 55.2937ZM69.5446 56.1195C70.3215 56.095 71.1288 56.303 71.716 56.8351C72.4011 57.4529 72.7192 58.3826 72.7681 59.2879C72.8354 60.2482 72.7069 61.2758 72.1564 62.0832C71.7466 62.7071 71.0554 63.123 70.3215 63.2453C69.5446 63.3615 68.7128 63.3004 68.0277 62.8844C67.2754 62.4563 66.8228 61.6367 66.6515 60.8109C66.4802 59.9057 66.4925 58.9515 66.8044 58.0768C67.0552 57.355 67.5812 56.7005 68.2969 56.3947C68.6822 56.2051 69.1165 56.1378 69.5446 56.1195ZM69.0308 57.2449C68.2602 57.5079 67.8381 58.3153 67.7464 59.0799C67.6668 59.9546 67.6974 60.9271 68.2785 61.6367C68.9269 62.444 70.2848 62.4685 70.982 61.7101C71.4836 61.1473 71.6365 60.3644 71.6182 59.6304C71.6182 58.9148 71.4469 58.138 70.9148 57.6242C70.4254 57.1532 69.667 57.0308 69.0308 57.2449ZM82.0653 56.6577C82.6036 56.2479 83.2948 56.0583 83.9676 56.1317C84.6404 56.1684 85.3255 56.4192 85.7781 56.933C86.194 57.3795 86.3714 57.9912 86.4387 58.5906C86.0717 58.5906 85.7047 58.5906 85.3438 58.5906C85.2704 58.0707 85.0135 57.5202 84.512 57.2939C83.9615 57.0614 83.2825 57.0981 82.7993 57.459C82.3895 57.7404 82.1571 58.2175 82.0348 58.6884C81.8574 59.4347 81.8513 60.2237 82.0286 60.9638C82.1571 61.447 82.414 61.9486 82.885 62.181C83.4477 62.4563 84.2061 62.4379 84.6894 61.9975C85.0686 61.6734 85.2643 61.184 85.35 60.7008C85.717 60.7008 86.0839 60.7008 86.4448 60.7008C86.347 61.3186 86.1635 61.9486 85.7353 62.4196C85.197 63.0557 84.3346 63.331 83.5211 63.3004C82.5363 63.3248 81.5882 62.7132 81.1723 61.8324C80.7319 60.9332 80.6708 59.8934 80.8053 58.9148C80.946 58.0462 81.3558 57.196 82.0653 56.6577ZM52.7484 56.3091C53.1766 56.3274 53.6109 56.3091 54.039 56.3274C54.614 58.1685 55.2257 59.9913 55.819 61.8263C56.4551 60.0035 57.0178 58.1563 57.6234 56.3213C58.0515 56.3213 58.4797 56.3213 58.9079 56.3152C58.0148 58.7557 57.1279 61.2024 56.2288 63.649C55.9964 64.2423 55.7884 64.8662 55.3725 65.3617C54.8893 65.9427 54.0268 65.8877 53.354 65.7592C53.3601 65.4045 53.3601 65.0497 53.354 64.695C53.7944 64.8173 54.3877 64.9335 54.6996 64.5053C54.9443 64.1261 55.0544 63.6735 55.2379 63.2576C54.4122 60.9455 53.5803 58.6273 52.7484 56.3091ZM59.8804 56.3152C60.2658 56.3152 60.6572 56.3152 61.0426 56.3152C61.0364 57.3978 61.0426 58.4805 61.0426 59.5631C62.1864 58.505 63.2874 57.3917 64.425 56.3336C64.9327 56.2724 65.4526 56.3274 65.9664 56.3091C64.9327 57.3122 63.8684 58.2847 62.8347 59.2879C62.847 59.3123 62.8653 59.3674 62.8775 59.3919C63.9174 60.6213 64.9694 61.8507 66.0092 63.0802C65.5016 63.0802 65 63.0863 64.4923 63.0802C63.6299 62.0587 62.7552 61.0433 61.8867 60.028C61.6053 60.2665 61.3239 60.5051 61.0426 60.7436C61.0426 61.5266 61.0426 62.3034 61.0426 63.0863C60.6572 63.0863 60.2719 63.0863 59.8865 63.0863C59.8804 60.8354 59.8865 58.5783 59.8804 56.3152ZM74.077 56.3152C74.9823 56.3152 75.8876 56.3152 76.7928 56.3152C77.4473 56.3274 78.1446 56.3519 78.7134 56.7189C79.3434 57.1104 79.5514 57.9606 79.3312 58.6395C79.2089 59.0004 78.9092 59.2573 78.6217 59.4836C79.0927 59.6916 79.5636 60.028 79.6921 60.554C79.8389 61.2024 79.7166 61.9608 79.2333 62.444C78.7257 62.9211 78.01 63.0679 77.3372 63.0863C76.2484 63.0863 75.1597 63.0863 74.0709 63.0863C74.077 60.8354 74.077 58.5722 74.077 56.3152ZM75.2576 57.251C75.2576 57.8933 75.2576 58.5355 75.2576 59.1717C75.8937 59.1717 76.5298 59.1778 77.1659 59.1717C77.5513 59.1594 78.01 59.0187 78.1752 58.6334C78.322 58.2603 78.2669 57.7648 77.9427 57.5018C77.6736 57.2877 77.3127 57.2694 76.9824 57.251C76.4075 57.2449 75.8325 57.251 75.2576 57.251ZM75.2576 60.0402C75.2514 60.7436 75.2514 61.447 75.2576 62.1504C75.8325 62.1504 76.4075 62.1504 76.9824 62.1504C77.4473 62.1566 77.9611 62.126 78.3342 61.814C78.64 61.496 78.6645 60.9761 78.481 60.5907C78.273 60.2176 77.8143 60.1136 77.4228 60.0708C76.7072 60.0096 75.9793 60.0525 75.2576 60.0402ZM87.5397 56.3152C87.9189 56.3397 88.341 56.2663 88.6957 56.3519C88.7141 57.4345 88.6896 58.5172 88.708 59.5998C89.8273 58.4988 90.9711 57.4284 92.0905 56.3274C92.6104 56.3152 93.1303 56.3274 93.6441 56.3213C92.5737 57.3061 91.54 58.3276 90.4634 59.3062C91.5216 60.5785 92.6043 61.8263 93.6685 63.0924C93.1609 63.0924 92.6593 63.0985 92.1516 63.0863C91.2831 62.0648 90.4145 61.0433 89.5398 60.0341C89.2646 60.2788 88.9771 60.5112 88.6957 60.7559C88.6957 61.5327 88.6957 62.3156 88.6957 63.0924C88.3043 63.0924 87.9189 63.0924 87.5336 63.0924C87.5458 60.8293 87.5458 58.5722 87.5397 56.3152ZM94.5921 56.3152C94.9836 56.3213 95.3751 56.3152 95.7665 56.3152C95.7727 58.0462 95.7604 59.7772 95.7727 61.5082C96.8675 59.7772 97.9807 58.0523 99.0756 56.3152C99.5221 56.3213 99.9686 56.3091 100.421 56.3213C100.409 58.5784 100.421 60.8293 100.415 63.0863C100.024 63.0863 99.6383 63.0863 99.253 63.0863C99.253 61.3553 99.2591 59.6243 99.2469 57.8933C98.1398 59.6182 97.0388 61.3553 95.9378 63.0863C95.4913 63.0863 95.0387 63.0863 94.5921 63.0863C94.5921 60.8354 94.586 58.5722 94.5921 56.3152ZM102.103 56.3213C102.495 56.3152 102.88 56.3213 103.272 56.3152C103.272 58.0401 103.265 59.765 103.278 61.4899C104.397 59.7772 105.48 58.0401 106.587 56.3152C107.033 56.3152 107.48 56.3152 107.932 56.3152C107.939 58.5722 107.932 60.8293 107.932 63.0924C107.541 63.0924 107.143 63.0924 106.752 63.0924C106.746 61.3614 106.764 59.6243 106.746 57.8933C105.657 59.6304 104.538 61.3431 103.455 63.0863C103.009 63.1046 102.556 63.0924 102.109 63.0985C102.103 60.8354 102.109 58.5784 102.103 56.3213ZM27.0954 69.3375C28.0557 70.2611 28.9915 71.2091 29.909 72.1756C30.4534 71.6679 30.955 71.1174 31.481 70.5975C33.3588 68.7013 35.2305 66.8052 37.1205 64.9152C36.1602 63.9854 35.2366 63.0251 34.3008 62.0709C31.903 64.4992 29.4992 66.9214 27.0954 69.3375ZM80.0836 67.686C80.2181 67.686 80.3588 67.686 80.4934 67.686C80.6157 68.1447 81.3008 68.1325 81.4353 67.686C81.5699 67.686 81.7045 67.686 81.8451 67.686C81.7228 68.5423 80.1937 68.5545 80.0836 67.686ZM44.2158 68.8848C44.7235 68.4567 45.6104 68.579 45.9407 69.1662C46.1364 69.472 46.1425 69.8513 46.1425 70.1999C45.4819 70.206 44.8213 70.1938 44.1607 70.206C44.2097 70.5363 44.3136 70.94 44.6745 71.0562C45.0905 71.2336 45.5553 70.9767 45.6899 70.5608C45.8367 70.5608 45.9835 70.5547 46.1303 70.5547C46.0569 70.781 45.9651 71.0195 45.7755 71.1786C45.2434 71.6985 44.1974 71.57 43.8794 70.8727C43.5858 70.2366 43.6286 69.3436 44.2158 68.8848ZM44.4971 69.1845C44.2831 69.3436 44.2219 69.6127 44.1668 69.8574C44.6868 69.8574 45.2005 69.8696 45.7205 69.8513C45.6654 69.6433 45.6471 69.4047 45.4941 69.2457C45.2434 68.9766 44.7846 68.946 44.4971 69.1845ZM60.6389 68.7992C61.0426 68.579 61.5564 68.579 61.9723 68.7564C62.2108 68.8543 62.3882 69.0928 62.376 69.3497C62.3943 69.8941 62.3576 70.4385 62.3882 70.9828C62.376 71.1357 62.5839 71.0929 62.6818 71.1235C62.6757 71.2153 62.6696 71.307 62.6696 71.3988C62.376 71.5027 61.9723 71.4171 61.9417 71.0501C61.5931 71.4538 60.9508 71.6312 60.4859 71.3315C60.0456 71.044 60.07 70.3161 60.5043 70.0286C60.8958 69.7717 61.4096 69.8818 61.8316 69.7289C62.1191 69.4659 61.8377 68.946 61.4646 68.9949C61.0976 68.9154 60.7 69.105 60.6572 69.5026C60.5165 69.5026 60.3759 69.4965 60.2352 69.4904C60.3025 69.2335 60.382 68.9338 60.6389 68.7992ZM60.7979 70.3222C60.4921 70.4996 60.5899 71.0134 60.9141 71.1052C61.2199 71.1908 61.5564 71.0685 61.7827 70.8605C62.0029 70.6525 61.9356 70.3161 61.9539 70.047C61.5869 70.1999 61.1588 70.1449 60.7979 70.3222ZM64.2477 68.6891C64.7676 68.4873 65.3915 68.8114 65.5688 69.3313C65.7462 69.8451 65.7156 70.4384 65.4955 70.94C65.208 71.6006 64.162 71.7107 63.7645 71.099C63.7767 71.5578 63.7645 72.0165 63.7706 72.4753C63.6238 72.4753 63.4831 72.4753 63.3363 72.4753C63.3363 71.2214 63.3363 69.9736 63.3363 68.7197C63.477 68.7197 63.6238 68.7197 63.7706 68.7197C63.7706 68.8481 63.7706 68.9705 63.7706 69.0989C63.8929 68.9276 64.0336 68.7503 64.2477 68.6891ZM64.3211 69.0439C64.0152 69.1111 63.8501 69.417 63.795 69.6983C63.7155 70.0959 63.7461 70.5547 63.9969 70.8911C64.2844 71.2397 64.9266 71.148 65.0979 70.7259C65.2814 70.3161 65.2814 69.8268 65.104 69.4109C64.9939 69.1234 64.6269 68.9521 64.3211 69.0439ZM67.3732 68.6341C67.8442 68.5851 68.358 68.8114 68.566 69.2579C68.8168 69.7901 68.8107 70.4507 68.5232 70.9645C68.1134 71.6862 66.89 71.6924 66.4802 70.9645C66.1866 70.4507 66.1866 69.784 66.4374 69.2518C66.6026 68.8909 66.9818 68.6646 67.3732 68.6341ZM67.2998 69.0439C66.9145 69.1356 66.7188 69.5393 66.6943 69.9063C66.6698 70.2733 66.731 70.7076 67.0307 70.9584C67.3794 71.2458 67.9604 71.1235 68.1562 70.7137C68.3458 70.3222 68.3519 69.8451 68.1684 69.4476C68.0277 69.1295 67.6363 68.9521 67.2998 69.0439ZM85.1542 68.7197C85.6619 68.5545 86.3959 68.579 86.6834 69.105C86.7935 69.7228 86.6834 70.3589 86.7384 70.9828C86.7323 71.1419 86.9342 71.0929 87.032 71.1235C87.0259 71.2214 87.0198 71.3131 87.0198 71.411C86.714 71.4966 86.3347 71.4171 86.2858 71.0562C85.931 71.4844 85.2215 71.6434 84.7689 71.2825C84.3591 70.9339 84.4692 70.1938 84.9524 69.9675C85.3316 69.8023 85.772 69.8513 86.1635 69.7412C86.3898 69.576 86.3103 69.1784 86.0717 69.0561C85.6803 68.8848 85.0441 68.9705 85.0135 69.4965C84.8729 69.4965 84.7261 69.4965 84.5854 69.5026C84.6404 69.1662 84.8056 68.8176 85.1542 68.7197ZM85.1787 70.3039C84.8362 70.4568 84.9218 71.0379 85.2827 71.1113C85.6374 71.1908 86.0534 71.0256 86.243 70.7076C86.3286 70.4996 86.2858 70.2611 86.3041 70.0409C85.9433 70.1877 85.5396 70.151 85.1787 70.3039ZM87.8149 68.9338C88.2798 68.4872 89.13 68.5423 89.5092 69.0744C89.8824 69.6188 89.8885 70.3895 89.5765 70.9584C89.2279 71.6067 88.2003 71.6924 87.7415 71.1235C87.5947 70.9584 87.5397 70.7382 87.4724 70.5302C87.6192 70.5302 87.7721 70.5302 87.9189 70.5363C87.9862 70.9278 88.396 71.2153 88.7814 71.0807C89.1423 70.9828 89.2829 70.5975 89.3319 70.2672C89.0138 70.2611 88.7019 70.2611 88.3899 70.2611C88.3899 70.1387 88.3899 70.0164 88.3899 69.9002C88.7019 69.9002 89.0199 69.9002 89.3319 69.9002C89.2891 69.5882 89.1973 69.2151 88.8792 69.0806C88.5 68.9032 88.0168 69.1356 87.9434 69.5515C87.7966 69.5515 87.6437 69.5515 87.4969 69.5515C87.5642 69.3313 87.6376 69.0928 87.8149 68.9338ZM90.9589 69.0989C91.173 68.7013 91.6745 68.524 92.0966 68.6891C92.6043 68.8481 92.8428 69.3986 92.855 69.8941C92.8611 70.2794 92.8122 70.6831 92.6226 71.0256C92.2923 71.6067 91.3136 71.6862 90.9467 71.099C90.9528 71.5578 90.9466 72.0165 90.9528 72.4753C90.7998 72.4753 90.6469 72.4753 90.5001 72.4753C90.5001 71.2214 90.5001 69.9736 90.5001 68.7197C90.6469 68.7197 90.7998 68.7197 90.9528 68.7197C90.9589 68.842 90.9589 68.9705 90.9589 69.0989ZM91.54 69.0377C91.1791 69.0928 90.9956 69.472 90.965 69.8023C90.9344 70.1815 90.9283 70.6158 91.1974 70.9217C91.4727 71.2275 92.0232 71.1663 92.2373 70.8177C92.4575 70.4507 92.433 69.9858 92.3474 69.576C92.2801 69.2151 91.907 68.946 91.54 69.0377ZM94.5004 68.6402C95.0142 68.5607 95.5953 68.8298 95.7849 69.3313C95.9806 69.839 95.9745 70.4446 95.7176 70.9278C95.32 71.6862 94.0417 71.6924 93.6441 70.9278C93.3872 70.4629 93.3872 69.8757 93.5523 69.3803C93.693 68.9766 94.0722 68.6891 94.5004 68.6402ZM94.4576 69.0561C93.8398 69.2702 93.7725 70.0898 93.9744 70.6158C94.1273 71.0746 94.7389 71.2642 95.1243 70.9767C95.528 70.6586 95.5463 70.0653 95.424 69.6066C95.32 69.1907 94.8613 68.9215 94.4576 69.0561ZM100.678 68.6341C101.149 68.5851 101.669 68.8114 101.877 69.2579C102.128 69.784 102.116 70.4446 101.834 70.9584C101.424 71.6862 100.195 71.6862 99.7852 70.9584C99.4977 70.4384 99.4915 69.7779 99.7423 69.2457C99.9136 68.891 100.287 68.6708 100.678 68.6341ZM100.617 69.0439C100.232 69.1295 100.03 69.5393 100.005 69.9063C99.9809 70.2733 100.042 70.7076 100.348 70.9584C100.697 71.2397 101.271 71.1174 101.467 70.7137C101.657 70.3222 101.663 69.839 101.479 69.4476C101.339 69.1295 100.947 68.9521 100.617 69.0439ZM103.217 69.0989C103.529 68.4934 104.44 68.4995 104.825 69.0194C105.223 69.5577 105.174 70.31 104.948 70.9033C104.678 71.5823 103.608 71.7291 103.21 71.0929C103.223 71.5517 103.21 72.0104 103.217 72.4692C103.064 72.4692 102.911 72.4692 102.764 72.4692C102.764 71.2153 102.764 69.9675 102.764 68.7136C102.911 68.7136 103.064 68.7136 103.217 68.7136C103.21 68.842 103.21 68.9705 103.217 69.0989ZM103.792 69.0377C103.437 69.0928 103.253 69.4659 103.223 69.7962C103.186 70.1754 103.186 70.6097 103.455 70.9155C103.736 71.2397 104.33 71.1541 104.519 70.7749C104.709 70.414 104.691 69.9736 104.605 69.5821C104.532 69.2151 104.159 68.946 103.792 69.0377ZM40.2094 68.7197C40.4296 68.7197 40.6498 68.7197 40.8639 68.7197C41.1208 69.4476 41.3043 70.2121 41.5979 70.9278C41.8487 70.1938 42.075 69.4537 42.3196 68.7197C42.5276 68.7197 42.7356 68.7197 42.9435 68.7197C42.9435 69.6127 42.9435 70.5119 42.9435 71.4049C42.8028 71.4049 42.6622 71.4049 42.5215 71.411C42.5215 70.6892 42.5276 69.9675 42.5154 69.2457C42.2462 69.9552 42.0383 70.6892 41.7936 71.4049C41.6468 71.4049 41.5 71.4049 41.3532 71.4049C41.1269 70.6648 40.8761 69.9308 40.6253 69.1968C40.6131 69.9308 40.6192 70.6709 40.6192 71.4049C40.4785 71.3988 40.3378 71.3988 40.1972 71.3926C40.2155 70.5057 40.2033 69.6127 40.2094 68.7197ZM46.693 68.7197C46.8704 68.7197 47.0478 68.7197 47.2251 68.7197C47.5249 69.0928 47.8123 69.4659 48.1059 69.839C48.1855 69.839 48.2711 69.839 48.3567 69.839C48.3567 69.4659 48.3567 69.0928 48.3567 68.7136C48.4974 68.7136 48.6442 68.7136 48.791 68.7136C48.791 69.0867 48.791 69.4659 48.791 69.839C48.8705 69.839 48.95 69.839 49.0357 69.839C49.3354 69.4659 49.629 69.0867 49.9287 68.7136C50.1061 68.7136 50.2834 68.7136 50.4608 68.7136C50.1122 69.1478 49.7513 69.5638 49.4088 69.9981C49.7758 70.4629 50.1367 70.94 50.5036 71.4049C50.3201 71.3988 50.1367 71.3988 49.9532 71.3988C49.6657 71.0256 49.3904 70.6403 49.1029 70.2611C49.0418 70.151 48.895 70.1938 48.791 70.1693C48.791 70.5791 48.791 70.9889 48.791 71.3988C48.6442 71.3988 48.4974 71.3988 48.3506 71.3988C48.3567 70.9889 48.3506 70.5791 48.3506 70.1754C48.2589 70.1815 48.1671 70.1877 48.0754 70.1938C47.794 70.6097 47.4882 71.0012 47.1823 71.3988C46.9988 71.3988 46.8092 71.3988 46.6257 71.3988C47.0049 70.9339 47.3597 70.4568 47.7328 69.9919C47.3964 69.5699 47.0355 69.1478 46.693 68.7197ZM51.5557 68.7197C52.1735 68.7197 52.7851 68.7197 53.4029 68.7197C53.4029 69.4904 53.4029 70.255 53.4029 71.0195C53.5314 71.0195 53.6598 71.0195 53.7883 71.0195C53.7821 71.3743 53.7883 71.7291 53.7821 72.0777C53.6476 72.0777 53.5069 72.0716 53.3723 72.0716C53.3723 71.8514 53.3723 71.6251 53.3723 71.4049C52.6689 71.4049 51.9716 71.4049 51.2682 71.4049C51.2682 71.6251 51.2682 71.8514 51.2682 72.0716C51.1275 72.0716 50.9869 72.0716 50.8462 72.0777C50.8462 71.7229 50.8462 71.3743 50.8462 71.0195C50.9685 71.0195 51.0908 71.0195 51.2132 71.0195C51.5068 70.2917 51.5618 69.4965 51.5557 68.7197ZM51.9716 69.1173C51.9288 69.7595 51.8799 70.4079 51.6719 71.0256C52.1001 71.0256 52.5282 71.0256 52.9625 71.0256C52.9625 70.3895 52.9564 69.7595 52.9686 69.1295C52.6322 69.1111 52.3019 69.1173 51.9716 69.1173ZM54.1553 68.7197C54.3204 68.7197 54.4794 68.7197 54.6446 68.7197C54.8893 69.4537 55.1156 70.1938 55.3663 70.9217C55.6477 70.1999 55.8496 69.4476 56.1065 68.7197C56.2716 68.7197 56.4368 68.7197 56.6019 68.7197C56.2166 69.7473 55.8496 70.7749 55.4703 71.7963C55.3847 71.9982 55.3052 72.2123 55.14 72.3652C54.9321 72.5426 54.6385 72.4936 54.3877 72.4753C54.3877 72.3407 54.3877 72.2061 54.3877 72.0716C54.5773 72.1022 54.8097 72.1633 54.9443 71.9798C55.0361 71.8208 55.0911 71.6373 55.1584 71.466C54.8097 70.5547 54.4856 69.6372 54.1553 68.7197ZM57.2319 68.7197C57.3787 68.7197 57.5194 68.7197 57.6662 68.7197C57.6662 69.0806 57.6662 69.4476 57.6662 69.8084C58.0944 69.8084 58.5225 69.8084 58.9568 69.8084C58.9568 69.4476 58.9568 69.0806 58.9568 68.7197C59.1036 68.7197 59.2504 68.7197 59.3972 68.7197C59.3972 69.6188 59.4033 70.5118 59.3972 71.411C59.2504 71.411 59.1097 71.411 58.9629 71.411C58.9629 71.0134 58.9629 70.6097 58.9629 70.2121C58.5348 70.206 58.1066 70.2121 57.6723 70.2121C57.6723 70.6097 57.6662 71.0073 57.6784 71.4049C57.5316 71.411 57.3848 71.4171 57.238 71.4171C57.2319 70.5118 57.2319 69.6188 57.2319 68.7197ZM69.9055 68.7197C70.5233 68.7197 71.1411 68.7197 71.7527 68.7197C71.7527 69.4904 71.7527 70.2549 71.7527 71.0256C71.8812 71.0256 72.0096 71.0256 72.1381 71.0195C72.1381 71.3682 72.1381 71.7229 72.1381 72.0716C71.9974 72.0716 71.8567 72.0716 71.716 72.0777C71.716 71.8514 71.716 71.6312 71.716 71.4049C71.0187 71.4049 70.3276 71.4049 69.6303 71.4049C69.6303 71.6251 69.6303 71.8514 69.6303 72.0716C69.4896 72.0716 69.3489 72.0716 69.2082 72.0716C69.2082 71.7168 69.2082 71.3682 69.2082 71.0134C69.3244 71.0134 69.4468 71.0134 69.5691 71.0195C69.8627 70.2917 69.9116 69.4965 69.9055 68.7197ZM70.3215 69.1173C70.2848 69.7595 70.2358 70.4079 70.0279 71.0195C70.456 71.0195 70.8842 71.0195 71.3123 71.0195C71.3185 70.3834 71.3123 69.7473 71.3123 69.1173C70.9882 69.1173 70.6579 69.1173 70.3215 69.1173ZM72.8048 68.7197C72.9577 68.7197 73.1045 68.7197 73.2574 68.7197C73.2574 69.0806 73.2574 69.4476 73.2574 69.8084C73.6795 69.8084 74.1015 69.8084 74.5297 69.8084C74.5297 69.4476 74.5297 69.0806 74.5297 68.7197C74.6826 68.7197 74.8294 68.7197 74.9823 68.7197C74.9823 69.6188 74.9823 70.5118 74.9823 71.411C74.8294 71.411 74.6826 71.411 74.5297 71.411C74.5297 71.0073 74.5297 70.6097 74.5297 70.206C74.1076 70.206 73.6856 70.206 73.2635 70.206C73.2574 70.6036 73.2635 71.0073 73.2574 71.411C73.1045 71.411 72.9577 71.411 72.8048 71.411C72.8048 70.5118 72.8048 69.6127 72.8048 68.7197ZM75.8753 68.7197C76.0221 68.7197 76.1628 68.7197 76.3157 68.7197C76.3157 69.0622 76.3157 69.4047 76.3157 69.7473C76.7989 69.784 77.3494 69.6311 77.7715 69.9308C78.2608 70.2917 78.1324 71.1969 77.5207 71.3498C76.9824 71.4538 76.4258 71.3804 75.8753 71.3926C75.8814 70.5057 75.8753 69.6127 75.8753 68.7197ZM76.3096 70.0959C76.3096 70.414 76.3096 70.7382 76.3096 71.0562C76.6399 71.0501 76.9824 71.0868 77.3066 71.0256C77.6981 70.9339 77.7348 70.2794 77.3556 70.151C77.0191 70.0409 76.6583 70.1143 76.3096 70.0959ZM78.4321 68.7197C78.585 68.7197 78.7318 68.7197 78.8847 68.7197C78.8847 69.6188 78.8847 70.5118 78.8847 71.411C78.7318 71.411 78.585 71.411 78.4321 71.411C78.4321 70.5118 78.4321 69.6127 78.4321 68.7197ZM79.7961 68.7197C79.949 68.7197 80.0958 68.7197 80.2487 68.7197C80.2487 69.417 80.2487 70.1081 80.2487 70.8054C80.6952 70.1143 81.1356 69.417 81.5821 68.7197C81.7534 68.7197 81.9247 68.7197 82.0959 68.7197C82.0959 69.6127 82.0959 70.5119 82.0959 71.4049C81.9491 71.4049 81.8023 71.4049 81.6616 71.4049C81.6678 70.7137 81.6616 70.0225 81.6616 69.3313C81.1968 70.0103 80.7747 70.7198 80.316 71.411C80.1386 71.411 79.9673 71.411 79.79 71.411C79.79 70.5118 79.7961 69.6127 79.7961 68.7197ZM96.6596 68.7197C97.3813 68.7197 98.097 68.7197 98.8187 68.7197C98.8187 69.6188 98.8187 70.5118 98.8187 71.411C98.6719 71.411 98.5251 71.4049 98.3783 71.4049C98.3844 70.6403 98.3783 69.8818 98.3783 69.1173C97.9502 69.1173 97.522 69.1173 97.0877 69.1173C97.0877 69.8818 97.0877 70.6464 97.0877 71.411C96.9409 71.4049 96.7941 71.4049 96.6473 71.3988C96.6657 70.5057 96.6596 69.6127 96.6596 68.7197ZM105.645 68.7197C106.409 68.7197 107.18 68.7197 107.945 68.7197C107.945 68.8543 107.945 68.9827 107.945 69.1173C107.639 69.1173 107.327 69.1173 107.021 69.1173C107.015 69.8818 107.021 70.6464 107.021 71.411C106.868 71.411 106.721 71.411 106.568 71.411C106.556 70.6464 106.581 69.8757 106.556 69.1111C106.25 69.1234 105.945 69.1234 105.645 69.1173C105.645 68.9827 105.645 68.8481 105.645 68.7197Z" fill="#A6B608"/>
</svg>
