<svg width="125" height="125" viewBox="0 0 125 125" fill="none" xmlns="http://www.w3.org/2000/svg">
<path d="M52.4316 59.4999C51.4316 58.4999 51.4316 56 53.9316 55C56.7555 53.8705 61.9317 54.9999 64.4317 55.9999" stroke="#1FD7C8" stroke-width="3.36"/>
<path d="M49.4316 63C44.765 63 37.0316 60.7 43.4316 51.5" stroke="#1FD7C8" stroke-width="3.36"/>
<path d="M59.4316 14C58.5982 16.3333 58.8603 22.8576 63.4316 32C67.4316 40 68.9316 42.5 72.4316 47C74.8292 50.0825 77.9316 56 70.9316 59C63.9316 62 58.4314 59.5 58.9315 65.5" stroke="#1FD7C8" stroke-width="3.36"/>
<path d="M70.8616 77.7291C69.3288 78.6141 67.1394 77.7419 66.0404 75.7784C64.9154 73.8298 65.2907 71.5 66.8236 70.615C68.3974 69.741 70.5459 70.6021 71.6859 72.5767C72.7849 74.5402 72.4391 76.8414 70.8616 77.7291Z" stroke="#1FD7C8" stroke-width="2.8503" stroke-miterlimit="10"/>
<path d="M71.1543 77.9758L89.5 110" stroke="#1FD7C8" stroke-width="3.36"/>
</svg>
