<svg width="125" height="125" viewBox="0 0 125 125" fill="none" xmlns="http://www.w3.org/2000/svg">
<path d="M44.4316 48.4999C43.4316 47.4999 43.4316 45 45.9316 44C48.7555 42.8705 53.9317 43.9999 56.4317 44.9999" stroke="#1FD7C8" stroke-width="3.36"/>
<path d="M41.4316 52C36.765 52 29.0316 49.7 35.4316 40.5" stroke="#1FD7C8" stroke-width="3.36"/>
<path d="M51.4316 3C50.5982 5.33333 50.8603 11.8576 55.4316 21C59.4316 29 60.9316 31.5 64.4316 36C66.8292 39.0825 69.9316 45 62.9316 48C55.9316 51 50.4314 48.5 50.9315 54.5" stroke="#1FD7C8" stroke-width="3.36"/>
<path d="M62.8616 66.7291C61.3288 67.6141 59.1394 66.7419 58.0404 64.7784C56.9154 62.8298 57.2907 60.5 58.8236 59.615C60.3974 58.741 62.5459 59.6021 63.6859 61.5767C64.7849 63.5402 64.4391 65.8414 62.8616 66.7291Z" stroke="#1FD7C8" stroke-width="2.8503" stroke-miterlimit="10"/>
<path d="M63.1543 66.9758L81.5 99" stroke="#1FD7C8" stroke-width="3.36"/>
<path d="M93.482 92L71 104.98L74.62 111.25L97.102 98.27L93.482 92Z" stroke="#1FD7C8" stroke-width="3.36" stroke-miterlimit="10"/>
</svg>
