<svg width="125" height="125" viewBox="0 0 125 125" fill="none" xmlns="http://www.w3.org/2000/svg">
<path d="M76.1099 47.23H50.1499V54.47H76.1099V47.23Z" stroke="#1FD7C8" stroke-width="3.36" stroke-miterlimit="10"/>
<path d="M63.1301 86.36C64.9001 86.36 66.3601 88.21 66.3301 90.46C66.3301 92.71 64.8401 94.54 63.0701 94.54C61.2701 94.51 59.8401 92.69 59.8401 90.41C59.8701 88.16 61.3201 86.34 63.1301 86.36Z" stroke="#1FD7C8" stroke-width="2.8503" stroke-miterlimit="10"/>
<path d="M54 56V100M72 56V100M72 99.5C72 104.471 67.9706 108.5 63 108.5C58.0294 108.5 54 104.471 54 99.5" stroke="#1FD7C8" stroke-width="3.36"/>
<path d="M54 72.0082C55.6667 70.0082 58.9028 66.6413 62 71.5083C65.5 77.0082 67.5 84.5081 72 79.5081" stroke="#1FD7C8" stroke-width="3.36"/>
<path d="M63 86V56" stroke="#1FD7C8" stroke-width="3.36"/>
</svg>
