<svg width="125" height="125" viewBox="0 0 125 125" fill="none" xmlns="http://www.w3.org/2000/svg">
<path d="M63.2248 107.041C85.7883 107.041 104.1 88.7831 104.1 66.2859C104.1 43.749 85.7883 25.4908 63.2248 25.4908C40.6213 25.4908 22.3101 43.749 22.3101 66.2859C22.3101 88.7963 40.6213 107.041 63.2248 107.041Z" stroke="#1FD7C8" stroke-width="3.36" stroke-miterlimit="10"/>
<path d="M63.5 51V68.5L74.5 32.5" stroke="#1FD7C8" stroke-width="3.36"/>
<path d="M34 66.5H26.5" stroke="#1FD7C8" stroke-width="3.36"/>
<path d="M100.5 66H93" stroke="#1FD7C8" stroke-width="3.36"/>
<path d="M63 36.5L63 29" stroke="#1FD7C8" stroke-width="3.36"/>
<path d="M64 24.5L64 17" stroke="#1FD7C8" stroke-width="3.36"/>
<path d="M59 16L69 16" stroke="#1FD7C8" stroke-width="3.36"/>
<path d="M82.563 30.8455L85.9902 24.1743" stroke="#1FD7C8" stroke-width="3.36"/>
<path d="M81.9999 21L90.8948 25.5696" stroke="#1FD7C8" stroke-width="3.36"/>
<path d="M63.5 103L63.5 95.5" stroke="#1FD7C8" stroke-width="3.36"/>
</svg>
