<svg width="125" height="125" viewBox="0 0 125 125" fill="none" xmlns="http://www.w3.org/2000/svg">
<path d="M76.1099 47.23H50.1499V54.47H76.1099V47.23Z" stroke="#1FD7C8" stroke-width="3.36" stroke-miterlimit="10"/>
<path d="M60.8494 84.6929C62.5841 85.0444 63.6476 87.1476 63.1712 89.3468C62.7243 91.552 60.9005 93.0495 59.1658 92.6979C57.4076 92.311 56.3676 90.2432 56.8205 88.0086C57.2968 85.8094 59.0794 84.3137 60.8494 84.6929Z" stroke="#1FD7C8" stroke-width="2.8503" stroke-miterlimit="10"/>
<path d="M54 56V100M72 56V100M72 99.5C72 104.471 67.9706 108.5 63 108.5C58.0294 108.5 54 104.471 54 99.5" stroke="#1FD7C8" stroke-width="3.36"/>
<path d="M54 72.0082C55.6667 70.0082 58.9028 66.6413 62 71.5083C65.5 77.0082 67.5 84.5081 72 79.5081" stroke="#1FD7C8" stroke-width="3.36"/>
<path d="M60.7938 84.3143L66.7529 54.9121" stroke="#1FD7C8" stroke-width="3.36"/>
<path d="M68.4409 46.5815L72.6123 26" stroke="#1FD7C8" stroke-width="3.36"/>
<path d="M54 10L49.6699 17.5L58.3301 17.5L54 10ZM54.75 17L54.75 16.75L53.25 16.75L53.25 17L54.75 17Z" fill="#1FD7C8"/>
<path d="M54 40V17" stroke="#1FD7C8" stroke-width="3.36"/>
<path d="M54 10L49.6699 17.5L58.3301 17.5L54 10ZM54.75 17L54.75 16.75L53.25 16.75L53.25 17L54.75 17Z" fill="#1FD7C8"/>
<path d="M54 40V17" stroke="#1FD7C8" stroke-width="3.36"/>
</svg>
