<svg width="125" height="125" viewBox="0 0 125 125" fill="none" xmlns="http://www.w3.org/2000/svg">
<path d="M74.96 28H49V35.24H74.96V28Z" stroke="#1FD7C8" stroke-width="3.36" stroke-miterlimit="10"/>
<path d="M61.9802 67.13C63.7502 67.13 65.2102 68.98 65.1802 71.23C65.1802 73.48 63.6902 75.31 61.9202 75.31C60.1202 75.28 58.6902 73.46 58.6902 71.18C58.7202 68.93 60.1702 67.11 61.9802 67.13Z" stroke="#1FD7C8" stroke-width="2.8503" stroke-miterlimit="10"/>
<path d="M52.8501 99V55H70.8501V99M70.8501 98.5C70.8501 103.471 66.8207 107.5 61.8501 107.5C56.8795 107.5 52.8501 103.471 52.8501 98.5" stroke="#1FD7C8" stroke-width="3.36"/>
<path d="M52.8501 84.0082C54.5168 82.0082 57.7529 78.6413 60.8501 83.5083C64.3501 89.0082 66.3501 96.5081 70.8501 91.5081" stroke="#1FD7C8" stroke-width="3.36"/>
<path d="M61.8501 66.77V36.77" stroke="#1FD7C8" stroke-width="3.36"/>
<path d="M85 53L89.3301 60.5L80.6699 60.5L85 53ZM84.25 60L84.25 59.75L85.75 59.75L85.75 60L84.25 60Z" fill="#1FD7C8"/>
<path d="M85 97L89.3301 89.5L80.6699 89.5L85 97ZM84.25 90L84.25 90.25L85.75 90.25L85.75 90L84.25 90Z" fill="#1FD7C8"/>
<path d="M85 60V90" stroke="#1FD7C8" stroke-width="3.36"/>
</svg>
