<svg width="125" height="125" viewBox="0 0 125 125" fill="none" xmlns="http://www.w3.org/2000/svg">
<path d="M85.8524 36.7703L63.3704 23.7903L59.7504 30.0603L82.2324 43.0403L85.8524 36.7703Z" stroke="#1FD7C8" stroke-width="3.36" stroke-miterlimit="10"/>
<path d="M69.1824 27.7233L81.9017 12.5502L84.5615 14.0858M80.0077 33.9733L87.0979 15.5502L84.1285 13.8358" stroke="#1FD7C8" stroke-width="3.36"/>
<path d="M54 100V56C54.4 56 66.1667 56 72 56V100M72 99.5C72 104.471 67.9706 108.5 63 108.5C58.0294 108.5 54 104.471 54 99.5" stroke="#1FD7C8" stroke-width="3.36"/>
<path d="M54 76.0082C55.6667 74.0082 58.9028 70.6413 62 75.5083C65.5 81.0082 67.5 88.5081 72 83.5081" stroke="#1FD7C8" stroke-width="3.36"/>
<path d="M55.3282 49.9655L50.222 42.9707L46.7175 50.8902L55.3282 49.9655ZM48.6235 47.8187L48.8521 47.9198L49.4591 46.5481L49.2305 46.447L48.6235 47.8187Z" fill="#1FD7C8"/>
<path d="M58.5673 21.8432C52.4941 18.6714 41.7743 18.0048 38.5547 29.7642C36.2971 38.0104 41.3995 43.896 48.9802 47.1416" stroke="#1FD7C8" stroke-width="3.36"/>
</svg>
