<svg width="125" height="125" viewBox="0 0 125 125" fill="none" xmlns="http://www.w3.org/2000/svg">
<path d="M74.96 38H49V45.24H74.96V38Z" stroke="#1FD7C8" stroke-width="3.36" stroke-miterlimit="10"/>
<path d="M61.9802 77.13C63.7502 77.13 65.2102 78.98 65.1802 81.23C65.1802 83.48 63.6902 85.31 61.9202 85.31C60.1202 85.28 58.6902 83.46 58.6902 81.18C58.7202 78.93 60.1702 77.11 61.9802 77.13Z" stroke="#1FD7C8" stroke-width="2.8503" stroke-miterlimit="10"/>
<path d="M52.8501 99C52.8501 99 55 87.1157 55 78.5C55 69.8843 52.8501 55 52.8501 55H70.8501C70.8501 55 69 69.8923 69 78.5C69 87.1077 70.8501 99 70.8501 99M70.8501 98.5C70.8501 103.471 66.8207 107.5 61.8501 107.5C56.8795 107.5 52.8501 103.471 52.8501 98.5" stroke="#1FD7C8" stroke-width="3.36"/>
<path d="M69.5 69.5C65 74.5 63.5 70.0082 60 64.5083C58.0852 61.4993 56.1173 61.6375 54.5 62.6541" stroke="#1FD7C8" stroke-width="3.36"/>
<path d="M61.8501 76.77V46.77" stroke="#1FD7C8" stroke-width="3.36"/>
<path d="M85 53L89.3301 60.5L80.6699 60.5L85 53ZM84.25 60L84.25 59.75L85.75 59.75L85.75 60L84.25 60Z" fill="#1FD7C8"/>
<path d="M85 60V90" stroke="#1FD7C8" stroke-width="3.36"/>
</svg>
