<svg width="125" height="125" viewBox="0 0 125 125" fill="none" xmlns="http://www.w3.org/2000/svg">
<path d="M62.9147 110.041C85.4782 110.041 103.79 91.7831 103.79 69.2859C103.79 46.749 85.4782 28.4908 62.9147 28.4908C40.3113 28.4908 22 46.749 22 69.2859C22 91.7963 40.3113 110.041 62.9147 110.041Z" stroke="#1FD7C8" stroke-width="3.36" stroke-miterlimit="10"/>
<path d="M63 52L63 69L97 59" stroke="#1FD7C8" stroke-width="3.36"/>
<path d="M33.6899 70H26.1899" stroke="#1FD7C8" stroke-width="3.36"/>
<path d="M99.5 70H92" stroke="#1FD7C8" stroke-width="3.36"/>
<path d="M63 39.5L63 32" stroke="#1FD7C8" stroke-width="3.36"/>
<path d="M63 27.5L63 20" stroke="#1FD7C8" stroke-width="3.36"/>
<path d="M58 19L68 19" stroke="#1FD7C8" stroke-width="3.36"/>
<path d="M82.253 33.8455L85.6802 27.1743" stroke="#1FD7C8" stroke-width="3.36"/>
<path d="M81.6898 24L90.5847 28.5696" stroke="#1FD7C8" stroke-width="3.36"/>
<path d="M63 106L63 98.5" stroke="#1FD7C8" stroke-width="3.36"/>
</svg>
