<?xml version="1.0" encoding="UTF-8"?>
<!DOCTYPE svg PUBLIC "-//W3C//DTD SVG 1.0//EN" "http://www.w3.org/TR/2001/REC-SVG-20010904/DTD/svg10.dtd">
<!-- Creator: CorelDRAW 2020 (64-Bit) -->
<svg xmlns="http://www.w3.org/2000/svg" xml:space="preserve" width="600px" height="600px" version="1.0" style="shape-rendering:geometricPrecision; text-rendering:geometricPrecision; image-rendering:optimizeQuality; fill-rule:evenodd; clip-rule:evenodd"
viewBox="0 0 600 600"
 xmlns:xlink="http://www.w3.org/1999/xlink"
 xmlns:xodm="http://www.corel.com/coreldraw/odm/2003">
 <defs>
  <style type="text/css">
   <![CDATA[
    .str2 {stroke:#009291;stroke-width:29.17;stroke-miterlimit:22.9256}
    .str1 {stroke:#009291;stroke-width:0.9;stroke-miterlimit:22.9256}
    .str0 {stroke:#009291;stroke-width:4.75;stroke-miterlimit:10}
    .fil6 {fill:none}
    .fil5 {fill:#009291}
    .fil3 {fill:#009291;fill-rule:nonzero}
    .fil1 {fill:#037675;fill-rule:nonzero}
    .fil2 {fill:#519190;fill-rule:nonzero}
    .fil0 {fill:#7DD7C8;fill-rule:nonzero}
    .fil4 {fill:white;fill-rule:nonzero}
   ]]>
  </style>
 </defs>
 <g id="Слой_x0020_1">
  <metadata id="CorelCorpID_0Corel-Layer"/>
  <g id="_2596295432976">
   <path class="fil0" d="M362.5 206.38l-135.73 0c-3.08,0 -5.57,2.49 -5.57,5.57l0 38.92c0,3.08 2.49,5.57 5.57,5.57l135.73 0c3.08,0 5.57,-2.49 5.57,-5.57l0 -38.92c0,-3.08 -2.49,-5.57 -5.57,-5.57z"/>
   <path class="fil1 str0" d="M226.77 208.18l135.73 0 0 -3.6 -135.73 0 0 3.6zm135.73 0c2.09,0 3.78,1.69 3.78,3.77l3.59 0c0,-4.07 -3.3,-7.37 -7.37,-7.37l0 3.6zm3.78 3.77l0 38.92 3.59 0 0 -38.92 -3.59 0zm0 38.92c0,2.08 -1.69,3.77 -3.78,3.77l0 3.6c4.07,0 7.37,-3.3 7.37,-7.37l-3.59 0zm-3.78 3.77l-135.73 0 0 3.6 135.73 0 0 -3.6zm-135.73 0c-2.08,0 -3.77,-1.69 -3.77,-3.77l-3.6 0c0,4.07 3.3,7.37 7.37,7.37l0 -3.6zm-3.77 -3.77l0 -38.92 -3.6 0 0 38.92 3.6 0zm0 -38.92c0,-2.08 1.69,-3.77 3.77,-3.77l0 -3.6c-4.07,0 -7.37,3.3 -7.37,7.37l3.6 0z"/>
   <path class="fil2 str0" d="M348.59 256.45l1.79 0 0 -1.8 -1.79 0 0 1.8zm-107.96 281.13l-1.8 0 1.8 0zm0 -281.13l0 -1.8 -1.8 0 0 1.8 1.8 0zm0.02 1.8l107.94 0 0 -3.6 -107.94 0 0 3.6zm106.14 -1.8l0 281.13 3.59 0 0 -281.13 -3.59 0zm0 281.13c0,13.84 -5.5,27.11 -15.28,36.9l2.54 2.54c10.46,-10.46 16.33,-24.65 16.33,-39.44l-3.59 0zm-15.28 36.9c-9.79,9.78 -23.06,15.28 -36.9,15.28l0 3.59c14.79,0 28.98,-5.87 39.44,-16.33l-2.54 -2.54zm-36.9 15.28c-13.84,0 -27.11,-5.5 -36.9,-15.28l-2.54 2.54c10.46,10.46 24.65,16.33 39.44,16.33l0 -3.59zm-36.9 -15.28c-9.78,-9.79 -15.28,-23.06 -15.28,-36.9l-3.6 0c0,14.79 5.88,28.98 16.34,39.44l2.54 -2.54zm-15.28 -36.9l0 -281.13 -3.6 0 0 281.13 3.6 0zm-1.8 -279.33l0.02 0 0 -3.6 -0.02 0 0 3.6z"/>
   <path class="fil3 str1" d="M326.34 394.69l0 135.78c0,19.58 -14.19,35.44 -31.71,35.44 -4.26,-0.04 -8.46,-0.98 -12.33,-2.77 -3.86,-1.79 -7.31,-4.39 -10.09,-7.61 -6.07,-6.93 -9.38,-15.85 -9.3,-25.06l0 -165.86c0,-12.53 10.46,-21.81 21.37,-18.93 6.91,1.87 37.01,49.95 44.08,51.08l-2.02 -2.07z"/>
   <path class="fil2 str0" d="M294.63 565.91l-0.02 1.8 0.02 0 0 -1.8zm-22.42 -10.38l1.36 -1.18 -0.01 -0.01 -1.35 1.19zm-9.3 -25.06l1.8 0.02 0 -0.02 -1.8 0zm21.37 -184.79l0.47 -1.73 -0.01 -0.01 -0.46 1.74zm40.27 49.01l0 135.78 3.59 0 0 -135.78 -3.59 0zm0 135.78c0,18.78 -13.58,33.65 -29.92,33.65l0 3.59c18.69,0 33.51,-16.86 33.51,-37.24l-3.59 0zm-29.9 33.65c-4.01,-0.04 -7.96,-0.93 -11.59,-2.61l-1.51 3.26c4.09,1.9 8.55,2.9 13.06,2.94l0.04 -3.59zm-11.59 -2.61c-3.64,-1.69 -6.87,-4.13 -9.49,-7.16l-2.72 2.36c2.95,3.41 6.6,6.16 10.7,8.06l1.51 -3.26zm-9.5 -7.17c-5.78,-6.59 -8.93,-15.08 -8.85,-23.85l-3.59 -0.03c-0.09,9.65 3.37,19 9.74,26.25l2.7 -2.37zm-8.85 -23.87l0 -165.86 -3.59 0 0 165.86 3.59 0zm0 -165.86c0,-11.63 9.6,-19.7 19.11,-17.19l0.92 -3.48c-12.31,-3.24 -23.62,7.24 -23.62,20.67l3.59 0zm19.1 -17.19c0.1,0.03 0.4,0.16 0.94,0.57 0.51,0.38 1.13,0.93 1.85,1.65 1.43,1.43 3.16,3.41 5.09,5.79 3.88,4.75 8.48,10.93 13.13,17.14 4.63,6.19 9.3,12.41 13.26,17.15 1.98,2.36 3.81,4.4 5.4,5.9 0.8,0.75 1.56,1.4 2.28,1.88 0.69,0.47 1.48,0.9 2.31,1.03l0.57 -3.55c-0.05,-0.01 -0.32,-0.09 -0.86,-0.45 -0.5,-0.34 -1.11,-0.85 -1.83,-1.52 -1.43,-1.36 -3.17,-3.27 -5.11,-5.6 -3.89,-4.65 -8.5,-10.78 -13.14,-16.99 -4.63,-6.18 -9.29,-12.44 -13.22,-17.26 -1.96,-2.41 -3.78,-4.51 -5.34,-6.07 -0.78,-0.77 -1.53,-1.45 -2.22,-1.97 -0.66,-0.5 -1.4,-0.97 -2.17,-1.17l-0.94 3.47z"/>
   <path class="fil4" d="M304.37 405.14l0 -148.68 -19.8 0 0 148.67c-0.08,8.05 -1.4,16.02 -3.91,23.61 -1.36,4.37 -2.04,8.95 -2.01,13.56 0,15.32 7.08,27.74 15.83,27.74 8.75,0 15.83,-12.37 15.83,-27.74 0.03,-4.61 -0.65,-9.19 -2.01,-13.56 -2.51,-7.58 -3.84,-15.56 -3.93,-23.6z"/>
   <path class="fil2 str0" d="M304.37 405.14l-1.8 0 0.01 0.02 1.79 -0.02zm0 -148.68l1.8 0 0 -1.8 -1.8 0 0 1.8zm-19.8 0l0 -1.8 -1.8 0 0 1.8 1.8 0zm0 148.67l1.8 0.02 0 -0.02 -1.8 0zm-3.91 23.61l-1.71 -0.56 0 0.01 -0.01 0.02 1.72 0.53zm-2.01 13.56l1.8 0 0 -0.02 -1.8 0.02zm31.66 0l-1.79 -0.02 0 0.02 1.79 0zm-2.01 -13.56l1.72 -0.53 -0.01 -0.02 0 -0.01 -1.71 0.56zm-2.13 -23.6l0 -148.68 -3.6 0 0 148.68 3.6 0zm-1.8 -150.48l-19.8 0 0 3.6 19.8 0 0 -3.6zm-21.6 1.8l0 148.67 3.6 0 0 -148.67 -3.6 0zm0 148.65c-0.07,7.86 -1.36,15.66 -3.82,23.07l3.42 1.13c2.57,-7.77 3.92,-15.93 4,-24.16l-3.6 -0.04zm-3.83 23.1c-1.41,4.55 -2.12,9.31 -2.09,14.1l3.6 -0.03c-0.03,-4.42 0.62,-8.81 1.93,-13l-3.44 -1.07zm-2.09 14.09c0,7.91 1.83,15.17 4.87,20.5 3.02,5.29 7.46,9.03 12.76,9.03l0 -3.59c-3.45,0 -6.92,-2.47 -9.63,-7.22 -2.69,-4.7 -4.4,-11.32 -4.4,-18.72l-3.6 0zm17.63 29.53c5.3,0 9.74,-3.73 12.76,-9.01 3.05,-5.33 4.87,-12.59 4.87,-20.52l-3.59 0c0,7.43 -1.72,14.04 -4.4,18.74 -2.71,4.74 -6.19,7.2 -9.64,7.2l0 3.59zm17.63 -29.52c0.03,-4.79 -0.68,-9.55 -2.09,-14.1l-3.43 1.07c1.3,4.19 1.95,8.58 1.93,13l3.59 0.03zm-2.1 -14.13c-2.46,-7.41 -3.76,-15.2 -3.84,-23.06l-3.59 0.04c0.08,8.23 1.44,16.39 4.02,24.15l3.41 -1.13z"/>
   <g>
    <rect class="fil5" transform="matrix(8.24419E-16 -0.177877 -0.434786 -6.5801E-14 366.276 245.932)" width="33.96" height="329.53"/>
    <rect class="fil5" transform="matrix(8.24419E-16 -0.177877 -0.434786 -6.5801E-14 366.276 233.217)" width="33.96" height="329.53"/>
    <rect class="fil5" transform="matrix(8.24419E-16 -0.177877 -0.434786 -6.5801E-14 366.276 220.502)" width="33.96" height="329.53"/>
   </g>
  </g>
  <path class="fil6 str2" d="M294.64 167.05c-84.54,0 -153.08,-28.49 -153.08,-63.64 0,-35.14 68.54,-63.64 153.08,-63.64 84.54,0 153.07,28.5 153.07,63.64"/>
  <path class="fil3" d="M245.17 134.19l17.35 -23.98 -16.73 -23.26 11.81 0 10.92 15.57 10.91 -15.57 11.54 0 -16.73 22.99 17.45 24.25 -11.81 0 -11.63 -16.55 -11.54 16.55 -11.54 0zm76.39 1.07c-8.76,0 -16.43,-3.19 -22.99,-9.57l6.8 -7.96c5.37,5.01 10.74,7.51 16.1,7.51 3.76,0 6.77,-1 9.04,-3 2.27,-2 3.4,-4.66 3.4,-8 0,-3.16 -1.21,-5.68 -3.62,-7.56 -2.42,-1.88 -5.54,-2.82 -9.35,-2.82 -3.76,0 -7.61,0.92 -11.54,2.77l-6.62 -4.38 1.79 -30.68 37.39 0 0 9.75 -27.91 0 -0.98 14.67c3.28,-1.19 6.58,-1.79 9.92,-1.79 6.39,0 11.6,1.7 15.66,5.1 4.06,3.4 6.08,8.32 6.08,14.76 0,6.38 -2.13,11.51 -6.39,15.38 -4.27,3.88 -9.86,5.82 -16.78,5.82z"/>
  <path class="fil3" d="M427.61 101.54l19.8 39.6 19.8 -39.6c-13.2,0 -26.4,0 -39.6,0z"/>
  <path class="fil3" d="M444.23 411.7l-39.6 0 0 9.9 -39.59 -19.8 39.59 -19.79 0 9.89 39.6 0 0 19.8zm-19.8 0m-19.8 4.95m-19.8 -4.95m0 -19.79m19.8 -4.95m19.8 4.94m19.8 9.9"/>
  <path class="fil3" d="M141.94 411.7l39.59 0 0 9.9 39.6 -19.8 -39.6 -19.79 0 9.89 -39.59 0 0 19.8zm19.79 0m19.8 4.95m19.8 -4.95m0 -19.79m-19.8 -4.95m-19.8 4.94m-19.79 9.9"/>
 </g>
</svg>
