<?xml version="1.0" encoding="UTF-8"?>
<!DOCTYPE svg PUBLIC "-//W3C//DTD SVG 1.0//EN" "http://www.w3.org/TR/2001/REC-SVG-20010904/DTD/svg10.dtd">
<!-- Creator: CorelDRAW 2020 (64-Bit) -->
<svg xmlns="http://www.w3.org/2000/svg" xml:space="preserve" width="600px" height="600px" version="1.0" style="shape-rendering:geometricPrecision; text-rendering:geometricPrecision; image-rendering:optimizeQuality; fill-rule:evenodd; clip-rule:evenodd"
viewBox="0 0 600 600"
 xmlns:xlink="http://www.w3.org/1999/xlink"
 xmlns:xodm="http://www.corel.com/coreldraw/odm/2003">
 <defs>
  <style type="text/css">
   <![CDATA[
    .str1 {stroke:#009291;stroke-width:5.97;stroke-miterlimit:10}
    .str0 {stroke:#009291;stroke-width:5.97;stroke-miterlimit:10}
    .fil4 {fill:#009291}
    .fil1 {fill:#009291;fill-rule:nonzero}
    .fil3 {fill:#519190;fill-rule:nonzero}
    .fil0 {fill:#7DD7C8;fill-rule:nonzero}
    .fil2 {fill:white;fill-rule:nonzero}
   ]]>
  </style>
 </defs>
 <g id="Слой_x0020_1">
  <metadata id="CorelCorpID_0Corel-Layer"/>
  <g id="_2596302828976">
   <path class="fil0" d="M284.08 43.37l-170.57 0c-3.87,0 -7,3.13 -7,7l0 48.91c0,3.86 3.13,7 7,7l170.57 0c3.87,0 7,-3.14 7,-7l0 -48.91c0,-3.87 -3.13,-7 -7,-7z"/>
   <path class="fil1 str0" d="M113.51 45.63l170.57 0 0 -4.52 -170.57 0 0 4.52zm170.57 0c2.62,0 4.74,2.12 4.74,4.74l4.52 0c0,-5.11 -4.14,-9.26 -9.26,-9.26l0 4.52zm4.74 4.74l0 48.91 4.52 0 0 -48.91 -4.52 0zm0 48.91c0,2.62 -2.12,4.74 -4.74,4.74l0 4.52c5.12,0 9.26,-4.15 9.26,-9.26l-4.52 0zm-4.74 4.74l-170.57 0 0 4.52 170.57 0 0 -4.52zm-170.57 0c-2.62,0 -4.74,-2.12 -4.74,-4.74l-4.52 0c0,5.11 4.14,9.26 9.26,9.26l0 -4.52zm-4.74 -4.74l0 -48.91 -4.52 0 0 48.91 4.52 0zm0 -48.91c0,-2.62 2.12,-4.74 4.74,-4.74l0 -4.52c-5.12,0 -9.26,4.15 -9.26,9.26l4.52 0z"/>
   <path class="fil1 str1" d="M266.59 159.61l2.26 0 0 -2.26 -2.26 0 0 2.26zm-135.66 353.3l-2.26 0 2.26 0zm0 -353.3l0 -2.26 -2.26 0 0 2.26 2.26 0zm0.02 2.26l135.64 0 0 -4.52 -135.64 0 0 4.52zm133.38 -2.26l0 353.3 4.52 0 0 -353.3 -4.52 0zm0 353.3c0,17.39 -6.9,34.07 -19.2,46.37l3.19 3.19c13.15,-13.14 20.53,-30.97 20.53,-49.56l-4.52 0zm-19.2 46.37c-12.3,12.29 -28.98,19.2 -46.37,19.2l0 4.52c18.59,0 36.42,-7.38 49.56,-20.53l-3.19 -3.19zm-46.37 19.2c-17.39,0 -34.07,-6.91 -46.37,-19.2l-3.19 3.19c13.14,13.15 30.97,20.53 49.56,20.53l0 -4.52zm-46.37 -19.2c-12.3,-12.3 -19.2,-28.98 -19.2,-46.37l-4.52 0c0,18.59 7.38,36.42 20.53,49.56l3.19 -3.19zm-19.2 -46.37l0 -353.3 -4.52 0 0 353.3 4.52 0zm-2.26 -351.04l0.02 0 0 -4.52 -0.02 0 0 4.52z"/>
   <path class="fil1" d="M238.64 333.34l0 170.64c0,24.6 -17.84,44.54 -39.85,44.54 -5.36,-0.05 -10.64,-1.24 -15.5,-3.49 -4.86,-2.25 -9.18,-5.51 -12.68,-9.56 -7.63,-8.71 -11.79,-19.92 -11.68,-31.49l0 -208.45c0,-15.74 13.14,-27.4 26.85,-23.78 8.68,2.35 46.51,62.77 55.39,64.19l-2.53 -2.6z"/>
   <path class="fil1 str1" d="M198.79 548.52l-0.03 2.26 0.03 0 0 -2.26zm-28.18 -13.05l1.71 -1.48 -0.01 -0.01 -1.7 1.49zm-11.68 -31.49l2.26 0.02 0 -0.02 -2.26 0zm26.85 -232.23l0.59 -2.18 -0.01 0 -0.58 2.18zm50.6 61.59l0 170.64 4.52 0 0 -170.64 -4.52 0zm0 170.64c0,23.59 -17.06,42.28 -37.59,42.28l0 4.52c23.49,0 42.11,-21.2 42.11,-46.8l-4.52 0zm-37.57 42.28c-5.04,-0.05 -10,-1.17 -14.57,-3.28l-1.9 4.1c5.15,2.38 10.75,3.64 16.42,3.7l0.05 -4.52zm-14.57 -3.28c-4.57,-2.12 -8.63,-5.18 -11.92,-8.99l-3.42 2.96c3.71,4.29 8.29,7.74 13.44,10.13l1.9 -4.1zm-11.93 -9c-7.27,-8.29 -11.22,-18.96 -11.12,-29.98l-4.52 -0.04c-0.11,12.13 4.24,23.88 12.24,33l3.4 -2.98zm-11.12 -30l0 -208.45 -4.52 0 0 208.45 4.52 0zm0 -208.45c0,-14.61 12.05,-24.75 24.01,-21.59l1.16 -4.37c-15.47,-4.09 -29.69,9.09 -29.69,25.96l4.52 0zm24 -21.6c0.12,0.03 0.5,0.2 1.18,0.72 0.65,0.48 1.42,1.17 2.32,2.07 1.8,1.8 3.97,4.29 6.41,7.28 4.87,5.97 10.65,13.74 16.49,21.54 5.82,7.78 11.69,15.59 16.67,21.55 2.48,2.97 4.79,5.54 6.79,7.42 1,0.94 1.96,1.75 2.86,2.37 0.86,0.58 1.86,1.12 2.9,1.29l0.72 -4.47c-0.07,-0.01 -0.41,-0.11 -1.08,-0.56 -0.63,-0.43 -1.4,-1.07 -2.3,-1.92 -1.81,-1.7 -3.98,-4.11 -6.43,-7.03 -4.88,-5.85 -10.67,-13.55 -16.51,-21.35 -5.81,-7.77 -11.67,-15.64 -16.61,-21.7 -2.47,-3.03 -4.75,-5.66 -6.72,-7.62 -0.98,-0.97 -1.91,-1.82 -2.78,-2.48 -0.83,-0.63 -1.77,-1.21 -2.73,-1.47l-1.18 4.36z"/>
   <path class="fil2" d="M211.03 293.16l0 -186.85 -24.89 0 0 186.83c-0.09,10.11 -1.75,20.14 -4.91,29.68 -1.71,5.49 -2.56,11.24 -2.53,17.03 0,19.26 8.91,34.86 19.9,34.86 10.99,0 19.9,-15.55 19.9,-34.86 0.03,-5.79 -0.82,-11.54 -2.53,-17.03 -3.17,-9.54 -4.83,-19.56 -4.94,-29.66z"/>
   <path class="fil3 str0" d="M211.03 293.16l-2.26 0 0 0.02 2.26 -0.02zm0 -186.85l2.26 0 0 -2.26 -2.26 0 0 2.26zm-24.89 0l0 -2.26 -2.26 0 0 2.26 2.26 0zm0 186.83l2.26 0.02 0 -0.02 -2.26 0zm-4.91 29.68l-2.14 -0.71 -0.01 0.02 -0.01 0.02 2.16 0.67zm-2.53 17.03l2.26 0 0 -0.02 -2.26 0.02zm39.8 0l-2.26 -0.02 0 0.02 2.26 0zm-2.53 -17.03l2.16 -0.67 -0.01 -0.02 -0.01 -0.02 -2.14 0.71zm-2.68 -29.66l0 -186.85 -4.52 0 0 186.85 4.52 0zm-2.26 -189.11l-24.89 0 0 4.52 24.89 0 0 -4.52zm-27.15 2.26l0 186.83 4.52 0 0 -186.83 -4.52 0zm0 186.81c-0.09,9.88 -1.71,19.67 -4.79,28.99l4.29 1.42c3.23,-9.77 4.92,-20.02 5.02,-30.37l-4.52 -0.04zm-4.81 29.03c-1.78,5.71 -2.66,11.69 -2.63,17.71l4.52 -0.03c-0.03,-5.55 0.79,-11.07 2.43,-16.34l-4.32 -1.34zm-2.63 17.7c0,9.95 2.3,19.06 6.13,25.77 3.79,6.64 9.37,11.35 16.03,11.35l0 -4.52c-4.34,0 -8.7,-3.1 -12.11,-9.07 -3.37,-5.91 -5.53,-14.22 -5.53,-23.53l-4.52 0zm22.16 37.12c6.66,0 12.24,-4.69 16.03,-11.33 3.83,-6.7 6.13,-15.82 6.13,-25.79l-4.52 0c0,9.34 -2.16,17.65 -5.53,23.55 -3.41,5.96 -7.77,9.05 -12.11,9.05l0 4.52zm22.16 -37.11c0.03,-6.02 -0.86,-12 -2.63,-17.71l-4.32 1.34c1.64,5.27 2.46,10.79 2.43,16.34l4.52 0.03zm-2.65 -17.75c-3.09,-9.31 -4.72,-19.1 -4.82,-28.98l-4.52 0.05c0.11,10.34 1.82,20.59 5.05,30.35l4.29 -1.42z"/>
   <g>
    <rect class="fil4" transform="matrix(1.03606E-15 -0.22354 -0.546401 -8.26929E-14 288.824 94.5998)" width="33.96" height="329.53"/>
    <rect class="fil4" transform="matrix(1.03606E-15 -0.22354 -0.546401 -8.26929E-14 288.824 78.6208)" width="33.96" height="329.53"/>
    <rect class="fil4" transform="matrix(1.03606E-15 -0.22354 -0.546401 -8.26929E-14 288.824 62.6417)" width="33.96" height="329.53"/>
   </g>
  </g>
  <path class="fil1" d="M389.67 381.44l21.81 -30.13 -21.02 -29.23 14.84 0 13.72 19.56 13.71 -19.56 14.5 0 -21.02 28.89 21.92 30.47 -14.84 0 -14.61 -20.8 -14.5 20.8 -14.51 0zm96.01 1.35c-11.02,0 -20.65,-4.01 -28.89,-12.03l8.54 -10.01c6.75,6.3 13.5,9.45 20.24,9.45 4.72,0 8.51,-1.26 11.35,-3.77 2.85,-2.51 4.28,-5.86 4.28,-10.06 0,-3.97 -1.52,-7.14 -4.56,-9.5 -3.03,-2.36 -6.95,-3.54 -11.74,-3.54 -4.73,0 -9.56,1.16 -14.51,3.48l-8.32 -5.5 2.25 -38.57 47 0 0 12.26 -35.08 0 -1.24 18.44c4.12,-1.5 8.28,-2.25 12.48,-2.25 8.02,0 14.58,2.13 19.68,6.41 5.09,4.27 7.64,10.45 7.64,18.55 0,8.01 -2.68,14.46 -8.04,19.33 -5.36,4.87 -12.38,7.31 -21.08,7.31z"/>
  <path class="fil1" d="M322.24 452.47l-12.44 0 24.88 49.76 24.88 -49.76 -12.44 0c0,-49.17 0,-158.77 0,-207.94l12.44 0 -24.88 -49.76 -24.88 49.76 12.44 0c0,49.17 0,158.77 0,207.94z"/>
 </g>
</svg>
