<?xml version="1.0" encoding="UTF-8"?>
<!DOCTYPE svg PUBLIC "-//W3C//DTD SVG 1.0//EN" "http://www.w3.org/TR/2001/REC-SVG-20010904/DTD/svg10.dtd">
<!-- Creator: CorelDRAW 2020 (64-Bit) -->
<svg xmlns="http://www.w3.org/2000/svg" xml:space="preserve" width="600px" height="600px" version="1.0" style="shape-rendering:geometricPrecision; text-rendering:geometricPrecision; image-rendering:optimizeQuality; fill-rule:evenodd; clip-rule:evenodd"
viewBox="0 0 600 600"
 xmlns:xlink="http://www.w3.org/1999/xlink"
 xmlns:xodm="http://www.corel.com/coreldraw/odm/2003">
 <defs>
  <style type="text/css">
   <![CDATA[
    .str0 {stroke:#009291;stroke-width:8.33;stroke-miterlimit:10}
    .str1 {stroke:#009291;stroke-width:0.9;stroke-miterlimit:22.9256}
    .fil5 {fill:#009291}
    .fil3 {fill:#009291;fill-rule:nonzero}
    .fil1 {fill:#037675;fill-rule:nonzero}
    .fil2 {fill:#519190;fill-rule:nonzero}
    .fil0 {fill:#7DD7C8;fill-rule:nonzero}
    .fil4 {fill:white;fill-rule:nonzero}
   ]]>
  </style>
 </defs>
 <g id="Слой_x0020_1">
  <metadata id="CorelCorpID_0Corel-Layer"/>
  <g id="_2596251631904">
   <path class="fil0" d="M392.64 50.24l-182.06 0c-4.12,0 -7.47,3.34 -7.47,7.47l0 52.2c0,4.13 3.35,7.47 7.47,7.47l182.06 0c4.13,0 7.47,-3.34 7.47,-7.47l0 -52.2c0,-4.13 -3.34,-7.47 -7.47,-7.47z"/>
   <path class="fil1 str0" d="M210.58 52.65l182.06 0 0 -4.82 -182.06 0 0 4.82zm182.06 0c2.79,0 5.06,2.27 5.06,5.06l4.82 0c0,-5.46 -4.42,-9.88 -9.88,-9.88l0 4.82zm5.06 5.06l0 52.2 4.82 0 0 -52.2 -4.82 0zm0 52.2c0,2.8 -2.27,5.06 -5.06,5.06l0 4.82c5.46,0 9.88,-4.42 9.88,-9.88l-4.82 0zm-5.06 5.06l-182.06 0 0 4.82 182.06 0 0 -4.82zm-182.06 0c-2.79,0 -5.05,-2.26 -5.05,-5.06l-4.83 0c0,5.46 4.43,9.88 9.88,9.88l0 -4.82zm-5.05 -5.06l0 -52.2 -4.83 0 0 52.2 4.83 0zm0 -52.2c0,-2.79 2.26,-5.06 5.05,-5.06l0 -4.82c-5.45,0 -9.88,4.42 -9.88,9.88l4.83 0z"/>
   <path class="fil2 str0" d="M373.97 117.39l2.41 0 0 -2.41 -2.41 0 0 2.41zm-144.79 377.08l-2.41 0 2.41 0zm0 -377.08l0 -2.41 -2.41 0 0 2.41 2.41 0zm0.02 2.42l144.77 0 0 -4.83 -144.77 0 0 4.83zm142.36 -2.42l0 377.08 4.82 0 0 -377.08 -4.82 0zm0 377.08c0,18.56 -7.37,36.36 -20.5,49.48l3.41 3.42c14.03,-14.03 21.91,-33.06 21.91,-52.9l-4.82 0zm-20.5 49.48c-13.12,13.13 -30.92,20.5 -49.49,20.5l0 4.83c19.85,0 38.87,-7.89 52.9,-21.91l-3.41 -3.42zm-49.49 20.5c-18.56,0 -36.36,-7.37 -49.48,-20.5l-3.41 3.42c14.03,14.02 33.05,21.91 52.89,21.91l0 -4.83zm-49.48 -20.5c-13.13,-13.12 -20.5,-30.92 -20.5,-49.48l-4.82 0c0,19.84 7.88,38.87 21.91,52.9l3.41 -3.42zm-20.5 -49.48l0 -377.08 -4.82 0 0 377.08 4.82 0zm-2.41 -374.66l0.02 0 0 -4.83 -0.02 0 0 4.83z"/>
   <path class="fil3 str1" d="M344.14 302.81l0 182.13c0,26.25 -19.04,47.53 -42.54,47.53 -5.71,-0.05 -11.35,-1.32 -16.53,-3.72 -5.19,-2.41 -9.8,-5.88 -13.54,-10.21 -8.14,-9.29 -12.58,-21.25 -12.47,-33.6l0 -222.48c0,-16.8 14.02,-29.24 28.66,-25.38 9.27,2.51 49.64,66.99 59.12,68.51l-2.7 -2.78z"/>
   <path class="fil2 str0" d="M301.6 532.47l-0.02 2.41 0.02 0 0 -2.41zm-30.07 -13.93l1.82 -1.57 -0.01 -0.02 -1.81 1.59zm-12.47 -33.6l2.41 0.02 0 -0.02 -2.41 0zm28.66 -247.86l0.63 -2.33 -0.01 0 -0.62 2.33zm54.01 65.73l0 182.13 4.82 0 0 -182.13 -4.82 0zm0 182.13c0,25.18 -18.21,45.12 -40.13,45.12l0 4.82c25.07,0 44.95,-22.62 44.95,-49.94l-4.82 0zm-40.11 45.12c-5.37,-0.05 -10.67,-1.24 -15.54,-3.5l-2.03 4.37c5.5,2.55 11.47,3.9 17.53,3.95l0.04 -4.82zm-15.54 -3.5c-4.87,-2.26 -9.21,-5.53 -12.73,-9.59l-3.65 3.15c3.97,4.58 8.86,8.27 14.35,10.81l2.03 -4.37zm-12.74 -9.61c-7.75,-8.84 -11.98,-20.23 -11.87,-31.99l-4.82 -0.05c-0.12,12.95 4.53,25.49 13.07,35.22l3.62 -3.18zm-11.87 -32.01l0 -222.48 -4.82 0 0 222.48 4.82 0zm0 -222.48c0,-15.59 12.87,-26.42 25.63,-23.05l1.24 -4.66c-16.51,-4.36 -31.69,9.7 -31.69,27.71l4.82 0zm25.62 -23.05c0.13,0.04 0.54,0.21 1.26,0.76 0.69,0.52 1.52,1.26 2.48,2.22 1.92,1.92 4.24,4.58 6.83,7.76 5.2,6.38 11.38,14.67 17.61,23 6.21,8.3 12.47,16.63 17.79,22.99 2.65,3.18 5.11,5.91 7.24,7.92 1.07,1.01 2.1,1.87 3.06,2.53 0.92,0.63 1.99,1.2 3.1,1.38l0.76 -4.77c-0.07,-0.01 -0.43,-0.11 -1.15,-0.6 -0.67,-0.46 -1.49,-1.14 -2.46,-2.04 -1.92,-1.82 -4.24,-4.39 -6.85,-7.51 -5.22,-6.24 -11.4,-14.46 -17.63,-22.79 -6.2,-8.29 -12.45,-16.68 -17.73,-23.15 -2.63,-3.24 -5.07,-6.04 -7.16,-8.13 -1.05,-1.05 -2.05,-1.95 -2.98,-2.65 -0.89,-0.68 -1.88,-1.3 -2.91,-1.58l-1.26 4.66z"/>
   <path class="fil4" d="M314.67 316.83l0 -199.42 -26.56 0 0 199.41c-0.1,10.79 -1.88,21.49 -5.24,31.67 -1.83,5.86 -2.74,12 -2.7,18.18 0,20.55 9.5,37.2 21.23,37.2 11.74,0 21.24,-16.59 21.24,-37.2 0.04,-6.18 -0.88,-12.32 -2.7,-18.18 -3.38,-10.17 -5.16,-20.87 -5.27,-31.66z"/>
   <path class="fil2 str0" d="M314.67 316.83l-2.41 0 0 0.03 2.41 -0.03zm0 -199.42l2.41 0 0 -2.41 -2.41 0 0 2.41zm-26.56 0l0 -2.41 -2.41 0 0 2.41 2.41 0zm0 199.41l2.41 0.02 0 -0.02 -2.41 0zm-5.24 31.67l-2.29 -0.76 -0.01 0.02 -0.01 0.02 2.31 0.72zm-2.7 18.18l2.41 0 0 -0.02 -2.41 0.02zm42.47 0l-2.41 -0.02 0 0.02 2.41 0zm-2.7 -18.18l2.3 -0.72 0 -0.02 -0.01 -0.02 -2.29 0.76zm-2.86 -31.66l0 -199.42 -4.82 0 0 199.42 4.82 0zm-2.41 -201.83l-26.56 0 0 4.82 26.56 0 0 -4.82zm-28.97 2.41l0 199.41 4.82 0 0 -199.41 -4.82 0zm0 199.38c-0.1,10.55 -1.83,21 -5.12,30.94l4.57 1.52c3.45,-10.42 5.26,-21.37 5.37,-32.41l-4.82 -0.05zm-5.14 30.98c-1.89,6.1 -2.84,12.49 -2.8,18.91l4.82 -0.03c-0.04,-5.93 0.84,-11.82 2.59,-17.44l-4.61 -1.44zm-2.8 18.9c0,10.61 2.44,20.34 6.53,27.5 4.05,7.09 10.01,12.11 17.11,12.11l0 -4.82c-4.62,0 -9.28,-3.3 -12.92,-9.68 -3.6,-6.3 -5.9,-15.18 -5.9,-25.11l-4.82 0zm23.64 39.61c7.11,0 13.07,-5 17.12,-12.08 4.08,-7.16 6.53,-16.89 6.53,-27.53l-4.82 0c0,9.96 -2.3,18.84 -5.9,25.13 -3.64,6.37 -8.3,9.66 -12.93,9.66l0 4.82zm23.65 -39.6c0.04,-6.42 -0.91,-12.81 -2.81,-18.91l-4.6 1.44c1.75,5.62 2.62,11.51 2.59,17.44l4.82 0.03zm-2.82 -18.95c-3.3,-9.94 -5.04,-20.38 -5.15,-30.92l-4.82 0.05c0.11,11.03 1.94,21.98 5.39,32.39l4.58 -1.52z"/>
   <g>
    <rect class="fil5" transform="matrix(1.10577E-15 -0.238581 -0.583165 -8.82569E-14 397.699 103.29)" width="33.96" height="329.53"/>
    <rect class="fil5" transform="matrix(1.10577E-15 -0.238581 -0.583165 -8.82569E-14 397.699 86.2354)" width="33.96" height="329.53"/>
    <rect class="fil5" transform="matrix(1.10577E-15 -0.238581 -0.583165 -8.82569E-14 397.699 69.1812)" width="33.96" height="329.53"/>
   </g>
  </g>
 </g>
</svg>
