<?xml version="1.0" encoding="UTF-8"?>
<!DOCTYPE svg PUBLIC "-//W3C//DTD SVG 1.0//EN" "http://www.w3.org/TR/2001/REC-SVG-20010904/DTD/svg10.dtd">
<!-- Creator: CorelDRAW 2020 (64-Bit) -->
<svg xmlns="http://www.w3.org/2000/svg" xml:space="preserve" width="600px" height="600px" version="1.0" style="shape-rendering:geometricPrecision; text-rendering:geometricPrecision; image-rendering:optimizeQuality; fill-rule:evenodd; clip-rule:evenodd"
viewBox="0 0 600 600"
 xmlns:xlink="http://www.w3.org/1999/xlink"
 xmlns:xodm="http://www.corel.com/coreldraw/odm/2003">
 <defs>
  <style type="text/css">
   <![CDATA[
    .str0 {stroke:#009291;stroke-width:12.5;stroke-miterlimit:22.9256}
    .str2 {stroke:#009291;stroke-width:0.9;stroke-miterlimit:22.9256}
    .str3 {stroke:#009291;stroke-width:6.16;stroke-miterlimit:10}
    .str1 {stroke:#009291;stroke-width:6.16;stroke-miterlimit:10}
    .fil0 {fill:none}
    .fil5 {fill:#009291}
    .fil3 {fill:#009291;fill-rule:nonzero}
    .fil2 {fill:#037675;fill-rule:nonzero}
    .fil1 {fill:#7DD7C8;fill-rule:nonzero}
    .fil4 {fill:white;fill-rule:nonzero}
   ]]>
  </style>
 </defs>
 <g id="Слой_x0020_1">
  <metadata id="CorelCorpID_0Corel-Layer"/>
  <path class="fil0 str0" d="M168.04 120.36l158.44 0c-26.08,131.65 -23.59,261.54 0,393.79 6.96,39.01 -35.65,71.85 -79.22,71.85l0 0c-43.57,0 -87.6,-33.07 -79.22,-71.85 26.82,-124.08 26.8,-255.31 0,-393.79z"/>
  <g id="_2596258116000">
   <path class="fil1" d="M335.35 28.5l-175.98 0c-3.99,0 -7.22,3.23 -7.22,7.22l0 50.46c0,3.98 3.23,7.22 7.22,7.22l175.98 0c3.99,0 7.22,-3.24 7.22,-7.22l0 -50.46c0,-3.99 -3.23,-7.22 -7.22,-7.22z"/>
   <path class="fil2 str1" d="M159.37 30.83l175.98 0 0 -4.67 -175.98 0 0 4.67zm175.98 0c2.7,0 4.89,2.19 4.89,4.89l4.66 0c0,-5.28 -4.28,-9.56 -9.55,-9.56l0 4.67zm4.89 4.89l0 50.46 4.66 0 0 -50.46 -4.66 0zm0 50.46c0,2.7 -2.19,4.89 -4.89,4.89l0 4.66c5.27,0 9.55,-4.28 9.55,-9.55l-4.66 0zm-4.89 4.89l-175.98 0 0 4.66 175.98 0 0 -4.66zm-175.98 0c-2.7,0 -4.89,-2.19 -4.89,-4.89l-4.67 0c0,5.27 4.28,9.55 9.56,9.55l0 -4.66zm-4.89 -4.89l0 -50.46 -4.67 0 0 50.46 4.67 0zm0 -50.46c0,-2.7 2.19,-4.89 4.89,-4.89l0 -4.67c-5.28,0 -9.56,4.28 -9.56,9.56l4.67 0z"/>
   <path class="fil3 str2" d="M288.47 327.65l0 176.05c0,25.38 -18.41,45.95 -41.12,45.95 -5.53,-0.06 -10.98,-1.28 -15.99,-3.61 -5.01,-2.32 -9.47,-5.68 -13.08,-9.86 -7.87,-8.98 -12.16,-20.54 -12.05,-32.48l0 -215.05c0,-16.25 13.55,-28.27 27.7,-24.54 8.96,2.42 47.98,64.76 57.15,66.22l-2.61 -2.68z"/>
   <path class="fil3 str3" d="M247.35 549.65l-0.03 2.33 0.03 0 0 -2.33zm-29.07 -13.47l1.76 -1.52 -0.01 -0.01 -1.75 1.53zm-12.05 -32.48l2.33 0.02 0 -0.02 -2.33 0zm27.7 -239.59l0.61 -2.25 -0.02 0 -0.59 2.25zm52.21 63.54l0 176.05 4.66 0 0 -176.05 -4.66 0zm0 176.05c0,24.34 -17.6,43.62 -38.79,43.62l0 4.66c24.23,0 43.45,-21.87 43.45,-48.28l-4.66 0zm-38.77 43.62c-5.19,-0.05 -10.32,-1.21 -15.03,-3.39l-1.96 4.23c5.32,2.46 11.09,3.76 16.94,3.82l0.05 -4.66zm-15.03 -3.39c-4.71,-2.18 -8.9,-5.34 -12.3,-9.27l-3.52 3.05c3.82,4.43 8.55,7.99 13.86,10.45l1.96 -4.23zm-12.31 -9.28c-7.49,-8.55 -11.58,-19.56 -11.47,-30.93l-4.66 -0.04c-0.12,12.51 4.38,24.63 12.63,34.04l3.5 -3.07zm-11.47 -30.95l0 -215.05 -4.66 0 0 215.05 4.66 0zm0 -215.05c0,-15.08 12.44,-25.54 24.77,-22.28l1.19 -4.51c-15.95,-4.22 -30.62,9.37 -30.62,26.79l4.66 0zm24.76 -22.29c0.13,0.04 0.52,0.21 1.22,0.74 0.66,0.5 1.46,1.21 2.39,2.14 1.86,1.86 4.1,4.42 6.61,7.51 5.03,6.16 11,14.17 17.02,22.23 6,8.02 12.06,16.08 17.19,22.22 2.57,3.07 4.95,5.72 7.01,7.66 1.03,0.97 2.02,1.81 2.95,2.44 0.89,0.6 1.92,1.16 3,1.33l0.73 -4.6c-0.07,-0.01 -0.42,-0.12 -1.11,-0.59 -0.65,-0.44 -1.44,-1.1 -2.37,-1.97 -1.87,-1.76 -4.11,-4.24 -6.63,-7.26 -5.04,-6.03 -11.02,-13.98 -17.04,-22.03 -5.99,-8.01 -12.04,-16.13 -17.14,-22.38 -2.54,-3.12 -4.9,-5.84 -6.92,-7.86 -1.01,-1.01 -1.98,-1.88 -2.88,-2.56 -0.86,-0.65 -1.82,-1.25 -2.81,-1.52l-1.22 4.5z"/>
   <path class="fil4" d="M259.98 286.19l0 -192.76 -25.68 0 0 192.75c-0.09,10.43 -1.81,20.77 -5.06,30.62 -1.77,5.66 -2.65,11.6 -2.61,17.56 0,19.88 9.18,35.97 20.53,35.97 11.34,0 20.52,-16.04 20.52,-35.97 0.04,-5.96 -0.84,-11.9 -2.6,-17.56 -3.27,-9.84 -4.99,-20.18 -5.1,-30.61z"/>
   <path class="fil3 str1" d="M259.98 286.19l-2.33 0 0 0.03 2.33 -0.03zm0 -192.76l2.33 0 0 -2.33 -2.33 0 0 2.33zm-25.68 0l0 -2.33 -2.33 0 0 2.33 2.33 0zm0 192.75l2.33 0.02 0 -0.02 -2.33 0zm-5.06 30.62l-2.22 -0.74 0 0.02 -0.01 0.02 2.23 0.7zm-2.61 17.56l2.33 0 0 -0.01 -2.33 0.01zm41.05 0l-2.33 -0.01 0 0.01 2.33 0zm-2.6 -17.56l2.22 -0.7 -0.01 -0.02 0 -0.02 -2.21 0.74zm-2.77 -30.61l0 -192.76 -4.66 0 0 192.76 4.66 0zm-2.33 -195.09l-25.68 0 0 4.66 25.68 0 0 -4.66zm-28.01 2.33l0 192.75 4.66 0 0 -192.75 -4.66 0zm0 192.73c-0.09,10.19 -1.77,20.29 -4.95,29.9l4.43 1.47c3.33,-10.07 5.08,-20.66 5.18,-31.33l-4.66 -0.04zm-4.96 29.94c-1.83,5.9 -2.75,12.07 -2.71,18.28l4.66 -0.03c-0.04,-5.73 0.81,-11.42 2.5,-16.86l-4.45 -1.39zm-2.71 18.26c0,10.27 2.37,19.68 6.31,26.6 3.92,6.85 9.68,11.7 16.55,11.7l0 -4.66c-4.48,0 -8.98,-3.19 -12.5,-9.36 -3.48,-6.09 -5.7,-14.67 -5.7,-24.28l-4.66 0zm22.86 38.3c6.86,0 12.62,-4.83 16.54,-11.68 3.95,-6.92 6.32,-16.32 6.32,-26.62l-4.67 0c0,9.64 -2.22,18.22 -5.7,24.31 -3.52,6.15 -8.02,9.33 -12.49,9.33l0 4.66zm22.86 -38.28c0.03,-6.21 -0.88,-12.38 -2.72,-18.28l-4.45 1.39c1.69,5.44 2.54,11.13 2.5,16.86l4.67 0.03zm-2.73 -18.32c-3.19,-9.6 -4.87,-19.7 -4.98,-29.89l-4.66 0.05c0.11,10.67 1.87,21.24 5.21,31.31l4.43 -1.47z"/>
   <g>
    <rect class="fil5" transform="matrix(1.06888E-15 -0.230622 -0.563711 -8.53127E-14 340.239 81.348)" width="33.96" height="329.53"/>
    <rect class="fil5" transform="matrix(1.06888E-15 -0.230622 -0.563711 -8.53127E-14 340.239 64.8627)" width="33.96" height="329.53"/>
    <rect class="fil5" transform="matrix(1.06888E-15 -0.230622 -0.563711 -8.53127E-14 340.239 48.3774)" width="33.96" height="329.53"/>
   </g>
  </g>
  <path class="fil3" d="M417.64 429.1l0 -199.59 12.83 0 -25.67 -51.34 -25.67 51.34 12.84 0 0 199.59 25.67 0z"/>
 </g>
</svg>
