<?xml version="1.0" encoding="UTF-8"?>
<!DOCTYPE svg PUBLIC "-//W3C//DTD SVG 1.0//EN" "http://www.w3.org/TR/2001/REC-SVG-20010904/DTD/svg10.dtd">
<!-- Creator: CorelDRAW 2020 (64-Bit) -->
<svg xmlns="http://www.w3.org/2000/svg" xml:space="preserve" width="600px" height="600px" version="1.0" style="shape-rendering:geometricPrecision; text-rendering:geometricPrecision; image-rendering:optimizeQuality; fill-rule:evenodd; clip-rule:evenodd"
viewBox="0 0 600 600"
 xmlns:xlink="http://www.w3.org/1999/xlink"
 xmlns:xodm="http://www.corel.com/coreldraw/odm/2003">
 <defs>
  <style type="text/css">
   <![CDATA[
    .str0 {stroke:#009291;stroke-width:12.5;stroke-miterlimit:22.9256}
    .str2 {stroke:#009291;stroke-width:8.33;stroke-miterlimit:10}
    .str1 {stroke:#009291;stroke-width:0.9;stroke-miterlimit:22.9256}
    .fil0 {fill:none}
    .fil1 {fill:#009291}
    .fil6 {fill:#009291;fill-rule:nonzero}
    .fil3 {fill:#037675;fill-rule:nonzero}
    .fil5 {fill:#519190;fill-rule:nonzero}
    .fil2 {fill:#7DD7C8;fill-rule:nonzero}
    .fil4 {fill:white;fill-rule:nonzero}
   ]]>
  </style>
 </defs>
 <g id="Слой_x0020_1">
  <metadata id="CorelCorpID_0Corel-Layer"/>
  <path class="fil0 str0" d="M270.87 24.05c0,0 58.54,149.01 103.77,178.27 45.24,29.27 21.29,58.54 -7.98,71.85 -29.27,13.3 -39.91,-13.31 -77.16,-10.65 -37.25,2.66 -38.74,34.48 0,21.29 38.73,-13.19 36.27,-11.09 49.29,-9"/>
  <path class="fil0 str0" d="M241.6 287.47c0,0 -39.91,7.98 -50.55,-13.3 -10.64,-21.29 -7.98,-34.59 5.32,-53.22"/>
  <path class="fil1 str1" d="M330.68 271.81c0,0 -29.37,-11.66 -43.53,-8.08 -14.16,3.58 -45.29,26.72 -15.56,24.22 33.81,-2.84 24.75,-8.73 59.09,-16.14z"/>
  <g id="_2596286949232">
   <path class="fil2" d="M328.19 560.37l115.27 -42.12c2.61,-0.95 3.96,-3.84 3,-6.46l-12.07 -33.05c-0.95,-2.61 -3.85,-3.95 -6.46,-3l-115.27 42.11c-2.62,0.96 -3.96,3.85 -3.01,6.46l12.08 33.05c0.95,2.62 3.84,3.96 6.46,3.01z"/>
   <path class="fil3 str2" d="M442.9 516.73l-115.27 42.11 1.12 3.05 115.27 -42.11 -1.12 -3.05zm-115.27 42.11c-1.77,0.64 -3.73,-0.26 -4.37,-2.04l-3.06 1.12c1.26,3.46 5.09,5.23 8.55,3.97l-1.12 -3.05zm-4.37 -2.04l-12.08 -33.05 -3.05 1.12 12.07 33.05 3.06 -1.12zm-12.08 -33.05c-0.64,-1.77 0.26,-3.73 2.03,-4.37l-1.11 -3.06c-3.46,1.27 -5.24,5.09 -3.97,8.55l3.05 -1.12zm2.03 -4.37l115.28 -42.11 -1.12 -3.06 -115.27 42.11 1.11 3.06zm115.28 -42.11c1.77,-0.65 3.73,0.26 4.37,2.03l3.06 -1.12c-1.27,-3.45 -5.09,-5.23 -8.55,-3.97l1.12 3.06zm4.37 2.03l12.08 33.05 3.05 -1.11 -12.07 -33.06 -3.06 1.12zm12.08 33.05c0.64,1.77 -0.27,3.73 -2.04,4.38l1.12 3.05c3.46,-1.26 5.23,-5.09 3.97,-8.54l-3.05 1.11z"/>
   <path class="fil4" d="M315.89 373.53l46.13 126.27 16.82 -6.15 -46.13 -126.26c-2.43,-6.85 -3.78,-14.04 -4,-21.27 -0.21,-4.13 -1.05,-8.23 -2.5,-12.13 -4.76,-13.01 -14.62,-21.36 -22.05,-18.65 -7.43,2.72 -9.61,15.42 -4.84,28.48 1.4,3.91 3.4,7.59 5.91,10.88 4.49,5.66 8.09,12.02 10.66,18.83z"/>
   <path class="fil5 str2" d="M315.89 373.53l1.53 -0.56 -0.01 -0.02 -1.52 0.58zm46.13 126.27l-1.53 0.56 0.56 1.52 1.53 -0.56 -0.56 -1.52zm16.82 -6.15l0.56 1.53 1.52 -0.56 -0.56 -1.52 -1.52 0.55zm-46.13 -126.26l-1.53 0.55 0.01 0.01 1.52 -0.56zm-4 -21.27l1.62 -0.05 0 -0.01 0 -0.01 -1.62 0.07zm-2.5 -12.13l-1.53 0.56 0.01 0.01 1.52 -0.57zm-26.89 9.83l1.53 -0.55 -0.01 -0.01 -1.52 0.56zm5.91 10.88l-1.29 0.99 0.01 0.01 0.01 0.01 1.27 -1.01zm9.13 19.38l46.13 126.28 3.06 -1.12 -46.13 -126.27 -3.06 1.11zm48.22 127.24l16.82 -6.14 -1.12 -3.05 -16.82 6.14 1.12 3.05zm17.78 -8.22l-46.12 -126.27 -3.05 1.12 46.12 126.26 3.05 -1.11zm-46.11 -126.25c-2.38,-6.7 -3.7,-13.72 -3.92,-20.78l-3.25 0.1c0.23,7.4 1.61,14.75 4.1,21.77l3.07 -1.09zm-3.92 -20.8c-0.21,-4.3 -1.09,-8.57 -2.6,-12.62l-3.04 1.13c1.39,3.74 2.2,7.68 2.39,11.64l3.25 -0.15zm-2.59 -12.62c-2.46,-6.72 -6.26,-12.31 -10.5,-15.9 -4.21,-3.56 -9.14,-5.36 -13.64,-3.71l1.11 3.05c2.93,-1.07 6.65,-0.05 10.43,3.14 3.73,3.16 7.24,8.25 9.54,14.54l3.06 -1.12zm-24.14 -19.61c-4.5,1.64 -7.11,6.19 -8.04,11.61 -0.93,5.47 -0.23,12.2 2.23,18.95l3.05 -1.12c-2.3,-6.31 -2.9,-12.46 -2.08,-17.28 0.83,-4.87 3.02,-8.04 5.95,-9.11l-1.11 -3.05zm-5.81 30.55c1.46,4.07 3.54,7.89 6.15,11.32l2.58 -1.98c-2.41,-3.15 -4.32,-6.68 -5.67,-10.44l-3.06 1.1zm6.17 11.34c4.38,5.53 7.9,11.74 10.41,18.39l3.04 -1.15c-2.62,-6.96 -6.31,-13.46 -10.91,-19.26l-2.54 2.02z"/>
   <rect class="fil1" transform="matrix(0.0551872 0.151067 0.369252 -0.134894 312.713 527.945)" width="33.96" height="329.53"/>
   <rect class="fil1" transform="matrix(0.0551872 0.151067 0.369252 -0.134894 316.658 538.744)" width="33.96" height="329.53"/>
   <rect class="fil1" transform="matrix(0.0551872 0.151067 0.369252 -0.134894 320.603 549.542)" width="33.96" height="329.53"/>
  </g>
  <path class="fil6" d="M311.14 477.09l-41.67 -109.25 7.03 -2.68 -24.77 -22.75 -3.33 33.47 7.02 -2.68 41.67 109.25 14.05 -5.36z"/>
 </g>
</svg>
