<svg width="125" height="125" viewBox="0 0 125 125" fill="none" xmlns="http://www.w3.org/2000/svg" style="">
<path fill-rule="evenodd" clip-rule="evenodd" d="M61.5007 31C44.6545 31 31 44.6545 31 61.5007C31 78.3469 44.6545 92.0014 61.5007 92.0014C78.347 92.0014 92.0014 78.3469 92.0014 61.5007C92.0014 44.6545 78.347 31 61.5007 31ZM90.0206 61.5007C90.0206 77.2478 77.2537 90.0206 61.5007 90.0206C45.7478 90.0206 32.9809 77.2536 32.9809 61.5007C32.9809 45.7537 45.7478 32.9809 61.5007 32.9809C77.2478 32.9809 90.0206 45.7537 90.0206 61.5007Z" fill="#009291" class="JAXCvLwD_0"></path>
<path fill-rule="evenodd" clip-rule="evenodd" d="M61.5007 43.4259V44.4193C70.9172 44.4193 78.5821 52.0841 78.5821 61.5006H79.5755C79.5755 51.5199 71.4815 43.4259 61.5007 43.4259ZM61.5007 78.582V79.5754C51.52 79.5754 43.426 71.4814 43.426 61.5006H44.4194C44.4194 70.923 52.0843 78.582 61.5007 78.582Z" fill="#009291" class="JAXCvLwD_1"></path>
<path fill-rule="evenodd" clip-rule="evenodd" d="M76.1072 48.628C76.5186 49.0689 77.1182 49.7801 77.4532 50.2151L83.6251 46.3238C83.3194 45.9241 82.8257 45.3128 82.4613 44.8838L78.5524 47.4524L78.2879 47.6817L78.4878 47.3936L80.2159 43.9727L78.9933 42.7618L75.5488 44.4782L75.2608 44.678L75.49 44.4135L78.0763 40.5341C77.6237 40.152 77.1828 39.7993 76.6244 39.3702L72.7097 45.4951C73.2035 45.8771 73.8618 46.4297 74.2791 46.8117L77.9646 44.9131L78.1997 44.7427L78.0234 44.9778L76.1072 48.628Z" fill="#009291" class="JAXCvLwD_2"></path>
<path fill-rule="evenodd" clip-rule="evenodd" d="M62.1 40.8691L63.7869 37.119L63.8928 36.7839L63.8634 37.1307L64.0397 42.1446C64.6334 42.1975 65.2447 42.2798 65.8442 42.3797L65.568 34.9559C64.7274 34.8618 63.8869 34.7972 63.0463 34.7619L61.3829 38.853L61.3241 39.1586L61.2653 38.853L59.6077 34.7619C58.7672 34.7972 57.9325 34.8618 57.0861 34.9559L56.8098 42.3797C57.4094 42.2798 58.0207 42.1975 58.6144 42.1446L58.7907 37.1307L58.7613 36.7839L58.8671 37.119L60.5541 40.8691H62.1Z" fill="#009291" class="JAXCvLwD_3"></path>
<path fill-rule="evenodd" clip-rule="evenodd" d="M48.4631 46.7882C49.4388 45.7713 49.9914 44.5898 49.0156 43.4671C48.4866 42.8558 47.5932 42.7206 46.8584 43.0263L46.7879 43.0557L46.8114 42.991C46.9231 42.703 46.9877 41.7743 46.1942 41.1395C45.8063 40.8279 45.3243 40.7104 44.8305 40.7633C43.9135 40.8573 43.2082 41.4745 41.292 43.6023C40.7159 44.243 39.8695 45.254 39.364 45.9065L44.6307 50.8675C46.3764 48.9395 47.0876 48.2224 48.4631 46.7882ZM41.5918 45.5714C42.6498 44.2842 43.7784 43.1145 44.2897 42.6501C44.4484 42.5032 44.6248 42.3562 44.8423 42.3033C45.1891 42.2093 45.5476 42.4503 45.624 42.8029C45.7063 43.1556 45.483 43.4906 45.2302 43.7728C44.6718 44.4017 42.6145 46.5354 42.6145 46.5354L41.5918 45.5714ZM43.6549 47.517C43.6549 47.517 45.6593 45.4127 46.3118 44.7427C46.5704 44.4781 46.7408 44.3136 46.9172 44.2254C47.1464 44.1137 47.3992 44.0902 47.6284 44.2372C47.8518 44.3841 47.9517 44.6368 47.8988 44.8896C47.8341 45.1894 47.5873 45.4774 47.3815 45.6949C47.1053 45.9888 44.7306 48.5163 44.7247 48.5163L43.6549 47.517Z" fill="#009291" class="JAXCvLwD_4"></path>
<path fill-rule="evenodd" clip-rule="evenodd" d="M61.5007 43.4259V61.5006H43.426C43.426 51.514 51.5141 43.4259 61.5007 43.4259Z" fill="#009291" class="JAXCvLwD_5"></path>
<path fill-rule="evenodd" clip-rule="evenodd" d="M79.5752 61.5007C79.5752 71.4873 71.4871 79.5754 61.5005 79.5754V61.5007H79.5752V61.5007Z" fill="#009291" class="JAXCvLwD_6"></path>
<style data-made-with="vivus-instant">.JAXCvLwD_0{stroke-dasharray:371 373;stroke-dashoffset:372;animation:JAXCvLwD_draw 1421ms ease 0ms forwards;}.JAXCvLwD_1{stroke-dasharray:115 117;stroke-dashoffset:116;animation:JAXCvLwD_draw 443ms ease 1421ms forwards;}.JAXCvLwD_2{stroke-dasharray:52 54;stroke-dashoffset:53;animation:JAXCvLwD_draw 202ms ease 1864ms forwards;}.JAXCvLwD_3{stroke-dasharray:55 57;stroke-dashoffset:56;animation:JAXCvLwD_draw 214ms ease 2067ms forwards;}.JAXCvLwD_4{stroke-dasharray:55 57;stroke-dashoffset:56;animation:JAXCvLwD_draw 214ms ease 2281ms forwards;}.JAXCvLwD_5{stroke-dasharray:65 67;stroke-dashoffset:66;animation:JAXCvLwD_draw 252ms ease 2495ms forwards;}.JAXCvLwD_6{stroke-dasharray:65 67;stroke-dashoffset:66;animation:JAXCvLwD_draw 252ms ease 2747ms forwards;}@keyframes JAXCvLwD_draw{100%{stroke-dashoffset:0;}}@keyframes JAXCvLwD_fade{0%{stroke-opacity:1;}94.44444444444444%{stroke-opacity:1;}100%{stroke-opacity:0;}}</style></svg>
