<svg width="16" height="16" viewBox="0 0 16 16" fill="none" xmlns="http://www.w3.org/2000/svg">
<rect width="16" height="16" fill="#1FD7C8"/>
<path d="M10.8282 7.54333C10.2097 6.97159 9.39527 6.68572 8.38485 6.68572H7.53983V8.98706H8.28596C8.57183 8.98706 8.79477 9.05897 8.95658 9.20101C9.1184 9.34304 9.1993 9.5534 9.1993 9.82848C9.1993 10.3804 8.89366 10.6573 8.28416 10.6573H6.81347V10.0334V8.98706V6.68572V5.73103V5.47213H10.8839V3H4.25684V13H8.38485C9.40426 13 10.2187 12.7087 10.8282 12.128C11.4377 11.5473 11.7434 10.7796 11.7434 9.82848C11.7416 8.87738 11.4377 8.11507 10.8282 7.54333Z" fill="black"/>
</svg>
