<svg width="125" height="125" viewBox="0 0 125 125" fill="none" xmlns="http://www.w3.org/2000/svg">
<path d="M62 18L73.1627 27.7035L87.9369 26.3902L91.2444 40.7995L104 48.3993L98.1511 61.9818L104 75.6007L91.2444 83.1883L87.9369 97.6098L73.1627 96.26L62 106L50.8373 96.26L36.0631 97.6098L32.7678 83.1883L20 75.6007L25.8489 61.9818L20 48.3993L32.7678 40.7995L36.0631 26.3902L50.8373 27.7035L62 18Z" stroke="#1FD7C8" stroke-width="3.36" stroke-miterlimit="10"/>
<path d="M62.5 91C78.7969 91 92 78.0176 92 61.982C92 45.9824 78.7969 33 62.5 33C46.2031 33 33 45.9824 33 61.982C33 78.0176 46.2031 91 62.5 91Z" stroke="#1FD7C8" stroke-width="3.36" stroke-miterlimit="10"/>
<path d="M45 64.0864L59.0944 77L81 53" stroke="#1FD7C8" stroke-width="3.36" stroke-miterlimit="10"/>
</svg>
