<svg width="125" height="126" viewBox="0 0 125 126" fill="none" xmlns="http://www.w3.org/2000/svg">
<path d="M35.1074 97.1912L52.971 97.1912" stroke="#009291" stroke-width="3.36"/>
<path d="M53.11 64.3263L53.11 101.09C53.11 104.434 50.3995 107.144 47.056 107.144H40.1371C36.7935 107.144 34.083 104.434 34.083 101.09L34.083 63.978M34.083 64.0686C34.083 61.5951 35.4864 56.4476 37.8135 50.8828C39.5962 46.6198 40.4536 34.6628 40.7951 25.4164M40.7951 25.4164C40.8994 22.5927 40.9556 20.0218 40.9753 18L46.6037 18C46.6234 20.0218 46.6796 22.5927 46.7839 25.4164M40.7951 25.4164H46.7839M53.11 64.4679C53.11 62.1642 52.0926 56.4476 49.7655 50.8828C47.9828 46.6198 47.1254 34.6628 46.7839 25.4164" stroke="#009291" stroke-width="3.36"/>
<circle r="2.67904" transform="matrix(1 -2.18557e-08 -2.18557e-08 -1 43.442 87.7641)" stroke="#009291" stroke-width="3.36"/>
<rect x="1.68" y="-1.68" width="7.1645" height="13.9819" transform="matrix(1 -2.18557e-08 -2.18557e-08 -1 38.4614 77.3668)" stroke="#009291" stroke-width="3.36"/>
<path d="M69.083 51.0356C69.083 48.8265 70.8739 47.0356 73.083 47.0356H88.083C90.2921 47.0356 92.083 48.8265 92.083 51.0356V54.0356C92.083 56.2447 90.2921 58.0356 88.083 58.0356H73.083C70.8739 58.0356 69.083 56.2447 69.083 54.0356V51.0356Z" stroke="#009291" stroke-width="3.36"/>
<rect x="63.083" y="58.0356" width="35" height="49" rx="8" stroke="#009291" stroke-width="3.36"/>
<path d="M80.7856 73.3514V90.6487" stroke="#009291" stroke-width="3.36"/>
<path d="M89.4346 82L72.1373 82" stroke="#009291" stroke-width="3.36"/>
<circle cx="81.083" cy="82.0356" r="12" stroke="#009291" stroke-width="3.36"/>
</svg>
