<svg width="126" height="126" viewBox="0 0 126 126" fill="none" xmlns="http://www.w3.org/2000/svg">
<path d="M60.6094 38.6514L60.6094 26.0931" stroke="#009291" stroke-width="3.36"/>
<path d="M84.8118 63.0012L95.1484 63.0012" stroke="#009291" stroke-width="3.36"/>
<path d="M55.0999 27.7263H66.3647" stroke="#009291" stroke-width="3.36"/>
<path d="M54.9764 97.1038H66.2412" stroke="#009291" stroke-width="3.36"/>
<path d="M80.2729 92.1392L88.2383 84.1737" stroke="#009291" stroke-width="3.36"/>
<path d="M31.3432 84.2854L39.3086 92.2509" stroke="#009291" stroke-width="3.36"/>
<path d="M25.1538 57.3688L25.1538 68.6336" stroke="#009291" stroke-width="3.36"/>
<path d="M95.1484 57.3688L95.1484 68.6336" stroke="#009291" stroke-width="3.36"/>
<path d="M82.414 34.6503L90.3794 42.6157" stroke="#009291" stroke-width="3.36"/>
<path d="M39.733 34.6503L31.7676 42.6157" stroke="#009291" stroke-width="3.36"/>
<path d="M26.0337 63.0012L36.6533 63.0012" stroke="#009291" stroke-width="3.36"/>
<path d="M60.6094 97.1038V87.1745" stroke="#009291" stroke-width="3.36"/>
<path d="M35.4009 88.2681L44.0425 79.6266" stroke="#009291" stroke-width="3.36"/>
<path d="M78.3068 46.4349L86.3965 38.3451" stroke="#009291" stroke-width="3.36"/>
<path d="M43.3324 46.3714L36.1328 39.1718" stroke="#009291" stroke-width="3.36"/>
<path d="M84.2558 87.75L77.1753 80.6694" stroke="#009291" stroke-width="3.36"/>
<circle cx="60.6089" cy="63.0012" r="25.232" stroke="#009291" stroke-width="3.36"/>
<circle cx="68.2075" cy="72.4238" r="5.71481" stroke="#009291" stroke-width="3.36"/>
<path d="M46.7843 41.2925C47.7472 41.5505 48.6259 42.0559 49.333 42.7585C50.0402 43.461 50.5513 44.3364 50.8156 45.2976C51.0798 46.2587 51.0881 47.2723 50.8395 48.2377C50.5909 49.203 50.0942 50.0866 49.3985 50.8006C48.7029 51.5146 47.8326 52.0342 46.874 52.3079C45.9155 52.5815 44.902 52.5997 43.9343 52.3605C42.9666 52.1214 42.0782 51.6333 41.3574 50.9447C40.6367 50.256 40.1086 49.3909 39.8256 48.435" stroke="#009291" stroke-width="3.36"/>
<circle cx="110.583" cy="85.5" r="9.5" stroke="#009291" stroke-width="3.36"/>
<circle cx="21.5314" cy="19.9672" r="5.04705" stroke="#009291" stroke-width="3.36"/>
<circle cx="72.545" cy="52.509" r="4.63047" fill="#009291"/>
<circle cx="60.6085" cy="58.3707" r="4.63047" fill="#009291"/>
<circle cx="91.0591" cy="101.911" r="4.08941" fill="#009291"/>
<circle cx="20.1724" cy="110.089" r="4.08941" fill="#009291"/>
</svg>
