<svg width="126" height="126" viewBox="0 0 126 126" fill="none" xmlns="http://www.w3.org/2000/svg">
<path d="M79.083 52.6016V35.4C79.083 29.6562 76.3519 25 72.983 25H24.183C20.8141 25 18.083 29.6562 18.083 35.4V92.6C18.083 98.3438 20.8141 103 24.183 103H27.8214M79.083 75.5058V92.6C79.083 98.3438 76.3519 103 72.983 103H68.6906M55.9053 103H48.583H40.3882" stroke="#009291" stroke-width="3.36"/>
<path d="M61.083 25V16H36.083V25" stroke="#009291" stroke-width="3.36"/>
<path d="M110.073 69.064L61.5422 79.2584C58.4151 80.1403 56.806 78.6551 56.3922 77.8023L49.083 62.0547L52.9851 60.9257L61.5422 68.4132L74.1602 65.2043C71.7437 62.0547 66.2469 54.6325 64.7732 51.8276C63.2994 49.0228 65.3872 47.9254 66.6153 47.7273L70.5001 47L91.2639 60.8797C91.2639 60.8797 96.1752 58.8805 101.456 57.1194C108.767 54.6813 113.659 58.5484 115.034 60.1065C118.48 64.012 114.287 67.71 110.073 69.064Z" stroke="#009291" stroke-width="3.36"/>
<circle cx="33.583" cy="102.5" r="6.5" stroke="#009291" stroke-width="3.36"/>
<circle cx="62.583" cy="102.5" r="6.5" stroke="#009291" stroke-width="3.36"/>
</svg>
