<svg width="125" height="125" viewBox="0 0 125 125" fill="none" xmlns="http://www.w3.org/2000/svg">
<path d="M91.8002 80.4791L97.3126 85.9915C97.3126 85.9915 99.5931 89.6874 97.0836 92.5514C94.5 95.5 90.1135 93.5 89.322 92.5679M89.322 92.5679C90.5 93.5684 92.4874 97.1476 89.659 99.976C86.8306 102.804 83.8354 101.431 81.8354 99.9306M89.322 92.5679C89.4801 92.6435 83.1817 86.5635 83.1817 86.5635M81.8354 99.9306C82.8354 101.931 85.0695 104.579 81.8054 107.83C79.401 110.224 76.2405 109.185 74.1192 107.064M81.8354 99.9306L75.825 93.9202M74.1192 107.064C76.2405 109.185 77.8054 112.342 74.8054 115.33C71.8054 118.317 68.4623 116.256 66.9862 114.78L62.2428 110.036M74.1192 107.064L66.6945 99.6389M30.9159 80.3994L23.899 65.4L45.1498 44.3025L62.6521 51.2641L63.7593 52.5528" stroke="#1FD7C8" stroke-width="3.36" stroke-miterlimit="10"/>
<path fill-rule="evenodd" clip-rule="evenodd" d="M31.3428 81.3027L36.0785 76.6394C38.1329 74.5536 41.5346 74.5536 43.629 76.6394C45.6834 78.6854 45.6834 82.06 43.629 84.1059L38.8933 88.7957C36.8389 90.8417 33.4372 90.8417 31.3428 88.7957C29.2884 86.7232 29.2884 83.3487 31.3428 81.3027Z" stroke="#1FD7C8" stroke-width="3.36" stroke-miterlimit="10"/>
<path fill-rule="evenodd" clip-rule="evenodd" d="M38.8933 88.809L43.6291 84.1192C45.6834 82.0732 49.0852 82.0732 51.1395 84.1192C53.2339 86.205 53.2339 89.5663 51.1395 91.6123L46.4438 96.2755C44.3894 98.3613 40.9877 98.3613 38.8933 96.2755C36.8389 94.2162 36.8389 90.855 38.8933 88.809Z" stroke="#1FD7C8" stroke-width="3.36" stroke-miterlimit="10"/>
<path fill-rule="evenodd" clip-rule="evenodd" d="M46.4439 96.2622L51.1396 91.5989C53.234 89.553 56.6357 89.553 58.6901 91.5989C60.7845 93.6848 60.7845 97.046 58.6901 99.092L53.9944 103.755C51.94 105.841 48.5383 105.841 46.4439 103.755C44.3895 101.723 44.3895 98.348 46.4439 96.2622Z" stroke="#1FD7C8" stroke-width="3.36" stroke-miterlimit="10"/>
<path fill-rule="evenodd" clip-rule="evenodd" d="M53.9943 103.769L58.69 99.1054C60.7844 97.0594 64.1861 97.0594 66.2405 99.1054C68.3349 101.191 68.3349 104.552 66.2405 106.598L61.5448 111.262C59.4504 113.348 56.0487 113.348 53.9943 111.262C51.9399 109.216 51.9399 105.841 53.9943 103.769Z" stroke="#1FD7C8" stroke-width="3.36" stroke-miterlimit="10"/>
<path fill-rule="evenodd" clip-rule="evenodd" d="M51.9 62.8225L52.2869 62.477L57.5829 57.1761L64.1862 51.4633L80.3945 42.9473L101.605 64.0447L92.6807 81.3558L74.5515 63.3937L62.9189 70.0631L61.0513 71.9231C58.53 74.4208 54.4213 74.4208 51.9 71.9231C49.3787 69.4121 49.3787 65.3334 51.9 62.8225Z" stroke="#1FD7C8" stroke-width="3.36" stroke-miterlimit="10"/>
<path d="M91.4133 32L112.624 53.0975L101.592 64.0448L80.3944 42.9473L91.4133 32Z" stroke="#1FD7C8" stroke-width="3.36" stroke-miterlimit="10"/>
<path d="M13 54.5323L24.099 43.5186L34.2375 33.4481L45.1497 44.3157L23.8989 65.3999L13 54.5323Z" stroke="#1FD7C8" stroke-width="3.36" stroke-miterlimit="10"/>
</svg>
