<svg width="125" height="125" viewBox="0 0 125 125" fill="none" xmlns="http://www.w3.org/2000/svg">
<path fill-rule="evenodd" clip-rule="evenodd" d="M10.2163 95.538H39.3281V81.6133C39.3281 73.9772 32.7725 67.7126 24.7801 67.7126C16.7641 67.7126 10.2085 73.9772 10.2085 81.6133V95.538H10.2163Z" stroke="#009291" stroke-width="3.36" stroke-miterlimit="10"/>
<path d="M25.1037 61.8887C29.7404 61.8887 33.5043 58.1238 33.5043 53.4764C33.5043 48.8289 29.7404 45.064 25.1037 45.064C20.4436 45.064 16.6797 48.8289 16.6797 53.4764C16.6797 58.1238 20.4514 61.8887 25.1037 61.8887Z" stroke="#009291" stroke-width="3.36" stroke-miterlimit="10"/>
<path d="M44.3708 34.9623C49.0075 34.9623 52.7714 31.1974 52.7714 26.55C52.7714 21.9025 49.0075 18.1376 44.3708 18.1376C39.7107 18.1376 35.9468 21.9025 35.9468 26.55C35.9468 31.1974 39.7185 34.9623 44.3708 34.9623Z" stroke="#009291" stroke-width="3.36" stroke-miterlimit="10"/>
<path d="M82.1027 34.9624C86.7394 34.9624 90.5034 31.1975 90.5034 26.55C90.5034 21.9025 86.7394 18.1377 82.1027 18.1377C77.4426 18.1377 73.6787 21.9025 73.6787 26.55C73.6787 31.1975 77.4504 34.9624 82.1027 34.9624Z" stroke="#009291" stroke-width="3.36" stroke-miterlimit="10"/>
<path fill-rule="evenodd" clip-rule="evenodd" d="M47.9483 106.862H77.06V92.9375C77.06 85.3014 70.5044 79.0369 62.512 79.0369C54.4961 79.0369 47.9404 85.3014 47.9404 92.9375V106.862H47.9483Z" stroke="#009291" stroke-width="3.36" stroke-miterlimit="10"/>
<path d="M62.8356 73.2129C67.4724 73.2129 71.2363 69.4481 71.2363 64.8006C71.2363 60.1531 67.4724 56.3882 62.8356 56.3882C58.1755 56.3882 54.4116 60.1531 54.4116 64.8006C54.4116 69.4481 58.1833 73.2129 62.8356 73.2129Z" stroke="#009291" stroke-width="3.36" stroke-miterlimit="10"/>
<path fill-rule="evenodd" clip-rule="evenodd" d="M85.6797 95.538H114.791V81.6133C114.791 73.9771 108.236 67.7126 100.243 67.7126C92.2275 67.7126 85.6719 73.9771 85.6719 81.6133V95.538H85.6797Z" stroke="#009291" stroke-width="3.36" stroke-miterlimit="10"/>
<path d="M100.567 61.8886C105.204 61.8886 108.968 58.1237 108.968 53.4762C108.968 48.8288 105.204 45.0639 100.567 45.0639C95.907 45.0639 92.1431 48.8288 92.1431 53.4762C92.1431 58.1237 95.9148 61.8886 100.567 61.8886Z" stroke="#009291" stroke-width="3.36" stroke-miterlimit="10"/>
<path d="M91.2527 43.9827C88.7117 41.9171 85.4269 40.666 81.8552 40.666C74.9405 40.666 69.1125 45.3275 67.6416 51.5098" stroke="#009291" stroke-width="3.36" stroke-miterlimit="10"/>
<path d="M33.5041 43.9827C36.0451 41.9171 39.3299 40.666 42.9017 40.666C49.8163 40.666 55.6444 45.3275 57.1152 51.5098" stroke="#009291" stroke-width="3.36" stroke-miterlimit="10"/>
<path d="M62.459 78.64V91.3009" stroke="#009291" stroke-width="3.36" stroke-miterlimit="10"/>
<path d="M95.3525 47.1425C96.5936 49.7177 101.031 54.831 108.849 54.6821" stroke="#009291" stroke-width="3.36" stroke-miterlimit="10"/>
<path d="M103.9 46.3217C104.494 45.728 104.903 44.9756 105.08 44.1548C105.257 43.334 105.193 42.4797 104.896 41.6944C104.599 40.9092 104.081 40.2263 103.406 39.7278C102.73 39.2293 101.925 38.9364 101.087 38.8843C100.249 38.8321 99.4138 39.0229 98.6816 39.4337C97.9494 39.8445 97.3513 40.458 96.9592 41.2003C96.5671 41.9427 96.3975 42.7825 96.4709 43.6189C96.5443 44.4552 96.8576 45.2526 97.373 45.9153" stroke="#009291" stroke-width="3.36" stroke-miterlimit="10"/>
<path d="M39.0322 19.403C40.2733 21.9782 44.7102 27.0915 52.5291 26.9426" stroke="#009291" stroke-width="3.36" stroke-miterlimit="10"/>
<path d="M47.4436 18.5822C48.0372 17.9885 48.4469 17.2361 48.6235 16.4153C48.8001 15.5945 48.736 14.7402 48.439 13.9549C48.142 13.1697 47.6246 12.4868 46.949 11.9883C46.2734 11.4898 45.4683 11.1969 44.6304 11.1448C43.7924 11.0926 42.9572 11.2834 42.225 11.6942C41.4928 12.105 40.8948 12.7185 40.5027 13.4608C40.1105 14.2032 39.941 15.043 40.0144 15.8794C40.0878 16.7157 40.401 17.5131 40.9165 18.1758" stroke="#009291" stroke-width="3.36" stroke-miterlimit="10"/>
</svg>
