<svg width="125" height="125" viewBox="0 0 125 125" fill="none" xmlns="http://www.w3.org/2000/svg">
<path d="M86.6894 94H108V80C108 72.2881 101.023 66 92.5014 66C87.9401 66 83.8447 67.7915 81 70.6627" stroke="#1FD7C8" stroke-width="3.36" stroke-miterlimit="10"/>
<path fill-rule="evenodd" clip-rule="evenodd" d="M41.0121 106H86V84.4814C86 72.6809 75.8692 63 63.5182 63C51.1308 63 41 72.6809 41 84.4814V106H41.0121Z" stroke="#1FD7C8" stroke-width="3.36" stroke-miterlimit="10"/>
<path d="M64.0181 54C71.1834 54 77 48.182 77 41C77 33.818 71.1834 28 64.0181 28C56.8166 28 51 33.818 51 41C51 48.182 56.8286 54 64.0181 54Z" stroke="#1FD7C8" stroke-width="3.36" stroke-miterlimit="10"/>
<path d="M93 57C97.9542 57 102 52.9716 102 47.9817C102 43.0162 97.9421 39 93 39C88.0094 39 84 43.0284 84 47.9817C84 52.9716 88.0094 57 93 57Z" stroke="#1FD7C8" stroke-width="3.36" stroke-miterlimit="10"/>
<path d="M34 57C38.9906 57 43 52.9798 43 48C43 43.0445 38.9785 39 34 39C29.0458 39 25 43.0445 25 48C25 52.9798 29.0579 57 34 57Z" stroke="#1FD7C8" stroke-width="3.36" stroke-miterlimit="10"/>
<path d="M90 40C90.9419 44.8645 92.4098 49.364 102 50" stroke="#1FD7C8" stroke-width="3.36" stroke-miterlimit="10"/>
<path d="M61.5768 71L60 93.5502L63.5239 96L67 93.5502L65.471 71" stroke="#1FD7C8" stroke-width="3.36" stroke-miterlimit="10"/>
<path d="M58 65C58 67.7696 60.6748 70 64.0182 70C67.3252 70 70 67.7696 70 65" stroke="#1FD7C8" stroke-width="3.36" stroke-miterlimit="10"/>
<path d="M96.8476 39C97.0446 38.1443 97.0446 37.3022 96.8824 36.4464C96.2915 33.9744 94.1019 32.4938 91.9818 33.1594C89.8269 33.8114 88.5757 36.4057 89.1318 38.8913" stroke="#1FD7C8" stroke-width="3.36" stroke-miterlimit="10"/>
<path d="M40.3106 94H19V80C19 72.2881 25.9768 66 34.4619 66C39.0232 66 43.1553 67.7915 46 70.6627" stroke="#1FD7C8" stroke-width="3.36" stroke-miterlimit="10"/>
</svg>
