<svg width="126" height="125" viewBox="0 0 126 125" fill="none" xmlns="http://www.w3.org/2000/svg">
<path d="M96.9184 86.4841C101.373 79.9574 103.978 72.0756 103.978 63.5909C103.978 41.0539 85.6667 22.7958 63.1032 22.7958C40.4998 22.7958 22.1885 41.0539 22.1885 63.5909C22.1885 86.1013 40.4998 104.346 63.1032 104.346C66.2729 104.346 69.3588 103.986 72.3217 103.304" stroke="#009291" stroke-width="3.36" stroke-miterlimit="10"/>
<rect x="58.1885" y="36.3049" width="10" height="33" stroke="#009291" stroke-width="3.36"/>
<circle cx="63.1885" cy="84.3049" r="6" stroke="#009291" stroke-width="3.36"/>
<path fill-rule="evenodd" clip-rule="evenodd" d="M72.5617 111.881H102.263V97.674C102.263 89.8833 95.5745 83.4919 87.4203 83.4919C79.2421 83.4919 72.5537 89.8833 72.5537 97.674V111.881H72.5617Z" stroke="#009291" stroke-width="3.36" stroke-miterlimit="10"/>
<path d="M87.7508 77.55C92.4814 77.55 96.3215 73.709 96.3215 68.9674C96.3215 64.2258 92.4814 60.3848 87.7508 60.3848C82.9964 60.3848 79.1562 64.2258 79.1562 68.9674C79.1562 73.709 83.0043 77.55 87.7508 77.55Z" stroke="#009291" stroke-width="3.36" stroke-miterlimit="10"/>
<path d="M87.7388 83.4919V96.4092" stroke="#009291" stroke-width="3.36" stroke-miterlimit="10"/>
</svg>
