<svg width="125" height="125" viewBox="0 0 125 125" fill="none" xmlns="http://www.w3.org/2000/svg">
<path d="M83.1389 96.3979H73.2937" stroke="#1FD7C8" stroke-width="3.36" stroke-miterlimit="10"/>
<path d="M73.2502 56.3656H92.8682L100.165 76.056H112.457V96.3978H101.063" stroke="#1FD7C8" stroke-width="3.36" stroke-miterlimit="10"/>
<path d="M40.0519 44.9858H73.2938L73.3807 96.3979H46.929M29.0774 96.3979H21.7949L21.708 66.1095" stroke="#1FD7C8" stroke-width="3.36" stroke-miterlimit="10"/>
<path d="M37.9381 105.36C42.9041 105.36 46.9146 101.364 46.9146 96.3978C46.9146 91.4897 42.9041 87.4792 37.9381 87.4792C26.1528 87.4937 26.1528 105.36 37.9381 105.36Z" stroke="#1FD7C8" stroke-width="3.36" stroke-miterlimit="10"/>
<path d="M92.0864 105.36C97.0525 105.36 101.063 101.364 101.063 96.3978C101.063 91.4897 97.0525 87.4792 92.0864 87.4792C87.1639 87.4792 83.1389 91.4752 83.1389 96.3978C83.1389 101.349 87.1639 105.36 92.0864 105.36Z" stroke="#1FD7C8" stroke-width="3.36" stroke-miterlimit="10"/>
<path d="M22.62 66.1097C32.3493 66.1097 40.211 58.2625 40.211 48.5765C40.211 38.8906 32.3493 31 22.62 31C12.8906 31 5 38.8761 5 48.5765C5 58.2769 12.9051 66.1097 22.62 66.1097Z" stroke="#1FD7C8" stroke-width="3.36" stroke-miterlimit="10"/>
<path d="M22.6199 32.6793V49.807L32.8994 43.6972" stroke="#1FD7C8" stroke-width="3.36" stroke-miterlimit="10"/>
<path d="M91.5074 76.0561H81.0686V64.9513H87.4969L91.5074 76.0561Z" stroke="#1FD7C8" stroke-width="4.12672" stroke-miterlimit="10"/>
</svg>
