<svg width="126" height="125" viewBox="0 0 126 125" fill="none" xmlns="http://www.w3.org/2000/svg">
<rect x="7.41016" y="90.5" width="76" height="25" rx="5" stroke="#009291" stroke-width="3.36"/>
<rect x="24.4102" y="99.5" width="36" height="8" stroke="#009291" stroke-width="3.36"/>
<circle cx="72.4102" cy="103.5" r="4" stroke="#009291" stroke-width="3.36"/>
<circle cx="33.9102" cy="95" r="1.5" fill="#009291"/>
<circle cx="49.9102" cy="95" r="1.5" fill="#009291"/>
<path d="M16.4102 98V109" stroke="#009291" stroke-width="3.36"/>
<path d="M76.2802 59.0286L98.7969 72.0286L102.297 65.9664L79.7802 52.9664L76.2802 59.0286Z" stroke="#009291" stroke-width="3.36" stroke-miterlimit="10"/>
<path d="M120.833 25.8612L98.833 63.9663C98.4866 63.7663 88.2964 57.883 83.2446 54.9663L105.245 16.8612M104.995 17.2942C107.48 12.9896 112.984 11.5147 117.289 14C121.593 16.4853 123.068 21.9896 120.583 26.2942" stroke="#009291" stroke-width="3.36"/>
<path d="M106.837 50.1027C104.394 51.0014 99.9077 52.2992 99.6589 46.5357C99.3778 40.0226 101.396 32.5274 94.9986 34.6076" stroke="#009291" stroke-width="3.36"/>
<path d="M91.9854 68.75L79.266 83.9231L76.6062 82.3875M81.16 62.5L74.0698 80.9231L77.0392 82.6375" stroke="#009291" stroke-width="3.36"/>
</svg>
